<svg width="42" height="47" viewBox="0 0 42 47" fill="none" xmlns="http://www.w3.org/2000/svg">
<g id="Layer_x0020_1">
<g id="_731997216">
<path id="Vector" fill-rule="evenodd" clip-rule="evenodd" d="M33.4682 0.269043H33.4417H33.4152C32.8859 0.269043 32.3301 0.376678 31.8008 0.609886C31.7214 0.645764 31.642 0.681643 31.5361 0.717521C31.5097 0.717521 31.4832 0.73546 31.4567 0.753399C30.4245 1.14806 29.4718 1.29157 28.5719 1.29157C28.5454 1.29157 28.5454 1.29157 28.5454 1.29157C28.519 1.29157 28.519 1.29157 28.519 1.29157C27.4868 1.29157 26.534 1.09424 25.6077 0.896912C25.4753 0.861034 25.343 0.843095 25.2372 0.807217C25.2107 0.807217 25.1842 0.807217 25.1842 0.807217C25.1578 0.789277 25.1313 0.789277 25.1048 0.789277C25.0784 0.771338 25.0519 0.771338 25.0254 0.771338C25.0254 0.753399 24.999 0.753399 24.9725 0.753399C24.0462 0.53813 23.1463 0.340799 22.22 0.340799C22.22 0.340799 22.1935 0.340799 22.1671 0.340799C22.1406 0.340799 22.1406 0.340799 22.1141 0.340799C22.0877 0.340799 22.0612 0.340799 22.0612 0.340799C21.9289 0.340799 21.7965 0.340799 21.6642 0.358739C21.1349 0.412556 20.5526 0.574008 19.9439 0.753399C18.303 1.25569 16.4768 2.02708 14.5977 2.02708C13.9096 2.02708 13.2215 1.93738 12.5333 1.66829C10.9454 1.0763 9.35738 0.394617 7.79587 0.394617C6.0491 0.394617 4.30232 1.25569 2.50261 4.07214C2.39675 4.21565 2.31735 4.3771 2.21148 4.52061C2.21148 4.53855 2.21148 4.55649 2.18502 4.57443C0.967569 6.65537 0.491176 9.18479 0.517642 11.8218C0.517642 13.7413 0.755839 15.7146 1.15283 17.5803C6.76368 14.7459 14.2007 13.2749 21.3995 13.2749H21.426H21.4525C28.3337 13.2749 34.9767 14.6203 39.6083 17.4009C39.6613 17.4368 39.6877 17.4547 39.7407 17.4727C39.8201 17.5265 39.8995 17.5803 40.0053 17.6521C40.0053 17.6162 40.0318 17.5982 40.0318 17.5624C40.0318 17.5444 40.0583 17.5265 40.0583 17.4906C40.3494 16.773 40.5876 16.0734 40.7729 15.3558C40.7729 15.3558 40.7729 15.3558 40.7729 15.3379C40.7729 15.3379 40.7729 15.32 40.7729 15.302C40.7729 15.302 40.7993 15.302 40.7993 15.2841C40.7993 15.2661 40.7993 15.2303 40.7993 15.2123V15.1944C40.8258 15.1765 40.8258 15.1406 40.8258 15.1047C40.8523 15.0688 40.8523 15.0329 40.8523 14.9971C41.9374 10.2073 40.4817 5.59696 38.1527 2.85228V2.83434C38.1527 2.83434 38.1527 2.83434 38.1262 2.83434C38.1262 2.8164 38.1262 2.8164 38.1262 2.8164C37.0411 1.56066 35.7972 0.699582 34.5004 0.394617C34.5004 0.394617 34.5004 0.394617 34.4739 0.394617C34.1563 0.304921 33.8122 0.269043 33.4682 0.269043Z" fill="url(#paint0_linear_341_28729)"/>
<path id="Vector_2" fill-rule="evenodd" clip-rule="evenodd" d="M23.6227 46.2291H23.6492H23.6756C23.8344 46.2291 23.9932 46.2111 24.1785 46.2111C26.137 46.0856 28.7572 45.2962 30.5833 44.2916C30.6892 44.2378 30.7951 44.184 30.9009 44.1122C30.9274 44.0943 30.9803 44.0584 31.0068 44.0405C38.7879 39.2328 33.3094 29.5457 39.1849 19.2845C39.5025 18.7463 39.7671 18.1902 40.0053 17.652C35.3473 14.6921 28.519 13.2749 21.426 13.2749C20.9761 13.2749 20.5526 13.2749 20.1292 13.2928C13.7243 13.4364 7.24008 14.7459 2.07915 17.1318C1.76156 17.2753 1.47043 17.4368 1.15283 17.5803C1.65569 19.9662 2.39675 22.1906 3.1378 23.9846C6.65782 32.4159 3.87886 41.2779 6.94895 45.2424C6.94895 45.2604 6.94895 45.2604 6.94895 45.2604C7.18715 45.5474 7.69 45.6909 8.29873 45.6909C8.3252 45.6909 8.3252 45.6909 8.3252 45.6909C8.40459 45.6909 8.51046 45.6909 8.58986 45.6909C10.6278 45.5653 13.8831 44.2378 15.921 42.1748C15.921 42.1569 15.921 42.1569 15.9475 42.1389C15.9475 42.121 15.974 42.121 15.974 42.1031C16.0269 42.0672 16.0534 42.0134 16.0798 41.9775C16.1327 41.9416 16.1592 41.9057 16.1857 41.8699C16.2121 41.834 16.2386 41.816 16.2651 41.7802C18.7794 38.8561 17.8795 36.4164 20.8702 33.9228C20.8967 33.9049 20.9231 33.9049 20.9231 33.8869C21.3466 33.5461 21.7171 33.3847 22.0347 33.3667H22.0612C22.0612 33.3667 22.0612 33.3667 22.0877 33.3667C22.9875 33.4026 23.5962 34.6583 24.1256 37.2236C24.1256 37.2416 24.1256 37.2416 24.152 37.2595C24.152 37.3133 24.152 37.3851 24.1785 37.4389C24.2844 37.9771 24.3373 38.4435 24.3373 38.892C24.3373 42.1569 21.6907 42.8744 21.4789 44.9554C21.4789 44.9733 21.4789 44.9913 21.4789 44.9913C21.426 45.8703 22.3259 46.2291 23.6227 46.2291Z" fill="url(#paint1_linear_341_28729)"/>
<path id="Vector_3" d="M39.476 17.3295C29.9747 23.644 39.3173 34.0667 32.5948 42.4622C30.0276 45.6553 22.1671 47.1443 24.7873 45.5656C26.7193 44.4175 27.5662 44.0767 28.7043 42.803C31.1392 40.0583 35.7972 35.9144 30.848 27.3933C27.0369 20.8455 27.4339 15.9302 26.534 13.5264C32.6477 13.5264 39.476 17.3295 39.476 17.3295Z" fill="#E9B225"/>
<path id="Vector_4" d="M17.2976 40.4344C16.1596 43.7711 9.11954 46.0494 8.03442 45.6009C12.0308 44.112 12.7719 42.1566 14.7569 37.7615C19.2561 27.8412 16.1066 17.6518 18.4621 15.9475C22.4056 13.0773 33.8126 28.0744 22.0616 33.3844C20.6324 34.0302 19.3885 34.3172 17.2976 40.4344Z" fill="#DECB8E"/>
<path id="Vector_5" d="M17.8536 39.4302C15.3922 43.3409 13.6984 44.3455 15.3657 39.8966C16.5832 36.6496 20.7119 34.4969 19.8121 28.5232C19.3357 25.348 23.1733 22.5495 24.5231 26.6934C25.3171 29.1331 23.438 31.7343 20.8707 33.9229C18.5682 35.8962 18.6476 38.1744 17.8536 39.4302Z" fill="#CBBC84"/>
<path id="Vector_6" d="M24.5493 0.969018C24.5493 0.969018 29.4985 1.99155 32.1187 0.574357C32.9391 0.12588 36.565 0.71787 34.977 2.09918C33.2038 3.64195 25.5286 2.08124 24.5493 0.969018Z" fill="#F4F4F5"/>
<path id="Vector_7" fill-rule="evenodd" clip-rule="evenodd" d="M6.57869 1.82945C7.90201 3.58748 15.8684 2.9058 17.1652 1.95502C17.1652 1.95502 13.3541 2.18823 9.86051 0.735162C9.72818 0.681344 9.56939 0.627527 9.38412 0.591649C9.04006 0.537831 8.64307 0.501953 8.24607 0.501953C7.05509 0.501953 5.83764 0.824857 6.57869 1.82945Z" fill="url(#paint2_linear_341_28729)"/>
<path id="Vector_8" fill-rule="evenodd" clip-rule="evenodd" d="M33.3894 0L33.3629 0L33.3365 0C33.2041 0.0179391 33.0983 0.0179391 32.9659 0.0358782C32.4366 0.0896956 32.0131 0.251148 31.378 0.448478C31.325 0.484356 31.2721 0.502295 31.2192 0.520234C31.1927 0.538174 31.1662 0.538174 31.1398 0.556113C31.1398 0.556113 31.1398 0.556113 31.1133 0.556113C31.1133 0.556113 31.1133 0.556113 31.0868 0.574052C30.187 0.914895 29.393 1.04047 28.6255 1.04047C28.599 1.04047 28.599 1.04047 28.599 1.04047C27.6727 1.04047 26.7993 0.843139 25.9259 0.645808C25.873 0.627869 25.8465 0.627869 25.82 0.60993C25.7406 0.60993 25.6877 0.591991 25.6348 0.574052C25.5024 0.538174 25.3966 0.520234 25.2907 0.502295C24.4173 0.287026 23.491 0.125574 22.4588 0.107635C22.4323 0.107635 22.4323 0.107635 22.4059 0.107635H22.3794C21.5325 0.107635 20.6062 0.233209 19.5475 0.538174C19.5211 0.556113 19.4946 0.556113 19.4681 0.574052C19.3887 0.591991 19.3093 0.627869 19.2564 0.645808C19.177 0.663747 19.1241 0.681687 19.0711 0.699626C19.0447 0.717565 19.0182 0.717565 18.9917 0.735504C18.9388 0.735504 18.9123 0.753443 18.8594 0.771382C16.6892 1.45307 15.4982 1.72216 14.5719 1.74009C14.5719 1.74009 14.5454 1.74009 14.5189 1.74009C13.4603 1.74009 12.7457 1.36337 11.2106 0.825199C11.1842 0.825199 11.1312 0.80726 11.1048 0.789321C11.0518 0.771382 11.0254 0.771382 10.9724 0.753443C10.946 0.735504 10.9195 0.735504 10.893 0.717565C10.8666 0.717565 10.8136 0.699626 10.7872 0.681687C9.78146 0.358782 8.85514 0.215269 7.98175 0.215269H7.95529C0.59766 0.233209 -2.07543 11.2478 2.58263 23.1056C2.58263 23.1235 2.6091 23.1415 2.6091 23.1594C2.6091 23.1773 2.63556 23.1953 2.63556 23.2132C2.66203 23.285 2.6885 23.3388 2.71496 23.4105C6.87017 32.8645 3.72068 40.5245 6.73784 45.081C6.73784 45.0989 6.73784 45.0989 6.73784 45.1169C6.97604 45.5833 7.53183 45.7806 8.29935 45.7806H8.32582C8.43168 45.7806 8.56401 45.7627 8.66988 45.7627C10.1785 45.6551 12.2428 44.9196 13.9367 43.915C13.9631 43.8791 14.0161 43.8611 14.0425 43.8432C14.0955 43.8073 14.1484 43.7715 14.2013 43.7535C18.6477 40.9909 18.0389 37.5825 20.1033 35.1248C20.1033 35.1069 20.1298 35.0889 20.1298 35.071C20.1562 35.0351 20.2092 34.9992 20.2356 34.9633C20.9767 34.0484 21.5325 33.6538 21.9824 33.6538C21.9824 33.6538 21.9824 33.6538 22.0089 33.6538C22.697 33.6538 23.0675 34.6046 23.4381 35.9141C23.4381 35.9321 23.4381 35.95 23.4645 35.9679C23.4645 35.9859 23.4645 36.0218 23.4645 36.0397C23.491 36.0935 23.491 36.1473 23.5175 36.1832C23.7557 37.3134 23.8615 38.2103 23.8615 38.9458C23.8615 42.3901 21.6384 42.444 21.2149 44.6684C21.2149 44.7043 21.2149 44.7402 21.1884 44.776C21.0032 45.9421 22.0354 46.4085 23.5704 46.4264C23.5969 46.4264 23.6233 46.4264 23.6498 46.4085C25.1319 46.4085 27.0639 45.96 28.8107 45.3142C28.8372 45.2963 28.8637 45.2963 28.8901 45.2783C28.9166 45.2783 28.9431 45.2783 28.9431 45.2604C28.9431 45.2604 28.9431 45.2604 28.9695 45.2604C29.0225 45.2425 29.0754 45.2245 29.1283 45.1886C39.8472 40.8653 33.0189 30.2812 39.2914 19.4819C40.6941 17.1139 41.3293 14.3154 41.3293 11.5887C41.3293 5.95579 38.5768 0.645808 34.051 0.0538174C33.8129 0.0179391 33.5747 0.0179391 33.3894 0ZM33.5747 0.574052C39.1061 0.645808 43.3672 11.2837 39.0002 19.2307C38.9738 19.2846 38.9473 19.3384 38.9208 19.3922C32.9395 29.9224 39.3443 40.7218 28.8637 44.8837C28.7843 44.9016 28.7313 44.9375 28.6519 44.9554L28.6255 44.9734C28.599 44.9734 28.5461 44.9913 28.5196 45.0093C28.5196 45.0093 28.5196 45.0093 28.4931 45.0093C28.4931 45.0093 28.4931 45.0093 28.4667 45.0272C28.4137 45.0451 28.3608 45.0631 28.2814 45.081C28.2285 45.0989 28.1755 45.1169 28.1226 45.1348C26.7464 45.6012 25.079 45.9959 23.8086 46.0318C23.7557 46.0318 23.6763 46.0318 23.6233 46.0318C22.4059 46.0318 21.6119 45.673 21.8501 44.7222C22.1412 43.1256 24.7349 41.9417 24.7349 38.6229C24.7349 37.5645 24.4703 36.2908 23.7821 34.6943C23.3322 33.7435 22.8293 33.1336 22.1148 33.1336C22.1148 33.1336 22.1148 33.1336 22.0883 33.1336C22.0883 33.1336 22.0618 33.1336 22.0354 33.1336C21.6384 33.1515 21.2149 33.3309 20.6856 33.7255C20.6591 33.7435 20.6591 33.7435 20.6326 33.7614C16.9009 37.0084 18.8329 40.3989 13.9367 43.5562C13.8837 43.61 13.8043 43.6459 13.7514 43.6997C13.7249 43.6997 13.7249 43.6997 13.7249 43.7176C13.6985 43.7176 13.672 43.7356 13.672 43.7356C13.6191 43.7715 13.5926 43.7894 13.5661 43.8073C13.5397 43.8253 13.5132 43.8253 13.5132 43.8432C12.0046 44.7402 10.2049 45.4218 8.82868 45.5833C8.72281 45.6012 8.61695 45.6012 8.53755 45.6192C8.43168 45.6192 8.35228 45.6192 8.27288 45.6192H8.24642C7.61123 45.6192 7.13483 45.4577 6.9231 45.0989C6.9231 45.081 6.9231 45.081 6.9231 45.0631C6.89664 45.0631 6.89664 45.0451 6.89664 45.0272C3.87948 40.5603 6.81724 32.4339 3.08549 23.3388C1.49751 19.0872 0.888789 15.4456 0.888789 12.3959C0.888789 5.45349 4.11768 1.63246 6.55258 0.896956C6.55258 0.879017 6.57904 0.879017 6.57904 0.879017C7.0025 0.735504 7.42596 0.681687 7.82296 0.681687C7.84942 0.681687 7.87589 0.681687 7.90236 0.681687C8.85514 0.699626 9.80793 1.02253 10.8136 1.39925C10.8401 1.39925 10.8401 1.41719 10.8666 1.41719C10.893 1.41719 10.9195 1.43513 10.946 1.45307H10.9724C10.9724 1.45307 10.9724 1.45307 10.9989 1.47101C11.0254 1.47101 11.0783 1.48895 11.1048 1.50689C11.1312 1.50689 11.1312 1.52483 11.1577 1.52483C11.1577 1.52483 11.1842 1.52483 11.1842 1.54276C11.2106 1.54276 11.2371 1.5607 11.2636 1.5607C11.2636 1.5607 11.29 1.5607 11.29 1.57864C11.3165 1.57864 11.343 1.59658 11.3694 1.61452C12.4016 1.9733 13.4867 2.33209 14.6513 2.33209C14.6777 2.33209 14.6777 2.33209 14.7042 2.33209C14.8365 2.33209 14.9953 2.33209 15.1277 2.31415C15.1541 2.31415 15.2071 2.31415 15.2335 2.31415C17.3773 2.13476 20.6856 0.699626 22.0089 0.627869C22.0089 0.627869 22.0354 0.627869 22.0618 0.627869C22.1148 0.627869 22.1412 0.627869 22.1942 0.627869C22.2471 0.627869 22.3 0.627869 22.3265 0.627869C22.9881 0.645808 23.6763 0.771382 24.4173 0.932834C24.6026 0.968712 24.7878 1.00459 24.9731 1.05841C24.9996 1.05841 25.026 1.05841 25.0525 1.07635C25.079 1.07635 25.1319 1.09429 25.1584 1.09429C25.2113 1.11223 25.2378 1.11223 25.2642 1.13016C25.3701 1.1481 25.476 1.16604 25.5554 1.18398C26.5082 1.38131 27.5139 1.5607 28.5725 1.5607C29.6047 1.5607 30.6634 1.39925 31.8014 0.932834C31.8014 0.914895 31.8279 0.914895 31.8543 0.896956C32.4101 0.681687 32.9659 0.574052 33.4953 0.574052C33.5217 0.574052 33.5217 0.574052 33.5217 0.574052C33.5217 0.574052 33.5482 0.574052 33.5747 0.574052Z" fill="url(#paint3_linear_341_28729)"/>
</g>
</g>
<defs>
<linearGradient id="paint0_linear_341_28729" x1="1.32063" y1="8.9557" x2="40.4029" y2="8.9557" gradientUnits="userSpaceOnUse">
<stop stop-color="white"/>
<stop offset="0.180392" stop-color="white"/>
<stop offset="1" stop-color="#A4A4A3"/>
</linearGradient>
<linearGradient id="paint1_linear_341_28729" x1="1.15998" y1="29.7477" x2="40.0008" y2="29.7477" gradientUnits="userSpaceOnUse">
<stop stop-color="#FEFBF3"/>
<stop offset="1" stop-color="#EAB93A"/>
</linearGradient>
<linearGradient id="paint2_linear_341_28729" x1="6.79148" y1="1.70961" x2="16.7259" y2="1.70961" gradientUnits="userSpaceOnUse">
<stop stop-color="#C1C0BF"/>
<stop offset="0.321569" stop-color="#C1C0BF"/>
<stop offset="1" stop-color="#A4A4A3"/>
</linearGradient>
<linearGradient id="paint3_linear_341_28729" x1="2.31665" y1="23.2132" x2="39.2662" y2="23.2132" gradientUnits="userSpaceOnUse">
<stop stop-color="#E9E9E9"/>
<stop offset="1" stop-color="#A4A4A3"/>
</linearGradient>
</defs>
</svg>
