<svg width="34" height="75" viewBox="0 0 34 75" fill="none" xmlns="http://www.w3.org/2000/svg">
<g id="Layer_x0020_1">
<g id="_-1972419016">
<path id="Vector" fill-rule="evenodd" clip-rule="evenodd" d="M7.43799 33.3426C11.6947 61.2015 23.8143 75.0428 27.6914 74.5668C28.776 74.4257 29.1827 73.8967 29.1827 73.1033C29.1827 71.5693 27.7186 69.1008 27.095 66.8791C26.39 64.2166 26.1189 61.5894 26.1189 58.8212C26.1189 54.9068 26.6611 50.6927 27.2576 45.6675C28.1524 38.068 28.1253 30.2746 28.8573 25.1436L28.8844 25.0025C23.5974 29.6398 16.0871 32.3904 8.60385 27.33C7.46511 25.796 6.32636 24.262 5.21472 22.7456C6.02811 25.796 6.81439 29.2872 7.43799 33.3426Z" fill="url(#paint0_linear_341_27804)"/>
<path id="Vector_2" fill-rule="evenodd" clip-rule="evenodd" d="M20.371 0.141058C18.7442 0.246851 17.1175 0.335013 15.572 0.264484C9.30889 -0.0176322 3.18134 -0.335013 1.12075 2.82116C0.57849 3.68514 0.334473 4.61965 0.334473 5.69521C0.361586 9.20403 2.91021 14.2116 5.18771 22.7103C6.29934 24.2267 6.38068 26.1839 8.57684 27.2947C16.06 32.3552 23.5704 29.6045 28.8574 24.9849C29.4539 21.3703 33.3311 14.2116 33.3311 8.39295C33.3311 5.06045 32.0567 2.1864 28.2067 0.634761C27.8 0.458438 27.3933 0.335013 26.9324 0.246851C26.0105 0.0528967 25.0073 0 23.9228 0C22.7841 0 21.5911 0.070529 20.371 0.141058Z" fill="url(#paint1_linear_341_27804)"/>
<path id="Vector_3" d="M26.8779 68.3423C27.1761 72.2038 21.8891 54.7831 21.8891 40.7478C21.8891 31.4204 17.795 32.6017 19.5845 30.6269C20.4521 29.6924 25.1426 28.2289 26.1729 28.8284C27.2032 29.4103 26.5525 41.3826 25.7391 52.4027C25.0613 61.7302 26.661 65.7327 26.8779 68.3423Z" fill="#E4BB47"/>
<path id="Vector_4" d="M25.5227 26.8712C27.6104 25.1785 29.9964 20.1533 29.5355 17.5437C28.8847 13.7704 23.5435 13.8939 24.2484 19.9593C24.6009 22.9392 23.6248 26.8712 20.561 29.1986C20.561 29.1986 23.191 28.7578 25.5227 26.8712Z" fill="#AFAFAD"/>
<path id="Vector_5" d="M14.9208 0.352829C8.38653 -0.0879771 8.1154 0.846532 14.8665 5.81882C17.3338 7.65258 16.0324 0.423358 14.9208 0.352829Z" fill="white"/>
<path id="Vector_6" d="M29.21 1.55163C28.3695 1.09319 27.3392 0.528959 26.7427 1.07556C25.7124 2.0277 27.2578 11.6725 17.3616 17.5441C28.2881 15.4635 31.7315 2.94458 29.21 1.55163Z" fill="#E9EAE9"/>
<path id="Vector_7" d="M5.32325 1.55146C5.67572 0.863799 7.19405 0.528787 7.79054 1.07539C8.46837 1.69251 7.76343 5.39529 10.1223 9.94441C11.3695 12.3777 19.1238 16.2039 16.1685 17.1031C11.8033 17.6321 9.20042 12.9595 8.27858 9.18622C7.38385 5.46582 4.64543 2.82098 5.32325 1.55146Z" fill="#E9EAE9"/>
<path id="Vector_8" fill-rule="evenodd" clip-rule="evenodd" d="M27.3659 74.7254H27.393C28.1522 74.7254 28.9114 74.4433 29.1825 73.9673C29.1825 73.9496 29.1825 73.932 29.2096 73.9144C29.2096 73.8967 29.2096 73.8967 29.2096 73.8967C29.3181 73.6499 29.3723 73.3678 29.3723 73.068C29.3723 71.7456 28.3691 69.9471 27.6642 67.9547C26.661 65.0453 26.2543 62.5768 26.2543 59.4912C26.2814 53.9018 27.5557 46.267 28.7216 30.2746C29.3452 22.5869 29.6434 22.9572 31.7854 17.597C32.7885 15.0756 33.5748 12.0252 33.5748 9.1864C33.5748 4.9194 31.8125 1.0932 26.4441 0.211587C25.5222 0.0528967 24.736 0 23.8955 0C23.0278 0 22.106 0.070529 20.9944 0.123426C20.913 0.123426 20.8588 0.123426 20.8046 0.123426C19.72 0.176322 18.4457 0.229219 16.8189 0.229219C16.7918 0.229219 16.7918 0.229219 16.7918 0.229219C16.7647 0.229219 16.7376 0.229219 16.7376 0.229219C16.3309 0.229219 15.9242 0.229219 15.4904 0.229219C15.4633 0.229219 15.4362 0.229219 15.4091 0.229219C14.6228 0.211587 13.7823 0.193955 12.8604 0.141058C12.8062 0.141058 12.7791 0.141058 12.752 0.141058C11.9928 0.105793 11.2608 0.105793 10.5829 0.105793H10.5558C-4.38346 0.105793 0.388439 7.0529 3.47933 17.8615C3.53355 18.0202 3.56067 18.1612 3.61489 18.3199V18.3375C3.642 18.4081 3.642 18.461 3.66912 18.5315C7.13959 31.068 7.03114 36.6398 9.52554 45.6322C13.945 61.7834 21.862 72.733 26.4441 74.5491C26.4712 74.5668 26.4983 74.5844 26.5525 74.602C26.7966 74.6902 27.0677 74.7254 27.3659 74.7254ZM23.8141 0.105793C24.6275 0.105793 25.4138 0.15869 26.2543 0.299748C26.3085 0.299748 26.3627 0.31738 26.3899 0.31738C31.4871 1.26952 33.141 4.76071 33.141 8.6927C33.141 11.6725 32.192 14.8992 31.1075 17.4736C28.5589 23.6448 28.586 22.7632 28.0166 30.2569C27.1219 45.7028 25.9832 53.5844 25.9832 59.3501C25.9832 62.5768 26.3356 65.1511 27.2846 68.0252C27.9624 69.9471 28.9385 71.7985 28.9385 73.0504C28.9385 73.3149 28.8843 73.5617 28.7758 73.7909C28.5589 74.1965 28.1793 74.4081 27.6371 74.4081C26.2543 74.4081 23.9768 72.9093 21.3468 69.5592V69.5416L21.3197 69.5239C21.3197 69.5063 21.3197 69.5063 21.2926 69.4887C21.2926 69.471 21.2926 69.471 21.2926 69.471C21.2655 69.4534 21.2655 69.4358 21.2655 69.4358C21.2384 69.4181 21.2384 69.4181 21.2384 69.4181C16.9003 63.7758 11.6675 53.0202 8.27834 35.5113C8.25122 35.3703 8.22411 35.2469 8.197 35.1058C8.08855 34.5768 7.98009 34.0302 7.89875 33.4836C7.89875 33.4307 7.87164 33.3955 7.87164 33.3602C7.84453 33.2191 7.81742 33.0781 7.7903 32.9194C7.7903 32.8665 7.76319 32.796 7.76319 32.7431C7.73608 32.602 7.70896 32.461 7.68185 32.3375C7.68185 32.3199 7.68185 32.3023 7.68185 32.267C7.65474 32.1259 7.62762 31.9673 7.60051 31.8086C7.60051 31.7733 7.60051 31.738 7.5734 31.7028C7.5734 31.6322 7.5734 31.5793 7.54628 31.5265C7.54628 31.4207 7.51917 31.3149 7.49206 31.2267C3.23531 8.90428 -7.06765 0.176322 10.6101 0.176322H10.6372C11.2879 0.176322 11.9928 0.193955 12.752 0.211587C13.5383 0.246851 14.2432 0.264484 14.921 0.282116C15.5989 0.299748 16.1953 0.299748 16.7647 0.299748C18.4728 0.299748 19.8014 0.246851 20.913 0.193955C21.2113 0.193955 21.4553 0.176322 21.7264 0.15869C22.4585 0.141058 23.1363 0.105793 23.7328 0.105793C23.7599 0.105793 23.7599 0.105793 23.787 0.105793C23.787 0.105793 23.787 0.105793 23.8141 0.105793Z" fill="url(#paint2_linear_341_27804)"/>
</g>
</g>
<defs>
<linearGradient id="paint0_linear_341_27804" x1="29.1705" y1="48.6579" x2="5.20252" y2="48.6579" gradientUnits="userSpaceOnUse">
<stop stop-color="#EAB93A"/>
<stop offset="1" stop-color="#FEFBF3"/>
</linearGradient>
<linearGradient id="paint1_linear_341_27804" x1="33.327" y1="15.0019" x2="0.347215" y2="15.0019" gradientUnits="userSpaceOnUse">
<stop stop-color="#A4A4A3"/>
<stop offset="0.819608" stop-color="white"/>
<stop offset="1" stop-color="white"/>
</linearGradient>
<linearGradient id="paint2_linear_341_27804" x1="28.5711" y1="37.3657" x2="5.22947" y2="37.3657" gradientUnits="userSpaceOnUse">
<stop stop-color="#A4A4A3"/>
<stop offset="1" stop-color="#E9E9E9"/>
</linearGradient>
</defs>
</svg>
