<svg width="38" height="84" viewBox="0 0 38 84" fill="none" xmlns="http://www.w3.org/2000/svg">
<g id="Layer_x0020_1">
<g id="_-1939511784">
<path id="Vector" fill-rule="evenodd" clip-rule="evenodd" d="M7.32347 37.5922C7.62171 44.7862 11.6073 68.2547 13.451 73.421C15.4303 78.9399 17.6807 83.6653 21.7747 83.8592C23.8353 83.9474 24.2962 82.096 24.2962 79.6628C24.2962 77.5293 23.9438 74.9726 23.9438 72.8744C23.9438 72.6804 23.9438 72.4865 23.9438 72.2925C24.242 64.7106 27.3058 57.887 28.7699 51.5217C30.1255 45.5973 30.9932 36.1817 32.403 31.1917C25.8959 35.4235 13.6408 35.2295 6.61853 31.0859C6.971 32.7081 7.21502 34.7005 7.32347 37.5922Z" fill="url(#paint0_linear_341_27814)"/>
<path id="Vector_2" fill-rule="evenodd" clip-rule="evenodd" d="M19.0091 0.0351562C13.6136 0.14095 5.28987 5.44826 2.09053 10.8437C1.27714 12.2014 0.951782 13.6473 0.951782 15.1107C0.951782 19.5188 3.77154 24.0326 4.85606 26.3072C5.64234 27.9117 6.21171 29.2694 6.61841 31.0855C13.6407 35.2291 25.8958 35.4231 32.4029 31.1913C32.4843 30.8387 32.5927 30.5037 32.7012 30.1863C33.867 26.8009 37.5544 21.4231 37.5815 16.2392C37.5815 13.2241 36.3072 10.2619 32.5656 7.81098C32.43 7.72282 32.2945 7.63465 32.1589 7.54649C32.0233 7.45833 31.8878 7.3878 31.7522 7.29964C31.698 7.24675 31.6438 7.21148 31.5624 7.15858C26.7634 3.96715 22.344 0.652285 19.7411 0.123317C19.4971 0.0704207 19.2531 0.0351562 19.0362 0.0351562C19.0362 0.0351562 19.0362 0.0351562 19.0091 0.0351562Z" fill="url(#paint1_linear_341_27814)"/>
<path id="Vector_3" d="M22.1539 34.048C27.1698 33.7483 31.1012 30.6626 32.6737 26.3603C34.0023 22.6576 31.4808 13.4006 31.1012 16.8389C30.3149 23.8037 18.0869 34.2949 22.1539 34.048Z" fill="#AFAFAD"/>
<path id="Vector_4" d="M22.5605 77.3347C22.5063 81.0374 19.4696 67.8133 20.5813 53.3372C21.6116 40.2893 19.4967 34.8762 21.3133 34.647C24.0517 34.312 25.4616 34.312 27.7933 33.5891C29.637 33.0248 22.6147 72.0626 22.5605 77.3347Z" fill="#E4BB47"/>
<path id="Vector_5" d="M13.7761 1.28728C13.7761 1.28728 15.3486 1.09332 16.7585 1.34017C20.3374 1.93967 17.2194 4.40818 15.6198 4.56687C12.9627 4.83136 9.35664 4.28476 6.94358 5.88929C4.5034 7.52909 6.34709 6.01272 6.34709 6.01272C6.34709 6.01272 10.6038 2.38048 13.7761 1.28728Z" fill="white"/>
<path id="Vector_6" fill-rule="evenodd" clip-rule="evenodd" d="M19.0903 0L19.0632 0C19.0089 0 18.9818 0.0176322 18.9818 0.0176322C11.7155 0.511335 4.01542 6.77078 1.52102 11.5491C0.978759 12.7128 0.734741 13.9647 0.734741 15.2695C0.734741 17.7557 1.60236 20.4358 2.87667 23.0982C5.04572 27.6826 6.4556 29.2695 6.86229 36.4987C7.02497 40.5189 10.5226 81.4081 20.7171 83.8589H20.7442C21.1509 83.9471 21.5033 84 21.8287 84H21.8558C24.9196 83.9824 24.6213 80.3149 24.3502 76.8942C24.3502 76.8589 24.3502 76.806 24.3502 76.7708C24.2418 75.4836 24.2146 74.267 24.2146 73.1385C24.2146 64.7809 26.8175 60.2846 28.8781 52.1385C30.7489 44.2746 31.3183 35.3174 33.2433 29.8161C34.9514 25.4786 37.9067 20.665 37.8796 16.1511C37.8796 13.1713 36.5782 10.2972 32.7281 7.79345C26.4379 3.61461 23.9977 1.90428 21.8287 0.86398C20.9069 0.405542 20.229 0.193955 19.741 0.0881612C19.4156 0.0176322 19.1987 0 19.0903 0ZM19.1445 0.070529C19.4699 0.0881612 20.3104 0.211587 21.7745 0.934509C23.9164 1.99244 26.3295 3.7204 32.5112 7.93451C34.1109 8.99244 35.6563 10.3149 36.4969 11.937C37.0933 13.0479 37.3374 14.2997 37.3374 15.6222C37.3374 20.8237 33.5686 27.1008 32.4841 29.7103C30.6675 34.5592 30.1524 44.1159 28.3901 52.0856C27.1157 57.3401 25.0551 62.7179 24.2146 68.3249C23.0488 75.272 25.4076 82.4131 22.7234 83.5416L22.6963 83.5592C22.2354 83.7355 21.6389 83.7532 20.8797 83.5592C10.143 80.6675 8.02815 33.6071 6.56405 29.3401C4.91015 24.5264 1.19566 20.136 1.19566 15.3224C1.19566 11.9018 3.09358 8.25189 9.00422 4.05542C11.6613 2.1864 15.1047 0.370277 19.0089 0.070529C19.0089 0.070529 19.0089 0.070529 19.0361 0.070529H19.0632C19.0632 0.070529 19.1174 0.070529 19.1445 0.070529Z" fill="url(#paint2_linear_341_27814)"/>
<path id="Vector_7" d="M35.3852 15.3401C39.425 15.9396 24.7569 7.88171 19.2529 9.02781C16.9754 9.50388 20.0663 16.0807 22.6149 16.0807C26.465 16.0807 22.3167 12.9069 25.5431 12.9069C26.3836 12.9069 30.9115 14.6878 35.3852 15.3401Z" fill="#AFAFAD"/>
<path id="Vector_8" d="M6.61853 9.96191C13.0714 13.4178 13.6137 17.7201 16.325 18.0904C19.0363 18.4607 19.687 17.3851 17.8162 16.1508C15.9183 14.9166 10.0077 10.4556 6.61853 9.96191Z" fill="#C2C0BE"/>
</g>
</g>
<defs>
<linearGradient id="paint0_linear_341_27814" x1="32.3955" y1="57.4774" x2="6.62016" y2="57.4774" gradientUnits="userSpaceOnUse">
<stop stop-color="#EAB93A"/>
<stop offset="1" stop-color="#FEFBF3"/>
</linearGradient>
<linearGradient id="paint1_linear_341_27814" x1="37.5723" y1="17.1596" x2="0.95829" y2="17.1596" gradientUnits="userSpaceOnUse">
<stop stop-color="#A4A4A3"/>
<stop offset="0.819608" stop-color="white"/>
<stop offset="1" stop-color="white"/>
</linearGradient>
<linearGradient id="paint2_linear_341_27814" x1="37.8916" y1="42" x2="0.722811" y2="42" gradientUnits="userSpaceOnUse">
<stop stop-color="#A4A4A3"/>
<stop offset="1" stop-color="#E9E9E9"/>
</linearGradient>
</defs>
</svg>
