<svg width="38" height="74" viewBox="0 0 38 74" fill="none" xmlns="http://www.w3.org/2000/svg">
<g id="Layer_x0020_1">
<g id="_-1937466352">
<path id="Vector" fill-rule="evenodd" clip-rule="evenodd" d="M6.5564 24.0413C6.69191 24.5172 6.80032 24.9931 6.80032 25.469C6.90874 37.3135 12.3565 58.9756 14.9584 64.845C17.235 70.0446 21.7342 73.5169 25.1763 73.5169C26.9109 73.5169 27.3174 71.6486 27.3174 69.3572C27.3174 67.436 27.0464 65.2152 27.0464 63.5055C27.0464 63.3645 27.0464 63.2235 27.0464 63.0824C27.1548 59.7335 27.6698 58.1296 27.6698 55.3271C27.6698 55.0627 27.6698 54.7631 27.6427 54.4634C27.5884 52.5598 27.3174 49.4224 27.3174 46.0559C27.3445 43.4297 27.48 40.6624 27.995 38.2301C29.1875 32.6779 28.1305 27.4959 30.7324 23.4949C30.8679 23.2834 31.0034 23.0719 31.1661 22.8604C23.7127 24.4643 13.1967 25.892 6.5564 24.0413Z" fill="url(#paint0_linear_341_27824)"/>
<path id="Vector_2" fill-rule="evenodd" clip-rule="evenodd" d="M0.240845 11.7386C0.240845 15.4753 5.22783 19.7584 6.55588 24.0415C13.1962 25.8922 23.7122 24.4645 31.1655 22.8605C33.7132 19.2296 36.9927 16.8501 36.9927 11.6681C36.9927 6.69766 25.9888 0.0527344 18.671 0.0527344C13.3046 0.0527344 0.240845 6.41565 0.240845 11.7386Z" fill="url(#paint1_linear_341_27824)"/>
<path id="Vector_3" d="M29.4585 19.9703C26.0977 23.372 20.4331 25.399 20.1079 23.7246C19.4032 20.0231 15.8256 11.9505 18.6172 6.57464C19.5116 4.84731 21.1378 6.53939 23.4687 7.20917C26.45 8.07284 29.6753 8.58399 29.4585 12.444C29.1332 17.5908 30.9491 18.4368 29.4585 19.9703Z" fill="#C2C0BE"/>
<path id="Vector_4" d="M24.2 49.2991C26.0702 36.5733 26.6664 40.116 26.8832 34.1056C27.1543 26.8967 29.458 23.2129 29.458 23.2129C29.458 23.2129 28.9431 24.3233 24.1729 24.623C20.0262 24.8873 19.3757 30.087 18.8607 44.311C18.4813 54.3401 20.9748 66.9249 23.1159 69.181C26.1244 72.336 22.7636 59.1695 24.2 49.2991Z" fill="#E4BB47"/>
<path id="Vector_5" d="M16.0693 22.526C14.9038 21.4155 10.2421 18.472 9.99817 9.48286C9.99817 8.6897 13.1692 6.04583 13.2234 10.8753C13.359 19.3886 17.831 24.1828 16.0693 22.526Z" fill="white"/>
<path id="Vector_6" d="M23.6305 0.810583C21.923 0.581448 23.7389 4.07136 22.0856 5.02315C20.4323 5.97495 25.2838 6.92674 26.3679 5.14653C27.4791 3.33107 29.6745 3.47208 29.6745 3.47208C29.6745 3.47208 25.1754 1.02209 23.6305 0.810583Z" fill="#AFAFAD"/>
<path id="Vector_7" d="M14.8222 0.793498C16.2315 0.705369 14.8222 2.32694 14.0362 2.74996C13.2502 3.17298 10.2959 2.66183 9.10339 3.1201C9.10339 3.1201 13.1689 0.916878 14.8222 0.793498Z" fill="#E9EAE9"/>
<path id="Vector_8" fill-rule="evenodd" clip-rule="evenodd" d="M24.7692 73.5701H24.8234H24.8505C25.2842 73.5701 25.6907 73.482 26.0702 73.3057L26.0973 73.2881C27.1272 72.6536 27.3982 71.3317 27.3982 69.5162C27.3982 67.7712 27.1543 65.5504 27.1543 63.0652C27.1543 62.0429 27.1814 60.9677 27.2898 59.8573C27.5066 57.6364 27.588 55.5742 27.588 53.653C27.588 50.9562 27.4524 48.4886 27.4524 46.0386C27.4524 43.3595 27.6151 40.7156 28.2384 37.825C29.2413 33.0308 28.5637 28.5362 30.3254 24.6585C31.8432 21.4154 37.1825 17.097 37.1825 12.3028C37.1554 9.25355 34.9871 5.99278 28.2926 2.69675C26.1244 1.60395 23.3599 0.528774 20.5953 0.141006C19.9178 0.0528774 19.2673 0 18.5897 0C17.8579 0 17.099 0.0705032 16.3944 0.21151C16.2046 0.246761 16.0149 0.299639 15.7981 0.352516C15.7981 0.352516 15.7981 0.352516 15.771 0.370142H15.7439C15.7168 0.370142 15.7168 0.387768 15.7168 0.387768H15.6897C15.6626 0.387768 15.6626 0.387768 15.6626 0.387768C15.6626 0.405394 15.6626 0.405394 15.6355 0.405394C15.6084 0.405394 15.6084 0.405394 15.6084 0.405394C15.6084 0.405394 15.6084 0.405394 15.5813 0.405394C15.5813 0.423019 15.5813 0.423019 15.5813 0.423019C10.1335 1.90359 -0.355392 6.94457 0.0511558 12.3204C0.0511558 11.8445 0.105362 11.3686 0.240878 10.8575C0.267981 10.8222 0.267981 10.787 0.267981 10.7694C0.267981 10.7517 0.267981 10.7517 0.295084 10.7341C0.295084 10.7165 0.295084 10.7165 0.295084 10.6989C0.295084 10.6989 0.295084 10.6989 0.295084 10.6812C0.295084 10.6812 0.295084 10.6636 0.322187 10.646C0.322187 10.646 0.322187 10.646 0.322187 10.6284C0.322187 10.6284 0.322187 10.6284 0.322187 10.6107V10.5931L0.34929 10.5755V10.5579V10.5402C0.34929 10.5226 0.34929 10.5226 0.376394 10.505V10.4874V10.4697C0.376394 10.4521 0.376394 10.4521 0.376394 10.4521C0.376394 10.4345 0.403497 10.4345 0.403497 10.4169C0.403497 10.3992 0.403497 10.3816 0.403497 10.3816C0.4306 10.364 0.4306 10.364 0.4306 10.364C0.4306 10.3464 0.4306 10.3464 0.4306 10.3287C0.4306 10.3111 0.457703 10.2935 0.457703 10.2935C0.457703 10.2935 0.457703 10.2935 0.457703 10.2758C0.457703 10.2582 0.484806 10.223 0.484806 10.2053C0.484806 10.2053 0.484806 10.2053 0.484806 10.1877C0.511909 10.1877 0.511909 10.1701 0.511909 10.1525C0.511909 10.1348 0.539013 10.0996 0.539013 10.0643C1.48762 8.10787 3.8727 5.95752 8.56155 3.40178C8.61575 3.38416 8.64285 3.36653 8.66996 3.3489C8.75127 3.29603 8.80547 3.26077 8.88678 3.22552C8.91389 3.2079 8.94099 3.19027 8.96809 3.17265C8.9952 3.17265 8.9952 3.17265 8.9952 3.17265C9.0223 3.15502 9.07651 3.13739 9.10361 3.11977C9.13071 3.08452 9.18492 3.06689 9.23912 3.04927C9.26623 3.03164 9.29333 3.01401 9.32043 2.99639C12.9523 1.1633 15.8794 0.105755 18.9421 0.105755C18.9692 0.105755 18.9692 0.105755 18.9963 0.105755C18.9963 0.105755 18.9963 0.105755 19.0234 0.105755C21.5982 0.105755 24.3085 0.846039 27.588 2.48524C27.6151 2.48524 27.6151 2.50287 27.6422 2.50287C27.6693 2.52049 27.6964 2.52049 27.6964 2.53812C27.7235 2.55574 27.7777 2.57337 27.8048 2.59099C27.9403 2.64387 28.0487 2.71437 28.1842 2.78488C34.5264 5.9399 36.6404 9.05967 36.6404 12.0208C36.6675 16.8326 31.1656 21.1862 29.5665 24.4999C27.8048 28.2365 28.5637 32.9779 27.6151 37.7721C27.1001 40.2926 26.9646 42.6545 26.9646 44.9811C26.9375 48.4005 27.2898 51.6965 27.2898 55.0983C27.2898 56.6494 27.2085 58.2181 27.0188 59.8573C26.9917 59.9983 26.9917 60.1393 26.9646 60.2803C26.9646 60.3155 26.9646 60.3684 26.9646 60.4037C26.2599 67.6126 28.2926 73.2176 24.8776 73.2352C24.8505 73.2352 24.8505 73.2352 24.8505 73.2352C24.444 73.2352 23.9561 73.1471 23.3599 72.9709C23.3328 72.9709 23.3057 72.9532 23.3057 72.9532C13.413 69.7453 8.94099 50.9033 7.04377 24.8876C7.04377 24.87 7.04377 24.8524 7.04377 24.8348V24.8171C7.04377 24.7995 7.04377 24.7995 7.04377 24.7819V24.7643C7.01667 24.7466 7.01667 24.7466 7.01667 24.729V24.7114C7.01667 24.6938 7.01667 24.6938 7.01667 24.6938C7.01667 24.6585 7.01667 24.6409 7.01667 24.6233C7.01667 24.6233 7.01667 24.6233 7.01667 24.6056C7.01667 24.6056 6.98956 24.588 6.98956 24.5704C6.98956 24.5704 6.98956 24.5704 6.98956 24.5528C6.98956 24.5528 6.98956 24.5351 6.98956 24.5175C6.98956 24.4646 6.96246 24.3941 6.96246 24.3412C6.79984 23.601 6.50171 22.8783 6.14936 22.1909C6.12226 22.1733 6.12226 22.1733 6.12226 22.1556V22.138C6.09516 22.138 6.09516 22.1204 6.09516 22.1028C6.09516 22.1028 6.09516 22.1028 6.09516 22.0851C6.06806 22.0499 6.04095 22.0323 6.04095 21.997C6.01385 21.9794 6.01385 21.9794 6.01385 21.9794C6.01385 21.9618 6.01385 21.9618 6.01385 21.9441L5.98675 21.9265V21.9089C5.98675 21.8913 5.95964 21.8913 5.95964 21.8736C5.95964 21.856 5.95964 21.856 5.93254 21.8384V21.8208C5.93254 21.8031 5.93254 21.8031 5.90544 21.7855V21.7679C5.90544 21.7502 5.87833 21.7502 5.87833 21.7502C5.87833 21.7326 5.87833 21.7326 5.87833 21.715L5.85123 21.6974C5.85123 21.6797 5.85123 21.6621 5.82413 21.6445C5.82413 21.6269 5.82413 21.6269 5.79702 21.6092V21.5916C5.79702 21.574 5.76992 21.574 5.76992 21.5564C5.76992 21.5564 5.76992 21.5564 5.76992 21.5387C5.74282 21.4859 5.71571 21.4506 5.66151 21.3977C4.98393 20.3049 4.11663 19.2474 3.27643 18.2251C4.65869 20.3931 5.90544 22.5787 6.17647 24.7643V24.7819C6.17647 24.7819 6.17647 24.7995 6.17647 24.8171C6.17647 24.8171 6.17647 24.8171 6.17647 24.8348C6.17647 24.8348 6.17647 24.8524 6.17647 24.87C6.17647 24.87 6.17647 24.87 6.17647 24.8876C6.17647 24.8876 6.17647 24.9053 6.17647 24.9229C6.50171 32.2905 10.1877 62.9594 18.6981 70.6266C18.7252 70.6442 18.7252 70.6619 18.7523 70.6795C20.2701 72.0014 22.8178 73.5525 24.7692 73.5701ZM2.27361 17.0089C2.30072 17.0265 2.30072 17.0265 2.30072 17.0442C2.30072 17.0442 2.32782 17.0442 2.32782 17.0618V17.0794C2.35492 17.0794 2.35492 17.097 2.35492 17.097C2.35492 17.097 2.35492 17.097 2.35492 17.1147C2.65306 17.4848 2.95119 17.8549 3.27643 18.2251C2.95119 17.7492 2.62596 17.2733 2.32782 16.7974C1.78576 15.9866 1.2708 15.1934 0.782941 14.4003C0.755838 14.365 0.728735 14.3122 0.728735 14.2769C0.701631 14.2769 0.701631 14.2769 0.701631 14.2769C0.701631 14.2417 0.701631 14.224 0.674528 14.2064C0.674528 14.1888 0.647425 14.1712 0.647425 14.1535V14.1359C0.620322 14.1183 0.620322 14.1006 0.593219 14.083C0.322187 13.5719 0.159568 13.0607 0.0782589 12.5496V12.532C0.0782589 12.4614 0.0782589 12.3909 0.0511558 12.3381C0.132465 13.9596 1.08108 15.4755 2.27361 17.0089Z" fill="url(#paint2_linear_341_27824)"/>
</g>
</g>
<defs>
<linearGradient id="paint0_linear_341_27824" x1="31.1593" y1="48.1839" x2="6.54482" y2="48.1839" gradientUnits="userSpaceOnUse">
<stop stop-color="#EAB93A"/>
<stop offset="1" stop-color="#FEFBF3"/>
</linearGradient>
<linearGradient id="paint1_linear_341_27824" x1="36.9813" y1="12.4884" x2="0.237595" y2="12.4884" gradientUnits="userSpaceOnUse">
<stop stop-color="#A4A4A3"/>
<stop offset="0.819608" stop-color="white"/>
<stop offset="1" stop-color="white"/>
</linearGradient>
<linearGradient id="paint2_linear_341_27824" x1="36.7982" y1="36.7849" x2="0.421934" y2="36.7849" gradientUnits="userSpaceOnUse">
<stop stop-color="#A4A4A3"/>
<stop offset="1" stop-color="#E9E9E9"/>
</linearGradient>
</defs>
</svg>
