<svg width="37" height="70" viewBox="0 0 37 70" fill="none" xmlns="http://www.w3.org/2000/svg">
<g id="Layer_x0020_1">
<g id="_-1935199952">
<path id="Vector" fill-rule="evenodd" clip-rule="evenodd" d="M11.2965 22.3928C8.9105 22.1813 7.47351 21.9873 7.47351 22.146C7.58196 33.2543 12.5979 55.2417 15.1194 60.7606C17.3427 65.6271 21.7079 68.8891 25.0428 68.8891C26.7509 68.8891 27.1305 67.1435 27.1305 64.9923C27.1305 63.1939 26.8865 61.0956 26.8865 59.5087C26.8865 59.3677 26.8865 59.2266 26.8865 59.1032C26.9949 55.9646 27.4829 54.4659 27.4829 51.8211C27.4829 51.5742 27.4558 51.2921 27.4558 51.01C27.4016 49.2291 27.1576 46.2845 27.1576 43.1284C27.1576 40.6598 27.2931 38.0679 27.8083 35.7933C28.947 30.5566 27.9167 25.7077 30.4383 21.952C30.5738 21.7581 30.7094 21.5465 30.8721 21.3525C23.0364 23.1158 15.6074 22.7455 11.2965 22.3928Z" fill="url(#paint0_linear_341_27834)"/>
<path id="Vector_2" fill-rule="evenodd" clip-rule="evenodd" d="M18.5079 0.211914H18.4808H18.4537C18.1826 0.211914 17.803 0.247179 17.3692 0.300075C14.9019 0.599823 10.1842 1.69302 6.41553 3.54441C2.75527 5.30763 -0.0102621 7.79378 0.830242 10.9147C1.7792 14.3882 3.05351 16.5746 7.47294 22.1464C13.953 23.892 23.6323 22.8693 30.8715 21.353C33.3388 17.9499 35.9688 15.7107 36.511 10.8442C36.5381 10.756 36.5381 10.6502 36.5381 10.562C36.5381 8.85171 35.0198 7.14139 33.2846 5.81897C31.9831 4.81393 28.8922 4.35549 27.6722 3.66783C22.7105 0.917204 24.7168 0.405869 18.5893 0.211914H18.5079Z" fill="url(#paint1_linear_341_27834)"/>
<path id="Vector_3" d="M20.3521 22.6575C22.955 22.6222 32.8783 18.6726 28.6758 8.95724C26.4526 3.84389 12.6249 2.39805 17.0714 6.25951C20.4877 9.20409 21.9789 9.22173 22.3314 12.1663C23.0634 18.0378 18.2373 22.6751 20.3521 22.6575Z" fill="#C2C0BE"/>
<path id="Vector_4" d="M31.8754 16.0983C30.4385 15.393 32.3093 12.7834 30.8723 9.4333C27.3747 1.26957 36.3762 7.82877 36.5118 10.9144C36.6473 14.1411 32.8244 16.5744 31.8754 16.0983Z" fill="#A4A4A3"/>
<path id="Vector_5" d="M24.1208 49.6523C25.3951 42.8639 23.2532 35.2644 24.9613 29.7103C27.2117 22.4281 27.1846 22.6926 27.1846 22.6926C27.1846 22.6926 25.0969 23.3979 21.0842 23.0982C17.0443 22.7984 20.5961 24.8438 20.4877 38.7556C20.4335 44.2216 20.8944 62.5768 23.2803 65.3803C26.317 68.8891 23.2532 54.2896 24.1208 49.6523Z" fill="#E4BB47"/>
<path id="Vector_6" fill-rule="evenodd" clip-rule="evenodd" d="M24.8259 69.0479H24.853C25.2868 69.0479 25.6935 68.9597 26.046 68.7834C26.0731 68.7834 26.0731 68.7834 26.0731 68.7834C27.0763 68.1839 27.3203 66.932 27.3203 65.2393C27.3203 63.5995 27.1034 61.5189 27.1034 59.1738C27.1034 58.2217 27.1305 57.2166 27.239 56.1763C27.4559 54.0781 27.5101 52.1562 27.5101 50.3577C27.5101 47.8186 27.4017 45.5088 27.4017 43.2166C27.4017 40.6952 27.5372 38.2091 28.1608 35.4937C29.1369 30.9975 28.4862 26.7834 30.1943 23.1335C31.6584 20.1008 36.837 16.063 36.837 11.5668C36.837 9.76826 36.0236 7.89925 33.8003 5.99496C32.4718 4.84887 29.7334 4.65491 27.2661 3.49118C25.7749 2.75063 24.853 1.05793 22.9551 0.564232C22.3044 0.405542 21.6266 0.264484 20.9759 0.176322C20.2438 0.070529 19.5118 0 18.8068 0C18.2103 0 17.6138 0.0528967 17.0445 0.141058C16.7191 0.193955 16.3938 0.264484 16.0955 0.335013C10.5373 1.74559 0.315714 3.84383 0.342827 9.45088C0.342827 9.6801 0.36994 9.90932 0.397053 10.1562C0.695297 13.1184 4.57246 18.4081 6.3077 21.4584C7.09398 22.869 7.31088 25.0731 7.58201 27.9118C8.63942 38.7204 11.9472 60.2317 18.8882 66.2796C18.8882 66.2972 18.9153 66.2972 18.9424 66.3149C18.9695 66.3501 19.0237 66.403 19.0779 66.4383C19.1051 66.4559 19.1322 66.4736 19.1593 66.4912C20.6234 67.6726 22.9009 68.9773 24.7175 69.0302L24.8259 69.0479ZM19.1051 0.387909C20.2438 0.387909 21.4368 0.493703 22.6298 0.722922C22.7382 0.740554 22.8467 0.758187 22.928 0.793451C24.609 1.12846 25.3953 2.69773 27.1847 3.57935C29.408 4.65491 32.038 4.76071 33.2852 5.81864C35.5085 7.70529 36.3218 9.53904 36.3218 11.3199C36.3218 15.8161 31.0077 19.9068 29.4351 22.9924C27.7541 26.5013 28.4591 30.9622 27.5643 35.4584C27.0492 37.8035 26.9136 40.0428 26.9136 42.2116C26.9136 45.4207 27.239 48.5063 27.239 51.6977C27.239 53.1612 27.1576 54.6423 26.9678 56.1587C26.9678 56.194 26.9678 56.2292 26.9678 56.2645C26.6154 59.0857 26.7781 61.66 26.8594 63.7406C26.9407 66.3678 26.9136 68.1839 25.5851 68.6247C25.0699 68.7834 24.3379 68.7481 23.3618 68.466C13.7638 65.4509 10.5102 46.4433 7.47356 22.1461C7.36511 20.3476 1.07488 15.3577 1.04777 10.4207C1.04777 7.75819 2.83723 5.11335 8.3954 2.97985C11.7845 1.51637 15.2821 0.405542 19.0508 0.387909H19.0779H19.1051Z" fill="url(#paint2_linear_341_27834)"/>
</g>
</g>
<defs>
<linearGradient id="paint0_linear_341_27834" x1="30.8664" y1="45.1217" x2="7.47704" y2="45.1217" gradientUnits="userSpaceOnUse">
<stop stop-color="#EAB93A"/>
<stop offset="1" stop-color="#FEFBF3"/>
</linearGradient>
<linearGradient id="paint1_linear_341_27834" x1="35.8226" y1="11.6408" x2="1.3923" y2="11.6408" gradientUnits="userSpaceOnUse">
<stop stop-color="#A4A4A3"/>
<stop offset="0.819608" stop-color="white"/>
<stop offset="1" stop-color="white"/>
</linearGradient>
<linearGradient id="paint2_linear_341_27834" x1="36.8343" y1="34.5239" x2="0.34554" y2="34.5239" gradientUnits="userSpaceOnUse">
<stop stop-color="#A4A4A3"/>
<stop offset="1" stop-color="#E9E9E9"/>
</linearGradient>
</defs>
</svg>
