<svg width="43" height="57" viewBox="0 0 43 57" fill="none" xmlns="http://www.w3.org/2000/svg">
<g id="Layer_x0020_1">
<g id="_-1936591592">
<path id="Vector" fill-rule="evenodd" clip-rule="evenodd" d="M35.1628 20.3829C32.6684 21.2116 24.8056 43.922 24.6971 44.2041C25.3479 45.2091 25.4834 46.1084 25.4834 46.8665C25.4834 47.5366 25.375 48.1184 25.375 48.5769C25.375 49.1764 25.5919 49.5819 26.5679 49.7582C29.1166 50.2519 35.9491 47.0252 38.5248 36.6927C38.8502 35.388 38.9857 34.189 38.9857 33.0605C38.9857 28.529 36.7896 25.2671 35.7864 21.0177C35.7322 20.7179 35.6237 20.524 35.5153 20.4358C35.4339 20.3829 35.3797 20.3477 35.2983 20.3477C35.2441 20.3477 35.217 20.3653 35.1628 20.3829Z" fill="url(#paint0_linear_341_27842)"/>
<path id="Vector_2" d="M26.5946 46.8137C25.6185 51.1689 29.577 46.2495 32.1257 35.917C33.8338 29.1462 37.9007 28.1411 36.1926 21.7583C34.7827 16.4686 26.5946 46.8137 26.5946 46.8137Z" fill="#CBBC84"/>
<path id="Vector_3" fill-rule="evenodd" clip-rule="evenodd" d="M5.44643 20.7C5.41932 23.1509 3.87387 25.5665 3.68408 27.9292C3.54851 29.8688 3.19604 31.4909 3.19604 33.2013C3.19604 34.4884 3.41295 35.8285 4.06366 37.3801C5.03973 39.7252 9.18803 43.763 12.3603 43.6043C15.5325 43.4632 14.5022 42.9166 16.1561 37.098C16.2645 36.763 16.2916 36.4103 16.2916 36.0401C16.3188 29.7277 4.145 17.2617 4.145 17.2617C5.09396 18.4078 5.44643 19.5539 5.44643 20.7Z" fill="url(#paint1_linear_341_27842)"/>
<path id="Vector_4" fill-rule="evenodd" clip-rule="evenodd" d="M4.09056 17.2794C4.84973 18.4078 5.14797 19.4834 5.14797 20.5766C5.14797 23.8738 2.54512 27.2768 2.57223 32.2491C2.57223 33.1307 2.65357 34.0829 2.84336 35.0879C2.87048 35.1761 2.87048 35.2642 2.89759 35.3524C3.92788 39.8134 8.64556 43.4985 11.872 43.7453C11.9805 43.763 12.0889 43.763 12.1974 43.763C12.2787 43.763 12.36 43.763 12.4143 43.7453C12.4414 43.7453 12.4414 43.7453 12.4414 43.7453C14.8002 43.6219 14.8544 43.093 15.2069 41.8058C15.5594 40.1307 16.3457 38.3851 16.3457 36.0401C16.3457 32.161 14.1766 26.6597 4.19901 17.2617L4.09056 17.2794ZM4.65994 17.8965C6.09693 19.501 7.34413 20.9821 8.45576 22.3398C8.48288 22.3751 8.50999 22.3927 8.5371 22.428C8.5371 22.4456 8.56422 22.4809 8.59133 22.4985C8.61844 22.5338 8.64556 22.5514 8.64556 22.5867H8.67267C8.67267 22.6043 8.69978 22.6219 8.72689 22.6572V22.6748C8.75401 22.6925 8.75401 22.7101 8.78112 22.7277C8.78112 22.7453 8.78112 22.7453 8.80823 22.763C8.80823 22.7806 8.83535 22.7806 8.83535 22.7982C8.86246 22.8159 8.86246 22.8335 8.88957 22.8511C8.88957 22.8688 8.88957 22.8688 8.88957 22.8688C8.91669 22.904 8.91669 22.9217 8.9438 22.9393C8.99802 22.9922 9.02514 23.0451 9.07936 23.098C9.10648 23.1333 9.10648 23.1509 9.13359 23.1862C9.1607 23.2038 9.18782 23.239 9.18782 23.2567C9.18782 23.2567 9.18782 23.2567 9.21493 23.2567C9.24204 23.3096 9.26916 23.3625 9.32338 23.4154C16.0203 31.8436 16.3999 35.4758 15.7492 38.4909C15.7492 38.4909 15.7492 38.4909 15.7492 38.5086C15.7492 38.5086 15.7492 38.5086 15.7492 38.5262C15.7492 38.5438 15.7492 38.5438 15.7492 38.5438L15.7221 38.5615C15.7221 38.5615 15.7221 38.5615 15.7221 38.5791C15.7221 38.5967 15.7221 38.5967 15.7221 38.5967C15.7221 38.6144 15.7221 38.6144 15.7221 38.6144V38.632C15.7221 38.632 15.7221 38.632 15.7221 38.6496C15.7221 38.6673 15.7221 38.6673 15.6949 38.6673V38.6849V38.7025C15.6949 38.7202 15.6949 38.7202 15.6949 38.7378V38.7554C15.6949 38.7731 15.6949 38.7731 15.6678 38.7907C15.4509 39.7781 15.0985 40.7302 14.8544 41.7705C13.6072 46.2491 4.90395 41.3826 3.90077 35.035C3.90077 34.9998 3.87366 34.9645 3.87366 34.9292C3.87366 34.894 3.87366 34.8587 3.84655 34.8234C3.84655 34.7882 3.84655 34.7529 3.84655 34.7176C3.84655 34.6824 3.81943 34.6471 3.81943 34.6118C3.81943 34.5766 3.81943 34.5413 3.81943 34.5061C3.79232 34.4708 3.79232 34.4355 3.79232 34.4003C3.38562 31.5967 3.65675 29.3751 4.09056 27.4708C4.11768 27.4708 4.11768 27.4708 4.11768 27.4708C4.11768 27.4532 4.11768 27.4355 4.11768 27.4003C4.11768 27.3826 4.14479 27.365 4.14479 27.3297C4.14479 27.3121 4.14479 27.2945 4.14479 27.2768C4.14479 27.2592 4.14479 27.2592 4.14479 27.2592C4.1719 27.2416 4.1719 27.2239 4.1719 27.2063C4.1719 27.1887 4.1719 27.1887 4.1719 27.1887C4.1719 27.171 4.1719 27.1534 4.19901 27.1358V27.1181C4.19901 27.1005 4.19901 27.0829 4.19901 27.0652V27.0476C4.19901 27.03 4.22613 27.0124 4.22613 26.9947C4.22613 26.9947 4.22613 26.9947 4.22613 26.9771C4.22613 26.9595 4.22613 26.9418 4.22613 26.9242C4.25324 26.9242 4.25324 26.9242 4.25324 26.9066C4.25324 26.8889 4.25324 26.8713 4.25324 26.8537C4.25324 26.836 4.28035 26.8184 4.28035 26.8008C4.28035 26.7831 4.28035 26.7831 4.28035 26.7831C4.28035 26.7655 4.28035 26.7479 4.28035 26.7302V26.7126C4.30747 26.695 4.30747 26.6773 4.30747 26.6597C4.30747 26.6597 4.30747 26.6597 4.30747 26.6421C4.30747 26.6244 4.30747 26.6068 4.33458 26.6068C4.33458 26.5892 4.33458 26.5892 4.33458 26.5715C4.33458 26.5539 4.33458 26.5539 4.33458 26.5363C4.33458 26.5186 4.33458 26.5186 4.36169 26.501C4.36169 26.501 4.36169 26.4834 4.36169 26.4657V26.4481C4.36169 26.4305 4.36169 26.4129 4.38881 26.3952V26.3776C4.38881 26.36 4.38881 26.3423 4.38881 26.3247L4.41592 26.3071V26.2894C4.41592 26.2718 4.41592 26.2542 4.41592 26.2365C4.41592 26.2365 4.41592 26.2365 4.41592 26.2189C4.76839 24.9846 5.14797 23.8738 5.39199 22.8335C5.39199 22.8159 5.39199 22.7982 5.4191 22.7806C5.4191 22.763 5.4191 22.7453 5.4191 22.7277C5.4191 22.7101 5.4191 22.6925 5.4191 22.6748C5.44622 22.6396 5.44622 22.6043 5.44622 22.569C5.44622 22.5514 5.47333 22.5338 5.47333 22.5161C5.47333 22.4985 5.47333 22.4809 5.47333 22.4632C5.47333 22.4456 5.47333 22.428 5.47333 22.4103C5.50044 22.3927 5.50044 22.3751 5.50044 22.3574C5.50044 22.3574 5.50044 22.3574 5.50044 22.3398C5.50044 22.3398 5.50044 22.3222 5.50044 22.3045C5.50044 22.3045 5.50044 22.3045 5.50044 22.2869C5.50044 22.2869 5.50044 22.2693 5.50044 22.2516C5.50044 22.2516 5.52755 22.2516 5.52755 22.234C5.52755 22.234 5.52755 22.2164 5.52755 22.1987C5.52755 22.1987 5.52755 22.1987 5.52755 22.1811C5.52755 22.1811 5.52755 22.1635 5.52755 22.1459V22.1282C5.52755 22.1282 5.52755 22.1106 5.52755 22.093V22.0753C5.55467 22.0577 5.55467 22.0577 5.55467 22.0577C5.55467 22.0401 5.55467 22.0224 5.55467 22.0224C5.55467 22.0048 5.55467 22.0048 5.55467 22.0048C5.55467 21.9872 5.55467 21.9695 5.55467 21.9695C5.55467 21.9519 5.55467 21.9519 5.55467 21.9519C5.55467 21.9343 5.55467 21.9166 5.55467 21.9166C5.55467 21.899 5.55467 21.899 5.55467 21.899C5.55467 21.8814 5.58178 21.8637 5.58178 21.8637C5.58178 21.8461 5.58178 21.8461 5.58178 21.8461C5.58178 21.8285 5.58178 21.8108 5.58178 21.8108C5.58178 21.7932 5.58178 21.7932 5.58178 21.7932C5.58178 21.7756 5.58178 21.7579 5.58178 21.7579C5.58178 21.7403 5.58178 21.7403 5.58178 21.7403C5.58178 21.7227 5.58178 21.705 5.58178 21.6874C5.58178 21.6874 5.58178 21.6874 5.58178 21.6698C5.58178 21.6698 5.58178 21.6521 5.58178 21.6345C5.58178 21.6345 5.58178 21.6345 5.58178 21.6169C5.60889 21.5993 5.60889 21.564 5.60889 21.5464C5.60889 21.5287 5.60889 21.5111 5.60889 21.4935C5.69023 20.3121 5.47333 19.1484 4.65994 17.8965Z" fill="url(#paint2_linear_341_27842)"/>
<path id="Vector_5" fill-rule="evenodd" clip-rule="evenodd" d="M20.8742 14.2295H20.7929C20.4133 14.2295 20.0608 14.2295 19.6812 14.2295C14.0959 14.3529 8.32085 15.2698 4.03699 16.4688C6.58561 19.8189 9.62228 23.2043 9.62228 26.8894C9.62228 27.3126 9.56805 27.7534 9.48671 28.1942C9.02579 30.5217 8.67332 32.5141 8.67332 34.3302C8.67332 36.3932 9.10713 38.2093 10.3001 40.0255C12.4691 43.3403 11.0593 45.1388 12.7403 48.0305C14.6111 51.2572 17.0513 56.2471 19.3016 56.3529C29.9571 56.8466 27.1644 39.0557 31.8008 30.2572C34.1596 25.761 33.4004 25.2849 35.217 20.965C35.5966 20.0658 36.0575 19.3781 36.5184 18.7786C36.4913 18.761 36.4913 18.7433 36.4642 18.7257C33.7258 15.4285 27.544 14.2295 20.8742 14.2295Z" fill="url(#paint3_linear_341_27842)"/>
<path id="Vector_6" fill-rule="evenodd" clip-rule="evenodd" d="M25.4289 0.334796C24.968 0.405325 24.5342 0.511119 24.1003 0.616912C22.8531 0.899028 21.6059 1.18114 19.1658 1.14588C13.9872 1.05772 12.4146 -0.42339 8.32055 0.317164C3.41309 1.21641 0.945799 4.42548 0.484877 8.39273C0.457764 8.60432 0.457764 8.81591 0.457764 9.02749C0.457764 11.5489 2.13877 13.9998 4.03669 16.4683C13.8245 13.7353 31.3395 12.4834 36.5181 18.7781C37.8467 17.1031 39.4192 16.1509 40.6122 13.3298C41.2358 11.831 42.2119 9.60936 42.2119 7.38769C42.1847 3.94941 39.8259 0.564015 30.2279 0.105577C30.0652 0.105577 29.9025 0.0879447 29.767 0.0879447C29.3874 0.0703125 29.0078 0.0703125 28.6825 0.0703125C27.2726 0.0703125 26.2694 0.176106 25.4289 0.334796Z" fill="url(#paint4_linear_341_27842)"/>
<path id="Vector_7" d="M35.1626 5.85386C34.8101 4.40801 32.2886 1.16368 34.5932 0.969725C37.901 0.687609 39.7989 4.53144 38.4975 8.12842C37.2231 11.7783 31.8005 15.3576 29.4688 15.0755C26.5406 14.7052 36.5182 11.1083 35.1626 5.85386Z" fill="#A4A4A3"/>
<path id="Vector_8" d="M10.6246 0.0175781C13.4173 0.58181 13.3902 1.18131 15.2067 2.39793C24.5336 8.62211 24.615 1.72791 21.985 0.952087C19.1652 1.14604 16.1015 0.934455 10.6246 0.0175781Z" fill="#C2C0BE"/>
<path id="Vector_9" d="M18.8408 49.8816C20.6303 47.801 18.8408 43.1285 19.4915 40.0781C20.1423 37.0101 23.0976 32.5139 23.4772 28.0882C23.8296 23.592 25.6462 17.8967 27.5441 16.1335C29.7945 14.0705 18.8137 13.9471 15.0179 14.4937C10.978 15.0756 17.2683 16.5743 17.8919 20.3476C18.3528 23.3627 13.5809 29.8338 15.2077 35.0882C17.0514 40.9774 17.0514 51.9799 18.8408 49.8816Z" fill="#E4BB47"/>
<path id="Vector_10" d="M32.7495 1.30486C35.7861 0.0705988 22.1483 -0.140988 23.0159 1.09327C24.6698 3.52652 22.7719 7.24692 24.6969 7.40561C28.1945 7.70536 28.8994 2.85649 32.7495 1.30486Z" fill="#E9EAE9"/>
<path id="Vector_11" d="M16.3456 14.4052C16.3456 14.4052 21.1446 14.2288 26.4316 14.5462C30.9324 14.8107 22.9341 13.2414 22.202 10.2792C21.47 7.317 19.8703 10.3497 18.7044 12.0601C17.5386 13.7704 13.9054 13.7528 16.3456 14.4052Z" fill="#C2C0BE"/>
</g>
</g>
<defs>
<linearGradient id="paint0_linear_341_27842" x1="37.161" y1="35.3084" x2="26.5989" y2="34.2612" gradientUnits="userSpaceOnUse">
<stop stop-color="#EAB93A"/>
<stop offset="0.180392" stop-color="#EAB93A"/>
<stop offset="1" stop-color="#FEFBF3"/>
</linearGradient>
<linearGradient id="paint1_linear_341_27842" x1="15.9229" y1="30.317" x2="3.59917" y2="30.9107" gradientUnits="userSpaceOnUse">
<stop stop-color="#EAB93A"/>
<stop offset="0.278431" stop-color="#EAB93A"/>
<stop offset="1" stop-color="#FEFBF3"/>
</linearGradient>
<linearGradient id="paint2_linear_341_27842" x1="15.9148" y1="30.3806" x2="3.01859" y2="30.9802" gradientUnits="userSpaceOnUse">
<stop stop-color="#A4A4A3"/>
<stop offset="1" stop-color="#E9E9E9"/>
</linearGradient>
<linearGradient id="paint3_linear_341_27842" x1="35.2227" y1="35.6405" x2="5.37378" y2="33.9924" gradientUnits="userSpaceOnUse">
<stop stop-color="#EAB93A"/>
<stop offset="1" stop-color="#FEFBF3"/>
</linearGradient>
<linearGradient id="paint4_linear_341_27842" x1="41.232" y1="10.7482" x2="1.98546" y2="4.56703" gradientUnits="userSpaceOnUse">
<stop stop-color="#A4A4A3"/>
<stop offset="0.819608" stop-color="white"/>
<stop offset="1" stop-color="white"/>
</linearGradient>
</defs>
</svg>
