<svg width="44" height="55" viewBox="0 0 44 55" fill="none" xmlns="http://www.w3.org/2000/svg">
<g id="Layer_x0020_1">
<g id="_-1955915720">
<path id="Vector" fill-rule="evenodd" clip-rule="evenodd" d="M19.151 27.3653V27.2772C19.151 26.9774 19.151 26.66 19.151 26.325C19.1239 25.7432 18.9883 25.126 18.7986 24.5442C17.9852 22.252 15.8161 20.048 13.2946 19.1663C12.5083 18.8842 11.7221 18.7432 10.8815 18.7432H10.8544C10.746 18.7432 10.6375 18.7432 10.5291 18.7432C10.4206 18.7608 10.3393 18.7608 10.2308 18.7784C6.95016 19.1134 4.32019 27.6651 4.32019 34.9296C4.32019 35.0001 4.32019 35.0883 4.32019 35.1764C4.37442 40.184 7.19417 53.3905 13.8911 53.3729C16.4939 53.3553 17.0362 52.121 17.0362 50.0404C17.0362 48.5064 16.738 46.5139 16.738 44.2041C16.738 43.0051 16.8193 41.7356 17.0633 40.3956C18.3105 33.4485 19.151 31.7558 19.151 27.3653Z" fill="url(#paint0_linear_341_27857)"/>
<path id="Vector_2" fill-rule="evenodd" clip-rule="evenodd" d="M31.8942 53.3725H31.9213C38.4013 53.3549 37.1813 41.3473 37.1541 36.3927C37.1541 36.3574 37.1541 36.3221 37.1541 36.2869C37.1541 36.1987 37.1541 36.1282 37.1541 36.0577C37.1813 32.6017 37.6151 28.8461 37.6151 25.9368C37.6151 23.0451 37.2084 20.9645 35.5545 20.8058C35.3376 20.7881 35.1207 20.7705 34.8766 20.7705C33.0601 20.7705 31.2706 21.4934 29.8607 22.569C29.8607 22.569 29.8607 22.569 29.8336 22.569C27.9899 23.9972 26.6885 26.0249 26.6343 27.9116C26.6343 28.2642 26.6343 28.5816 26.6343 28.899C26.6343 33.0249 27.4748 34.6118 28.722 41.1534C28.966 42.4229 29.0473 43.6219 29.0473 44.7504C29.0473 46.9191 28.7491 48.8058 28.7491 50.2516C28.7491 52.2088 29.2914 53.3725 31.8942 53.3725Z" fill="url(#paint1_linear_341_27857)"/>
<path id="Vector_3" fill-rule="evenodd" clip-rule="evenodd" d="M34.66 20.3301H34.6329C34.2533 20.3301 33.8466 20.3653 33.467 20.4359C31.542 20.7885 29.5898 21.9346 28.2342 23.3981C28.2342 23.4157 28.2071 23.4334 28.2071 23.4334C26.6616 25.1613 26.1465 27.1361 26.1465 29.2344C26.1465 33.9598 28.8307 39.3729 28.8307 44.1512C28.8307 44.257 28.8307 44.3805 28.8307 44.4863C28.8307 44.5392 28.8307 44.592 28.8307 44.6449C28.8307 46.4082 28.4782 48.189 28.4782 49.917C28.4782 50.446 28.5053 50.9925 28.5867 51.5215C28.9662 53.1789 30.5388 53.4082 31.1624 53.4434C31.1895 53.4434 31.1895 53.4434 31.2166 53.4434C31.3251 53.4434 31.4335 53.4434 31.5149 53.4434C31.542 53.4434 31.542 53.4434 31.5691 53.4434C35.6089 53.4258 37.8864 49.3528 37.2357 38.7734C37.2086 38.6147 37.2086 38.456 37.2086 38.2973C37.1544 37.6978 37.1273 37.0983 37.1273 36.4812C37.1273 31.6852 38.2389 26.325 38.2389 23.451C38.2389 22.7281 38.1576 22.1638 37.9949 21.8112C37.9949 21.7936 37.9678 21.7936 37.9678 21.7759C37.1273 20.7533 35.9343 20.3301 34.66 20.3301ZM34.9311 21.1764C35.5276 21.1764 35.9885 21.2999 36.2054 21.4938C36.2054 21.5114 36.2054 21.5114 36.2054 21.5114C37.0459 21.8817 37.4255 23.7155 37.4255 26.6777C37.4255 29.4107 37.1002 33.1135 36.4766 37.5039C36.3952 38.0152 36.3681 38.5266 36.3681 39.0203C36.3681 40.7306 36.7477 42.3704 36.7477 44.4157C36.7206 45.8263 36.5579 47.4485 36.0156 49.4233C33.7653 54.854 29.5085 53.6903 28.8307 51.4157C28.8036 51.0454 28.7765 50.6575 28.7765 50.2696C28.7765 48.5064 29.156 46.6374 29.156 44.7507C29.156 44.6626 29.156 44.5744 29.1289 44.4686C29.156 44.3099 29.156 44.1512 29.156 43.9925C29.156 39.3553 27.0412 34.0832 27.0141 29.6575C27.0141 27.524 27.5021 25.5845 28.9662 24.0152C30.8099 22.0757 33.1145 21.2646 34.66 21.1941C34.7413 21.1764 34.8227 21.1764 34.9311 21.1764Z" fill="url(#paint2_linear_341_27857)"/>
<path id="Vector_4" fill-rule="evenodd" clip-rule="evenodd" d="M8.33365 27.5768C10.6925 32.5843 13.1869 38.3325 16.2507 42C19.7482 46.1964 18.0944 54.0957 23.2458 54.0957C27.3941 54.0957 27.9906 46.6725 28.3973 42.2468C29.4276 31.7556 35.6365 31.4559 37.6157 23.3979C37.7513 22.869 37.914 22.3929 38.1038 21.9345C29.7259 15.1461 15.3288 19.4307 3.83289 16.0806C4.80896 20.5415 5.83925 22.3047 8.33365 27.5768Z" fill="url(#paint3_linear_341_27857)"/>
<path id="Vector_5" fill-rule="evenodd" clip-rule="evenodd" d="M9.36337 0.0175781H9.33626H9.30915C9.22781 0.0175781 9.14647 0.0175781 9.06513 0.0175781C2.7749 0.176268 -3.10863 5.607 3.07315 14.7934C3.10026 14.8463 3.15448 14.8992 3.1816 14.9521C3.50695 15.4105 3.66963 16.0629 3.88654 16.539C15.3825 19.8891 29.7524 15.2695 38.1303 22.0579C39.2691 19.1309 41.2754 17.3148 42.2515 14.3173C42.6853 13.0654 42.8751 11.9546 42.8751 10.9496C42.8751 5.53647 37.5338 3.61456 34.3345 3.40297C28.8577 3.03269 29.6439 4.90171 26.5259 4.90171C21.022 4.90171 18.9885 0.211533 9.55316 0.0175781C9.49894 0.0175781 9.44471 0.0175781 9.39049 0.0175781H9.36337Z" fill="url(#paint4_linear_341_27857)"/>
<path id="Vector_6" d="M38.4017 4.44329C38.6729 4.61962 37.7781 4.24934 37.4799 4.23171C35.0668 3.96722 33.8739 5.4836 29.6171 5.87151C26.6889 6.11836 23.4896 4.54909 22.8931 4.02012C22.8931 4.02012 26.0382 6.06546 29.2646 4.10828C32.3555 2.22163 37.507 3.82617 38.4017 4.44329Z" fill="white"/>
<path id="Vector_7" d="M21.6457 30.1334C24.7637 36.0402 21.6457 42.7581 21.6457 47.8715C21.6457 54.607 25.8753 53.0201 25.9567 50.4281C26.1464 45.4029 22.92 38.0856 27.2852 30.874C28.912 28.1586 34.2533 25.5843 34.0635 19.7304C34.0635 19.7304 30.8641 18.0024 21.8355 18.0024C21.8355 18.0024 18.9615 24.9848 21.6457 30.1334Z" fill="#E4BB47"/>
<path id="Vector_8" d="M26.635 18.2139L32.3016 19.0073C32.1118 24.438 27.2044 27.4884 25.0624 24.9141C23.0561 22.4809 29.5632 20.3297 26.635 18.2139Z" fill="#CBBC84"/>
<path id="Vector_9" d="M33.6571 11.7076C31.8677 6.54133 24.6556 4.95443 20.8598 3.22647C12.1836 -0.740786 19.0432 4.61942 21.646 6.57659C23.4897 7.95191 25.3876 9.60934 26.7162 11.7957C28.6683 15.0577 27.638 16.4859 26.6348 18.2139L32.3015 19.0073C34.1451 17.3323 34.4163 13.9469 33.6571 11.7076Z" fill="#AFAFAD"/>
<path id="Vector_10" fill-rule="evenodd" clip-rule="evenodd" d="M23.0822 54.3426H23.1093H23.1364C28.1523 54.3249 28.315 45.1914 28.7759 41.8237C29.2097 33.0076 35.9609 31.2796 38.0486 23.4509C39.0246 19.2544 43.1458 16.539 43.1729 11.0025C43.1729 10.7557 43.1458 10.5088 43.1458 10.2443C42.7934 6.61209 39.7567 4.14358 35.6355 3.42066C35.6084 3.42066 35.5542 3.40302 35.4999 3.40302C35.4728 3.38539 35.4457 3.38539 35.4186 3.38539C35.3915 3.38539 35.3915 3.38539 35.3915 3.38539C34.4425 3.2267 33.6291 3.1738 32.9513 3.1738C32.9242 3.1738 32.9242 3.1738 32.9242 3.1738C32.8971 3.1738 32.8971 3.1738 32.8971 3.1738C31.189 3.1738 30.1858 3.56171 29.3453 3.94962C29.3182 3.96725 29.2911 3.98489 29.2639 4.00252C29.2368 4.00252 29.2368 4.00252 29.2368 4.00252C29.2097 4.02015 29.1826 4.02015 29.1826 4.03778C29.1284 4.05542 29.1013 4.07305 29.0742 4.09068C29.047 4.09068 29.047 4.10831 29.0199 4.10831C29.0199 4.10831 29.0199 4.10831 29.0199 4.12595C28.9928 4.12595 28.9928 4.12595 28.9657 4.12595C28.2337 4.49622 27.5558 4.83123 26.5255 4.83123C26.4984 4.83123 26.4442 4.83123 26.4171 4.83123C25.2241 4.8136 23.5431 4.35516 20.7504 3.06801C20.7233 3.05038 20.7233 3.05038 20.6962 3.03275C20.642 3.01511 20.5878 2.99748 20.5335 2.96222C20.5335 2.96222 20.5335 2.96222 20.5064 2.96222C20.4793 2.94458 20.4251 2.90932 20.398 2.89169C20.3438 2.87406 20.2895 2.85642 20.2353 2.82116C20.2353 2.82116 20.2082 2.80353 20.1811 2.80353C20.154 2.78589 20.0997 2.76826 20.0726 2.75063C18.3916 1.86902 16.7377 1.19899 15.138 0.758187C13.2944 0.246851 11.5591 0 9.93234 0C9.30874 0 8.73937 0.0352645 8.16999 0.105793C1.66286 0.881612 -1.88895 5.97733 2.31357 13.2947C3.96747 20.6121 10.8813 34.806 17.1173 43.9572C19.7473 47.7834 18.473 52.8967 21.835 54.1663C22.2688 54.2897 22.7026 54.3426 23.0822 54.3426ZM9.90523 0.070529C12.8606 0.070529 16.3039 0.934509 19.8557 2.82116C19.8828 2.83879 19.9099 2.85642 19.9371 2.87406C20.0455 2.92695 20.1268 2.97985 20.2353 3.01511C20.3166 3.05038 20.3709 3.08564 20.4522 3.12091L20.4793 3.13854C23.3533 4.51385 25.1428 4.98992 26.39 5.04282C26.4713 5.04282 26.5255 5.04282 26.5798 5.04282H26.6069C27.9896 5.04282 28.7488 4.47859 29.8062 4.03778C29.8062 4.03778 29.8333 4.03778 29.8333 4.02015C29.8604 4.02015 29.8875 4.00252 29.9147 3.98489C29.9689 3.96725 30.0231 3.94962 30.0502 3.93199C30.1045 3.91436 30.1316 3.89673 30.1858 3.89673C30.2129 3.87909 30.2129 3.87909 30.24 3.87909C30.24 3.86146 30.2671 3.86146 30.2671 3.86146C31.0534 3.59698 32.0024 3.45592 33.0598 3.45592C33.1411 3.45592 33.2225 3.45592 33.3038 3.45592C37.2352 3.54408 42.1426 5.51889 42.5222 10.2796C42.5222 10.403 42.5222 10.5441 42.5222 10.6851C42.5493 16.3098 38.401 18.7607 37.3436 23.3627C35.3644 31.2972 28.8573 32.4081 28.0439 42.9169C27.8541 44.733 27.7456 49.7582 26.0646 52.2972C25.441 53.2141 24.6276 53.8136 23.5431 53.8136C23.4618 53.8136 23.3804 53.8136 23.2991 53.8136C23.272 53.796 23.272 53.796 23.2448 53.796C18.717 53.4081 20.6962 48.4005 16.9817 42.7406C13.0775 36.7809 8.90205 28.194 5.32312 20.3652C4.2386 18.0378 3.77768 15.1285 2.69316 13.1889C-1.91606 5.44836 2.44914 0.0881612 9.851 0.070529C9.87812 0.070529 9.87812 0.070529 9.87812 0.070529C9.90523 0.070529 9.90523 0.070529 9.90523 0.070529Z" fill="url(#paint5_linear_341_27857)"/>
</g>
</g>
<defs>
<linearGradient id="paint0_linear_341_27857" x1="19.3091" y1="35.9961" x2="4.16387" y2="36.2688" gradientUnits="userSpaceOnUse">
<stop stop-color="#E9B631"/>
<stop offset="1" stop-color="#FEFBF3"/>
</linearGradient>
<linearGradient id="paint1_linear_341_27857" x1="27.067" y1="37.0414" x2="37.1777" y2="37.1956" gradientUnits="userSpaceOnUse">
<stop stop-color="#FEFBF3"/>
<stop offset="0.839216" stop-color="#E9B631"/>
<stop offset="1" stop-color="#E9B631"/>
</linearGradient>
<linearGradient id="paint2_linear_341_27857" x1="26.1546" y1="36.8499" x2="38.2249" y2="37.0275" gradientUnits="userSpaceOnUse">
<stop stop-color="#E9E9E9"/>
<stop offset="1" stop-color="#A4A4A3"/>
</linearGradient>
<linearGradient id="paint3_linear_341_27857" x1="36.3859" y1="35.0909" x2="5.55511" y2="35.0909" gradientUnits="userSpaceOnUse">
<stop stop-color="#EFB626"/>
<stop offset="1" stop-color="#FEFBF3"/>
</linearGradient>
<linearGradient id="paint4_linear_341_27857" x1="39.8948" y1="11.036" x2="3.42236" y2="11.036" gradientUnits="userSpaceOnUse">
<stop stop-color="#A4A4A3"/>
<stop offset="0.819608" stop-color="white"/>
<stop offset="1" stop-color="white"/>
</linearGradient>
<linearGradient id="paint5_linear_341_27857" x1="41.0291" y1="27.1713" x2="2.63053" y2="27.1713" gradientUnits="userSpaceOnUse">
<stop stop-color="#A4A4A3"/>
<stop offset="1" stop-color="#E9E9E9"/>
</linearGradient>
</defs>
</svg>
