<svg width="43" height="47" viewBox="0 0 43 47" fill="none" xmlns="http://www.w3.org/2000/svg">
<g id="Layer_x0020_1">
<g id="_-1769702104">
<path id="Vector" fill-rule="evenodd" clip-rule="evenodd" d="M7.62679 0.335177C7.59968 0.335177 7.59968 0.335177 7.59968 0.335177C2.77356 1.19916 -1.75432 9.5921 1.63481 17.6677C1.63481 17.7206 1.66192 17.7735 1.68903 17.8264C11.2871 11.8138 30.0493 12.0606 41.491 17.7735C41.8977 15.8692 42.1417 13.8767 42.1417 11.9372C42.1688 9.27472 41.6808 6.71805 40.4336 4.61981C36.8547 -1.39278 33.4113 0.370442 29.8324 1.67523C26.2806 2.98001 22.7288 0.388074 20.0988 0.335177C19.0143 0.299913 17.9569 0.564397 16.8181 0.811248C14.8389 1.25205 12.6969 1.71049 10.0941 0.599661C9.55182 0.370442 8.98244 0.264648 8.41307 0.264648C8.14194 0.264648 7.87081 0.282281 7.62679 0.335177Z" fill="url(#paint0_linear_341_27870)"/>
<path id="Vector_2" fill-rule="evenodd" clip-rule="evenodd" d="M34.7403 17.5617H34.7674H34.7945C38.7801 17.5264 40.2442 13.4534 39.7291 9.36267C39.7291 9.34504 39.7291 9.32741 39.7291 9.30977C39.702 9.25688 39.702 9.20398 39.702 9.13345C39.6748 9.08055 39.6748 9.02766 39.6748 8.97476C39.0512 4.97224 36.5568 1.07552 32.6526 1.05788C32.6526 1.05788 32.6526 1.05788 32.6255 1.05788C32.0561 1.05788 31.4596 1.14604 30.836 1.32237C30.7547 1.34 30.7004 1.35763 30.6462 1.37526C30.6191 1.3929 30.592 1.3929 30.5649 1.3929C30.5649 1.3929 30.5649 1.3929 30.5649 1.41053C29.5075 1.67501 28.5314 1.78081 27.6095 1.79844H27.5824H27.5553C26.037 1.78081 24.6813 1.49869 23.407 1.18131C23.3799 1.16368 23.3528 1.16368 23.3257 1.14604C23.2172 1.12841 23.1359 1.11078 23.0274 1.07552C23.0003 1.07552 22.9732 1.07552 22.9461 1.05788C22.919 1.05788 22.8648 1.04025 22.8376 1.02262C21.8345 0.775767 20.8584 0.511283 19.8823 0.40549C19.5027 0.352593 19.1503 0.334961 18.7707 0.334961C18.7436 0.334961 18.7165 0.334961 18.6893 0.334961H18.6622C23.5697 1.07552 23.3799 4.03773 24.8169 5.43068C24.8169 5.44831 24.8169 5.44831 24.8169 5.44831C25.0338 5.57174 25.1965 5.607 25.3049 5.607C25.332 5.607 25.332 5.607 25.332 5.607C25.793 5.607 25.7116 4.79592 26.1725 3.9672C26.6335 3.17375 27.5824 2.36267 29.9684 2.15108C30.0497 2.13345 30.1311 2.13345 30.2124 2.13345C30.3751 2.11582 30.5106 2.11582 30.6733 2.09819C30.7004 2.09819 30.7275 2.09819 30.7547 2.09819C29.3719 4.40801 27.4469 8.12841 27.4469 11.3727C27.4197 14.2468 28.9381 16.733 33.7371 17.4735C33.7371 17.4911 33.7642 17.4911 33.7913 17.4911H33.8184C34.1438 17.544 34.442 17.5617 34.7403 17.5617Z" fill="url(#paint1_linear_341_27870)"/>
<path id="Vector_3" fill-rule="evenodd" clip-rule="evenodd" d="M10.5825 14.4231C7.1934 15.1636 4.15674 16.2921 1.68945 17.8261C1.93347 18.3727 2.2046 18.9369 2.52996 19.4835C8.54906 29.8513 2.93665 39.6372 10.9079 44.5037C14.1072 46.4608 20.6415 47.748 20.6686 45.544C20.6686 45.5087 20.6686 45.4734 20.6686 45.4205C20.4517 43.3223 17.7404 42.5994 17.7404 39.2845C17.7404 38.8437 17.7946 38.3676 17.9031 37.821C18.6622 34.0477 19.6383 32.9193 21.2922 34.277C24.356 36.7984 23.4341 39.2669 26.0099 42.2115C28.7754 45.3853 34.5234 47.0251 35.5537 45.7203C38.6988 41.7178 35.8519 32.7606 39.4579 24.2266C40.2171 22.4105 40.9763 20.1712 41.4914 17.7732C35.7163 14.8991 28.0976 13.4004 20.7228 13.4004C17.2252 13.4004 13.7548 13.7354 10.5825 14.4231Z" fill="url(#paint2_linear_341_27870)"/>
<path id="Vector_4" d="M38.3459 16.3976C34.2247 23.7326 32.6793 30.8208 35.9057 40.589C37.1258 44.3094 34.1705 46.3548 32.0557 42.5462C29.4257 37.8208 33.086 34.9996 31.3236 25.8132C30.0764 19.1482 28.2598 16.2389 27.3651 13.8057C32.8691 14.2817 38.3459 16.3976 38.3459 16.3976Z" fill="#E9B225"/>
<path id="Vector_5" d="M13.9706 39.3552C15.1365 43.5693 19.3661 45.5089 20.6675 45.4207C20.1795 43.058 16.9802 42.4232 17.902 37.8212C18.6612 34.0479 19.2848 33.131 21.2911 34.2771C23.9482 35.7935 22.2672 22.9043 16.1397 29.4459C13.7808 31.9673 12.8048 34.9648 13.9706 39.3552Z" fill="#DECB8E"/>
<path id="Vector_6" d="M15.4349 38.6498C16.0043 42.9344 19.2578 45.0326 20.5864 45.1913C20.3424 42.811 16.9803 42.4231 17.9022 37.821C18.6614 34.0477 19.6374 32.9193 21.2913 34.277C22.8097 35.5465 21.2913 27.9117 18.092 29.9394C15.0824 31.8437 15.0011 35.4936 15.4349 38.6498Z" fill="#CBBC84"/>
<path id="Vector_7" d="M23.3518 6.43561C23.3518 6.43561 22.2673 4.12578 19.3662 3.12074C17.4411 2.45072 16.8175 0.899082 19.5017 0.969611C22.8638 1.05777 24.2736 5.27188 23.3518 6.43561Z" fill="white"/>
<path id="Vector_8" fill-rule="evenodd" clip-rule="evenodd" d="M8.4944 0L8.46729 0C8.38595 0 8.30461 0 8.19616 0.0176322C8.06059 0.0176322 7.92503 0.0352645 7.78946 0.0528967C3.15313 0.652393 0.333374 6.0126 0.333374 11.7078C0.333374 14.4584 0.984087 17.2796 2.42108 19.6776C8.84687 30.5919 1.8517 41.2947 12.8325 45.6675C12.9409 45.7028 13.0494 45.7557 13.1578 45.7909C13.185 45.7909 13.2121 45.8086 13.2121 45.8086C13.2392 45.8086 13.2392 45.8262 13.2663 45.8262C15.0286 46.461 16.9537 46.8841 18.4178 46.9018C18.4449 46.9018 18.4991 46.9018 18.5262 46.9018C20.1259 46.9018 21.1833 46.4081 20.9393 45.1914C20.9393 45.1738 20.9393 45.1562 20.9393 45.1209C20.5055 42.8816 18.228 42.8287 18.228 39.3552C18.228 38.597 18.3364 37.6977 18.5805 36.5693C18.5805 36.5516 18.5805 36.534 18.6076 36.5164C18.6076 36.4459 18.6347 36.3753 18.6618 36.2872C19.0143 34.9824 19.421 34.0302 20.0988 33.995C20.1259 33.995 20.1259 33.995 20.1259 33.995C20.153 33.995 20.1801 33.995 20.1801 33.995C20.641 34.0302 21.2375 34.4534 22.0238 35.4055C22.0238 35.4055 22.0238 35.4232 22.0509 35.4232C22.0509 35.4408 22.078 35.4584 22.078 35.4761C24.1929 37.9799 23.5693 41.4181 28.1242 44.204C29.9408 45.3325 32.2454 46.1612 33.8722 46.2494C33.9536 46.2494 34.062 46.2494 34.1433 46.2494H34.1705C34.9567 46.2494 35.5532 46.0378 35.7701 45.5441C38.861 40.9421 35.6074 33.2015 39.8913 23.6448C39.9184 23.5919 39.9455 23.5567 39.9727 23.5038C39.9727 23.4509 39.9998 23.4156 39.9998 23.3804C40.0269 23.3098 40.054 23.2569 40.0811 23.204C44.7988 11.2846 42.0332 0.229219 34.5229 0.211587H34.4958C33.574 0.211587 32.5708 0.370277 31.5134 0.722922C31.4863 0.722922 31.4592 0.740554 31.432 0.758187C31.4049 0.758187 31.3778 0.758187 31.3507 0.775819C31.3236 0.775819 31.2965 0.793451 31.2694 0.793451C31.188 0.828716 31.0796 0.86398 30.9711 0.899244C30.944 0.916877 30.9169 0.934509 30.8898 0.934509C30.8627 0.952141 30.8356 0.952141 30.8356 0.952141C30.8084 0.969773 30.7813 0.969773 30.7542 0.987406H30.7271C29.4528 1.44584 28.775 1.74559 27.7989 1.74559C27.7989 1.74559 27.7989 1.74559 27.7718 1.74559C26.9584 1.74559 25.9281 1.53401 24.22 1.02267C24.1929 1.02267 24.1929 1.02267 24.1929 1.02267C24.1657 1.00504 24.1386 1.00504 24.1386 1.00504C24.1115 0.987406 24.0844 0.987406 24.0573 0.987406V0.969773C23.976 0.952141 23.8675 0.934509 23.7862 0.899244C23.759 0.899244 23.7319 0.881612 23.7048 0.86398C23.5421 0.828716 23.3795 0.775819 23.1897 0.722922C23.1626 0.70529 23.1354 0.70529 23.1083 0.687658C23.0541 0.670025 22.9999 0.652393 22.9457 0.634761C22.8914 0.617129 22.8101 0.599496 22.7288 0.564232C21.6171 0.229219 20.641 0.105793 19.7734 0.105793C19.7463 0.105793 19.7463 0.105793 19.7192 0.105793C19.7192 0.105793 19.7192 0.105793 19.6921 0.105793C18.6347 0.105793 17.6857 0.282116 16.791 0.493703C16.6554 0.511335 16.547 0.5466 16.4114 0.564232C16.303 0.599496 16.1674 0.634761 16.0589 0.652393C15.1642 0.86398 14.2966 1.0403 13.3748 1.0403C13.3748 1.0403 13.3748 1.0403 13.3476 1.0403C12.5071 1.0403 11.6124 0.881612 10.6092 0.476071C10.5821 0.476071 10.555 0.458438 10.5279 0.458438C9.7416 0.193955 9.25357 0 8.4944 0ZM8.35884 0.581864C8.9011 0.581864 9.49758 0.687658 10.067 0.916877C10.0941 0.916877 10.0941 0.916877 10.0941 0.934509C10.1754 0.952141 10.2568 0.987406 10.311 1.00504C10.311 1.00504 10.311 1.00504 10.3381 1.02267C11.3684 1.42821 12.3716 1.56927 13.3476 1.56927C13.3748 1.56927 13.3748 1.56927 13.4019 1.56927C13.4019 1.56927 13.4019 1.56927 13.429 1.56927C14.5406 1.56927 15.5709 1.37532 16.5741 1.18136C16.5741 1.16373 16.6012 1.16373 16.6283 1.16373C16.6554 1.1461 16.6825 1.1461 16.7097 1.1461C16.7368 1.12846 16.7639 1.12846 16.791 1.12846C16.8181 1.11083 16.8723 1.11083 16.8994 1.0932C17.035 1.07557 17.1706 1.0403 17.3061 1.00504C18.228 0.811083 19.0956 0.634761 19.8819 0.634761C19.909 0.634761 19.909 0.634761 19.9361 0.634761C20.0174 0.634761 20.0717 0.634761 20.1259 0.634761C21.4816 0.70529 24.8707 2.15113 27.0668 2.32746C27.2566 2.34509 27.4193 2.34509 27.6091 2.34509C27.6362 2.34509 27.6362 2.34509 27.6362 2.34509C28.775 2.34509 29.8324 2.02771 30.8356 1.67506C30.8898 1.65743 30.9169 1.65743 30.944 1.6398C30.9711 1.62217 30.9982 1.62217 31.0253 1.60453C31.1338 1.56927 31.2151 1.55164 31.2965 1.51637C31.3236 1.49874 31.3778 1.48111 31.432 1.46348C31.4592 1.44584 31.4863 1.44584 31.5134 1.42821C31.5405 1.42821 31.5405 1.41058 31.5676 1.41058C31.5947 1.41058 31.6218 1.39295 31.6218 1.39295C32.625 1.02267 33.6011 0.687658 34.5772 0.670025C34.6043 0.670025 34.6314 0.670025 34.6585 0.670025C35.0652 0.670025 35.4719 0.740554 35.9057 0.881612C35.9328 0.881612 35.9328 0.881612 35.9599 0.899244C38.4543 1.6398 41.7621 5.50126 41.7621 12.5189C41.7621 15.6045 41.1385 19.2897 39.5117 23.5743C35.6888 32.7783 38.6983 40.9773 35.6074 45.4912C35.6074 45.5088 35.6074 45.5265 35.5803 45.5441C35.3905 45.932 34.9025 46.0907 34.2247 46.0907H34.1976C34.1705 46.0907 34.1433 46.0907 34.1433 46.0907C32.7064 46.0731 30.5644 45.3325 28.8292 44.2922C28.8292 44.2922 28.8292 44.2922 28.8021 44.2922C28.6936 44.204 28.5581 44.1335 28.4225 44.0453C28.4225 44.0277 28.3954 44.0277 28.3954 44.0101C23.3795 40.8186 25.3587 37.398 21.5358 34.1008C20.9393 33.6776 20.4784 33.4836 20.0717 33.466H20.0446C20.0174 33.466 20.0174 33.466 20.0174 33.466C19.2854 33.4836 18.7702 34.1008 18.3093 35.0529C17.6044 36.6574 17.3333 37.9446 17.3333 39.0202C17.3333 42.3879 19.9903 43.5693 20.2886 45.1914C20.5326 46.1436 19.7192 46.5139 18.472 46.5139C16.9266 46.5139 14.7033 45.9496 13.1036 45.3501C2.36685 41.136 8.92821 30.2217 2.80066 19.5894C2.80066 19.5542 2.77355 19.5189 2.74644 19.4836C2.74644 19.4484 2.71932 19.4131 2.69221 19.3778C2.69221 19.3602 2.6651 19.3249 2.6651 19.3073L2.63798 19.2897C-1.7001 11.2494 2.6651 0.599496 8.33172 0.581864H8.35884Z" fill="url(#paint3_linear_341_27870)"/>
</g>
</g>
<defs>
<linearGradient id="paint0_linear_341_27870" x1="40.0686" y1="9.04286" x2="2.53388" y2="9.04286" gradientUnits="userSpaceOnUse">
<stop stop-color="#A4A4A3"/>
<stop offset="0.819608" stop-color="white"/>
<stop offset="1" stop-color="white"/>
</linearGradient>
<linearGradient id="paint1_linear_341_27870" x1="19.0847" y1="8.9469" x2="39.3999" y2="8.9469" gradientUnits="userSpaceOnUse">
<stop stop-color="#C1C0BF"/>
<stop offset="0.321569" stop-color="#C1C0BF"/>
<stop offset="1" stop-color="#A4A4A3"/>
</linearGradient>
<linearGradient id="paint2_linear_341_27870" x1="41.4833" y1="30.0549" x2="1.69542" y2="30.0549" gradientUnits="userSpaceOnUse">
<stop stop-color="#EAB93A"/>
<stop offset="1" stop-color="#FEFBF3"/>
</linearGradient>
<linearGradient id="paint3_linear_341_27870" x1="40.2991" y1="23.4509" x2="2.44711" y2="23.4509" gradientUnits="userSpaceOnUse">
<stop stop-color="#A4A4A3"/>
<stop offset="1" stop-color="#E9E9E9"/>
</linearGradient>
</defs>
</svg>
