<svg width="42" height="53" viewBox="0 0 42 53" fill="none" xmlns="http://www.w3.org/2000/svg">
<g id="Layer_x0020_1">
<g id="_732028824">
<path id="Vector" fill-rule="evenodd" clip-rule="evenodd" d="M31.8311 18.1182H31.8046H31.7517C31.1165 18.1182 30.4813 18.2079 29.8461 18.3873C27.623 19.0331 25.6909 20.7014 24.6058 22.585C24.1294 23.4461 23.8118 24.361 23.7589 25.24C23.7589 25.3118 23.7589 25.3835 23.7589 25.4373C23.7324 25.7602 23.7324 26.0652 23.7324 26.3702V26.3881V26.406V26.424V26.4419V26.4599C23.7324 30.6935 24.5529 32.3259 25.7703 39.0352C26.0085 40.3447 26.0879 41.5825 26.0879 42.7306C26.0879 44.9551 25.7968 46.8925 25.7968 48.3815C25.7968 50.3906 26.3261 51.5746 28.8669 51.5926H28.8933C28.8933 51.5926 28.8933 51.5926 28.9198 51.5926C35.4041 51.5567 38.1565 38.8378 38.2095 34.0122C38.2095 33.9225 38.2095 33.8328 38.2095 33.7611C38.2095 26.7469 35.6423 18.4769 32.4398 18.1361C32.3604 18.1361 32.281 18.1361 32.1752 18.1182C32.0693 18.1182 31.937 18.1182 31.8311 18.1182Z" fill="url(#paint0_linear_341_28740)"/>
<path id="Vector_2" fill-rule="evenodd" clip-rule="evenodd" d="M8.38159 20.0742H8.35513C8.14339 20.0742 7.93166 20.0922 7.71993 20.1101C6.10549 20.2715 5.7085 22.2628 5.7085 25.0434C5.7085 27.8598 6.13196 31.5014 6.15842 34.8561C6.15842 34.9278 6.15842 34.9996 6.15842 35.0713C6.15842 36.4168 6.05256 38.3362 6.05256 40.3992C6.05256 45.5657 6.71422 51.6112 11.2929 51.5933C16.5597 51.5753 13.2249 46.7856 14.31 40.184C14.3365 40.0405 14.363 39.9149 14.3894 39.7893C15.6069 33.4568 16.4273 31.932 16.4273 27.9316C16.4273 27.6266 16.4273 27.3216 16.4273 26.9808C16.3744 25.1689 15.1305 23.2136 13.3308 21.8502C11.9281 20.7918 10.1813 20.0742 8.38159 20.0742Z" fill="url(#paint1_linear_341_28740)"/>
<path id="Vector_3" fill-rule="evenodd" clip-rule="evenodd" d="M8.61987 19.6436H8.5934C7.34949 19.6436 6.1585 20.0741 5.33805 21.0787C5.17925 21.4195 5.09985 21.9756 5.09985 22.6932C5.09985 25.4738 6.18497 30.6402 6.18497 35.2506C6.18497 35.8605 6.1585 36.4525 6.13204 37.0266C5.36452 47.5568 7.58768 51.629 11.5841 51.6649C11.6106 51.6649 11.637 51.6649 11.6635 51.6649C11.7429 51.6649 11.8488 51.6649 11.9546 51.6649C11.9811 51.6649 11.9811 51.6649 12.0076 51.6649C12.6163 51.629 14.1513 51.3958 14.5219 49.7992C14.6013 49.2969 14.6277 48.7767 14.6277 48.2385C14.6277 46.5881 14.2837 44.866 14.2837 43.1617C14.2837 43.1079 14.2837 43.0541 14.2837 43.0003C14.2837 42.8927 14.2837 42.785 14.2837 42.6774C14.2837 38.067 16.9038 32.8288 16.9038 28.2543C16.9038 26.2272 16.401 24.3257 14.8924 22.6573C14.019 21.7066 12.8545 20.8814 11.637 20.3432C11.6106 20.3252 11.6106 20.3252 11.5841 20.3252V20.3073C11.5576 20.3073 11.5576 20.3073 11.5576 20.3073C10.843 20.0023 10.0755 19.7691 9.33446 19.6974C9.09626 19.6615 8.85807 19.6436 8.61987 19.6436ZM8.72573 20.4867C10.1814 20.5943 12.2722 21.3298 13.9925 23.052C14.0455 23.1058 14.0984 23.1596 14.1513 23.2134C15.5805 24.7383 16.0569 26.6039 16.0569 28.6669C16.0304 32.9544 13.9661 38.067 13.9661 42.5518C13.9661 42.6953 13.9661 42.8568 13.9925 43.0003C13.9661 43.09 13.9661 43.1797 13.9661 43.2694C13.9661 45.0633 14.3366 46.8572 14.3366 48.5435C14.3366 48.9381 14.3366 49.3149 14.2837 49.6916C14.1513 50.1401 13.8602 50.5527 13.4897 50.8576C12.9868 51.2882 12.3252 51.5393 11.5841 51.5393C10.1284 51.5393 8.43461 50.5527 7.27009 47.7721C6.74076 45.8705 6.58197 44.3098 6.5555 42.9465C6.5555 40.9552 6.92603 39.3766 6.92603 37.7082C6.92603 37.2418 6.89956 36.7575 6.82016 36.2552C6.21144 32.0036 5.89384 28.4337 5.89384 25.7787C5.89384 22.9264 6.26437 21.1504 7.08483 20.7917V20.7737C7.32302 20.5764 7.74648 20.4688 8.32874 20.4688C8.46107 20.4688 8.5934 20.4688 8.72573 20.4867Z" fill="url(#paint2_linear_341_28740)"/>
<path id="Vector_4" fill-rule="evenodd" clip-rule="evenodd" d="M5.23218 21.2039C5.41744 21.6345 5.57624 22.1009 5.70857 22.6032C7.64061 30.4067 13.7014 30.6937 14.6806 40.8473C15.1041 45.0988 15.6864 52.2924 19.7357 52.2924C24.7643 52.2924 23.1499 44.6683 26.564 40.5961C29.5547 37.0621 31.9896 31.501 34.2922 26.6574C36.7271 21.5627 37.7328 19.8585 38.6856 15.5352C27.4639 18.7821 13.4367 14.6382 5.23218 21.2039Z" fill="url(#paint3_linear_341_28740)"/>
<path id="Vector_5" fill-rule="evenodd" clip-rule="evenodd" d="M33.1015 0.0175781C23.9177 0.196969 21.9063 4.73557 16.5336 4.73557C16.0572 4.73557 15.6602 4.68175 15.3427 4.60999C13.7811 4.26915 13.49 3.24662 10.2347 3.24662C10.2347 3.24662 10.2347 3.24662 10.2082 3.24662C9.8112 3.24662 9.38774 3.24662 8.91134 3.2825C5.78832 3.49777 0.574463 5.3455 0.574463 10.5837C0.574463 11.5524 0.759727 12.6288 1.18319 13.8486C2.13597 16.7189 4.09448 18.4949 5.20606 21.3113C13.3841 14.7635 27.4113 19.2124 38.633 15.9834C38.8447 15.517 39.0035 14.8891 39.3211 14.4406C45.6201 5.3455 39.5858 0.0175781 33.3133 0.0175781C33.2339 0.0175781 33.1545 0.0175781 33.1015 0.0175781Z" fill="url(#paint4_linear_341_28740)"/>
<path id="Vector_6" d="M4.94139 4.2875C4.67673 4.4669 5.55012 4.10811 5.84125 4.07223C8.19675 3.83903 9.36126 5.31003 13.5165 5.66882C16.3748 5.91996 19.4979 4.39514 20.1066 3.89284C20.1066 3.89284 17.01 5.86615 13.8605 3.9646C10.8434 2.15275 5.81478 3.69551 4.94139 4.2875Z" fill="#C2C0BE"/>
<path id="Vector_7" d="M38.2357 16.0913C33.2072 17.7238 23.8381 17.2394 23.8381 17.2394C23.6264 22.8902 17.7244 23.9666 21.2444 25.6708C23.4411 26.7471 27.2787 22.0471 29.5283 24.6124C31.5398 26.9265 20.6621 37.4747 20.9797 43.5202C21.1121 46.0317 21.906 48.597 24.3145 44.2916C26.9082 39.6454 30.2165 34.3533 33.2601 28.6308C35.9067 23.6616 38.2357 16.0913 38.2357 16.0913Z" fill="#E4BB47"/>
<path id="Vector_8" d="M29.7666 17.0601L24.4204 17.2215C23.0177 21.3116 25.3732 24.2178 28.4169 22.1727C30.9047 20.5044 25.9026 18.1185 29.7666 17.0601Z" fill="#DECB8E"/>
<path id="Vector_9" d="M39.2413 11.5885C41.5968 9.13086 41.1998 2.49339 36.4623 1.18383C31.8307 -0.0898473 28.046 1.61437 30.5868 3.19301C32.6512 4.50257 32.9952 7.22931 32.3336 9.45376C31.3808 12.8084 26.3522 16.1271 23.8379 17.2393L29.7663 17.0599C33.0746 16.2527 37.3886 13.5618 39.2413 11.5885Z" fill="#AFAFAD"/>
<path id="Vector_10" fill-rule="evenodd" clip-rule="evenodd" d="M32.7833 0L32.7569 0L32.7304 0C29.7662 0 26.3255 0.825199 22.832 2.65499C22.7261 2.69087 22.6467 2.74469 22.5409 2.78056C22.5144 2.7985 22.4879 2.81644 22.435 2.83438C22.3556 2.87026 22.2762 2.90614 22.1968 2.95995C22.1703 2.95995 22.1703 2.95995 22.1439 2.97789C22.0909 2.99583 22.0115 3.03171 21.9586 3.04965C19.4178 4.19775 17.8563 4.62829 16.7183 4.66417C16.6653 4.66417 16.6124 4.66417 16.533 4.66417C16.533 4.66417 16.533 4.66417 16.5065 4.66417C15.5273 4.66417 14.8921 4.35921 14.1775 4.01836C14.1775 4.00042 14.1775 4.00042 14.151 4.00042C14.1246 3.98248 14.1246 3.98248 14.0981 3.96455C14.0717 3.96455 14.0717 3.96455 14.0452 3.94661C14.0187 3.92867 14.0187 3.92867 13.9923 3.91073H13.9658C13.9393 3.89279 13.9393 3.89279 13.9393 3.89279C13.9129 3.89279 13.9129 3.87485 13.9129 3.87485C13.8864 3.87485 13.8864 3.87485 13.8599 3.85691C13.807 3.83897 13.7541 3.80309 13.7011 3.78515C13.6747 3.76722 13.6747 3.76722 13.6747 3.76722C12.8807 3.40843 11.9279 3.06759 10.3134 3.06759C10.3134 3.06759 10.3134 3.06759 10.287 3.06759C9.57238 3.06759 8.75193 3.12141 7.74621 3.28286C7.71974 3.28286 7.66681 3.3008 7.64034 3.3008C3.61747 4.00042 0.653243 6.38633 0.309181 9.90239C0.309181 10.1535 0.282715 10.4047 0.282715 10.6379C0.309181 16.0017 4.33206 18.6029 5.28484 22.675C7.32275 30.2274 13.9129 31.9137 14.3363 40.4348C14.3363 40.4348 14.3363 40.4348 14.3363 40.4527C14.7862 43.7176 14.945 52.5078 19.8413 52.5257H19.8678C20.2648 52.5257 20.6618 52.4719 21.1117 52.3643C24.3935 51.1265 23.1496 46.1932 25.7168 42.4798C31.8041 33.6538 38.553 19.9124 40.1674 12.8444C42.5758 8.70047 42.3641 5.29204 40.5379 3.03171H40.5115C40.5115 3.01377 40.5115 3.01377 40.5115 3.01377C38.9764 1.13016 36.2769 0.0538174 32.995 0L32.7833 0ZM32.7833 0.0717565C40.0351 0.0717565 44.2962 5.25616 39.7969 12.7368C38.7382 14.6204 38.2883 17.4368 37.2297 19.6972C33.7361 27.2495 29.6603 35.5553 25.8491 41.3138C22.2233 46.7852 24.1553 51.6288 19.7354 52.0055C19.709 52.0055 19.709 52.0055 19.6825 52.0055C19.6031 52.0234 19.5237 52.0234 19.4443 52.0234C15.4214 52.0055 15.3156 43.8611 15.0509 41.4932C14.2569 31.3217 7.93147 30.2633 5.97297 22.5854C4.94078 18.1364 0.891439 15.7685 0.917906 10.315C0.917906 10.1894 0.917906 10.0638 0.917906 9.92033C0.944372 9.83064 0.944372 9.75888 0.944372 9.66918C0.944372 9.65125 0.944372 9.61537 0.970838 9.59743C1.52663 5.18441 6.34349 3.35462 10.1017 3.33668C10.1282 3.33668 10.1282 3.33668 10.1546 3.33668C11.2133 3.33668 12.1925 3.48019 12.9601 3.76722C12.9865 3.76722 12.9865 3.76722 12.9865 3.76722C12.9865 3.76722 13.013 3.76722 13.013 3.78515C13.0395 3.78515 13.0659 3.78515 13.0924 3.80309C13.3306 3.89279 13.5423 4.00042 13.7805 4.09012C14.7862 4.55654 15.6332 5.05883 17.4064 4.78974C18.0416 4.70005 18.7826 4.50272 19.6825 4.17981C19.709 4.17981 19.709 4.17981 19.709 4.17981C20.6088 3.85691 21.6939 3.39049 22.9643 2.78056C23.0173 2.74469 23.0967 2.70881 23.1496 2.67293C23.1761 2.65499 23.2025 2.63705 23.2555 2.61911C26.6167 0.861078 29.8985 0.0717565 32.7304 0.0717565C32.7569 0.0717565 32.7569 0.0717565 32.7833 0.0717565Z" fill="url(#paint5_linear_341_28740)"/>
</g>
</g>
<defs>
<linearGradient id="paint0_linear_341_28740" x1="23.5779" y1="34.7881" x2="38.3619" y2="35.0575" gradientUnits="userSpaceOnUse">
<stop stop-color="#FEFBF3"/>
<stop offset="1" stop-color="#E9B631"/>
</linearGradient>
<linearGradient id="paint1_linear_341_28740" x1="16.6637" y1="35.7996" x2="5.4766" y2="35.9621" gradientUnits="userSpaceOnUse">
<stop stop-color="#E9B631"/>
<stop offset="0.160784" stop-color="#E9B631"/>
<stop offset="1" stop-color="#FEFBF3"/>
</linearGradient>
<linearGradient id="paint2_linear_341_28740" x1="16.9057" y1="35.6142" x2="5.10429" y2="35.7969" gradientUnits="userSpaceOnUse">
<stop stop-color="#A4A4A3"/>
<stop offset="1" stop-color="#E9E9E9"/>
</linearGradient>
<linearGradient id="paint3_linear_341_28740" x1="6.90855" y1="33.9195" x2="37.006" y2="33.9195" gradientUnits="userSpaceOnUse">
<stop stop-color="#FEFBF3"/>
<stop offset="1" stop-color="#EFB626"/>
</linearGradient>
<linearGradient id="paint4_linear_341_28740" x1="3.4839" y1="10.6641" x2="39.0869" y2="10.6641" gradientUnits="userSpaceOnUse">
<stop stop-color="white"/>
<stop offset="0.180392" stop-color="white"/>
<stop offset="1" stop-color="#A4A4A3"/>
</linearGradient>
<linearGradient id="paint5_linear_341_28740" x1="2.37461" y1="26.2629" x2="39.8588" y2="26.2629" gradientUnits="userSpaceOnUse">
<stop stop-color="#E9E9E9"/>
<stop offset="1" stop-color="#A4A4A3"/>
</linearGradient>
</defs>
</svg>
