<svg width="43" height="54" viewBox="0 0 43 54" fill="none" xmlns="http://www.w3.org/2000/svg">
<g id="Layer_x0020_1">
<g id="_684028064">
<path id="Vector" fill-rule="evenodd" clip-rule="evenodd" d="M15.558 50.6779H15.5844H15.6109C15.7697 50.6779 15.9549 50.66 16.0873 50.642L16.1137 50.6241C17.0665 50.4447 17.2783 50.0321 17.2783 49.4222C17.2783 48.9558 17.1724 48.3638 17.1724 47.6642C17.1724 46.9107 17.3047 45.9958 17.9399 44.9733C17.9399 44.9733 17.9399 44.9733 17.9135 44.9553C17.7547 44.4172 10.1588 21.6345 7.72393 20.7375C7.671 20.7196 7.64454 20.7017 7.5916 20.7017C7.5122 20.7017 7.4328 20.7375 7.37987 20.7914C7.27401 20.8811 7.19461 21.0784 7.11521 21.3475C7.11521 21.3654 7.11521 21.3654 7.11521 21.3833C6.13596 25.7067 3.99219 29.0254 3.99219 33.6358C3.99219 34.7839 4.12452 36.0037 4.44211 37.3312C4.44211 37.3671 4.44211 37.385 4.46858 37.403C4.49505 37.5106 4.52151 37.6182 4.54798 37.7259C4.54798 37.7618 4.54798 37.7797 4.54798 37.8156C4.57445 37.9053 4.60091 37.995 4.62738 38.0847C6.98288 46.9287 12.3291 50.373 15.1874 50.66C15.3198 50.6779 15.4521 50.6779 15.558 50.6779Z" fill="url(#paint0_linear_341_28753)"/>
<path id="Vector_2" d="M16.0866 47.6282C17.0394 52.0592 13.1754 47.0542 10.6875 36.5418C9.02015 29.6532 5.0502 28.6307 6.71758 22.1367C8.09383 16.755 16.0866 47.6282 16.0866 47.6282Z" fill="#CBBC84"/>
<path id="Vector_3" fill-rule="evenodd" clip-rule="evenodd" d="M7.56475 20.3608H7.53828C7.43241 20.3788 7.35302 20.3967 7.24715 20.4505C7.06189 20.5582 6.90309 20.7376 6.74429 21.0246C-0.189877 36.1114 6.05617 45.6191 11.5347 49.1711C12.9903 50.1218 14.4195 50.6421 15.5046 50.7318C15.6105 50.7497 15.7164 50.7497 15.8222 50.7497C16.9338 50.7497 17.6219 50.2295 17.569 49.2069C17.569 49.1711 17.569 49.1531 17.569 49.1352C17.4631 48.2382 17.3837 47.6821 17.3837 47.1798C17.3837 46.4981 17.5425 45.9779 17.966 44.9733C16.7221 40.6141 10.9789 21.7601 7.88234 20.4505C7.77648 20.3967 7.67061 20.3788 7.56475 20.3608ZM7.64414 21.1143C9.33799 22.7109 13.0168 32.4339 17.7278 44.5966C17.7807 44.7222 17.8337 44.8477 17.8866 44.9733C17.0926 46.0676 16.9338 47.0542 16.9338 47.9691C16.9338 48.3817 16.9603 48.7764 16.9867 49.1711C17.0132 50.0142 16.4574 50.4627 15.5311 50.4627C15.1606 50.4627 14.7371 50.3909 14.2343 50.2295C11.5612 49.3325 7.51181 45.8703 5.12985 39.1072C4.44172 36.9904 4.17706 35.1965 4.17706 33.5999C4.20353 28.9896 6.45316 25.9937 7.53828 21.491C7.59121 21.3475 7.61768 21.2399 7.64414 21.1681C7.64414 21.1502 7.64414 21.1322 7.64414 21.1143Z" fill="url(#paint1_linear_341_28753)"/>
<path id="Vector_4" fill-rule="evenodd" clip-rule="evenodd" d="M30.1403 49.9426H30.1667H30.1932C33.2633 49.9067 37.1538 45.0991 38.0801 42.2826C38.7153 40.3631 38.9271 38.7127 38.9271 37.0982C38.9271 35.0352 38.583 33.044 38.4507 30.6581C38.2654 27.7699 36.7568 24.792 36.7568 21.7782C36.7304 20.3789 37.0744 18.9797 38.0007 17.5625C38.0007 17.5625 26.1174 32.8825 26.1438 40.6322C26.1438 41.0986 26.1703 41.5292 26.2762 41.9418C27.8906 49.0815 26.8849 49.7632 29.9815 49.9426C30.0344 49.9426 30.0873 49.9426 30.1403 49.9426Z" fill="url(#paint2_linear_341_28753)"/>
<path id="Vector_5" fill-rule="evenodd" clip-rule="evenodd" d="M21.7503 14.4766H21.7239H21.6974H21.6709C15.1338 14.4766 9.073 15.7144 6.3999 19.1049C6.84983 19.7148 7.29976 20.4144 7.67028 21.3293C9.44353 25.7244 8.70247 26.2087 11.005 30.7832C11.0315 30.8012 11.0315 30.8191 11.058 30.855C11.0844 30.9447 11.1374 31.0344 11.1903 31.1241C11.1903 31.142 11.1903 31.1599 11.1903 31.1599C11.2168 31.1958 11.2168 31.2138 11.2432 31.2496C15.3455 40.0398 12.8047 53.4044 22.3855 53.4224C22.5443 53.4224 22.7031 53.4224 22.8619 53.4224C22.8884 53.4224 22.9149 53.4044 22.9413 53.4044C25.138 53.2968 27.7847 52.1487 29.6108 48.8659C31.2517 45.9238 29.8755 44.094 31.9928 40.7215C33.1573 38.8738 33.5808 37.026 33.5808 34.9272C33.5808 33.0794 33.2367 31.0523 32.7868 28.6843C32.7074 28.2359 32.6545 27.7874 32.6545 27.3389C32.6545 23.6076 35.6187 20.1453 38.1065 16.7548C34.1101 15.5888 28.7904 14.6918 23.5765 14.4945C22.9678 14.4766 22.3591 14.4766 21.7503 14.4766Z" fill="url(#paint3_linear_341_28753)"/>
<path id="Vector_6" fill-rule="evenodd" clip-rule="evenodd" d="M14.0752 0.0717773H14.0487H13.9693C13.7311 0.0717773 13.4665 0.0717773 13.2018 0.0717773C12.9901 0.0897165 12.7783 0.0897165 12.5401 0.107656C3.14461 0.574073 0.842041 4.03632 0.842041 7.55239C0.868507 9.79478 1.79483 12.0551 2.40355 13.562C3.56807 16.4323 5.10311 17.383 6.39996 19.1052C9.07306 15.7147 15.1338 14.4769 21.6445 14.4769H21.671H21.6975C27.4936 14.4769 33.6338 15.4456 38.1066 16.7552C39.9592 14.2437 41.6001 11.7501 41.6001 9.18485C41.6001 8.96958 41.6001 8.75431 41.5737 8.53904C41.1237 4.50274 38.7153 1.23782 33.9249 0.322925C33.872 0.322925 33.819 0.304986 33.7661 0.304986C33.0515 0.179412 32.3899 0.125595 31.8076 0.107656C31.7811 0.107656 31.7811 0.107656 31.7811 0.107656H31.7547C30.4049 0.125595 29.2668 0.394682 27.8906 0.663768C26.6731 0.896977 25.244 1.13019 23.3384 1.16606C23.259 1.16606 23.1796 1.16606 23.1002 1.16606C23.0208 1.16606 22.9679 1.16606 22.8885 1.16606C22.8885 1.16606 22.8885 1.16606 22.862 1.16606C20.9564 1.16606 19.8448 0.932855 18.7862 0.681707C18.6803 0.663768 18.6009 0.645829 18.5215 0.609951C17.7805 0.448499 17.0659 0.269108 16.0602 0.161473C15.5044 0.107656 14.8427 0.0717773 14.0752 0.0717773Z" fill="url(#paint4_linear_341_28753)"/>
<path id="Vector_7" d="M30.2463 5.72234C28.0231 2.26009 29.9287 -0.430778 33.9251 0.322665C38.7155 1.23756 40.7799 5.25592 41.0181 7.39068C41.1769 9.13077 39.9859 12.9697 36.2012 13.9923C34.5603 14.4408 30.5639 15.5171 27.5203 14.656C21.2478 12.8621 34.4809 12.2701 30.2463 5.72234Z" fill="#AFAFAD"/>
<path id="Vector_8" d="M31.6757 0.0175781C28.9497 0.59163 29.4261 1.57828 27.2029 2.43936C23.7094 3.80273 21.6715 2.00882 24.2387 1.23744C25.5885 0.860717 26.3295 0.950412 31.6757 0.0175781Z" fill="#F4F4F5"/>
<path id="Vector_9" d="M21.8831 53.3691C18.019 52.7591 24.0533 53.2076 24.1592 47.9514C24.2121 45.4579 23.6563 43.8793 23.0211 40.7579C22.3859 37.6544 27.7057 32.4879 27.3616 27.9673C27.0175 23.4107 25.0855 21.1683 23.2329 19.3744C21.0362 17.2755 23.6299 14.3694 27.3881 14.7461C29.029 14.9076 30.8552 15.1587 32.8137 15.5175C36.8365 16.271 31.6227 20.3611 31.014 24.2C30.5376 27.2676 33.4224 37.1342 29.4524 41.888C26.8852 44.9735 28.4997 54.3916 21.8831 53.3691Z" fill="#E4BB47"/>
<path id="Vector_10" d="M10.0793 1.32781C7.35325 -0.161137 18.7867 -0.161137 19.5807 1.11254C20.4011 2.38622 16.9605 1.39957 17.0399 2.69118C17.1193 4.34158 12.4083 2.60149 10.0793 1.32781Z" fill="#D2D3D2"/>
</g>
</g>
<defs>
<linearGradient id="paint0_linear_341_28753" x1="5.76093" y1="35.9243" x2="16.1034" y2="34.9258" gradientUnits="userSpaceOnUse">
<stop stop-color="#FEFBF3"/>
<stop offset="0.819608" stop-color="#EAB93A"/>
<stop offset="1" stop-color="#EAB93A"/>
</linearGradient>
<linearGradient id="paint1_linear_341_28753" x1="5.80924" y1="35.8452" x2="15.7715" y2="34.6098" gradientUnits="userSpaceOnUse">
<stop stop-color="#E9E9E9"/>
<stop offset="1" stop-color="#A4A4A3"/>
</linearGradient>
<linearGradient id="paint2_linear_341_28753" x1="26.6404" y1="33.6559" x2="38.4053" y2="34.1084" gradientUnits="userSpaceOnUse">
<stop stop-color="#FEFBF3"/>
<stop offset="0.721569" stop-color="#EAB93A"/>
<stop offset="1" stop-color="#EAB93A"/>
</linearGradient>
<linearGradient id="paint3_linear_341_28753" x1="7.31908" y1="34.3517" x2="37.1441" y2="32.5932" gradientUnits="userSpaceOnUse">
<stop stop-color="#FEFBF3"/>
<stop offset="1" stop-color="#EAB93A"/>
</linearGradient>
<linearGradient id="paint4_linear_341_28753" x1="1.77604" y1="10.9702" x2="40.1804" y2="5.01553" gradientUnits="userSpaceOnUse">
<stop stop-color="white"/>
<stop offset="0.180392" stop-color="white"/>
<stop offset="1" stop-color="#A4A4A3"/>
</linearGradient>
</defs>
</svg>
