<svg width="38" height="70" viewBox="0 0 38 70" fill="none" xmlns="http://www.w3.org/2000/svg">
<g id="Layer_x0020_1">
<g id="_-1935199952">
<path id="Vector" fill-rule="evenodd" clip-rule="evenodd" d="M11.739 22.3928C9.35301 22.1813 7.91602 21.9873 7.91602 22.146C8.02447 33.2543 13.0404 55.2417 15.5619 60.7606C17.7852 65.6271 22.1504 68.8891 25.4853 68.8891C27.1934 68.8891 27.573 67.1435 27.573 64.9923C27.573 63.1939 27.329 61.0956 27.329 59.5087C27.329 59.3677 27.329 59.2266 27.329 59.1032C27.4374 55.9646 27.9254 54.4659 27.9254 51.8211C27.9254 51.5742 27.8983 51.2921 27.8983 51.01C27.8441 49.2291 27.6001 46.2845 27.6001 43.1284C27.6001 40.6598 27.7357 38.0679 28.2508 35.7933C29.3895 30.5566 28.3593 25.7077 30.8808 21.952C31.0163 21.7581 31.1519 21.5465 31.3146 21.3525C23.4789 23.1158 16.0499 22.7455 11.739 22.3928Z" fill="url(#paint0_linear_341_28767)"/>
<path id="Vector_2" fill-rule="evenodd" clip-rule="evenodd" d="M18.9508 0.211914H18.9237H18.8966C18.6255 0.211914 18.2459 0.247179 17.8121 0.300075C15.3448 0.599823 10.6271 1.69302 6.8584 3.54441C3.19814 5.30763 0.432609 7.79378 1.27311 10.9147C2.22207 14.3882 3.49638 16.5746 7.91581 22.1464C14.3958 23.892 24.0752 22.8693 31.3144 21.353C33.7817 17.9499 36.4116 15.7107 36.9539 10.8442C36.981 10.756 36.981 10.6502 36.981 10.562C36.981 8.85171 35.4627 7.14139 33.7274 5.81897C32.426 4.81393 29.3351 4.35549 28.115 3.66783C23.1533 0.917204 25.1597 0.405869 19.0322 0.211914H18.9508Z" fill="url(#paint1_linear_341_28767)"/>
<path id="Vector_3" d="M20.795 22.6575C23.3978 22.6222 33.3212 18.6726 29.1187 8.95724C26.8954 3.84389 13.0678 2.39805 17.5143 6.25951C20.9306 9.20409 22.4218 9.22173 22.7742 12.1663C23.5063 18.0378 18.6802 22.6751 20.795 22.6575Z" fill="#C2C0BE"/>
<path id="Vector_4" d="M32.3181 16.0983C30.8811 15.393 32.7519 12.7834 31.3149 9.4333C27.8173 1.26957 36.8188 7.82877 36.9544 10.9144C37.09 14.1411 33.267 16.5744 32.3181 16.0983Z" fill="#A4A4A3"/>
<path id="Vector_5" d="M24.5636 49.6523C25.8379 42.8639 23.696 35.2644 25.4041 29.7103C27.6545 22.4281 27.6274 22.6926 27.6274 22.6926C27.6274 22.6926 25.5396 23.3979 21.5269 23.0982C17.4871 22.7984 21.0389 24.8438 20.9304 38.7556C20.8762 44.2216 21.3371 62.5768 23.7231 65.3803C26.7597 68.8891 23.696 54.2896 24.5636 49.6523Z" fill="#E4BB47"/>
<path id="Vector_6" fill-rule="evenodd" clip-rule="evenodd" d="M25.2688 69.0479H25.2959C25.7297 69.0479 26.1364 68.9597 26.4889 68.7834C26.516 68.7834 26.516 68.7834 26.516 68.7834C27.5192 68.1839 27.7632 66.932 27.7632 65.2393C27.7632 63.5995 27.5463 61.5189 27.5463 59.1738C27.5463 58.2217 27.5734 57.2166 27.6818 56.1763C27.8988 54.0781 27.953 52.1562 27.953 50.3577C27.953 47.8186 27.8445 45.5088 27.8445 43.2166C27.8445 40.6952 27.9801 38.2091 28.6037 35.4937C29.5798 30.9975 28.929 26.7834 30.6372 23.1335C32.1013 20.1008 37.2799 16.063 37.2799 11.5668C37.2799 9.76826 36.4665 7.89925 34.2432 5.99496C32.9147 4.84887 30.1762 4.65491 27.709 3.49118C26.2177 2.75063 25.2959 1.05793 23.398 0.564232C22.7473 0.405542 22.0694 0.264484 21.4187 0.176322C20.6867 0.070529 19.9546 0 19.2497 0C18.6532 0 18.0567 0.0528967 17.4873 0.141058C17.162 0.193955 16.8366 0.264484 16.5384 0.335013C10.9802 1.74559 0.758585 3.84383 0.785698 9.45088C0.785698 9.6801 0.812811 9.90932 0.839924 10.1562C1.13817 13.1184 5.01533 18.4081 6.75057 21.4584C7.53685 22.869 7.75375 25.0731 8.02488 27.9118C9.08229 38.7204 12.3901 60.2317 19.331 66.2796C19.331 66.2972 19.3581 66.2972 19.3853 66.3149C19.4124 66.3501 19.4666 66.403 19.5208 66.4383C19.5479 66.4559 19.575 66.4736 19.6022 66.4912C21.0663 67.6726 23.3438 68.9773 25.1603 69.0302L25.2688 69.0479ZM19.5479 0.387909C20.6867 0.387909 21.8797 0.493703 23.0726 0.722922C23.1811 0.740554 23.2895 0.758187 23.3709 0.793451C25.0519 1.12846 25.8382 2.69773 27.6276 3.57935C29.8509 4.65491 32.4809 4.76071 33.7281 5.81864C35.9513 7.70529 36.7647 9.53904 36.7647 11.3199C36.7647 15.8161 31.4506 19.9068 29.878 22.9924C28.197 26.5013 28.9019 30.9622 28.0072 35.4584C27.4921 37.8035 27.3565 40.0428 27.3565 42.2116C27.3565 45.4207 27.6818 48.5063 27.6818 51.6977C27.6818 53.1612 27.6005 54.6423 27.4107 56.1587C27.4107 56.194 27.4107 56.2292 27.4107 56.2645C27.0582 59.0857 27.2209 61.66 27.3023 63.7406C27.3836 66.3678 27.3565 68.1839 26.028 68.6247C25.5128 68.7834 24.7808 68.7481 23.8047 68.466C14.2067 65.4509 10.9531 46.4433 7.91643 22.1461C7.80798 20.3476 1.51775 15.3577 1.49064 10.4207C1.49064 7.75819 3.2801 5.11335 8.83827 2.97985C12.2274 1.51637 15.725 0.405542 19.4937 0.387909H19.5208H19.5479Z" fill="url(#paint2_linear_341_28767)"/>
</g>
</g>
<defs>
<linearGradient id="paint0_linear_341_28767" x1="31.3089" y1="45.1217" x2="7.91954" y2="45.1217" gradientUnits="userSpaceOnUse">
<stop stop-color="#EAB93A"/>
<stop offset="1" stop-color="#FEFBF3"/>
</linearGradient>
<linearGradient id="paint1_linear_341_28767" x1="36.2655" y1="11.6408" x2="1.83517" y2="11.6408" gradientUnits="userSpaceOnUse">
<stop stop-color="#A4A4A3"/>
<stop offset="0.819608" stop-color="white"/>
<stop offset="1" stop-color="white"/>
</linearGradient>
<linearGradient id="paint2_linear_341_28767" x1="37.2772" y1="34.5239" x2="0.788411" y2="34.5239" gradientUnits="userSpaceOnUse">
<stop stop-color="#A4A4A3"/>
<stop offset="1" stop-color="#E9E9E9"/>
</linearGradient>
</defs>
</svg>
