<svg width="36" height="72" viewBox="0 0 36 72" fill="none" xmlns="http://www.w3.org/2000/svg">
<g id="Layer_x0020_1">
<g id="_-1958947064">
<path id="Vector" fill-rule="evenodd" clip-rule="evenodd" d="M6.61951 22.7109C9.08087 26.5857 8.04869 31.5907 9.18674 36.9904C9.66313 39.3404 9.82193 42.0313 9.82193 44.5607C9.82193 47.8436 9.58373 50.8753 9.5308 52.7051C9.50433 53.01 9.50433 53.2791 9.50433 53.5482C9.50433 56.257 9.98072 57.8177 10.0866 61.0647C10.0866 61.1903 10.0866 61.3338 10.0866 61.4773C10.0866 63.1277 9.82193 65.2804 9.82193 67.1281C9.82193 69.3526 10.2189 71.1644 11.8598 71.1644C15.1152 71.1644 19.3763 67.8098 21.573 62.7689C24.0343 57.0643 27.7661 35.6988 27.8984 24.2357C27.8984 23.7693 28.0043 23.3029 28.1366 22.8365C28.0837 22.8544 28.0572 22.8544 28.0307 22.8723C27.9778 22.8903 27.9513 22.8903 27.8984 22.9082C25.5694 23.5361 22.9227 23.8052 20.1702 23.8052C20.1702 23.8052 20.1702 23.8052 20.1438 23.8052C20.1438 23.8052 20.1173 23.8052 20.0908 23.8052C15.7504 23.8052 11.1452 23.1414 6.99003 22.2624C6.91063 22.2445 6.83124 22.2265 6.75184 22.2086C6.67244 22.1906 6.61951 22.1906 6.56657 22.1727C6.51364 22.1548 6.46071 22.1548 6.40778 22.1368C6.35484 22.1189 6.27544 22.1009 6.19604 22.083C6.32838 22.2983 6.46071 22.4956 6.61951 22.7109Z" fill="url(#paint0_linear_341_28775)"/>
<path id="Vector_2" fill-rule="evenodd" clip-rule="evenodd" d="M20.0906 23.8052H20.1435H20.17C22.9225 23.8052 25.5691 23.5361 27.8981 22.9083C27.951 22.8903 27.9775 22.8903 28.0304 22.8724C28.0569 22.8544 28.0834 22.8544 28.1363 22.8365C29.3802 18.6926 35.5204 14.9433 35.5204 11.3196C35.5204 6.189 22.2608 0 18.1056 0C18.0791 0 18.0527 0 18.0262 0.0179391C11.092 0.161452 0.664307 6.44014 0.664307 11.2478C0.664307 16.2708 3.76086 18.5849 6.19576 22.0831C6.27516 22.101 6.35456 22.1189 6.40749 22.1369C6.46042 22.1548 6.51336 22.1548 6.56629 22.1728C6.61922 22.1907 6.67215 22.1907 6.75155 22.2086C6.83095 22.2266 6.91035 22.2445 6.98975 22.2624C11.145 23.1415 15.7501 23.8052 20.0906 23.8052Z" fill="url(#paint1_linear_341_28775)"/>
<path id="Vector_3" d="M21.6788 57.2438C24.7753 47.9334 22.7374 38.9459 24.4048 33.2233C26.6015 25.6889 25.5693 23.4106 25.5693 23.4106C25.5693 23.4106 24.1666 23.9668 20.2231 23.6439C16.3061 23.3389 20.5143 29.5099 20.4084 43.8612C20.3819 49.5121 16.9148 59.3427 15.4857 61.7465C13.1831 65.5855 20.1437 61.9439 21.6788 57.2438Z" fill="#E4BB47"/>
<path id="Vector_4" d="M7.3606 3.56977C6.9636 5.47132 10.9071 5.57895 9.58376 6.06331C8.28692 6.52973 4.47577 5.97361 4.13171 5.56101C3.99938 5.4175 7.38706 3.40832 7.3606 3.56977Z" fill="#E9EAE9"/>
<path id="Vector_5" fill-rule="evenodd" clip-rule="evenodd" d="M22.4726 1.79395H22.4461C21.1757 1.79395 19.7201 2.09891 17.3911 3.24701C17.3911 3.26495 17.3646 3.26495 17.3381 3.28289C17.2323 3.33671 17.1264 3.39053 17.0205 3.44434C16.9941 3.44434 16.9676 3.46228 16.9411 3.46228C16.8882 3.49816 16.8088 3.53404 16.7559 3.55198C16.7029 3.56992 16.6765 3.58786 16.6235 3.62374C16.5706 3.64167 16.5177 3.65961 16.4647 3.69549H16.4383C12.4683 5.50734 9.42471 5.9917 7.36034 6.02758C7.30741 6.02758 7.22801 6.02758 7.17508 6.02758C7.17508 6.02758 7.17508 6.02758 7.14861 6.02758C5.05777 6.02758 3.97266 5.54322 3.97266 5.54322C4.02559 5.5791 4.07852 5.63292 4.13145 5.68673C5.37537 6.8169 6.72515 7.26538 8.12786 7.26538C8.15433 7.26538 8.15433 7.26538 8.15433 7.26538C8.1808 7.26538 8.20726 7.26538 8.23373 7.26538C10.4569 7.24744 12.8653 6.13521 15.2208 4.93329C15.2473 4.93329 15.2473 4.93329 15.2738 4.91535C15.3002 4.89741 15.3267 4.87947 15.3532 4.86153C15.4326 4.8436 15.4855 4.80772 15.5384 4.77184C15.6443 4.73596 15.7502 4.68214 15.856 4.62833C15.909 4.59245 15.9354 4.57451 15.9883 4.53863C16.0148 4.53863 16.0677 4.52069 16.0942 4.50275C16.1207 4.48481 16.1471 4.46687 16.2001 4.44894C16.2001 4.44894 16.2265 4.431 16.253 4.431C16.2795 4.41306 16.3059 4.39512 16.3324 4.37718C18.7144 3.15732 21.0434 2.02715 23.1342 1.99128C23.1872 1.99128 23.2136 1.99128 23.2666 1.99128C23.4518 1.99128 23.6636 1.99128 23.8488 2.00921C23.8753 2.00921 23.8753 2.00921 23.8753 2.02715L23.9282 1.90158C23.8488 1.90158 23.7694 1.88364 23.69 1.88364C23.293 1.82982 22.8696 1.79395 22.4726 1.79395Z" fill="url(#paint2_linear_341_28775)"/>
<path id="Vector_6" fill-rule="evenodd" clip-rule="evenodd" d="M12.0454 71.3258H12.0719H12.0984C12.1248 71.3258 12.1778 71.3079 12.2042 71.3079C14.0304 71.2541 16.3859 69.801 17.7886 68.5453C17.8151 68.5273 17.8151 68.5273 17.8415 68.5094C17.8415 68.4914 17.868 68.4914 17.8945 68.4735C25.9402 61.0467 28.0575 30.9269 28.3487 23.8051C28.6663 20.2532 33.1126 17.0779 35.0446 13.6874C35.0446 13.6874 35.0446 13.6695 35.0711 13.6516C35.0711 13.6516 35.0711 13.6516 35.0711 13.6336C35.0711 13.6336 35.0711 13.6157 35.0711 13.5977C35.0976 13.5977 35.0976 13.5977 35.0976 13.5977C35.0976 13.5798 35.0976 13.5619 35.0976 13.5619C35.0976 13.5619 35.0976 13.5439 35.124 13.5439C35.124 13.5439 35.124 13.526 35.124 13.508C35.1505 13.4722 35.1505 13.4363 35.177 13.4184C35.177 13.4004 35.177 13.3825 35.2034 13.3645C35.2034 13.3287 35.2299 13.3107 35.2299 13.2748C36.0768 11.176 35.0182 9.09503 33.0861 7.21142C33.0597 7.19348 33.0332 7.1576 32.9803 7.13966C32.9803 7.12172 32.9538 7.10378 32.9538 7.08585C32.9273 7.06791 32.9009 7.03203 32.8744 7.01409C32.8479 7.01409 32.8479 7.01409 32.8479 7.01409C32.8215 6.97821 32.795 6.96027 32.7685 6.92439C32.7421 6.90645 32.7421 6.90645 32.7156 6.88851C32.7156 6.87058 32.6891 6.85264 32.6891 6.8347C32.6627 6.8347 32.6627 6.8347 32.6627 6.8347C32.6627 6.8347 32.6362 6.81676 32.6362 6.79882C32.6097 6.78088 32.6097 6.78088 32.5833 6.76294C32.5568 6.745 32.5568 6.72706 32.5303 6.72706V6.70912L32.5039 6.69118C32.5039 6.67325 32.4774 6.67325 32.4774 6.67325C32.4774 6.65531 32.4509 6.65531 32.4509 6.63737C32.4509 6.63737 32.4509 6.63737 32.4245 6.63737C32.4245 6.61943 32.4245 6.61943 32.398 6.60149C32.398 6.60149 32.398 6.58355 32.3715 6.58355V6.56561C32.3451 6.56561 32.3451 6.54767 32.3451 6.54767L32.3186 6.52973C32.3186 6.51179 32.2921 6.51179 32.2921 6.49385C32.2657 6.49385 32.2657 6.49385 32.2657 6.47592C32.2657 6.47592 32.2392 6.47592 32.2392 6.45798C32.2392 6.45798 32.2127 6.45798 32.2127 6.44004C32.2127 6.44004 32.2127 6.44004 32.2127 6.4221C32.1863 6.4221 32.1863 6.40416 32.1598 6.40416C32.1598 6.38622 32.1598 6.38622 32.1333 6.38622C32.1333 6.36828 32.1333 6.36828 32.1333 6.36828C32.1069 6.35034 32.1069 6.35034 32.0804 6.35034V6.3324C32.0804 6.31446 32.0539 6.31446 32.0275 6.29652V6.27858C32.001 6.27858 32.001 6.26065 32.001 6.26065C31.9745 6.26065 31.9745 6.26065 31.9745 6.24271C31.9481 6.22477 31.9216 6.20683 31.8951 6.17095C31.8687 6.17095 31.8687 6.17095 31.8687 6.17095C31.8687 6.15301 31.8422 6.15301 31.8422 6.13507C31.8157 6.11713 31.7893 6.09919 31.7628 6.08125C31.7628 6.06332 31.7363 6.06332 31.7363 6.06332C31.7363 6.04538 31.7363 6.04538 31.7363 6.04538C31.6834 6.02744 31.6569 5.99156 31.6305 5.97362C31.6305 5.97362 31.6305 5.97362 31.6305 5.95568C31.5246 5.88392 31.4188 5.81217 31.3129 5.74041C29.9896 4.75376 28.4545 3.83887 26.9459 3.04954L26.9724 3.06748C33.1126 6.38622 35.1505 8.98739 35.1505 11.2836C35.1505 15.571 28.1369 18.836 27.5282 23.7692C25.7285 48.9557 22.8966 67.6124 13.5275 70.7159C13.4746 70.7338 13.4481 70.7338 13.4217 70.7518C12.8924 70.9132 12.4424 70.985 12.0454 70.985H12.019C8.71068 70.967 10.828 65.2624 9.98106 58.0329C9.7958 56.4543 9.74286 54.9295 9.74286 53.4226C9.74286 50.1218 10.0605 46.9466 10.0605 43.6278C10.0605 41.3854 9.90166 39.0713 9.42527 36.6495C8.52541 32.0033 9.24 27.3929 7.57263 23.7872C6.06405 20.5761 0.850192 16.3604 0.876658 11.6962C0.876658 8.82594 2.86163 5.79423 8.89594 2.74458C10.6163 1.84762 12.1513 1.18388 13.6069 0.753337C16.7564 -0.161558 19.456 -0.000106417 22.4202 1.04036C21.9703 0.860971 21.5204 0.699519 21.0969 0.556006C21.0704 0.556006 21.0704 0.538067 21.0704 0.538067C21.044 0.538067 21.044 0.538067 21.0175 0.520128C20.9116 0.502189 20.8322 0.466311 20.7528 0.448372V0.430432C20.7264 0.430432 20.7264 0.430432 20.6999 0.430432L20.6734 0.412493C20.6734 0.412493 20.6734 0.412493 20.647 0.412493L20.6205 0.394554C20.4088 0.340737 20.2235 0.286919 20.0118 0.251041C19.3501 0.107528 18.662 0.0537109 17.9739 0.0537109C16.2536 0.0537109 14.4803 0.430432 12.813 0.968606C11.3573 1.43502 9.98106 2.04495 8.79008 2.65488C6.85804 3.6236 5.32299 4.59231 4.13201 5.56102C1.35305 7.76753 0.347332 9.93817 0.373798 12.0012C0.373798 16.6474 5.42886 20.8093 6.85804 23.9307C8.52541 27.68 7.86376 32.0392 8.84301 36.6854C9.42527 39.4839 9.58407 42.0492 9.58407 44.6504C9.58407 47.0183 9.45173 49.4042 9.45173 52.0233C9.45173 53.889 9.50467 55.8802 9.7164 58.0509C9.82226 59.1093 9.87519 60.1498 9.87519 61.1364C9.87519 63.5582 9.637 65.6929 9.637 67.3972C9.637 69.1373 9.87519 70.4289 10.8544 71.0388C10.8809 71.0567 10.9074 71.0747 10.9338 71.0747C11.2779 71.2361 11.6484 71.3079 12.0454 71.3258ZM24.6698 1.95526C24.6963 1.9732 24.7228 1.9732 24.7228 1.99114C24.7492 1.99114 24.7492 1.99114 24.7757 2.00907C25.4638 2.31404 26.1784 2.65488 26.893 3.0316C26.7342 2.94191 26.5754 2.85221 26.4166 2.78046C26.4166 2.78046 26.4166 2.78046 26.3902 2.76252C26.3902 2.76252 26.3637 2.74458 26.3372 2.74458C26.3372 2.74458 26.3372 2.72664 26.3108 2.72664L26.2843 2.7087C24.908 2.02701 23.6641 1.45296 22.4467 1.04036C23.1348 1.30945 23.9023 1.61441 24.6698 1.95526Z" fill="url(#paint3_linear_341_28775)"/>
</g>
</g>
<defs>
<linearGradient id="paint0_linear_341_28775" x1="6.19075" y1="46.6266" x2="28.1321" y2="46.6266" gradientUnits="userSpaceOnUse">
<stop stop-color="#FEFBF3"/>
<stop offset="1" stop-color="#EAB93A"/>
</linearGradient>
<linearGradient id="paint1_linear_341_28775" x1="0.667747" y1="11.9085" x2="35.5096" y2="11.9085" gradientUnits="userSpaceOnUse">
<stop stop-color="white"/>
<stop offset="0.180392" stop-color="white"/>
<stop offset="1" stop-color="#A4A4A3"/>
</linearGradient>
<linearGradient id="paint2_linear_341_28775" x1="3.9851" y1="4.52643" x2="23.9219" y2="4.52643" gradientUnits="userSpaceOnUse">
<stop stop-color="#C1C0BF"/>
<stop offset="0.321569" stop-color="#C1C0BF"/>
<stop offset="1" stop-color="#A4A4A3"/>
</linearGradient>
<linearGradient id="paint3_linear_341_28775" x1="1.06827" y1="35.6864" x2="34.8266" y2="35.6864" gradientUnits="userSpaceOnUse">
<stop stop-color="#E9E9E9"/>
<stop offset="1" stop-color="#A4A4A3"/>
</linearGradient>
</defs>
</svg>
