<svg width="37" height="86" viewBox="0 0 37 86" fill="none" xmlns="http://www.w3.org/2000/svg">
<g id="Layer_x0020_1">
<g id="_-1688828456">
<g id="Group">
<g id="Group_2">
<path id="Vector" d="M31.0127 31.6123C30.6686 33.2627 30.4304 35.2898 30.3246 38.2318C30.0334 45.551 26.1429 69.428 24.3432 74.6841C22.4112 80.2991 20.2145 85.1068 16.218 85.3041C12.301 85.5014 14.2595 78.1105 14.1007 73.536C13.8096 65.8222 10.8189 58.8798 9.38974 52.4037C8.06643 46.3762 7.21951 36.7967 5.84326 31.7199C12.1952 36.0253 24.1579 35.828 31.0127 31.6123Z" fill="url(#paint0_linear_341_28784)"/>
</g>
</g>
<g id="Group_3">
<g id="Group_4">
<path id="Vector_2" d="M32.7325 26.751C31.965 28.3835 31.4092 29.7648 31.0122 31.6125C24.1574 35.8282 12.1946 36.0255 5.84274 31.7201C5.76334 31.3614 5.65747 31.0205 5.55161 30.6976C3.7519 25.2262 -4.26738 14.678 5.68394 7.93287C11.2419 4.16565 16.3763 -0.0141645 18.9171 0.0217137C24.1839 0.129348 32.309 5.52902 35.432 11.0184C38.5815 16.5257 34.1617 23.6655 32.7325 26.751Z" fill="url(#paint1_linear_341_28784)"/>
</g>
</g>
<path id="Vector_3" d="M23.9728 34.0696C28.525 32.8138 27.7045 28.4546 29.6366 24.795C31.8068 20.7408 35.4856 17.44 36.2796 14.8568C37.4971 10.9102 21.9614 17.0633 19.5794 18.2293C17.0651 19.4492 20.3999 23.0549 20.7968 25.387C21.7496 30.8226 22.1731 34.5719 23.9728 34.0696Z" fill="#AFAFAC"/>
<path id="Vector_4" d="M20.5053 77.8052C17.2499 80.9625 23.5489 70.486 22.6226 56.7805C21.7227 43.075 18.9967 34.9307 20.6641 34.9845C23.3636 35.0921 24.6869 34.3566 26.963 33.6032C28.7627 33.0112 25.4545 73.0154 20.5053 77.8052Z" fill="#E4BA46"/>
<path id="Vector_5" d="M21.0608 0.398438C21.0608 0.398438 16.5351 4.99085 18.6789 8.16608C20.7962 11.3234 29.2125 4.70383 28.6831 4.11183C28.1538 3.5019 23.2046 0.75722 21.0608 0.398438Z" fill="#C1BFBD"/>
<path id="Vector_6" d="M5.10252 11.5563C2.35002 12.7762 13.2806 16.364 15.6361 17.4403C19.2884 19.1446 8.43727 10.0853 5.10252 11.5563Z" fill="#E8E9E8"/>
<path id="Vector_7" d="M29.9275 5.06227C28.4983 3.05309 25.1106 6.85618 23.2315 8.29131C20.2673 10.5337 31.6478 7.50199 29.9275 5.06227Z" fill="#E8E9E8"/>
<g id="Group_5">
<g id="Group_6">
<path id="Vector_8" d="M35.9877 11.7357C37.5757 15.198 36.5435 19.3419 34.6644 23.4859C32.5471 28.15 31.1709 29.7646 30.7739 37.1196C30.6151 41.2097 27.2009 82.8105 17.2496 85.3041C13.0414 86.2728 13.412 81.9853 13.7031 78.0925C14.55 67.06 11.5858 62.4496 9.28323 53.0316C7.45706 45.0308 6.90127 35.9177 5.02216 30.3207C2.26967 22.9656 -3.89698 14.3369 5.52502 7.91471C11.6652 3.66314 14.0472 1.92304 16.1645 0.864636C18.0436 -0.104077 18.9434 0.00355817 18.9434 0.00355817C26.0364 0.505854 33.5528 6.87424 35.9877 11.7357ZM16.2439 0.936392C14.1266 2.01274 11.7711 3.77077 5.73675 8.05822C4.17524 9.13457 2.66666 10.48 1.84621 12.1304C-1.03862 17.6736 4.4399 26.8943 5.76322 30.213C7.53646 35.1463 8.03932 44.8693 9.75963 52.9778C11.0035 58.3236 13.015 63.7951 13.8354 69.4997C15.1587 77.7876 11.7975 86.3266 17.0908 84.9991C27.5714 82.0571 29.6093 34.1776 31.065 29.8363C33.8175 21.4408 42.5514 14.3728 28.683 4.11162C26.0893 2.21007 22.7281 0.362341 18.917 0.0573755C18.917 0.0573755 18.07 -0.03232 16.2439 0.936392Z" fill="url(#paint2_linear_341_28784)"/>
</g>
</g>
</g>
</g>
<defs>
<linearGradient id="paint0_linear_341_28784" x1="5.85094" y1="58.463" x2="31.0108" y2="58.463" gradientUnits="userSpaceOnUse">
<stop stop-color="#FDFBF2"/>
<stop offset="1" stop-color="#E9B83A"/>
</linearGradient>
<linearGradient id="paint1_linear_341_28784" x1="0.796676" y1="17.4438" x2="36.5365" y2="17.4438" gradientUnits="userSpaceOnUse">
<stop stop-color="white"/>
<stop offset="0.168627" stop-color="white"/>
<stop offset="1" stop-color="#A3A3A3"/>
</linearGradient>
<linearGradient id="paint2_linear_341_28784" x1="0.48531" y1="42.7166" x2="36.7664" y2="42.7166" gradientUnits="userSpaceOnUse">
<stop stop-color="#E8E8E8"/>
<stop offset="1" stop-color="#A3A3A3"/>
</linearGradient>
</defs>
</svg>
