<svg width="33" height="74" viewBox="0 0 33 74" fill="none" xmlns="http://www.w3.org/2000/svg">
<g id="Layer_x0020_1">
<g id="_-1681177696">
<path id="Vector" fill-rule="evenodd" clip-rule="evenodd" d="M24.4478 26.7113C21.6953 28.5949 18.9428 29.3663 16.2962 29.3843C16.2697 29.3843 16.2697 29.3843 16.2697 29.3843C16.2697 29.3843 16.2697 29.3843 16.2432 29.3843C11.9822 29.3663 7.98574 27.3392 4.80979 24.5945C4.80979 24.5945 4.80979 24.5945 4.78332 24.5766C4.75686 24.5586 4.73039 24.5228 4.70392 24.5048C4.67746 24.4869 4.67746 24.469 4.65099 24.451L4.67746 24.5945C5.39205 29.6175 5.36558 37.2237 6.23897 44.6684C6.82123 49.5837 7.35055 53.7097 7.35055 57.5307C7.35055 60.2396 7.08589 62.8048 6.3713 65.406C5.78904 67.5767 4.35986 69.9984 4.35986 71.4874C4.38633 72.2588 4.75686 72.7969 5.81551 72.9225C5.86844 72.9405 5.94784 72.9405 6.00077 72.9405C7.93281 72.9405 11.6116 69.7832 15.3434 63.5224C15.4757 63.3251 15.5816 63.1457 15.6874 62.9484C19.3133 56.7055 22.9657 47.5387 25.1359 35.4656C25.1359 35.3759 25.1624 35.2683 25.1888 35.1607C25.2682 34.6225 25.3741 34.1023 25.4535 33.5641C25.4535 33.5461 25.4535 33.5282 25.4535 33.5103C25.48 33.4206 25.48 33.3309 25.5064 33.2591C25.5329 33.0439 25.5594 32.8106 25.6123 32.5954C26.1945 28.6488 26.9621 25.2224 27.7561 22.2266C26.6709 23.7334 25.5594 25.2224 24.4478 26.7113Z" fill="url(#paint0_linear_341_28800)"/>
<path id="Vector_2" fill-rule="evenodd" clip-rule="evenodd" d="M9.78602 0.0537109H9.73309C8.17158 0.0537109 6.7424 0.197224 5.52495 0.663641C1.555 2.26022 0.231689 5.14842 0.231689 8.43128C0.231689 14.1 4.0693 20.9348 4.65156 24.4509C4.67803 24.4689 4.67803 24.4868 4.70449 24.5047C4.73096 24.5227 4.75742 24.5585 4.78389 24.5765C4.81036 24.5944 4.81036 24.5944 4.81036 24.5944C7.98631 27.3391 11.9827 29.3662 16.2438 29.3842C16.2703 29.3842 16.2703 29.3842 16.2703 29.3842C16.2703 29.3842 16.2703 29.3842 16.2967 29.3842C18.9434 29.3662 21.6958 28.5949 24.4483 26.7112C26.5921 25.6349 26.6715 23.7334 27.7566 22.2265C29.9798 13.9207 32.4676 9.04121 32.4941 5.5969C32.4941 4.53849 32.2559 3.6236 31.7266 2.7984C30.3239 0.609824 26.9097 0.125467 22.8868 0.125467C22.8604 0.125467 22.8604 0.125467 22.8604 0.125467H22.8339C21.3783 0.125467 19.8432 0.179285 18.2817 0.251041C18.07 0.26898 17.8582 0.26898 17.62 0.28692C17.5142 0.28692 17.4348 0.28692 17.3289 0.304859C17.0378 0.304859 16.7731 0.304859 16.5085 0.304859H16.482C16.482 0.304859 16.4555 0.304859 16.4291 0.304859C15.5027 0.304859 14.5764 0.26898 13.6501 0.215163C13.4648 0.197224 13.2531 0.197224 13.0678 0.179285C12.5914 0.143407 12.1151 0.125467 11.6387 0.107528C11.0035 0.0716501 10.3947 0.0537109 9.78602 0.0537109Z" fill="url(#paint1_linear_341_28800)"/>
<path id="Vector_3" d="M8.72706 69.9806C4.83652 72.7791 17.2757 59.1454 16.3758 45.4399C15.4495 31.7165 18.0432 30.3531 19.34 29.6714C20.6104 28.9897 23.2571 27.6802 23.2306 28.5951C22.6483 43.951 15.3701 65.2088 8.72706 69.9806Z" fill="#E4BB47"/>
<path id="Vector_4" d="M23.4955 26.8731C25.3216 24.9536 27.5713 20.4509 27.7565 16.4684C26.592 15.7867 23.3102 17.5089 22.7279 20.5944C22.6485 27.7162 21.6428 26.8731 18.6786 29.1514C18.6786 29.1514 21.5899 28.8823 23.4955 26.8731Z" fill="#AFAFAD"/>
<path id="Vector_5" d="M3.83122 5.11255C5.12807 1.59649 8.27756 3.06749 9.46854 4.17972C10.7389 5.38164 5.94852 7.76754 14.2854 18.6207C15.8204 20.612 -0.429853 16.8089 3.83122 5.11255Z" fill="#E9EAE9"/>
<path id="Vector_6" d="M29.6618 5.11268C30.1117 1.91951 25.3213 0.520263 23.204 2.90617C22.0924 4.17984 29.6883 10.1356 18.096 18.5132C15.8199 20.1457 27.8886 18.0647 29.6618 5.11268Z" fill="#E9EAE9"/>
<path id="Vector_7" fill-rule="evenodd" clip-rule="evenodd" d="M9.54781 0L9.52134 0L9.46841 0C8.88615 0 8.30389 0.0358782 7.69517 0.107635C7.48344 0.125574 7.27171 0.161452 7.03351 0.19733C1.79318 1.07635 0.072876 4.80768 0.072876 8.9875C0.072876 11.7681 0.840398 14.728 1.81965 17.2036C3.91049 22.4598 4.20162 22.101 4.81034 29.5995C5.94839 45.2604 7.19231 52.7231 7.21877 58.1945C7.21877 61.2083 6.82178 63.6121 5.84253 66.4644C5.12794 68.4198 4.17515 70.1778 4.17515 71.4515C4.17515 71.7565 4.22808 72.0256 4.33395 72.2588C4.33395 72.2767 4.33395 72.2767 4.36041 72.2947C4.36041 72.3126 4.36041 72.3485 4.38688 72.3664C4.38688 72.3844 4.38688 72.3844 4.41335 72.4023C4.67801 72.8149 5.33967 73.066 6.02779 73.084C6.05426 73.084 6.08072 73.084 6.10719 73.084H6.13366C6.39832 73.084 6.66298 73.0481 6.90118 72.9763C6.90118 72.9584 6.92764 72.9584 6.92764 72.9584C6.95411 72.9584 6.95411 72.9405 6.98058 72.9405C6.98058 72.9405 7.00704 72.9225 7.03351 72.9225C11.5063 71.1286 19.2345 60.419 23.5485 44.6146C25.9834 35.8424 25.8775 30.3889 29.2652 18.1185C29.2652 18.0826 29.2917 18.0468 29.2917 18.0109C29.2917 17.9929 29.3181 17.975 29.3181 17.9571C29.3446 17.8315 29.3711 17.7239 29.3975 17.6162C29.3975 17.6162 29.3975 17.5983 29.424 17.5803C29.424 17.5624 29.424 17.5445 29.424 17.5265C32.4411 6.9245 37.1521 0.0896956 22.5428 0.0896956H22.5163C21.8811 0.0896956 21.2194 0.107635 20.5049 0.125574C20.4784 0.125574 20.4255 0.125574 20.399 0.125574C20.2137 0.143513 20.0549 0.143513 19.8961 0.161452C19.6844 0.161452 19.4727 0.179391 19.2874 0.179391C18.2552 0.215269 17.3554 0.233209 16.5349 0.233209C16.5084 0.233209 16.482 0.233209 16.482 0.233209C16.4555 0.233209 16.4555 0.233209 16.4555 0.233209C15.291 0.233209 14.3117 0.19733 13.4648 0.161452C13.3854 0.161452 13.3325 0.161452 13.2796 0.161452C13.0678 0.143513 12.8561 0.143513 12.6444 0.125574C12.5385 0.125574 12.4591 0.125574 12.3532 0.107635C11.2681 0.0538174 10.3947 0 9.54781 0ZM9.65367 0.0896956C10.4477 0.0896956 11.2946 0.143513 12.3003 0.179391C12.3532 0.19733 12.3797 0.19733 12.4326 0.19733C12.7502 0.215269 13.0943 0.215269 13.4648 0.233209C14.3117 0.269087 15.291 0.287026 16.4555 0.287026H16.482H16.5084C17.3289 0.287026 18.2288 0.269087 19.2345 0.251148C19.4197 0.233209 19.605 0.233209 19.8167 0.233209C20.002 0.215269 20.1873 0.215269 20.399 0.215269C20.4255 0.215269 20.4784 0.19733 20.5049 0.19733C21.193 0.179391 21.8546 0.179391 22.4634 0.179391H22.4898C39.5606 0.179391 29.9004 8.52108 25.6658 29.8148C25.6393 29.8686 25.6393 29.9225 25.6393 29.9763C25.5864 30.1736 25.5599 30.353 25.5334 30.5324C25.507 30.5862 25.507 30.658 25.4805 30.7118C20.6107 60.0064 10.5271 71.7565 6.39832 72.7073C6.21306 72.7611 6.02779 72.779 5.86899 72.779C5.76313 72.779 5.65726 72.7611 5.5514 72.7431C5.20734 72.6714 4.91621 72.474 4.75741 72.1691C4.65154 71.9538 4.59861 71.7206 4.59861 71.4515C4.59861 70.2137 5.5514 68.4019 6.21306 66.5183C7.13938 63.7198 7.48344 61.2083 7.48344 58.0331C7.48344 52.4002 6.37185 44.6863 5.49847 29.5816C4.94267 22.2624 4.96914 23.1235 2.48131 17.096C1.42266 14.5666 0.496337 11.4093 0.496337 8.50314C0.496337 4.64623 2.11078 1.2378 7.08644 0.304965C7.9863 0.143513 8.75382 0.0896956 9.60074 0.0896956C9.62721 0.0896956 9.62721 0.0896956 9.62721 0.0896956C9.65367 0.0896956 9.65367 0.0896956 9.65367 0.0896956Z" fill="url(#paint2_linear_341_28800)"/>
</g>
</g>
<defs>
<linearGradient id="paint0_linear_341_28800" x1="4.37098" y1="47.5869" x2="27.7661" y2="47.5869" gradientUnits="userSpaceOnUse">
<stop stop-color="#FEFBF3"/>
<stop offset="1" stop-color="#EAB93A"/>
</linearGradient>
<linearGradient id="paint1_linear_341_28800" x1="0.239894" y1="14.7119" x2="32.4867" y2="14.7119" gradientUnits="userSpaceOnUse">
<stop stop-color="white"/>
<stop offset="0.180392" stop-color="white"/>
<stop offset="1" stop-color="#A4A4A3"/>
</linearGradient>
<linearGradient id="paint2_linear_341_28800" x1="4.95723" y1="36.542" x2="27.7421" y2="36.542" gradientUnits="userSpaceOnUse">
<stop stop-color="#E9E9E9"/>
<stop offset="1" stop-color="#A4A4A3"/>
</linearGradient>
</defs>
</svg>
