<svg width="42" height="78" viewBox="0 0 42 78" fill="none" xmlns="http://www.w3.org/2000/svg">
<g id="Layer_x0020_1">
<g id="_458934104">
<path id="Vector" fill-rule="evenodd" clip-rule="evenodd" d="M36.8641 26.3703C36.8112 26.4421 36.7318 26.4959 36.6788 26.5497V26.5677C32.7618 30.0299 26.8069 32.075 20.9049 32.075C20.8785 32.075 20.8785 32.075 20.8785 32.075C20.852 32.075 20.852 32.075 20.852 32.075C15.9557 32.075 11.0595 30.6757 7.35418 27.5364C7.32771 27.5005 7.30125 27.4826 7.27478 27.4646C8.65103 31.2498 9.70968 35.1246 9.68321 38.838C9.68321 39.125 9.68321 39.4121 9.68321 39.6812C9.65675 40.0758 9.65675 40.4705 9.65675 40.8651C9.65675 46.8568 11.5359 54.2298 11.6682 59.6474C11.8005 65.4417 13.5208 77.4071 18.073 77.4968H18.0995C18.126 77.4968 18.126 77.4968 18.1524 77.4968H18.1789C23.3927 77.4609 25.3248 66.554 27.6803 61.0646C27.7332 60.957 27.7862 60.8314 27.8391 60.7237C27.892 60.6161 27.945 60.5085 27.9979 60.4008C27.9979 60.3829 28.0243 60.347 28.0243 60.3291C33.1588 49.8885 34.7203 47.8435 35.1438 34.4788C35.2232 31.9315 36.0966 28.9894 36.9964 26.2627C36.9435 26.2986 36.917 26.3345 36.8641 26.3703Z" fill="url(#paint0_linear_341_28809)"/>
<path id="Vector_2" fill-rule="evenodd" clip-rule="evenodd" d="M23.3133 0.161133H23.1281C12.224 0.161133 2.90783 0.842819 0.816992 5.86577C0.605262 6.33219 0.499397 6.83449 0.419998 7.37266C0.393532 7.62381 0.367065 7.91083 0.367065 8.19786C0.367065 12.7544 4.52227 19.9121 7.27477 27.4645C7.30123 27.4824 7.3277 27.5003 7.35417 27.5362C11.0594 30.6756 15.9557 32.0748 20.852 32.0748C20.852 32.0748 20.852 32.0748 20.8784 32.0748C20.8784 32.0748 20.8784 32.0748 20.9049 32.0748C26.8069 32.0748 32.7618 30.0298 36.6788 26.5675V26.5496C36.7317 26.4958 36.8111 26.4419 36.8641 26.3702C36.917 26.3343 36.9435 26.2984 36.9964 26.2626C37.6845 24.1278 38.3991 22.1186 38.7167 20.5758C40.0136 14.2254 41.4427 9.50741 41.4692 6.24249C41.4692 2.17031 39.246 0.304646 31.7296 0.232889C29.1359 0.197011 26.5158 0.161133 24.0015 0.161133H23.3133Z" fill="url(#paint1_linear_341_28809)"/>
<path id="Vector_3" d="M22.1488 72.5279C23.7897 76.2055 11.4829 72.9226 21.6724 50.9292C25.0865 43.5563 27.0186 31.9138 28.5536 31.4653C30.6709 30.8554 34.6144 28.2004 34.5879 29.0973C34.1115 42.444 17.676 62.6614 22.1488 72.5279Z" fill="#E4BB47"/>
<path id="Vector_4" d="M27.68 30.4789C28.9504 31.4296 33.582 27.9495 35.3552 24.4693C38.69 17.9035 40.0398 3.01408 38.7958 7.4271C35.6993 18.2982 29.4268 20.2715 27.2301 22.1192C25.3245 23.7338 24.6364 28.1647 27.68 30.4789Z" fill="#AFAFAD"/>
<path id="Vector_5" d="M30.0618 0.215501C28.7385 0.000231639 27.2034 0.0181708 25.6419 0.161684C24.0539 0.287258 18.5754 6.53007 20.9309 6.42244C36.149 5.65105 31.3586 0.412831 30.0618 0.215501Z" fill="#C2C0BE"/>
<path id="Vector_6" d="M10.9533 4.57422C10.3975 3.73109 8.06844 3.91048 5.92467 4.84331C3.4633 5.91966 3.17217 17.024 19.2107 21.5805C28.7121 24.2893 12.8324 19.0511 10.5033 10.53C9.60348 7.30097 12.2501 6.60134 10.9533 4.57422Z" fill="#E9EAE9"/>
<path id="Vector_7" fill-rule="evenodd" clip-rule="evenodd" d="M4.33677 2.33209C1.24022 3.65958 0.234497 5.90197 0.234497 8.37757C0.234497 10.2074 0.790289 12.1627 1.47841 13.9566C8.57138 32.1648 9.36537 34.784 9.36537 37.6004C9.36537 38.3897 9.28597 39.197 9.28597 40.381C9.28597 42.2825 9.44477 45.1348 10.2917 50.391C11.8003 59.9525 11.1915 57.5487 11.5885 61.9438C11.5885 62.0514 11.615 62.159 11.615 62.2667C11.6415 62.4999 11.6679 62.7331 11.6944 62.9484C11.6944 62.9663 11.6944 62.9842 11.6944 62.9842C11.7209 63.2533 11.7473 63.5224 11.7738 63.7736C11.8003 63.9888 11.8267 64.2041 11.8532 64.4014C11.8532 64.4373 11.8532 64.4732 11.8532 64.527C13.2824 75.9901 16.6965 77.3714 17.7552 77.5149H17.7816C17.8081 77.5329 17.861 77.5329 17.8875 77.5329C17.8875 77.5329 17.8875 77.5329 17.914 77.5329H17.9404C17.9669 77.5329 17.9669 77.5329 17.9669 77.5329C18.0463 77.5329 18.0728 77.5329 18.0728 77.5329C18.0728 77.5329 18.0992 77.5329 18.1786 77.5329C18.2051 77.5329 18.2316 77.5329 18.258 77.5329C18.5756 77.5149 19.2902 77.4432 20.0578 77.0126C20.1636 76.9409 20.2695 76.8871 20.3753 76.8153C20.4283 76.7794 20.4812 76.7436 20.5341 76.7077C20.5606 76.6718 20.6135 76.6539 20.64 76.618L20.6665 76.6C23.7101 74.2321 25.4569 67.5946 27.2566 62.6613C30.5913 54.0326 34.4554 52.3105 35.4082 37.9951C35.8846 27.4469 37.0756 29.3305 39.4575 18.9258C39.484 18.8899 39.484 18.8361 39.5105 18.7823C43.8245 0.215269 42.607 0 26.0656 0C25.8803 0 25.6951 0 25.5098 0C24.61 0 23.6572 0 22.6514 0C18.6286 0.0538174 9.76236 -0.0358782 4.33677 2.33209ZM24.2659 0.269087C29.5856 0.269087 34.0055 0.520234 35.0112 0.627869C35.0641 0.645808 35.0906 0.645808 35.1171 0.645808C39.4575 1.21986 41.0455 2.65499 41.0455 6.15312C41.0455 8.91574 40.0663 12.952 38.69 18.854C36.2816 29.2408 35.0906 27.3751 34.5613 37.9771C33.5291 52.4719 29.8767 54.3555 26.8861 62.5896C25.1128 67.6305 23.5248 74.1962 20.5871 76.5462C19.3432 77.5867 18.0728 77.4432 18.0728 77.4791C18.0728 77.4791 15.2938 77.8199 13.4147 71.2362C12.7795 69.0297 12.2502 66.016 11.9855 61.9438C11.6679 57.7101 12.2237 60.0422 10.9004 50.3551C10.1594 45.0093 10.0006 42.1211 10.0006 40.2733C10.0006 39.0176 10.08 38.2462 10.08 37.4928C10.08 35.3401 9.52417 33.4385 5.23663 21.6525C3.67512 17.7238 0.49916 12.4318 0.525626 8.21612C0.525626 5.79434 1.55781 3.74928 4.49557 2.51148C4.57497 2.4756 4.65437 2.43972 4.73377 2.42178C4.7867 2.40384 4.81317 2.3859 4.83963 2.3859C9.12717 0.699626 17.3847 0.269087 24.213 0.269087C24.2394 0.269087 24.2394 0.269087 24.2659 0.269087Z" fill="url(#paint2_linear_341_28809)"/>
</g>
</g>
<defs>
<linearGradient id="paint0_linear_341_28809" x1="7.27796" y1="51.8844" x2="36.9938" y2="51.8844" gradientUnits="userSpaceOnUse">
<stop stop-color="#FEFBF3"/>
<stop offset="1" stop-color="#EAB93A"/>
</linearGradient>
<linearGradient id="paint1_linear_341_28809" x1="0.370241" y1="16.1144" x2="41.457" y2="16.1144" gradientUnits="userSpaceOnUse">
<stop stop-color="white"/>
<stop offset="0.180392" stop-color="white"/>
<stop offset="1" stop-color="#A4A4A3"/>
</linearGradient>
<linearGradient id="paint2_linear_341_28809" x1="2.2986" y1="38.7664" x2="39.5637" y2="38.7664" gradientUnits="userSpaceOnUse">
<stop stop-color="#E9E9E9"/>
<stop offset="1" stop-color="#A4A4A3"/>
</linearGradient>
</defs>
</svg>
