<svg width="44" height="77" viewBox="0 0 44 77" fill="none" xmlns="http://www.w3.org/2000/svg">
<g id="Layer_x0020_1">
<g id="_-1972434520">
<path id="Vector" fill-rule="evenodd" clip-rule="evenodd" d="M7.30636 33.889C7.74017 47.0251 9.33984 49.0528 14.5998 59.2971C17.2297 64.4105 19.1277 76.2946 24.7943 76.1712C29.4577 76.083 31.2201 64.3223 31.3556 58.6271C31.4912 53.3021 33.4162 46.0553 33.4162 40.1661C33.4162 39.7782 33.4162 39.3903 33.4162 39.0024C33.3891 38.7379 33.3891 38.4558 33.3891 38.1737C33.362 34.5238 34.4465 30.7152 35.8564 26.9948C27.2887 34.0125 12.6476 32.3021 5.40845 25.8135C6.33029 28.4936 7.22502 31.3853 7.30636 33.889Z" fill="url(#paint0_linear_341_27795)"/>
<path id="Vector_2" fill-rule="evenodd" clip-rule="evenodd" d="M16.5247 0.158691C14.6268 0.176324 12.7289 0.211588 10.8039 0.22922C3.10379 0.299749 0.826294 2.1335 0.826294 6.13602C0.853407 9.34509 2.31751 13.9824 3.64605 20.2242C3.97141 21.7406 4.70346 23.7154 5.4084 25.8136C12.6476 32.3023 27.2886 34.0126 35.8564 26.995C38.6761 19.5718 42.9329 12.5365 42.9329 8.04031C42.9329 7.77582 42.9057 7.49371 42.8786 7.24685C42.0652 0.952142 31.8165 0.158691 19.6156 0.158691C18.5853 0.158691 17.555 0.158691 16.5247 0.158691Z" fill="url(#paint1_linear_341_27795)"/>
<path id="Vector_3" d="M26.9633 72.1161C24.3604 75.5015 31.7623 47.8189 27.2073 42.1236C21.8118 35.3881 22.354 31.8793 24.0351 31.6854C36.0461 30.2571 31.7352 65.8566 26.9633 72.1161Z" fill="#E4BB47"/>
<path id="Vector_4" fill-rule="evenodd" clip-rule="evenodd" d="M25.2283 31.1206H25.2554H25.3096H25.4452C28.9157 31.0324 33.2538 28.2289 35.9108 21.4758C37.2665 17.9846 41.6317 12.3599 41.6317 7.52865C41.6317 6.43545 41.4148 5.37751 40.8996 4.40774C39.1644 1.14578 31.7083 0.934189 30.0815 0.846028C29.2953 0.793131 28.5632 0.757867 27.9125 0.757867C27.6414 0.740234 27.3702 0.740234 27.0991 0.740234C23.5202 0.740234 22.1645 1.28683 21.9205 2.15081C21.5409 3.5085 24.0082 5.69489 24.8487 7.84603C24.8758 7.86366 24.8758 7.88129 24.8758 7.89893C24.9029 7.91656 24.9029 7.95182 24.9301 7.96945C25.1741 8.41026 25.7977 8.71001 26.4755 8.72764C26.4755 8.72764 26.5026 8.72764 26.5297 8.72764C26.5568 8.72764 26.5568 8.72764 26.5568 8.72764C26.8009 8.72764 27.0449 8.69238 27.2618 8.62185C27.2889 8.60422 27.2889 8.60422 27.316 8.60422C27.3431 8.58658 27.3702 8.58658 27.3702 8.56895C27.4245 8.55132 27.4516 8.55132 27.5058 8.53369C27.5329 8.51605 27.56 8.49842 27.6142 8.48079C27.6142 8.48079 27.6142 8.48079 27.6414 8.48079C27.6685 8.46316 27.6956 8.44553 27.7227 8.42789C28.9699 7.91656 30.2442 7.14074 31.4643 6.40018C33.2538 5.32462 34.9348 4.31958 36.4531 4.26668C36.5073 4.26668 36.5616 4.26668 36.5887 4.26668H36.6158C37.4563 4.26668 38.2426 4.58406 38.9204 5.34225C38.9475 5.35988 38.9475 5.35988 38.9475 5.37751C39.0017 5.41278 39.056 5.46568 39.0831 5.5362C39.5982 6.15333 39.8422 6.85862 39.8422 7.56391C39.8422 7.8284 39.788 8.07525 39.7338 8.33973C38.7848 12.5186 35.8024 17.7906 32.9555 19.7478C27.3702 23.574 22.3543 22.4808 22.3543 25.4077C22.3543 26.5362 23.1135 28.2642 24.8758 31.103C24.9843 31.1206 25.1198 31.1206 25.2283 31.1206Z" fill="url(#paint2_linear_341_27795)"/>
<path id="Vector_5" d="M38.6221 8.02242C38.6763 6.96448 38.6492 3.93174 35.5312 4.77808C33.0097 5.44811 35.477 8.07531 34.1485 10.2793C32.1692 13.5413 32.8742 14.4053 36.2091 12.166C37.3207 11.4254 38.5408 9.13325 38.6221 8.02242Z" fill="#D7D6D4"/>
<path id="Vector_6" d="M4.5133 2.36279C3.0763 2.36279 2.07312 10.5618 6.1943 16.2217C10.3155 21.8641 14.3011 23.3099 16.7142 23.7154C19.1543 24.121 20.4015 23.7683 21.0794 22.7457C21.8657 21.529 20.6456 19.2545 15.4399 18.1437C11.8067 17.3678 7.57707 11.796 6.79079 7.24692C6.22142 4.05549 6.43832 2.36279 4.5133 2.36279Z" fill="#E9EAE9"/>
<path id="Vector_7" fill-rule="evenodd" clip-rule="evenodd" d="M17.1753 0C16.9855 0 16.7958 0 16.606 0C-0.204131 0 -1.55978 0.193955 2.72408 18.0025C2.75119 18.0554 2.75119 18.1083 2.75119 18.1612C2.7783 18.2317 2.80542 18.3199 2.83253 18.4081C2.83253 18.4786 2.85964 18.5315 2.88676 18.602C5.32693 28.8287 6.54702 26.9773 7.03505 37.3451C8.01112 51.4156 11.9696 53.1083 15.3859 61.5894C17.2296 66.4383 19.019 72.9622 22.137 75.2897L22.1641 75.3073C22.1912 75.3249 22.2184 75.3602 22.2455 75.3778C22.2726 75.3955 22.2726 75.3955 22.2997 75.4131L22.3268 75.4307C22.3268 75.4307 22.3539 75.4307 22.3539 75.4484C22.4353 75.5013 22.5166 75.5542 22.5979 75.5894C22.5979 75.6071 22.5979 75.6071 22.5979 75.6071C22.6522 75.6423 22.7064 75.66 22.7606 75.6952C22.7877 75.6952 22.7877 75.7129 22.8148 75.7129C22.8148 75.7305 22.842 75.7305 22.842 75.7305C23.6011 76.1184 24.279 76.1889 24.6043 76.2066C24.6314 76.2066 24.6585 76.2066 24.6856 76.2066C24.767 76.2066 24.7941 76.2066 24.7941 76.2066C24.7941 76.2066 24.8483 76.2066 24.9026 76.2066C24.9026 76.2066 24.9026 76.2066 24.9297 76.2066H24.9568C24.9839 76.2066 24.9839 76.2066 24.9839 76.2066C25.011 76.2066 25.011 76.2066 25.0381 76.2066C25.0652 76.2066 25.0652 76.1889 25.0923 76.1889H25.1195C26.204 76.0479 29.7558 74.6549 31.1928 63.0705C31.2199 62.9824 31.2199 62.8942 31.2199 62.8237C31.247 62.7708 31.247 62.7355 31.247 62.6826C31.2741 62.4887 31.3012 62.3124 31.3012 62.1184C31.3283 62.0302 31.3283 61.9597 31.3283 61.8715C31.3555 61.66 31.3826 61.4307 31.4097 61.2015C31.4097 61.0957 31.4368 60.9899 31.4368 60.8841C31.8435 56.5642 31.2199 58.927 32.7653 49.529C33.633 44.3627 33.7956 41.5592 33.7956 39.6902C33.7956 38.5265 33.7414 37.7154 33.7414 36.9396C33.7414 34.1713 34.5277 31.5793 41.794 13.7179C42.4989 11.9547 43.0683 10.0327 43.0683 8.23426C43.0683 5.80101 42.038 3.59698 38.8658 2.29219C33.3076 -0.0352645 24.2247 0.0528967 20.1035 0C19.0732 0 18.0972 0 17.1753 0ZM18.5039 0.264484C25.4448 0.264484 33.8499 0.670025 38.2693 2.30982C38.3777 2.34509 38.4591 2.38035 38.5404 2.41562C38.5675 2.41562 38.5946 2.43325 38.5946 2.43325C38.6218 2.45088 38.6489 2.45088 38.7031 2.46851C41.7126 3.68514 42.7701 5.73048 42.7701 8.11083C42.7701 12.2368 39.5436 17.4383 37.9439 21.2821C33.5516 32.9018 32.9822 34.7355 32.9822 36.869C32.9822 37.5919 33.0636 38.3678 33.0636 39.602C33.0636 41.4181 32.9009 44.2569 32.1417 49.4937C30.7861 59.0151 31.3555 56.7229 31.0301 60.8841C30.6505 66.3501 29.7829 69.8766 28.8068 72.1159C26.9903 76.4005 24.7941 76.1537 24.7941 76.1537C24.7941 76.1184 23.4927 76.2595 22.2184 75.2368C19.2088 72.927 17.582 66.4736 15.7655 61.5189C12.7017 53.4257 8.96008 51.5743 7.90267 37.3275C7.36041 26.9068 6.14032 28.7406 3.67304 18.5315C2.26316 12.7305 1.25997 8.76323 1.25997 6.04786C1.25997 2.60957 2.88676 1.19899 7.3333 0.634761H7.36041C8.22803 0.528967 12.8644 0.264484 18.4496 0.264484C18.4768 0.264484 18.4768 0.264484 18.5039 0.264484Z" fill="url(#paint3_linear_341_27795)"/>
</g>
</g>
<defs>
<linearGradient id="paint0_linear_341_27795" x1="35.8534" y1="50.9964" x2="5.41252" y2="50.9964" gradientUnits="userSpaceOnUse">
<stop stop-color="#EAB93A"/>
<stop offset="1" stop-color="#FEFBF3"/>
</linearGradient>
<linearGradient id="paint1_linear_341_27795" x1="42.9293" y1="15.8389" x2="0.839039" y2="15.8389" gradientUnits="userSpaceOnUse">
<stop stop-color="#A4A4A3"/>
<stop offset="0.819608" stop-color="white"/>
<stop offset="1" stop-color="white"/>
</linearGradient>
<linearGradient id="paint2_linear_341_27795" x1="22.2768" y1="15.9304" x2="41.2353" y2="15.9304" gradientUnits="userSpaceOnUse">
<stop stop-color="#C1C0BF"/>
<stop offset="1" stop-color="#B0AFAE"/>
</linearGradient>
<linearGradient id="paint3_linear_341_27795" x1="40.9548" y1="38.1033" x2="2.77695" y2="38.1033" gradientUnits="userSpaceOnUse">
<stop stop-color="#A4A4A3"/>
<stop offset="1" stop-color="#E9E9E9"/>
</linearGradient>
</defs>
</svg>
