<svg width="37" height="70" viewBox="0 0 37 70" fill="none" xmlns="http://www.w3.org/2000/svg">
<g id="Group 302">
<g id="Group">
<path id="Vector" d="M27 18.2866C27 17.211 25.2362 16.4061 23.7566 15.9203C21.5731 15.203 18.8184 14.8081 16 14.8081C13.1816 14.8081 10.427 15.203 8.24345 15.9202C6.76385 16.406 5 17.211 5 18.2865C5 18.3483 5 20.8404 5 20.8404C5 21.7209 5.55765 22.4371 6.24308 22.4371C6.24308 22.4371 7.07238 22.4371 7.34876 22.4371C7.76312 22.4371 7.96624 22.8805 7.96624 22.8805L11.2289 30.3936C11.416 30.8245 11.5801 31.6352 11.5801 32.1285V36.2156C11.5801 36.9409 11.9557 37.4675 12.4732 37.4675H12.4733C12.6201 37.4675 12.7704 37.4251 12.9198 37.3411L19.4123 33.6919C19.9867 33.3691 20.4198 32.6076 20.4198 31.9208C20.4198 31.5382 20.5839 30.8246 20.771 30.3937L24.0787 22.7771C24.0787 22.7771 24.2443 22.4373 24.5344 22.4373C24.84 22.4373 25.7568 22.4373 25.7568 22.4373C26.4423 22.4373 26.9999 21.721 26.9999 20.8406C26.9999 20.8406 27 18.3484 27 18.2866Z" fill="#333232"/>
<path id="Vector_2" d="M19.5271 50.8457C19.3802 50.8457 19.2299 50.8882 19.0805 50.9722L12.588 54.6214C12.0231 54.9388 11.5806 55.808 11.5806 56.6001V58.6326C11.5806 59.3579 11.9561 59.8845 12.4736 59.8845C12.6204 59.8845 12.7709 59.8421 12.9203 59.758L19.4127 56.1088C19.9777 55.7913 20.4202 54.9221 20.4202 54.13V52.0975C20.4201 51.3722 20.0445 50.8457 19.5271 50.8457Z" fill="#333232"/>
<path id="Vector_3" d="M19.5271 43.3734C19.3802 43.3734 19.2299 43.4159 19.0805 43.4999L12.588 47.1491C12.0231 47.4665 11.5806 48.3357 11.5806 49.1278V51.1603C11.5806 51.8858 11.9561 52.4122 12.4736 52.4122C12.6204 52.4122 12.7709 52.3697 12.9203 52.2857L19.4127 48.6365C19.9777 48.3189 20.4202 47.4498 20.4202 46.6577V44.6252C20.4201 43.8999 20.0445 43.3734 19.5271 43.3734Z" fill="#333232"/>
<path id="Vector_4" d="M19.5271 58.3181C19.3802 58.3181 19.2299 58.3606 19.0805 58.4447L12.588 62.0939C12.0866 62.3758 11.5806 62.921 11.5806 63.5036C11.5806 63.9935 11.9432 64.6909 12.2802 65.1312L15.1239 68.8489C15.357 69.1534 15.6682 69.3212 16.0003 69.3212C16.3324 69.3212 16.6436 69.1534 16.8767 68.8488L19.7204 65.1313C20.1193 64.61 20.42 63.6655 20.42 62.9345V59.5699C20.4201 58.8446 20.0446 58.3181 19.5271 58.3181Z" fill="#333232"/>
<path id="Vector_5" d="M19.5271 35.901C19.3802 35.901 19.2299 35.9435 19.0805 36.0275L12.588 39.6767C12.0231 39.9941 11.5806 40.8633 11.5806 41.6554V43.6879C11.5806 44.4132 11.9561 44.9398 12.4736 44.9398C12.6204 44.9398 12.7709 44.8973 12.9203 44.8133L19.4127 41.164C19.9777 40.8466 20.4202 39.9774 20.4202 39.1853V37.1528C20.4201 36.4275 20.0445 35.901 19.5271 35.901Z" fill="#333232"/>
</g>
<g id="Layer_x0020_1">
<g id="_-1935199952">
<path id="Vector_6" fill-rule="evenodd" clip-rule="evenodd" d="M17.9913 0.176758H17.9642H17.9371C17.666 0.176758 17.2864 0.212022 16.8526 0.264919C14.3853 0.564667 9.66764 1.65787 5.89893 3.50925C2.23867 5.27248 -0.526864 7.75862 0.313641 10.8795C1.2626 14.3531 2.53691 16.5395 6.95634 22.1113C13.4364 23.8569 23.1157 22.8342 30.3549 21.3178C32.8222 17.9148 35.4522 15.6755 35.9944 10.809C36.0215 10.7208 36.0215 10.615 36.0215 10.5269C36.0215 8.81656 34.5032 7.10623 32.768 5.78381C31.4665 4.77877 28.3756 4.32033 27.1556 3.63268C22.1939 0.882048 24.2002 0.370712 18.0727 0.176758H17.9913Z" fill="url(#paint0_linear_910_1946)"/>
<path id="Vector_7" d="M19.8355 22.6223C22.4384 22.5871 32.3617 18.6375 28.1592 8.92209C25.936 3.80874 12.1083 2.36289 16.5548 6.22435C19.9711 9.16894 21.4623 9.18657 21.8148 12.1312C22.5468 18.0027 17.7207 22.64 19.8355 22.6223Z" fill="#C2C0BE"/>
<path id="Vector_8" d="M31.3588 16.0631C29.9218 15.3578 31.7926 12.7483 30.3557 9.39815C26.8581 1.23442 35.8596 7.79361 35.9952 10.8793C36.1307 14.106 32.3078 16.5392 31.3588 16.0631Z" fill="#A4A4A3"/>
</g>
</g>
</g>
<defs>
<linearGradient id="paint0_linear_910_1946" x1="35.306" y1="11.6056" x2="0.875695" y2="11.6056" gradientUnits="userSpaceOnUse">
<stop stop-color="#A4A4A3"/>
<stop offset="0.819608" stop-color="white"/>
<stop offset="1" stop-color="white"/>
</linearGradient>
</defs>
</svg>
