<svg width="41" height="60" viewBox="0 0 41 60" fill="none" xmlns="http://www.w3.org/2000/svg">
<g id="Group 314">
<g id="Group">
<path id="Vector" d="M39.8048 15.1907C39.8048 14.2525 36.6938 13.5504 34.084 13.1267C30.2326 12.5011 25.3737 12.1566 20.4025 12.1566C15.4312 12.1566 10.5724 12.5011 6.72098 13.1266C4.11118 13.5503 1 14.2525 1 15.1906C1 15.2445 1 17.4182 1 17.4182C1 18.1862 1.98361 18.8109 3.19262 18.8109C3.19262 18.8109 4.65539 18.8109 5.14288 18.8109C5.87375 18.8109 6.23203 19.1976 6.23203 19.1976L11.9869 25.7509C12.317 26.1267 12.6064 26.8338 12.6064 27.2641V30.829C12.6064 31.4617 13.2689 31.921 14.1816 31.921H14.1817C14.4408 31.921 14.7059 31.8839 14.9695 31.8107L26.4212 28.6277C27.4344 28.3462 28.1983 27.682 28.1983 27.0829C28.1983 26.7492 28.4877 26.1268 28.8178 25.751L34.652 19.1075C34.652 19.1075 34.9442 18.811 35.4558 18.811C35.9949 18.811 37.6121 18.811 37.6121 18.811C38.8211 18.811 39.8047 18.1863 39.8047 17.4183C39.8047 17.4183 39.8048 15.2446 39.8048 15.1907Z" fill="#333232"/>
<path id="Vector_2" d="M26.6232 43.59C26.3641 43.59 26.099 43.627 25.8355 43.7003L14.3837 46.8832C13.3873 47.1601 12.6067 47.9183 12.6067 48.6092V50.382C12.6067 51.0146 13.2692 51.474 14.1819 51.474C14.4409 51.474 14.7062 51.4369 14.9697 51.3636L26.4215 48.1806C27.418 47.9037 28.1985 47.1455 28.1985 46.4547V44.6818C28.1984 44.0492 27.5359 43.59 26.6232 43.59Z" fill="#333232"/>
<path id="Vector_3" d="M26.6232 37.0723C26.3641 37.0723 26.099 37.1093 25.8355 37.1826L14.3837 40.3655C13.3873 40.6424 12.6067 41.4006 12.6067 42.0915V43.8643C12.6067 44.497 13.2692 44.9563 14.1819 44.9563C14.4409 44.9563 14.7062 44.9191 14.9697 44.8459L26.4215 41.6629C27.418 41.3859 28.1985 40.6278 28.1985 39.937V38.1641C28.1984 37.5315 27.5359 37.0723 26.6232 37.0723Z" fill="#333232"/>
<path id="Vector_4" d="M26.6232 50.1075C26.3641 50.1075 26.099 50.1446 25.8355 50.2179L14.3837 53.4009C13.4992 53.6468 12.6067 54.1223 12.6067 54.6305C12.6067 55.0579 13.2463 55.6661 13.8407 56.0502L18.8567 59.2929C19.2677 59.5585 19.8168 59.7048 20.4025 59.7048C20.9882 59.7048 21.5372 59.5585 21.9483 59.2928L26.9642 56.0503C27.6678 55.5955 28.1983 54.7717 28.1983 54.1341V51.1994C28.1984 50.5668 27.5359 50.1075 26.6232 50.1075Z" fill="#333232"/>
<path id="Vector_5" d="M26.6232 30.5546C26.3641 30.5546 26.099 30.5916 25.8355 30.6649L14.3837 33.8478C13.3873 34.1247 12.6067 34.8829 12.6067 35.5738V37.3466C12.6067 37.9792 13.2692 38.4385 14.1819 38.4385C14.4409 38.4385 14.7062 38.4015 14.9697 38.3282L26.4215 35.1452C27.418 34.8683 28.1985 34.1101 28.1985 33.4193V31.6464C28.1984 31.0138 27.5359 30.5546 26.6232 30.5546Z" fill="#333232"/>
</g>
<g id="Layer_x0020_1">
<g id="_731997216">
<path id="Vector_6" fill-rule="evenodd" clip-rule="evenodd" d="M32.9516 0.233887H32.9251H32.8986C32.3693 0.233887 31.8135 0.341521 31.2842 0.57473C31.2048 0.610608 31.1254 0.646486 31.0195 0.682365C30.9931 0.682365 30.9666 0.700304 30.9401 0.718243C29.9079 1.1129 28.9552 1.25642 28.0553 1.25642C28.0288 1.25642 28.0288 1.25642 28.0288 1.25642C28.0024 1.25642 28.0024 1.25642 28.0024 1.25642C26.9702 1.25642 26.0174 1.05909 25.0911 0.861756C24.9587 0.825878 24.8264 0.807939 24.7205 0.77206C24.6941 0.77206 24.6676 0.77206 24.6676 0.77206C24.6412 0.754121 24.6147 0.754121 24.5882 0.754121C24.5618 0.736182 24.5353 0.736182 24.5088 0.736182C24.5088 0.718243 24.4824 0.718243 24.4559 0.718243C23.5296 0.502974 22.6297 0.305643 21.7034 0.305643C21.7034 0.305643 21.6769 0.305643 21.6505 0.305643C21.624 0.305643 21.624 0.305643 21.5975 0.305643C21.5711 0.305643 21.5446 0.305643 21.5446 0.305643C21.4123 0.305643 21.2799 0.305643 21.1476 0.323582C20.6183 0.3774 20.036 0.538852 19.4273 0.718243C17.7864 1.22054 15.9602 1.99192 14.0811 1.99192C13.393 1.99192 12.7049 1.90222 12.0167 1.63314C10.4288 1.04115 8.84078 0.359461 7.27927 0.359461C5.53249 0.359461 3.78572 1.22054 1.98601 4.03698C1.88015 4.18049 1.80075 4.34195 1.69488 4.48546C1.69488 4.5034 1.69488 4.52134 1.66842 4.53928C0.450967 6.62021 -0.0254259 9.14963 0.00104042 11.7867C0.00104042 13.7062 0.239237 15.6795 0.636231 17.5451C6.24708 14.7108 13.6841 13.2397 20.8829 13.2397H20.9094H20.9359C27.8171 13.2397 34.4601 14.5852 39.0917 17.3657C39.1447 17.4016 39.1711 17.4196 39.2241 17.4375C39.3035 17.4913 39.3829 17.5451 39.4887 17.6169C39.4887 17.581 39.5152 17.5631 39.5152 17.5272C39.5152 17.5093 39.5417 17.4913 39.5417 17.4554C39.8328 16.7379 40.071 16.0383 40.2563 15.3207C40.2563 15.3207 40.2563 15.3207 40.2563 15.3027C40.2563 15.3027 40.2563 15.2848 40.2563 15.2669C40.2563 15.2669 40.2827 15.2669 40.2827 15.2489C40.2827 15.231 40.2827 15.1951 40.2827 15.1772V15.1592C40.3092 15.1413 40.3092 15.1054 40.3092 15.0695C40.3357 15.0337 40.3357 14.9978 40.3357 14.9619C41.4208 10.1722 39.9651 5.56181 37.6361 2.81712V2.79918C37.6361 2.79918 37.6361 2.79918 37.6096 2.79918C37.6096 2.78124 37.6096 2.78124 37.6096 2.78124C36.5245 1.5255 35.2806 0.664426 33.9837 0.359461C33.9837 0.359461 33.9837 0.359461 33.9573 0.359461C33.6397 0.269765 33.2956 0.233887 32.9516 0.233887Z" fill="url(#paint0_linear_910_1959)"/>
<path id="Vector_7" d="M24.0327 0.933862C24.0327 0.933862 28.9819 1.95639 31.6021 0.539201C32.4225 0.0907233 36.0484 0.682714 34.4604 2.06403C32.6872 3.60679 25.012 2.04609 24.0327 0.933862Z" fill="#F4F4F5"/>
<path id="Vector_8" fill-rule="evenodd" clip-rule="evenodd" d="M6.06209 1.79429C7.38541 3.55233 15.3518 2.87064 16.6486 1.91987C16.6486 1.91987 12.8375 2.15307 9.34391 0.700005C9.21158 0.646188 9.05278 0.592371 8.86752 0.556492C8.52346 0.502675 8.12646 0.466797 7.72947 0.466797C6.53849 0.466797 5.32104 0.789701 6.06209 1.79429Z" fill="url(#paint1_linear_910_1959)"/>
</g>
</g>
</g>
<defs>
<linearGradient id="paint0_linear_910_1959" x1="0.804027" y1="8.92055" x2="39.8863" y2="8.92055" gradientUnits="userSpaceOnUse">
<stop stop-color="white"/>
<stop offset="0.180392" stop-color="white"/>
<stop offset="1" stop-color="#A4A4A3"/>
</linearGradient>
<linearGradient id="paint1_linear_910_1959" x1="6.27488" y1="1.67446" x2="16.2093" y2="1.67446" gradientUnits="userSpaceOnUse">
<stop stop-color="#C1C0BF"/>
<stop offset="0.321569" stop-color="#C1C0BF"/>
<stop offset="1" stop-color="#A4A4A3"/>
</linearGradient>
</defs>
</svg>
