<svg width="43" height="65" viewBox="0 0 43 65" fill="none" xmlns="http://www.w3.org/2000/svg">
<g id="Group 301">
<g id="Group">
<path id="Vector" d="M39 13.9654C39 12.8899 36.2742 12.0849 33.9875 11.5991C30.613 10.8819 26.3558 10.4869 22.0001 10.4869C17.6444 10.4869 13.3871 10.8819 10.0126 11.599C7.72595 12.0848 5 12.8899 5 13.9653C5 14.0271 5 16.5193 5 16.5193C5 17.3997 5.86182 18.116 6.92113 18.116C6.92113 18.116 8.20278 18.116 8.62991 18.116C9.27028 18.116 9.5842 18.5593 9.5842 18.5593L14.6265 26.0724C14.9157 26.5033 15.1693 27.314 15.1693 27.8073V31.8944C15.1693 32.6198 15.7497 33.1464 16.5494 33.1464H16.5496C16.7765 33.1464 17.0088 33.1039 17.2398 33.0199L27.2736 29.3707C28.1613 29.048 28.8306 28.2864 28.8306 27.5996C28.8306 27.2171 29.0842 26.5035 29.3734 26.0726L34.4852 18.456C34.4852 18.456 34.7412 18.1161 35.1895 18.1161C35.6619 18.1161 37.0787 18.1161 37.0787 18.1161C38.1381 18.1161 38.9999 17.3998 38.9999 16.5194C38.9999 16.5194 39 14.0273 39 13.9654Z" fill="#333232"/>
<path id="Vector_2" d="M27.4512 46.5245C27.2241 46.5245 26.9919 46.567 26.761 46.651L16.7272 50.3002C15.8541 50.6176 15.1702 51.4869 15.1702 52.2789V54.3114C15.1702 55.0368 15.7506 55.5634 16.5503 55.5634C16.7773 55.5634 17.0097 55.5209 17.2406 55.4368L27.2744 51.7876C28.1475 51.4702 28.8314 50.6009 28.8314 49.8088V47.7764C28.8313 47.051 28.2509 46.5245 27.4512 46.5245Z" fill="#333232"/>
<path id="Vector_3" d="M27.4512 39.0522C27.2241 39.0522 26.9919 39.0947 26.761 39.1787L16.7272 42.8279C15.8541 43.1453 15.1702 44.0146 15.1702 44.8067V46.8391C15.1702 47.5646 15.7506 48.0911 16.5503 48.0911C16.7773 48.0911 17.0097 48.0485 17.2406 47.9645L27.2744 44.3153C28.1475 43.9978 28.8314 43.1286 28.8314 42.3366V40.3041C28.8313 39.5787 28.2509 39.0522 27.4512 39.0522Z" fill="#333232"/>
<path id="Vector_4" d="M27.4512 53.9969C27.2241 53.9969 26.9919 54.0394 26.761 54.1235L16.7272 57.7727C15.9522 58.0546 15.1702 58.5998 15.1702 59.1824C15.1702 59.6724 15.7306 60.3697 16.2514 60.8101L20.6463 64.5277C21.0064 64.8323 21.4875 65 22.0007 65C22.5139 65 22.9949 64.8323 23.3551 64.5276L27.75 60.8102C28.3664 60.2888 28.8312 59.3443 28.8312 58.6133V55.2488C28.8313 54.5234 28.2509 53.9969 27.4512 53.9969Z" fill="#333232"/>
<path id="Vector_5" d="M27.4512 31.5798C27.2241 31.5798 26.9919 31.6223 26.761 31.7063L16.7272 35.3555C15.8541 35.6729 15.1702 36.5422 15.1702 37.3342V39.3667C15.1702 40.0921 15.7506 40.6187 16.5503 40.6187C16.7773 40.6187 17.0097 40.5762 17.2406 40.4921L27.2744 36.8429C28.1475 36.5255 28.8314 35.6562 28.8314 34.8641V32.8316C28.8313 32.1063 28.2509 31.5798 27.4512 31.5798Z" fill="#333232"/>
</g>
<g id="Layer_x0020_1">
<g id="_-1936591592">
<path id="Vector_6" fill-rule="evenodd" clip-rule="evenodd" d="M25.9123 1.29964C25.4514 1.37017 25.0176 1.47596 24.5837 1.58176C23.3365 1.86387 22.0893 2.14599 19.6492 2.11072C14.4706 2.02256 12.898 0.541453 8.80395 1.28201C3.89648 2.18125 1.4292 5.39032 0.968275 9.35758C0.941162 9.56916 0.941162 9.78075 0.941162 9.99234C0.941162 12.5137 2.62217 14.9646 4.52009 17.4331C14.3079 14.7001 31.8229 13.4483 37.0015 19.743C38.3301 18.0679 39.9026 17.1158 41.0956 14.2946C41.7192 12.7959 42.6953 10.5742 42.6953 8.35254C42.6681 4.91425 40.3093 1.52886 30.7113 1.07042C30.5486 1.07042 30.3859 1.05279 30.2504 1.05279C29.8708 1.03516 29.4912 1.03516 29.1658 1.03516C27.756 1.03516 26.7528 1.14095 25.9123 1.29964Z" fill="url(#paint0_linear_910_1945)"/>
<path id="Vector_7" d="M35.6461 6.8187C35.2936 5.37286 32.7721 2.12852 35.0767 1.93457C38.3845 1.65245 40.2824 5.49628 38.981 9.09326C37.7067 12.7431 32.2841 16.3225 29.9523 16.0404C27.0241 15.6701 37.0017 12.0731 35.6461 6.8187Z" fill="#A4A4A3"/>
<path id="Vector_8" d="M11.1082 0.982422C13.9008 1.54665 13.8737 2.14615 15.6903 3.36277C25.0171 9.58696 25.0985 2.69275 22.4685 1.91693C19.6488 2.11089 16.585 1.8993 11.1082 0.982422Z" fill="#C2C0BE"/>
<path id="Vector_9" d="M33.2329 2.2697C36.2695 1.03544 22.6317 0.823856 23.4993 2.05811C25.1532 4.49136 23.2553 8.21177 25.1803 8.37046C28.6779 8.6702 29.3828 3.82134 33.2329 2.2697Z" fill="#E9EAE9"/>
<path id="Vector_10" d="M16.829 15.37C16.829 15.37 21.628 15.1937 26.915 15.5111C31.4158 15.7755 23.4175 14.2063 22.6854 11.2441C21.9534 8.28184 20.3537 11.3146 19.1878 13.0249C18.022 14.7352 14.3888 14.7176 16.829 15.37Z" fill="#C2C0BE"/>
</g>
</g>
</g>
<defs>
<linearGradient id="paint0_linear_910_1945" x1="41.7154" y1="11.7131" x2="2.46886" y2="5.53187" gradientUnits="userSpaceOnUse">
<stop stop-color="#A4A4A3"/>
<stop offset="0.819608" stop-color="white"/>
<stop offset="1" stop-color="white"/>
</linearGradient>
</defs>
</svg>
