<svg width="38" height="74" viewBox="0 0 38 74" fill="none" xmlns="http://www.w3.org/2000/svg">
<g id="Group 315">
<path id="Vector" d="M23.8886 55C23.7058 55 23.5188 55.0423 23.3329 55.1259L15.2537 58.7595C14.5507 59.0755 14 59.941 14 60.7297V62.7535C14 63.4757 14.4674 64 15.1113 64C15.294 64 15.4812 63.9577 15.6671 63.874L23.7463 60.2404C24.4493 59.9244 25 59.0589 25 58.2702V56.2464C24.9999 55.5242 24.5325 55 23.8886 55Z" fill="#333232"/>
<path id="Vector_2" d="M23.8886 47C23.7058 47 23.5188 47.047 23.3329 47.1399L15.2537 51.1772C14.5507 51.5283 14 52.49 14 53.3663V55.615C14 56.4175 14.4674 57 15.1113 57C15.294 57 15.4812 56.9529 15.6671 56.86L23.7463 52.8227C24.4493 52.4714 25 51.5099 25 50.6336V48.3849C24.9999 47.5825 24.5325 47 23.8886 47Z" fill="#333232"/>
<path id="Vector_3" d="M23.8888 63C23.706 63 23.519 63.0425 23.333 63.1265L15.2537 66.7747C14.6297 67.0565 14 67.6016 14 68.184C14 68.6738 14.4513 69.371 14.8706 69.8112L18.4094 73.5278C18.6994 73.8323 19.0868 74 19.5 74C19.9132 74 20.3006 73.8323 20.5906 73.5277L24.1294 69.8113C24.6257 69.2901 25 68.3459 25 67.6151V64.2515C25.0001 63.5263 24.5327 63 23.8888 63Z" fill="#333232"/>
<path id="Vector_4" d="M23.8886 40C23.7058 40 23.5188 40.0423 23.3329 40.1259L15.2537 43.7594C14.5507 44.0755 14 44.941 14 45.7297V47.7535C14 48.4757 14.4674 49 15.1113 49C15.294 49 15.4812 48.9577 15.6671 48.874L23.7463 45.2404C24.4493 44.9244 25 44.0589 25 43.2702V41.2464C24.9999 40.5242 24.5325 40 23.8886 40Z" fill="#333232"/>
<path id="Vector_5" d="M33 21.5307C33 20.439 30.8354 19.622 29.0195 19.1289C26.3397 18.4009 22.959 18 19.5001 18C16.0411 18 12.6604 18.4009 9.9806 19.1288C8.16473 19.6219 6 20.439 6 21.5306C6 21.5934 6 24.123 6 24.123C6 25.0167 6.68439 25.7437 7.5256 25.7437C7.5256 25.7437 8.54338 25.7437 8.88257 25.7437C9.39111 25.7437 9.64039 26.1937 9.64039 26.1937L13.6446 33.8198C13.8742 34.2571 14.0756 35.08 14.0756 35.5807L14.0756 39.7293C14.0756 40.4655 14.5366 41 15.1716 41H15.1717C15.3519 41 15.5364 40.9569 15.7198 40.8716L23.6878 37.1676C24.3928 36.84 24.9243 36.067 24.9243 35.3699C24.9243 34.9816 25.1257 34.2572 25.3553 33.8199L29.4147 26.0888C29.4147 26.0888 29.618 25.7438 29.974 25.7438C30.3491 25.7438 31.4743 25.7438 31.4743 25.7438C32.3155 25.7438 32.9999 25.0168 32.9999 24.1231C32.9999 24.1231 33 21.5935 33 21.5307Z" fill="#333232"/>
<path id="Vector_6" fill-rule="evenodd" clip-rule="evenodd" d="M0.724365 11.7035C0.724365 15.4402 5.71135 19.7232 7.0394 24.0063C13.6797 25.857 24.1957 24.4293 31.6491 22.8254C34.1968 19.1945 37.4762 16.815 37.4762 11.633C37.4762 6.66251 26.4724 0.0175781 19.1545 0.0175781C13.7881 0.0175781 0.724365 6.3805 0.724365 11.7035Z" fill="url(#paint0_linear_912_1960)"/>
<path id="Vector_7" d="M29.9419 19.9351C26.5811 23.3369 20.9165 25.3639 20.5913 23.6894C19.8866 19.988 16.309 11.9154 19.1006 6.53949C19.995 4.81216 21.6212 6.50424 23.9521 7.17402C26.9334 8.03768 30.1587 8.54883 29.9419 12.4089C29.6166 17.5556 31.4325 18.4017 29.9419 19.9351Z" fill="#C2C0BE"/>
<path id="Vector_8" d="M16.5528 22.4908C15.3874 21.3804 10.7256 18.4369 10.4817 9.4477C10.4817 8.65454 13.6528 6.01067 13.707 10.8401C13.8425 19.3534 18.3145 24.1476 16.5528 22.4908Z" fill="white"/>
<path id="Vector_9" d="M24.1139 0.775427C22.4064 0.546291 24.2223 4.0362 22.569 4.988C20.9157 5.93979 25.7672 6.89158 26.8513 5.11138C27.9625 3.29592 30.1579 3.43692 30.1579 3.43692C30.1579 3.43692 25.6588 0.986937 24.1139 0.775427Z" fill="#AFAFAD"/>
<path id="Vector_10" d="M15.3057 0.758341C16.715 0.670212 15.3057 2.29179 14.5197 2.71481C13.7337 3.13783 10.7795 2.62668 9.58691 3.08495C9.58691 3.08495 13.6524 0.881722 15.3057 0.758341Z" fill="#E9EAE9"/>
</g>
<defs>
<linearGradient id="paint0_linear_912_1960" x1="37.4649" y1="12.4533" x2="0.721115" y2="12.4533" gradientUnits="userSpaceOnUse">
<stop stop-color="#A4A4A3"/>
<stop offset="0.819608" stop-color="white"/>
<stop offset="1" stop-color="white"/>
</linearGradient>
</defs>
</svg>
