<svg width="38" height="80" viewBox="0 0 38 80" fill="none" xmlns="http://www.w3.org/2000/svg">
<g id="Group 304">
<g id="Group">
<path id="Vector" d="M32 28.2866C32 27.211 29.8354 26.4061 28.0195 25.9203C25.3397 25.203 21.959 24.8081 18.5001 24.8081C15.0411 24.8081 11.6604 25.203 8.9806 25.9202C7.16473 26.406 5 27.211 5 28.2865C5 28.3483 5 30.8404 5 30.8404C5 31.7209 5.68439 32.4371 6.5256 32.4371C6.5256 32.4371 7.54338 32.4371 7.88257 32.4371C8.39111 32.4371 8.64039 32.8805 8.64039 32.8805L12.6446 40.3936C12.8742 40.8245 13.0756 41.6352 13.0756 42.1285V46.2156C13.0756 46.9409 13.5366 47.4675 14.1716 47.4675H14.1717C14.3519 47.4675 14.5364 47.4251 14.7198 47.3411L22.6878 43.6919C23.3928 43.3691 23.9243 42.6076 23.9243 41.9208C23.9243 41.5382 24.1257 40.8246 24.3553 40.3937L28.4147 32.7771C28.4147 32.7771 28.618 32.4373 28.974 32.4373C29.3491 32.4373 30.4743 32.4373 30.4743 32.4373C31.3155 32.4373 31.9999 31.721 31.9999 30.8406C31.9999 30.8406 32 28.3484 32 28.2866Z" fill="#333232"/>
<path id="Vector_2" d="M22.8285 60.8457C22.6482 60.8457 22.4638 60.8882 22.2804 60.9722L14.3124 64.6214C13.619 64.9388 13.0759 65.808 13.0759 66.6001V68.6326C13.0759 69.3579 13.5369 69.8845 14.1719 69.8845C14.3521 69.8845 14.5367 69.8421 14.7201 69.758L22.6881 66.1088C23.3815 65.7913 23.9246 64.9221 23.9246 64.13V62.0975C23.9245 61.3722 23.4635 60.8457 22.8285 60.8457Z" fill="#333232"/>
<path id="Vector_3" d="M22.8285 53.3734C22.6482 53.3734 22.4638 53.4159 22.2804 53.4999L14.3124 57.1491C13.619 57.4665 13.0759 58.3357 13.0759 59.1278V61.1603C13.0759 61.8858 13.5369 62.4122 14.1719 62.4122C14.3521 62.4122 14.5367 62.3697 14.7201 62.2857L22.6881 58.6365C23.3815 58.3189 23.9246 57.4498 23.9246 56.6577V54.6252C23.9245 53.8999 23.4635 53.3734 22.8285 53.3734Z" fill="#333232"/>
<path id="Vector_4" d="M22.8285 68.3181C22.6482 68.3181 22.4638 68.3606 22.2804 68.4447L14.3124 72.0939C13.6969 72.3758 13.0759 72.921 13.0759 73.5036C13.0759 73.9935 13.521 74.6909 13.9345 75.1312L17.4246 78.8489C17.7106 79.1534 18.0926 79.3212 18.5002 79.3212C18.9077 79.3212 19.2897 79.1534 19.5757 78.8488L23.0658 75.1313C23.5553 74.61 23.9244 73.6655 23.9244 72.9345V69.5699C23.9245 68.8446 23.4635 68.3181 22.8285 68.3181Z" fill="#333232"/>
<path id="Vector_5" d="M22.8285 45.901C22.6482 45.901 22.4638 45.9435 22.2804 46.0275L14.3124 49.6767C13.619 49.9941 13.0759 50.8633 13.0759 51.6554V53.6879C13.0759 54.4132 13.5369 54.9398 14.1719 54.9398C14.3521 54.9398 14.5367 54.8973 14.7201 54.8133L22.6881 51.164C23.3815 50.8466 23.9246 49.9774 23.9246 49.1853V47.1528C23.9245 46.4275 23.4635 45.901 22.8285 45.901Z" fill="#333232"/>
</g>
<g id="Layer_x0020_1">
<g id="_-1939511784">
<path id="Vector_6" fill-rule="evenodd" clip-rule="evenodd" d="M18.4923 0C13.0969 0.105793 4.77315 5.4131 1.57381 10.8086C0.760415 12.1663 0.435059 13.6121 0.435059 15.0756C0.435059 19.4836 3.25482 23.9975 4.33934 26.272C5.12562 27.8766 5.69499 29.2343 6.10169 31.0504C13.124 35.194 25.3791 35.3879 31.8862 31.1562C31.9675 30.8035 32.076 30.4685 32.1844 30.1511C33.3503 26.7657 37.0377 21.3879 37.0648 16.204C37.0648 13.1889 35.7905 10.2267 32.0489 7.77582C31.9133 7.68766 31.7777 7.5995 31.6422 7.51134C31.5066 7.42318 31.371 7.35265 31.2355 7.26449C31.1813 7.21159 31.127 7.17632 31.0457 7.12343C26.2467 3.93199 21.8273 0.617129 19.2244 0.0881612C18.9804 0.0352645 18.7364 0 18.5195 0C18.5195 0 18.5195 0 18.4923 0Z" fill="url(#paint0_linear_910_1948)"/>
<path id="Vector_7" d="M21.637 34.0128C26.6529 33.7131 30.5843 30.6275 32.1569 26.3252C33.4854 22.6224 30.9639 13.3655 30.5843 16.8038C29.798 23.7685 17.5701 34.2597 21.637 34.0128Z" fill="#AFAFAD"/>
<path id="Vector_8" d="M13.2592 1.25212C13.2592 1.25212 14.8318 1.05817 16.2417 1.30502C19.8206 1.90451 16.7026 4.37303 15.1029 4.53172C12.4458 4.7962 8.8398 4.2496 6.42673 5.85414C3.98656 7.49394 5.83025 5.97756 5.83025 5.97756C5.83025 5.97756 10.087 2.34532 13.2592 1.25212Z" fill="white"/>
<path id="Vector_9" d="M34.8683 15.305C38.9082 15.9045 24.24 7.84655 18.7361 8.99265C16.4586 9.46872 19.5495 16.0455 22.0981 16.0455C25.9481 16.0455 21.7998 12.8717 25.0263 12.8717C25.8668 12.8717 30.3947 14.6526 34.8683 15.305Z" fill="#AFAFAD"/>
<path id="Vector_10" d="M6.10181 9.92676C12.5547 13.3827 13.097 17.6849 15.8083 18.0552C18.5196 18.4255 19.1703 17.3499 17.2995 16.1157C15.4016 14.8814 9.49094 10.4205 6.10181 9.92676Z" fill="#C2C0BE"/>
</g>
</g>
</g>
<defs>
<linearGradient id="paint0_linear_910_1948" x1="37.0556" y1="17.1244" x2="0.441566" y2="17.1244" gradientUnits="userSpaceOnUse">
<stop stop-color="#A4A4A3"/>
<stop offset="0.819608" stop-color="white"/>
<stop offset="1" stop-color="white"/>
</linearGradient>
</defs>
</svg>
