<svg width="34" height="76" viewBox="0 0 34 76" fill="none" xmlns="http://www.w3.org/2000/svg">
<g id="Group 305">
<g id="Group">
<path id="Vector" d="M29 24.9472C29 23.8717 27.1561 23.0667 25.6092 22.5809C23.3264 21.8637 20.4466 21.4688 17.5 21.4688C14.5535 21.4688 11.6736 21.8637 9.39088 22.5808C7.84403 23.0666 6 23.8717 6 24.9471C6 25.009 6 27.5011 6 27.5011C6 28.3815 6.58299 29.0978 7.29959 29.0978C7.29959 29.0978 8.16658 29.0978 8.45553 29.0978C8.88872 29.0978 9.10107 29.5411 9.10107 29.5411L12.5121 37.0543C12.7077 37.4852 12.8792 38.2959 12.8792 38.7891V42.8763C12.8792 43.6016 13.2719 44.1282 13.8129 44.1282H13.8129C13.9665 44.1282 14.1236 44.0857 14.2798 44.0017L21.0674 40.3525C21.6679 40.0298 22.1207 39.2682 22.1207 38.5815C22.1207 38.1989 22.2922 37.4853 22.4879 37.0544L25.9459 29.4378C25.9459 29.4378 26.1191 29.0979 26.4223 29.0979C26.7418 29.0979 27.7003 29.0979 27.7003 29.0979C28.4169 29.0979 28.9999 28.3816 28.9999 27.5012C28.9999 27.5012 29 25.0091 29 24.9472Z" fill="#333232"/>
<path id="Vector_2" d="M21.1871 57.5063C21.0335 57.5063 20.8764 57.5488 20.7202 57.6328L13.9327 61.282C13.342 61.5994 12.8794 62.4687 12.8794 63.2608V65.2933C12.8794 66.0186 13.272 66.5452 13.813 66.5452C13.9665 66.5452 14.1238 66.5027 14.28 66.4186L21.0676 62.7694C21.6582 62.452 22.1208 61.5827 22.1208 60.7907V58.7582C22.1208 58.0328 21.7281 57.5063 21.1871 57.5063Z" fill="#333232"/>
<path id="Vector_3" d="M21.1871 50.0341C21.0335 50.0341 20.8764 50.0765 20.7202 50.1605L13.9327 53.8097C13.342 54.1271 12.8794 54.9964 12.8794 55.7885V57.821C12.8794 58.5464 13.272 59.0729 13.813 59.0729C13.9665 59.0729 14.1238 59.0303 14.28 58.9463L21.0676 55.2971C21.6582 54.9796 22.1208 54.1104 22.1208 53.3184V51.2859C22.1208 50.5605 21.7281 50.0341 21.1871 50.0341Z" fill="#333232"/>
<path id="Vector_4" d="M21.1871 64.9788C21.0335 64.9788 20.8764 65.0212 20.7202 65.1053L13.9327 68.7545C13.4084 69.0364 12.8794 69.5816 12.8794 70.1642C12.8794 70.6542 13.2585 71.3515 13.6108 71.7919L16.5838 75.5095C16.8275 75.8141 17.1529 75.9818 17.5 75.9818C17.8472 75.9818 18.1726 75.8141 18.4162 75.5094L21.3893 71.792C21.8063 71.2706 22.1207 70.3261 22.1207 69.5951V66.2306C22.1208 65.5052 21.7281 64.9788 21.1871 64.9788Z" fill="#333232"/>
<path id="Vector_5" d="M21.1871 42.5616C21.0335 42.5616 20.8764 42.6041 20.7202 42.6881L13.9327 46.3373C13.342 46.6547 12.8794 47.524 12.8794 48.3161V50.3485C12.8794 51.0739 13.272 51.6005 13.813 51.6005C13.9665 51.6005 14.1238 51.558 14.28 51.4739L21.0676 47.8247C21.6582 47.5073 22.1208 46.638 22.1208 45.846V43.8135C22.1208 43.0881 21.7281 42.5616 21.1871 42.5616Z" fill="#333232"/>
</g>
<g id="Layer_x0020_1">
<g id="_-1972419016">
<path id="Vector_6" fill-rule="evenodd" clip-rule="evenodd" d="M20.8544 1.1059C19.2276 1.2117 17.6008 1.29986 16.0554 1.22933C9.79229 0.947212 3.66474 0.629831 1.60415 3.786C1.06189 4.64998 0.817871 5.58449 0.817871 6.66006C0.844984 10.1689 3.39361 15.1764 5.67111 23.6752C6.78274 25.1915 6.86408 27.1487 9.06024 28.2596C16.5434 33.32 24.0538 30.5694 29.3408 25.9497C29.9373 22.3351 33.8145 15.1764 33.8145 9.35779C33.8145 6.0253 32.5401 3.15124 28.6901 1.5996C28.2834 1.42328 27.8767 1.29986 27.4158 1.2117C26.4939 1.01774 25.4907 0.964844 24.4062 0.964844C23.2675 0.964844 22.0745 1.03537 20.8544 1.1059Z" fill="url(#paint0_linear_910_1949)"/>
<path id="Vector_7" d="M26.0061 27.836C28.0938 26.1433 30.4798 21.1181 30.0189 18.5086C29.3681 14.7353 24.0269 14.8587 24.7318 20.9242C25.0843 23.904 24.1082 27.836 21.0444 30.1635C21.0444 30.1635 23.6744 29.7227 26.0061 27.836Z" fill="#AFAFAD"/>
<path id="Vector_8" d="M15.4042 1.31767C8.86992 0.876867 8.59879 1.81138 15.3499 6.78367C17.8172 8.61742 16.5158 1.3882 15.4042 1.31767Z" fill="white"/>
<path id="Vector_9" d="M29.6934 2.51647C28.8529 2.05803 27.8226 1.4938 27.2261 2.0404C26.1958 2.99254 27.7412 12.6374 17.845 18.5089C28.7715 16.4283 32.2149 3.90942 29.6934 2.51647Z" fill="#E9EAE9"/>
<path id="Vector_10" d="M5.80665 2.5163C6.15912 1.82864 7.67745 1.49363 8.27394 2.04023C8.95177 2.65736 8.24683 6.36013 10.6057 10.9092C11.8529 13.3425 19.6072 17.1687 16.6519 18.0679C12.2867 18.5969 9.68382 13.9244 8.76197 10.1511C7.86724 6.43066 5.12883 3.78582 5.80665 2.5163Z" fill="#E9EAE9"/>
</g>
</g>
</g>
<defs>
<linearGradient id="paint0_linear_910_1949" x1="33.8104" y1="15.9667" x2="0.830613" y2="15.9667" gradientUnits="userSpaceOnUse">
<stop stop-color="#A4A4A3"/>
<stop offset="0.819608" stop-color="white"/>
<stop offset="1" stop-color="white"/>
</linearGradient>
</defs>
</svg>
