<svg width="43" height="65" viewBox="0 0 43 65" fill="none" xmlns="http://www.w3.org/2000/svg">
<g id="Group 299">
<g id="Group">
<path id="Vector" d="M42 13.9654C42 12.8899 38.8733 12.0849 36.2504 11.5991C32.3796 10.8819 27.4963 10.4869 22.5001 10.4869C17.5038 10.4869 12.6205 10.8819 8.74976 11.599C6.12683 12.0848 3 12.8899 3 13.9653C3 14.0271 3 16.5193 3 16.5193C3 17.3997 3.98856 18.116 5.20365 18.116C5.20365 18.116 6.67377 18.116 7.16372 18.116C7.89827 18.116 8.25834 18.5593 8.25834 18.5593L14.0422 26.0724C14.3739 26.5033 14.6648 27.314 14.6648 27.8073V31.8944C14.6648 32.6198 15.3306 33.1464 16.2479 33.1464H16.248C16.5084 33.1464 16.7749 33.1039 17.0397 33.0199L28.5491 29.3707C29.5673 29.048 30.3351 28.2864 30.3351 27.5996C30.3351 27.2171 30.6259 26.5035 30.9577 26.0726L36.8213 18.456C36.8213 18.456 37.115 18.1161 37.6291 18.1161C38.1709 18.1161 39.7962 18.1161 39.7962 18.1161C41.0113 18.1161 41.9999 17.3998 41.9999 16.5194C41.9999 16.5194 42 14.0273 42 13.9654Z" fill="#333232"/>
<path id="Vector_2" d="M28.753 46.5245C28.4926 46.5245 28.2262 46.567 27.9613 46.651L16.452 50.3002C15.4505 50.6176 14.666 51.4869 14.666 52.2789V54.3114C14.666 55.0368 15.3318 55.5634 16.2491 55.5634C16.5094 55.5634 16.7761 55.5209 17.041 55.4368L28.5503 51.7876C29.5518 51.4702 30.3363 50.6009 30.3363 49.8088V47.7764C30.3361 47.051 29.6703 46.5245 28.753 46.5245Z" fill="#333232"/>
<path id="Vector_3" d="M28.753 39.0522C28.4926 39.0522 28.2262 39.0947 27.9613 39.1787L16.452 42.8279C15.4505 43.1453 14.666 44.0146 14.666 44.8067V46.8391C14.666 47.5646 15.3318 48.0911 16.2491 48.0911C16.5094 48.0911 16.7761 48.0485 17.041 47.9645L28.5503 44.3153C29.5518 43.9978 30.3363 43.1286 30.3363 42.3366V40.3041C30.3361 39.5787 29.6703 39.0522 28.753 39.0522Z" fill="#333232"/>
<path id="Vector_4" d="M28.7531 53.9969C28.4926 53.9969 28.2262 54.0394 27.9614 54.1235L16.452 57.7727C15.563 58.0546 14.666 58.5998 14.666 59.1824C14.666 59.6724 15.3089 60.3697 15.9062 60.8101L20.9474 64.5277C21.3605 64.8323 21.9123 65 22.501 65C23.0897 65 23.6415 64.8323 24.0546 64.5276L29.0958 60.8102C29.8029 60.2888 30.336 59.3443 30.336 58.6133V55.2488C30.3362 54.5234 29.6704 53.9969 28.7531 53.9969Z" fill="#333232"/>
<path id="Vector_5" d="M28.753 31.5798C28.4926 31.5798 28.2262 31.6223 27.9613 31.7063L16.452 35.3555C15.4505 35.6729 14.666 36.5422 14.666 37.3342V39.3667C14.666 40.0921 15.3318 40.6187 16.2491 40.6187C16.5094 40.6187 16.7761 40.5762 17.041 40.4921L28.5503 36.8429C29.5518 36.5255 30.3363 35.6562 30.3363 34.8641V32.8316C30.3361 32.1063 29.6703 31.5798 28.753 31.5798Z" fill="#333232"/>
</g>
<g id="Layer_x0020_1">
<g id="_-1769702104">
<path id="Vector_6" fill-rule="evenodd" clip-rule="evenodd" d="M8.11019 0.300021C8.08308 0.300021 8.08308 0.300021 8.08308 0.300021C3.25695 1.164 -1.27093 9.55695 2.11821 17.6325C2.11821 17.6854 2.14532 17.7383 2.17243 17.7912C11.7705 11.7786 30.5327 12.0255 41.9744 17.7383C42.3811 15.834 42.6251 13.8416 42.6251 11.902C42.6522 9.23957 42.1642 6.68289 40.917 4.58466C37.3381 -1.42794 33.8947 0.335286 30.3158 1.64007C26.764 2.94486 23.2122 0.352918 20.5822 0.300021C19.4977 0.264757 18.4403 0.52924 17.3015 0.776092C15.3223 1.2169 13.1803 1.67534 10.5775 0.564505C10.0352 0.335286 9.46584 0.229492 8.89647 0.229492C8.62534 0.229492 8.35421 0.247124 8.11019 0.300021Z" fill="url(#paint0_linear_910_1943)"/>
<path id="Vector_7" fill-rule="evenodd" clip-rule="evenodd" d="M35.2235 17.5265H35.2507H35.2778C39.2634 17.4912 40.7275 13.4182 40.2123 9.32751C40.2123 9.30988 40.2123 9.29225 40.2123 9.27462C40.1852 9.22172 40.1852 9.16882 40.1852 9.0983C40.1581 9.0454 40.1581 8.9925 40.1581 8.93961C39.5345 4.93709 37.0401 1.04036 33.1358 1.02273C33.1358 1.02273 33.1358 1.02273 33.1087 1.02273C32.5394 1.02273 31.9429 1.11089 31.3193 1.28721C31.2379 1.30484 31.1837 1.32247 31.1295 1.34011C31.1024 1.35774 31.0752 1.35774 31.0481 1.35774C31.0481 1.35774 31.0481 1.35774 31.0481 1.37537C29.9907 1.63986 29.0147 1.74565 28.0928 1.76328H28.0657H28.0386C26.5203 1.74565 25.1646 1.46353 23.8903 1.14615C23.8632 1.12852 23.8361 1.12852 23.809 1.11089C23.7005 1.09326 23.6192 1.07562 23.5107 1.04036C23.4836 1.04036 23.4565 1.04036 23.4294 1.02273C23.4023 1.02273 23.348 1.00509 23.3209 0.987462C22.3177 0.740611 21.3417 0.476127 20.3656 0.370334C19.986 0.317437 19.6335 0.299805 19.254 0.299805C19.2268 0.299805 19.1997 0.299805 19.1726 0.299805H19.1455C24.053 1.04036 23.8632 4.00258 25.3002 5.39552C25.3002 5.41316 25.3002 5.41316 25.3002 5.41316C25.5171 5.53658 25.6798 5.57185 25.7882 5.57185C25.8153 5.57185 25.8153 5.57185 25.8153 5.57185C26.2762 5.57185 26.1949 4.76076 26.6558 3.93205C27.1167 3.1386 28.0657 2.32751 30.4516 2.11593C30.533 2.09829 30.6143 2.09829 30.6957 2.09829C30.8583 2.08066 30.9939 2.08066 31.1566 2.06303C31.1837 2.06303 31.2108 2.06303 31.2379 2.06303C29.8552 4.37285 27.9301 8.09326 27.9301 11.3376C27.903 14.2116 29.4214 16.6978 34.2204 17.4383C34.2204 17.456 34.2475 17.456 34.2746 17.456H34.3017C34.6271 17.5089 34.9253 17.5265 35.2235 17.5265Z" fill="url(#paint1_linear_910_1943)"/>
<path id="Vector_8" d="M23.8352 6.40045C23.8352 6.40045 22.7507 4.09063 19.8496 3.08559C17.9245 2.41556 17.3009 0.863926 19.9851 0.934455C23.3471 1.02262 24.757 5.23672 23.8352 6.40045Z" fill="white"/>
</g>
</g>
</g>
<defs>
<linearGradient id="paint0_linear_910_1943" x1="40.552" y1="9.0077" x2="3.01728" y2="9.0077" gradientUnits="userSpaceOnUse">
<stop stop-color="#A4A4A3"/>
<stop offset="0.819608" stop-color="white"/>
<stop offset="1" stop-color="white"/>
</linearGradient>
<linearGradient id="paint1_linear_910_1943" x1="19.5679" y1="8.91175" x2="39.8832" y2="8.91175" gradientUnits="userSpaceOnUse">
<stop stop-color="#C1C0BF"/>
<stop offset="0.321569" stop-color="#C1C0BF"/>
<stop offset="1" stop-color="#A4A4A3"/>
</linearGradient>
</defs>
</svg>
