<svg width="44" height="70" viewBox="0 0 44 70" fill="none" xmlns="http://www.w3.org/2000/svg">
<g id="Group 300">
<g id="Group">
<path id="Vector" d="M40 16.4575C40 15.3291 37.1138 14.4846 34.6927 13.9749C31.1196 13.2224 26.612 12.8081 22.0001 12.8081C17.3881 12.8081 12.8805 13.2224 9.30747 13.9748C6.8863 14.4845 4 15.3291 4 16.4574C4 16.5223 4 19.1369 4 19.1369C4 20.0606 4.91251 20.812 6.03414 20.812C6.03414 20.812 7.39118 20.812 7.84343 20.812C8.52148 20.812 8.85386 21.2772 8.85386 21.2772L14.1928 29.1595C14.499 29.6116 14.7675 30.4621 14.7675 30.9796V35.2676C14.7675 36.0286 15.3821 36.581 16.2288 36.581H16.229C16.4693 36.581 16.7152 36.5365 16.9598 36.4484L27.5838 32.6198C28.5237 32.2812 29.2324 31.4823 29.2324 30.7617C29.2324 30.3604 29.5009 29.6117 29.8071 29.1596L35.2196 21.1687C35.2196 21.1687 35.4907 20.8122 35.9654 20.8122C36.4655 20.8122 37.9657 20.8122 37.9657 20.8122C39.0874 20.8122 39.9999 20.0607 39.9999 19.137C39.9999 19.137 40 16.5224 40 16.4575Z" fill="#333232"/>
<path id="Vector_2" d="M27.772 50.6166C27.5315 50.6166 27.2857 50.6611 27.0412 50.7493L16.4172 54.5778C15.4927 54.9108 14.7686 55.8228 14.7686 56.6538V58.7861C14.7686 59.5471 15.3831 60.0996 16.2299 60.0996C16.4702 60.0996 16.7163 60.055 16.9608 59.9668L27.5848 56.1383C28.5093 55.8052 29.2334 54.8933 29.2334 54.0623V51.9299C29.2333 51.1689 28.6187 50.6166 27.772 50.6166Z" fill="#333232"/>
<path id="Vector_3" d="M27.772 42.7771C27.5315 42.7771 27.2857 42.8217 27.0412 42.9098L16.4172 46.7383C15.4927 47.0713 14.7686 47.9833 14.7686 48.8143V50.9467C14.7686 51.7077 15.3831 52.2601 16.2299 52.2601C16.4702 52.2601 16.7163 52.2154 16.9608 52.1273L27.5848 48.2988C28.5093 47.9656 29.2334 47.0538 29.2334 46.2228V44.0904C29.2333 43.3295 28.6187 42.7771 27.772 42.7771Z" fill="#333232"/>
<path id="Vector_4" d="M27.772 58.4562C27.5315 58.4562 27.2857 58.5007 27.0412 58.589L16.4172 62.4175C15.5966 62.7132 14.7686 63.2852 14.7686 63.8964C14.7686 64.4105 15.362 65.1421 15.9134 65.6041L20.5668 69.5044C20.9481 69.824 21.4575 70 22.0009 70C22.5442 70 23.0536 69.824 23.4349 69.5043L28.0883 65.6042C28.741 65.0572 29.2332 64.0663 29.2332 63.2994V59.7695C29.2333 59.0085 28.6187 58.4562 27.772 58.4562Z" fill="#333232"/>
<path id="Vector_5" d="M27.772 34.9375C27.5315 34.9375 27.2857 34.9821 27.0412 35.0702L16.4172 38.8987C15.4927 39.2317 14.7686 40.1437 14.7686 40.9747V43.1071C14.7686 43.868 15.3831 44.4205 16.2299 44.4205C16.4702 44.4205 16.7163 44.3759 16.9608 44.2877L27.5848 40.4592C28.5093 40.1262 29.2334 39.2142 29.2334 38.3832V36.2508C29.2333 35.4899 28.6187 34.9375 27.772 34.9375Z" fill="#333232"/>
</g>
<g id="Layer_x0020_1">
<g id="_-1955915720">
<path id="Vector_6" fill-rule="evenodd" clip-rule="evenodd" d="M9.84677 0.982422H9.81966H9.79255C9.71121 0.982422 9.62987 0.982422 9.54853 0.982422C3.2583 1.14111 -2.62523 6.57184 3.55654 15.7582C3.58366 15.8111 3.63788 15.864 3.665 15.9169C3.99035 16.3754 4.15303 17.0278 4.36994 17.5038C15.8659 20.854 30.2358 16.2343 38.6137 23.0227C39.7525 20.0958 41.7588 18.2797 42.7349 15.2822C43.1687 14.0303 43.3585 12.9195 43.3585 11.9144C43.3585 6.50131 38.0172 4.5794 34.8179 4.36781C29.3411 3.99754 30.1273 5.86655 27.0093 5.86655C21.5054 5.86655 19.4719 1.17638 10.0366 0.982422C9.98234 0.982422 9.92811 0.982422 9.87388 0.982422H9.84677Z" fill="url(#paint0_linear_910_1944)"/>
<path id="Vector_7" d="M38.8851 5.40814C39.1563 5.58446 38.2615 5.21418 37.9633 5.19655C35.5502 4.93207 34.3573 6.44844 30.1005 6.83635C27.1723 7.0832 23.973 5.51393 23.3765 4.98496C23.3765 4.98496 26.5216 7.0303 29.748 5.07313C32.8389 3.18648 37.9904 4.79101 38.8851 5.40814Z" fill="white"/>
<path id="Vector_8" d="M34.1406 12.6724C32.3512 7.50617 25.1391 5.91927 21.3433 4.19131C12.6671 0.224058 19.5267 5.58426 22.1296 7.54144C23.9732 8.91675 25.8712 10.5742 27.1997 12.7606C29.1518 16.0225 28.1215 17.4508 27.1184 19.1787L32.785 19.9722C34.6287 18.2971 34.8998 14.9117 34.1406 12.6724Z" fill="#AFAFAD"/>
</g>
</g>
</g>
<defs>
<linearGradient id="paint0_linear_910_1944" x1="40.3782" y1="12.0008" x2="3.90576" y2="12.0008" gradientUnits="userSpaceOnUse">
<stop stop-color="#A4A4A3"/>
<stop offset="0.819608" stop-color="white"/>
<stop offset="1" stop-color="white"/>
</linearGradient>
</defs>
</svg>
