<svg width="42" height="65" viewBox="0 0 42 65" fill="none" xmlns="http://www.w3.org/2000/svg">
<g id="Layer_x0020_1">
<g id="_732028824">
<g id="Group 313">
<g id="Group">
<path id="Vector" d="M37 17.64C37 16.6623 34.2742 15.9305 31.9875 15.4888C28.613 14.8368 24.3558 14.4778 20.0001 14.4778C15.6444 14.4778 11.3871 14.8368 8.01261 15.4887C5.72595 15.9304 3 16.6623 3 17.6399C3 17.6962 3 19.9617 3 19.9617C3 20.7621 3.86182 21.4133 4.92113 21.4133C4.92113 21.4133 6.20278 21.4133 6.62991 21.4133C7.27028 21.4133 7.5842 21.8163 7.5842 21.8163L12.6265 28.6464C12.9157 29.0382 13.1693 29.7752 13.1693 30.2236V33.9392C13.1693 34.5985 13.7497 35.0773 14.5494 35.0773H14.5496C14.7765 35.0773 15.0088 35.0387 15.2398 34.9623L25.2736 31.6448C26.1613 31.3514 26.8306 30.6591 26.8306 30.0348C26.8306 29.687 27.0842 29.0383 27.3734 28.6465L32.4852 21.7224C32.4852 21.7224 32.7412 21.4134 33.1895 21.4134C33.6619 21.4134 35.0787 21.4134 35.0787 21.4134C36.1381 21.4134 36.9999 20.7622 36.9999 19.9618C36.9999 19.9618 37 17.6962 37 17.64Z" fill="#333232"/>
<path id="Vector_2" d="M25.4507 47.2393C25.2236 47.2393 24.9914 47.2779 24.7605 47.3542L14.7267 50.6717C13.8536 50.9603 13.1697 51.7505 13.1697 52.4705V54.3183C13.1697 54.9776 13.7501 55.4564 14.5498 55.4564C14.7768 55.4564 15.0092 55.4178 15.2401 55.3413L25.2739 52.0238C26.147 51.7353 26.8309 50.9451 26.8309 50.225V48.3773C26.8308 47.7179 26.2504 47.2393 25.4507 47.2393Z" fill="#333232"/>
<path id="Vector_3" d="M25.4507 40.4462C25.2236 40.4462 24.9914 40.4848 24.7605 40.5611L14.7267 43.8786C13.8536 44.1672 13.1697 44.9574 13.1697 45.6774V47.5252C13.1697 48.1847 13.7501 48.6633 14.5498 48.6633C14.7768 48.6633 15.0092 48.6246 15.2401 48.5482L25.2739 45.2308C26.147 44.9421 26.8309 44.152 26.8309 43.4319V41.5842C26.8308 40.9248 26.2504 40.4462 25.4507 40.4462Z" fill="#333232"/>
<path id="Vector_4" d="M25.4507 54.0323C25.2236 54.0323 24.9914 54.071 24.7605 54.1474L14.7267 57.4649C13.9517 57.7211 13.1697 58.2168 13.1697 58.7464C13.1697 59.1918 13.7301 59.8258 14.2509 60.2261L18.6458 63.6058C19.0059 63.8826 19.487 64.0352 20.0002 64.0352C20.5134 64.0352 20.9944 63.8826 21.3546 63.6057L25.7495 60.2262C26.3659 59.7522 26.8307 58.8936 26.8307 58.2291V55.1704C26.8308 54.511 26.2504 54.0323 25.4507 54.0323Z" fill="#333232"/>
<path id="Vector_5" d="M25.4507 33.6531C25.2236 33.6531 24.9914 33.6917 24.7605 33.768L14.7267 37.0855C13.8536 37.3741 13.1697 38.1643 13.1697 38.8844V40.7321C13.1697 41.3915 13.7501 41.8702 14.5498 41.8702C14.7768 41.8702 15.0092 41.8316 15.2401 41.7551L25.2739 38.4377C26.147 38.1491 26.8309 37.3589 26.8309 36.6388V34.7911C26.8308 34.1317 26.2504 33.6531 25.4507 33.6531Z" fill="#333232"/>
</g>
<path id="Vector_6" fill-rule="evenodd" clip-rule="evenodd" d="M32.5849 0.982422C23.4011 1.16181 21.3897 5.70041 16.017 5.70041C15.5406 5.70041 15.1436 5.64659 14.826 5.57484C13.2645 5.23399 12.9734 4.21146 9.71806 4.21146C9.71806 4.21146 9.71806 4.21146 9.69159 4.21146C9.2946 4.21146 8.87113 4.21146 8.39474 4.24734C5.27172 4.46261 0.0578613 6.31034 0.0578613 11.5486C0.0578613 12.5173 0.243125 13.5936 0.666586 14.8135C1.61937 17.6837 3.57788 19.4597 4.68946 22.2762C12.8675 15.7284 26.8947 20.1773 38.1164 16.9482C38.3281 16.4818 38.4869 15.854 38.8045 15.4055C45.1035 6.31034 39.0692 0.982422 32.7967 0.982422C32.7173 0.982422 32.6379 0.982422 32.5849 0.982422Z" fill="url(#paint0_linear_910_1768)"/>
<path id="Vector_7" d="M4.42479 5.25235C4.16013 5.43174 5.03352 5.07296 5.32464 5.03708C7.68014 4.80387 8.84466 6.27488 12.9999 6.63366C15.8582 6.88481 18.9812 5.35998 19.59 4.85769C19.59 4.85769 16.4934 6.83099 13.3439 4.92944C10.3268 3.11759 5.29818 4.66036 4.42479 5.25235Z" fill="#C2C0BE"/>
</g>
<path id="Vector_8" d="M38.7247 12.5534C41.0802 10.0957 40.6832 3.45823 35.9457 2.14867C31.3141 0.874996 27.5294 2.57921 30.0702 4.15786C32.1346 5.46741 32.4786 8.19416 31.817 10.4186C30.8642 13.7732 25.8356 17.092 23.3213 18.2042L29.2497 18.0248C32.558 17.2175 36.872 14.5267 38.7247 12.5534Z" fill="#AFAFAD"/>
</g>
</g>
<defs>
<linearGradient id="paint0_linear_910_1768" x1="2.9673" y1="11.6289" x2="38.5703" y2="11.6289" gradientUnits="userSpaceOnUse">
<stop stop-color="white"/>
<stop offset="0.180392" stop-color="white"/>
<stop offset="1" stop-color="#A4A4A3"/>
</linearGradient>
</defs>
</svg>
