<svg width="42" height="63" viewBox="0 0 42 63" fill="none" xmlns="http://www.w3.org/2000/svg">
<g id="Layer_x0020_1">
<g id="_684028064">
<path id="Vector" d="M29.7297 6.68718C27.5065 3.22493 29.4121 0.534066 33.4085 1.28751C38.1989 2.2024 40.2633 6.22077 40.5015 8.35552C40.6603 10.0956 39.4693 13.9346 35.6846 14.9571C34.0437 15.4056 30.0473 16.4819 27.0037 15.6209C20.7312 13.827 33.9643 13.235 29.7297 6.68718Z" fill="#AFAFAD"/>
<path id="Vector_2" d="M31.1589 0.982422C28.4328 1.55647 28.9092 2.54313 26.6861 3.4042C23.1925 4.76758 21.1546 2.97366 23.7219 2.20228C25.0716 1.82556 25.8127 1.91526 31.1589 0.982422Z" fill="#F4F4F5"/>
<g id="Group 312">
<g id="Group">
<path id="Vector_3" d="M37 15.64C37 14.6623 34.4345 13.9305 32.2824 13.4888C29.1063 12.8368 25.0996 12.4778 21.0001 12.4778C16.9006 12.4778 12.8938 12.8368 9.71775 13.4887C7.5656 13.9304 5 14.6623 5 15.6399C5 15.6962 5 17.9617 5 17.9617C5 18.7621 5.81112 19.4133 6.80812 19.4133C6.80812 19.4133 8.01438 19.4133 8.41638 19.4133C9.01909 19.4133 9.31454 19.8163 9.31454 19.8163L14.0603 26.6464C14.3324 27.0382 14.5711 27.7752 14.5711 28.2236V31.9392C14.5711 32.5985 15.1174 33.0773 15.8701 33.0773H15.8702C16.0838 33.0773 16.3024 33.0387 16.5198 32.9623L25.9634 29.6448C26.7988 29.3514 27.4288 28.6591 27.4288 28.0348C27.4288 27.687 27.6674 27.0383 27.9396 26.6465L32.7508 19.7224C32.7508 19.7224 32.9918 19.4134 33.4137 19.4134C33.8582 19.4134 35.1918 19.4134 35.1918 19.4134C36.1888 19.4134 36.9999 18.7622 36.9999 17.9618C36.9999 17.9618 37 15.6962 37 15.64Z" fill="#333232"/>
<path id="Vector_4" d="M26.1301 45.2393C25.9164 45.2393 25.6979 45.2779 25.4805 45.3542L16.037 48.6717C15.2152 48.9603 14.5715 49.7505 14.5715 50.4705V52.3183C14.5715 52.9776 15.1178 53.4564 15.8705 53.4564C16.0841 53.4564 16.3029 53.4178 16.5202 53.3413L25.9638 50.0238C26.7855 49.7353 27.4292 48.9451 27.4292 48.225V46.3773C27.4291 45.7179 26.8828 45.2393 26.1301 45.2393Z" fill="#333232"/>
<path id="Vector_5" d="M26.1301 38.4462C25.9164 38.4462 25.6979 38.4848 25.4805 38.5611L16.037 41.8786C15.2152 42.1672 14.5715 42.9574 14.5715 43.6774V45.5252C14.5715 46.1847 15.1178 46.6633 15.8705 46.6633C16.0841 46.6633 16.3029 46.6246 16.5202 46.5482L25.9638 43.2308C26.7855 42.9421 27.4292 42.152 27.4292 41.4319V39.5842C27.4291 38.9248 26.8828 38.4462 26.1301 38.4462Z" fill="#333232"/>
<path id="Vector_6" d="M26.1301 52.0323C25.9164 52.0323 25.6979 52.071 25.4805 52.1474L16.037 55.4649C15.3076 55.7211 14.5715 56.2168 14.5715 56.7464C14.5715 57.1918 15.099 57.8258 15.5891 58.2261L19.7255 61.6058C20.0645 61.8826 20.5172 62.0352 21.0002 62.0352C21.4833 62.0352 21.936 61.8826 22.275 61.6057L26.4113 58.2262C26.9915 57.7522 27.429 56.8936 27.429 56.2291V53.1704C27.4291 52.511 26.8828 52.0323 26.1301 52.0323Z" fill="#333232"/>
<path id="Vector_7" d="M26.1301 31.6531C25.9164 31.6531 25.6979 31.6917 25.4805 31.768L16.037 35.0855C15.2152 35.3741 14.5715 36.1643 14.5715 36.8844V38.7321C14.5715 39.3915 15.1178 39.8702 15.8705 39.8702C16.0841 39.8702 16.3029 39.8316 16.5202 39.7551L25.9638 36.4377C26.7855 36.1491 27.4292 35.3589 27.4292 34.6388V32.7911C27.4291 32.1317 26.8828 31.6531 26.1301 31.6531Z" fill="#333232"/>
</g>
<path id="Vector_8" fill-rule="evenodd" clip-rule="evenodd" d="M13.5586 1.03662H13.5321H13.4527C13.2145 1.03662 12.9499 1.03662 12.6852 1.03662C12.4735 1.05456 12.2617 1.05456 12.0235 1.0725C2.62801 1.53892 0.325439 5.00117 0.325439 8.51723C0.351906 10.7596 1.27823 13.02 1.88695 14.5268C3.05147 17.3971 4.58651 18.3479 5.88336 20.07C8.55645 16.6795 14.6172 15.4417 21.1279 15.4417H21.1544H21.1809C26.977 15.4417 33.1172 16.4104 37.59 17.72C39.4426 15.2085 41.0835 12.715 41.0835 10.1497C41.0835 9.93443 41.0835 9.71916 41.0571 9.50389C40.6071 5.46758 38.1987 2.20266 33.4083 1.28777C33.3554 1.28777 33.3024 1.26983 33.2495 1.26983C32.5349 1.14426 31.8733 1.09044 31.291 1.0725C31.2645 1.0725 31.2645 1.0725 31.2645 1.0725H31.2381C29.8883 1.09044 28.7502 1.35953 27.374 1.62861C26.1565 1.86182 24.7274 2.09503 22.8218 2.13091C22.7424 2.13091 22.663 2.13091 22.5836 2.13091C22.5042 2.13091 22.4513 2.13091 22.3719 2.13091C22.3719 2.13091 22.3719 2.13091 22.3454 2.13091C20.4398 2.13091 19.3282 1.8977 18.2696 1.64655C18.1637 1.62861 18.0843 1.61067 18.0049 1.57479C17.2639 1.41334 16.5493 1.23395 15.5436 1.12632C14.9878 1.0725 14.3261 1.03662 13.5586 1.03662Z" fill="url(#paint0_linear_910_1781)"/>
<path id="Vector_9" d="M9.56268 2.29265C6.83665 0.803707 18.2701 0.803707 19.0641 2.07738C19.8845 3.35106 16.4439 2.36441 16.5233 3.65603C16.6027 5.30643 11.8917 3.56633 9.56268 2.29265Z" fill="#D2D3D2"/>
</g>
</g>
</g>
<defs>
<linearGradient id="paint0_linear_910_1781" x1="1.25943" y1="11.935" x2="39.6638" y2="5.98037" gradientUnits="userSpaceOnUse">
<stop stop-color="white"/>
<stop offset="0.180392" stop-color="white"/>
<stop offset="1" stop-color="#A4A4A3"/>
</linearGradient>
</defs>
</svg>
