<svg width="37" height="68" viewBox="0 0 37 68" fill="none" xmlns="http://www.w3.org/2000/svg">
<g id="Group 311">
<g id="Group">
<path id="Vector" d="M31 20.64C31 19.6623 29.0759 18.9305 27.4618 18.4888C25.0798 17.8368 22.0747 17.4778 19 17.4778C15.9254 17.4778 12.9203 17.8368 10.5383 18.4887C8.9242 18.9304 7 19.6623 7 20.6399C7 20.6962 7 22.9617 7 22.9617C7 23.7621 7.60834 24.4133 8.35609 24.4133C8.35609 24.4133 9.26078 24.4133 9.56229 24.4133C10.0143 24.4133 10.2359 24.8163 10.2359 24.8163L13.7952 31.6464C13.9993 32.0382 14.1783 32.7752 14.1783 33.2236V36.9392C14.1783 37.5985 14.5881 38.0773 15.1525 38.0773H15.1526C15.3128 38.0773 15.4768 38.0387 15.6398 37.9623L22.7225 34.6448C23.3491 34.3514 23.8216 33.6591 23.8216 33.0348C23.8216 32.687 24.0006 32.0383 24.2047 31.6465L27.8131 24.7224C27.8131 24.7224 27.9938 24.4134 28.3102 24.4134C28.6437 24.4134 29.6438 24.4134 29.6438 24.4134C30.3916 24.4134 30.9999 23.7622 30.9999 22.9618C30.9999 22.9618 31 20.6962 31 20.64Z" fill="#333232"/>
<path id="Vector_2" d="M22.8477 50.2393C22.6874 50.2393 22.5235 50.2779 22.3605 50.3542L15.2778 53.6717C14.6615 53.9603 14.1787 54.7505 14.1787 55.4705V57.3183C14.1787 57.9776 14.5884 58.4564 15.1529 58.4564C15.3131 58.4564 15.4772 58.4178 15.6402 58.3413L22.7229 55.0238C23.3392 54.7353 23.822 53.9451 23.822 53.225V51.3773C23.8219 50.7179 23.4122 50.2393 22.8477 50.2393Z" fill="#333232"/>
<path id="Vector_3" d="M22.8477 43.4462C22.6874 43.4462 22.5235 43.4848 22.3605 43.5611L15.2778 46.8786C14.6615 47.1672 14.1787 47.9574 14.1787 48.6774V50.5252C14.1787 51.1847 14.5884 51.6633 15.1529 51.6633C15.3131 51.6633 15.4772 51.6246 15.6402 51.5482L22.7229 48.2308C23.3392 47.9421 23.822 47.152 23.822 46.4319V44.5842C23.8219 43.9248 23.4122 43.4462 22.8477 43.4462Z" fill="#333232"/>
<path id="Vector_4" d="M22.8477 57.0323C22.6874 57.0323 22.5235 57.071 22.3605 57.1474L15.2778 60.4649C14.7307 60.7211 14.1787 61.2168 14.1787 61.7464C14.1787 62.1918 14.5743 62.8258 14.9419 63.2261L18.0442 66.6058C18.2984 66.8826 18.638 67.0352 19.0002 67.0352C19.3625 67.0352 19.7021 66.8826 19.9563 66.6057L23.0586 63.2262C23.4937 62.7522 23.8218 61.8936 23.8218 61.2291V58.1704C23.8219 57.511 23.4122 57.0323 22.8477 57.0323Z" fill="#333232"/>
<path id="Vector_5" d="M22.8477 36.6531C22.6874 36.6531 22.5235 36.6917 22.3605 36.768L15.2778 40.0855C14.6615 40.3741 14.1787 41.1643 14.1787 41.8844V43.7321C14.1787 44.3915 14.5884 44.8702 15.1529 44.8702C15.3131 44.8702 15.4772 44.8316 15.6402 44.7551L22.7229 41.4377C23.3392 41.1491 23.822 40.3589 23.822 39.6388V37.7911C23.8219 37.1317 23.4122 36.6531 22.8477 36.6531Z" fill="#333232"/>
</g>
<g id="Layer_x0020_1">
<g id="_-1935199952">
<path id="Vector_6" fill-rule="evenodd" clip-rule="evenodd" d="M18.4342 0.176758H18.4071H18.38C18.1089 0.176758 17.7293 0.212022 17.2955 0.264919C14.8282 0.564667 10.1105 1.65787 6.3418 3.50925C2.68154 5.27248 -0.0839925 7.75862 0.756512 10.8795C1.70547 14.3531 2.97978 16.5395 7.39921 22.1113C13.8792 23.8569 23.5586 22.8342 30.7978 21.3178C33.2651 17.9148 35.895 15.6755 36.4373 10.809C36.4644 10.7208 36.4644 10.615 36.4644 10.5269C36.4644 8.81656 34.9461 7.10623 33.2108 5.78381C31.9094 4.77877 28.8185 4.32033 27.5984 3.63268C22.6367 0.882048 24.6431 0.370712 18.5156 0.176758H18.4342Z" fill="url(#paint0_linear_910_1956)"/>
<path id="Vector_7" d="M20.2784 22.6223C22.8812 22.5871 32.8046 18.6375 28.6021 8.92209C26.3788 3.80874 12.5512 2.36289 16.9977 6.22435C20.414 9.16894 21.9052 9.18657 22.2576 12.1312C22.9897 18.0027 18.1636 22.64 20.2784 22.6223Z" fill="#C2C0BE"/>
<path id="Vector_8" d="M31.8015 16.0631C30.3645 15.3578 32.2353 12.7483 30.7983 9.39815C27.3007 1.23442 36.3022 7.79361 36.4378 10.8793C36.5734 14.106 32.7504 16.5392 31.8015 16.0631Z" fill="#A4A4A3"/>
</g>
</g>
</g>
<defs>
<linearGradient id="paint0_linear_910_1956" x1="35.7489" y1="11.6056" x2="1.31857" y2="11.6056" gradientUnits="userSpaceOnUse">
<stop stop-color="#A4A4A3"/>
<stop offset="0.819608" stop-color="white"/>
<stop offset="1" stop-color="white"/>
</linearGradient>
</defs>
</svg>
