<svg width="35" height="70" viewBox="0 0 35 70" fill="none" xmlns="http://www.w3.org/2000/svg">
<g id="Group 310">
<g id="Group">
<path id="Vector" d="M27 22.9795C27 22.0017 25.2362 21.27 23.7566 20.8283C21.5731 20.1763 18.8184 19.8173 16 19.8173C13.1816 19.8173 10.427 20.1763 8.24345 20.8282C6.76385 21.2699 5 22.0017 5 22.9794C5 23.0356 5 25.3012 5 25.3012C5 26.1016 5.55765 26.7528 6.24308 26.7528C6.24308 26.7528 7.07238 26.7528 7.34876 26.7528C7.76312 26.7528 7.96624 27.1558 7.96624 27.1558L11.2289 33.9859C11.416 34.3776 11.5801 35.1146 11.5801 35.5631V39.2786C11.5801 39.938 11.9557 40.4167 12.4732 40.4167H12.4733C12.6201 40.4167 12.7704 40.3781 12.9198 40.3018L19.4123 36.9843C19.9867 36.6909 20.4198 35.9986 20.4198 35.3743C20.4198 35.0265 20.5839 34.3777 20.771 33.986L24.0787 27.0618C24.0787 27.0618 24.2443 26.7528 24.5344 26.7528C24.84 26.7528 25.7568 26.7528 25.7568 26.7528C26.4423 26.7528 26.9999 26.1017 26.9999 25.3013C26.9999 25.3013 27 23.0357 27 22.9795Z" fill="#333232"/>
<path id="Vector_2" d="M19.5271 52.5787C19.3802 52.5787 19.2299 52.6173 19.0805 52.6937L12.588 56.0112C12.0231 56.2997 11.5806 57.09 11.5806 57.81V59.6577C11.5806 60.3171 11.9561 60.7958 12.4736 60.7958C12.6204 60.7958 12.7709 60.7572 12.9203 60.6808L19.4127 57.3633C19.9777 57.0748 20.4202 56.2845 20.4202 55.5645V53.7167C20.4201 53.0574 20.0446 52.5787 19.5271 52.5787Z" fill="#333232"/>
<path id="Vector_3" d="M19.5271 45.7856C19.3802 45.7856 19.2299 45.8243 19.0805 45.9006L12.588 49.2181C12.0231 49.5066 11.5806 50.2969 11.5806 51.0169V52.8646C11.5806 53.5241 11.9561 54.0028 12.4736 54.0028C12.6204 54.0028 12.7709 53.964 12.9203 53.8877L19.4127 50.5702C19.9777 50.2816 20.4202 49.4914 20.4202 48.7714V46.9237C20.4201 46.2643 20.0446 45.7856 19.5271 45.7856Z" fill="#333232"/>
<path id="Vector_4" d="M19.5271 59.3718C19.3802 59.3718 19.2299 59.4104 19.0805 59.4869L12.588 62.8043C12.0866 63.0606 11.5806 63.5563 11.5806 64.0859C11.5806 64.5313 11.9432 65.1652 12.2802 65.5656L15.1239 68.9453C15.357 69.2221 15.6682 69.3746 16.0003 69.3746C16.3324 69.3746 16.6436 69.2221 16.8767 68.9452L19.7204 65.5657C20.1193 65.0917 20.42 64.2331 20.42 63.5685V60.5098C20.4201 59.8505 20.0446 59.3718 19.5271 59.3718Z" fill="#333232"/>
<path id="Vector_5" d="M19.5271 38.9926C19.3802 38.9926 19.2299 39.0312 19.0805 39.1075L12.588 42.425C12.0231 42.7135 11.5806 43.5038 11.5806 44.2238V46.0716C11.5806 46.7309 11.9561 47.2097 12.4736 47.2097C12.6204 47.2097 12.7709 47.1711 12.9203 47.0946L19.4127 43.7771C19.9777 43.4886 20.4202 42.6984 20.4202 41.9783V40.1306C20.4201 39.4712 20.0446 38.9926 19.5271 38.9926Z" fill="#333232"/>
</g>
<g id="Layer_x0020_1">
<g id="_-1958947064">
<path id="Vector_6" fill-rule="evenodd" clip-rule="evenodd" d="M19.574 24.7701H19.6269H19.6534C22.4059 24.7701 25.0525 24.501 27.3815 23.8731C27.4344 23.8552 27.4609 23.8552 27.5138 23.8372C27.5403 23.8193 27.5668 23.8193 27.6197 23.8013C28.8636 19.6574 35.0038 15.9081 35.0038 12.2844C35.0038 7.15384 21.7442 0.964844 17.589 0.964844C17.5625 0.964844 17.5361 0.964844 17.5096 0.982783C10.5754 1.1263 0.147705 7.40499 0.147705 12.2127C0.147705 17.2356 3.24426 19.5498 5.67916 23.0479C5.75856 23.0658 5.83796 23.0838 5.89089 23.1017C5.94382 23.1197 5.99675 23.1197 6.04969 23.1376C6.10262 23.1555 6.15555 23.1555 6.23495 23.1735C6.31435 23.1914 6.39375 23.2094 6.47315 23.2273C10.6284 24.1063 15.2335 24.7701 19.574 24.7701Z" fill="url(#paint0_linear_910_1955)"/>
<path id="Vector_7" d="M6.84375 4.53462C6.44676 6.43616 10.3902 6.5438 9.06692 7.02815C7.77007 7.49457 3.95892 6.93846 3.61486 6.52586C3.48253 6.38235 6.87022 4.37316 6.84375 4.53462Z" fill="#E9EAE9"/>
<path id="Vector_8" fill-rule="evenodd" clip-rule="evenodd" d="M21.956 2.75879H21.9295C20.6591 2.75879 19.2035 3.06375 16.8745 4.21186C16.8745 4.2298 16.848 4.2298 16.8215 4.24774C16.7157 4.30155 16.6098 4.35537 16.5039 4.40919C16.4775 4.40919 16.451 4.42713 16.4245 4.42713C16.3716 4.46301 16.2922 4.49888 16.2393 4.51682C16.1863 4.53476 16.1599 4.5527 16.1069 4.58858C16.054 4.60652 16.0011 4.62446 15.9481 4.66034H15.9217C11.9517 6.47219 8.90811 6.95654 6.84374 6.99242C6.79081 6.99242 6.71141 6.99242 6.65848 6.99242C6.65848 6.99242 6.65848 6.99242 6.63201 6.99242C4.54117 6.99242 3.45605 6.50807 3.45605 6.50807C3.50899 6.54394 3.56192 6.59776 3.61485 6.65158C4.85877 7.78174 6.20855 8.23022 7.61126 8.23022C7.63773 8.23022 7.63773 8.23022 7.63773 8.23022C7.66419 8.23022 7.69066 8.23022 7.71713 8.23022C9.94029 8.21228 12.3487 7.10006 14.7042 5.89814C14.7307 5.89814 14.7307 5.89814 14.7572 5.8802C14.7836 5.86226 14.8101 5.84432 14.8366 5.82638C14.916 5.80844 14.9689 5.77256 15.0218 5.73668C15.1277 5.7008 15.2336 5.64699 15.3394 5.59317C15.3923 5.55729 15.4188 5.53935 15.4717 5.50347C15.4982 5.50347 15.5511 5.48554 15.5776 5.4676C15.6041 5.44966 15.6305 5.43172 15.6835 5.41378C15.6835 5.41378 15.7099 5.39584 15.7364 5.39584C15.7629 5.3779 15.7893 5.35996 15.8158 5.34202C18.1978 4.12216 20.5268 2.992 22.6176 2.95612C22.6706 2.95612 22.697 2.95612 22.75 2.95612C22.9352 2.95612 23.147 2.95612 23.3322 2.97406C23.3587 2.97406 23.3587 2.97406 23.3587 2.992L23.4116 2.86642C23.3322 2.86642 23.2528 2.84848 23.1734 2.84848C22.7764 2.79467 22.353 2.75879 21.956 2.75879Z" fill="url(#paint1_linear_910_1955)"/>
</g>
</g>
</g>
<defs>
<linearGradient id="paint0_linear_910_1955" x1="0.151146" y1="12.8734" x2="34.993" y2="12.8734" gradientUnits="userSpaceOnUse">
<stop stop-color="white"/>
<stop offset="0.180392" stop-color="white"/>
<stop offset="1" stop-color="#A4A4A3"/>
</linearGradient>
<linearGradient id="paint1_linear_910_1955" x1="3.46849" y1="5.49128" x2="23.4053" y2="5.49128" gradientUnits="userSpaceOnUse">
<stop stop-color="#C1C0BF"/>
<stop offset="0.321569" stop-color="#C1C0BF"/>
<stop offset="1" stop-color="#A4A4A3"/>
</linearGradient>
</defs>
</svg>
