<svg width="37" height="79" viewBox="0 0 37 79" fill="none" xmlns="http://www.w3.org/2000/svg">
<g id="Group 309">
<g id="Group">
<path id="Vector" d="M30 31.9795C30 31.0017 28.0759 30.27 26.4618 29.8283C24.0798 29.1763 21.0747 28.8173 18 28.8173C14.9254 28.8173 11.9203 29.1763 9.53831 29.8282C7.9242 30.2699 6 31.0017 6 31.9794C6 32.0356 6 34.3012 6 34.3012C6 35.1016 6.60834 35.7528 7.35609 35.7528C7.35609 35.7528 8.26078 35.7528 8.56229 35.7528C9.01432 35.7528 9.2359 36.1558 9.2359 36.1558L12.7952 42.9859C12.9993 43.3776 13.1783 44.1146 13.1783 44.5631V48.2786C13.1783 48.938 13.5881 49.4167 14.1525 49.4167H14.1526C14.3128 49.4167 14.4768 49.3781 14.6398 49.3018L21.7225 45.9843C22.3491 45.6909 22.8216 44.9986 22.8216 44.3743C22.8216 44.0265 23.0006 43.3777 23.2047 42.986L26.8131 36.0618C26.8131 36.0618 26.9938 35.7528 27.3102 35.7528C27.6437 35.7528 28.6438 35.7528 28.6438 35.7528C29.3916 35.7528 29.9999 35.1017 29.9999 34.3013C29.9999 34.3013 30 32.0357 30 31.9795Z" fill="#333232"/>
<path id="Vector_2" d="M21.8477 61.5787C21.6874 61.5787 21.5235 61.6173 21.3605 61.6937L14.2778 65.0112C13.6615 65.2997 13.1787 66.09 13.1787 66.81V68.6577C13.1787 69.3171 13.5884 69.7958 14.1529 69.7958C14.3131 69.7958 14.4772 69.7572 14.6402 69.6808L21.7229 66.3633C22.3392 66.0748 22.822 65.2845 22.822 64.5645V62.7167C22.8219 62.0574 22.4122 61.5787 21.8477 61.5787Z" fill="#333232"/>
<path id="Vector_3" d="M21.8477 54.7856C21.6874 54.7856 21.5235 54.8243 21.3605 54.9006L14.2778 58.2181C13.6615 58.5066 13.1787 59.2969 13.1787 60.0169V61.8646C13.1787 62.5241 13.5884 63.0028 14.1529 63.0028C14.3131 63.0028 14.4772 62.964 14.6402 62.8877L21.7229 59.5702C22.3392 59.2816 22.822 58.4914 22.822 57.7714V55.9237C22.8219 55.2643 22.4122 54.7856 21.8477 54.7856Z" fill="#333232"/>
<path id="Vector_4" d="M21.8477 68.3718C21.6874 68.3718 21.5235 68.4104 21.3605 68.4869L14.2778 71.8043C13.7307 72.0606 13.1787 72.5563 13.1787 73.0859C13.1787 73.5313 13.5743 74.1652 13.9419 74.5656L17.0442 77.9453C17.2984 78.2221 17.638 78.3746 18.0002 78.3746C18.3625 78.3746 18.7021 78.2221 18.9563 77.9452L22.0586 74.5657C22.4937 74.0917 22.8218 73.2331 22.8218 72.5685V69.5098C22.8219 68.8505 22.4122 68.3718 21.8477 68.3718Z" fill="#333232"/>
<path id="Vector_5" d="M21.8477 47.9926C21.6874 47.9926 21.5235 48.0312 21.3605 48.1075L14.2778 51.425C13.6615 51.7135 13.1787 52.5038 13.1787 53.2238V55.0716C13.1787 55.7309 13.5884 56.2097 14.1529 56.2097C14.3131 56.2097 14.4772 56.1711 14.6402 56.0946L21.7229 52.7771C22.3392 52.4886 22.822 51.6984 22.822 50.9783V49.1306C22.8219 48.4712 22.4122 47.9926 21.8477 47.9926Z" fill="#333232"/>
</g>
<g id="Layer_x0020_1">
<g id="_-1688828456">
<g id="Group_2">
<g id="Group_3">
<path id="Vector_6" d="M32.216 27.7158C31.4485 29.3483 30.8927 30.7296 30.4957 32.5773C23.6409 36.793 11.6782 36.9904 5.32626 32.685C5.24686 32.3262 5.14099 31.9854 5.03513 31.6625C3.23542 26.191 -4.78386 15.6428 5.16746 8.89771C10.7254 5.13049 15.8598 0.950679 18.4006 0.986557C23.6674 1.09419 31.7925 6.49387 34.9156 11.9832C38.0651 17.4905 33.6452 24.6303 32.216 27.7158Z" fill="url(#paint0_linear_910_1954)"/>
</g>
</g>
<path id="Vector_7" d="M23.4563 35.0344C28.0085 33.7787 27.1881 29.4195 29.1201 25.7599C31.2903 21.7056 34.9692 18.4048 35.7631 15.8216C36.9806 11.875 21.4449 18.0281 19.0629 19.1942C16.5486 20.414 19.8834 24.0198 20.2804 26.3519C21.2332 31.7874 21.6566 35.5367 23.4563 35.0344Z" fill="#AFAFAC"/>
<path id="Vector_8" d="M20.5444 1.36328C20.5444 1.36328 16.0186 5.9557 18.1624 9.13092C20.2797 12.2882 28.696 5.66867 28.1667 5.07668C27.6373 4.46675 22.6881 1.72206 20.5444 1.36328Z" fill="#C1BFBD"/>
<path id="Vector_9" d="M4.58604 12.5212C1.83354 13.741 12.7641 17.3288 15.1196 18.4052C18.772 20.1094 7.92079 11.0502 4.58604 12.5212Z" fill="#E8E9E8"/>
<path id="Vector_10" d="M29.411 6.02711C27.9818 4.01793 24.5942 7.82103 22.7151 9.25616C19.7508 11.4985 31.1313 8.46683 29.411 6.02711Z" fill="#E8E9E8"/>
</g>
</g>
</g>
<defs>
<linearGradient id="paint0_linear_910_1954" x1="0.280196" y1="18.4087" x2="36.02" y2="18.4087" gradientUnits="userSpaceOnUse">
<stop stop-color="white"/>
<stop offset="0.168627" stop-color="white"/>
<stop offset="1" stop-color="#A3A3A3"/>
</linearGradient>
</defs>
</svg>
