<svg width="33" height="74" viewBox="0 0 33 74" fill="none" xmlns="http://www.w3.org/2000/svg">
<g id="Group 308">
<g id="Group">
<path id="Vector" d="M28 22.4785C28 21.4029 26.2362 20.598 24.7566 20.1122C22.5731 19.3949 19.8184 19 17 19C14.1816 19 11.427 19.3949 9.24345 20.112C7.76385 20.5979 6 21.4029 6 22.4784C6 22.5402 6 25.0323 6 25.0323C6 25.9128 6.55765 26.629 7.24308 26.629C7.24308 26.629 8.07238 26.629 8.34876 26.629C8.76312 26.629 8.96624 27.0724 8.96624 27.0724L12.2289 34.5855C12.416 35.0164 12.5801 35.8271 12.5801 36.3204L12.5801 40.4075C12.5801 41.1328 12.9557 41.6594 13.4732 41.6594H13.4733C13.6201 41.6594 13.7704 41.617 13.9198 41.533L20.4123 37.8838C20.9867 37.561 21.4198 36.7995 21.4198 36.1127C21.4198 35.7301 21.5839 35.0165 21.771 34.5856L25.0787 26.969C25.0787 26.969 25.2443 26.6291 25.5344 26.6291C25.84 26.6291 26.7568 26.6291 26.7568 26.6291C27.4423 26.6291 27.9999 25.9129 27.9999 25.0324C27.9999 25.0324 28 22.5403 28 22.4785Z" fill="#333232"/>
<path id="Vector_2" d="M20.5269 55.0376C20.3799 55.0376 20.2297 55.0801 20.0803 55.1641L13.5878 58.8133C13.0229 59.1307 12.5803 59.9999 12.5803 60.792V62.8245C12.5803 63.5498 12.9559 64.0764 13.4734 64.0764C13.6202 64.0764 13.7706 64.0339 13.92 63.9499L20.4125 60.3006C20.9774 59.9832 21.42 59.114 21.42 58.3219V56.2894C21.4199 55.5641 21.0443 55.0376 20.5269 55.0376Z" fill="#333232"/>
<path id="Vector_3" d="M20.5269 47.5653C20.3799 47.5653 20.2297 47.6078 20.0803 47.6918L13.5878 51.341C13.0229 51.6584 12.5803 52.5276 12.5803 53.3197V55.3522C12.5803 56.0776 12.9559 56.6041 13.4734 56.6041C13.6202 56.6041 13.7706 56.5616 13.92 56.4776L20.4125 52.8284C20.9774 52.5108 21.42 51.6417 21.42 50.8496V48.8171C21.4199 48.0918 21.0443 47.5653 20.5269 47.5653Z" fill="#333232"/>
<path id="Vector_4" d="M20.5269 62.51C20.3799 62.51 20.2297 62.5525 20.0803 62.6366L13.5878 66.2858C13.0863 66.5677 12.5803 67.1129 12.5803 67.6955C12.5803 68.1854 12.943 68.8828 13.2799 69.3231L16.1237 73.0408C16.3567 73.3453 16.668 73.5131 17.0001 73.5131C17.3321 73.5131 17.6434 73.3453 17.8764 73.0407L20.7202 69.3232C21.1191 68.8019 21.4198 67.8574 21.4198 67.1264V63.7618C21.4199 63.0365 21.0443 62.51 20.5269 62.51Z" fill="#333232"/>
<path id="Vector_5" d="M20.5269 40.0929C20.3799 40.0929 20.2297 40.1354 20.0803 40.2194L13.5878 43.8686C13.0229 44.186 12.5803 45.0552 12.5803 45.8473V47.8798C12.5803 48.6051 12.9559 49.1317 13.4734 49.1317C13.6202 49.1317 13.7706 49.0892 13.92 49.0052L20.4125 45.3559C20.9774 45.0385 21.42 44.1693 21.42 43.3772V41.3447C21.4199 40.6194 21.0443 40.0929 20.5269 40.0929Z" fill="#333232"/>
</g>
<g id="Layer_x0020_1">
<g id="_-1681177696">
<path id="Vector_6" fill-rule="evenodd" clip-rule="evenodd" d="M10.2697 0.0185547H10.2167C8.65522 0.0185547 7.22604 0.162068 6.00859 0.628485C2.03865 2.22507 0.715332 5.11327 0.715332 8.39612C0.715332 14.0649 4.55294 20.8997 5.1352 24.4158C5.16167 24.4337 5.16167 24.4516 5.18813 24.4696C5.2146 24.4875 5.24107 24.5234 5.26753 24.5413C5.294 24.5593 5.294 24.5593 5.294 24.5593C8.46995 27.304 12.4664 29.3311 16.7274 29.349C16.7539 29.349 16.7539 29.349 16.7539 29.349C16.7539 29.349 16.7539 29.349 16.7804 29.349C19.427 29.3311 22.1795 28.5597 24.932 26.6761C27.0758 25.5997 27.1552 23.6982 28.2403 22.1913C30.4634 13.8855 32.9513 9.00605 32.9777 5.56174C32.9777 4.50333 32.7395 3.58844 32.2102 2.76324C30.8075 0.574667 27.3934 0.0903112 23.3705 0.0903112C23.344 0.0903112 23.344 0.0903112 23.344 0.0903112H23.3175C21.8619 0.0903112 20.3269 0.144129 18.7653 0.215885C18.5536 0.233824 18.3419 0.233824 18.1037 0.251763C17.9978 0.251763 17.9184 0.251763 17.8126 0.269702C17.5214 0.269702 17.2568 0.269702 16.9921 0.269702H16.9656C16.9656 0.269702 16.9392 0.269702 16.9127 0.269702C15.9864 0.269702 15.0601 0.233824 14.1337 0.180007C13.9485 0.162068 13.7367 0.162068 13.5515 0.144129C13.0751 0.10825 12.5987 0.0903112 12.1223 0.072372C11.4871 0.0364938 10.8784 0.0185547 10.2697 0.0185547Z" fill="url(#paint0_linear_910_1953)"/>
<path id="Vector_7" d="M23.979 26.8379C25.8051 24.9185 28.0548 20.4157 28.24 16.4333C27.0755 15.7516 23.7937 17.4737 23.2115 20.5593C23.1321 27.6811 22.1263 26.8379 19.1621 29.1162C19.1621 29.1162 22.0734 28.8471 23.979 26.8379Z" fill="#AFAFAD"/>
<path id="Vector_8" d="M4.31474 5.0774C5.61159 1.56133 8.76108 3.03234 9.95206 4.14456C11.2224 5.34648 6.43204 7.73239 14.7689 18.5856C16.304 20.5768 0.0536671 16.7737 4.31474 5.0774Z" fill="#E9EAE9"/>
<path id="Vector_9" d="M30.1453 5.07752C30.5952 1.88436 25.8048 0.485107 23.6875 2.87101C22.576 4.14469 30.1718 10.1005 18.5796 18.478C16.3035 20.1105 28.3721 18.0296 30.1453 5.07752Z" fill="#E9EAE9"/>
</g>
</g>
</g>
<defs>
<linearGradient id="paint0_linear_910_1953" x1="0.723537" y1="14.6768" x2="32.9703" y2="14.6768" gradientUnits="userSpaceOnUse">
<stop stop-color="white"/>
<stop offset="0.180392" stop-color="white"/>
<stop offset="1" stop-color="#A4A4A3"/>
</linearGradient>
</defs>
</svg>
