<svg width="42" height="77" viewBox="0 0 42 77" fill="none" xmlns="http://www.w3.org/2000/svg">
<g id="Group 307">
<g id="Group">
<path id="Vector" d="M37 25.4785C37 24.4029 34.5949 23.598 32.5772 23.1122C29.5997 22.3949 25.8433 22 22.0001 22C18.1568 22 14.4004 22.3949 11.4229 23.112C9.40525 23.5979 7 24.4029 7 25.4784C7 25.5402 7 28.0323 7 28.0323C7 28.9128 7.76043 29.629 8.69511 29.629C8.69511 29.629 9.82598 29.629 10.2029 29.629C10.7679 29.629 11.0449 30.0724 11.0449 30.0724L15.494 37.5855C15.7492 38.0164 15.9729 38.8271 15.9729 39.3204V43.4075C15.9729 44.1328 16.4851 44.6594 17.1907 44.6594H17.1908C17.391 44.6594 17.596 44.617 17.7998 44.533L26.6531 40.8838C27.4364 40.561 28.027 39.7995 28.027 39.1127C28.027 38.7301 28.2507 38.0165 28.5059 37.5856L33.0164 29.969C33.0164 29.969 33.2423 29.6291 33.6378 29.6291C34.0546 29.6291 35.3048 29.6291 35.3048 29.6291C36.2395 29.6291 36.9999 28.9129 36.9999 28.0324C36.9999 28.0324 37 25.5403 37 25.4785Z" fill="#333232"/>
<path id="Vector_2" d="M26.8093 58.0376C26.609 58.0376 26.4041 58.0801 26.2003 58.1641L17.347 61.8133C16.5766 62.1307 15.9731 62.9999 15.9731 63.792V65.8245C15.9731 66.5498 16.4853 67.0764 17.1909 67.0764C17.3912 67.0764 17.5963 67.0339 17.8 66.9499L26.6534 63.3006C27.4237 62.9832 28.0272 62.114 28.0272 61.3219V59.2894C28.0271 58.5641 27.5149 58.0376 26.8093 58.0376Z" fill="#333232"/>
<path id="Vector_3" d="M26.8093 50.5653C26.609 50.5653 26.4041 50.6078 26.2003 50.6918L17.347 54.341C16.5766 54.6584 15.9731 55.5276 15.9731 56.3197V58.3522C15.9731 59.0776 16.4853 59.6041 17.1909 59.6041C17.3912 59.6041 17.5963 59.5616 17.8 59.4776L26.6534 55.8284C27.4237 55.5108 28.0272 54.6417 28.0272 53.8496V51.8171C28.0271 51.0918 27.5149 50.5653 26.8093 50.5653Z" fill="#333232"/>
<path id="Vector_4" d="M26.8093 65.51C26.609 65.51 26.4041 65.5525 26.2003 65.6366L17.347 69.2858C16.6632 69.5677 15.9731 70.1129 15.9731 70.6955C15.9731 71.1854 16.4677 71.8828 16.9272 72.3231L20.805 76.0408C21.1228 76.3453 21.5472 76.5131 22.0001 76.5131C22.4529 76.5131 22.8773 76.3453 23.1951 76.0407L27.073 72.3232C27.6169 71.8019 28.027 70.8574 28.027 70.1264V66.7618C28.0271 66.0365 27.5149 65.51 26.8093 65.51Z" fill="#333232"/>
<path id="Vector_5" d="M26.8093 43.0929C26.609 43.0929 26.4041 43.1354 26.2003 43.2194L17.347 46.8686C16.5766 47.186 15.9731 48.0552 15.9731 48.8473V50.8798C15.9731 51.6051 16.4853 52.1317 17.1909 52.1317C17.3912 52.1317 17.5963 52.0892 17.8 52.0052L26.6534 48.3559C27.4237 48.0385 28.0272 47.1693 28.0272 46.3772V44.3447C28.0271 43.6194 27.5149 43.0929 26.8093 43.0929Z" fill="#333232"/>
</g>
<g id="Layer_x0020_1">
<g id="_458934104">
<path id="Vector_6" fill-rule="evenodd" clip-rule="evenodd" d="M23.7969 0.125977H23.6116C12.7075 0.125977 3.39135 0.807663 1.30051 5.83062C1.08878 6.29703 0.982917 6.79933 0.903519 7.3375C0.877052 7.58865 0.850586 7.87568 0.850586 8.1627C0.850586 12.7192 5.00579 19.8769 7.75829 27.4293C7.78475 27.4473 7.81122 27.4652 7.83769 27.5011C11.543 30.6404 16.4392 32.0397 21.3355 32.0397C21.3355 32.0397 21.3355 32.0397 21.362 32.0397C21.362 32.0397 21.362 32.0397 21.3884 32.0397C27.2904 32.0397 33.2453 29.9946 37.1623 26.5324V26.5144C37.2153 26.4606 37.2947 26.4068 37.3476 26.335C37.4005 26.2992 37.427 26.2633 37.4799 26.2274C38.1681 24.0926 38.8826 22.0835 39.2002 20.5407C40.4971 14.1902 41.9263 9.47226 41.9527 6.20734C41.9527 2.13516 39.7296 0.26949 32.2131 0.197733C29.6194 0.161855 26.9993 0.125977 24.485 0.125977H23.7969Z" fill="url(#paint0_linear_910_1951)"/>
<path id="Vector_7" d="M28.1635 30.4437C29.4339 31.3945 34.0655 27.9143 35.8387 24.4341C39.1735 17.8684 40.5233 2.97892 39.2794 7.39194C36.1828 18.2631 29.9103 20.2364 27.7136 22.0841C25.808 23.6986 25.1199 28.1296 28.1635 30.4437Z" fill="#AFAFAD"/>
<path id="Vector_8" d="M30.5452 0.180345C29.2218 -0.0349246 27.6868 -0.0169855 26.1253 0.126527C24.5373 0.252101 19.0588 6.49492 21.4143 6.38728C36.6324 5.6159 31.842 0.377675 30.5452 0.180345Z" fill="#C2C0BE"/>
<path id="Vector_9" d="M11.4368 4.53907C10.881 3.69593 8.55196 3.87532 6.40819 4.80815C3.94682 5.8845 3.65569 16.9888 19.6943 21.5454C29.1957 24.2542 13.3159 19.0159 10.9869 10.4949C10.087 7.26581 12.7336 6.56619 11.4368 4.53907Z" fill="#E9EAE9"/>
</g>
</g>
</g>
<defs>
<linearGradient id="paint0_linear_910_1951" x1="0.853762" y1="16.0792" x2="41.9406" y2="16.0792" gradientUnits="userSpaceOnUse">
<stop stop-color="white"/>
<stop offset="0.180392" stop-color="white"/>
<stop offset="1" stop-color="#A4A4A3"/>
</linearGradient>
</defs>
</svg>
