<svg width="43" height="76" viewBox="0 0 43 76" fill="none" xmlns="http://www.w3.org/2000/svg">
<g id="Group 306">
<g id="Group">
<path id="Vector" d="M36 24.4785C36 23.4029 33.5147 22.598 31.4298 22.1122C28.353 21.3949 24.4714 21 20.5001 21C16.5287 21 12.6471 21.3949 9.57032 22.112C7.48543 22.5979 5 23.4029 5 24.4784C5 24.5402 5 27.0323 5 27.0323C5 27.9128 5.78578 28.629 6.75162 28.629C6.75162 28.629 7.92018 28.629 8.30962 28.629C8.89349 28.629 9.17971 29.0724 9.17971 29.0724L13.7771 36.5855C14.0408 37.0164 14.272 37.8271 14.272 38.3204V42.4075C14.272 43.1328 14.8012 43.6594 15.5304 43.6594H15.5305C15.7374 43.6594 15.9492 43.617 16.1598 43.533L25.3082 39.8838C26.1176 39.561 26.7279 38.7995 26.7279 38.1127C26.7279 37.7301 26.9591 37.0165 27.2228 36.5856L31.8836 28.969C31.8836 28.969 32.117 28.6291 32.5257 28.6291C32.9564 28.6291 34.2483 28.6291 34.2483 28.6291C35.2141 28.6291 35.9999 27.9129 35.9999 27.0324C35.9999 27.0324 36 24.5403 36 24.4785Z" fill="#333232"/>
<path id="Vector_2" d="M25.4696 57.0376C25.2626 57.0376 25.0508 57.0801 24.8403 57.1641L15.6918 60.8133C14.8958 61.1307 14.2722 61.9999 14.2722 62.792V64.8245C14.2722 65.5498 14.8014 66.0764 15.5306 66.0764C15.7375 66.0764 15.9494 66.0339 16.16 65.9499L25.3085 62.3006C26.1045 61.9832 26.7281 61.114 26.7281 60.3219V58.2894C26.728 57.5641 26.1987 57.0376 25.4696 57.0376Z" fill="#333232"/>
<path id="Vector_3" d="M25.4696 49.5653C25.2626 49.5653 25.0508 49.6078 24.8403 49.6918L15.6918 53.341C14.8958 53.6584 14.2722 54.5276 14.2722 55.3197V57.3522C14.2722 58.0776 14.8014 58.6041 15.5306 58.6041C15.7375 58.6041 15.9494 58.5616 16.16 58.4776L25.3085 54.8284C26.1045 54.5108 26.7281 53.6417 26.7281 52.8496V50.8171C26.728 50.0918 26.1987 49.5653 25.4696 49.5653Z" fill="#333232"/>
<path id="Vector_4" d="M25.4696 64.51C25.2626 64.51 25.0508 64.5525 24.8403 64.6366L15.6918 68.2858C14.9852 68.5677 14.2722 69.1129 14.2722 69.6955C14.2722 70.1854 14.7832 70.8828 15.258 71.3231L19.2651 75.0408C19.5935 75.3453 20.0321 75.5131 20.5 75.5131C20.9679 75.5131 21.4065 75.3453 21.7349 75.0407L25.742 71.3232C26.3041 70.8019 26.7278 69.8574 26.7278 69.1264V65.7618C26.728 65.0365 26.1987 64.51 25.4696 64.51Z" fill="#333232"/>
<path id="Vector_5" d="M25.4696 42.0929C25.2626 42.0929 25.0508 42.1354 24.8403 42.2194L15.6918 45.8686C14.8958 46.186 14.2722 47.0552 14.2722 47.8473V49.8798C14.2722 50.6051 14.8014 51.1317 15.5306 51.1317C15.7375 51.1317 15.9494 51.0892 16.16 51.0052L25.3085 47.3559C26.1045 47.0385 26.7281 46.1693 26.7281 45.3772V43.3447C26.728 42.6194 26.1987 42.0929 25.4696 42.0929Z" fill="#333232"/>
</g>
<g id="Layer_x0020_1">
<g id="_-1972434520">
<path id="Vector_6" fill-rule="evenodd" clip-rule="evenodd" d="M16.008 0.123535C14.1101 0.141167 12.2122 0.176432 10.2872 0.194064C2.58707 0.264593 0.30957 2.09835 0.30957 6.10087C0.336683 9.30994 1.80079 13.9472 3.12933 20.189C3.45468 21.7054 4.18674 23.6802 4.89168 25.7785C12.1309 32.2671 26.7719 33.9774 35.3396 26.9598C38.1594 19.5366 42.4161 12.5014 42.4161 8.00515C42.4161 7.74067 42.389 7.45855 42.3619 7.2117C41.5485 0.916986 31.2998 0.123535 19.0989 0.123535C18.0686 0.123535 17.0383 0.123535 16.008 0.123535Z" fill="url(#paint0_linear_910_1950)"/>
<path id="Vector_7" fill-rule="evenodd" clip-rule="evenodd" d="M24.7117 31.0854H24.7388H24.793H24.9286C28.3991 30.9973 32.7372 28.1937 35.3942 21.4406C36.7499 17.9494 41.1151 12.3247 41.1151 7.49349C41.1151 6.40029 40.8982 5.34236 40.383 4.37258C38.6478 1.11062 31.1917 0.899033 29.5649 0.810872C28.7787 0.757975 28.0466 0.72271 27.3959 0.72271C27.1248 0.705078 26.8536 0.705078 26.5825 0.705078C23.0036 0.705078 21.6479 1.25168 21.4039 2.11566C21.0243 3.47334 23.4916 5.65974 24.3321 7.81087C24.3592 7.8285 24.3592 7.84614 24.3592 7.86377C24.3863 7.8814 24.3863 7.91667 24.4135 7.9343C24.6575 8.3751 25.2811 8.67485 25.9589 8.69248C25.9589 8.69248 25.986 8.69248 26.0131 8.69248C26.0402 8.69248 26.0402 8.69248 26.0402 8.69248C26.2843 8.69248 26.5283 8.65722 26.7452 8.58669C26.7723 8.56906 26.7723 8.56906 26.7994 8.56906C26.8265 8.55143 26.8536 8.55143 26.8536 8.53379C26.9079 8.51616 26.935 8.51616 26.9892 8.49853C27.0163 8.4809 27.0434 8.46327 27.0976 8.44563C27.0976 8.44563 27.0976 8.44563 27.1248 8.44563C27.1519 8.428 27.179 8.41037 27.2061 8.39274C28.4533 7.8814 29.7276 7.10558 30.9477 6.36503C32.7372 5.28946 34.4182 4.28442 35.9365 4.23153C35.9907 4.23153 36.0449 4.23153 36.0721 4.23153H36.0992C36.9397 4.23153 37.726 4.54891 38.4038 5.30709C38.4309 5.32473 38.4309 5.32473 38.4309 5.34236C38.4851 5.37762 38.5394 5.43052 38.5665 5.50105C39.0816 6.11818 39.3256 6.82347 39.3256 7.52876C39.3256 7.79324 39.2714 8.04009 39.2172 8.30458C38.2682 12.4834 35.2858 17.7555 32.4389 19.7126C26.8536 23.5388 21.8377 22.4456 21.8377 25.3726C21.8377 26.5011 22.5969 28.229 24.3592 31.0678C24.4677 31.0854 24.6032 31.0854 24.7117 31.0854Z" fill="url(#paint1_linear_910_1950)"/>
<path id="Vector_8" d="M38.1054 7.98726C38.1596 6.92933 38.1325 3.89658 35.0145 4.74293C32.493 5.41295 34.9603 8.04016 33.6317 10.2442C31.6525 13.5062 32.3574 14.3701 35.6923 12.1308C36.804 11.3903 38.0241 9.09809 38.1054 7.98726Z" fill="#D7D6D4"/>
<path id="Vector_9" d="M3.99657 2.32764C2.55958 2.32764 1.5564 10.5266 5.67758 16.1866C9.79877 21.8289 13.7844 23.2747 16.1974 23.6803C18.6376 24.0858 19.8848 23.7332 20.5626 22.7105C21.3489 21.4939 20.1288 19.2193 14.9231 18.1085C11.29 17.3327 7.06035 11.7609 6.27407 7.21177C5.70469 4.02033 5.9216 2.32764 3.99657 2.32764Z" fill="#E9EAE9"/>
</g>
</g>
</g>
<defs>
<linearGradient id="paint0_linear_910_1950" x1="42.4126" y1="15.8037" x2="0.322315" y2="15.8037" gradientUnits="userSpaceOnUse">
<stop stop-color="#A4A4A3"/>
<stop offset="0.819608" stop-color="white"/>
<stop offset="1" stop-color="white"/>
</linearGradient>
<linearGradient id="paint1_linear_910_1950" x1="21.7602" y1="15.8953" x2="40.7187" y2="15.8953" gradientUnits="userSpaceOnUse">
<stop stop-color="#C1C0BF"/>
<stop offset="1" stop-color="#B0AFAE"/>
</linearGradient>
</defs>
</svg>
