<svg width="43" height="48" viewBox="0 0 43 48" fill="none" xmlns="http://www.w3.org/2000/svg">
<path fill-rule="evenodd" clip-rule="evenodd" d="M23.4354 47.2316H23.4638H23.4922C23.5774 47.2316 23.691 47.2316 23.8046 47.2316H23.833C28.0355 46.9044 39.99 26.6183 40.2172 19.7664C40.132 19.728 40.0468 19.6895 39.9616 19.651C39.9332 19.651 39.9048 19.6317 39.8764 19.6125C39.8196 19.5932 39.7912 19.574 39.7345 19.5547C33.3455 16.6292 25.1675 15.0317 17.3588 15.0317C14.4624 15.0317 11.5945 15.2435 8.9253 15.7054C6.3697 16.1481 3.98448 16.7832 1.82642 17.6493C2.82026 20.2476 1.3153 24.0777 5.06351 29.871C8.86851 35.7798 7.76108 39.4751 12.9575 42.6124C13.0427 42.6701 13.1562 42.7279 13.2414 42.7856C13.2982 42.8241 13.355 42.8626 13.4118 42.8818C14.0649 43.286 14.718 43.6709 15.3143 44.0174C15.3427 44.0174 15.3427 44.0366 15.3427 44.0366C18.665 45.9613 21.0786 47.0584 23.0095 47.2124C23.1515 47.2316 23.2934 47.2316 23.4354 47.2316Z" fill="url(#paint0_linear_954_2070)"/>
<path fill-rule="evenodd" clip-rule="evenodd" d="M0.0658071 9.91241C0.0658071 12.0681 0.548531 14.6086 1.76954 17.5149L1.82633 17.6496C1.91152 17.6304 1.9967 17.5919 2.08189 17.5534C6.4548 15.8404 11.7932 15.0321 17.3303 15.0321H17.3587H17.3871C25.2242 15.0321 33.459 16.6488 39.8763 19.6128C39.9047 19.632 39.9047 19.632 39.9331 19.6513C40.0183 19.6898 40.1035 19.7283 40.2171 19.7668C40.2171 19.6898 40.2171 19.5935 40.2171 19.5166C40.2171 19.3241 40.1887 19.1509 40.1887 18.9776C40.1887 18.9776 42.0344 15.2053 42.0344 11.0095C42.0344 9.85467 41.8924 8.68062 41.5517 7.54506C39.6492 1.52082 34.6516 3.6957 30.5342 1.925C30.5058 1.925 30.449 1.90575 30.4206 1.88651C30.3638 1.86726 30.3354 1.84801 30.2787 1.82877C30.2787 1.82877 30.2503 1.82877 30.2503 1.80952C30.2219 1.80952 30.2219 1.80952 30.1935 1.79027C28.6317 1.21287 26.928 1.00116 25.1391 1.00116H25.1107H25.0823C22.981 1.00116 20.7661 1.28986 18.5797 1.54006C18.2389 1.57856 17.8982 1.61705 17.5575 1.65555C17.3019 1.67479 17.0463 1.69404 16.8192 1.73253C16.7056 1.73253 16.592 1.75178 16.5068 1.75178C16.3932 1.77103 16.3081 1.77103 16.1945 1.79027H16.1661C16.0525 1.79027 15.9389 1.80952 15.8537 1.80952C15.7685 1.82877 15.6833 1.82877 15.5982 1.82877C15.0586 1.86726 14.5759 1.88651 14.15 1.88651H14.1216C10.8277 1.88651 11.0833 0.770194 9.43633 0.327518C9.0388 0.231284 8.49928 0.154297 7.761 0.154297C4.5523 0.154297 0.0374116 3.38776 0.0658071 9.91241Z" fill="url(#paint1_linear_954_2070)"/>
<path d="M35.8728 18.034C35.8728 18.034 31.3579 16.6482 30.0517 16.398C29.8245 13.7612 29.3702 11.8943 28.8875 10.7202C27.5813 7.50601 23.0664 -1.90567 29.6257 2.69431C30.5912 3.36795 31.4715 6.33196 33.5159 6.60141C36.7246 7.02484 37.0086 3.59891 38.0024 4.48427C39.5074 5.88928 34.1406 15.3587 35.8728 18.034Z" fill="#AFAFAD"/>
<path d="M15.2294 2.27106C10.7429 1.78989 11.6516 1.11625 9.74905 0.442616C7.90335 -0.211775 6.02924 1.36646 8.95398 2.75223C12.2479 4.34971 17.3023 2.48277 15.2294 2.27106Z" fill="#E9EAE9"/>
<path d="M31.4714 34.6056C29.3418 38.4742 28.6603 41.0533 24.5997 44.0558C20.7095 46.9428 26.7578 41.0533 28.2059 35.1638C29.7109 29.101 30.506 21.2483 30.08 16.6099C32.2381 16.8986 33.6295 17.1873 35.8727 18.0341C35.3616 22.6341 34.5097 29.178 31.4714 34.6056Z" fill="#E4BB47"/>
<path d="M22.47 45.249C22.4416 49.2139 30.8183 22.711 24.8553 17.9186C22.1293 15.7052 21.6182 16.6483 22.7824 25.4633C23.8898 33.8357 22.47 35.8951 22.47 45.249Z" fill="#DECB8E"/>
<path d="M23.1801 43.6132C22.6405 45.9806 29.711 24.7321 24.0035 18.015C22.1862 15.8978 24.1455 21.4602 24.2875 26.5798C24.4295 31.6994 24.4011 38.1856 23.1801 43.6132Z" fill="#CBBC84"/>
<path fill-rule="evenodd" clip-rule="evenodd" d="M5.71678 0.423429C4.43898 0.866105 3.18958 1.69372 2.16734 2.964C-0.07591 5.73554 -1.09815 10.605 1.68461 18.1112C2.25252 20.8635 1.34387 24.7899 4.43898 29.5823C7.70447 34.5287 7.70447 37.7814 10.2033 40.553V40.5722C10.2601 40.63 10.3169 40.6877 10.3736 40.7454C10.402 40.7647 10.402 40.7839 10.4304 40.8032C10.4588 40.8417 10.5156 40.8802 10.544 40.9187C10.5724 40.9379 10.6008 40.9571 10.6292 40.9764C10.7712 41.1111 10.9416 41.2458 11.1119 41.3806C11.1687 41.4383 11.2255 41.4768 11.2823 41.5153C14.0083 43.6517 20.3121 47.2701 23.606 47.2701C23.6628 47.2701 23.7479 47.2701 23.8047 47.2508C23.8331 47.2508 23.8331 47.2508 23.8615 47.2508C24.3726 47.1739 25.0257 46.8082 25.7356 46.2308C25.7924 46.173 25.8776 46.1153 25.9628 46.0575C25.9628 46.0383 25.9912 46.0383 25.9912 46.019C25.9912 46.019 26.0196 45.9998 26.0196 45.9806C26.048 45.9806 26.048 45.9613 26.0764 45.9613C26.0764 45.9421 26.0764 45.9421 26.1048 45.9228C26.1048 45.9036 26.1332 45.9036 26.1332 45.8843C26.1616 45.8843 26.1616 45.8651 26.19 45.8651C26.19 45.8458 26.19 45.8266 26.2184 45.8266C26.2184 45.8073 26.2467 45.8073 26.2467 45.7881C26.2751 45.7688 26.2751 45.7688 26.3035 45.7496L26.3319 45.7303V45.7111L26.3603 45.6919C26.3603 45.6919 26.3603 45.6919 26.3603 45.6726C26.3887 45.6726 26.3887 45.6534 26.4171 45.6534C26.4171 45.6341 26.4455 45.6341 26.4455 45.6149C26.4739 45.5956 26.4739 45.5956 26.4739 45.5764C26.4739 45.5764 26.4739 45.5764 26.5023 45.5764C26.5023 45.5571 26.5023 45.5571 26.5307 45.5379C26.5307 45.5186 26.5591 45.5186 26.5591 45.4994C26.5875 45.4994 26.5875 45.4801 26.5875 45.4609H26.6159C26.6159 45.4609 26.6159 45.4416 26.6443 45.4416C26.6443 45.4224 26.6443 45.4224 26.6443 45.4224L26.6727 45.4032V45.3839C26.7011 45.3839 26.7011 45.3647 26.7295 45.3647V45.3454L26.7579 45.3262V45.3069C26.7863 45.3069 26.7863 45.2877 26.7863 45.2877C26.7863 45.2877 26.7863 45.2684 26.8147 45.2684C26.8147 45.2684 26.8147 45.2492 26.8431 45.2492C26.8431 45.2299 26.8431 45.2299 26.8431 45.2299L26.8714 45.2107C26.8714 45.1914 26.8714 45.1914 26.8714 45.1914C26.8998 45.1914 26.8998 45.1722 26.8998 45.1722C26.9282 45.1529 26.9282 45.1529 26.9282 45.1529C26.9282 45.1529 26.9566 45.1337 26.9566 45.1145C26.985 45.0952 26.985 45.0952 26.985 45.076H27.0134C27.0134 45.0567 27.0134 45.0567 27.0418 45.0375C27.0418 45.0182 27.0702 45.0182 27.0702 44.999C27.0702 44.999 27.0702 44.999 27.0986 44.9797C27.0986 44.9797 27.0986 44.9797 27.0986 44.9605C27.127 44.9605 27.127 44.9605 27.127 44.9412L27.1554 44.922V44.9027C27.1838 44.9027 27.1838 44.8835 27.1838 44.8835C27.2122 44.8642 27.2122 44.8642 27.2122 44.8642C27.2122 44.8642 27.2122 44.845 27.2406 44.845C27.2406 44.8257 27.2406 44.8257 27.2406 44.8257C27.269 44.8065 27.269 44.8065 27.269 44.7873H27.2974C27.2974 44.768 27.2974 44.768 27.3258 44.7488C27.3258 44.7488 27.3258 44.7488 27.3258 44.7295L27.3542 44.7103C27.3542 44.7103 27.3542 44.691 27.3826 44.691V44.6718C27.411 44.6525 27.411 44.6525 27.411 44.6525C27.411 44.6333 27.4394 44.6333 27.4394 44.614C27.4394 44.614 27.4394 44.614 27.4678 44.5948C27.4678 44.5948 27.4678 44.5948 27.4678 44.5755C27.4962 44.5755 27.4962 44.5563 27.4962 44.5563L27.5245 44.537V44.5178C27.5529 44.4986 27.5529 44.4986 27.5529 44.4986C27.5529 44.4793 27.5813 44.4793 27.5813 44.4793C27.5813 44.4601 27.5813 44.4601 27.6097 44.4408C27.6097 44.4408 27.6097 44.4408 27.6097 44.4216C27.6381 44.4216 27.6381 44.4023 27.6381 44.4023L27.6665 44.3831C27.6665 44.3638 27.6665 44.3638 27.6949 44.3638C27.6949 44.3446 27.6949 44.3446 27.6949 44.3253C27.7233 44.3253 27.7233 44.3253 27.7233 44.3061L27.7517 44.2868C27.7517 44.2868 27.7517 44.2676 27.7801 44.2676C27.7801 44.2483 27.7801 44.2483 27.7801 44.2483C27.8085 44.2291 27.8085 44.2291 27.8085 44.2099C27.8085 44.2099 27.8369 44.2099 27.8369 44.1906V44.1714C27.8653 44.1714 27.8653 44.1521 27.8653 44.1521C27.8937 44.1329 27.8937 44.1329 27.8937 44.1329C27.8937 44.1136 27.8937 44.1136 27.9221 44.0944C27.9221 44.0944 27.9221 44.0944 27.9221 44.0751C27.9505 44.0751 27.9505 44.0559 27.9505 44.0559C27.9505 44.0366 27.9789 44.0366 27.9789 44.0366C27.9789 44.0174 27.9789 44.0174 28.0073 43.9981C28.0073 43.9981 28.0073 43.9981 28.0073 43.9789C28.0357 43.9789 28.0357 43.9596 28.0357 43.9596C28.0357 43.9404 28.0641 43.9404 28.0641 43.9404C28.0641 43.9212 28.0641 43.9212 28.0925 43.9019C28.0925 43.9019 28.0925 43.9019 28.0925 43.8827C28.1209 43.8827 28.1209 43.8634 28.1209 43.8634C28.1209 43.8442 28.1492 43.8442 28.1492 43.8442C28.1492 43.8249 28.1492 43.8249 28.1776 43.8057C28.1776 43.8057 28.1776 43.8057 28.1776 43.7864C28.206 43.7864 28.206 43.7672 28.206 43.7479H28.2344C28.2344 43.7287 28.2344 43.7287 28.2628 43.7094V43.6902C28.2912 43.6902 28.2912 43.6709 28.2912 43.6517H28.3196C28.3196 43.6324 28.3196 43.6132 28.348 43.6132C28.348 43.594 28.348 43.594 28.348 43.594C28.3764 43.5747 28.3764 43.5747 28.3764 43.5555C28.4048 43.5555 28.4048 43.5555 28.4048 43.5555C28.4048 43.5362 28.4048 43.517 28.4332 43.4977C28.4616 43.4785 28.4616 43.4592 28.4616 43.4592C28.49 43.4592 28.49 43.4592 28.49 43.44C28.49 43.44 28.5184 43.4207 28.5184 43.4015C28.5468 43.3822 28.5468 43.363 28.5468 43.3437C28.5752 43.3437 28.5752 43.3437 28.5752 43.3437C28.5752 43.3245 28.6036 43.3245 28.6036 43.3053C28.6036 43.3053 28.6036 43.3053 28.6036 43.286C28.632 43.286 28.632 43.2668 28.6604 43.2475C28.6604 43.2283 28.6888 43.209 28.6888 43.1898C28.7172 43.1513 28.7456 43.132 28.7739 43.0935C28.8023 43.0743 28.8023 43.055 28.8307 43.0358C28.8307 43.0166 28.8591 42.9973 28.8591 42.9781C28.8875 42.9588 28.8875 42.9588 28.9159 42.9396C34.3395 36.2994 41.0124 23.9045 40.6433 19.0158C40.9272 18.4192 41.1828 17.784 41.41 17.1296V17.1104C41.4384 17.0911 41.4384 17.0719 41.4384 17.0334C41.4384 17.0334 41.4667 17.0334 41.4667 17.0142C41.4667 16.9949 41.4667 16.9757 41.4667 16.9564C41.4951 16.9564 41.4951 16.9372 41.4951 16.9372C41.4951 16.9179 41.4951 16.8987 41.4951 16.8794C41.5235 16.8602 41.5235 16.8409 41.5235 16.8409C41.5235 16.8217 41.5235 16.8024 41.5235 16.7832C41.5519 16.7639 41.5519 16.7639 41.5519 16.7447C41.5519 16.7255 41.5519 16.7062 41.5519 16.7062C41.5803 16.687 41.5803 16.6677 41.5803 16.6485C41.5803 16.6292 41.5803 16.6292 41.5803 16.61C41.6087 16.5907 41.6087 16.5715 41.6087 16.5522V16.533C41.6371 16.5137 41.6371 16.4752 41.6371 16.456C41.6371 16.456 41.6371 16.456 41.6371 16.4367C41.6655 16.4175 41.6655 16.3983 41.6655 16.379C41.6655 16.3598 41.6655 16.3598 41.6655 16.3405C41.6939 16.3213 41.6939 16.302 41.6939 16.2828C41.6939 16.2635 41.6939 16.2635 41.6939 16.2635C41.7223 16.2443 41.7223 16.2058 41.7223 16.1865C41.7223 16.1865 41.7223 16.1865 41.7223 16.1673C41.7223 16.148 41.7507 16.1096 41.7507 16.0903C42.6026 13.2225 42.8297 10.1431 41.9495 7.41001C40.1038 2.11715 36.3272 2.98325 32.5506 2.23263C32.5222 2.23263 32.4938 2.23263 32.4654 2.23263C32.437 2.21338 32.4086 2.21338 32.3802 2.21338C32.295 2.19413 32.2098 2.17489 32.1246 2.15564C32.0962 2.15564 32.0962 2.15564 32.0678 2.15564C32.0394 2.13639 32.0394 2.13639 32.011 2.13639C30.2789 1.73221 29.5122 0.827612 25.4233 0.827612C25.4233 0.827612 25.4233 0.827612 25.3949 0.827612C24.1455 0.827612 22.5837 0.904599 20.596 1.11631C20.4257 1.13556 20.2837 1.15481 20.1133 1.17405C20.0565 1.17405 19.9997 1.17405 19.9429 1.1933C19.6874 1.21255 19.4318 1.25104 19.1763 1.27029C19.1479 1.27029 19.1195 1.28953 19.0911 1.28953C19.0343 1.28953 18.9775 1.28953 18.9207 1.30878C18.8355 1.30878 18.7503 1.32803 18.6935 1.32803C18.6651 1.32803 18.6651 1.32803 18.6651 1.32803C18.6367 1.32803 18.6083 1.34727 18.58 1.34727C18.5516 1.34727 18.4948 1.34727 18.4664 1.34727C18.438 1.36652 18.4096 1.36652 18.4096 1.36652C16.2515 1.59748 14.8317 1.71296 13.8663 1.71296C13.8095 1.71296 13.7527 1.71296 13.7243 1.71296C13.6959 1.71296 13.6959 1.71296 13.6959 1.71296C11.5379 1.71296 11.6798 1.17405 10.2033 0.461923C10.1749 0.461923 10.1749 0.461923 10.1749 0.461923C10.1465 0.442676 10.1465 0.442676 10.1181 0.442676C10.1181 0.423429 10.0897 0.423429 10.0613 0.404182C9.86253 0.307948 9.63536 0.230961 9.4082 0.173221C8.98226 0.0577403 8.52794 0 8.04521 0C7.30693 0 6.51185 0.134727 5.71678 0.423429ZM7.98842 0.269455C8.66991 0.269455 9.26622 0.384936 9.77734 0.59665C9.77734 0.615897 9.80573 0.615897 9.83413 0.635144C9.86253 0.635144 9.89092 0.65439 9.89092 0.673637C11.4811 1.38577 11.1687 2.00167 13.8095 2.02091C13.8379 2.02091 13.8379 2.02091 13.8379 2.02091C13.8947 2.02091 13.9515 2.02091 14.0083 2.00167C15.1157 2.00167 16.7342 1.88618 19.1195 1.65522C19.1479 1.65522 19.1479 1.65522 19.1763 1.63598C19.2614 1.63598 19.3466 1.63598 19.4602 1.61673C19.4602 1.61673 19.4886 1.61673 19.517 1.61673C19.5454 1.61673 19.5454 1.61673 19.5738 1.59748C19.6874 1.59748 19.801 1.57824 19.9145 1.57824C19.9713 1.55899 19.9997 1.55899 20.0281 1.55899C20.1417 1.53974 20.2553 1.53974 20.3405 1.5205C20.3973 1.5205 20.4257 1.5205 20.4541 1.5205C20.5108 1.50125 20.5392 1.50125 20.5676 1.50125C22.4417 1.32803 23.8899 1.25104 25.0825 1.25104H25.1109C25.1109 1.25104 25.1109 1.25104 25.1393 1.25104C29.2851 1.25104 29.853 2.17489 31.8123 2.63681C31.8407 2.65606 31.8975 2.65606 31.9259 2.6753C31.9542 2.6753 31.9826 2.6753 32.0394 2.69455C32.1246 2.7138 32.2098 2.73304 32.3234 2.75229C36.2704 3.5799 39.4223 2.6753 41.0692 7.56398C41.41 8.6418 41.5519 9.79661 41.5519 10.9707C41.5519 13.6652 40.8137 16.533 39.7062 18.9388C39.7062 19.0928 39.7346 19.2468 39.7346 19.4008C39.7346 26.0024 28.5184 46.3462 23.8331 47.1931C20.9652 47.3471 15.3429 44.2483 12.3329 41.9965C11.5379 41.3998 10.9416 40.8609 10.6008 40.4567C10.5724 40.4567 10.5724 40.4375 10.544 40.4182C8.21558 37.6275 8.52794 34.6634 5.17726 29.3898C1.96857 24.02 3.0192 21.1907 2.28092 18.015C2.19573 17.861 2.13894 17.707 2.08215 17.5531C2.05375 17.4376 1.99696 17.3221 1.96857 17.2066C1.94017 17.1681 1.94017 17.1296 1.91178 17.1104C-2.46113 4.88868 3.78588 0.327195 7.93163 0.269455C7.96002 0.269455 7.98842 0.269455 7.98842 0.269455Z" fill="url(#paint2_linear_954_2070)"/>
<defs>
<linearGradient id="paint0_linear_954_2070" x1="2.216" y1="31.134" x2="39.8242" y2="31.134" gradientUnits="userSpaceOnUse">
<stop stop-color="#FEFBF3"/>
<stop offset="1" stop-color="#EAB93A"/>
</linearGradient>
<linearGradient id="paint1_linear_954_2070" x1="0.0518933" y1="9.96438" x2="42.0421" y2="9.96438" gradientUnits="userSpaceOnUse">
<stop stop-color="white"/>
<stop offset="0.180392" stop-color="white"/>
<stop offset="1" stop-color="#A4A4A3"/>
</linearGradient>
<linearGradient id="paint2_linear_954_2070" x1="2.11878" y1="23.635" x2="40.3795" y2="23.635" gradientUnits="userSpaceOnUse">
<stop stop-color="#E9E9E9"/>
<stop offset="1" stop-color="#A4A4A3"/>
</linearGradient>
</defs>
</svg>
