<svg width="29" height="66" viewBox="0 0 29 66" fill="none" xmlns="http://www.w3.org/2000/svg">
<path fill-rule="evenodd" clip-rule="evenodd" d="M10.4885 0L10.4135 0L10.3384 0C9.58776 0 8.88716 0.0339197 8.21158 0.0847994C6.56015 0.220478 5.1089 0.508796 3.95791 0.966713C2.63177 1.50943 1.78103 2.37438 1.35567 3.2563C1.08043 3.81597 0.955322 4.83356 0.955322 6.08859C0.955322 9.73497 1.95618 15.4165 3.23228 18.1979C3.75774 19.3512 4.1831 20.5554 4.53341 21.7934C10.5886 24.7105 17.1693 25.5416 23.0994 22.7771C23.3246 22.3022 23.5498 21.8274 23.825 21.4034C25.4264 18.8763 27.8285 14.5855 27.8285 9.59929C27.8285 9.00569 27.8035 8.4121 27.7284 7.80154C27.3781 4.91836 26.3522 3.12062 22.3488 1.83167C20.1469 1.11935 17.0442 0.356157 12.6904 0.0678395C11.9398 0.0339197 11.1891 0 10.4885 0Z" fill="url(#paint0_linear_954_2127)"/>
<path fill-rule="evenodd" clip-rule="evenodd" d="M9.23774 51.9481C11.3896 56.9682 12.6157 65.3634 16.519 65.533C18.1955 65.6178 18.6709 64.9394 18.6709 63.8709C18.6959 62.4802 17.8452 60.428 17.8452 58.6133C17.8452 55.4249 19.6217 43.1629 20.5475 38.3633C21.3982 33.9706 20.9478 27.4241 23.0496 22.7771C17.1195 25.5416 10.5389 24.7106 4.48364 21.7935C7.08589 31.1553 5.3594 42.9085 9.23774 51.9481Z" fill="url(#paint1_linear_954_2127)"/>
<path d="M19.4216 32.2066C20.2222 38.38 17.8452 49.828 17.0695 52.9655C15.5933 58.9524 18.4707 63.0058 16.7693 61.1571C12.1903 56.2218 15.6683 45.0792 16.2939 39.9743C16.7693 35.9887 13.1662 32.1388 13.7917 27.6444C14.0419 25.9824 15.9185 25.7958 18.0203 24.9139C23.0997 22.777 19.0212 28.9503 19.4216 32.2066Z" fill="#E4BB47"/>
<path d="M26.4772 10.2777C26.4772 12.1942 25.5013 18.5202 23.4245 21.3525C22.849 22.1496 21.0475 23.4216 19.6212 23.4895C16.5186 23.6251 13.7662 20.9455 19.1208 14.789C22.1985 11.2614 25.8016 11.4649 23.0742 5.15584C22.5488 3.98561 23.5496 2.62882 24.6005 4.40961C25.5514 6.00384 26.5022 8.56478 26.4772 10.2777Z" fill="#AFAFAD"/>
<path fill-rule="evenodd" clip-rule="evenodd" d="M0.755127 6.34299V6.37691V6.44475C0.755127 6.88571 0.755127 7.34362 0.780149 7.80154C1.50577 18.9442 4.60845 18.9781 5.30905 27.9838C5.53425 30.5617 5.43416 34.0385 6.28489 40.3645C7.21069 46.911 7.38584 48.4713 11.7396 60.0888C12.19 61.2082 12.6404 62.3106 13.2909 63.379C13.316 63.413 13.316 63.4299 13.341 63.4469C13.416 63.5656 13.4911 63.6674 13.5662 63.7861C14.5921 65.1937 15.7681 65.7195 16.7439 65.7365C16.7689 65.7365 16.794 65.7365 16.819 65.7365C16.844 65.7365 16.844 65.7365 16.869 65.7365C17.8949 65.7195 18.6956 65.1429 18.8207 64.4814C18.8457 64.2949 18.8707 64.0914 18.8707 63.8709C18.8707 62.6158 18.2702 61.0216 18.0701 59.3426C18.0701 59.1221 18.045 58.8677 18.045 58.5964C18.045 53.9324 19.8716 43.3155 20.5972 39.3808C21.9234 33.2583 21.0226 26.6609 24.0752 21.539C26.8526 17.1295 28.0286 12.9404 28.0286 9.61625C28.0286 6.76699 27.1779 4.57917 25.7016 3.44285C25.6766 3.40893 25.6266 3.39197 25.6015 3.35805C23.3246 1.64511 16.3936 0 10.4385 0C8.28662 0 6.25987 0.220478 4.63347 0.729275C2.70681 1.32287 1.33062 2.3235 0.980321 3.86685C0.80517 4.647 0.755127 5.47804 0.755127 6.34299ZM10.5886 0.0847994C16.4937 0.101759 23.3996 1.72991 25.5265 3.54461C26.8776 4.63005 27.6033 6.61435 27.6033 9.10745C27.6033 12.5333 26.2771 16.926 23.4247 21.3525C20.3971 26.2369 21.3479 33.3261 20.1468 39.3469C19.5713 42.7558 17.7198 55.1535 17.7198 58.9695C17.7198 59.1221 17.7198 59.2408 17.7198 59.3596C17.8949 61.0047 18.4704 62.6158 18.4704 63.82C18.4704 64.0405 18.4454 64.244 18.3953 64.4306C18.3703 64.5493 18.3453 64.651 18.2702 64.7528C18.045 65.1429 17.5196 65.4312 16.844 65.4312C15.9182 65.4312 14.7422 64.8715 13.7663 63.2603C13.1408 62.2088 12.7154 61.1064 12.3151 60.004C5.78446 41.6704 7.08558 38.2784 6.13476 27.9499C5.43416 20.5893 1.00534 13.3135 0.980321 6.49563C0.980321 5.63068 1.05539 4.76572 1.23054 3.90077C1.73097 1.11935 5.78446 0.0847994 10.4885 0.0847994C10.5135 0.0847994 10.5135 0.0847994 10.5135 0.0847994C10.5386 0.0847994 10.5636 0.0847994 10.5886 0.0847994Z" fill="url(#paint2_linear_954_2127)"/>
<defs>
<linearGradient id="paint0_linear_954_2127" x1="27.832" y1="12.2311" x2="0.950818" y2="12.2311" gradientUnits="userSpaceOnUse">
<stop stop-color="#A4A4A3"/>
<stop offset="0.819608" stop-color="white"/>
<stop offset="1" stop-color="white"/>
</linearGradient>
<linearGradient id="paint1_linear_954_2127" x1="23.0521" y1="43.6736" x2="4.47764" y2="43.6736" gradientUnits="userSpaceOnUse">
<stop stop-color="#EAB93A"/>
<stop offset="1" stop-color="#FEFBF3"/>
</linearGradient>
<linearGradient id="paint2_linear_954_2127" x1="28.0324" y1="32.8716" x2="0.751374" y2="32.8716" gradientUnits="userSpaceOnUse">
<stop stop-color="#A4A4A3"/>
<stop offset="1" stop-color="#E9E9E9"/>
</linearGradient>
</defs>
</svg>
