<svg width="31" height="71" viewBox="0 0 31 71" fill="none" xmlns="http://www.w3.org/2000/svg">
<path fill-rule="evenodd" clip-rule="evenodd" d="M4.35314 22.1836C4.62838 26.9324 4.60336 35.9041 6.78023 43.2647C8.53174 49.1837 11.9097 54.0173 12.7103 59.3088C13.511 64.6002 14.9873 70.4344 20.1167 70.4344C22.0684 70.4344 22.2686 68.2636 22.2686 64.3628C22.2686 63.2265 22.2686 61.9375 22.2686 60.5129C22.2686 57.3923 22.3436 53.6102 22.9191 49.2685C24.6707 36.2264 23.0693 29.4763 25.096 26.4745C25.4463 25.9317 25.8216 25.3381 26.1719 24.7106C21.7181 27.8312 17.1642 31.2741 11.2341 28.2552C8.63183 26.5084 6.05461 24.0322 4.27808 21.4204C4.32812 21.6748 4.35314 21.9292 4.35314 22.1836Z" fill="url(#paint0_linear_954_2119)"/>
<path fill-rule="evenodd" clip-rule="evenodd" d="M8.00603 2.03544C2.35116 4.13847 0.674712 6.64853 0.674712 9.39603C0.649691 13.0933 3.72734 17.2484 4.27782 21.4206C6.05435 24.0324 8.63157 26.5085 11.2338 28.2554C17.1889 31.2573 21.7679 27.8144 26.1717 24.7108C28.5237 20.6574 30.7506 14.9758 30.7506 11.7026C30.7506 11.5499 30.7506 11.3973 30.7256 11.2447C30.4754 7.59828 26.6971 6.59765 24.2701 4.57942C21.843 2.57816 17.9646 0.0341797 15.7877 0.0341797C11.484 0.0341797 10.6833 1.03481 8.00603 2.03544Z" fill="url(#paint1_linear_954_2119)"/>
<path d="M18.3905 29.4082C20.0169 28.8994 21.8685 29.7474 21.8685 30.9685C21.8685 31.5281 21.8935 32.1387 21.9435 32.8171C22.3439 38.7191 21.5682 44.8586 19.9418 48.7424C18.2904 52.6262 19.1912 58.4095 20.142 61.0214C21.5682 64.9391 21.9685 67.6866 20.7675 69.1112C19.3913 70.6885 17.6899 60.4786 16.739 58.3756C13.7365 51.7274 17.7399 41.331 16.8642 31.0872C16.8141 30.3749 17.3896 29.7304 18.3404 29.4421L18.3905 29.4082Z" fill="#E4BB47"/>
<path d="M16.8892 28.7469C18.5407 29.3575 24.1205 27.0679 24.4708 25.0666C24.5458 24.5917 28.9997 18.7406 29.2999 11.787C29.5001 7.34354 21.293 3.23925 20.6175 2.88309C19.8168 2.42518 17.3897 0.322152 14.8375 0.661349C13.136 0.898787 12.7607 2.06902 14.6873 4.59604C17.5898 8.37809 19.1662 14.0427 18.3155 21.4202C17.8401 25.321 15.9885 28.4247 16.8892 28.7469Z" fill="#C2C0BE"/>
<path d="M27.7981 14.7382C27.1475 16.3664 24.6453 18.232 23.1441 18.8425C21.4176 19.2495 23.9447 16.519 22.7187 11.448C22.1182 8.9549 20.817 7.4794 19.8412 5.91909C18.1898 3.29031 19.8162 3.52775 21.868 4.54534C30.3252 8.76835 28.7739 12.2621 27.7981 14.7382Z" fill="#AFAFAD"/>
<path fill-rule="evenodd" clip-rule="evenodd" d="M15.8625 0L15.8375 0C15.8125 0 15.7874 0 15.7874 0C11.2335 0.0508796 11.3336 0.763194 6.8047 2.42526C1.97554 4.35869 0.499268 6.75003 0.499268 9.42969C0.499268 12.1602 2.0506 15.196 3.15155 18.2997C4.27752 21.1659 3.87718 22.6414 4.32757 29.9511C5.60367 49.6076 10.7831 49.3532 12.5096 60.1058C13.0601 63.1755 14.136 68.7044 17.9393 70.18C17.9643 70.18 17.9893 70.1969 18.0144 70.1969C18.79 70.4852 19.4406 70.6209 19.966 70.6209H19.9911C23.9195 70.6039 21.6675 63.1925 22.7935 51.9142C22.8185 51.6259 22.8685 51.3375 22.8936 51.0323C22.8936 50.9983 22.8936 50.9814 22.8936 50.9475C24.4949 38.465 23.8944 39.2621 24.3448 30.9178C24.7952 25.0158 28.4734 23.9643 30.6002 14.6024C30.8254 13.517 30.9255 12.6012 30.9255 11.821C30.9255 7.88634 28.1481 7.3945 23.5692 3.93469C18.6399 0.169599 16.2629 0 15.8625 0ZM16.0126 0.0678395C16.0126 0.0678395 16.0126 0.0678395 16.0377 0.0678395C16.1628 0.0678395 16.3629 0.101759 16.6132 0.169599C17.3638 0.339197 18.6399 0.780154 20.4665 1.91647C20.5666 1.98431 20.6666 2.03518 20.7667 2.10302C20.7918 2.11998 20.8418 2.1539 20.8918 2.18782C20.9419 2.22174 20.9919 2.25566 21.067 2.28958C21.067 2.28958 21.067 2.30654 21.092 2.30654C21.092 2.3235 21.117 2.3235 21.1421 2.34046C21.2421 2.4083 21.3673 2.4931 21.4924 2.5779C21.5674 2.62878 21.6425 2.67966 21.7176 2.73054C21.7426 2.7475 21.7426 2.7475 21.7676 2.76446C21.7926 2.78142 21.8176 2.79838 21.8427 2.81534C21.9177 2.86622 21.9928 2.93406 22.0929 2.98494C22.0929 3.0019 22.0929 3.0019 22.1179 3.0019C22.1429 3.03582 22.193 3.06974 22.243 3.0867C22.268 3.12062 22.2931 3.13758 22.3181 3.1715C22.3931 3.20542 22.4432 3.23934 22.4932 3.27326C22.5182 3.30718 22.5683 3.34109 22.5933 3.35805C22.6183 3.37501 22.6183 3.37501 22.6434 3.39197C22.6934 3.42589 22.7434 3.47677 22.8185 3.51069C22.9686 3.64637 23.1438 3.76509 23.3189 3.90077C23.344 3.91773 23.344 3.91773 23.369 3.93469C23.394 3.95165 23.419 3.98557 23.444 4.00253C27.0722 7.12315 30.5001 7.53018 30.5251 11.6684C30.5251 13.4661 29.8746 15.9253 28.3483 19.6056C24.8703 27.6955 24.0446 25.372 23.6943 30.9009C22.4682 62.1919 22.4182 42.1962 22.0929 65.2446C22.0679 66.5336 22.0428 67.7886 21.7676 68.7214C21.3673 70.1291 20.4415 70.8244 18.1645 69.9256C14.5864 68.5179 13.6106 63.0059 13.1602 60.0549C11.3586 47.335 6.30427 52.6604 4.828 23.8625C4.70289 18.1979 0.874591 13.1948 0.899613 9.07353C0.899613 6.54651 2.32584 4.35869 6.87977 2.52702C11.4087 0.831034 11.2585 0.135679 15.8125 0.0508796C15.8125 0.0508796 15.8125 0.0508796 15.8375 0.0508796C15.8875 0.0508796 15.9376 0.0508796 16.0126 0.0678395Z" fill="url(#paint2_linear_954_2119)"/>
<defs>
<linearGradient id="paint0_linear_954_2119" x1="26.1742" y1="45.9291" x2="4.28683" y2="45.9291" gradientUnits="userSpaceOnUse">
<stop stop-color="#EAB93A"/>
<stop offset="1" stop-color="#FEFBF3"/>
</linearGradient>
<linearGradient id="paint1_linear_954_2119" x1="30.7521" y1="14.7204" x2="0.663703" y2="14.7204" gradientUnits="userSpaceOnUse">
<stop stop-color="#A4A4A3"/>
<stop offset="0.819608" stop-color="white"/>
<stop offset="1" stop-color="white"/>
</linearGradient>
<linearGradient id="paint2_linear_954_2119" x1="30.9282" y1="35.3105" x2="0.496516" y2="35.3105" gradientUnits="userSpaceOnUse">
<stop stop-color="#A4A4A3"/>
<stop offset="1" stop-color="#E9E9E9"/>
</linearGradient>
</defs>
</svg>
