<svg width="35" height="69" viewBox="0 0 35 69" fill="none" xmlns="http://www.w3.org/2000/svg">
<path fill-rule="evenodd" clip-rule="evenodd" d="M7.25021 2.61146C7.20017 2.62842 7.17515 2.64538 7.12511 2.66234C2.22088 4.79929 0.544434 7.20759 0.544434 9.71765C0.544434 14.229 5.89905 19.0286 7.27524 22.9972C11.9543 26.491 17.8343 27.322 23.7394 26.3214C25.566 25.6938 26.3667 24.7271 27.3175 23.7943C29.5194 20.4532 33.7731 15.3992 33.7731 10.413C33.7731 5.6812 27.843 4.30745 25.4159 2.9337C23.0138 1.57691 17.9094 0.0844411 15.4573 0.0166016C15.4323 0.0166016 15.3822 0.0166016 15.3322 0.0166016C15.2821 0.0166016 15.2071 0.0166016 15.157 0.0166016C12.1544 0.0166016 10.428 1.22075 7.25021 2.61146Z" fill="url(#paint0_linear_954_2112)"/>
<path fill-rule="evenodd" clip-rule="evenodd" d="M7.52585 23.9134C8.32654 28.289 8.02628 41.0089 9.40247 46.6227C10.9038 52.5586 12.1048 53.1861 13.1807 57.2904C14.2567 61.3947 13.8563 67.7886 17.0841 67.8734C20.1868 67.9582 21.7881 56.8325 21.7881 53.1861C21.7881 49.5398 23.1393 42.9763 23.94 39.1434C24.7407 35.3443 24.8908 28.747 26.242 25.6433C26.4672 25.1175 26.8425 24.49 27.3179 23.7947C26.3671 24.7275 25.5664 25.6942 23.7398 26.3217C17.8347 27.3223 11.9547 26.4913 7.27563 22.9976C7.37572 23.3028 7.47581 23.6081 7.52585 23.9134Z" fill="url(#paint1_linear_954_2112)"/>
<path d="M22.239 43.4679C21.3883 48.3693 20.3374 52.6771 19.9871 57.1545C19.7118 60.5126 20.4625 64.2777 18.6109 65.2613C16.9595 66.1433 17.635 61.1231 17.7852 58.5622C17.9603 55.4416 18.8111 49.6752 19.2865 44.2141C19.7619 38.7531 20.6376 33.0715 19.2614 29.3064C18.4607 27.0847 21.8387 26.525 22.3891 27.1186C23.7153 28.5263 22.8896 39.8385 22.239 43.4679Z" fill="#E4BB47"/>
<path d="M22.1138 24.9142C21.9136 25.6265 21.0128 28.1535 20.2372 25.3043C19.5616 22.8281 23.6151 19.5209 22.2889 14.3312C21.1129 9.66726 13.7065 2.56108 16.534 1.47565C20.5374 -0.0677018 31.7471 5.0881 31.1716 9.9895C30.6461 14.5347 23.1647 20.9965 22.1138 24.9142Z" fill="#AFAFAD"/>
<path fill-rule="evenodd" clip-rule="evenodd" d="M15.1077 0C14.5072 0 13.9317 0.0508796 13.3812 0.135679C13.2311 0.169599 13.106 0.186559 12.9809 0.220478C11.5046 0.508796 4.42349 3.62941 2.87215 4.83356C1.04557 6.24123 0.344971 7.83546 0.344971 9.51449C0.369992 14.1785 5.72461 19.4869 6.92564 23.0824C7.40105 24.9141 7.4511 26.9323 7.5762 28.9505C7.8014 33.0378 7.85144 37.3456 8.27681 41.7891C9.25265 52.3721 12.1051 51.2019 13.7065 62.2088C14.0067 64.0066 14.332 66.2961 15.5831 67.4325C16.1836 67.9243 16.7091 68.1448 17.2095 68.1448C21.3381 68.1108 21.6633 52.0838 23.6901 41.4838C23.7151 41.399 23.7401 41.2973 23.7401 41.2125C23.7401 41.1955 23.7652 41.1616 23.7652 41.1446C23.7902 41.0599 23.7902 40.9751 23.8152 40.8903C23.8652 40.6359 23.9153 40.3815 23.9653 40.1271C24.9912 35.7175 25.0162 31.3758 26.0171 27.3902C26.7427 23.5233 34.024 16.8242 34.024 11.0578C34.024 8.51386 32.5978 6.15643 28.5943 4.30781C25.9921 3.1715 21.3381 0.729275 16.9593 0.135679C16.3338 0.0508796 15.7082 0 15.1077 0ZM15.408 0.0847994C17.5348 0.0847994 20.137 0.661435 23.7401 2.18782C23.7652 2.20478 23.7652 2.20478 23.7902 2.22174C23.8652 2.25566 23.9653 2.28958 24.0404 2.3235C24.1405 2.35742 24.2155 2.4083 24.3156 2.44222C29.8204 4.86748 33.5736 6.63131 33.5736 10.566C33.5736 13.11 32.0223 16.5698 28.3691 21.6917C23.2897 28.9335 25.5417 30.7313 23.5149 40.0931C22.6892 44.5027 21.7134 49.0819 21.6633 53.7628C21.5132 56.5951 20.4623 65.2955 17.81 67.4664C17.5098 67.7547 16.9843 67.8395 16.4338 67.5512C15.9084 67.2798 15.3829 66.7032 15.0076 65.6686C13.6815 61.8696 15.1577 60.7503 11.4796 51.7954C7.47612 42.247 9.30269 28.4417 7.67629 22.9637C5.99984 18.3336 0.870424 14.772 0.895445 9.71801C0.895445 9.36185 0.920467 8.98873 0.97051 8.61562C1.44592 5.56284 3.42262 4.35869 6.97569 2.79838C7.02573 2.78142 7.07577 2.7475 7.15084 2.73054C7.17586 2.71358 7.17586 2.69662 7.20088 2.69662C7.25092 2.67966 7.27594 2.6627 7.30097 2.64574C10.0283 1.40767 12.1051 0.0847994 15.3579 0.0847994C15.3829 0.0847994 15.408 0.0847994 15.408 0.0847994Z" fill="url(#paint2_linear_954_2112)"/>
<defs>
<linearGradient id="paint0_linear_954_2112" x1="33.7683" y1="13.3635" x2="0.552191" y2="13.3635" gradientUnits="userSpaceOnUse">
<stop stop-color="#A4A4A3"/>
<stop offset="0.819608" stop-color="white"/>
<stop offset="1" stop-color="white"/>
</linearGradient>
<linearGradient id="paint1_linear_954_2112" x1="27.3064" y1="45.4367" x2="7.27463" y2="45.4367" gradientUnits="userSpaceOnUse">
<stop stop-color="#EAB93A"/>
<stop offset="1" stop-color="#FEFBF3"/>
</linearGradient>
<linearGradient id="paint2_linear_954_2112" x1="34.02" y1="34.0724" x2="0.348973" y2="34.0724" gradientUnits="userSpaceOnUse">
<stop stop-color="#A4A4A3"/>
<stop offset="1" stop-color="#E9E9E9"/>
</linearGradient>
</defs>
</svg>
