<svg width="31" height="57" viewBox="0 0 31 57" fill="none" xmlns="http://www.w3.org/2000/svg">
<path fill-rule="evenodd" clip-rule="evenodd" d="M9.38702 17.9436C8.06088 18.1811 6.8098 18.5372 5.63379 18.9782C5.68383 19.1817 5.73388 19.3683 5.73388 19.5718C6.40946 27.2376 6.68469 35.1579 8.56131 41.6196C10.463 48.0644 17.6191 56.6969 21.4724 56.6291C22.6234 56.6121 23.0488 56.2729 23.0488 55.6963C23.0488 54.3565 20.7969 51.7447 20.7218 49.082C20.7218 48.9124 20.7218 48.7428 20.7218 48.5901C20.7218 43.57 22.7986 42.2302 22.7986 35.4123C22.7986 28.9675 23.9246 22.7941 25.4008 19.1139C25.3758 19.0969 25.3508 19.0969 25.3258 19.0799C22.148 18.0454 18.4198 17.4688 14.7917 17.4688C12.9401 17.4688 11.1135 17.6214 9.38702 17.9436Z" fill="url(#paint0_linear_954_2104)"/>
<path fill-rule="evenodd" clip-rule="evenodd" d="M11.3885 0.356417C9.66203 0.797374 8.08567 1.52665 5.08308 1.93369C0.854435 2.49336 0.354004 3.46007 0.354004 5.02038C0.354004 5.24086 0.354004 5.46134 0.379025 5.69878C0.729327 13.1611 4.90793 15.9256 5.63355 18.9784C11.1883 16.8075 19.2953 17.0958 25.4006 19.114C25.5507 18.7748 25.6758 18.4526 25.826 18.1643C27.4774 14.7214 30.455 11.4651 30.4299 7.24212C30.4299 7.15733 30.4299 7.07253 30.4299 6.98773C30.3549 3.73143 27.4273 3.29047 24.0244 2.18808C19.0201 0.576896 16.1426 0.0341797 14.0658 0.0341797C13.0399 0.0341797 12.1892 0.169859 11.3885 0.356417Z" fill="url(#paint1_linear_954_2104)"/>
<path d="M23.3992 18.5371C22.0481 21.3864 21.5476 23.2689 20.9972 25.1515C19.9463 28.7978 21.998 36.8199 20.3716 42.0265C19.0455 46.2156 20.3716 51.8802 21.3475 55.2383C21.6227 56.1711 19.5209 54.068 18.5451 50.9474C17.8945 48.9122 14.7418 45.3676 15.3923 39.4147C16.143 32.4273 17.2189 22.9467 19.1956 18.8254C19.9713 17.2142 21.5476 18.3336 23.3992 18.5371Z" fill="#E4BB47"/>
<path d="M21.7227 12.4316C20.1964 15.0603 23.5493 15.5183 23.3991 18.5371C22.8737 18.5032 20.6718 18.1301 19.9962 18.0453C20.7719 14.3819 19.4457 14.2463 17.8944 9.56534C16.318 4.81657 11.689 3.20538 14.5915 1.74684C17.3189 0.356126 27.7779 2.42523 29.7296 5.59673C32.9073 10.7356 23.4992 9.3279 21.7227 12.4316Z" fill="#AFAFAD"/>
<path fill-rule="evenodd" clip-rule="evenodd" d="M20.2466 14.9754C20.672 14.9754 20.8471 14.2122 20.0464 12.3975C20.0214 12.3805 20.0214 12.3466 19.9964 12.3297C19.6961 11.6343 19.571 11.0407 19.571 10.498C19.571 8.51368 21.2224 7.20777 21.6978 5.03691C22.1983 2.64556 19.7962 1.18702 17.219 0.966537C16.9688 0.949577 16.7436 0.932617 16.5184 0.932617C15.6426 0.932617 14.7919 1.08526 14.0412 1.37357C13.2906 1.67885 12.9903 2.01805 13.0154 2.44205C13.0154 3.79884 16.068 5.95274 17.269 9.56519C18.0947 12.0244 19.0205 14.1104 19.7962 14.7549C19.7962 14.7719 19.8212 14.7888 19.8212 14.7888C19.9713 14.9076 20.1215 14.9754 20.2466 14.9754Z" fill="url(#paint2_linear_954_2104)"/>
<path fill-rule="evenodd" clip-rule="evenodd" d="M7.36051 1.45855C4.3329 2.25566 0.279405 1.76383 0.154297 4.9014C0.154297 4.93532 0.154297 4.9862 0.154297 5.02012C0.154297 13.7375 5.23368 16.0949 5.3838 20.1822C6.50978 34.4455 6.33462 44.7571 16.2181 53.9154C16.3182 54.0002 16.4183 54.085 16.5184 54.1868C16.5184 54.1868 16.5184 54.1868 16.5434 54.2038C16.5935 54.2377 16.6185 54.2716 16.6685 54.3225C16.7186 54.3733 16.7936 54.4242 16.8437 54.4751C18.7453 56.0693 20.2967 56.6969 21.3976 56.7817C21.4727 56.7817 21.5477 56.7817 21.6228 56.7817C22.6237 56.7817 23.1992 56.2898 23.2242 55.6793C22.974 53.3558 20.8972 52.423 20.8722 48.2339C20.8722 47.759 20.8972 47.2332 20.9722 46.6736C21.3476 43.129 22.974 41.6874 23.024 34.8186C23.3243 21.3355 27.1275 16.485 28.4036 14.2124C29.4295 12.4655 30.6806 9.71801 30.6806 7.41146C30.6556 6.12251 30.2803 4.9862 29.3044 4.20605C28.0283 3.18846 19.0456 0.271358 14.7919 0.0169599C14.5417 0 14.3165 0 14.0663 0C11.4891 0 9.91271 0.864953 7.36051 1.45855ZM14.1664 0.0678395C15.9929 0.0678395 18.4451 0.508796 22.4735 1.74687C22.4986 1.76383 22.5236 1.78079 22.5486 1.78079C22.7738 1.84863 22.999 1.91647 23.1992 1.98431C26.0016 2.9171 30.3053 3.52765 30.3053 7.44538C30.3053 9.03961 29.6047 11.1596 27.8282 14.0597C26.3018 16.6376 22.6237 21.0642 22.5736 34.8186C22.5736 34.9713 22.5736 35.1409 22.5736 35.2765C22.5736 41.5517 21.1224 43.0272 20.722 46.6566C20.647 47.2332 20.6219 47.776 20.6219 48.2848C20.6219 52.3551 22.6737 53.9154 22.8238 55.6793C22.8489 56.3577 21.898 56.8156 20.2716 56.205C19.2708 55.8319 18.0447 55.0687 16.6185 53.7119C9.26215 46.6736 8.13618 39.296 7.46059 33.8858C6.10943 23.2011 6.6599 19.5887 5.50891 17.5874C3.85749 14.6024 0.729793 11.7023 0.52962 4.91836C0.52962 1.96735 4.30788 2.39134 7.41055 1.56031C7.43557 1.56031 7.46059 1.54335 7.48562 1.54335C7.56068 1.52639 7.61072 1.50943 7.68579 1.49247C7.76085 1.47551 7.83592 1.45855 7.88596 1.44159C10.3381 0.797114 11.7143 0.0678395 14.0913 0.0678395H14.1163C14.1163 0.0678395 14.1414 0.0678395 14.1664 0.0678395Z" fill="url(#paint3_linear_954_2104)"/>
<defs>
<linearGradient id="paint0_linear_954_2104" x1="25.4038" y1="37.0493" x2="5.6438" y2="37.0493" gradientUnits="userSpaceOnUse">
<stop stop-color="#EAB93A"/>
<stop offset="1" stop-color="#FEFBF3"/>
</linearGradient>
<linearGradient id="paint1_linear_954_2104" x1="30.4397" y1="9.57224" x2="0.346248" y2="9.57224" gradientUnits="userSpaceOnUse">
<stop stop-color="#A4A4A3"/>
<stop offset="0.819608" stop-color="white"/>
<stop offset="1" stop-color="white"/>
</linearGradient>
<linearGradient id="paint2_linear_954_2104" x1="13.3556" y1="7.95672" x2="21.4051" y2="7.95672" gradientUnits="userSpaceOnUse">
<stop stop-color="#E9E9E9"/>
<stop offset="1" stop-color="#A4A4A3"/>
</linearGradient>
<linearGradient id="paint3_linear_954_2104" x1="30.6691" y1="28.3908" x2="0.165806" y2="28.3908" gradientUnits="userSpaceOnUse">
<stop stop-color="#A4A4A3"/>
<stop offset="1" stop-color="#E9E9E9"/>
</linearGradient>
</defs>
</svg>
