<svg width="41" height="51" viewBox="0 0 41 51" fill="none" xmlns="http://www.w3.org/2000/svg">
<path fill-rule="evenodd" clip-rule="evenodd" d="M4.3846 20.8094C5.06018 27.8308 6.66156 36.7178 9.56406 40.7373C12.4916 44.7737 15.8945 50.2009 18.6219 50.1331C20.4484 50.0991 21.0239 48.4201 21.0239 46.1475C20.9989 42.2298 19.2724 36.5143 19.2724 34.3943C19.2724 34.3434 19.2724 34.2756 19.2724 34.2247C19.2974 33.7837 19.3225 33.3597 19.3225 32.9697C19.3225 31.4263 19.1723 30.307 19.1723 29.5607C19.1723 29.0519 19.2474 28.7127 19.4726 28.5431C20.1232 28.0343 24.602 31.6468 26.5287 36.5312C28.1801 40.6864 29.5563 50.2009 31.8082 50.5231C35.5615 51.0489 36.8125 46.9446 37.2879 43.1795C37.338 42.8234 37.338 42.4163 37.338 41.9754C37.338 38.1933 36.0118 31.0871 36.0118 25.9313C36.0118 24.9985 36.0369 24.1336 36.162 23.3704C36.3622 21.861 36.7375 20.5381 37.1628 19.317C26.2284 21.3352 11.7409 22.9803 3.95923 18.1807C4.13438 18.9439 4.28451 19.7919 4.3846 20.8094Z" fill="url(#paint0_linear_954_2093)"/>
<path fill-rule="evenodd" clip-rule="evenodd" d="M8.13755 0.0166016H8.08751H8.03746C7.78725 0.0166016 7.51201 0.0335614 7.21175 0.0505213C4.53445 0.22012 0.430908 2.17051 0.430908 6.83447C0.430908 6.90231 0.430908 6.95319 0.430908 7.00407C0.556016 12.9061 2.88302 13.6863 3.95895 18.1806C11.7407 22.9803 26.2281 21.3352 37.1626 19.3169C38.2635 16.1794 39.7398 13.6693 39.7398 10.1247C39.7398 9.98901 39.7398 9.83637 39.7398 9.70069C39.5396 4.51097 35.7864 4.83321 32.3834 3.67993C29.0306 2.56058 28.43 0.745876 25.2273 0.813716C22.0245 0.881555 21.0737 3.23898 17.8709 3.12026C17.8209 3.1033 17.7709 3.1033 17.6958 3.1033C17.6708 3.1033 17.6457 3.1033 17.6207 3.1033C17.5957 3.08634 17.5957 3.08634 17.5707 3.08634C17.5457 3.08634 17.5206 3.08634 17.4956 3.08634C17.4206 3.06938 17.3455 3.06938 17.2954 3.05242C15.4188 2.74714 14.0677 1.37339 11.7657 0.593237C10.7648 0.25404 9.5888 0.0166016 8.13755 0.0166016Z" fill="url(#paint1_linear_954_2093)"/>
<path d="M21.5491 2.13684C19.1971 3.23924 17.2704 3.2562 15.7191 2.45908C14.1928 1.66197 13.6924 1.50933 12.9667 1.20405C12.2661 0.915733 14.418 2.62868 15.5189 3.79891C16.8701 5.20658 16.2946 8.85295 17.8209 8.85295C19.1971 8.85295 18.8468 7.34353 19.122 6.07153C19.3723 4.78258 19.8226 4.17203 20.6484 3.44275C21.1988 2.96788 22.6 1.64501 21.5491 2.13684Z" fill="#C2C0BE"/>
<path d="M33.9853 25.9316C33.9102 29.4084 35.987 38.5158 35.8368 42.6879C35.6867 46.5548 33.6099 50.1503 32.9594 48.7596C32.534 47.8438 34.2605 44.9775 33.6349 38.5497C33.1595 33.5296 26.729 25.3719 26.9041 20.8436C29.106 20.5892 32.6091 20.25 34.4106 19.8091C34.0853 21.3864 34.0603 23.3876 33.9853 25.9316Z" fill="#E4BB47"/>
<path d="M36.1621 13.3132C34.986 14.5682 33.2596 15.6876 33.2095 17.0444C33.1845 17.8245 34.5357 19.2152 34.4106 19.8088C33.3596 20.2328 26.9791 21.5557 26.9041 20.8434C26.5788 18.1807 21.049 16.6712 23.6012 15.518C27.3545 13.822 29.106 11.9564 29.6815 10.1586C30.8825 6.52923 28.0301 1.35647 30.1819 2.49278C32.0585 3.45949 36.3873 5.1894 37.6133 6.25787C39.7652 8.12346 37.3131 12.0921 36.1621 13.3132Z" fill="#A4A4A3"/>
<path d="M18.9719 7.30956C18.9719 7.30956 21.9245 0.644327 26.2032 2.30639C27.6544 2.88303 29.7312 2.62863 28.8054 1.86544C26.078 -0.424145 19.1721 1.44144 18.9719 7.30956Z" fill="#F4F4F5"/>
<path d="M20.4233 48.1661C19.5976 50.1165 20.3983 42.9424 16.9954 38.2615C13.5674 33.5127 14.0178 30.5278 15.1438 28.4757C16.0195 26.8306 17.9462 25.9826 19.4725 26.22C20.7486 26.4066 20.8987 27.5938 19.4725 28.5435C18.947 28.8827 19.2223 33.9537 19.4725 37.2609C19.6977 40.2967 21.3992 45.9613 20.4233 48.1661Z" fill="#DECB8E"/>
<path d="M12.8169 18.9782C16.1698 18.2998 18.9722 21.3017 18.9722 21.3017C18.9722 21.3017 12.0413 21.3357 10.8653 20.6573C9.68925 19.9958 12.8169 18.9782 12.8169 18.9782Z" fill="#E9EAE9"/>
<path fill-rule="evenodd" clip-rule="evenodd" d="M7.86302 0L7.81298 0C7.68787 0.0169599 7.53774 0.0169599 7.41263 0.0169599C7.33757 0.0169599 7.28753 0.0169599 7.21246 0.0169599C4.51013 0.135679 1.20729 2.03518 0.481661 5.29148C0.30651 6.03771 0.231445 6.75003 0.231445 7.44538C0.231445 11.7701 3.18399 14.9925 3.83455 18.7576C5.11065 25.7451 4.13481 38.465 15.6197 48.9801C15.6447 48.9971 15.6698 49.014 15.6948 49.031C15.7198 49.0479 15.7198 49.0479 15.7198 49.0649C16.7957 49.9299 17.8216 50.3708 18.6974 50.3878C18.7224 50.3878 18.7224 50.3878 18.7474 50.3878C19.9985 50.3878 20.9493 49.4889 21.2746 47.6403C21.2746 47.6064 21.2746 47.5724 21.2746 47.5385C21.2996 47.5046 21.2996 47.4876 21.2996 47.4707C21.3747 46.9788 21.3997 46.487 21.3997 45.9952C21.3997 45.1811 21.3246 44.367 21.2245 43.5529C20.7241 39.2282 19.7733 38.041 19.6482 35.7344C19.6482 35.7005 19.6482 35.3613 19.6482 34.7847C19.6482 33.7501 19.6232 31.9524 19.473 29.7476C19.473 28.8487 19.6482 28.7131 19.6482 28.6961C20.649 28.7639 23.1262 31.4775 23.6767 32.139C23.6767 32.139 23.6767 32.1559 23.7017 32.1559C24.6275 33.3261 25.4282 34.5642 26.0037 35.8362C26.1037 36.0228 26.1788 36.2093 26.2539 36.4128C26.2789 36.4468 26.2789 36.4807 26.3039 36.5146C26.3039 36.5316 26.3039 36.5316 26.3039 36.5316C28.8311 42.8237 28.9312 50.6083 32.5593 50.6422C32.5843 50.6422 32.5843 50.6422 32.5843 50.6422C32.6844 50.6422 32.7845 50.6252 32.8846 50.6252C32.9096 50.6083 32.9096 50.6083 32.9096 50.6083C36.4126 50.2521 37.2884 46.5209 37.3134 41.6874C37.3134 36.786 36.3876 30.7482 36.3876 26.0164C36.3876 24.2696 36.5127 22.7093 36.863 21.4373C37.3634 19.3003 40.0658 14.1276 40.0658 9.98936C40.0658 8.29338 39.6154 6.78395 38.4144 5.69852C36.6128 4.17213 33.7103 4.23997 31.2332 3.05278C31.2332 3.05278 31.2081 3.05278 31.2081 3.03582C31.1331 3.0019 31.058 2.96798 30.9829 2.93406C30.9829 2.93406 30.9579 2.93406 30.9579 2.9171C30.9079 2.90014 30.8578 2.86622 30.8078 2.84926C30.7828 2.8323 30.7578 2.81534 30.7077 2.79838C29.3065 2.01822 27.6551 0.678395 25.4282 0.678395H25.4031C24.4273 0.678395 23.3514 0.932793 22.1503 1.57727C22.1503 1.57727 22.1253 1.59423 22.1003 1.61119C22.0753 1.61119 22.0753 1.62815 22.0502 1.62815C22.0252 1.64511 22.0002 1.64511 21.9752 1.66207C21.9502 1.67903 21.9251 1.69599 21.8751 1.72991C21.8751 1.72991 21.8501 1.72991 21.8501 1.74687C21.8501 1.74687 21.8251 1.74687 21.8251 1.76383C21.8 1.76383 21.8 1.76383 21.8 1.76383C20.599 2.42526 19.5731 3.03582 18.2219 3.05278C18.1969 3.05278 18.1719 3.05278 18.1719 3.05278C18.1469 3.05278 18.1469 3.05278 18.1469 3.05278C17.7966 3.05278 17.4213 3.0019 16.9959 2.9171L16.9709 2.90014C14.794 2.3235 13.693 1.01759 11.1909 0.373117C11.1659 0.373117 11.1659 0.373117 11.1659 0.373117H11.1408L11.1158 0.356157C11.1158 0.356157 11.1158 0.356157 11.0908 0.356157C10.2401 0.135679 9.18917 0 7.86302 0ZM8.08822 0.0169599C11.5412 0.0339197 14.5188 2.05214 16.2953 2.81534C16.3203 2.8323 16.3453 2.8323 16.3453 2.84926C16.3954 2.86622 16.4454 2.88318 16.5205 2.90014C16.5455 2.9171 16.5705 2.93406 16.6206 2.95102C16.6956 2.98494 16.7957 3.01886 16.8708 3.03582H16.8958C16.9208 3.05278 16.9208 3.05278 16.9459 3.05278C17.3962 3.15454 17.7966 3.20542 18.1969 3.20542H18.2219C19.6482 3.20542 20.7741 2.5779 21.9502 1.93343C21.9752 1.91647 21.9752 1.91647 22.0002 1.89951L22.0252 1.88255H22.0502C22.0753 1.84863 22.1253 1.83167 22.1503 1.81471C22.1754 1.79775 22.2004 1.79775 22.2004 1.78079C22.2254 1.78079 22.2254 1.78079 22.2254 1.78079C22.2504 1.76383 22.2754 1.76383 22.2754 1.74687C22.3005 1.74687 22.3005 1.72991 22.3255 1.72991C22.3755 1.69599 22.4256 1.67903 22.4756 1.66207C22.4756 1.64511 22.4756 1.64511 22.4756 1.64511C23.5515 1.11935 24.5024 0.898873 25.3531 0.898873C25.3531 0.898873 25.3531 0.898873 25.3781 0.898873H25.4031C27.505 0.915833 29.0313 2.20478 30.4575 3.0019C30.5075 3.01886 30.5326 3.05278 30.5576 3.06974C30.6827 3.12062 30.7828 3.1715 30.8829 3.23934C30.9079 3.23934 30.9079 3.23934 30.9079 3.23934C30.9329 3.2563 30.9579 3.27325 30.9829 3.27325C30.9829 3.29021 31.008 3.29021 31.008 3.29021C33.4851 4.51133 36.3626 4.47741 37.989 5.91899C39.0649 6.88571 39.4653 8.25946 39.4653 9.78585C39.4402 13.7205 36.813 18.7915 36.2125 21.3694C35.8622 22.7771 35.712 24.3544 35.712 26.0334C35.737 31.4097 37.1383 37.7188 37.1383 42.0096C37.1383 42.6032 37.1132 43.1459 37.0382 43.6377C36.7629 45.7069 35.9372 50.1673 32.8846 50.4387C32.7845 50.4556 32.6844 50.4556 32.6093 50.4556H32.5843C29.1814 50.4387 29.1564 42.4166 26.5792 36.1076C26.5541 36.0058 26.5041 35.8871 26.454 35.7853C26.454 35.7853 26.454 35.7684 26.429 35.7514C24.8276 32.1898 21.5498 28.8148 19.9484 28.3399C19.8484 28.306 19.7483 28.306 19.6732 28.306C19.6482 28.306 19.6482 28.306 19.6232 28.306C19.6232 28.306 19.6232 28.306 19.5981 28.306C19.448 28.306 19.3229 28.3399 19.3229 28.3569C19.3229 28.3739 19.3229 28.3739 19.3229 28.3739C18.8225 28.6961 18.8725 29.2897 18.8725 29.7476C18.9476 31.274 18.9726 32.6138 18.9726 33.6484C18.9726 34.9204 18.9226 35.7005 18.9226 35.7514C18.9226 35.7684 18.9226 35.7684 18.9226 35.7684C18.9726 36.752 20.649 42.3488 20.649 46.1817C20.649 47.9795 20.2737 49.4041 19.1978 49.7603C19.0977 49.8281 18.8475 49.8451 18.6223 49.879C17.9467 49.7603 17.4963 49.7603 16.2202 48.6579C2.88373 36.3959 7.1374 22.4888 2.30824 13.6357C1.30737 11.838 0.556726 9.46361 0.556726 7.19098C0.531704 4.51133 1.60763 1.9843 4.5852 0.746234C5.76121 0.220478 6.93722 0.0169599 8.03817 0.0169599C8.06319 0.0169599 8.06319 0.0169599 8.08822 0.0169599Z" fill="url(#paint2_linear_954_2093)"/>
<defs>
<linearGradient id="paint0_linear_954_2093" x1="37.3485" y1="34.3706" x2="3.95723" y2="34.3706" gradientUnits="userSpaceOnUse">
<stop stop-color="#EAB93A"/>
<stop offset="1" stop-color="#FEFBF3"/>
</linearGradient>
<linearGradient id="paint1_linear_954_2093" x1="39.7438" y1="10.6616" x2="0.427906" y2="10.6616" gradientUnits="userSpaceOnUse">
<stop stop-color="#A4A4A3"/>
<stop offset="0.819608" stop-color="white"/>
<stop offset="1" stop-color="white"/>
</linearGradient>
<linearGradient id="paint2_linear_954_2093" x1="40.0605" y1="25.3211" x2="0.236701" y2="25.3211" gradientUnits="userSpaceOnUse">
<stop stop-color="#A4A4A3"/>
<stop offset="1" stop-color="#E9E9E9"/>
</linearGradient>
</defs>
</svg>
