<svg width="41" height="49" viewBox="0 0 41 49" fill="none" xmlns="http://www.w3.org/2000/svg">
<path fill-rule="evenodd" clip-rule="evenodd" d="M21.6531 15.5693H21.578C20.6272 15.5693 19.6764 15.6033 18.7506 15.6372C15.9732 15.7729 13.2208 16.0781 10.4935 16.536C10.4935 16.536 10.4935 16.536 10.4685 16.536C8.1915 16.9261 5.91454 17.418 3.6626 18.0285C4.26312 19.521 4.76355 21.1152 4.96372 22.9469C5.03878 23.4048 5.06381 23.8627 5.06381 24.3206C5.06381 27.119 4.11299 29.4934 4.11299 32.1391C4.11299 34.4626 4.83861 36.9897 7.59098 40.1951C15.0474 48.8785 16.949 48.8107 18.8757 48.3358C19.2761 48.234 19.4512 47.9457 19.4512 47.5048C19.4512 46.0971 17.8498 43.1122 17.4245 39.0588C17.1993 36.9557 17.0491 35.0901 17.0491 33.5298C17.0491 30.9011 17.4995 29.1712 18.8757 28.6454C21.0276 27.8313 26.4823 32.5122 27.6833 36.413C28.8843 40.3307 30.1354 47.1486 32.3123 47.5217C35.1397 47.9966 38.6177 42.6712 38.6177 37.9564C38.6177 34.0726 37.1164 29.4934 37.1164 25.7283C37.1164 24.9312 37.1665 24.168 37.3416 23.4387C37.742 21.7427 38.3175 19.9619 38.8179 18.1981C36.1406 17.3162 33.3882 16.6717 30.6358 16.2477C27.6583 15.7898 24.6807 15.5693 21.6531 15.5693Z" fill="url(#paint0_linear_954_2082)"/>
<path fill-rule="evenodd" clip-rule="evenodd" d="M8.06617 0.0166016H8.01613H7.99111C7.36557 0.0335614 6.79007 0.101401 6.26462 0.23708C4.98852 0.576277 3.93761 1.23771 3.1119 2.08571C1.46048 3.74777 0.659787 6.07128 0.634766 7.6655C0.634766 7.73334 0.634766 7.78422 0.634766 7.85206C0.634766 11.7189 2.36125 14.6191 3.66238 18.028C15.1723 14.9413 27.583 14.5173 38.8177 18.1976C39.3681 16.1963 39.8185 14.229 39.8185 12.4482C39.8185 12.0412 39.7935 11.6341 39.7435 11.244C39.2681 7.6655 34.9143 2.47578 28.6339 1.84827C27.583 1.74651 26.7072 1.71259 25.9316 1.72955C24.3552 1.74651 23.2793 1.98395 22.5036 2.27226C22.0782 2.44186 21.7279 2.62842 21.4027 2.81498C20.4518 3.39162 19.8763 3.96825 18.4501 3.90041C15.3224 3.73081 15.1473 0.0674812 8.06617 0.0166016Z" fill="url(#paint1_linear_954_2082)"/>
<path d="M24.4557 2.5437C21.2029 3.54433 22.6291 5.47776 20.4523 5.27424C18.6007 5.10464 19.6766 3.61217 21.7033 2.66242C24.4307 1.39043 26.4825 1.91619 24.4557 2.5437Z" fill="white"/>
<path d="M36.5156 8.49651C37.2913 11.4475 34.1886 14.3307 33.538 16.7729L23.4543 15.6027C24.4302 14.4155 26.482 13.1266 28.2335 11.1762C29.9099 9.29362 31.211 7.20756 30.1101 4.68054C29.4595 3.17111 25.1058 1.50904 28.6338 1.84824C33.9134 2.374 35.6398 5.12149 36.5156 8.49651Z" fill="#AFAFAD"/>
<path d="M32.2622 24.7953C29.7851 29.544 42.446 40.551 34.5142 45.8594C32.0871 47.4706 35.7903 41.823 34.1639 37.3286C32.5375 32.8851 27.383 26.61 23.9551 23.2011C21.2778 20.5044 21.9534 18.3844 23.4547 15.603C26.157 15.603 30.6358 16.1457 33.5383 16.7733C32.7627 19.6904 34.5892 20.3179 32.2622 24.7953Z" fill="#E4BB47"/>
<path d="M18.5502 43.4511C18.5252 41.3311 17.0739 36.1414 16.9488 33.6992C16.7987 31.24 17.199 27.5427 18.9756 26.152C20.7771 24.7443 22.0282 24.3373 21.3776 23.1162C20.4518 21.3863 17.5744 21.7594 15.7478 22.9805C13.8211 24.2695 12.4449 28.9504 13.1205 33.8857C13.8211 39.2111 18.5502 44.6213 18.5502 43.4511Z" fill="#DECB8E"/>
<path d="M18.1001 43.112C18.0751 40.992 17.2243 35.7854 17.1743 33.3431C17.0992 30.3073 17.0242 27.3054 18.8507 25.9317C19.4262 25.4907 20.7524 24.4901 19.7765 23.6421C19.151 23.0824 17.4746 23.8456 17.0742 24.117C15.1726 25.4229 14.0216 29.6798 14.3969 33.3431C14.7472 36.8029 18.1251 44.2992 18.1001 43.112Z" fill="#CBBC84"/>
<path d="M10.3184 0.220703C11.1942 0.220703 12.5954 0.780379 13.7214 1.30613C14.5471 1.69621 16.5238 3.15476 17.2494 3.71444C17.975 4.27411 21.5531 7.61521 20.7024 7.98832C20.1269 8.22576 20.3771 7.20817 16.8741 5.69874C14.7723 4.79987 14.1968 3.10388 12.9207 1.81493C12.0699 0.949978 9.99316 0.220703 10.3184 0.220703Z" fill="#C2C0BE"/>
<path fill-rule="evenodd" clip-rule="evenodd" d="M17.7744 48.7427H17.7994H17.8244C17.9746 48.7427 18.1497 48.7427 18.2999 48.7088C18.3249 48.7088 18.3249 48.7088 18.3499 48.7088C19.4258 48.5222 19.8262 48.2 19.8262 47.5216C19.8262 46.1309 18.2248 43.2646 17.5742 36.8877C17.1989 32.6308 17.0988 28.7809 19.4008 28.7809C19.4258 28.7809 19.4258 28.7809 19.4258 28.7809C20.0764 28.7809 20.9271 29.0862 22.0281 29.7985L22.0531 29.8155C22.1282 29.8663 22.2032 29.9172 22.2783 29.9681L22.3033 29.9851C29.2843 34.9204 27.5578 40.6189 30.5854 45.9952C30.9608 46.5548 31.236 47.2332 32.1868 47.5724C32.337 47.6064 32.4871 47.6233 32.6122 47.6233C32.6372 47.6233 32.6622 47.6233 32.6873 47.6233C35.5647 47.5385 39.6182 42.3827 38.5423 34.4964C38.5423 34.4455 38.5423 34.4116 38.5423 34.3607C37.8667 29.7137 37.3913 27.8142 37.3913 26.0164C37.3913 24.5918 37.6916 23.235 38.4422 20.6232C39.1678 18.164 40.0936 15.4335 40.0936 12.7199C40.0936 9.53145 38.7925 6.37691 34.3387 3.66333C34.2886 3.62941 34.2386 3.59549 34.1885 3.56157C34.1885 3.56157 34.1635 3.56157 34.1635 3.54461C29.5846 0.898873 23.6294 1.25503 21.4025 2.69662C20.7019 3.10366 20.2515 3.45981 19.7011 3.66333C19.7011 3.66333 19.7011 3.66333 19.676 3.66333C19.5259 3.73117 19.3508 3.78205 19.1506 3.79901C18.8253 3.84989 18.45 3.83293 17.9746 3.76509L17.9495 3.74813C17.9245 3.74813 17.8995 3.74813 17.8745 3.74813C15.0971 3.03582 15.0971 0.237438 8.06603 0C8.06603 0 8.01599 0 7.9159 0C7.36543 0 5.51383 0.101759 3.7373 1.44159C2.8115 2.13694 1.8857 3.18846 1.21012 4.74876C0.684667 5.8342 0.459473 6.97051 0.459473 8.10682C0.459473 12.8217 4.18769 17.8757 4.6631 23.0315C4.71314 23.4894 4.73816 23.9304 4.73816 24.3544C4.73816 27.3902 3.66223 29.5271 3.66223 32.0711C3.66223 35.0221 5.08846 38.5328 11.2438 44.6723V44.6893C11.2688 44.7062 11.2688 44.7232 11.2938 44.7401C11.3188 44.7571 11.3439 44.7741 11.3439 44.791C11.4439 44.8928 11.569 44.9945 11.6691 45.1133C13.2205 46.6396 15.4724 48.6918 17.6993 48.7427H17.7744ZM7.94092 0.0508796C8.04101 0.0508796 8.06603 0.0508796 8.06603 0.0508796C8.06603 0.0508796 8.31624 0.0678395 8.76663 0.0847994C11.3689 0.152639 12.9953 0.864953 14.2464 1.67903C15.9228 2.7475 16.8736 3.98557 18.6001 3.98557C18.6001 3.98557 18.6001 3.98557 18.6251 3.98557C18.8003 3.98557 18.9754 3.98557 19.1506 3.95165C19.1756 3.95165 19.2006 3.95165 19.2006 3.95165C20.2015 3.83293 20.8521 3.2563 21.6027 2.8323C21.6027 2.8323 21.6277 2.8323 21.6277 2.81534C22.6036 2.22174 24.33 1.81471 26.3318 1.81471H26.3568C26.3818 1.81471 26.4068 1.81471 26.4319 1.81471C28.8339 1.83167 31.6363 2.4083 34.0384 3.88381C38.192 6.49563 39.4181 9.49753 39.4181 12.6012C39.4431 15.23 38.5423 17.9435 37.7917 20.5384C37.1911 22.7262 36.991 24.6597 36.991 26.4235C36.991 30.9857 38.4422 34.3437 38.4422 37.8714C38.4422 39.0925 38.2671 40.3306 37.8167 41.6534C37.7666 41.7382 37.7416 41.823 37.7166 41.9248C37.6916 41.9587 37.6916 41.9926 37.6665 42.0266C36.7157 44.6553 34.764 47.352 32.9375 47.3859C32.9124 47.3859 32.9124 47.3859 32.8874 47.3859C32.1868 47.3859 31.5112 46.9958 30.9357 46.063C30.9357 46.0461 30.9107 46.0291 30.9107 46.0121C30.8857 45.9952 30.8607 45.9613 30.8607 45.9273C28.0082 40.7546 29.6596 34.7847 22.6786 29.7476C22.6286 29.7137 22.5785 29.6798 22.5285 29.6459C22.5035 29.6289 22.5035 29.6289 22.4785 29.6119C21.2024 28.7639 20.2015 28.3908 19.4008 28.3908C19.3758 28.3908 19.3758 28.3908 19.3508 28.3908C16.7485 28.4247 16.5483 32.546 16.8486 36.752C16.8736 36.8199 16.8736 36.8708 16.8736 36.9216C17.0238 39.4487 17.4241 41.9926 18.2498 44.4179C18.5501 45.3337 19.0755 46.5379 19.0505 47.335C19.0505 47.6912 18.9504 47.9625 18.7002 48.0982C18.5 48.1321 18.3249 48.1491 18.1247 48.166C18.0997 48.166 18.0997 48.166 18.0997 48.166C16.9237 48.2 15.7977 47.759 14.5216 46.7923C13.0703 45.6899 11.3689 43.9261 9.11694 41.416C5.41374 37.3626 4.48795 34.5812 4.48795 32.105C4.48795 29.6628 5.38872 27.5089 5.38872 24.6766C5.41374 24.1509 5.3637 23.5912 5.28864 22.9976C4.6631 17.74 0.73471 12.669 0.73471 7.93722C0.73471 6.86875 0.934882 5.81724 1.43531 4.78268C1.48536 4.63005 1.56042 4.49437 1.61046 4.34173C1.63549 4.29085 1.66051 4.23997 1.71055 4.18909C3.43704 0.661435 6.48967 0.135679 7.64066 0.0678395C7.66568 0.0508796 7.69071 0.0508796 7.71573 0.0508796C7.81581 0.0508796 7.89088 0.0508796 7.94092 0.0508796Z" fill="url(#paint2_linear_954_2082)"/>
<defs>
<linearGradient id="paint0_linear_954_2082" x1="38.8056" y1="32.0394" x2="3.67236" y2="32.0394" gradientUnits="userSpaceOnUse">
<stop stop-color="#EAB93A"/>
<stop offset="1" stop-color="#FEFBF3"/>
</linearGradient>
<linearGradient id="paint1_linear_954_2082" x1="39.8205" y1="9.10591" x2="0.62826" y2="9.10591" gradientUnits="userSpaceOnUse">
<stop stop-color="#A4A4A3"/>
<stop offset="0.819608" stop-color="white"/>
<stop offset="1" stop-color="white"/>
</linearGradient>
<linearGradient id="paint2_linear_954_2082" x1="40.0989" y1="24.3713" x2="0.454217" y2="24.3713" gradientUnits="userSpaceOnUse">
<stop stop-color="#A4A4A3"/>
<stop offset="1" stop-color="#E9E9E9"/>
</linearGradient>
</defs>
</svg>
