<svg width="38" height="42" viewBox="0 0 38 42" fill="none" xmlns="http://www.w3.org/2000/svg">
<path fill-rule="evenodd" clip-rule="evenodd" d="M15.9318 13.6187C10.9275 14.2123 6.07327 15.5182 2.01978 17.4177C2.21995 23.4554 12.754 41.3312 16.4572 41.6195C18.6091 41.7721 21.4866 40.3136 26.0405 37.5491C30.6194 34.7846 29.6436 31.5283 33.0215 26.3217C36.2993 21.2167 34.9982 17.8417 35.8489 15.5521C33.8222 14.7381 31.5702 14.1614 29.1932 13.7714C26.9413 13.4152 24.5642 13.2456 22.1621 13.2456C20.1104 13.2456 18.0086 13.3643 15.9318 13.6187Z" fill="url(#paint0_linear_954_2142)"/>
<path fill-rule="evenodd" clip-rule="evenodd" d="M23.5134 1.59429C19.1596 1.23813 14.2304 0.135742 10.5522 1.69605C6.92407 3.25636 2.52027 1.33989 0.843824 6.64833C0.543565 7.64896 0.418457 8.68352 0.418457 9.70111C0.418457 13.3984 2.04486 16.7225 2.04486 16.7225C2.04486 16.8751 2.01984 17.0278 2.01984 17.1974C2.01984 17.2652 2.01984 17.35 2.01984 17.4178C11.7782 12.8048 26.4159 11.7533 35.849 15.5523L35.899 15.4335C36.975 12.8726 37.4003 10.6339 37.4254 8.7344C37.4254 2.985 33.4469 0.135742 30.6195 0.135742C27.0164 0.135742 28.9931 2.05221 23.5134 1.59429Z" fill="url(#paint1_linear_954_2142)"/>
<path d="M29.3685 1.06834C27.2666 3.39185 28.4677 3.35793 28.0423 4.61296C27.642 5.81711 25.0147 5.78319 25.2899 3.64624C25.6152 1.23794 30.3193 -0.0001288 29.3685 1.06834Z" fill="#F4F4F5"/>
<path d="M36.5495 9.44659C35.5236 11.0408 30.219 9.54835 31.7704 11.9058C33.0715 13.8731 29.5435 13.6866 28.3925 13.4661C25.3398 12.6859 30.119 8.78515 27.9671 6.29205C25.9153 3.93463 26.641 -0.339259 31.5952 0.135617C32.471 0.220417 34.4977 1.71289 35.3485 2.74744C36.0491 3.64631 37.9007 7.37748 36.5495 9.44659Z" fill="#AFAFAD"/>
<path d="M29.4932 29.188C27.6165 32.597 25.5898 36.0568 21.9867 38.7025C18.5587 41.2465 24.4138 32.9362 26.3154 28.2043C28.142 23.6082 27.7667 18.8764 27.4164 15.0265C27.3413 14.2464 28.4172 13.6697 29.5182 13.8902C30.5441 14.0768 31.595 14.3312 32.5958 14.6534C33.1963 14.84 33.5466 15.2809 33.4966 15.7388C32.9962 19.6905 31.9953 24.6937 29.4932 29.188Z" fill="#E4BB47"/>
<path d="M20.6357 38.482C19.7099 41.9248 33.1465 19.8431 29.118 15.0604C27.2414 12.8556 26.5909 13.6018 25.54 21.3695C24.5391 28.747 22.8376 30.3752 20.6357 38.482Z" fill="#DECB8E"/>
<path d="M21.6365 37.159C20.6107 39.1433 31.7202 21.4881 28.3173 15.0433C27.2414 13.0081 27.6417 18.0452 26.5658 22.5057C25.4899 26.9661 23.9636 32.5798 21.6365 37.159Z" fill="#CBBC84"/>
<path fill-rule="evenodd" clip-rule="evenodd" d="M29.7185 0.0508796C29.3182 0.101759 28.9429 0.203518 28.5926 0.356157C28.5926 0.356157 28.5926 0.356157 28.5675 0.373117C28.5675 0.373117 28.5425 0.373117 28.5425 0.390077C28.5175 0.390077 28.4925 0.407037 28.4675 0.407037C27.1663 1.03455 27.2914 1.50943 25.3898 1.50943C25.3898 1.50943 25.3898 1.50943 25.3648 1.50943C25.3398 1.50943 25.2897 1.50943 25.2397 1.50943C24.2638 1.50943 22.7625 1.37375 20.3355 1.10239C20.2604 1.08543 20.1603 1.08543 20.0602 1.06847C20.0102 1.06847 19.9351 1.05151 19.8851 1.05151C19.835 1.03455 19.785 1.03455 19.7099 1.03455C17.7833 0.814074 16.307 0.729275 15.131 0.729275C15.1059 0.729275 15.0809 0.729275 15.0809 0.729275C15.0559 0.729275 15.0559 0.729275 15.0559 0.729275C11.1525 0.729275 10.7021 1.66207 8.85055 1.96735C8.82553 1.96735 8.80051 1.96735 8.77549 1.96735C5.44762 2.62878 2.11975 1.86559 0.493349 6.52955C-0.28232 8.93785 -0.0821471 11.6514 0.6685 14.1785C0.6685 14.1954 0.693522 14.2293 0.693522 14.2463V14.2633C0.693522 14.2802 0.718543 14.3141 0.718543 14.3311C0.718543 14.3311 0.718543 14.3311 0.718543 14.3481C0.718543 14.365 0.718543 14.382 0.743565 14.3989C0.743565 14.4159 0.743565 14.4159 0.743565 14.4329C0.743565 14.4498 0.743565 14.4668 0.768586 14.4837V14.5007C0.768586 14.5177 0.768586 14.5346 0.793608 14.5685V14.5855C0.793608 14.6024 0.793608 14.6194 0.818629 14.6364C0.818629 14.6533 0.818629 14.6533 0.818629 14.6703C0.818629 14.6872 0.818629 14.7042 0.843651 14.7212C0.843651 14.7212 0.843651 14.7381 0.843651 14.7551C0.843651 14.772 0.843651 14.772 0.868673 14.789C0.868673 14.806 0.868673 14.8229 0.868673 14.8399C0.868673 14.8399 0.868673 14.8568 0.893694 14.8568C0.893694 14.8908 0.893694 14.9077 0.893694 14.9247C0.893694 14.9247 0.893694 14.9247 0.918716 14.9416C0.918716 14.9586 0.918716 14.9756 0.918716 14.9925C0.943737 15.0095 0.943737 15.0095 0.943737 15.0095C0.943737 15.0434 0.943737 15.0604 0.968759 15.0773V15.0943C0.968759 15.1112 0.968759 15.1452 0.99378 15.1621C1.16893 15.7048 1.39413 16.2476 1.64434 16.7564C1.26902 21.7256 9.15081 35.4631 14.055 40.1101C14.0801 40.1271 14.1051 40.144 14.1301 40.1779C14.1551 40.1779 14.1551 40.1949 14.1551 40.1949C14.1551 40.2119 14.1551 40.2119 14.1551 40.2119C14.1801 40.2119 14.1801 40.2288 14.2052 40.2288C14.2052 40.2288 14.2052 40.2288 14.2052 40.2458L14.2302 40.2627C14.2552 40.2797 14.2552 40.2797 14.2552 40.2967C14.2802 40.2967 14.2802 40.2967 14.2802 40.2967C14.2802 40.3136 14.2802 40.3136 14.3053 40.3306L14.3303 40.3475C14.3303 40.3645 14.3303 40.3645 14.3303 40.3645C14.3553 40.3645 14.3553 40.3815 14.3553 40.3815C14.3803 40.3815 14.3803 40.3984 14.3803 40.3984C14.3803 40.3984 14.3803 40.3984 14.4053 40.4154C14.4053 40.4154 14.4053 40.4154 14.4053 40.4323C14.4053 40.4323 14.4304 40.4323 14.4304 40.4493C14.4304 40.4493 14.4304 40.4493 14.4554 40.4493C14.4554 40.4663 14.4554 40.4663 14.4554 40.4663C14.4804 40.4832 14.4804 40.4832 14.4804 40.4832C14.4804 40.4832 14.4804 40.5002 14.5054 40.5002C14.5054 40.5002 14.5054 40.5002 14.5054 40.5171C14.5054 40.5171 14.5304 40.5171 14.5304 40.5341C14.5304 40.5341 14.5304 40.5341 14.5555 40.5341C14.5555 40.5511 14.5555 40.5511 14.5555 40.5511C14.5555 40.568 14.5805 40.568 14.5805 40.568C14.5805 40.568 14.5805 40.585 14.6055 40.585C14.6055 40.585 14.6055 40.585 14.6055 40.6019H14.6305C14.6305 40.6189 14.6305 40.6189 14.6556 40.6189C14.6556 40.6359 14.6556 40.6359 14.6556 40.6359L14.6806 40.6528C14.6806 40.6528 14.6806 40.6528 14.6806 40.6698C14.7056 40.6698 14.7056 40.6698 14.7056 40.6867H14.7306V40.7037C14.7556 40.7037 14.7556 40.7207 14.7556 40.7207C14.7556 40.7207 14.7556 40.7207 14.7807 40.7376C14.8057 40.7546 14.8057 40.7546 14.8057 40.7546C14.8057 40.7546 14.8057 40.7715 14.8307 40.7715C14.8307 40.7715 14.8307 40.7715 14.8307 40.7885C14.8557 40.7885 14.8557 40.7885 14.8557 40.7885C14.8557 40.8055 14.8557 40.8055 14.8808 40.8055V40.8224C14.8808 40.8224 14.9058 40.8224 14.9058 40.8394C14.9308 40.8394 14.9308 40.8563 14.9308 40.8563C14.9308 40.8563 14.9308 40.8563 14.9558 40.8733C14.9558 40.8733 14.9558 40.8733 14.9558 40.8903C14.9808 40.8903 14.9808 40.8903 14.9808 40.8903C14.9808 40.8903 14.9808 40.9072 15.0059 40.9072C15.0059 40.9242 15.0309 40.9242 15.0309 40.9242V40.9411C15.0559 40.9411 15.0559 40.9411 15.0559 40.9581C15.0559 40.9581 15.0559 40.9581 15.0809 40.9581C15.0809 40.9581 15.0809 40.9751 15.1059 40.9751C15.1059 40.992 15.1059 40.992 15.131 40.992C15.131 41.009 15.131 41.009 15.131 41.009C15.131 41.009 15.156 41.009 15.156 41.0259C15.181 41.0259 15.181 41.0429 15.181 41.0429C15.206 41.0599 15.206 41.0599 15.2311 41.0599C15.2311 41.0768 15.2311 41.0768 15.2561 41.0938C15.2561 41.0938 15.2811 41.0938 15.2811 41.1107L15.3061 41.1277C15.3311 41.1277 15.3311 41.1446 15.3311 41.1446C15.3562 41.1616 15.3562 41.1616 15.3812 41.1616C15.3812 41.1786 15.3812 41.1786 15.4062 41.1786C15.4312 41.2125 15.4813 41.2294 15.5063 41.2634C15.5313 41.2634 15.5313 41.2634 15.5563 41.2803C15.8566 41.4669 16.1318 41.5856 16.382 41.6365C16.4071 41.6365 16.4071 41.6365 16.4071 41.6365H16.4321C16.4571 41.6365 16.4571 41.6365 16.4821 41.6365C16.5322 41.6534 16.6072 41.6534 16.6573 41.6534C19.6599 41.6534 25.4899 38.2445 27.7669 36.3959C27.7669 36.3959 27.7919 36.3789 27.7919 36.362C27.8169 36.362 27.8169 36.345 27.8419 36.328C27.942 36.2432 28.0421 36.1754 28.1172 36.0906C28.1422 36.0567 28.1922 36.0228 28.2172 36.0058C28.2673 35.9549 28.2923 35.921 28.3424 35.8871V35.8701C28.3674 35.8532 28.3674 35.8362 28.3924 35.8362C28.4174 35.8023 28.4424 35.7684 28.4675 35.7345C30.6694 33.2922 30.6694 30.426 33.5468 26.0673C36.2742 21.8443 35.4735 18.3845 35.9739 15.9592C40.2276 4.46045 34.3726 0 30.3691 0C30.1439 0 29.9437 0.0169599 29.7185 0.0508796ZM30.4692 0.237438C34.1474 0.288318 39.6521 4.32477 35.7487 15.1452C35.7237 15.1621 35.7237 15.1621 35.7237 15.1621C35.7237 15.213 35.6987 15.2469 35.6987 15.2808C35.6737 15.3317 35.6487 15.3656 35.6487 15.4165C35.6236 15.4674 35.5986 15.5013 35.5986 15.5522C35.5486 15.637 35.5235 15.7048 35.4985 15.7896C35.4735 15.8236 35.4735 15.8575 35.4735 15.8744C34.7979 18.6728 35.7237 21.1659 32.8963 25.8977C29.9437 30.5447 30.219 33.1565 28.1672 35.6157C28.1672 35.6157 28.1672 35.6327 28.1422 35.6327C28.1422 35.6497 28.1172 35.6836 28.0921 35.7005C28.0921 35.7175 28.0921 35.7175 28.0671 35.7175C28.0421 35.7514 28.0171 35.7684 27.9921 35.8023C27.9921 35.8192 27.967 35.8362 27.967 35.8362C27.7669 36.0397 27.5166 36.2602 27.2164 36.5146C24.8393 38.448 19.4597 41.5856 16.6573 41.5856C16.6072 41.5856 16.5572 41.5856 16.5072 41.5856H16.4821H16.4571C12.3286 40.8394 2.44503 22.9128 2.44503 17.0956C2.44503 16.9599 2.47005 16.8242 2.47005 16.6885C1.49421 14.5685 0.843651 12.0415 0.843651 9.66713C0.843651 8.63257 0.968759 7.61498 1.26902 6.66523C2.72027 2.35742 5.49766 3.15454 8.97566 2.42526C9.0257 2.4083 9.10077 2.4083 9.15081 2.39134C9.27592 2.35742 9.37601 2.34046 9.47609 2.3235C11.1525 1.89951 11.678 1.10239 15.3061 1.10239C15.3311 1.10239 15.3311 1.10239 15.3311 1.10239H15.3562C16.382 1.10239 17.6331 1.17023 19.2095 1.30591C19.3846 1.33983 19.5848 1.35679 19.81 1.37375C28.3173 2.27262 26.6659 1.52639 28.7927 0.559676C29.2431 0.356157 29.7936 0.237438 30.3941 0.237438H30.4191C30.4191 0.237438 30.4442 0.237438 30.4692 0.237438Z" fill="url(#paint2_linear_954_2142)"/>
<defs>
<linearGradient id="paint0_linear_954_2142" x1="35.5066" y1="27.4347" x2="2.36658" y2="27.4347" gradientUnits="userSpaceOnUse">
<stop stop-color="#EAB93A"/>
<stop offset="1" stop-color="#FEFBF3"/>
</linearGradient>
<linearGradient id="paint1_linear_954_2142" x1="37.4128" y1="8.7807" x2="0.413954" y2="8.7807" gradientUnits="userSpaceOnUse">
<stop stop-color="#A4A4A3"/>
<stop offset="0.819608" stop-color="white"/>
<stop offset="1" stop-color="white"/>
</linearGradient>
<linearGradient id="paint2_linear_954_2142" x1="35.2163" y1="20.8267" x2="2.25187" y2="20.8267" gradientUnits="userSpaceOnUse">
<stop stop-color="#A4A4A3"/>
<stop offset="1" stop-color="#E9E9E9"/>
</linearGradient>
</defs>
</svg>
