<svg width="41" height="50" viewBox="0 0 41 50" fill="none" xmlns="http://www.w3.org/2000/svg">
<path fill-rule="evenodd" clip-rule="evenodd" d="M19.1465 15.769H19.0453C18.3871 15.769 17.7035 15.769 17.0453 15.8034C11.8557 15.975 6.71662 16.7986 1.80542 18.4115C2.28641 20.1961 2.86867 21.9978 3.27372 23.7309C3.45093 24.4515 3.52687 25.2237 3.52687 26.0473C3.52687 29.8395 1.98263 34.4724 1.98263 38.4019C1.98263 42.949 5.17238 48.0281 7.93177 48.1139C7.95708 48.1139 7.9824 48.1139 8.00771 48.1139C8.13429 48.1139 8.26087 48.1139 8.36213 48.0796C10.5646 47.7193 11.8303 40.8042 13.0455 36.8576C13.7037 34.7127 15.6277 32.3276 17.6276 30.7318C17.6276 30.7146 17.6529 30.6974 17.6782 30.6974C19.0453 29.6164 20.4123 28.8957 21.3996 28.8957C21.5768 28.8957 21.754 28.9301 21.9059 28.9815C21.9312 28.9815 21.9312 28.9815 21.9312 28.9815C21.9565 28.9815 21.9565 28.9987 21.9565 28.9987C23.3489 29.5135 23.8046 31.2637 23.8046 33.9405C23.8046 35.502 23.6527 37.3895 23.4248 39.5344C22.9945 43.6182 21.3996 46.6554 21.3743 48.0624C21.3743 48.5086 21.5515 48.8003 21.9565 48.9032C22.0072 48.9204 22.0578 48.9204 22.0831 48.9376C22.4375 49.0234 22.7666 49.0748 23.1464 49.0748C23.2223 49.0748 23.2729 49.0748 23.3489 49.0748C24.9185 48.989 27.0956 47.7364 31.9562 42.3142C31.9562 42.297 31.9562 42.297 31.9815 42.297C32.0068 42.2455 32.0321 42.2112 32.0574 42.1769C32.1587 42.0911 32.2346 41.9881 32.3106 41.9023C32.3359 41.8852 32.3359 41.868 32.3612 41.8509C32.5131 41.6621 32.6903 41.4734 32.8675 41.2846C33.0194 41.0959 33.1966 40.8899 33.3738 40.684C36.1585 37.441 36.918 34.8843 36.8927 32.5163C36.8927 29.8395 35.9307 27.4372 35.956 24.606C35.956 24.1598 35.9813 23.6965 36.0319 23.2161C36.2598 21.3629 36.7661 19.7671 37.3484 18.24C34.4624 17.4678 31.5511 16.8672 28.5892 16.4382C25.4501 15.9921 22.2856 15.769 19.1465 15.769Z" fill="url(#paint0_linear_954_2059)"/>
<path fill-rule="evenodd" clip-rule="evenodd" d="M32.9686 0.0341797H32.9433H32.8927C25.7284 0.0684979 25.5512 3.79202 22.3867 3.94645C22.3108 3.96361 22.2349 3.96361 22.1589 3.96361C22.1589 3.96361 22.1589 3.96361 22.1336 3.96361C22.1336 3.96361 22.1336 3.96361 22.1083 3.96361C20.8931 3.94645 20.3362 3.43168 19.4502 2.89975C19.4502 2.88259 19.4248 2.88259 19.4248 2.86543C19.3995 2.86543 19.3995 2.86543 19.3995 2.84827C19.3742 2.84827 19.3742 2.83111 19.3489 2.83111C19.2729 2.79679 19.2223 2.74532 19.1464 2.711C18.235 2.21338 16.9946 1.75009 14.5896 1.75009C14.5896 1.75009 14.5896 1.75009 14.5643 1.75009C14.5643 1.75009 14.5643 1.75009 14.539 1.75009C13.8301 1.75009 13.02 1.78441 12.0834 1.88736C5.72917 2.50509 1.32427 7.77293 0.84328 11.3935C0.792649 11.7882 0.767334 12.1828 0.767334 12.5946C0.767334 14.4135 1.24833 16.3868 1.80527 18.4116C7.37467 16.5927 13.2225 15.7691 19.1211 15.7691H19.1464H19.1717C25.0196 15.7691 30.8674 16.5755 36.5381 18.0341C36.7153 18.0684 36.8672 18.1199 37.0444 18.1542C37.1457 18.1885 37.2469 18.2057 37.3482 18.24C38.6646 14.8082 40.4367 11.874 40.4114 7.96168C40.4114 7.89304 40.4114 7.82441 40.4114 7.77293C40.4114 7.08656 40.2595 6.28009 39.981 5.43929C39.1709 3.19145 37.3482 0.754861 34.361 0.171452C33.9053 0.085657 33.4496 0.0341797 32.9686 0.0341797Z" fill="url(#paint1_linear_954_2059)"/>
<path d="M23.8805 3.46602C25.5513 2.84829 25.7792 1.26966 29.5512 0.394543C31.3486 -0.0172751 29.4499 2.86545 27.1462 3.60329C24.0071 4.58136 21.8553 4.22102 23.8805 3.46602Z" fill="white"/>
<path d="M37.3483 17.6225C27.1462 17.571 40.5887 7.27558 35.0446 9.21456C30.5131 10.8104 30.2346 14.0534 29.5511 16.5415V16.5586C28.8676 16.4042 28.0322 16.3356 27.2981 16.2498C24.7918 10.1755 29.222 4.23842 29.7283 3.1574C30.8422 0.755127 33.1206 -0.703395 35.9813 0.789446C43.9556 4.94194 38.7406 17.6225 37.3483 17.6225Z" fill="#AFAFAD"/>
<path d="M34.6393 29.5478C36.0063 35.5535 32.2596 42.623 24.2093 47.9938C21.779 49.6068 30.4622 41.6793 31.1204 37.338C31.9052 32.1217 29.4496 26.9225 25.9814 23.4735C23.8296 21.3114 23.3992 20.076 24.0321 18.0684C24.4118 16.9359 25.5764 16.2495 27.2978 16.2495C27.7535 16.2495 28.6648 16.3696 29.5509 16.5584C28.3104 20.8481 33.5507 24.8462 34.6393 29.5478Z" fill="#E4BB47"/>
<path d="M11.0453 43.9618C11.7035 42.1773 12.6148 37.407 13.754 35.4337C15.0198 33.2545 17.121 30.5777 19.0703 29.6683C21.0449 28.7589 22.0828 28.8618 22.1081 27.6778C22.1335 26.0992 20.2854 21.1745 18.488 22.0496C15.8299 23.3537 12.4883 30.9037 11.501 35.142C10.539 39.3632 10.6656 44.9399 11.0453 43.9618Z" fill="#DECB8E"/>
<path d="M11.0456 43.9614C11.7038 42.1769 12.6152 37.4067 13.7544 35.4334C15.0201 33.2542 17.1213 30.543 19.0706 29.6679C19.7035 29.3934 21.1465 28.6041 21.0199 27.6603C20.9693 27.2828 20.7414 25.5326 18.5896 26.4935C16.6403 27.3858 13.5265 32.156 12.3873 35.2275C11.3494 38.0244 10.6659 44.9395 11.0456 43.9614Z" fill="#CBBC84"/>
<path d="M11.4755 13.2639C13.5007 12.732 17.7537 15.649 15.5766 15.8378C12.6653 16.0952 11.9312 16.1981 11.273 16.3526C8.38699 17.0389 9.45024 13.813 11.4755 13.2639Z" fill="#E9EAE9"/>
<path d="M22.235 4.04945C23.0451 4.66718 14.9441 3.74059 13.9568 2.77968C12.9948 1.81877 14.5391 1.78446 15.0707 1.71582C15.577 1.66434 18.7921 2.19627 19.9059 3.1915C21.0451 4.20389 21.9818 3.84355 22.235 4.04945Z" fill="#C2C0BE"/>
<path fill-rule="evenodd" clip-rule="evenodd" d="M23.0446 49.3324H23.0699H23.0952C25.399 49.2981 27.6773 47.2046 29.2469 45.6603C29.2469 45.6432 29.2469 45.6432 29.2469 45.6432C29.2722 45.626 29.2722 45.626 29.2722 45.626C29.2975 45.6089 29.2975 45.5917 29.3229 45.5745C29.3229 45.5745 29.3229 45.5574 29.3482 45.5574C29.3482 45.5402 29.3735 45.5231 29.3988 45.5059C29.4241 45.4887 29.4241 45.4716 29.4494 45.4544C29.4747 45.4029 29.5254 45.3686 29.5507 45.3343C29.5507 45.3343 29.5507 45.3343 29.576 45.3343C29.6013 45.2828 29.652 45.2485 29.7026 45.197C35.9049 39.0026 37.3479 35.4507 37.3479 32.465C37.3479 29.874 36.2593 27.7291 36.2593 24.6404C36.2593 24.2115 36.2846 23.7653 36.3352 23.302C36.8162 18.0857 40.6136 12.9723 40.5882 8.2192C40.5882 7.05238 40.3857 5.91989 39.8288 4.80454C37.8289 0.240227 33.8796 0 33.0442 0C32.943 0 32.8923 0 32.8923 0C25.804 0.240227 25.7787 3.08864 22.9687 3.79216C22.6396 3.84364 22.3611 3.87795 22.1333 3.87795C22.1079 3.87795 22.1079 3.87795 22.1079 3.87795C22.0826 3.87795 22.0826 3.87795 22.0826 3.87795C21.0953 3.87795 20.589 3.46614 19.7283 2.9342C19.703 2.91704 19.703 2.91704 19.703 2.91704C19.627 2.86557 19.5511 2.83125 19.5004 2.77977C19.4498 2.76261 19.4245 2.74545 19.3992 2.72829C19.3739 2.71114 19.3232 2.69398 19.2979 2.67682C19.2979 2.67682 19.2979 2.65966 19.2726 2.65966C19.2726 2.65966 19.2726 2.6425 19.2473 2.6425L19.222 2.62534C18.1334 2.00761 16.3613 1.61295 14.3108 1.61295C14.2855 1.61295 14.2855 1.61295 14.2855 1.61295C14.2601 1.61295 14.2601 1.61295 14.2601 1.61295C11.7539 1.61295 8.86795 2.19636 6.41235 3.65489C6.38703 3.67204 6.3364 3.6892 6.31108 3.70636C1.80493 6.45182 0.488525 9.66057 0.488525 12.8693C0.488525 15.6148 1.45051 18.3774 2.15935 20.8826C2.91881 23.5079 3.24791 24.8807 3.24791 26.322C3.24791 28.1409 2.7416 30.0627 2.0834 34.7815C2.05808 34.8158 2.05808 34.8673 2.05808 34.9016C0.994835 42.6747 4.84279 47.8052 7.72875 48.1656C7.85533 48.1827 7.95659 48.1827 8.05785 48.1827C8.18443 48.1827 8.33632 48.1656 8.4629 48.1484H8.48822C9.4502 47.8052 9.72867 47.1189 10.1084 46.5354C13.1716 41.1132 11.4248 35.3306 18.4878 30.3373C18.5131 30.3201 18.5385 30.3029 18.5891 30.2858C18.5891 30.2686 18.6144 30.2686 18.6397 30.2515C18.6397 30.2515 18.6397 30.2515 18.6397 30.2343C18.665 30.2172 18.7157 30.2 18.741 30.1828C19.8549 29.445 20.7409 29.119 21.3991 29.119H21.4244C23.7028 29.1361 23.6775 32.8253 23.2978 36.995C23.2978 37.1151 23.2978 37.2181 23.2725 37.3382C22.6143 43.7728 20.9941 46.6899 20.9941 48.0798C20.9941 48.7661 21.3991 49.0921 22.513 49.2809L22.5383 49.2981C22.7155 49.3152 22.8674 49.3324 23.0446 49.3324ZM33.2467 0.0686364C33.2721 0.0686364 33.2974 0.0686364 33.348 0.0686364C34.4872 0.137273 37.5251 0.669204 39.2971 4.16966C39.3225 4.22114 39.3478 4.25545 39.3731 4.30693C39.4237 4.39273 39.449 4.46136 39.4744 4.54716C39.4997 4.56432 39.4997 4.59864 39.525 4.61579C39.5503 4.70159 39.5756 4.77023 39.6262 4.83886C40.1072 5.88557 40.3098 6.94943 40.3098 8.03045C40.3098 12.835 36.3352 17.9484 35.7024 23.2849C35.6264 23.8683 35.6011 24.4174 35.6011 24.9322C35.6011 27.8149 36.5124 30.0112 36.5124 32.4993C36.5124 35.0045 35.5758 37.8015 31.8291 41.9197C31.6012 42.177 31.3481 42.4516 31.1202 42.6918C31.1202 42.709 31.1202 42.709 31.1202 42.7261C27.3482 46.8272 25.2471 48.7318 22.918 48.749H22.8927C22.6396 48.749 22.3864 48.7146 22.1333 48.6803C21.8801 48.5431 21.7788 48.2685 21.7788 47.9082C21.7788 47.1017 22.2851 45.8662 22.5889 44.9397C22.7408 44.5107 22.8674 44.0989 22.9687 43.6699C23.5509 41.6108 23.88 39.4831 23.9813 37.3725C24.3104 33.0312 24.1332 28.7243 21.4497 28.7243C20.6396 28.7243 19.6523 29.1018 18.3613 29.9426C18.3359 29.9598 18.2853 29.9941 18.26 30.0112C18.2347 30.0284 18.2347 30.0284 18.2094 30.0284C18.184 30.0627 18.1587 30.0799 18.1334 30.097C11.0704 35.2104 12.7159 41.2333 9.85525 46.4668C9.82994 46.484 9.82994 46.5011 9.80462 46.5183C9.22236 47.5307 8.51353 47.9596 7.77938 47.9596C7.77938 47.9596 7.75407 47.9596 7.72875 47.9596C5.88072 47.9082 3.8808 45.1456 2.91881 42.4859V42.4687C2.8935 42.4001 2.86818 42.3143 2.84286 42.2285C2.84286 42.2285 2.81755 42.2114 2.81755 42.1942C2.81755 42.177 2.81755 42.1599 2.81755 42.1427C2.33656 40.8215 2.15935 39.5689 2.15935 38.3334C2.15935 34.7472 3.65296 31.3497 3.65296 26.7339C3.65296 24.9665 3.42512 23.0103 2.81755 20.7968C2.05808 18.1543 1.17204 15.4089 1.17204 12.7492C1.17204 9.60909 2.4125 6.57193 6.64019 3.94659C6.71613 3.87795 6.79208 3.82648 6.89334 3.775C6.91866 3.775 6.91866 3.75784 6.94397 3.75784C9.29831 2.40227 11.9818 1.85318 14.3108 1.85318C14.3361 1.85318 14.3867 1.85318 14.3867 1.85318C14.412 1.85318 14.4374 1.85318 14.4374 1.85318C16.4626 1.85318 18.2094 2.265 19.1713 2.86557C19.1967 2.86557 19.1967 2.86557 19.222 2.88273C19.9561 3.29454 20.6143 3.89511 21.6269 3.99807C21.7788 4.03239 21.9307 4.03239 22.0826 4.04954C22.1333 4.04954 22.1839 4.04954 22.2345 4.04954C25.2724 4.04954 25.9812 0.257386 32.1835 0.0857954C32.6645 0.0686364 32.8923 0.0514773 32.8923 0.0514773C32.8923 0.0514773 32.943 0.0514773 33.0189 0.0514773C33.0695 0.0514773 33.1455 0.0514773 33.2467 0.0686364Z" fill="url(#paint2_linear_954_2059)"/>
<defs>
<linearGradient id="paint0_linear_954_2059" x1="1.79858" y1="32.4226" x2="37.3435" y2="32.4226" gradientUnits="userSpaceOnUse">
<stop stop-color="#FEFBF3"/>
<stop offset="1" stop-color="#EAB93A"/>
</linearGradient>
<linearGradient id="paint1_linear_954_2059" x1="0.770116" y1="9.22059" x2="40.4238" y2="9.22059" gradientUnits="userSpaceOnUse">
<stop stop-color="white"/>
<stop offset="0.180392" stop-color="white"/>
<stop offset="1" stop-color="#A4A4A3"/>
</linearGradient>
<linearGradient id="paint2_linear_954_2059" x1="0.488525" y1="24.665" x2="40.5994" y2="24.665" gradientUnits="userSpaceOnUse">
<stop stop-color="#E9E9E9"/>
<stop offset="1" stop-color="#A4A4A3"/>
</linearGradient>
</defs>
</svg>
