<svg width="41" height="52" viewBox="0 0 41 52" fill="none" xmlns="http://www.w3.org/2000/svg">
<path fill-rule="evenodd" clip-rule="evenodd" d="M7.75517 51.3664H7.78059C7.98397 51.3664 8.18735 51.3491 8.39072 51.3147C10.7041 50.9873 12.1023 41.3205 13.7548 37.0988C13.7802 37.0644 13.8056 37.0127 13.831 36.961C13.9073 36.7715 13.9836 36.5991 14.0598 36.4096C14.1615 36.1856 14.2886 35.9443 14.3903 35.7031C14.4157 35.6859 14.4157 35.6514 14.4412 35.617C14.4666 35.548 14.5174 35.4963 14.5428 35.4274C16.5766 31.6365 19.8306 28.9484 20.7712 28.9484C20.8475 28.9484 20.8983 28.9484 20.9492 28.9829C21.178 29.1725 21.2543 29.5171 21.2543 30.034C21.2543 30.7922 21.1017 31.9295 21.1017 33.4803C21.1017 33.8766 21.1017 34.3074 21.1271 34.7726C21.1526 34.8243 21.1526 34.876 21.1526 34.9449C21.1526 37.0816 19.373 42.8886 19.373 46.8862C19.373 49.1952 19.9577 50.8839 21.8135 50.9356C21.8135 50.9356 21.839 50.9356 21.8644 50.9356H21.8898C24.1778 50.9011 26.8979 47.1791 29.4147 43.6123C29.4656 43.5433 29.5164 43.4744 29.5672 43.4055C29.5927 43.371 29.6181 43.3366 29.6435 43.3021C29.6435 43.2849 29.6689 43.2676 29.6689 43.2504C29.7198 43.1987 29.7452 43.147 29.7706 43.0953C29.9232 42.8886 30.0757 42.6818 30.2282 42.4578C30.3045 42.3544 30.3808 42.2682 30.4316 42.1821C30.4316 42.1648 30.457 42.1648 30.457 42.1476C30.457 42.1304 30.4824 42.1132 30.4824 42.0959C30.6095 41.9408 30.7112 41.7858 30.8383 41.6307C30.8892 41.5445 30.94 41.4756 30.9909 41.3894C33.9653 37.3056 35.5923 28.2764 36.2787 21.1427C36.3549 20.1088 36.5329 19.23 36.7108 18.4546C36.6854 18.4718 36.66 18.4891 36.6346 18.5063C36.5583 18.558 36.482 18.5924 36.4058 18.6269C36.4058 18.6441 36.3803 18.6441 36.3803 18.6614C32.5925 20.8497 27.3555 21.6424 21.7118 21.6424C21.7118 21.6424 21.7118 21.6424 21.6864 21.6424C21.6864 21.6424 21.6864 21.6424 21.661 21.6424C15.5089 21.6424 8.87374 20.6947 3.17921 19.6608C3.10295 19.6435 3.02668 19.6263 2.97584 19.6263C3.40801 20.867 3.78934 22.1938 3.99272 23.7274C4.0944 24.52 4.14525 25.416 4.14525 26.381C4.14525 31.6193 2.77246 38.8047 2.77246 42.6301C2.77246 43.0953 2.79788 43.5089 2.84873 43.8535C3.30632 47.4548 4.45031 51.3491 7.72975 51.3664H7.75517Z" fill="url(#paint0_linear_954_2049)"/>
<path fill-rule="evenodd" clip-rule="evenodd" d="M32.4907 0L32.4398 0C27.2791 0 25.703 2.92932 22.7286 3.15333C22.6778 3.15333 22.6523 3.15333 22.6015 3.15333H22.5761C22.4998 3.15333 22.3981 3.15333 22.3219 3.15333C22.3219 3.15333 22.3219 3.15333 22.2964 3.15333C20.1864 3.15333 19.0678 2.05052 17.4917 1.36127C16.8307 1.05111 16.068 0.844333 15.102 0.809871C15.0766 0.809871 15.0512 0.809871 15.0257 0.809871C15.0003 0.809871 14.9749 0.809871 14.9495 0.809871C14.9241 0.809871 14.9241 0.809871 14.8986 0.809871C12.1276 0.827102 11.3141 2.27453 8.72109 3.39456C8.69567 3.41179 8.64482 3.42903 8.6194 3.44626C8.59398 3.44626 8.59398 3.44626 8.59398 3.44626C8.51771 3.48072 8.41603 3.51518 8.33976 3.54965C8.26349 3.58411 8.18723 3.61857 8.11096 3.6358C8.08554 3.65303 8.06012 3.65303 8.06012 3.65303C8.0347 3.67026 8.00927 3.67026 8.00927 3.67026C7.93301 3.70473 7.88216 3.72196 7.83132 3.73919C4.37393 4.91092 0.560628 4.58352 0.357252 9.83907C0.357252 9.99415 0.357252 10.132 0.357252 10.2871C0.33183 13.8712 1.83173 16.4214 2.97572 19.6264C3.02656 19.6264 3.10283 19.6437 3.17909 19.6609C8.87362 20.6948 15.5088 21.6425 21.6609 21.6425C21.6863 21.6425 21.6863 21.6425 21.6863 21.6425C21.7117 21.6425 21.7117 21.6425 21.7117 21.6425C27.3554 21.6425 32.5923 20.8499 36.3802 18.6615C36.3802 18.6443 36.4056 18.6443 36.4056 18.627C36.4819 18.5926 36.5582 18.5581 36.6344 18.5064C36.6599 18.4892 36.6853 18.4719 36.7107 18.4547C37.8039 13.9746 40.0918 13.1475 40.2952 7.40945C40.2952 7.30607 40.2952 7.21991 40.2952 7.11652C40.2952 7.06483 40.2952 6.9959 40.2952 6.94421C40.2952 2.2056 36.126 0.206775 33.4059 0.0344626C33.2279 0.0344626 33.0754 0.0172313 32.8974 0.0172313C32.7703 0.0172313 32.6178 0 32.4907 0Z" fill="url(#paint1_linear_954_2049)"/>
<path d="M18.8391 2.17113C21.2033 3.29117 23.1862 3.3084 24.7624 2.4813C26.3131 1.67143 26.8216 1.51635 27.5588 1.22341C28.2706 0.91325 26.0843 2.65361 24.9658 3.84257C23.593 5.27277 24.9149 15.8872 24.1268 15.0257C22.2456 12.9579 21.5592 7.46114 21.305 6.15156C21.0508 4.85922 20.5932 4.23889 19.7543 3.49794C19.195 3.01547 17.7459 1.67143 18.8391 2.17113Z" fill="#C2C0BE"/>
<path d="M31.8552 26.0019C31.7536 29.5516 30.635 36.3407 29.4147 40.1661C28.1945 44.0086 24.8388 48.7817 24.1778 47.386C23.7456 46.4383 26.0082 42.4751 27.7369 36.0478C29.2368 30.3959 26.1099 26.2432 26.2878 21.6424C28.3724 21.5735 30.2537 21.1427 31.9061 20.4707C31.5756 22.0732 31.9061 23.4173 31.8552 26.0019Z" fill="#E4BB47"/>
<path d="M38.0327 10.5798C36.1006 14.1466 34.0669 15.2322 32.4907 17.9031C32.0585 18.644 31.9823 19.4539 31.8552 20.057C30.7874 20.4878 28.0164 21.1942 26.9741 21.1081C25.3217 20.953 28.1181 19.3333 29.3638 17.4034C30.3298 15.9215 32.3128 12.9921 30.6095 9.7182C28.4232 5.531 29.3384 3.8251 31.906 2.29151C33.1008 1.58503 36.304 0.671773 37.8039 2.1192C39.8377 4.08357 39.736 7.49536 38.0327 10.5798Z" fill="#A4A4A3"/>
<path d="M27.1016 3.03257C27.1016 3.03257 29.2624 1.56791 31.0928 1.3956C32.8978 1.20606 31.347 -0.0862903 29.72 0.482342C25.6525 1.86085 25.3983 4.30769 27.1016 3.03257Z" fill="white"/>
<path d="M9.35668 50.4878C7.50088 52.1076 7.7551 48.8336 8.69571 46.4385C10.4753 41.9239 10.0177 38.0985 12.1023 33.5495C13.7801 29.8103 16.3986 26.588 18.8645 25.5542C19.9577 25.1062 23.0083 24.8994 23.5676 26.1056C24.1269 27.2773 22.8812 28.6041 20.9491 28.9832C17.3646 29.6897 13.7801 36.4616 12.8903 39.7011C12.0006 42.9405 11.848 43.7332 11.365 45.5597C10.8566 47.3862 10.3227 49.6435 9.35668 50.4878Z" fill="#DECB8E"/>
<path fill-rule="evenodd" clip-rule="evenodd" d="M7.60285 51.4354H7.62828C11.2636 51.4182 11.4162 43.733 13.8821 37.3919C13.9075 37.3402 13.9329 37.2885 13.9584 37.2196C13.9838 37.1507 14.0092 37.099 14.0346 37.03C14.0346 37.0128 14.06 36.9956 14.06 36.9611C14.06 36.9439 14.0855 36.9094 14.0855 36.875C14.1109 36.8577 14.1109 36.8405 14.1109 36.8233C14.1363 36.7543 14.1617 36.7026 14.1872 36.6337C14.2126 36.5993 14.238 36.5476 14.238 36.5131C14.2634 36.4786 14.2888 36.4442 14.2888 36.4097C14.899 35.1174 15.7125 33.8595 16.6531 32.6533H16.6785C17.2124 31.9813 19.7546 29.207 20.746 29.1381C20.7714 29.1553 20.9494 29.3104 20.9494 30.2064C20.7969 32.4293 20.7714 34.2558 20.7714 35.3241C20.7714 35.9272 20.7714 36.2719 20.7714 36.3063C20.6443 38.6325 19.6783 39.8387 19.1699 44.2327C19.0682 45.0598 18.9919 45.8869 18.9919 46.7313C18.9919 47.231 19.0173 47.7134 19.0936 48.2131C19.0936 48.2476 19.0936 48.2648 19.0936 48.2821C19.119 48.3165 19.119 48.351 19.119 48.3855C19.4495 50.2637 20.4155 51.1769 21.6612 51.1942H21.6866H21.7121C22.551 51.1769 23.5424 50.7806 24.5339 50.0052C24.5593 49.9707 24.6102 49.9535 24.6356 49.9363C24.6356 49.9363 24.661 49.919 24.661 49.9018C24.7119 49.8673 24.7627 49.8157 24.8135 49.7812C24.839 49.764 24.839 49.764 24.8644 49.7467C36.5077 39.0806 35.5416 26.1571 36.8382 19.0578C37.4737 15.2152 40.4989 11.9585 40.4989 7.5473C40.4735 6.85805 40.3972 6.13434 40.2447 5.37616C39.5075 2.05052 36.1518 0.120619 33.4062 0.0172313C33.3299 0.0172313 33.2791 0 33.2028 0C33.0503 0 32.8723 0 32.7198 0C28.6777 0 27.1524 1.27512 25.2966 2.24007C24.7373 2.51577 24.178 2.75701 23.4916 2.94655C23.4916 2.94655 23.4662 2.94655 23.4408 2.94655C23.034 3.04994 22.6527 3.0844 22.2968 3.0844H22.2713H22.2459C20.924 3.0844 19.8817 2.51577 18.7377 1.87821C18.7377 1.87821 18.7123 1.86098 18.6868 1.86098C18.6868 1.84375 18.6614 1.84375 18.6614 1.82652C18.636 1.82652 18.6106 1.80929 18.5852 1.79205C18.5597 1.77482 18.5343 1.77482 18.5343 1.75759C18.4835 1.74036 18.4326 1.7059 18.3818 1.68867C18.3564 1.6542 18.3055 1.63697 18.2547 1.60251C17.009 0.93049 15.9158 0.67202 14.9244 0.67202C14.899 0.67202 14.899 0.67202 14.899 0.67202C12.6364 0.689251 10.9586 2.03329 9.5095 2.82593C9.45866 2.86039 9.40782 2.89486 9.35697 2.92932C9.28071 2.96378 9.20444 2.99824 9.12817 3.03271C9.12817 3.04994 9.12817 3.04994 9.10275 3.04994C9.07733 3.04994 9.05191 3.06717 9.02649 3.0844L9.00106 3.10163C6.48429 4.30782 3.50991 4.2389 1.70495 5.78971C0.484696 6.87528 0.0270996 8.4261 0.0270996 10.132C0.0270996 14.3537 2.74725 19.6092 3.28112 21.7803C3.63702 23.0727 3.76413 24.658 3.76413 26.4156C3.76413 31.2231 2.82352 37.3574 2.82352 42.3545C2.82352 47.2482 3.73871 51.0563 7.29779 51.4182C7.39948 51.4354 7.50117 51.4354 7.60285 51.4354ZM32.5673 0.0172313C33.6858 0.0172313 34.8552 0.224007 36.0755 0.758177C39.1007 1.99883 40.1684 4.56629 40.1684 7.30607C40.1684 9.59783 39.4058 12.0102 38.3889 13.854C33.4824 22.8487 37.7788 36.9611 24.2288 49.4366C22.9577 50.5394 22.5001 50.5394 21.8138 50.66C21.585 50.6428 21.3307 50.6083 21.229 50.5566C20.1359 50.1775 19.7546 48.7473 19.7546 46.9036C19.7546 43.0093 21.4578 37.323 21.4833 36.3236C21.4833 36.2719 21.4578 35.4792 21.4578 34.1869C21.4578 33.1358 21.4833 31.7745 21.5595 30.2237C21.5341 29.7412 21.6104 29.1553 21.1019 28.8107C21.1019 28.7935 20.9748 28.7418 20.7969 28.7418C20.7969 28.7418 20.7969 28.7418 20.7714 28.7418C20.746 28.7418 20.7206 28.7418 20.6952 28.7418C20.6189 28.759 20.5427 28.759 20.4664 28.7935C18.814 29.2587 15.4837 32.6878 13.8567 36.3236C13.8312 36.3925 13.8058 36.4786 13.7804 36.5476C13.755 36.5648 13.755 36.582 13.755 36.5993C13.7296 36.6337 13.7296 36.6509 13.7296 36.6682C13.7041 36.6854 13.7041 36.7026 13.7041 36.7026C13.6787 36.7543 13.6787 36.7888 13.6533 36.8405C13.6024 36.9783 13.5262 37.1334 13.4753 37.2713C13.4753 37.2885 13.4753 37.323 13.4499 37.3402C11.0857 43.6296 10.9586 51.2286 7.62828 51.2631H7.60285C7.50117 51.2631 7.4249 51.2458 7.32321 51.2458C4.22173 50.9529 3.3828 46.4383 3.07774 44.3361C3.0269 43.8192 3.00147 43.2678 3.00147 42.6819C3.00147 38.3224 4.42511 31.9123 4.42511 26.45C4.45053 24.7441 4.298 23.1416 3.94209 21.7114C3.30654 19.075 0.637228 13.8712 0.637228 9.87353C0.637228 8.33994 1.04398 6.97867 2.1117 5.99649C3.78956 4.54906 6.71308 4.58352 9.22986 3.32564C10.8314 2.56746 12.5093 0.913258 14.9244 0.913258C14.9498 0.896027 14.9498 0.896027 14.9498 0.896027C14.9498 0.896027 14.9752 0.896027 14.9752 0.913258C15.8396 0.913258 16.8056 1.12003 17.8988 1.67143C17.9242 1.68867 17.9496 1.7059 17.975 1.7059L18.0005 1.72313L18.0259 1.74036C18.0259 1.74036 18.0513 1.74036 18.0513 1.75759C18.0513 1.75759 18.0767 1.75759 18.1021 1.77482C18.1276 1.79205 18.1276 1.79205 18.153 1.79205C18.1784 1.80929 18.1784 1.82652 18.2038 1.84375C19.5003 2.533 20.6952 3.23948 22.2459 3.23948C22.6273 3.23948 23.034 3.20502 23.4662 3.10163C23.4916 3.10163 23.5424 3.0844 23.5679 3.0844C23.5933 3.06717 23.6441 3.06717 23.6696 3.04994C23.8221 2.99824 23.9746 2.94655 24.1526 2.86039C25.9575 2.08499 29.0082 0.0172313 32.5418 0.0172313H32.5673Z" fill="url(#paint2_linear_954_2049)"/>
<defs>
<linearGradient id="paint0_linear_954_2049" x1="2.7821" y1="34.9127" x2="36.7083" y2="34.9127" gradientUnits="userSpaceOnUse">
<stop stop-color="#FEFBF3"/>
<stop offset="1" stop-color="#EAB93A"/>
</linearGradient>
<linearGradient id="paint1_linear_954_2049" x1="0.347844" y1="10.8245" x2="40.2934" y2="10.8245" gradientUnits="userSpaceOnUse">
<stop stop-color="white"/>
<stop offset="0.180392" stop-color="white"/>
<stop offset="1" stop-color="#A4A4A3"/>
</linearGradient>
<linearGradient id="paint2_linear_954_2049" x1="0.0270996" y1="25.7177" x2="40.4872" y2="25.7177" gradientUnits="userSpaceOnUse">
<stop stop-color="#E9E9E9"/>
<stop offset="1" stop-color="#A4A4A3"/>
</linearGradient>
</defs>
</svg>
