<svg width="36" height="65" viewBox="0 0 36 65" fill="none" xmlns="http://www.w3.org/2000/svg">
<path fill-rule="evenodd" clip-rule="evenodd" d="M18.6968 19.8242H18.64H18.5833C17.419 19.8242 16.2548 19.882 15.119 19.9782C12.1375 20.2476 9.21273 20.8251 6.60034 21.6912C8.30407 25.8677 9.55348 32.8735 9.55348 40.1873C9.55348 47.9053 11.9103 49.445 11.9103 55.1421C11.9103 55.3345 11.9103 55.5077 11.9103 55.7002C11.8251 58.722 9.26952 61.686 9.26952 63.2065C9.26952 63.8608 9.75225 64.2458 11.0584 64.265H11.0868C11.2004 64.265 11.2856 64.265 11.3708 64.2458C11.3992 64.2458 11.4276 64.2458 11.456 64.2458C12.7622 64.0918 14.3239 63.1872 15.9709 61.8207C15.9993 61.7822 16.0277 61.763 16.0561 61.7245C16.0844 61.7052 16.1128 61.686 16.1412 61.6667C16.1412 61.6667 16.1696 61.6475 16.1696 61.6282C16.198 61.5897 16.2548 61.5705 16.2832 61.532C16.3684 61.455 16.4252 61.3973 16.5104 61.3395C16.5104 61.3203 16.5388 61.301 16.5672 61.301C16.5956 61.2625 16.624 61.2433 16.6524 61.2048C16.6808 61.1855 16.7092 61.1471 16.7375 61.1278C16.7659 61.1086 16.7943 61.0701 16.8227 61.0508C20.429 57.6826 24.092 52.255 25.5686 47.6551C25.597 47.5973 25.6253 47.5203 25.6253 47.4433C25.6253 47.4433 25.6537 47.4241 25.6537 47.4049V47.3856C25.6821 47.3279 25.6821 47.2701 25.7105 47.2316C27.8402 39.8986 28.1525 30.9104 28.9192 22.2108C28.9192 21.9799 28.976 21.7681 29.0328 21.5372C29.0044 21.5372 28.976 21.5179 28.9192 21.5179C28.9192 21.4987 28.8908 21.4987 28.8624 21.4794C28.8056 21.4602 28.7773 21.4409 28.7205 21.4217C26.2217 20.4979 23.2969 19.9974 20.2586 19.8627C19.7475 19.8435 19.2364 19.8242 18.6968 19.8242Z" fill="url(#paint0_linear_954_2042)"/>
<path fill-rule="evenodd" clip-rule="evenodd" d="M8.16201 2.48292C4.30022 3.73396 1.00634 4.23437 0.892756 7.92975C0.892756 8.02599 0.892756 8.12222 0.892756 8.21846C0.86436 13.0109 4.24343 16.7063 6.11753 20.6134C6.28791 20.9406 6.42988 21.3063 6.60026 21.6912C10.2349 20.4979 14.4658 19.8243 18.6116 19.8243C18.6116 19.8243 18.6116 19.8243 18.64 19.8243C18.64 19.8243 18.64 19.8243 18.6684 19.8243C22.2746 19.8243 25.7956 20.3439 28.7488 21.441C28.7772 21.4602 28.834 21.4602 28.8624 21.4795C28.9191 21.4987 28.9759 21.518 29.0327 21.5372C29.8562 18.0728 34.5983 14.9356 35.0242 6.467C35.0242 6.19754 35.0242 5.94734 35.0242 5.69713C35.0242 3.92642 34.4563 2.82936 29.6574 2.19421C26.6475 1.79003 24.9154 1.09715 23.2116 0.596731C22.0758 0.269536 20.94 0.0385742 19.4634 0.0385742C17.1066 0.0385742 13.8411 0.654471 8.16201 2.48292Z" fill="url(#paint1_linear_954_2042)"/>
<path d="M27.1018 20.902C26.903 24.5974 24.035 27.6769 23.4103 29.8133C22.2177 33.9321 23.4387 42.112 23.3535 48.1555C23.2684 52.8902 19.009 58.3563 15.4596 59.7035C14.0966 60.2425 15.6584 58.9722 16.9929 57.2977C18.3559 55.604 21.9338 52.3898 20.2016 44.9413C18.4127 37.1078 20.7128 23.6928 23.4955 20.3631C23.7227 20.0937 25.0005 20.6711 27.1018 20.902Z" fill="#E4BB47"/>
<path d="M25.8525 11.7598C24.7735 13.415 27.3007 17.4761 27.1019 20.902C25.0006 20.6711 24.2623 20.1514 23.4957 20.3631C24.3759 16.2251 21.6499 14.6083 21.4512 9.1615C21.224 3.34897 18.7536 2.11718 21.224 1.15484C23.6944 0.173253 28.3797 2.13642 31.1624 3.38747C33.9736 4.65775 28.0957 8.31464 25.8525 11.7598Z" fill="#AFAFAD"/>
<path fill-rule="evenodd" clip-rule="evenodd" d="M10.8878 64.4382H10.9162C10.973 64.4382 11.0014 64.4382 11.0582 64.4382C12.3076 64.3805 14.1249 63.6683 16.3114 61.8207C16.3398 61.7822 16.3682 61.7629 16.3966 61.7437C16.425 61.7244 16.4533 61.7052 16.4533 61.6859C16.4817 61.6667 16.5101 61.6474 16.5385 61.6282C16.5385 61.6089 16.5385 61.6089 16.5385 61.6089C16.5669 61.5897 16.5953 61.5704 16.6237 61.5512C16.6521 61.5127 16.6805 61.4935 16.7089 61.455H16.7373C16.8225 61.3587 16.9361 61.2625 17.0213 61.1855C28.2375 50.7923 28.0387 39.0902 29.3165 22.9037C29.4869 18.2652 35.2512 15.5899 35.2512 5.6778C35.2512 5.63931 35.2512 5.60081 35.2512 5.56232C35.1092 2.00167 30.5091 2.55982 27.0733 1.65522C27.0449 1.65522 27.0165 1.63598 26.9597 1.63598C26.1078 1.42426 25.3695 1.1933 24.6313 0.981586C22.9559 0.461923 21.4794 0 19.4633 0C19.1793 0 18.9238 0 18.6398 0.0192468C13.8126 0.307948 3.61857 3.61839 2.1704 4.7732C1.06297 5.65855 0.608643 6.94809 0.608643 8.41084C0.608643 11.0284 2.02842 14.1464 3.19264 16.1288C4.64081 18.7079 8.95693 24.2124 9.29768 39.5136C9.35447 47.3086 11.2002 48.9446 11.6261 52.9671C11.6829 53.6023 11.7397 54.1989 11.7397 54.7378C11.7113 59.4918 9.35447 60.5504 9.07051 63.1872C9.09891 63.8801 9.752 64.4382 10.8878 64.4382ZM19.4349 0.0769871C22.0473 0.0769871 23.5806 0.846858 26.2214 1.55899C26.2214 1.57824 26.2498 1.57824 26.2782 1.57824C26.5054 1.65522 26.7609 1.71296 27.0165 1.7707C30.5091 2.7138 34.8253 2.23263 34.8253 5.58157C34.5981 13.2803 31.0487 16.5715 29.1745 19.9589C27.8684 22.23 28.4931 26.3296 26.9597 38.4551C26.193 44.5948 24.9152 52.9864 16.5669 60.9546C15.4879 61.9939 14.4941 62.7253 13.6138 63.2257C12.0236 64.1303 10.8026 64.2457 10.1211 63.9955C9.95077 63.9186 9.80879 63.8223 9.72361 63.7261C9.58163 63.5721 9.49644 63.3796 9.52484 63.1872C9.69521 61.1855 12.0236 59.4148 12.0236 54.7956C12.0236 54.2182 11.9953 53.6023 11.9101 52.9479C11.4557 48.8291 9.80879 47.1546 9.80879 40.0333C9.80879 39.8793 9.80879 39.7061 9.80879 39.5136C9.7804 23.9045 5.57786 18.8811 3.84573 15.9556C1.82965 12.6644 1.03458 10.2585 1.03458 8.44934C1.03458 4.00333 5.91861 3.31045 9.09891 2.25187C9.1557 2.23263 9.21249 2.21338 9.24088 2.19413C9.32607 2.17489 9.38286 2.15564 9.43965 2.13639C14.2953 0.615897 17.1916 0.0769871 19.3497 0.0769871C19.3781 0.0769871 19.4065 0.0769871 19.4065 0.0769871H19.4349Z" fill="url(#paint2_linear_954_2042)"/>
<defs>
<linearGradient id="paint0_linear_954_2042" x1="6.59608" y1="42.0448" x2="29.024" y2="42.0448" gradientUnits="userSpaceOnUse">
<stop stop-color="#FEFBF3"/>
<stop offset="1" stop-color="#EAB93A"/>
</linearGradient>
<linearGradient id="paint1_linear_954_2042" x1="0.879978" y1="10.863" x2="35.0347" y2="10.863" gradientUnits="userSpaceOnUse">
<stop stop-color="white"/>
<stop offset="0.180392" stop-color="white"/>
<stop offset="1" stop-color="#A4A4A3"/>
</linearGradient>
<linearGradient id="paint2_linear_954_2042" x1="0.621421" y1="32.2191" x2="35.2384" y2="32.2191" gradientUnits="userSpaceOnUse">
<stop stop-color="#E9E9E9"/>
<stop offset="1" stop-color="#A4A4A3"/>
</linearGradient>
</defs>
</svg>
