<svg width="39" height="77" viewBox="0 0 39 77" fill="none" xmlns="http://www.w3.org/2000/svg">
<path fill-rule="evenodd" clip-rule="evenodd" d="M20.526 0.307617H20.4692C20.3272 0.307617 20.1852 0.307617 20.0432 0.326864C19.8729 0.326864 19.7309 0.326864 19.5605 0.346111C16.8062 0.538579 13.2567 1.3277 10.5023 2.86744C7.77637 4.42643 1.04663 5.98542 1.04663 11.3553C1.04663 17.0138 5.84548 22.7494 8.37268 26.541C9.45171 27.5996 10.332 28.6966 12.4332 29.4087C14.137 29.6974 15.8691 29.8514 17.5728 29.8514C17.6012 29.8514 17.6012 29.8514 17.6012 29.8514C22.2865 29.8514 26.773 28.6774 30.6064 26.0021C30.6348 25.9828 30.6632 25.9443 30.72 25.9251C30.7484 25.9058 30.7768 25.8866 30.8052 25.8673C30.8903 25.7904 31.0039 25.7134 31.1175 25.6364C32.6793 21.1904 38.5855 16.013 38.6139 11.2783C38.6139 8.56449 36.683 6.00466 30.9471 3.79128C30.8619 3.75279 30.7484 3.7143 30.6632 3.6758C30.578 3.63731 30.4928 3.61806 30.436 3.57957C28.1928 2.65572 26.3754 1.53941 24.2458 0.885021C23.1384 0.538579 21.9173 0.307617 20.526 0.307617Z" fill="url(#paint0_linear_954_2034)"/>
<path fill-rule="evenodd" clip-rule="evenodd" d="M30.805 25.8677C30.7766 25.8869 30.7482 25.9062 30.7198 25.9254C30.663 25.9447 30.6347 25.9832 30.6063 26.0024C26.7729 28.6777 22.2864 29.8518 17.6011 29.8518C17.6011 29.8518 17.6011 29.8518 17.5727 29.8518C15.869 29.8518 14.1369 29.6978 12.4331 29.4091C10.3319 28.697 9.45159 27.5999 8.37256 26.5413C8.91207 27.3304 9.33801 28.0426 9.59357 28.6392C11.1269 32.1614 11.2689 39.6291 12.1776 43.9597C13.1146 48.3094 14.6196 55.7579 14.6196 59.896C14.6196 59.9152 14.6196 59.9152 14.6196 59.9345C14.648 64.0533 16.4369 76.4867 19.9011 76.5637C19.9295 76.5637 19.9295 76.5637 19.9295 76.5637C19.9579 76.5637 19.9579 76.5637 19.9863 76.5637C23.6494 76.4675 23.195 69.2114 24.416 64.5537C25.637 59.896 27 59.1839 28.6754 52.4475C30.2655 46.0768 29.8964 31.6417 30.805 26.676C30.8902 26.3296 30.9754 25.9832 31.1174 25.6367C31.0038 25.7137 30.8902 25.7907 30.805 25.8677Z" fill="url(#paint1_linear_954_2034)"/>
<path d="M27.398 46.0959C27.256 51.0808 25.0412 56.7202 22.4856 61.6858C20.6115 65.3042 22.8263 69.9812 20.725 71.0975C18.8793 72.0983 19.7028 66.4013 19.9016 63.495C20.1003 59.9536 22.3436 53.5252 22.8831 47.3277C23.4226 41.1495 18.2262 30.7562 22.5708 30.2366C23.451 30.1403 25.4955 29.5052 27.1424 28.4851C27.54 28.2349 28.1931 28.4659 28.0795 28.8508C26.8585 33.47 27.5116 42.4583 27.398 46.0959Z" fill="#E4BB47"/>
<path d="M31.1179 22.0569C30.3796 23.8853 29.3858 26.2719 26.0067 28.0811C23.9054 29.1974 23.7067 28.2544 24.019 26.4452C24.5869 23.1732 23.5363 18.7849 21.5486 13.9348C18.5671 6.64022 21.435 1.34736 24.6153 1.77079C29.5277 2.44442 36.2291 6.62098 35.6612 12.6067C35.3204 16.2444 31.771 20.3632 31.1179 22.0569Z" fill="#C2C0BE"/>
<path d="M24.899 3.0606C26.2904 1.82881 32.7646 5.48569 33.8152 8.14175C35.1214 11.3945 34.951 16.9568 30.2658 16.9568C28.2213 16.9568 30.1522 14.7819 29.3855 12.53C28.562 10.1434 22.3718 5.27398 24.899 3.0606Z" fill="#A4A4A3"/>
<path fill-rule="evenodd" clip-rule="evenodd" d="M19.0494 0.0962339C17.0617 0.346442 14.7049 1.02008 11.7802 2.30961C11.7518 2.32886 11.7234 2.32886 11.695 2.34811C11.6666 2.36735 11.6666 2.36735 11.6382 2.36735C10.8431 2.7138 10.0764 3.06024 9.36654 3.38743C9.28135 3.42593 9.19617 3.46442 9.13938 3.50291C13.2567 1.84769 19.3618 -0.0769871 24.331 1.02008C24.3594 1.02008 24.3594 1.02008 24.3594 1.02008C24.3878 1.02008 24.3878 1.02008 24.4162 1.03933C25.0977 1.1933 26.6026 1.7707 28.3348 2.50208C27.994 2.30961 27.6817 2.13639 27.3409 1.96317C27.3125 1.94392 27.2841 1.92468 27.2557 1.90543C27.2273 1.90543 27.2273 1.88618 27.2273 1.88618C27.1989 1.88618 27.1989 1.88618 27.1989 1.88618C27.1989 1.86694 27.1705 1.86694 27.1421 1.84769L27.1137 1.82844H27.0854C27.0854 1.8092 27.057 1.8092 27.057 1.78995C25.1829 0.808365 23.2804 0 20.6964 0C20.1852 0 19.6173 0.0384936 19.0494 0.0962339ZM28.4483 2.55982C28.8175 2.77154 29.1866 2.964 29.5558 3.17572C29.5842 3.19497 29.6126 3.19497 29.641 3.21421L29.6693 3.23346C29.6693 3.23346 29.6977 3.23346 29.6977 3.25271C29.7261 3.25271 29.7545 3.27195 29.7545 3.2912C29.7829 3.2912 29.7829 3.2912 29.7829 3.2912C30.2089 3.52216 30.6632 3.73388 31.1459 3.94559C35.1497 5.71629 37.3929 7.08281 37.9324 10.5472C38.8695 16.8024 33.02 19.7857 30.8336 25.1555C30.7768 25.2903 30.72 25.4442 30.6632 25.5982C28.8175 31.8149 30.862 47.4818 26.3471 58.3177C22.1729 68.48 23.8199 69.7503 22.3149 74.0616C22.3149 74.0809 22.3149 74.1001 22.3149 74.1193C22.2865 74.1386 22.2865 74.1386 22.2865 74.1578C22.2865 74.1771 22.2865 74.2156 22.2581 74.2348C22.2581 74.2541 22.2581 74.2733 22.2297 74.2926C22.2297 74.3118 22.2297 74.3311 22.2297 74.3503C22.2013 74.3696 22.2013 74.3888 22.2013 74.3888C21.6334 75.7746 20.7815 76.3327 20.0717 76.3905C20.0433 76.3905 19.9865 76.3905 19.9581 76.3905C19.9297 76.3905 19.9297 76.3905 19.9297 76.3905C19.6457 76.3905 19.3618 76.2942 19.1914 76.1403C19.163 76.121 19.163 76.121 19.1346 76.1018C16.1531 73.6382 14.9605 63.7646 14.7901 60.5504C14.7333 55.2383 13.6259 50.0416 12.6888 45.0375C10.3888 34.4132 12.9444 32.3731 7.18009 24.1547C7.15169 24.1162 7.12329 24.097 7.12329 24.0585C7.0949 24.0392 7.0665 24.02 7.0665 24.0007V23.9815C7.03811 23.9622 7.03811 23.943 7.00971 23.9237C7.00971 23.9237 7.00971 23.9045 6.98132 23.9045C6.98132 23.8853 6.95292 23.866 6.95292 23.8275C6.92453 23.8083 6.89613 23.789 6.89613 23.7505C-2.36081 10.6242 0.819486 7.35227 9.13938 3.50291C8.74184 3.65689 8.3727 3.79162 8.03195 3.94559C8.03195 3.94559 8.00356 3.94559 8.00356 3.96484H7.97516C7.60602 4.11881 7.26527 4.27279 6.92453 4.42676C2.35285 6.52466 0.762695 9.19996 0.762695 12.087C0.762695 18.6309 8.9974 26.2334 9.84927 30.6216C10.9851 35.1446 10.9851 40.0718 12.1777 45.076C12.2061 45.3454 12.2629 45.5956 12.3197 45.8651C12.3481 45.9806 12.3765 46.096 12.4049 46.2115C12.4049 46.2308 12.4049 46.2308 12.4049 46.2308C14.7617 58.2215 15.1024 76.7754 19.7877 76.8716C19.8161 76.8716 19.8161 76.8716 19.8445 76.8716C20.384 76.8716 21.0087 76.6214 21.6902 76.0633C23.0816 74.7737 23.4507 72.1754 23.7915 70.1353C25.6372 57.6441 28.8459 58.9721 29.9817 46.9621C30.4644 41.9195 30.5212 37.0308 30.7768 32.3923C30.9187 30.102 30.9471 27.8116 31.5151 25.7329C32.878 21.6719 38.7275 16.3405 38.6991 11.4326C38.6991 9.62339 37.9041 7.87193 35.7744 6.2552L35.746 6.23596C35.746 6.21671 35.7176 6.21671 35.7176 6.21671C34.6386 5.40835 31.6002 3.92634 28.9027 2.75229C28.7039 2.65606 28.5051 2.57907 28.3348 2.50208C28.3632 2.52133 28.4199 2.54057 28.4483 2.55982Z" fill="url(#paint2_linear_954_2034)"/>
<defs>
<linearGradient id="paint0_linear_954_2034" x1="1.0418" y1="15.0818" x2="38.6009" y2="15.0818" gradientUnits="userSpaceOnUse">
<stop stop-color="white"/>
<stop offset="0.180392" stop-color="white"/>
<stop offset="1" stop-color="#A4A4A3"/>
</linearGradient>
<linearGradient id="paint1_linear_954_2034" x1="8.37511" y1="51.101" x2="31.1094" y2="51.101" gradientUnits="userSpaceOnUse">
<stop stop-color="#FEFBF3"/>
<stop offset="1" stop-color="#EAB93A"/>
</linearGradient>
<linearGradient id="paint2_linear_954_2034" x1="3.41399" y1="38.4356" x2="36.0478" y2="38.4356" gradientUnits="userSpaceOnUse">
<stop stop-color="#E9E9E9"/>
<stop offset="1" stop-color="#A4A4A3"/>
</linearGradient>
</defs>
</svg>
