<svg width="35" height="81" viewBox="0 0 35 81" fill="none" xmlns="http://www.w3.org/2000/svg">
<path fill-rule="evenodd" clip-rule="evenodd" d="M22.6076 32.1717C22.5793 32.1909 22.5225 32.2102 22.4657 32.2487C21.1879 32.8838 19.9385 33.2495 18.7459 33.4035C13.8334 34.0386 9.68768 30.9784 5.65552 28.1299C6.05305 28.8612 6.47899 29.5349 6.87653 30.1315C9.17656 33.5575 7.35925 41.2177 9.31854 56.0185C10 60.9649 10.0852 65.2762 10.0852 68.8368C10.0852 70.3958 10.0852 71.8201 10.0852 73.0711C10.0852 77.5364 10.3124 80.0192 12.5272 80.0192C18.3483 80.0192 20.0237 73.3983 20.9323 67.3933C21.841 61.3883 25.6744 55.903 27.6621 49.1858C30.1325 40.8327 30.1041 30.6512 30.4164 25.2813C30.4164 24.9734 30.4448 24.6847 30.5016 24.396C28.4855 27.36 25.5608 30.17 22.6076 32.1717Z" fill="url(#paint0_linear_954_2026)"/>
<path fill-rule="evenodd" clip-rule="evenodd" d="M7.81367 5.30336C5.0593 7.57448 0.771579 8.71004 0.487624 12.8481C0.459229 13.0213 0.459229 13.1945 0.459229 13.387C0.459229 17.1016 2.98643 23.5301 5.65561 28.13C5.7124 28.1878 5.79759 28.2455 5.88278 28.284C9.46061 30.8246 13.152 33.4806 17.4114 33.4806H17.4398C17.4398 33.4806 17.4398 33.4806 17.4682 33.4806C19.0299 33.4806 20.7052 33.115 22.4658 32.2489C22.5226 32.2104 22.5793 32.1911 22.6077 32.1719C25.5609 30.1702 28.4856 27.3602 30.5017 24.3962C31.1264 19.6615 34.6191 14.9652 34.5907 10.7502C34.5907 7.63222 32.6882 4.7837 26.2708 2.3971C23.2324 1.26154 22.3238 0.125977 17.4398 0.125977C14.9693 0.125977 10.568 3.01299 7.81367 5.30336Z" fill="url(#paint1_linear_954_2026)"/>
<path d="M27.8608 27.6875C27.6052 29.6892 26.6965 33.9235 26.8669 36.387C27.3212 43.1619 25.2484 50.2832 23.3743 54.7292C21.5286 59.1752 21.3014 64.6221 20.9323 67.3936C20.3359 71.9936 16.247 78.5952 15.9062 76.1509C15.5939 74.0722 17.0421 75.3233 17.5248 66.7392C18.0075 58.4631 23.6014 44.259 22.0965 32.0758C24.5669 31.4984 26.3274 29.0925 27.8608 27.6875Z" fill="#E4BB47"/>
<path d="M24.7939 13.0213C23.5161 23.453 30.5014 13.2907 30.5014 10.1535C30.5014 7.61292 23.8285 5.89996 25.0495 4.1485C26.2705 2.39705 24.7939 1.83889 23.9704 1.49245C23.147 1.12676 19.2852 -0.374491 17.4395 0.0874322C15.5654 0.568602 15.1394 1.28073 17.4395 4.1485C19.7111 7.01627 25.4754 7.4397 24.7939 13.0213Z" fill="#C2C0BE"/>
<path d="M29.0251 20.7969C27.293 23.4144 28.2869 24.1843 27.8609 27.6872C26.3276 29.0922 23.1757 32.5952 22.0966 32.0755C19.1719 24.396 24.7942 19.0262 27.3498 13.4061C28.514 10.8463 26.3276 6.26556 25.4473 5.53418C22.4374 2.99361 24.6238 1.91579 26.9807 3.08984C36.55 7.92078 31.8079 16.6203 29.0251 20.7969Z" fill="#AFAFAD"/>
<path fill-rule="evenodd" clip-rule="evenodd" d="M12.6691 80.2503H12.6975C13.3222 80.231 14.0605 80.0771 14.9975 79.7306C19.3137 78.0561 20.5347 71.8009 21.1594 68.298C23.1187 56.0956 28.9965 56.4035 30.4447 34.0772C30.9558 25.7819 30.5015 24.1074 31.7793 20.8547C33.0287 17.3325 34.7892 13.9066 34.7892 10.7886C34.7892 7.7669 33.1139 5.03386 27.6335 2.83972C22.494 0.972785 22.6075 0.145173 17.4395 0.0874329C17.4395 0.0874329 17.4112 0.0874329 17.3544 0.0874329C17.0136 0.0874329 15.4803 0.202914 12.4419 1.95437C11.3629 2.58951 10.0851 3.43637 8.60854 4.57193C3.41216 8.49828 0.260254 9.03719 0.260254 13.5217C0.260254 14.3878 0.373836 15.4271 0.629396 16.6589C3.04302 27.3024 7.21716 28.4764 7.72828 35.1936C8.2394 44.6437 7.55791 43.7391 9.37522 57.9048C9.37522 58.0395 9.40361 58.155 9.40361 58.2897C9.40361 58.3282 9.43201 58.3667 9.43201 58.4244C10.8518 71.5507 8.12582 80.231 12.6691 80.2503ZM17.3828 0.145173C17.4112 0.145173 17.4112 0.145173 17.4112 0.145173C22.5791 0.241407 22.4088 1.04977 27.5484 2.9552C32.7163 5.03386 34.3349 7.53594 34.3349 10.3845C34.3633 15.0807 30.0188 20.7392 29.8768 27.1677C28.2015 59.8487 22.4656 53.8052 20.4495 68.2403C19.91 71.5892 18.8025 77.8444 14.742 79.4419C14.0321 79.7306 13.4358 79.8653 12.9247 79.9038C11.5049 79.9808 10.8518 79.0955 10.5678 77.7482C10.3407 76.7474 10.3123 75.4578 10.2839 74.1298C9.91473 47.9734 9.85794 70.6654 8.46656 35.1743C8.06902 28.8806 7.13197 31.5174 3.18499 22.356C1.45287 18.1794 0.714582 15.3694 0.714582 13.3485C0.742978 8.633 4.63317 8.17108 8.75052 4.64892C8.8357 4.55269 8.94929 4.4757 9.03447 4.39871C9.09126 4.37947 9.11966 4.34097 9.17645 4.32172C9.46041 4.09076 9.74436 3.87905 9.99992 3.68658C10.0283 3.66733 10.0567 3.64809 10.0851 3.62884C10.1987 3.55185 10.3407 3.45562 10.4542 3.37863C10.4542 3.35939 10.4826 3.35939 10.4826 3.34014C10.511 3.34014 10.511 3.34014 10.511 3.32089C10.5394 3.32089 10.5678 3.30165 10.5962 3.2824C10.6246 3.26315 10.653 3.2439 10.6814 3.22466C10.7382 3.18616 10.795 3.14767 10.8518 3.10918C10.8802 3.08993 10.8802 3.07068 10.9086 3.05144C10.9654 3.03219 10.9938 2.9937 11.0506 2.97445C11.079 2.93596 11.1073 2.91671 11.1641 2.89746C11.1641 2.87822 11.1925 2.87822 11.2209 2.85897C11.2493 2.82048 11.3061 2.80123 11.3345 2.76274C11.3345 2.76274 11.3629 2.76274 11.3629 2.74349C11.3913 2.74349 11.3913 2.72424 11.4197 2.72424C11.4481 2.705 11.4481 2.68575 11.4765 2.68575C11.5049 2.6665 11.5333 2.64725 11.5617 2.62801C11.5617 2.62801 11.5617 2.62801 11.5617 2.60876C11.6469 2.57027 11.7037 2.53177 11.7604 2.49328C11.7604 2.49328 11.7604 2.49328 11.7888 2.49328C11.7888 2.47403 11.8172 2.45479 11.8456 2.43554C15.1395 0.356888 16.8716 0.16442 17.326 0.145173C17.326 0.145173 17.3544 0.145173 17.3828 0.145173Z" fill="url(#paint2_linear_954_2026)"/>
<defs>
<linearGradient id="paint0_linear_954_2026" x1="5.65239" y1="52.2139" x2="30.4911" y2="52.2139" gradientUnits="userSpaceOnUse">
<stop stop-color="#FEFBF3"/>
<stop offset="1" stop-color="#EAB93A"/>
</linearGradient>
<linearGradient id="paint1_linear_954_2026" x1="0.457525" y1="16.8039" x2="34.6037" y2="16.8039" gradientUnits="userSpaceOnUse">
<stop stop-color="white"/>
<stop offset="0.180392" stop-color="white"/>
<stop offset="1" stop-color="#A4A4A3"/>
</linearGradient>
<linearGradient id="paint2_linear_954_2026" x1="0.257698" y1="40.1648" x2="34.7918" y2="40.1648" gradientUnits="userSpaceOnUse">
<stop stop-color="#E9E9E9"/>
<stop offset="1" stop-color="#A4A4A3"/>
</linearGradient>
</defs>
</svg>
