<svg width="32" height="75" viewBox="0 0 32 75" fill="none" xmlns="http://www.w3.org/2000/svg">
<path fill-rule="evenodd" clip-rule="evenodd" d="M15.2797 27.7731H15.3081H15.3365C19.1415 27.7539 22.9749 26.7915 26.6663 25.1363C26.6947 25.1363 26.7231 25.117 26.7799 25.0978C26.8367 25.0786 26.8935 25.0401 26.9503 25.0208C26.9787 25.0016 27.0071 25.0016 27.0354 24.9823C27.0638 24.9631 27.0922 24.9631 27.0922 24.9438C27.2626 24.8861 27.4046 24.8091 27.5466 24.7321C27.9441 23.3271 28.4268 21.9606 29.0231 20.6518C30.4429 17.5146 31.6071 11.0477 31.6071 6.90959C31.6071 5.48533 31.4651 4.33053 31.1528 3.67613C30.6701 2.69455 29.7046 1.71296 28.1713 1.09707C26.6379 0.481169 24.6218 0.134727 22.3218 0.0192468C21.8391 0 21.3563 0 20.8736 0C20.6181 0 20.3909 0 20.1353 0C19.539 0.0192468 18.9143 0.0384936 18.2896 0.0769871C13.3204 0.404182 9.82775 1.27029 7.32895 2.07865C2.78566 3.54141 1.62144 5.58157 1.22391 8.85352C1.13872 9.5464 1.11033 10.22 1.11033 10.8937C1.08193 16.5522 3.8363 21.4217 5.65361 24.2894C5.96596 24.7706 6.22152 25.2903 6.47708 25.8484C6.53387 25.8677 6.59066 25.8869 6.64745 25.9254C9.43022 27.1765 12.3266 27.7539 15.2797 27.7731Z" fill="url(#paint0_linear_954_2019)"/>
<path fill-rule="evenodd" clip-rule="evenodd" d="M27.092 24.9436C27.092 24.9629 27.0636 24.9629 27.0352 24.9821C27.0068 25.0014 26.9784 25.0014 26.95 25.0206C26.8932 25.0399 26.8364 25.0784 26.7796 25.0976C26.7228 25.1169 26.6944 25.1361 26.666 25.1361C22.9746 26.7913 19.1412 27.7537 15.3362 27.7729H15.3078C15.2794 27.7729 15.2794 27.7729 15.2794 27.7729C12.3263 27.7537 9.42994 27.1955 6.64718 25.9252C6.59039 25.8867 6.5336 25.8675 6.47681 25.8482C8.86203 31.1219 8.35091 38.5511 9.31636 43.536C10.367 48.9829 12.3547 62.8983 12.3547 66.5167C12.3547 66.5937 12.3547 66.6899 12.3547 66.7669C12.2411 70.2506 9.6855 74.3694 13.6041 74.3886C13.6893 74.3886 13.7745 74.3886 13.8596 74.3886L13.888 74.3694C18.3177 74.1769 19.7091 64.6498 22.1511 58.9527C26.5524 48.6942 24.5932 35.3562 27.5463 24.7319C27.4043 24.8089 27.2623 24.8859 27.092 24.9436Z" fill="url(#paint1_linear_954_2019)"/>
<path d="M22.6054 27.0418C23.0313 26.9071 23.4857 27.0803 23.5424 27.3883C23.7696 29.082 22.8042 31.5841 23.4005 36.2418C24.2807 43.2284 21.072 56.1429 19.851 59.6459C18.6016 63.1488 16.472 71.9253 15.2226 69.7889C14.4843 68.5764 19.1127 50.8308 19.851 45.0376C20.5325 39.4945 19.993 33.2393 17.9485 28.5431C17.7214 28.1004 18.0621 27.9657 18.914 28.1196C20.3338 28.3698 21.214 27.4845 22.6054 27.0418Z" fill="#E4BB47"/>
<path d="M29.6764 11.625C29.222 18.6693 26.8652 25.2132 22.7762 26.4642C16.3021 28.4274 21.3849 26.445 24.8207 22.9228C29.7899 17.8032 27.5467 5.81245 25.7578 3.38735C23.9689 0.981506 25.1331 0.712051 27.4047 2.36727C28.7677 3.36811 29.9319 7.50616 29.6764 11.625Z" fill="#AFAFAD"/>
<path fill-rule="evenodd" clip-rule="evenodd" d="M31.7768 7.31378V7.23679V7.1983C31.7768 6.21671 31.72 5.27362 31.5213 4.38827C31.2941 3.42593 30.7546 2.65606 29.9311 2.04016C29.0508 1.40501 27.915 0.923845 26.552 0.59665C26.552 0.59665 26.5236 0.577403 26.4952 0.577403C24.8199 0.173221 22.8606 0 20.7877 0C17.9766 0 14.9951 0.327195 12.2691 0.827612C8.3221 1.57824 4.91464 2.73304 3.46647 3.9071C1.79113 5.19663 0.825684 7.67946 0.825684 10.9129C0.825684 14.6853 2.16027 19.4392 5.31218 24.4434C8.77643 30.2559 7.75419 37.7429 9.25916 44.691C10.0826 49.1755 12.1555 61.2048 12.1555 66.4976C12.1555 66.8056 12.1271 67.0943 12.1271 67.3445C11.8999 69.2499 11.2184 71.0591 11.2184 72.4834C11.2184 72.7336 11.2468 72.9645 11.2752 73.1763C11.4172 73.9461 12.3259 74.6005 13.5185 74.6005C13.5185 74.6005 13.5185 74.6005 13.5469 74.6005C13.5469 74.6005 13.5469 74.6005 13.5753 74.6005C14.7679 74.6005 16.2729 73.9076 17.4939 72.0022C17.5223 71.983 17.5223 71.9637 17.5507 71.9252C18.2889 70.7127 18.8001 69.4616 19.2828 68.1913C24.252 55.0073 24.4508 53.2366 25.5014 45.8073C26.4668 38.6283 26.3533 34.6827 26.6088 31.7572C27.4039 21.5371 30.9249 21.4987 31.7484 8.85352C31.7484 8.33386 31.7768 7.81419 31.7768 7.31378ZM20.731 0.0962339C25.9841 0.0962339 30.5558 1.23179 31.2373 4.31128C31.2373 4.33053 31.2373 4.34977 31.2373 4.36902C31.2373 4.38827 31.2373 4.40751 31.2373 4.42676C31.4361 5.40835 31.5213 6.38993 31.5213 7.37152C31.4929 15.1087 26.4668 23.3656 25.6718 31.7187C24.5643 43.44 26.0693 47.2893 18.6581 68.0951C18.2037 69.3461 17.721 70.5972 17.0111 71.7905C16.358 72.8683 15.6198 73.5227 14.9099 73.8884C14.4271 74.1386 13.9444 74.2541 13.5185 74.2541C12.553 74.2541 11.8431 73.7344 11.758 73.1185C11.7012 72.9068 11.6728 72.6758 11.6728 72.4256C11.6728 71.0591 12.3259 69.2307 12.5246 67.3637C12.5246 67.229 12.5246 67.0943 12.5246 66.9211C12.5246 62.5905 10.4234 48.5211 9.77028 44.6525C8.40729 37.8199 9.48632 29.7748 6.05046 24.2317C2.81337 19.2083 1.30841 14.2234 1.30841 10.3355C1.30841 7.50624 2.13188 5.25437 3.66524 4.02258C6.07886 1.96317 13.8876 0.115481 20.589 0.0962339C20.6174 0.0962339 20.6742 0.0962339 20.7026 0.0962339C20.7026 0.0962339 20.7026 0.0962339 20.731 0.0962339Z" fill="url(#paint2_linear_954_2019)"/>
<defs>
<linearGradient id="paint0_linear_954_2019" x1="1.09868" y1="13.8804" x2="31.6051" y2="13.8804" gradientUnits="userSpaceOnUse">
<stop stop-color="white"/>
<stop offset="0.180392" stop-color="white"/>
<stop offset="1" stop-color="#A4A4A3"/>
</linearGradient>
<linearGradient id="paint1_linear_954_2019" x1="6.47312" y1="49.5626" x2="27.5525" y2="49.5626" gradientUnits="userSpaceOnUse">
<stop stop-color="#FEFBF3"/>
<stop offset="1" stop-color="#EAB93A"/>
</linearGradient>
<linearGradient id="paint2_linear_954_2019" x1="0.821708" y1="37.3041" x2="31.7805" y2="37.3041" gradientUnits="userSpaceOnUse">
<stop stop-color="#E9E9E9"/>
<stop offset="1" stop-color="#A4A4A3"/>
</linearGradient>
</defs>
</svg>
