<svg width="30" height="74" viewBox="0 0 30 74" fill="none" xmlns="http://www.w3.org/2000/svg">
<path fill-rule="evenodd" clip-rule="evenodd" d="M5.02951 0.866186C-1.18911 2.81011 0.741784 7.67955 0.855366 10.2779C1.02574 13.8 3.01343 21.9799 4.83074 26.118C4.91593 26.2912 4.97272 26.4836 5.02951 26.6761C5.0863 26.6954 5.1147 26.7146 5.17149 26.7531C5.25667 26.7916 5.31346 26.8301 5.39865 26.8686C7.15917 27.8502 8.8913 28.4468 10.5666 28.7163C15.9618 29.6209 20.6471 27.1573 24.3669 23.5774C25.5027 20.4402 26.8089 17.6686 27.7459 15.0318C28.5978 12.6645 29.1089 8.91134 29.1089 5.81261C29.1089 3.36827 28.7966 1.34736 28.0583 0.750705C28.0015 0.731458 27.9731 0.712211 27.9447 0.673718C27.2632 0.192548 26.1274 0.0770678 24.6224 0.0770678H24.594H24.5656C23.9409 0.0770678 23.2594 0.0963146 22.5212 0.115561C22.4644 0.115561 22.436 0.115561 22.3792 0.115561C22.2088 0.134808 22.0384 0.134808 21.8681 0.134808C21.8113 0.134808 21.7829 0.154055 21.7261 0.154055C21.3001 0.154055 20.8458 0.173302 20.3915 0.192548C19.71 0.211795 19.0001 0.231042 18.2618 0.231042C18.2334 0.231042 18.2334 0.231042 18.205 0.231042C18.205 0.231042 18.205 0.231042 18.1766 0.231042C17.2112 0.231042 16.1606 0.192548 15.0531 0.134808C13.9457 0.0770678 12.9235 0.0385742 11.958 0.0385742C8.94809 0.0385742 6.70485 0.346523 5.02951 0.866186Z" fill="url(#paint0_linear_954_2012)"/>
<path fill-rule="evenodd" clip-rule="evenodd" d="M24.2523 23.6926C24.1955 23.7504 24.1388 23.8081 24.082 23.8659C24.0536 23.8659 24.0252 23.8851 24.0252 23.9043C20.9017 26.8106 17.0967 28.8893 12.8089 28.9085C12.8089 28.9085 12.8089 28.9085 12.7805 28.9085C12.7805 28.9085 12.7805 28.9085 12.7521 28.9085C10.4521 28.8893 7.9817 28.2926 5.39771 26.8683C5.31252 26.8299 5.25573 26.7914 5.17054 26.7529C5.11375 26.7144 5.08536 26.6951 5.02856 26.6759C7.66935 33.7202 4.94338 48.4825 10.1682 63.5912C11.3892 67.0941 11.3892 73.3108 13.6892 73.3108C15.9892 73.3108 17.6362 64.3418 19.6523 56.6431C21.7819 48.4632 21.3276 35.7411 22.5486 29.8324C23.0029 27.5805 23.656 25.5211 24.3659 23.5771C24.3091 23.6156 24.2807 23.6541 24.2523 23.6926Z" fill="url(#paint1_linear_954_2012)"/>
<path d="M19.369 39.1095C20.3345 47.963 19.1703 57.3554 17.7505 61.686C16.5863 65.2659 15.2801 71.752 14.7122 69.3847C14.0023 66.4784 18.7727 59.0107 17.3246 44.4601C16.6431 37.5697 14.0875 35.1254 17.6937 28.5815C18.1196 27.8116 20.0221 27.5422 20.874 26.9263C19.795 29.948 18.9715 35.2216 19.369 39.1095Z" fill="#E4BB47"/>
<path d="M21.7256 25.7908C21.0441 26.8686 18.8576 27.7347 18.886 27.3691C19.2836 20.036 22.2935 17.534 24.3664 11.7792C25.9281 7.44864 26.8936 2.59845 20.6181 2.17502C19.6527 2.09803 18.886 1.21268 20.8737 0.981722C26.2689 0.346578 28.0862 3.06037 28.1997 5.17752C28.3701 8.0068 28.1146 15.3783 21.7256 25.7908Z" fill="#AFAFAD"/>
<path fill-rule="evenodd" clip-rule="evenodd" d="M22.0662 0.0962339C21.6402 0.115481 21.1859 0.134727 20.7316 0.134727C19.9933 0.173221 19.1982 0.173221 18.3464 0.173221C18.318 0.173221 18.318 0.173221 18.318 0.173221C18.2896 0.173221 18.2896 0.173221 18.2896 0.173221C18.2328 0.173221 18.1476 0.173221 18.0624 0.173221C17.9772 0.173221 17.892 0.173221 17.7785 0.173221C16.955 0.173221 16.1315 0.173221 15.3648 0.153974C15.0241 0.153974 14.6833 0.153974 14.3426 0.153974C14.3142 0.153974 14.3142 0.153974 14.2858 0.153974C13.5759 0.134727 12.866 0.134727 12.2129 0.134727C12.1845 0.134727 12.1845 0.134727 12.1845 0.134727C12.1845 0.134727 12.1845 0.134727 12.1561 0.134727C1.87695 0.134727 -2.09842 1.46276 1.70658 17.3413C1.73498 17.4953 1.79177 17.6493 1.82016 17.8033C1.82016 17.8418 1.82016 17.861 1.84856 17.8803C1.84856 17.938 1.87695 17.9957 1.87695 18.0342C1.90535 18.169 1.93375 18.3037 1.99054 18.4384C5.65356 33.3739 4.91528 19.7857 6.53382 44.4793C7.35729 58.491 10.1684 62.6483 10.7648 66.7863C11.1623 68.9227 11.4746 72.6566 13.1784 73.388C13.2068 73.388 13.2068 73.388 13.2068 73.388C13.3771 73.4457 13.5191 73.4842 13.6895 73.4842H13.7179C15.1661 73.4265 16.0179 70.8666 16.529 69.5579C16.529 69.5194 16.5574 69.4809 16.5574 69.4424C16.5858 69.4231 16.5858 69.4039 16.5858 69.3654C23.4008 49.7337 21.2143 38.7438 23.1168 29.4091C25.3885 18.9966 28.9663 17.3798 29.307 6.8711C29.3922 0.904599 28.5688 0 24.9057 0C24.1107 0 23.1736 0.0577403 22.0662 0.0962339ZM24.8205 0.115481C28.3416 0.134727 29.1651 0.943092 28.8811 6.85185C28.1996 17.707 24.3378 19.2853 22.1798 29.3128C20.4476 37.8969 21.981 51.0617 16.0179 69.2884C15.7624 70.0198 14.8821 72.8298 13.8315 73.1185L13.7463 73.1378V73.157C11.9574 72.8491 11.5882 68.8842 11.1623 66.7671C10.424 62.0901 7.72643 59.5303 7.04494 44.4793C5.68196 15.6669 5.19923 33.9898 1.45102 12.8953C0.996693 10.4702 0.741133 8.52632 0.741133 6.96733C0.741133 -0.692884 6.44864 0.635144 21.0723 0.211715C21.1575 0.211715 21.2427 0.211715 21.3279 0.211715C21.3563 0.211715 21.4131 0.211715 21.4699 0.211715C22.123 0.192468 22.7193 0.173221 23.2588 0.153974C23.7983 0.134727 24.3094 0.115481 24.7638 0.115481C24.7638 0.115481 24.7638 0.115481 24.7921 0.115481H24.8205Z" fill="url(#paint2_linear_954_2012)"/>
<defs>
<linearGradient id="paint0_linear_954_2012" x1="1.91906" y1="14.4708" x2="27.6812" y2="14.4708" gradientUnits="userSpaceOnUse">
<stop stop-color="white"/>
<stop offset="0.180392" stop-color="white"/>
<stop offset="1" stop-color="#A4A4A3"/>
</linearGradient>
<linearGradient id="paint1_linear_954_2012" x1="5.23102" y1="48.4444" x2="24.1708" y2="48.4444" gradientUnits="userSpaceOnUse">
<stop stop-color="#FEFBF3"/>
<stop offset="1" stop-color="#EAB93A"/>
</linearGradient>
<linearGradient id="paint2_linear_954_2012" x1="2.0283" y1="36.7421" x2="27.5655" y2="36.7421" gradientUnits="userSpaceOnUse">
<stop stop-color="#E9E9E9"/>
<stop offset="1" stop-color="#A4A4A3"/>
</linearGradient>
</defs>
</svg>
