<svg width="28" height="69" viewBox="0 0 28 69" fill="none" xmlns="http://www.w3.org/2000/svg">
<path fill-rule="evenodd" clip-rule="evenodd" d="M16.673 0.300781C15.8526 0.318719 15.0058 0.336658 14.106 0.390472C11.7241 0.533977 9.6334 0.462225 7.88672 0.40841C5.00205 0.300781 2.96426 0.193152 1.98506 0.964493C1.29697 1.52057 1.00586 3.40408 1.00586 5.68222C1.00586 8.57027 1.48223 12.0682 2.27617 14.2746C3.14951 16.7321 4.3669 19.3152 5.42549 22.2391C10.0039 26.6699 16.2231 29.2529 23.4481 25.1272C23.501 24.9478 23.5539 24.7684 23.6333 24.607C25.3271 20.7503 27.1796 13.1266 27.3384 9.84387V9.82593C27.4707 6.74057 30.3289 0.300781 16.9906 0.300781C16.8848 0.300781 16.7789 0.300781 16.673 0.300781Z" fill="url(#paint0_linear_954_2134)"/>
<path fill-rule="evenodd" clip-rule="evenodd" d="M7.1188 28.0692C8.25679 33.5762 7.83335 45.4333 9.81821 53.057C11.6972 60.2322 13.2322 68.5914 15.3758 68.5914C17.5195 68.5914 17.5195 62.7974 18.6575 59.5327C23.527 45.4512 20.9599 31.6927 23.4476 25.1273C16.2227 29.2531 10.0035 26.67 5.42505 22.2393C6.08667 24.051 6.69536 25.9704 7.1188 28.0692Z" fill="url(#paint1_linear_954_2134)"/>
<path d="M19.8481 37.2717C20.7479 45.5233 19.9275 52.0707 18.6042 56.1068C17.5192 59.4433 15.9842 64.161 15.4284 61.9367C14.7668 59.246 18.9218 50.9944 17.4662 45.7385C15.746 39.4064 16.0107 28.5538 17.0693 27.2084C19.0012 26.9752 20.9596 26.5268 21.7535 25.9707C20.7479 28.787 19.4776 33.6662 19.8481 37.2717Z" fill="#E4BB47"/>
<path d="M23.7387 20.6967C23.13 21.7013 22.0449 26.0602 19.769 26.7239C12.7028 28.7689 23.8975 21.1272 24.3474 11.333C24.5326 7.17136 23.4211 0.301051 25.2736 3.54785C26.1735 5.0726 29.6933 10.9742 23.7387 20.6967Z" fill="#AFAFAD"/>
<path fill-rule="evenodd" clip-rule="evenodd" d="M1.77288 1.12617C0.978937 1.96926 0.767218 3.60163 0.820147 6.66905C1.13773 16.4633 4.4723 17.9701 6.58949 27.6746C8.36263 36.3746 6.32484 46.6173 12.6764 64.9142C12.6764 64.968 12.7029 65.0218 12.7293 65.0577C13.1792 66.2775 13.9732 68.6812 15.3229 68.753C15.3494 68.753 15.3758 68.753 15.3758 68.753C15.5346 68.753 15.6669 68.7171 15.8257 68.6633C15.8257 68.6633 15.8257 68.6633 15.8522 68.6633C17.4401 67.9637 17.7312 64.5016 18.1017 62.5105C18.6575 58.6538 21.2775 54.7792 22.045 41.7202C23.5535 18.7055 22.8654 31.3699 26.2793 17.4499C26.3058 17.3781 26.3323 17.3243 26.3323 17.2526C26.3587 17.1987 26.3587 17.1449 26.3852 17.0732C26.3852 17.0194 26.4117 16.9655 26.4381 16.8938C26.4646 16.7324 26.5175 16.5709 26.544 16.4274C30.0903 1.62844 26.3852 0.390704 16.7785 0.390704H16.752C16.1433 0.390704 15.4817 0.390704 14.7936 0.408642C13.7879 0.408642 12.7029 0.42658 11.5649 0.42658C11.459 0.42658 11.3796 0.42658 11.3002 0.42658C11.2208 0.42658 11.1414 0.42658 11.0885 0.42658H11.062C11.062 0.42658 11.0356 0.42658 11.0091 0.42658C10.2152 0.42658 9.44769 0.42658 8.7596 0.390704C8.36263 0.390704 7.96566 0.372766 7.62161 0.354827C7.59515 0.354827 7.56868 0.354827 7.56868 0.354827C6.53656 0.318951 5.66322 0.265137 4.9222 0.265137C3.38724 0.265137 2.40804 0.444518 1.77288 1.12617ZM5.05452 0.372766C5.29271 0.372766 5.55736 0.390704 5.822 0.390704C5.87493 0.390704 5.92786 0.390704 5.98079 0.390704C6.13958 0.390704 6.29837 0.408642 6.45716 0.408642C6.48363 0.408642 6.48363 0.408642 6.51009 0.408642C6.72181 0.408642 6.95999 0.42658 7.19818 0.42658C7.25111 0.42658 7.27757 0.42658 7.3305 0.444518C7.51576 0.444518 7.70101 0.444518 7.91273 0.462456C7.96566 0.462456 8.01859 0.462456 8.07152 0.462456C8.20384 0.462456 8.3097 0.462456 8.41556 0.462456C8.44202 0.462456 8.46849 0.462456 8.49495 0.462456C22.1244 0.857095 27.4438 -0.380636 27.4438 6.75874C27.4438 8.21173 27.2056 10.0235 26.7822 12.2837C23.2888 31.9439 22.8389 14.8668 21.5686 41.7202C20.9334 55.7478 18.4193 58.1336 17.7312 62.4926C17.3342 64.4657 16.9902 68.161 15.3229 68.448V68.4301L15.2435 68.4121C14.2643 68.1431 13.4439 65.5241 13.2057 64.8425C7.64808 47.855 9.07718 35.5853 7.46283 27.5849C5.4515 18.2392 1.85228 16.7682 1.21712 6.65112C0.952472 1.14411 1.71995 0.390704 5.02806 0.372766C5.05452 0.372766 5.05452 0.372766 5.05452 0.372766Z" fill="url(#paint2_linear_954_2134)"/>
<defs>
<linearGradient id="paint0_linear_954_2134" x1="25.5462" y1="13.7513" x2="3.13681" y2="13.7513" gradientUnits="userSpaceOnUse">
<stop stop-color="#A4A4A3"/>
<stop offset="0.819608" stop-color="white"/>
<stop offset="1" stop-color="white"/>
</linearGradient>
<linearGradient id="paint1_linear_954_2134" x1="23.2597" y1="45.4161" x2="5.60554" y2="45.4161" gradientUnits="userSpaceOnUse">
<stop stop-color="#EAB93A"/>
<stop offset="1" stop-color="#FEFBF3"/>
</linearGradient>
<linearGradient id="paint2_linear_954_2134" x1="26.2439" y1="34.5091" x2="2.4435" y2="34.5091" gradientUnits="userSpaceOnUse">
<stop stop-color="#A4A4A3"/>
<stop offset="1" stop-color="#E9E9E9"/>
</linearGradient>
</defs>
</svg>
