<svg width="31" height="68" viewBox="0 0 31 68" fill="none" xmlns="http://www.w3.org/2000/svg">
<path d="M26 19.9102C26 18.9325 24.3042 18.2007 22.8817 17.759C20.7824 17.107 18.134 16.748 15.4242 16.748C12.7145 16.748 10.0661 17.107 7.96676 17.7589C6.54422 18.2006 4.84839 18.9325 4.84839 19.9101C4.84839 19.9664 4.84839 22.2319 4.84839 22.2319C4.84839 23.0323 5.38453 23.6835 6.04353 23.6835C6.04353 23.6835 6.84086 23.6835 7.10658 23.6835C7.50496 23.6835 7.70025 24.0865 7.70025 24.0865L10.8371 30.9166C11.017 31.3084 11.1748 32.0454 11.1748 32.4938V36.2094C11.1748 36.8687 11.5359 37.3475 12.0334 37.3475H12.0334C12.1746 37.3475 12.3192 37.3089 12.4628 37.2325L18.7049 33.915C19.2571 33.6216 19.6735 32.9293 19.6735 32.305C19.6735 31.9572 19.8313 31.3085 20.0112 30.9167L23.1913 23.9926C23.1913 23.9926 23.3506 23.6836 23.6295 23.6836C23.9233 23.6836 24.8048 23.6836 24.8048 23.6836C25.4638 23.6836 25.9999 23.0324 25.9999 22.232C25.9999 22.232 26 19.9665 26 19.9102Z" fill="#333232"/>
<path d="M18.8149 50.7817C18.6736 50.7817 18.5292 50.8204 18.3855 50.8967L12.1434 54.2142C11.6003 54.5027 11.1748 55.293 11.1748 56.013V57.8607C11.1748 58.5201 11.5359 58.9988 12.0334 58.9988C12.1746 58.9988 12.3192 58.9602 12.4629 58.8838L18.7049 55.5663C19.2481 55.2778 19.6736 54.4875 19.6736 53.7675V51.9198C19.6735 51.2604 19.3124 50.7817 18.8149 50.7817Z" fill="#333232"/>
<path d="M18.8149 43.5646C18.6736 43.5646 18.5292 43.6032 18.3855 43.6796L12.1434 46.9971C11.6003 47.2856 11.1748 48.0758 11.1748 48.7959V50.6436C11.1748 51.3031 11.5359 51.7817 12.0334 51.7817C12.1746 51.7817 12.3192 51.743 12.4629 51.6667L18.7049 48.3492C19.2481 48.0606 19.6736 47.2704 19.6736 46.5504V44.7026C19.6735 44.0433 19.3124 43.5646 18.8149 43.5646Z" fill="#333232"/>
<path d="M18.8151 57.9988C18.6739 57.9988 18.5294 58.0374 18.3858 58.1138L12.1437 61.4313C11.6616 61.6875 11.175 62.1832 11.175 62.7128C11.175 63.1583 11.5237 63.7922 11.8477 64.1925L14.5818 67.5722C14.8058 67.8491 15.1051 68.0016 15.4243 68.0016C15.7436 68.0016 16.0429 67.8491 16.2669 67.5721L19.001 64.1926C19.3845 63.7186 19.6736 62.86 19.6736 62.1955V59.1368C19.6737 58.4774 19.3126 57.9988 18.8151 57.9988Z" fill="#333232"/>
<path d="M18.8151 36.3475C18.6739 36.3475 18.5294 36.3861 18.3858 36.4624L12.1437 39.7799C11.6005 40.0685 11.175 40.8587 11.175 41.5788V43.4265C11.175 44.0859 11.5361 44.5646 12.0336 44.5646C12.1748 44.5646 12.3194 44.526 12.4631 44.4495L18.7052 41.1321C19.2483 40.8435 19.6738 40.0533 19.6738 39.3332V37.4855C19.6737 36.8261 19.3126 36.3475 18.8151 36.3475Z" fill="#333232"/>
<path fill-rule="evenodd" clip-rule="evenodd" d="M11.3883 0.356417C9.66178 0.797374 8.08542 1.52665 5.08284 1.93369C0.854191 2.49336 0.35376 3.46007 0.35376 5.02038C0.35376 5.24086 0.35376 5.46134 0.378781 5.69878C0.729083 13.1611 4.90769 15.9256 5.63331 18.9784C11.1881 16.8075 19.2951 17.0958 25.4003 19.114C25.5505 18.7748 25.6756 18.4526 25.8257 18.1643C27.4771 14.7214 30.4547 11.4651 30.4297 7.24212C30.4297 7.15733 30.4297 7.07253 30.4297 6.98773C30.3546 3.73143 27.4271 3.29047 24.0242 2.18808C19.0198 0.576896 16.1424 0.0341797 14.0656 0.0341797C13.0397 0.0341797 12.189 0.169859 11.3883 0.356417Z" fill="url(#paint0_linear_936_2175)"/>
<path d="M21.7224 12.4316C20.1961 15.0603 23.549 15.5183 23.3989 18.5371C22.8734 18.5032 20.6715 18.1301 19.9959 18.0453C20.7716 14.3819 19.4455 14.2463 17.8941 9.56534C16.3178 4.81657 11.6888 3.20538 14.5913 1.74684C17.3186 0.356126 27.7777 2.42523 29.7293 5.59673C32.9071 10.7356 23.499 9.3279 21.7224 12.4316Z" fill="#AFAFAD"/>
<path fill-rule="evenodd" clip-rule="evenodd" d="M20.2463 14.9754C20.6717 14.9754 20.8469 14.2122 20.0462 12.3975C20.0211 12.3805 20.0211 12.3466 19.9961 12.3297C19.6959 11.6343 19.5708 11.0407 19.5708 10.498C19.5708 8.51368 21.2222 7.20777 21.6976 5.03691C22.198 2.64556 19.796 1.18702 17.2187 0.966537C16.9685 0.949577 16.7433 0.932617 16.5181 0.932617C15.6424 0.932617 14.7916 1.08526 14.041 1.37357C13.2903 1.67885 12.9901 2.01805 13.0151 2.44205C13.0151 3.79884 16.0677 5.95274 17.2688 9.56519C18.0945 12.0244 19.0203 14.1104 19.796 14.7549C19.796 14.7719 19.821 14.7888 19.821 14.7888C19.9711 14.9076 20.1212 14.9754 20.2463 14.9754Z" fill="url(#paint1_linear_936_2175)"/>
<defs>
<linearGradient id="paint0_linear_936_2175" x1="30.4394" y1="9.57224" x2="0.346004" y2="9.57224" gradientUnits="userSpaceOnUse">
<stop stop-color="#A4A4A3"/>
<stop offset="0.819608" stop-color="white"/>
<stop offset="1" stop-color="white"/>
</linearGradient>
<linearGradient id="paint1_linear_936_2175" x1="13.3554" y1="7.95672" x2="21.4048" y2="7.95672" gradientUnits="userSpaceOnUse">
<stop stop-color="#E9E9E9"/>
<stop offset="1" stop-color="#A4A4A3"/>
</linearGradient>
</defs>
</svg>
