<svg width="43" height="62" viewBox="0 0 43 62" fill="none" xmlns="http://www.w3.org/2000/svg">
<path d="M40 17.8998C40 17.0032 36.9535 16.3321 34.3978 15.9271C30.6263 15.3292 25.8682 15 21.0001 15C16.1319 15 11.3739 15.3292 7.60233 15.9271C5.04665 16.3321 2 17.0032 2 17.8997C2 17.9513 2 20.0288 2 20.0288C2 20.7628 2.96321 21.3599 4.14714 21.3599C4.14714 21.3599 5.57957 21.3599 6.05696 21.3599C6.77267 21.3599 7.12351 21.7295 7.12351 21.7295L12.759 27.9928C13.0823 28.352 13.3657 29.0278 13.3657 29.439V32.8463C13.3657 33.4509 14.0144 33.8899 14.9082 33.8899H14.9083C15.162 33.8899 15.4217 33.8545 15.6797 33.7845L26.894 30.7423C27.8861 30.4733 28.6342 29.8385 28.6342 29.2659C28.6342 28.947 28.9176 28.3521 29.2408 27.9929L34.9541 21.6433C34.9541 21.6433 35.2402 21.36 35.7412 21.36C36.2691 21.36 37.8527 21.36 37.8527 21.36C39.0366 21.36 39.9999 20.7629 39.9999 20.0289C39.9999 20.0289 40 17.9514 40 17.8998Z" fill="#333232"/>
<path d="M27.0915 46.2092C26.8378 46.2092 26.5782 46.2446 26.3202 46.3147L15.1059 49.3568C14.1301 49.6214 13.3657 50.3461 13.3657 51.0064V52.7007C13.3657 53.3054 14.0144 53.7444 14.9082 53.7444C15.1619 53.7444 15.4217 53.709 15.6798 53.6389L26.894 50.5967C27.8698 50.3321 28.6342 49.6075 28.6342 48.9472V47.2528C28.6341 46.6481 27.9853 46.2092 27.0915 46.2092Z" fill="#333232"/>
<path d="M27.0915 39.5911C26.8378 39.5911 26.5782 39.6265 26.3202 39.6965L15.1059 42.7387C14.1301 43.0033 13.3657 43.7279 13.3657 44.3883V46.0826C13.3657 46.6874 14.0144 47.1263 14.9082 47.1263C15.1619 47.1263 15.4217 47.0908 15.6798 47.0208L26.894 43.9786C27.8698 43.7139 28.6342 42.9894 28.6342 42.3291V40.6347C28.6341 40.03 27.9853 39.5911 27.0915 39.5911Z" fill="#333232"/>
<path d="M27.0925 52.8273C26.8387 52.8273 26.5792 52.8627 26.3211 52.9328L15.1069 55.975C14.2407 56.21 13.3667 56.6645 13.3667 57.1502C13.3667 57.5586 13.9931 58.1399 14.5751 58.5071L19.4871 61.6063C19.8896 61.8601 20.4272 62 21.0008 62C21.5744 62 22.112 61.8601 22.5145 61.6062L27.4265 58.5071C28.1154 58.0725 28.6349 57.2851 28.6349 56.6758V53.8709C28.635 53.2662 27.9863 52.8273 27.0925 52.8273Z" fill="#333232"/>
<path d="M27.0925 32.9729C26.8387 32.9729 26.5792 33.0083 26.3211 33.0783L15.1069 36.1205C14.1311 36.3851 13.3667 37.1097 13.3667 37.77V39.4644C13.3667 40.0691 14.0154 40.5081 14.9092 40.5081C15.1629 40.5081 15.4227 40.4727 15.6807 40.4026L26.895 37.3604C27.8708 37.0958 28.6352 36.3712 28.6352 35.7108V34.0165C28.635 33.4118 27.9863 32.9729 27.0925 32.9729Z" fill="#333232"/>
<path fill-rule="evenodd" clip-rule="evenodd" d="M0.0658071 9.91241C0.0658071 12.0681 0.548531 14.6086 1.76954 17.5149L1.82633 17.6496C1.91152 17.6304 1.9967 17.5919 2.08189 17.5534C6.4548 15.8404 11.7932 15.0321 17.3303 15.0321H17.3587H17.3871C25.2242 15.0321 33.459 16.6488 39.8763 19.6128C39.9047 19.632 39.9047 19.632 39.9331 19.6513C40.0183 19.6898 40.1035 19.7283 40.2171 19.7668C40.2171 19.6898 40.2171 19.5935 40.2171 19.5166C40.2171 19.3241 40.1887 19.1509 40.1887 18.9776C40.1887 18.9776 42.0344 15.2053 42.0344 11.0095C42.0344 9.85467 41.8924 8.68062 41.5517 7.54506C39.6492 1.52082 34.6516 3.6957 30.5342 1.925C30.5058 1.925 30.449 1.90575 30.4206 1.88651C30.3638 1.86726 30.3354 1.84801 30.2787 1.82877C30.2787 1.82877 30.2503 1.82877 30.2503 1.80952C30.2219 1.80952 30.2219 1.80952 30.1935 1.79027C28.6317 1.21287 26.928 1.00116 25.1391 1.00116H25.1107H25.0823C22.981 1.00116 20.7661 1.28986 18.5797 1.54007C18.2389 1.57856 17.8982 1.61705 17.5575 1.65555C17.3019 1.67479 17.0463 1.69404 16.8192 1.73253C16.7056 1.73253 16.592 1.75178 16.5068 1.75178C16.3932 1.77103 16.3081 1.77103 16.1945 1.79027H16.1661C16.0525 1.79027 15.9389 1.80952 15.8537 1.80952C15.7685 1.82877 15.6833 1.82877 15.5982 1.82877C15.0586 1.86726 14.5759 1.88651 14.15 1.88651H14.1216C10.8277 1.88651 11.0833 0.770194 9.43633 0.327518C9.0388 0.231284 8.49928 0.154297 7.761 0.154297C4.5523 0.154297 0.0374116 3.38776 0.0658071 9.91241Z" fill="url(#paint0_linear_936_2187)"/>
<path d="M35.8725 18.034C35.8725 18.034 31.3576 16.6482 30.0514 16.398C29.8243 13.7612 29.3699 11.8943 28.8872 10.7202C27.581 7.50601 23.0661 -1.90567 29.6255 2.69431C30.5909 3.36795 31.4712 6.33196 33.5157 6.60141C36.7244 7.02484 37.0083 3.59891 38.0022 4.48427C39.5071 5.88928 34.1404 15.3587 35.8725 18.034Z" fill="#AFAFAD"/>
<path d="M15.2294 2.27106C10.7429 1.78989 11.6516 1.11625 9.74905 0.442616C7.90335 -0.211775 6.02924 1.36646 8.95398 2.75223C12.2479 4.34971 17.3023 2.48277 15.2294 2.27106Z" fill="#E9EAE9"/>
<defs>
<linearGradient id="paint0_linear_936_2187" x1="0.0518933" y1="9.96438" x2="42.0421" y2="9.96438" gradientUnits="userSpaceOnUse">
<stop stop-color="white"/>
<stop offset="0.180392" stop-color="white"/>
<stop offset="1" stop-color="#A4A4A3"/>
</linearGradient>
</defs>
</svg>
