<svg width="34" height="73" viewBox="0 0 34 73" fill="none" xmlns="http://www.w3.org/2000/svg">
<path d="M25.1516 24.1622C25.1516 23.1845 23.6964 22.4527 22.4756 22.0111C20.674 21.359 18.4012 21 16.0758 21C13.7505 21 11.4776 21.359 9.67609 22.011C8.45531 22.4526 7 23.1845 7 24.1621C7 24.2184 7 26.4839 7 26.4839C7 27.2843 7.4601 27.9355 8.02563 27.9355C8.02563 27.9355 8.70987 27.9355 8.9379 27.9355C9.27978 27.9355 9.44737 28.3385 9.44737 28.3385L12.1393 35.1686C12.2937 35.5604 12.4291 36.2974 12.4291 36.7458V40.4614C12.4291 41.1208 12.739 41.5995 13.1659 41.5995H13.166C13.2871 41.5995 13.4112 41.5609 13.5345 41.4845L18.8912 38.1671C19.3651 37.8737 19.7225 37.1814 19.7225 36.557C19.7225 36.2092 19.8578 35.5605 20.0122 35.1687L22.7413 28.2446C22.7413 28.2446 22.878 27.9356 23.1173 27.9356C23.3695 27.9356 24.1259 27.9356 24.1259 27.9356C24.6914 27.9356 25.1515 27.2844 25.1515 26.484C25.1515 26.484 25.1516 24.2185 25.1516 24.1622Z" fill="#333232"/>
<path d="M18.9857 55.0338C18.8644 55.0338 18.7405 55.0724 18.6172 55.1487L13.2604 58.4662C12.7943 58.7547 12.4292 59.545 12.4292 60.265V62.1128C12.4292 62.7721 12.7391 63.2509 13.166 63.2509C13.2872 63.2509 13.4113 63.2123 13.5346 63.1358L18.8913 59.8183C19.3574 59.5298 19.7226 58.7396 19.7226 58.0195V56.1718C19.7225 55.5124 19.4126 55.0338 18.9857 55.0338Z" fill="#333232"/>
<path d="M18.9857 47.8167C18.8644 47.8167 18.7405 47.8553 18.6172 47.9316L13.2604 51.2491C12.7943 51.5376 12.4292 52.3279 12.4292 53.0479V54.8957C12.4292 55.5551 12.7391 56.0338 13.166 56.0338C13.2872 56.0338 13.4113 55.9951 13.5346 55.9187L18.8913 52.6012C19.3574 52.3126 19.7226 51.5224 19.7226 50.8024V48.9547C19.7225 48.2953 19.4126 47.8167 18.9857 47.8167Z" fill="#333232"/>
<path d="M18.9859 62.2508C18.8647 62.2508 18.7407 62.2894 18.6174 62.3659L13.2607 65.6833C12.8469 65.9396 12.4294 66.4352 12.4294 66.9648C12.4294 67.4103 12.7287 68.0442 13.0067 68.4445L15.353 71.8242C15.5453 72.1011 15.8021 72.2536 16.0761 72.2536C16.35 72.2536 16.6069 72.1011 16.7991 71.8241L19.1454 68.4446C19.4745 67.9707 19.7227 67.112 19.7227 66.4475V63.3888C19.7227 62.7294 19.4129 62.2508 18.9859 62.2508Z" fill="#333232"/>
<path d="M18.9859 40.5995C18.8647 40.5995 18.7407 40.6381 18.6174 40.7144L13.2607 44.0319C12.7946 44.3205 12.4294 45.1107 12.4294 45.8308V47.6785C12.4294 48.3379 12.7393 48.8166 13.1663 48.8166C13.2874 48.8166 13.4115 48.778 13.5348 48.7015L18.8916 45.3841C19.3577 45.0955 19.7228 44.3053 19.7228 43.5852V41.7375C19.7227 41.0781 19.4129 40.5995 18.9859 40.5995Z" fill="#333232"/>
<path fill-rule="evenodd" clip-rule="evenodd" d="M7.24997 2.61146C7.19993 2.62842 7.1749 2.64538 7.12486 2.66234C2.22063 4.79929 0.544189 7.20759 0.544189 9.71765C0.544189 14.229 5.89881 19.0286 7.27499 22.9972C11.954 26.491 17.8341 27.322 23.7392 26.3214C25.5658 25.6938 26.3664 24.7271 27.3173 23.7943C29.5192 20.4532 33.7728 15.3992 33.7728 10.413C33.7728 5.6812 27.8427 4.30745 25.4156 2.9337C23.0136 1.57691 17.9092 0.0844411 15.457 0.0166016C15.432 0.0166016 15.382 0.0166016 15.3319 0.0166016C15.2819 0.0166016 15.2068 0.0166016 15.1568 0.0166016C12.1542 0.0166016 10.4277 1.22075 7.24997 2.61146Z" fill="url(#paint0_linear_936_2176)"/>
<path d="M22.1138 24.9142C21.9136 25.6265 21.0128 28.1535 20.2372 25.3043C19.5616 22.8281 23.6151 19.521 22.2889 14.3312C21.1129 9.66726 13.7065 2.56108 16.534 1.47565C20.5374 -0.0677018 31.7471 5.0881 31.1716 9.9895C30.6461 14.5347 23.1647 20.9965 22.1138 24.9142Z" fill="#AFAFAD"/>
<defs>
<linearGradient id="paint0_linear_936_2176" x1="33.7681" y1="13.3635" x2="0.551946" y2="13.3635" gradientUnits="userSpaceOnUse">
<stop stop-color="#A4A4A3"/>
<stop offset="0.819608" stop-color="white"/>
<stop offset="1" stop-color="white"/>
</linearGradient>
</defs>
</svg>
