<svg width="38" height="65" viewBox="0 0 38 65" fill="none" xmlns="http://www.w3.org/2000/svg">
<path d="M37.0661 15.8467C37.0623 14.869 34.3337 14.1476 32.0454 13.7147C28.6684 13.0756 24.4098 12.7329 20.0541 12.7496C15.6985 12.7663 11.4426 13.1416 8.07064 13.8064C5.78569 14.2569 3.06256 14.9992 3.06631 15.9768C3.06652 16.033 3.0752 18.2986 3.0752 18.2986C3.07826 19.099 3.94257 19.7468 5.00187 19.7428C5.00187 19.7428 6.28351 19.7379 6.71064 19.7362C7.35101 19.7338 7.66646 20.1356 7.66646 20.1356L12.7349 26.9464C13.0256 27.337 13.282 28.073 13.2837 28.5214L13.2979 32.237C13.3005 32.8964 13.8827 33.3729 14.6824 33.3698L14.6826 33.3698C14.9095 33.3689 15.1417 33.3294 15.3723 33.2522L25.3933 29.8963C26.2799 29.5995 26.9466 28.9047 26.9442 28.2803C26.9428 27.9325 27.1939 27.2828 27.4816 26.89L32.5669 19.9463C32.5669 19.9463 32.8218 19.6363 33.27 19.6346C33.7424 19.6328 35.1593 19.6274 35.1593 19.6274C36.2186 19.6233 37.0779 18.9689 37.0748 18.1685C37.0748 18.1685 37.0663 15.9029 37.0661 15.8467Z" fill="#333232"/>
<path d="M25.6352 46.7622C25.4081 46.7631 25.176 46.8026 24.9454 46.8798L14.9244 50.2357C14.0524 50.5276 13.3715 51.3204 13.3743 52.0405L13.3814 53.8882C13.3839 54.5476 13.9661 55.0241 14.7658 55.021C14.9928 55.0202 15.2251 54.9807 15.4557 54.9033L25.4767 51.5475C26.3487 51.2556 27.0296 50.4627 27.0268 49.7427L27.0198 47.895C27.0171 47.2356 26.4349 46.7592 25.6352 46.7622Z" fill="#333232"/>
<path d="M25.6073 39.5452C25.3803 39.5461 25.1482 39.5856 24.9176 39.6628L14.8966 43.0187C14.0246 43.3106 13.3437 44.1034 13.3464 44.8235L13.3535 46.6712C13.356 47.3307 13.9383 47.8071 14.738 47.804C14.965 47.8031 15.1973 47.7635 15.4279 47.6863L25.4489 44.3304C26.3209 44.0384 27.0018 43.2457 26.999 42.5256L26.9919 40.6779C26.9893 40.0185 26.407 39.5421 25.6073 39.5452Z" fill="#333232"/>
<path d="M25.6627 53.9792C25.4357 53.9801 25.2036 54.0196 24.973 54.0969L14.952 57.4528C14.178 57.712 13.3979 58.2106 13.3999 58.7403C13.4016 59.1857 13.9645 59.8175 14.4868 60.2158L18.8946 63.5786C19.2558 63.8541 19.7374 64.0048 20.2506 64.0028C20.7638 64.0009 21.2443 63.8465 21.6033 63.5682L25.9853 60.1719C26.5999 59.6955 27.0614 58.8351 27.0588 58.1706L27.0471 55.1119C27.0447 54.4526 26.4624 53.9762 25.6627 53.9792Z" fill="#333232"/>
<path d="M25.5797 32.3281C25.3527 32.329 25.1206 32.3685 24.89 32.4457L14.869 35.8016C13.997 36.0935 13.3161 36.8863 13.3189 37.6064L13.3259 39.4541C13.3285 40.1135 13.9107 40.5899 14.7104 40.5869C14.9374 40.586 15.1697 40.5465 15.4003 40.4692L25.4213 37.1133C26.2933 36.8214 26.9742 36.0286 26.9714 35.3085L26.9643 33.4608C26.9617 32.8014 26.3794 32.325 25.5797 32.3281Z" fill="#333232"/>
<path fill-rule="evenodd" clip-rule="evenodd" d="M23.8857 1.59429C19.5319 1.23813 14.6027 0.135742 10.9245 1.69605C7.29638 3.25636 2.89258 1.33989 1.21614 6.64833C0.915879 7.64896 0.790771 8.68352 0.790771 9.70111C0.790771 13.3984 2.41717 16.7225 2.41717 16.7225C2.41717 16.8751 2.39215 17.0278 2.39215 17.1974C2.39215 17.2652 2.39215 17.35 2.39215 17.4179C12.1506 12.8048 26.7882 11.7533 36.2213 15.5523L36.2714 15.4335C37.3473 12.8726 37.7727 10.6339 37.7977 8.7344C37.7977 2.985 33.8192 0.135742 30.9918 0.135742C27.3887 0.135742 29.3654 2.05221 23.8857 1.59429Z" fill="url(#paint0_linear_936_2172)"/>
<path d="M29.7408 1.06834C27.639 3.39185 28.84 3.35793 28.4146 4.61296C28.0143 5.81711 25.387 5.78319 25.6622 3.64624C25.9875 1.23794 30.6916 -0.000128806 29.7408 1.06834Z" fill="#F4F4F5"/>
<path d="M36.9218 9.44659C35.8959 11.0408 30.5914 9.54835 32.1427 11.9058C33.4438 13.8731 29.9158 13.6866 28.7648 13.4661C25.7121 12.6859 30.4913 8.78515 28.3394 6.29205C26.2876 3.93463 27.0133 -0.339259 31.9675 0.135617C32.8433 0.220417 34.87 1.71289 35.7208 2.74744C36.4214 3.64631 38.273 7.37748 36.9218 9.44659Z" fill="#AFAFAD"/>
<defs>
<linearGradient id="paint0_linear_936_2172" x1="37.7852" y1="8.7807" x2="0.786268" y2="8.7807" gradientUnits="userSpaceOnUse">
<stop stop-color="#A4A4A3"/>
<stop offset="0.819608" stop-color="white"/>
<stop offset="1" stop-color="white"/>
</linearGradient>
</defs>
</svg>
