<svg width="31" height="74" viewBox="0 0 31 74" fill="none" xmlns="http://www.w3.org/2000/svg">
<path d="M25.1516 25.1622C25.1516 24.1845 23.6964 23.4527 22.4756 23.0111C20.674 22.359 18.4012 22 16.0758 22C13.7505 22 11.4776 22.359 9.67609 23.011C8.45531 23.4526 7 24.1845 7 25.1621C7 25.2184 7 27.4839 7 27.4839C7 28.2843 7.4601 28.9355 8.02563 28.9355C8.02563 28.9355 8.70987 28.9355 8.9379 28.9355C9.27978 28.9355 9.44737 29.3385 9.44737 29.3385L12.1393 36.1686C12.2937 36.5604 12.4291 37.2974 12.4291 37.7458V41.4614C12.4291 42.1208 12.739 42.5995 13.1659 42.5995H13.166C13.2871 42.5995 13.4112 42.5609 13.5345 42.4845L18.8912 39.1671C19.3651 38.8737 19.7225 38.1814 19.7225 37.557C19.7225 37.2092 19.8578 36.5605 20.0122 36.1687L22.7413 29.2446C22.7413 29.2446 22.878 28.9356 23.1173 28.9356C23.3695 28.9356 24.1259 28.9356 24.1259 28.9356C24.6914 28.9356 25.1515 28.2844 25.1515 27.484C25.1515 27.484 25.1516 25.2185 25.1516 25.1622Z" fill="#333232"/>
<path d="M18.9857 56.0338C18.8644 56.0338 18.7405 56.0724 18.6172 56.1487L13.2604 59.4662C12.7943 59.7547 12.4292 60.545 12.4292 61.265V63.1128C12.4292 63.7721 12.7391 64.2509 13.166 64.2509C13.2872 64.2509 13.4113 64.2123 13.5346 64.1358L18.8913 60.8183C19.3574 60.5298 19.7226 59.7396 19.7226 59.0195V57.1718C19.7225 56.5124 19.4126 56.0338 18.9857 56.0338Z" fill="#333232"/>
<path d="M18.9857 48.8167C18.8644 48.8167 18.7405 48.8553 18.6172 48.9316L13.2604 52.2491C12.7943 52.5376 12.4292 53.3279 12.4292 54.0479V55.8957C12.4292 56.5551 12.7391 57.0338 13.166 57.0338C13.2872 57.0338 13.4113 56.9951 13.5346 56.9187L18.8913 53.6012C19.3574 53.3126 19.7226 52.5224 19.7226 51.8024V49.9547C19.7225 49.2953 19.4126 48.8167 18.9857 48.8167Z" fill="#333232"/>
<path d="M18.9859 63.2508C18.8647 63.2508 18.7407 63.2894 18.6174 63.3659L13.2607 66.6833C12.8469 66.9396 12.4294 67.4352 12.4294 67.9648C12.4294 68.4103 12.7287 69.0442 13.0067 69.4445L15.353 72.8242C15.5453 73.1011 15.8021 73.2536 16.0761 73.2536C16.35 73.2536 16.6069 73.1011 16.7991 72.8241L19.1454 69.4446C19.4745 68.9707 19.7227 68.112 19.7227 67.4475V64.3888C19.7227 63.7294 19.4129 63.2508 18.9859 63.2508Z" fill="#333232"/>
<path d="M18.9859 41.5995C18.8647 41.5995 18.7407 41.6381 18.6174 41.7144L13.2607 45.0319C12.7946 45.3205 12.4294 46.1107 12.4294 46.8308V48.6785C12.4294 49.3379 12.7393 49.8166 13.1663 49.8166C13.2874 49.8166 13.4115 49.778 13.5348 49.7015L18.8916 46.3841C19.3577 46.0955 19.7228 45.3053 19.7228 44.5852V42.7375C19.7227 42.0781 19.4129 41.5995 18.9859 41.5995Z" fill="#333232"/>
<path fill-rule="evenodd" clip-rule="evenodd" d="M8.00579 2.03544C2.35091 4.13847 0.674468 6.64853 0.674468 9.39603C0.649447 13.0933 3.7271 17.2484 4.27757 21.4206C6.05411 24.0324 8.63133 26.5085 11.2336 28.2554C17.1887 31.2573 21.7676 27.8144 26.1714 24.7108C28.5235 20.6574 30.7504 14.9758 30.7504 11.7026C30.7504 11.5499 30.7504 11.3973 30.7254 11.2447C30.4752 7.59828 26.6969 6.59765 24.2698 4.57942C21.8427 2.57816 17.9644 0.0341797 15.7875 0.0341797C11.4838 0.0341797 10.6831 1.03481 8.00579 2.03544Z" fill="url(#paint0_linear_936_2177)"/>
<path d="M16.889 28.7469C18.5404 29.3575 24.1202 27.0679 24.4705 25.0666C24.5456 24.5917 28.9994 18.7406 29.2997 11.787C29.4999 7.34354 21.2928 3.23925 20.6172 2.88309C19.8165 2.42518 17.3894 0.322152 14.8372 0.661349C13.1358 0.898787 12.7604 2.06902 14.6871 4.59604C17.5896 8.37809 19.166 14.0427 18.3152 21.4202C17.8398 25.321 15.9882 28.4247 16.889 28.7469Z" fill="#C2C0BE"/>
<path d="M27.7976 14.7382C27.147 16.3664 24.6449 18.232 23.1436 18.8425C21.4171 19.2495 23.9443 16.519 22.7182 11.448C22.1177 8.9549 20.8166 7.4794 19.8407 5.91909C18.1893 3.29031 19.8157 3.52775 21.8675 4.54534C30.3248 8.76835 28.7734 12.2621 27.7976 14.7382Z" fill="#AFAFAD"/>
<defs>
<linearGradient id="paint0_linear_936_2177" x1="30.7519" y1="14.7204" x2="0.663459" y2="14.7204" gradientUnits="userSpaceOnUse">
<stop stop-color="#A4A4A3"/>
<stop offset="0.819608" stop-color="white"/>
<stop offset="1" stop-color="white"/>
</linearGradient>
</defs>
</svg>
