<svg width="28" height="72" viewBox="0 0 28 72" fill="none" xmlns="http://www.w3.org/2000/svg">
<path d="M23.1516 23.1622C23.1516 22.1845 21.6964 21.4527 20.4756 21.0111C18.674 20.359 16.4012 20 14.0758 20C11.7505 20 9.47765 20.359 7.67609 21.011C6.45531 21.4526 5 22.1845 5 23.1621C5 23.2184 5 25.4839 5 25.4839C5 26.2843 5.4601 26.9355 6.02563 26.9355C6.02563 26.9355 6.70987 26.9355 6.9379 26.9355C7.27978 26.9355 7.44737 27.3385 7.44737 27.3385L10.1393 34.1686C10.2937 34.5604 10.4291 35.2974 10.4291 35.7458V39.4614C10.4291 40.1208 10.739 40.5995 11.1659 40.5995H11.166C11.2871 40.5995 11.4112 40.5609 11.5345 40.4845L16.8912 37.1671C17.3651 36.8737 17.7225 36.1814 17.7225 35.557C17.7225 35.2092 17.8578 34.5605 18.0122 34.1687L20.7413 27.2446C20.7413 27.2446 20.878 26.9356 21.1173 26.9356C21.3695 26.9356 22.1259 26.9356 22.1259 26.9356C22.6914 26.9356 23.1515 26.2844 23.1515 25.484C23.1515 25.484 23.1516 23.2185 23.1516 23.1622Z" fill="#333232"/>
<path d="M16.9857 54.0338C16.8644 54.0338 16.7405 54.0724 16.6172 54.1487L11.2604 57.4662C10.7943 57.7547 10.4292 58.545 10.4292 59.265V61.1128C10.4292 61.7721 10.7391 62.2509 11.166 62.2509C11.2872 62.2509 11.4113 62.2123 11.5346 62.1358L16.8913 58.8183C17.3574 58.5298 17.7226 57.7396 17.7226 57.0195V55.1718C17.7225 54.5124 17.4126 54.0338 16.9857 54.0338Z" fill="#333232"/>
<path d="M16.9857 46.8167C16.8644 46.8167 16.7405 46.8553 16.6172 46.9316L11.2604 50.2491C10.7943 50.5376 10.4292 51.3279 10.4292 52.0479V53.8957C10.4292 54.5551 10.7391 55.0338 11.166 55.0338C11.2872 55.0338 11.4113 54.9951 11.5346 54.9187L16.8913 51.6012C17.3574 51.3126 17.7226 50.5224 17.7226 49.8024V47.9547C17.7225 47.2953 17.4126 46.8167 16.9857 46.8167Z" fill="#333232"/>
<path d="M16.9859 61.2508C16.8647 61.2508 16.7407 61.2894 16.6174 61.3659L11.2607 64.6833C10.8469 64.9396 10.4294 65.4352 10.4294 65.9648C10.4294 66.4103 10.7287 67.0442 11.0067 67.4445L13.353 70.8242C13.5453 71.1011 13.8021 71.2536 14.0761 71.2536C14.35 71.2536 14.6069 71.1011 14.7991 70.8241L17.1454 67.4446C17.4745 66.9707 17.7227 66.112 17.7227 65.4475V62.3888C17.7227 61.7294 17.4129 61.2508 16.9859 61.2508Z" fill="#333232"/>
<path d="M16.9859 39.5995C16.8647 39.5995 16.7407 39.6381 16.6174 39.7144L11.2607 43.0319C10.7946 43.3205 10.4294 44.1107 10.4294 44.8308V46.6785C10.4294 47.3379 10.7393 47.8166 11.1663 47.8166C11.2874 47.8166 11.4115 47.778 11.5348 47.7015L16.8916 44.3841C17.3577 44.0955 17.7228 43.3053 17.7228 42.5852V40.7375C17.7227 40.0781 17.4129 39.5995 16.9859 39.5995Z" fill="#333232"/>
<path fill-rule="evenodd" clip-rule="evenodd" d="M10.4883 0L10.4132 0L10.3382 0C9.58752 0 8.88691 0.0339197 8.21133 0.0847994C6.55991 0.220478 5.10866 0.508796 3.95767 0.966713C2.63152 1.50943 1.78079 2.37438 1.35542 3.2563C1.08019 3.81597 0.955078 4.83356 0.955078 6.08859C0.955078 9.73497 1.95594 15.4165 3.23204 18.1979C3.75749 19.3512 4.18286 20.5554 4.53316 21.7934C10.5884 24.7105 17.1691 25.5416 23.0992 22.7771C23.3244 22.3022 23.5496 21.8274 23.8248 21.4034C25.4262 18.8763 27.8282 14.5855 27.8282 9.59929C27.8282 9.00569 27.8032 8.4121 27.7282 7.80154C27.3779 4.91836 26.352 3.12062 22.3485 1.83167C20.1466 1.11935 17.0439 0.356157 12.6902 0.0678395C11.9395 0.0339197 11.1889 0 10.4883 0Z" fill="url(#paint0_linear_936_2178)"/>
<path d="M26.4769 10.2777C26.4769 12.1942 25.5011 18.5202 23.4243 21.3525C22.8488 22.1496 21.0472 23.4216 19.621 23.4895C16.5183 23.6251 13.766 20.9455 19.1206 14.7891C22.1982 11.2614 25.8013 11.4649 23.074 5.15584C22.5485 3.98561 23.5494 2.62882 24.6003 4.40961C25.5511 6.00384 26.5019 8.56478 26.4769 10.2777Z" fill="#AFAFAD"/>
<defs>
<linearGradient id="paint0_linear_936_2178" x1="27.8317" y1="12.2311" x2="0.950574" y2="12.2311" gradientUnits="userSpaceOnUse">
<stop stop-color="#A4A4A3"/>
<stop offset="0.819608" stop-color="white"/>
<stop offset="1" stop-color="white"/>
</linearGradient>
</defs>
</svg>
