<svg width="40" height="68" viewBox="0 0 40 68" fill="none" xmlns="http://www.w3.org/2000/svg">
<path d="M37 19.9102C37 18.9325 34.3665 18.2007 32.1573 17.759C28.8971 17.107 24.784 16.748 20.5759 16.748C16.3677 16.748 12.2547 17.107 8.99444 17.7589C6.78523 18.2006 4.15161 18.9325 4.15161 19.9101C4.15161 19.9664 4.15161 22.2319 4.15161 22.2319C4.15161 23.0323 4.98424 23.6835 6.00767 23.6835C6.00767 23.6835 7.24591 23.6835 7.65857 23.6835C8.27726 23.6835 8.58054 24.0865 8.58054 24.0865L13.4521 30.9166C13.7315 31.3084 13.9765 32.0454 13.9765 32.4938V36.2094C13.9765 36.8687 14.5372 37.3475 15.3099 37.3475H15.31C15.5292 37.3475 15.7537 37.3089 15.9768 37.2325L25.6707 33.915C26.5284 33.6216 27.175 32.9293 27.175 32.305C27.175 31.9572 27.42 31.3085 27.6994 30.9167L32.6381 23.9926C32.6381 23.9926 32.8855 23.6836 33.3186 23.6836C33.7749 23.6836 35.1438 23.6836 35.1438 23.6836C36.1672 23.6836 36.9999 23.0324 36.9999 22.232C36.9999 22.232 37 19.9665 37 19.9102Z" fill="#333232"/>
<path d="M25.8416 50.7817C25.6222 50.7817 25.3979 50.8204 25.1748 50.8967L15.4808 54.2142C14.6373 54.5027 13.9766 55.293 13.9766 56.013V57.8607C13.9766 58.5201 14.5373 58.9988 15.31 58.9988C15.5292 58.9988 15.7538 58.9602 15.9769 58.8838L25.6708 55.5663C26.5144 55.2778 27.1751 54.4875 27.1751 53.7675V51.9198C27.175 51.2604 26.6142 50.7817 25.8416 50.7817Z" fill="#333232"/>
<path d="M25.8416 43.5646C25.6222 43.5646 25.3979 43.6032 25.1748 43.6796L15.4808 46.9971C14.6373 47.2856 13.9766 48.0758 13.9766 48.7959V50.6436C13.9766 51.3031 14.5373 51.7817 15.31 51.7817C15.5292 51.7817 15.7538 51.743 15.9769 51.6667L25.6708 48.3492C26.5144 48.0606 27.1751 47.2704 27.1751 46.5504V44.7026C27.175 44.0433 26.6142 43.5646 25.8416 43.5646Z" fill="#333232"/>
<path d="M25.8418 57.9988C25.6225 57.9988 25.3981 58.0374 25.175 58.1138L15.4811 61.4313C14.7323 61.6875 13.9768 62.1832 13.9768 62.7128C13.9768 63.1583 14.5183 63.7922 15.0214 64.1925L19.2674 67.5722C19.6154 67.8491 20.0801 68.0016 20.576 68.0016C21.0718 68.0016 21.5365 67.8491 21.8845 67.5721L26.1305 64.1926C26.7261 63.7186 27.1751 62.86 27.1751 62.1955V59.1368C27.1752 58.4774 26.6145 57.9988 25.8418 57.9988Z" fill="#333232"/>
<path d="M25.8418 36.3475C25.6225 36.3475 25.3981 36.3861 25.175 36.4624L15.4811 39.7799C14.6376 40.0685 13.9768 40.8587 13.9768 41.5788V43.4265C13.9768 44.0859 14.5376 44.5646 15.3102 44.5646C15.5295 44.5646 15.754 44.526 15.9771 44.4495L25.6711 41.1321C26.5146 40.8435 27.1754 40.0533 27.1754 39.3332V37.4855C27.1752 36.8261 26.6145 36.3475 25.8418 36.3475Z" fill="#333232"/>
<path fill-rule="evenodd" clip-rule="evenodd" d="M8.13731 0.0166016H8.08726H8.03722C7.787 0.0166016 7.51177 0.0335614 7.21151 0.0505213C4.5342 0.22012 0.430664 2.17051 0.430664 6.83447C0.430664 6.90231 0.430664 6.95319 0.430664 7.00407C0.555772 12.9061 2.88278 13.6863 3.9587 18.1806C11.7404 22.9803 26.2279 21.3352 37.1623 19.3169C38.2633 16.1794 39.7395 13.6693 39.7395 10.1247C39.7395 9.98901 39.7395 9.83637 39.7395 9.70069C39.5394 4.51097 35.7861 4.83321 32.3832 3.67993C29.0303 2.56058 28.4298 0.745876 25.227 0.813716C22.0243 0.881555 21.0735 3.23898 17.8707 3.12026C17.8207 3.1033 17.7706 3.1033 17.6955 3.1033C17.6705 3.1033 17.6455 3.1033 17.6205 3.1033C17.5955 3.08634 17.5955 3.08634 17.5704 3.08634C17.5454 3.08634 17.5204 3.08634 17.4954 3.08634C17.4203 3.06938 17.3452 3.06938 17.2952 3.05242C15.4186 2.74714 14.0674 1.37339 11.7654 0.593237C10.7646 0.25404 9.58856 0.0166016 8.13731 0.0166016Z" fill="url(#paint0_linear_936_2174)"/>
<path d="M21.5489 2.13684C19.1969 3.23924 17.2702 3.2562 15.7189 2.45908C14.1925 1.66197 13.6921 1.50933 12.9665 1.20405C12.2659 0.915733 14.4177 2.62868 15.5187 3.79891C16.8699 5.20658 16.2944 8.85295 17.8207 8.85295C19.1969 8.85295 18.8466 7.34353 19.1218 6.07153C19.372 4.78258 19.8224 4.17203 20.6481 3.44275C21.1986 2.96788 22.5998 1.64501 21.5489 2.13684Z" fill="#C2C0BE"/>
<path d="M36.1618 13.3132C34.9858 14.5682 33.2593 15.6876 33.2093 17.0444C33.1843 17.8245 34.5354 19.2152 34.4103 19.8088C33.3594 20.2328 26.9789 21.5557 26.9038 20.8434C26.5786 18.1807 21.0488 16.6712 23.601 15.518C27.3542 13.822 29.1057 11.9564 29.6812 10.1586C30.8823 6.52923 28.0298 1.35647 30.1817 2.49278C32.0583 3.45949 36.387 5.1894 37.6131 6.25787C39.7649 8.12346 37.3128 12.0921 36.1618 13.3132Z" fill="#A4A4A3"/>
<path d="M18.9717 7.30956C18.9717 7.30956 21.9242 0.644327 26.2029 2.30639C27.6542 2.88303 29.731 2.62863 28.8052 1.86544C26.0778 -0.424145 19.1719 1.44144 18.9717 7.30956Z" fill="#F4F4F5"/>
<path d="M12.8167 18.9782C16.1696 18.2998 18.972 21.3017 18.972 21.3017C18.972 21.3017 12.041 21.3357 10.865 20.6573C9.689 19.9958 12.8167 18.9782 12.8167 18.9782Z" fill="#E9EAE9"/>
<defs>
<linearGradient id="paint0_linear_936_2174" x1="39.7435" y1="10.6616" x2="0.427662" y2="10.6616" gradientUnits="userSpaceOnUse">
<stop stop-color="#A4A4A3"/>
<stop offset="0.819608" stop-color="white"/>
<stop offset="1" stop-color="white"/>
</linearGradient>
</defs>
</svg>
