<svg width="40" height="66" viewBox="0 0 40 66" fill="none" xmlns="http://www.w3.org/2000/svg">
<path d="M39.6489 16.8636C39.6463 15.8858 36.8341 15.1615 34.4755 14.7262C30.9948 14.0834 26.6048 13.7361 22.1142 13.7481C17.6237 13.76 13.2356 14.1308 9.75837 14.792C7.40211 15.2399 4.59371 15.9793 4.59632 16.9569C4.59647 17.0132 4.60251 19.2787 4.60251 19.2787C4.60465 20.0791 5.49488 20.7279 6.58698 20.725C6.58698 20.725 7.90831 20.7215 8.34866 20.7203C9.00886 20.7185 9.33357 21.1207 9.33357 21.1207L14.5502 27.9369C14.8494 28.3279 15.1128 29.0642 15.114 29.5126L15.1239 33.2282C15.1257 33.8875 15.7253 34.3647 16.5498 34.3625L16.5499 34.3625C16.7839 34.3618 17.0233 34.3226 17.2612 34.2456L27.5968 30.9006C28.5112 30.6047 29.1994 29.9106 29.1977 29.2862C29.1968 28.9385 29.4565 28.289 29.7536 27.8965L35.0052 20.9583C35.0052 20.9583 35.2684 20.6486 35.7305 20.6474C36.2175 20.6461 37.6782 20.6422 37.6782 20.6422C38.7703 20.6393 39.6571 19.9857 39.655 19.1854C39.655 19.1854 39.649 16.9198 39.6489 16.8636Z" fill="#333232"/>
<path d="M27.8243 47.7667C27.5902 47.7673 27.3509 47.8066 27.113 47.8836L16.7774 51.2286C15.8781 51.5196 15.1751 52.3117 15.177 53.0317L15.182 54.8795C15.1837 55.5388 15.7834 56.016 16.6079 56.0138C16.8418 56.0131 17.0814 55.9739 17.3192 55.8968L27.6548 52.5518C28.5542 52.2608 29.2572 51.4687 29.2552 50.7487L29.2503 48.9009C29.2484 48.2415 28.6487 47.7645 27.8243 47.7667Z" fill="#333232"/>
<path d="M27.805 40.5497C27.5709 40.5503 27.3316 40.5896 27.0937 40.6665L16.7582 44.0116C15.8588 44.3025 15.1558 45.0946 15.1577 45.8147L15.1627 47.6624C15.1644 48.3219 15.7641 48.7989 16.5886 48.7967C16.8225 48.7961 17.0621 48.7568 17.3 48.6798L27.6355 45.3347C28.5349 45.0437 29.2379 44.2517 29.236 43.5316L29.231 41.6839C29.2291 41.0245 28.6295 40.5475 27.805 40.5497Z" fill="#333232"/>
<path d="M27.8436 54.9837C27.6095 54.9843 27.3702 55.0236 27.1323 55.1007L16.7967 58.4457C15.9984 58.7041 15.1935 59.2019 15.1949 59.7315C15.1961 60.1769 15.7756 60.8093 16.3136 61.2082L20.8535 64.5758C21.2256 64.8517 21.7219 65.0029 22.251 65.0015C22.7801 65 23.2756 64.8462 23.6462 64.5683L28.1681 61.1767C28.8024 60.701 29.2793 59.8411 29.2775 59.1766L29.2693 56.1179C29.2677 55.4585 28.668 54.9815 27.8436 54.9837Z" fill="#333232"/>
<path d="M27.786 33.3325C27.5518 33.3331 27.3126 33.3724 27.0747 33.4494L16.7391 36.7944C15.8398 37.0854 15.1368 37.8775 15.1387 38.5975L15.1436 40.4452C15.1454 41.1046 15.7451 41.5818 16.5695 41.5796C16.8035 41.5789 17.0431 41.5397 17.2809 41.4626L27.6165 38.1176C28.5158 37.8266 29.2188 37.0345 29.2169 36.3144L29.212 34.4667C29.2101 33.8073 28.6104 33.3303 27.786 33.3325Z" fill="#333232"/>
<path fill-rule="evenodd" clip-rule="evenodd" d="M8.06593 0.0166016H8.01588H7.99086C7.36532 0.0335614 6.78983 0.101401 6.26437 0.23708C4.98827 0.576277 3.93737 1.23771 3.11166 2.08571C1.46023 3.74777 0.659543 6.07128 0.634521 7.6655C0.634521 7.73334 0.634521 7.78422 0.634521 7.85206C0.634521 11.7189 2.36101 14.6191 3.66213 18.028C15.1721 14.9413 27.5827 14.5173 38.8174 18.1976C39.3679 16.1963 39.8183 14.229 39.8183 12.4482C39.8183 12.0412 39.7933 11.6341 39.7432 11.244C39.2678 7.6655 34.9141 2.47578 28.6337 1.84827C27.5827 1.74651 26.707 1.71259 25.9313 1.72955C24.355 1.74651 23.279 1.98395 22.5034 2.27226C22.078 2.44186 21.7277 2.62842 21.4024 2.81498C20.4516 3.39162 19.8761 3.96825 18.4499 3.90041C15.3222 3.73081 15.147 0.0674812 8.06593 0.0166016Z" fill="url(#paint0_linear_936_2173)"/>
<path d="M24.4555 2.5437C21.2027 3.54433 22.6289 5.47776 20.452 5.27424C18.6004 5.10464 19.6764 3.61217 21.7031 2.66242C24.4304 1.39043 26.4822 1.91619 24.4555 2.5437Z" fill="white"/>
<path d="M36.5151 8.49651C37.2908 11.4475 34.1881 14.3307 33.5375 16.7729L23.4539 15.6027C24.4297 14.4155 26.4815 13.1266 28.233 11.1762C29.9094 9.29362 31.2105 7.20756 30.1096 4.68054C29.459 3.17111 25.1053 1.50904 28.6333 1.84824C33.9129 2.374 35.6394 5.12149 36.5151 8.49651Z" fill="#AFAFAD"/>
<path d="M10.318 0.220703C11.1937 0.220703 12.5949 0.780379 13.7209 1.30613C14.5466 1.69621 16.5233 3.15476 17.2489 3.71444C17.9745 4.27411 21.5526 7.61521 20.7019 7.98832C20.1264 8.22576 20.3766 7.20817 16.8736 5.69874C14.7718 4.79987 14.1963 3.10388 12.9202 1.81493C12.0695 0.949978 9.99267 0.220703 10.318 0.220703Z" fill="#C2C0BE"/>
<defs>
<linearGradient id="paint0_linear_936_2173" x1="39.8203" y1="9.10591" x2="0.628016" y2="9.10591" gradientUnits="userSpaceOnUse">
<stop stop-color="#A4A4A3"/>
<stop offset="0.819608" stop-color="white"/>
<stop offset="1" stop-color="white"/>
</linearGradient>
</defs>
</svg>
