<svg width="41" height="61" viewBox="0 0 41 61" fill="none" xmlns="http://www.w3.org/2000/svg">
<path d="M37 16.8998C37 16.0032 34.194 15.3321 31.8401 14.9271C28.3663 14.3292 23.9839 14 19.5001 14C15.0162 14 10.6338 14.3292 7.16004 14.9271C4.80613 15.3321 2 16.0032 2 16.8997C2 16.9513 2 19.0288 2 19.0288C2 19.7628 2.88717 20.3599 3.97763 20.3599C3.97763 20.3599 5.29698 20.3599 5.73667 20.3599C6.39588 20.3599 6.71903 20.7295 6.71903 20.7295L11.9096 26.9928C12.2073 27.352 12.4684 28.0278 12.4684 28.439V31.8463C12.4684 32.4509 13.0659 32.8899 13.8891 32.8899H13.8893C14.1229 32.8899 14.362 32.8545 14.5998 32.7845L24.9287 29.7423C25.8425 29.4733 26.5315 28.8385 26.5315 28.2659C26.5315 27.947 26.7925 27.3521 27.0902 26.9929L32.3524 20.6433C32.3524 20.6433 32.616 20.36 33.0774 20.36C33.5637 20.36 35.0222 20.36 35.0222 20.36C36.1127 20.36 36.9999 19.7629 36.9999 19.0289C36.9999 19.0289 37 16.9514 37 16.8998Z" fill="#333232"/>
<path d="M25.1107 45.2092C24.877 45.2092 24.6379 45.2446 24.4002 45.3147L14.0713 48.3568C13.1725 48.6214 12.4685 49.3461 12.4685 50.0064V51.7007C12.4685 52.3054 13.066 52.7444 13.8892 52.7444C14.1229 52.7444 14.3622 52.709 14.5999 52.6389L24.9288 49.5967C25.8275 49.3321 26.5316 48.6075 26.5316 47.9472V46.2528C26.5314 45.6481 25.9339 45.2092 25.1107 45.2092Z" fill="#333232"/>
<path d="M25.1107 38.5911C24.877 38.5911 24.6379 38.6265 24.4002 38.6965L14.0713 41.7387C13.1725 42.0033 12.4685 42.7279 12.4685 43.3883V45.0826C12.4685 45.6874 13.066 46.1263 13.8892 46.1263C14.1229 46.1263 14.3622 46.0908 14.5999 46.0208L24.9288 42.9786C25.8275 42.7139 26.5316 41.9894 26.5316 41.3291V39.6347C26.5314 39.03 25.9339 38.5911 25.1107 38.5911Z" fill="#333232"/>
<path d="M25.1114 51.8273C24.8777 51.8273 24.6387 51.8627 24.4009 51.9328L14.072 54.975C13.2743 55.21 12.4692 55.6645 12.4692 56.1502C12.4692 56.5586 13.0462 57.1399 13.5822 57.5071L18.1064 60.6063C18.4771 60.8601 18.9724 61 19.5006 61C20.0289 61 20.5241 60.8601 20.8949 60.6062L25.419 57.5071C26.0536 57.0725 26.532 56.2851 26.532 55.6758V52.8709C26.5322 52.2662 25.9347 51.8273 25.1114 51.8273Z" fill="#333232"/>
<path d="M25.1114 31.9729C24.8777 31.9729 24.6387 32.0083 24.4009 32.0783L14.072 35.1205C13.1733 35.3851 12.4692 36.1097 12.4692 36.77V38.4644C12.4692 39.0691 13.0667 39.5081 13.89 39.5081C14.1236 39.5081 14.3629 39.4727 14.6006 39.4026L24.9295 36.3604C25.8283 36.0958 26.5323 35.3712 26.5323 34.7108V33.0165C26.5322 32.4118 25.9347 31.9729 25.1114 31.9729Z" fill="#333232"/>
<path fill-rule="evenodd" clip-rule="evenodd" d="M32.9684 0.0341797H32.9431H32.8924C25.7281 0.0684979 25.5509 3.79202 22.3865 3.94645C22.3106 3.96361 22.2346 3.96361 22.1587 3.96361C22.1587 3.96361 22.1587 3.96361 22.1334 3.96361C22.1334 3.96361 22.1334 3.96361 22.108 3.96361C20.8929 3.94645 20.336 3.43168 19.4499 2.89975C19.4499 2.88259 19.4246 2.88259 19.4246 2.86543C19.3993 2.86543 19.3993 2.86543 19.3993 2.84827C19.374 2.84827 19.374 2.83111 19.3486 2.83111C19.2727 2.79679 19.2221 2.74532 19.1461 2.711C18.2348 2.21338 16.9943 1.75009 14.5893 1.75009C14.5893 1.75009 14.5893 1.75009 14.564 1.75009C14.564 1.75009 14.564 1.75009 14.5387 1.75009C13.8299 1.75009 13.0198 1.78441 12.0831 1.88736C5.72892 2.50509 1.32403 7.77293 0.843036 11.3935C0.792405 11.7882 0.76709 12.1828 0.76709 12.5946C0.76709 14.4135 1.24808 16.3868 1.80502 18.4116C7.37443 16.5927 13.2223 15.7691 19.1208 15.7691H19.1461H19.1714C25.0193 15.7691 30.8672 16.5755 36.5379 18.0341C36.7151 18.0684 36.867 18.1199 37.0442 18.1542C37.1454 18.1885 37.2467 18.2057 37.3479 18.24C38.6644 14.8082 40.4364 11.874 40.4111 7.96168C40.4111 7.89304 40.4111 7.82441 40.4111 7.77293C40.4111 7.08656 40.2592 6.28009 39.9808 5.43929C39.1707 3.19145 37.3479 0.754861 34.3607 0.171452C33.905 0.0856569 33.4494 0.0341797 32.9684 0.0341797Z" fill="url(#paint0_linear_936_2186)"/>
<path d="M23.8803 3.46602C25.5511 2.84829 25.7789 1.26966 29.5509 0.394543C31.3483 -0.0172751 29.4497 2.86545 27.146 3.60329C24.0069 4.58136 21.855 4.22102 23.8803 3.46602Z" fill="white"/>
<path d="M37.348 17.6225C27.1459 17.571 40.5884 7.27558 35.0443 9.21456C30.5129 10.8104 30.2344 14.0534 29.5509 16.5415V16.5586C28.8674 16.4042 28.032 16.3356 27.2978 16.2498C24.7916 10.1755 29.2218 4.23842 29.7281 3.1574C30.842 0.755127 33.1204 -0.703395 35.981 0.789446C43.9554 4.94194 38.7404 17.6225 37.348 17.6225Z" fill="#AFAFAD"/>
<path d="M11.4752 13.2639C13.5005 12.732 17.7535 15.649 15.5763 15.8378C12.6651 16.0952 11.9309 16.1981 11.2727 16.3526C8.38674 17.0389 9.44999 13.813 11.4752 13.2639Z" fill="#E9EAE9"/>
<path d="M22.2347 4.04945C23.0448 4.66718 14.9439 3.74059 13.9566 2.77968C12.9946 1.81877 14.5388 1.78446 15.0704 1.71582C15.5768 1.66434 18.7918 2.19627 19.9057 3.1915C21.0449 4.20389 21.9816 3.84355 22.2347 4.04945Z" fill="#C2C0BE"/>
<defs>
<linearGradient id="paint0_linear_936_2186" x1="0.769872" y1="9.22059" x2="40.4235" y2="9.22059" gradientUnits="userSpaceOnUse">
<stop stop-color="white"/>
<stop offset="0.180392" stop-color="white"/>
<stop offset="1" stop-color="#A4A4A3"/>
</linearGradient>
</defs>
</svg>
