<svg width="41" height="64" viewBox="0 0 41 64" fill="none" xmlns="http://www.w3.org/2000/svg">
<path d="M36 19.8998C36 19.0032 33.3543 18.3321 31.1349 17.9271C27.8597 17.3292 23.7277 17 19.5001 17C15.2725 17 11.1405 17.3292 7.86518 17.9271C5.64578 18.3321 3 19.0032 3 19.8997C3 19.9513 3 22.0288 3 22.0288C3 22.7628 3.83647 23.3599 4.86462 23.3599C4.86462 23.3599 6.10858 23.3599 6.52315 23.3599C7.14469 23.3599 7.44937 23.7295 7.44937 23.7295L12.3434 29.9928C12.6241 30.352 12.8702 31.0278 12.8702 31.439V34.8463C12.8702 35.4509 13.4336 35.8899 14.2098 35.8899H14.2099C14.4302 35.8899 14.6556 35.8545 14.8798 35.7845L24.6185 32.7423C25.48 32.4733 26.1297 31.8385 26.1297 31.2659C26.1297 30.947 26.3758 30.3521 26.6565 29.9929L31.618 23.6433C31.618 23.6433 31.8665 23.36 32.3016 23.36C32.76 23.36 34.1353 23.36 34.1353 23.36C35.1634 23.36 35.9999 22.7629 35.9999 22.0289C35.9999 22.0289 36 19.9514 36 19.8998Z" fill="#333232"/>
<path d="M24.7902 48.2092C24.5698 48.2092 24.3444 48.2446 24.1203 48.3147L14.3816 51.3568C13.5342 51.6214 12.8704 52.3461 12.8704 53.0064V54.7007C12.8704 55.3054 13.4337 55.7444 14.2099 55.7444C14.4302 55.7444 14.6558 55.709 14.8799 55.6389L24.6186 52.5967C25.466 52.3321 26.1298 51.6075 26.1298 50.9472V49.2528C26.1297 48.6481 25.5663 48.2092 24.7902 48.2092Z" fill="#333232"/>
<path d="M24.7902 41.5911C24.5698 41.5911 24.3444 41.6265 24.1203 41.6965L14.3816 44.7387C13.5342 45.0033 12.8704 45.7279 12.8704 46.3883V48.0826C12.8704 48.6874 13.4337 49.1263 14.2099 49.1263C14.4302 49.1263 14.6558 49.0908 14.8799 49.0208L24.6186 45.9786C25.466 45.7139 26.1298 44.9894 26.1298 44.3291V42.6347C26.1297 42.03 25.5663 41.5911 24.7902 41.5911Z" fill="#333232"/>
<path d="M24.7906 54.8273C24.5702 54.8273 24.3449 54.8627 24.1207 54.9328L14.3821 57.975C13.6299 58.21 12.8708 58.6645 12.8708 59.1502C12.8708 59.5586 13.4148 60.1399 13.9203 60.5071L18.1859 63.6063C18.5355 63.8601 19.0024 64 19.5005 64C19.9986 64 20.4655 63.8601 20.815 63.6062L25.0807 60.5071C25.679 60.0725 26.1301 59.2851 26.1301 58.6758V55.8709C26.1302 55.2662 25.5668 54.8273 24.7906 54.8273Z" fill="#333232"/>
<path d="M24.7906 34.9729C24.5702 34.9729 24.3449 35.0083 24.1207 35.0783L14.3821 38.1205C13.5347 38.3851 12.8708 39.1097 12.8708 39.77V41.4644C12.8708 42.0691 13.4342 42.5081 14.2104 42.5081C14.4307 42.5081 14.6563 42.4727 14.8804 42.4026L24.6191 39.3604C25.4665 39.0958 26.1303 38.3712 26.1303 37.7108V36.0165C26.1302 35.4118 25.5668 34.9729 24.7906 34.9729Z" fill="#333232"/>
<path fill-rule="evenodd" clip-rule="evenodd" d="M32.4904 0L32.4396 0C27.2789 0 25.7027 2.92932 22.7284 3.15333C22.6775 3.15333 22.6521 3.15333 22.6013 3.15333H22.5758C22.4996 3.15333 22.3979 3.15333 22.3216 3.15333C22.3216 3.15333 22.3216 3.15333 22.2962 3.15333C20.1862 3.15333 19.0676 2.05052 17.4914 1.36127C16.8305 1.05111 16.0678 0.844333 15.1018 0.80987C15.0763 0.80987 15.0509 0.80987 15.0255 0.80987C15.0001 0.80987 14.9747 0.80987 14.9492 0.80987C14.9238 0.80987 14.9238 0.80987 14.8984 0.80987C12.1274 0.827102 11.3139 2.27453 8.72085 3.39456C8.69542 3.41179 8.64458 3.42903 8.61916 3.44626C8.59374 3.44626 8.59374 3.44626 8.59374 3.44626C8.51747 3.48072 8.41578 3.51518 8.33952 3.54965C8.26325 3.58411 8.18698 3.61857 8.11072 3.6358C8.0853 3.65303 8.05987 3.65303 8.05987 3.65303C8.03445 3.67026 8.00903 3.67026 8.00903 3.67026C7.93276 3.70473 7.88192 3.72196 7.83108 3.73919C4.37368 4.91092 0.560384 4.58352 0.357008 9.83907C0.357008 9.99415 0.357008 10.132 0.357008 10.2871C0.331586 13.8712 1.83148 16.4214 2.97547 19.6264C3.02632 19.6264 3.10258 19.6437 3.17885 19.6609C8.87338 20.6948 15.5085 21.6425 21.6606 21.6425C21.6861 21.6425 21.6861 21.6425 21.6861 21.6425C21.7115 21.6425 21.7115 21.6425 21.7115 21.6425C27.3552 21.6425 32.5921 20.8499 36.38 18.6615C36.38 18.6443 36.4054 18.6443 36.4054 18.627C36.4817 18.5926 36.5579 18.5581 36.6342 18.5064C36.6596 18.4892 36.685 18.4719 36.7105 18.4547C37.8036 13.9746 40.0916 13.1475 40.295 7.40945C40.295 7.30607 40.295 7.21991 40.295 7.11652C40.295 7.06483 40.295 6.9959 40.295 6.94421C40.295 2.2056 36.1258 0.206775 33.4056 0.0344626C33.2277 0.0344626 33.0751 0.0172313 32.8972 0.0172313C32.7701 0.0172313 32.6175 0 32.4904 0Z" fill="url(#paint0_linear_936_2185)"/>
<path d="M18.8388 2.17113C21.2031 3.29117 23.186 3.3084 24.7622 2.4813C26.3129 1.67143 26.8213 1.51635 27.5586 1.22341C28.2704 0.91325 26.0841 2.65361 24.9655 3.84257C23.5927 5.27277 24.9147 15.8872 24.1266 15.0257C22.2454 12.9579 21.559 7.46114 21.3048 6.15156C21.0505 4.85922 20.5929 4.23889 19.754 3.49794C19.1947 3.01547 17.7457 1.67143 18.8388 2.17113Z" fill="#C2C0BE"/>
<path d="M38.0325 10.5798C36.1004 14.1466 34.0666 15.2322 32.4905 17.9031C32.0583 18.644 31.982 19.4539 31.8549 20.057C30.7872 20.4878 28.0162 21.1942 26.9739 21.1081C25.3215 20.953 28.1179 19.3333 29.3636 17.4034C30.3296 15.9215 32.3125 12.9921 30.6092 9.7182C28.423 5.531 29.3381 3.8251 31.9058 2.29151C33.1006 1.58503 36.3038 0.671773 37.8037 2.1192C39.8374 4.08357 39.7357 7.49536 38.0325 10.5798Z" fill="#A4A4A3"/>
<path d="M27.1013 3.03257C27.1013 3.03257 29.2622 1.56791 31.0926 1.3956C32.8975 1.20606 31.3468 -0.0862903 29.7198 0.482342C25.6523 1.86085 25.3981 4.30769 27.1013 3.03257Z" fill="white"/>
<defs>
<linearGradient id="paint0_linear_936_2185" x1="0.3476" y1="10.8245" x2="40.2932" y2="10.8245" gradientUnits="userSpaceOnUse">
<stop stop-color="white"/>
<stop offset="0.180392" stop-color="white"/>
<stop offset="1" stop-color="#A4A4A3"/>
</linearGradient>
</defs>
</svg>
