<svg width="36" height="65" viewBox="0 0 36 65" fill="none" xmlns="http://www.w3.org/2000/svg">
<path d="M29 20.8998C29 20.0032 27.1561 19.3321 25.6092 18.9271C23.3264 18.3292 20.4466 18 17.5 18C14.5535 18 11.6736 18.3292 9.39088 18.9271C7.84403 19.3321 6 20.0032 6 20.8997C6 20.9513 6 23.0288 6 23.0288C6 23.7628 6.58299 24.3599 7.29959 24.3599C7.29959 24.3599 8.16658 24.3599 8.45553 24.3599C8.88872 24.3599 9.10107 24.7295 9.10107 24.7295L12.5121 30.9928C12.7077 31.352 12.8792 32.0278 12.8792 32.439V35.8463C12.8792 36.4509 13.2719 36.8899 13.8129 36.8899H13.8129C13.9665 36.8899 14.1236 36.8545 14.2798 36.7845L21.0674 33.7423C21.6679 33.4733 22.1207 32.8385 22.1207 32.2659C22.1207 31.947 22.2922 31.3521 22.4879 30.9929L25.9459 24.6433C25.9459 24.6433 26.1191 24.36 26.4223 24.36C26.7418 24.36 27.7003 24.36 27.7003 24.36C28.4169 24.36 28.9999 23.7629 28.9999 23.0289C28.9999 23.0289 29 20.9514 29 20.8998Z" fill="#333232"/>
<path d="M21.1871 49.2092C21.0335 49.2092 20.8764 49.2446 20.7202 49.3147L13.9327 52.3568C13.342 52.6214 12.8794 53.3461 12.8794 54.0064V55.7007C12.8794 56.3054 13.272 56.7444 13.813 56.7444C13.9665 56.7444 14.1238 56.709 14.28 56.6389L21.0676 53.5967C21.6582 53.3321 22.1208 52.6075 22.1208 51.9472V50.2528C22.1208 49.6481 21.7281 49.2092 21.1871 49.2092Z" fill="#333232"/>
<path d="M21.1871 42.5911C21.0335 42.5911 20.8764 42.6265 20.7202 42.6965L13.9327 45.7387C13.342 46.0033 12.8794 46.7279 12.8794 47.3883V49.0826C12.8794 49.6874 13.272 50.1263 13.813 50.1263C13.9665 50.1263 14.1238 50.0908 14.28 50.0208L21.0676 46.9786C21.6582 46.7139 22.1208 45.9894 22.1208 45.3291V43.6347C22.1208 43.03 21.7281 42.5911 21.1871 42.5911Z" fill="#333232"/>
<path d="M21.1874 55.8273C21.0338 55.8273 20.8767 55.8627 20.7205 55.9328L13.9329 58.975C13.4087 59.21 12.8796 59.6645 12.8796 60.1502C12.8796 60.5586 13.2588 61.1399 13.611 61.5071L16.5841 64.6063C16.8277 64.8601 17.1531 65 17.5003 65C17.8474 65 18.1729 64.8601 18.4165 64.6062L21.3895 61.5071C21.8065 61.0725 22.1209 60.2851 22.1209 59.6758V56.8709C22.121 56.2662 21.7284 55.8273 21.1874 55.8273Z" fill="#333232"/>
<path d="M21.1874 35.9729C21.0338 35.9729 20.8767 36.0083 20.7205 36.0783L13.9329 39.1205C13.3423 39.3851 12.8796 40.1097 12.8796 40.77V42.4644C12.8796 43.0691 13.2723 43.5081 13.8133 43.5081C13.9668 43.5081 14.124 43.4727 14.2802 43.4026L21.0678 40.3604C21.6584 40.0958 22.1211 39.3712 22.1211 38.7108V37.0165C22.121 36.4118 21.7284 35.9729 21.1874 35.9729Z" fill="#333232"/>
<path fill-rule="evenodd" clip-rule="evenodd" d="M8.16177 2.48292C4.29998 3.73396 1.00609 4.23437 0.892512 7.92975C0.892512 8.02599 0.892512 8.12222 0.892512 8.21846C0.864116 13.0109 4.24318 16.7063 6.11729 20.6134C6.28766 20.9406 6.42964 21.3063 6.60001 21.6912C10.2346 20.4979 14.4656 19.8243 18.6113 19.8243C18.6113 19.8243 18.6113 19.8243 18.6397 19.8243C18.6397 19.8243 18.6397 19.8243 18.6681 19.8243C22.2743 19.8243 25.7954 20.3439 28.7485 21.441C28.7769 21.4602 28.8337 21.4602 28.8621 21.4795C28.9189 21.4987 28.9757 21.518 29.0325 21.5372C29.856 18.0728 34.598 14.9356 35.0239 6.467C35.0239 6.19754 35.0239 5.94734 35.0239 5.69713C35.0239 3.92642 34.456 2.82936 29.6572 2.19421C26.6473 1.79003 24.9151 1.09715 23.2114 0.596731C22.0756 0.269536 20.9398 0.0385742 19.4632 0.0385742C17.1064 0.0385742 13.8409 0.654471 8.16177 2.48292Z" fill="url(#paint0_linear_936_2184)"/>
<path d="M25.8522 11.7598C24.7732 13.415 27.3004 17.4761 27.1016 20.902C25.0004 20.6711 24.2621 20.1514 23.4954 20.3631C24.3757 16.2251 21.6497 14.6083 21.4509 9.1615C21.2238 3.34897 18.7534 2.11718 21.2238 1.15484C23.6942 0.173253 28.3794 2.13642 31.1622 3.38747C33.9734 4.65775 28.0955 8.31464 25.8522 11.7598Z" fill="#AFAFAD"/>
<defs>
<linearGradient id="paint0_linear_936_2184" x1="0.879734" y1="10.863" x2="35.0344" y2="10.863" gradientUnits="userSpaceOnUse">
<stop stop-color="white"/>
<stop offset="0.180392" stop-color="white"/>
<stop offset="1" stop-color="#A4A4A3"/>
</linearGradient>
</defs>
</svg>
