<svg width="38" height="72" viewBox="0 0 38 72" fill="none" xmlns="http://www.w3.org/2000/svg">
<path d="M29 27.8998C29 27.0032 27.3164 26.3321 25.9041 25.9271C23.8198 25.3292 21.1903 25 18.5 25C15.8097 25 13.1803 25.3292 11.096 25.9271C9.68368 26.3321 8 27.0032 8 27.8997C8 27.9513 8 30.0288 8 30.0288C8 30.7628 8.5323 31.3599 9.18658 31.3599C9.18658 31.3599 9.97819 31.3599 10.242 31.3599C10.6375 31.3599 10.8314 31.7295 10.8314 31.7295L13.9458 37.9928C14.1244 38.352 14.281 39.0278 14.281 39.439V42.8463C14.281 43.4509 14.6395 43.8899 15.1335 43.8899H15.1336C15.2737 43.8899 15.4172 43.8545 15.5599 43.7845L21.7572 40.7423C22.3055 40.4733 22.7189 39.8385 22.7189 39.2659C22.7189 38.947 22.8755 38.3521 23.0541 37.9929L26.2115 31.6433C26.2115 31.6433 26.3696 31.36 26.6465 31.36C26.9382 31.36 27.8133 31.36 27.8133 31.36C28.4676 31.36 28.9999 30.7629 28.9999 30.0289C28.9999 30.0289 29 27.9514 29 27.8998Z" fill="#333232"/>
<path d="M21.8666 56.2092C21.7263 56.2092 21.5829 56.2446 21.4403 56.3147L15.2429 59.3568C14.7037 59.6214 14.2812 60.3461 14.2812 61.0064V62.7007C14.2812 63.3054 14.6398 63.7444 15.1337 63.7444C15.2739 63.7444 15.4174 63.709 15.5601 63.6389L21.7574 60.5967C22.2967 60.3321 22.7191 59.6075 22.7191 58.9472V57.2528C22.719 56.6481 22.3605 56.2092 21.8666 56.2092Z" fill="#333232"/>
<path d="M21.8666 49.5911C21.7263 49.5911 21.5829 49.6265 21.4403 49.6965L15.2429 52.7387C14.7037 53.0033 14.2812 53.7279 14.2812 54.3883V56.0826C14.2812 56.6874 14.6398 57.1263 15.1337 57.1263C15.2739 57.1263 15.4174 57.0908 15.5601 57.0208L21.7574 53.9786C22.2967 53.7139 22.7191 52.9894 22.7191 52.3291V50.6347C22.719 50.03 22.3605 49.5911 21.8666 49.5911Z" fill="#333232"/>
<path d="M21.8668 62.8273C21.7266 62.8273 21.5831 62.8627 21.4405 62.9328L15.2432 65.975C14.7645 66.21 14.2815 66.6645 14.2815 67.1502C14.2815 67.5586 14.6277 68.1399 14.9493 68.5071L17.6638 71.6063C17.8862 71.8601 18.1834 72 18.5003 72C18.8173 72 19.1144 71.8601 19.3369 71.6062L22.0514 68.5071C22.4321 68.0725 22.7192 67.2851 22.7192 66.6758V63.8709C22.7193 63.2662 22.3608 62.8273 21.8668 62.8273Z" fill="#333232"/>
<path d="M21.8668 42.9729C21.7266 42.9729 21.5831 43.0083 21.4405 43.0783L15.2432 46.1205C14.7039 46.3851 14.2815 47.1097 14.2815 47.77V49.4644C14.2815 50.0691 14.64 50.5081 15.1339 50.5081C15.2741 50.5081 15.4177 50.4727 15.5603 50.4026L21.7577 47.3604C22.2969 47.0958 22.7193 46.3712 22.7193 45.7108V44.0165C22.7193 43.4118 22.3608 42.9729 21.8668 42.9729Z" fill="#333232"/>
<path fill-rule="evenodd" clip-rule="evenodd" d="M19.5257 0.307617H19.4689C19.327 0.307617 19.185 0.307617 19.043 0.326864C18.8726 0.326864 18.7306 0.326864 18.5603 0.346111C15.8059 0.538579 12.2565 1.3277 9.5021 2.86744C6.77613 4.42643 0.0463867 5.98542 0.0463867 11.3553C0.0463867 17.0138 4.84523 22.7494 7.37243 26.541C8.45146 27.5996 9.33173 28.6966 11.433 29.4087C13.1367 29.6974 14.8689 29.8514 16.5726 29.8514C16.601 29.8514 16.601 29.8514 16.601 29.8514C21.2862 29.8514 25.7727 28.6774 29.6061 26.0021C29.6345 25.9828 29.6629 25.9443 29.7197 25.9251C29.7481 25.9058 29.7765 25.8866 29.8049 25.8673C29.8901 25.7904 30.0037 25.7134 30.1173 25.6364C31.679 21.1904 37.5853 16.013 37.6137 11.2783C37.6137 8.56449 35.6828 6.00466 29.9469 3.79128C29.8617 3.75279 29.7481 3.7143 29.6629 3.6758C29.5777 3.63731 29.4926 3.61806 29.4358 3.57957C27.1925 2.65572 25.3752 1.53941 23.2455 0.885021C22.1381 0.538579 20.9171 0.307617 19.5257 0.307617Z" fill="url(#paint0_linear_936_2183)"/>
<path d="M30.1174 22.0569C29.3791 23.8853 28.3853 26.2719 25.0062 28.0811C22.9049 29.1974 22.7062 28.2544 23.0185 26.4452C23.5864 23.1732 22.5358 18.7849 20.5481 13.9348C17.5666 6.64022 20.4345 1.34736 23.6148 1.77079C28.5273 2.44442 35.2286 6.62098 34.6607 12.6067C34.3199 16.2444 30.7705 20.3632 30.1174 22.0569Z" fill="#C2C0BE"/>
<path d="M23.8985 3.0606C25.2899 1.82881 31.7641 5.48569 32.8147 8.14175C34.1209 11.3945 33.9505 16.9568 29.2653 16.9568C27.2208 16.9568 29.1517 14.7819 28.385 12.53C27.5615 10.1434 21.3713 5.27398 23.8985 3.0606Z" fill="#A4A4A3"/>
<defs>
<linearGradient id="paint0_linear_936_2183" x1="0.0415595" y1="15.0818" x2="37.6006" y2="15.0818" gradientUnits="userSpaceOnUse">
<stop stop-color="white"/>
<stop offset="0.180392" stop-color="white"/>
<stop offset="1" stop-color="#A4A4A3"/>
</linearGradient>
</defs>
</svg>
