<svg width="35" height="73" viewBox="0 0 35 73" fill="none" xmlns="http://www.w3.org/2000/svg">
<path d="M29.1516 28.8998C29.1516 28.0032 27.3757 27.3321 25.8859 26.9271C23.6873 26.3292 20.9137 26 18.0758 26C15.238 26 12.4644 26.3292 10.2658 26.9271C8.77601 27.3321 7 28.0032 7 28.8997C7 28.9513 7 31.0288 7 31.0288C7 31.7628 7.56149 32.3599 8.25165 32.3599C8.25165 32.3599 9.08667 32.3599 9.36495 32.3599C9.78217 32.3599 9.98669 32.7295 9.98669 32.7295L13.2718 38.9928C13.4603 39.352 13.6255 40.0278 13.6255 40.439V43.8463C13.6255 44.4509 14.0036 44.8899 14.5247 44.8899H14.5248C14.6726 44.8899 14.824 44.8545 14.9744 44.7845L21.5116 41.7423C22.09 41.4733 22.526 40.8385 22.526 40.2659C22.526 39.947 22.6913 39.3521 22.8797 38.9929L26.2101 32.6433C26.2101 32.6433 26.377 32.36 26.669 32.36C26.9767 32.36 27.8999 32.36 27.8999 32.36C28.59 32.36 29.1515 31.7629 29.1515 31.0289C29.1515 31.0289 29.1516 28.9514 29.1516 28.8998Z" fill="#333232"/>
<path d="M21.627 57.2092C21.4791 57.2092 21.3278 57.2446 21.1773 57.3147L14.6402 60.3568C14.0713 60.6214 13.6257 61.3461 13.6257 62.0064V63.7007C13.6257 64.3054 14.0039 64.7444 14.5249 64.7444C14.6728 64.7444 14.8242 64.709 14.9747 64.6389L21.5119 61.5967C22.0807 61.3321 22.5263 60.6075 22.5263 59.9472V58.2528C22.5262 57.6481 22.148 57.2092 21.627 57.2092Z" fill="#333232"/>
<path d="M21.627 50.5911C21.4791 50.5911 21.3278 50.6265 21.1773 50.6965L14.6402 53.7387C14.0713 54.0033 13.6257 54.7279 13.6257 55.3883V57.0826C13.6257 57.6874 14.0039 58.1263 14.5249 58.1263C14.6728 58.1263 14.8242 58.0908 14.9747 58.0208L21.5119 54.9786C22.0807 54.7139 22.5263 53.9894 22.5263 53.3291V51.6347C22.5262 51.03 22.148 50.5911 21.627 50.5911Z" fill="#333232"/>
<path d="M21.6273 63.8273C21.4793 63.8273 21.328 63.8627 21.1776 63.9328L14.6404 66.975C14.1355 67.21 13.626 67.6645 13.626 68.1502C13.626 68.5586 13.9911 69.1399 14.3304 69.5071L17.1938 72.6063C17.4284 72.8601 17.7418 73 18.0762 73C18.4105 73 18.7239 72.8601 18.9586 72.6062L21.8219 69.5071C22.2236 69.0725 22.5264 68.2851 22.5264 67.6758V64.8709C22.5265 64.2662 22.1483 63.8273 21.6273 63.8273Z" fill="#333232"/>
<path d="M21.6273 43.9729C21.4793 43.9729 21.328 44.0083 21.1776 44.0783L14.6404 47.1205C14.0716 47.3851 13.626 48.1097 13.626 48.77V50.4644C13.626 51.0691 14.0041 51.5081 14.5252 51.5081C14.673 51.5081 14.8245 51.4727 14.9749 51.4026L21.5121 48.3604C22.081 48.0958 22.5265 47.3712 22.5265 46.7108V45.0165C22.5265 44.4118 22.1483 43.9729 21.6273 43.9729Z" fill="#333232"/>
<path fill-rule="evenodd" clip-rule="evenodd" d="M7.81367 5.30336C5.0593 7.57448 0.771579 8.71004 0.487624 12.8481C0.459229 13.0213 0.459229 13.1945 0.459229 13.387C0.459229 17.1016 2.98643 23.5301 5.65561 28.13C5.7124 28.1878 5.79759 28.2455 5.88278 28.284C9.46061 30.8246 13.152 33.4806 17.4114 33.4806H17.4398C17.4398 33.4806 17.4398 33.4806 17.4682 33.4806C19.0299 33.4806 20.7052 33.115 22.4658 32.2489C22.5226 32.2104 22.5793 32.1911 22.6077 32.1719C25.5609 30.1702 28.4856 27.3602 30.5017 24.3962C31.1264 19.6615 34.6191 14.9652 34.5907 10.7502C34.5907 7.63222 32.6882 4.7837 26.2708 2.3971C23.2324 1.26154 22.3238 0.125977 17.4398 0.125977C14.9693 0.125977 10.568 3.01299 7.81367 5.30336Z" fill="url(#paint0_linear_936_2182)"/>
<path d="M24.7939 13.0213C23.5161 23.453 30.5014 13.2907 30.5014 10.1535C30.5014 7.61292 23.8285 5.89996 25.0495 4.1485C26.2705 2.39705 24.7939 1.83889 23.9704 1.49245C23.147 1.12676 19.2852 -0.374491 17.4395 0.0874322C15.5654 0.568602 15.1394 1.28073 17.4395 4.1485C19.7111 7.01627 25.4754 7.4397 24.7939 13.0213Z" fill="#C2C0BE"/>
<path d="M29.0251 20.7969C27.293 23.4144 28.2869 24.1843 27.8609 27.6872C26.3276 29.0922 23.1757 32.5952 22.0966 32.0755C19.1719 24.396 24.7942 19.0262 27.3498 13.4061C28.514 10.8463 26.3276 6.26556 25.4473 5.53418C22.4374 2.99361 24.6238 1.91579 26.9807 3.08984C36.55 7.92078 31.8079 16.6203 29.0251 20.7969Z" fill="#AFAFAD"/>
<defs>
<linearGradient id="paint0_linear_936_2182" x1="0.457525" y1="16.8039" x2="34.6037" y2="16.8039" gradientUnits="userSpaceOnUse">
<stop stop-color="white"/>
<stop offset="0.180392" stop-color="white"/>
<stop offset="1" stop-color="#A4A4A3"/>
</linearGradient>
</defs>
</svg>
