<svg width="31" height="74" viewBox="0 0 31 74" fill="none" xmlns="http://www.w3.org/2000/svg">
<path d="M27.1516 25.1622C27.1516 24.1845 25.3757 23.4527 23.8859 23.0111C21.6873 22.359 18.9137 22 16.0758 22C13.238 22 10.4644 22.359 8.2658 23.011C6.77601 23.4526 5 24.1845 5 25.1621C5 25.2184 5 27.4839 5 27.4839C5 28.2843 5.56149 28.9355 6.25165 28.9355C6.25165 28.9355 7.08667 28.9355 7.36495 28.9355C7.78217 28.9355 7.98669 29.3385 7.98669 29.3385L11.2718 36.1686C11.4603 36.5604 11.6255 37.2974 11.6255 37.7458V41.4614C11.6255 42.1208 12.0036 42.5995 12.5247 42.5995H12.5248C12.6726 42.5995 12.824 42.5609 12.9744 42.4845L19.5116 39.1671C20.09 38.8737 20.526 38.1814 20.526 37.557C20.526 37.2092 20.6913 36.5605 20.8797 36.1687L24.2101 29.2446C24.2101 29.2446 24.377 28.9356 24.669 28.9356C24.9767 28.9356 25.8999 28.9356 25.8999 28.9356C26.59 28.9356 27.1515 28.2844 27.1515 27.484C27.1515 27.484 27.1516 25.2185 27.1516 25.1622Z" fill="#333232"/>
<path d="M19.627 56.0338C19.4791 56.0338 19.3278 56.0724 19.1773 56.1487L12.6402 59.4662C12.0713 59.7547 11.6257 60.545 11.6257 61.265V63.1128C11.6257 63.7721 12.0039 64.2509 12.5249 64.2509C12.6728 64.2509 12.8242 64.2123 12.9747 64.1358L19.5119 60.8183C20.0807 60.5298 20.5263 59.7396 20.5263 59.0195V57.1718C20.5262 56.5124 20.148 56.0338 19.627 56.0338Z" fill="#333232"/>
<path d="M19.627 48.8167C19.4791 48.8167 19.3278 48.8553 19.1773 48.9316L12.6402 52.2491C12.0713 52.5376 11.6257 53.3279 11.6257 54.0479V55.8957C11.6257 56.5551 12.0039 57.0338 12.5249 57.0338C12.6728 57.0338 12.8242 56.9951 12.9747 56.9187L19.5119 53.6012C20.0807 53.3126 20.5263 52.5224 20.5263 51.8024V49.9547C20.5262 49.2953 20.148 48.8167 19.627 48.8167Z" fill="#333232"/>
<path d="M19.6273 63.2508C19.4793 63.2508 19.328 63.2894 19.1776 63.3659L12.6404 66.6833C12.1355 66.9396 11.626 67.4352 11.626 67.9648C11.626 68.4103 11.9911 69.0442 12.3304 69.4445L15.1938 72.8242C15.4284 73.1011 15.7418 73.2536 16.0762 73.2536C16.4105 73.2536 16.7239 73.1011 16.9586 72.8241L19.8219 69.4446C20.2236 68.9707 20.5264 68.112 20.5264 67.4475V64.3888C20.5265 63.7294 20.1483 63.2508 19.6273 63.2508Z" fill="#333232"/>
<path d="M19.6273 41.5995C19.4793 41.5995 19.328 41.6381 19.1776 41.7144L12.6404 45.0319C12.0716 45.3205 11.626 46.1107 11.626 46.8308V48.6785C11.626 49.3379 12.0041 49.8166 12.5252 49.8166C12.673 49.8166 12.8245 49.778 12.9749 49.7015L19.5121 46.3841C20.081 46.0955 20.5265 45.3053 20.5265 44.5852V42.7375C20.5265 42.0781 20.1483 41.5995 19.6273 41.5995Z" fill="#333232"/>
<path fill-rule="evenodd" clip-rule="evenodd" d="M14.2797 27.7731H14.3081H14.3365C18.1415 27.7539 21.9749 26.7915 25.6663 25.1363C25.6947 25.1363 25.7231 25.117 25.7799 25.0978C25.8367 25.0786 25.8935 25.0401 25.9503 25.0208C25.9787 25.0016 26.0071 25.0016 26.0354 24.9823C26.0638 24.9631 26.0922 24.9631 26.0922 24.9438C26.2626 24.8861 26.4046 24.8091 26.5466 24.7321C26.9441 23.3271 27.4268 21.9606 28.0231 20.6518C29.4429 17.5146 30.6071 11.0477 30.6071 6.90959C30.6071 5.48533 30.4651 4.33053 30.1528 3.67613C29.6701 2.69455 28.7046 1.71296 27.1713 1.09707C25.6379 0.481169 23.6218 0.134727 21.3218 0.0192468C20.8391 0 20.3563 0 19.8736 0C19.6181 0 19.3909 0 19.1353 0C18.539 0.0192468 17.9143 0.0384936 17.2896 0.0769871C12.3204 0.404182 8.82775 1.27029 6.32895 2.07865C1.78566 3.54141 0.621445 5.58157 0.223907 8.85352C0.138721 9.5464 0.110325 10.22 0.110325 10.8937C0.0819297 16.5522 2.8363 21.4217 4.65361 24.2894C4.96596 24.7706 5.22152 25.2903 5.47708 25.8484C5.53387 25.8677 5.59066 25.8869 5.64745 25.9254C8.43022 27.1765 11.3266 27.7539 14.2797 27.7731Z" fill="url(#paint0_linear_936_2181)"/>
<path d="M28.6761 11.625C28.2218 18.6693 25.865 25.2132 21.776 26.4642C15.3018 28.4274 20.3846 26.445 23.8205 22.9228C28.7897 17.8032 26.5464 5.81245 24.7575 3.38735C22.9686 0.981506 24.1328 0.712051 26.4045 2.36727C27.7675 3.36811 28.9317 7.50616 28.6761 11.625Z" fill="#AFAFAD"/>
<defs>
<linearGradient id="paint0_linear_936_2181" x1="0.0986831" y1="13.8804" x2="30.6051" y2="13.8804" gradientUnits="userSpaceOnUse">
<stop stop-color="white"/>
<stop offset="0.180392" stop-color="white"/>
<stop offset="1" stop-color="#A4A4A3"/>
</linearGradient>
</defs>
</svg>
