<svg width="30" height="74" viewBox="0 0 30 74" fill="none" xmlns="http://www.w3.org/2000/svg">
<path d="M23.1516 25.1622C23.1516 24.1845 21.6964 23.4527 20.4756 23.0111C18.674 22.359 16.4012 22 14.0758 22C11.7505 22 9.47765 22.359 7.67609 23.011C6.45531 23.4526 5 24.1845 5 25.1621C5 25.2184 5 27.4839 5 27.4839C5 28.2843 5.4601 28.9355 6.02563 28.9355C6.02563 28.9355 6.70987 28.9355 6.9379 28.9355C7.27978 28.9355 7.44737 29.3385 7.44737 29.3385L10.1393 36.1686C10.2937 36.5604 10.4291 37.2974 10.4291 37.7458V41.4614C10.4291 42.1208 10.739 42.5995 11.1659 42.5995H11.166C11.2871 42.5995 11.4112 42.5609 11.5345 42.4845L16.8912 39.1671C17.3651 38.8737 17.7225 38.1814 17.7225 37.557C17.7225 37.2092 17.8578 36.5605 18.0122 36.1687L20.7413 29.2446C20.7413 29.2446 20.878 28.9356 21.1173 28.9356C21.3695 28.9356 22.1259 28.9356 22.1259 28.9356C22.6914 28.9356 23.1515 28.2844 23.1515 27.484C23.1515 27.484 23.1516 25.2185 23.1516 25.1622Z" fill="#333232"/>
<path d="M16.9857 56.0338C16.8644 56.0338 16.7405 56.0724 16.6172 56.1487L11.2604 59.4662C10.7943 59.7547 10.4292 60.545 10.4292 61.265V63.1128C10.4292 63.7721 10.7391 64.2509 11.166 64.2509C11.2872 64.2509 11.4113 64.2123 11.5346 64.1358L16.8913 60.8183C17.3574 60.5298 17.7226 59.7396 17.7226 59.0195V57.1718C17.7225 56.5124 17.4126 56.0338 16.9857 56.0338Z" fill="#333232"/>
<path d="M16.9857 48.8167C16.8644 48.8167 16.7405 48.8553 16.6172 48.9316L11.2604 52.2491C10.7943 52.5376 10.4292 53.3279 10.4292 54.0479V55.8957C10.4292 56.5551 10.7391 57.0338 11.166 57.0338C11.2872 57.0338 11.4113 56.9951 11.5346 56.9187L16.8913 53.6012C17.3574 53.3126 17.7226 52.5224 17.7226 51.8024V49.9547C17.7225 49.2953 17.4126 48.8167 16.9857 48.8167Z" fill="#333232"/>
<path d="M16.9859 63.2508C16.8647 63.2508 16.7407 63.2894 16.6174 63.3659L11.2607 66.6833C10.8469 66.9396 10.4294 67.4352 10.4294 67.9648C10.4294 68.4103 10.7287 69.0442 11.0067 69.4445L13.353 72.8242C13.5453 73.1011 13.8021 73.2536 14.0761 73.2536C14.35 73.2536 14.6069 73.1011 14.7991 72.8241L17.1454 69.4446C17.4745 68.9707 17.7227 68.112 17.7227 67.4475V64.3888C17.7227 63.7294 17.4129 63.2508 16.9859 63.2508Z" fill="#333232"/>
<path d="M16.9859 41.5995C16.8647 41.5995 16.7407 41.6381 16.6174 41.7144L11.2607 45.0319C10.7946 45.3205 10.4294 46.1107 10.4294 46.8308V48.6785C10.4294 49.3379 10.7393 49.8166 11.1663 49.8166C11.2874 49.8166 11.4115 49.778 11.5348 49.7015L16.8916 46.3841C17.3577 46.0955 17.7228 45.3053 17.7228 44.5852V42.7375C17.7227 42.0781 17.4129 41.5995 16.9859 41.5995Z" fill="#333232"/>
<path fill-rule="evenodd" clip-rule="evenodd" d="M5.02927 0.866186C-1.18936 2.81011 0.74154 7.67955 0.855122 10.2779C1.0255 13.8 3.01318 21.9799 4.8305 26.118C4.91568 26.2912 4.97247 26.4836 5.02927 26.6761C5.08606 26.6954 5.11445 26.7146 5.17124 26.7531C5.25643 26.7916 5.31322 26.8301 5.39841 26.8686C7.15893 27.8502 8.89106 28.4468 10.5664 28.7163C15.9615 29.6209 20.6468 27.1573 24.3666 23.5774C25.5024 20.4402 26.8086 17.6686 27.7457 15.0318C28.5976 12.6645 29.1087 8.91134 29.1087 5.81261C29.1087 3.36827 28.7963 1.34736 28.058 0.750705C28.0012 0.731458 27.9729 0.712211 27.9445 0.673718C27.263 0.192548 26.1271 0.0770678 24.6222 0.0770678H24.5938H24.5654C23.9407 0.0770678 23.2592 0.0963146 22.5209 0.115561C22.4641 0.115561 22.4357 0.115561 22.3789 0.115561C22.2086 0.134808 22.0382 0.134808 21.8678 0.134808C21.811 0.134808 21.7826 0.154055 21.7258 0.154055C21.2999 0.154055 20.8456 0.173302 20.3912 0.192548C19.7098 0.211795 18.9999 0.231042 18.2616 0.231042C18.2332 0.231042 18.2332 0.231042 18.2048 0.231042C18.2048 0.231042 18.2048 0.231042 18.1764 0.231042C17.2109 0.231042 16.1603 0.192548 15.0529 0.134808C13.9455 0.0770678 12.9232 0.0385742 11.9578 0.0385742C8.94785 0.0385742 6.7046 0.346523 5.02927 0.866186Z" fill="url(#paint0_linear_936_2180)"/>
<path d="M21.7256 25.7908C21.0441 26.8686 18.8576 27.7347 18.886 27.3691C19.2836 20.036 22.2935 17.534 24.3664 11.7792C25.9281 7.44864 26.8936 2.59845 20.6181 2.17502C19.6527 2.09803 18.886 1.21268 20.8737 0.981722C26.2689 0.346578 28.0862 3.06037 28.1997 5.17752C28.3701 8.0068 28.1146 15.3783 21.7256 25.7908Z" fill="#AFAFAD"/>
<defs>
<linearGradient id="paint0_linear_936_2180" x1="1.91882" y1="14.4708" x2="27.6809" y2="14.4708" gradientUnits="userSpaceOnUse">
<stop stop-color="white"/>
<stop offset="0.180392" stop-color="white"/>
<stop offset="1" stop-color="#A4A4A3"/>
</linearGradient>
</defs>
</svg>
