<svg width="27" height="72" viewBox="0 0 27 72" fill="none" xmlns="http://www.w3.org/2000/svg">
<path d="M22.1516 23.1622C22.1516 22.1845 20.6964 21.4527 19.4756 21.0111C17.674 20.359 15.4012 20 13.0758 20C10.7505 20 8.47765 20.359 6.67609 21.011C5.45531 21.4526 4 22.1845 4 23.1621C4 23.2184 4 25.4839 4 25.4839C4 26.2843 4.4601 26.9355 5.02563 26.9355C5.02563 26.9355 5.70987 26.9355 5.9379 26.9355C6.27978 26.9355 6.44737 27.3385 6.44737 27.3385L9.13932 34.1686C9.29371 34.5604 9.42909 35.2974 9.42909 35.7458V39.4614C9.42909 40.1208 9.73897 40.5995 10.1659 40.5995H10.166C10.2871 40.5995 10.4112 40.5609 10.5345 40.4845L15.8912 37.1671C16.3651 36.8737 16.7225 36.1814 16.7225 35.557C16.7225 35.2092 16.8578 34.5605 17.0122 34.1687L19.7413 27.2446C19.7413 27.2446 19.878 26.9356 20.1173 26.9356C20.3695 26.9356 21.1259 26.9356 21.1259 26.9356C21.6914 26.9356 22.1515 26.2844 22.1515 25.484C22.1515 25.484 22.1516 23.2185 22.1516 23.1622Z" fill="#333232"/>
<path d="M15.9857 54.0338C15.8644 54.0338 15.7405 54.0724 15.6172 54.1487L10.2604 57.4662C9.79432 57.7547 9.4292 58.545 9.4292 59.265V61.1128C9.4292 61.7721 9.73908 62.2509 10.166 62.2509C10.2872 62.2509 10.4113 62.2123 10.5346 62.1358L15.8913 58.8183C16.3574 58.5298 16.7226 57.7396 16.7226 57.0195V55.1718C16.7225 54.5124 16.4126 54.0338 15.9857 54.0338Z" fill="#333232"/>
<path d="M15.9857 46.8167C15.8644 46.8167 15.7405 46.8553 15.6172 46.9316L10.2604 50.2491C9.79432 50.5376 9.4292 51.3279 9.4292 52.0479V53.8957C9.4292 54.5551 9.73908 55.0338 10.166 55.0338C10.2872 55.0338 10.4113 54.9951 10.5346 54.9187L15.8913 51.6012C16.3574 51.3126 16.7226 50.5224 16.7226 49.8024V47.9547C16.7225 47.2953 16.4126 46.8167 15.9857 46.8167Z" fill="#333232"/>
<path d="M15.9859 61.2508C15.8647 61.2508 15.7407 61.2894 15.6174 61.3659L10.2607 64.6833C9.84694 64.9396 9.42944 65.4352 9.42944 65.9648C9.42944 66.4103 9.72866 67.0442 10.0067 67.4445L12.353 70.8242C12.5453 71.1011 12.8021 71.2536 13.0761 71.2536C13.35 71.2536 13.6069 71.1011 13.7991 70.8241L16.1454 67.4446C16.4745 66.9707 16.7227 66.112 16.7227 65.4475V62.3888C16.7227 61.7294 16.4129 61.2508 15.9859 61.2508Z" fill="#333232"/>
<path d="M15.9859 39.5995C15.8647 39.5995 15.7407 39.6381 15.6174 39.7144L10.2607 43.0319C9.79457 43.3205 9.42944 44.1107 9.42944 44.8308V46.6785C9.42944 47.3379 9.73932 47.8166 10.1663 47.8166C10.2874 47.8166 10.4115 47.778 10.5348 47.7015L15.8916 44.3841C16.3577 44.0955 16.7228 43.3053 16.7228 42.5852V40.7375C16.7227 40.0781 16.4129 39.5995 15.9859 39.5995Z" fill="#333232"/>
<path fill-rule="evenodd" clip-rule="evenodd" d="M15.6728 0.300781C14.8524 0.318719 14.0055 0.336658 13.1057 0.390472C10.7239 0.533977 8.63316 0.462225 6.88648 0.40841C4.00181 0.300781 1.96401 0.193152 0.984815 0.964492C0.296729 1.52057 0.00561523 3.40408 0.00561523 5.68222C0.00561523 8.57026 0.481982 12.0682 1.27593 14.2746C2.14927 16.7321 3.36665 19.3152 4.42524 22.2391C9.00366 26.6699 15.2229 29.2529 22.4478 25.1272C22.5007 24.9478 22.5537 24.7684 22.6331 24.607C24.3268 20.7503 26.1793 13.1266 26.3381 9.84387V9.82594C26.4705 6.74057 29.3287 0.300781 15.9904 0.300781C15.8845 0.300781 15.7787 0.300781 15.6728 0.300781Z" fill="url(#paint0_linear_936_2179)"/>
<path d="M22.7384 20.6967C22.1298 21.7013 21.0447 26.0602 18.7687 26.7239C11.7026 28.7689 22.8972 21.1272 23.3471 11.333C23.5324 7.17136 22.4209 0.301051 24.2734 3.54785C25.1732 5.0726 28.693 10.9742 22.7384 20.6967Z" fill="#AFAFAD"/>
<defs>
<linearGradient id="paint0_linear_936_2179" x1="24.5459" y1="13.7513" x2="2.13657" y2="13.7513" gradientUnits="userSpaceOnUse">
<stop stop-color="#A4A4A3"/>
<stop offset="0.819608" stop-color="white"/>
<stop offset="1" stop-color="white"/>
</linearGradient>
</defs>
</svg>
