<svg width="24" height="20" viewBox="0 0 24 20" fill="none" xmlns="http://www.w3.org/2000/svg">
<g id="fa6-solid:language">
<path id="Vector" d="M0 4.7999C0 3.47615 1.07625 2.3999 2.4 2.3999H21.6C22.9238 2.3999 24 3.47615 24 4.7999V14.3999C24 15.7237 22.9238 16.7999 21.6 16.7999H2.4C1.07625 16.7999 0 15.7237 0 14.3999V4.7999ZM12 4.7999V14.3999H21.6V4.7999H12ZM6.68625 6.59615C6.56625 6.32615 6.29625 6.1499 6 6.1499C5.70375 6.1499 5.43375 6.32615 5.31375 6.59615L2.91375 11.9962C2.745 12.3749 2.9175 12.8174 3.29625 12.9862C3.675 13.1549 4.1175 12.9824 4.28625 12.6037L4.62 11.8499H7.38L7.71375 12.6037C7.8825 12.9824 8.325 13.1512 8.70375 12.9862C9.0825 12.8212 9.25125 12.3749 9.08625 11.9962L6.68625 6.59615ZM6 8.7449L6.7125 10.3499H5.2875L6 8.7449ZM16.8 6.1499C17.2125 6.1499 17.55 6.4874 17.55 6.8999V7.0499H19.8C20.2125 7.0499 20.55 7.3874 20.55 7.7999C20.55 8.2124 20.2125 8.5499 19.8 8.5499H19.725L19.665 8.71865C19.3313 9.63365 18.825 10.4662 18.18 11.1712C18.2138 11.1937 18.2475 11.2124 18.2812 11.2312L18.99 11.6549C19.3463 11.8687 19.4587 12.3299 19.2488 12.6824C19.0387 13.0349 18.5737 13.1512 18.2213 12.9412L17.5125 12.5174C17.3438 12.4162 17.1825 12.3112 17.0212 12.1987C16.6238 12.4799 16.2 12.7237 15.7463 12.9262L15.6112 12.9862C15.2325 13.1549 14.79 12.9824 14.6213 12.6037C14.4525 12.2249 14.625 11.7824 15.0038 11.6137L15.1388 11.5537C15.3788 11.4449 15.6113 11.3249 15.8325 11.1862L15.375 10.7287C15.0825 10.4362 15.0825 9.9599 15.375 9.6674C15.6675 9.3749 16.1437 9.3749 16.4363 9.6674L16.9838 10.2149L17.0025 10.2337C17.4675 9.7424 17.8463 9.1724 18.12 8.54615L16.8 8.5499H14.1C13.6875 8.5499 13.35 8.2124 13.35 7.7999C13.35 7.3874 13.6875 7.0499 14.1 7.0499H16.05V6.8999C16.05 6.4874 16.3875 6.1499 16.8 6.1499Z" fill="#1890FF"/>
</g>
</svg>
