<svg width="24" height="15" viewBox="0 0 24 15" fill="none" xmlns="http://www.w3.org/2000/svg">
<path d="M0 2.7999C0 1.47615 1.07625 0.399902 2.4 0.399902H21.6C22.9238 0.399902 24 1.47615 24 2.7999V12.3999C24 13.7237 22.9238 14.7999 21.6 14.7999H2.4C1.07625 14.7999 0 13.7237 0 12.3999V2.7999ZM12 2.7999V12.3999H21.6V2.7999H12ZM6.68625 4.59615C6.56625 4.32615 6.29625 4.1499 6 4.1499C5.70375 4.1499 5.43375 4.32615 5.31375 4.59615L2.91375 9.99615C2.745 10.3749 2.9175 10.8174 3.29625 10.9862C3.675 11.1549 4.1175 10.9824 4.28625 10.6037L4.62 9.8499H7.38L7.71375 10.6037C7.8825 10.9824 8.325 11.1512 8.70375 10.9862C9.0825 10.8212 9.25125 10.3749 9.08625 9.99615L6.68625 4.59615ZM6 6.7449L6.7125 8.3499H5.2875L6 6.7449ZM16.8 4.1499C17.2125 4.1499 17.55 4.4874 17.55 4.8999V5.0499H19.8C20.2125 5.0499 20.55 5.3874 20.55 5.7999C20.55 6.2124 20.2125 6.5499 19.8 6.5499H19.725L19.665 6.71865C19.3313 7.63365 18.825 8.46615 18.18 9.17115C18.2138 9.19365 18.2475 9.2124 18.2812 9.23115L18.99 9.6549C19.3463 9.86865 19.4587 10.3299 19.2488 10.6824C19.0387 11.0349 18.5737 11.1512 18.2213 10.9412L17.5125 10.5174C17.3438 10.4162 17.1825 10.3112 17.0212 10.1987C16.6238 10.4799 16.2 10.7237 15.7463 10.9262L15.6112 10.9862C15.2325 11.1549 14.79 10.9824 14.6213 10.6037C14.4525 10.2249 14.625 9.7824 15.0038 9.61365L15.1388 9.55365C15.3788 9.4449 15.6113 9.3249 15.8325 9.18615L15.375 8.72865C15.0825 8.43615 15.0825 7.9599 15.375 7.6674C15.6675 7.3749 16.1437 7.3749 16.4363 7.6674L16.9838 8.2149L17.0025 8.23365C17.4675 7.7424 17.8463 7.1724 18.12 6.54615L16.8 6.5499H14.1C13.6875 6.5499 13.35 6.2124 13.35 5.7999C13.35 5.3874 13.6875 5.0499 14.1 5.0499H16.05V4.8999C16.05 4.4874 16.3875 4.1499 16.8 4.1499Z" fill="#CACACA"/>
</svg>
