<svg width="21" height="20" viewBox="0 0 21 20" fill="none" xmlns="http://www.w3.org/2000/svg">
<path d="M4 5.5C4 4.04131 4.57946 2.64236 5.61091 1.61091C6.64236 0.579463 8.04131 0 9.5 0C10.9587 0 12.3576 0.579463 13.3891 1.61091C14.4205 2.64236 15 4.04131 15 5.5C15 6.95869 14.4205 8.35764 13.3891 9.38909C12.3576 10.4205 10.9587 11 9.5 11C8.04131 11 6.64236 10.4205 5.61091 9.38909C4.57946 8.35764 4 6.95869 4 5.5ZM9.75 20H0L0 18C0 16.4087 0.632141 14.8826 1.75736 13.7574C2.88258 12.6321 4.4087 12 6 12H9.75V20ZM11.75 12H20.25V14H11.75V12ZM11.75 15H20.25V17H11.75V15ZM11.75 18H20.25V20H11.75V18Z" fill="#1890FF"/>
</svg>
