<svg width="41" height="51" viewBox="0 0 41 51" fill="none" xmlns="http://www.w3.org/2000/svg">
<g id="Layer_x0020_1">
<g id="_732009192">
<path id="Vector" fill-rule="evenodd" clip-rule="evenodd" d="M25.8032 11.5867V11.5693V11.5519C25.8032 8.25137 23.9835 1.23334 18.6271 1.14648H18.499H18.4734C17.1919 1.14648 16.5 1.40705 16.1412 1.91082C16.1412 1.9282 16.1412 1.9282 16.1412 1.9282C15.2698 3.16156 16.3206 5.69778 15.2698 8.78988C13.7577 13.2022 12.9376 14.0013 12.7838 17.0934C12.7838 17.1281 12.7582 17.1629 12.7582 17.1976C12.7582 19.3864 16.1924 21.9226 19.9342 21.7315C22.7533 21.5752 25.47 16.4333 25.8032 12.0904C25.8032 11.9515 25.8032 11.7778 25.8032 11.5867Z" fill="url(#paint0_linear_341_27742)"/>
<path id="Vector_2" fill-rule="evenodd" clip-rule="evenodd" d="M18.4478 1.07715H18.4221C18.294 1.07715 18.1659 1.07715 18.0121 1.09452C17.4995 1.09452 16.1412 1.21612 15.7311 2.2584C15.5774 2.77954 15.5261 3.30068 15.5261 3.85656C15.5261 4.53405 15.5774 5.2289 15.603 5.92375C15.603 6.18433 15.5774 6.42752 15.5517 6.68809C15.3723 9.91916 12.3994 13.5845 12.3994 16.7461C12.3994 17.8926 12.8095 18.9696 13.8602 19.9424C13.8859 19.9772 13.9371 20.0293 13.9884 20.064C15.2698 21.1584 17.3201 21.9923 19.1654 22.027C19.2166 22.027 19.2423 22.027 19.2679 22.027C19.2679 22.027 19.2679 22.027 19.2935 22.027C20.3187 22.0096 21.3182 21.7491 22.0614 21.1411C23.0353 20.342 23.8298 19.2476 24.4192 17.9795C24.4449 17.9621 24.4705 17.9274 24.4705 17.8926C24.4961 17.8405 24.5218 17.7884 24.5474 17.7536C27.3922 11.3957 25.4956 1.07715 18.4478 1.07715ZM18.4221 1.19875C20.0624 1.23349 22.1383 2.11943 23.6248 4.34296C23.6248 4.36033 23.6504 4.36033 23.6504 4.3777C23.676 4.41245 23.676 4.42982 23.7016 4.46456C25.2137 6.84444 25.7776 9.15483 25.7776 11.2741C25.7776 16.7287 21.9589 20.8631 20.5237 21.2974C20.4724 21.3495 20.3699 21.3843 20.2418 21.419C20.0624 21.4537 19.8061 21.4885 19.5242 21.4885C18.2171 21.4885 16.1156 20.9673 14.5266 19.595C13.5271 18.7091 13.1683 17.6668 13.1683 16.5203C13.1683 13.5324 15.6799 9.86705 15.808 6.70547C15.8337 6.39278 15.8593 6.09747 15.8593 5.78478C15.8593 5.08993 15.7824 4.39508 15.7824 3.71759C15.7824 3.2312 15.8337 2.77954 15.9362 2.32789C15.9362 2.29314 15.9618 2.27577 15.9618 2.2584C15.9618 2.24103 15.9618 2.24103 15.9874 2.24103C16.3206 1.59829 17.192 1.19875 18.294 1.18138C18.294 1.18138 18.294 1.18138 18.3196 1.18138C18.3453 1.18138 18.3965 1.18138 18.4221 1.19875Z" fill="url(#paint1_linear_341_27742)"/>
<path id="Vector_3" fill-rule="evenodd" clip-rule="evenodd" d="M26.6229 0.451321C24.7008 0.833491 24.7008 2.84857 25.1877 4.35987C26.2385 7.64306 25.3927 19.8725 19.9851 20.6021C19.9082 20.6195 19.8313 20.6195 19.7288 20.6195C18.0886 20.6195 15.5513 18.5175 13.783 14.939C11.0151 9.29334 13.1422 0.972462 8.811 0.746634C6.63257 0.642406 4.2491 2.51851 3.58276 6.63552C3.42899 7.71255 3.3521 8.72008 3.3521 9.71025C3.32647 15.825 6.17125 20.2894 6.17125 25.4487C6.17125 26.5083 6.04311 27.568 5.76119 28.6971C5.63305 29.1835 5.47928 29.6352 5.32551 30.0695C13.2448 36.41 26.3922 32.2583 37.2332 35.3851C36.4899 33.7696 36.2593 31.9803 36.2593 30.0174C36.2593 26.9079 36.8487 23.3989 36.8487 19.5772C36.8487 15.8076 36.2849 11.7427 34.0808 7.4346C31.5949 2.588 29.7496 0.451321 27.4686 0.381836C27.4174 0.381836 27.3661 0.381836 27.3149 0.381836C27.0586 0.381836 26.8279 0.399207 26.6229 0.451321Z" fill="url(#paint2_linear_341_27742)"/>
<path id="Vector_4" fill-rule="evenodd" clip-rule="evenodd" d="M1.37926 37.1921C0.99483 38.356 0.81543 39.3983 0.81543 40.3363C0.81543 45.4087 5.83864 47.198 8.86282 47.4065C14.0654 47.7539 13.3222 46.0167 16.2439 46.0167C21.4465 46.0167 23.3943 50.3943 32.2874 50.568C36.5674 50.6549 40.6167 48.1882 40.6167 43.6716C40.6167 41.6913 39.8222 39.3288 37.9513 36.6015C37.6438 36.1846 37.3875 35.7329 37.1825 35.2812C26.3416 32.1544 13.1941 36.2888 5.27481 29.9482C4.19841 32.6755 2.32752 34.3953 1.37926 37.1921Z" fill="url(#paint3_linear_341_27742)"/>
<path id="Vector_5" d="M5.01837 46.4333C4.78772 46.2596 5.60783 46.607 5.91538 46.6417C8.17069 46.8676 9.32398 45.4605 13.3221 45.1131C16.0899 44.8699 19.1397 46.3291 19.7036 46.8155C19.7036 46.8155 16.705 44.922 13.6552 46.746C10.7336 48.5178 5.88975 47.0065 5.01837 46.4333Z" fill="#C2C0BE"/>
<path id="Vector_6" d="M36.3365 24.3543C37.3361 19.6293 36.721 11.1868 33.2355 6.06228C29.75 0.920364 30.8264 6.27074 30.1344 9.86661C28.5711 17.8922 31.4927 25.7267 28.3917 27.238C25.265 28.7493 22.9328 24.7017 20.8056 25.7267C17.4226 27.3769 23.1378 28.4192 23.3172 33.9086C23.3172 33.9086 32.3128 33.7001 37.1823 35.2809C37.1823 35.2809 35.2601 29.4094 36.3365 24.3543ZM31.9284 31.2507C28.853 31.3723 30.1857 28.176 31.1852 24.5107C32.646 19.2298 32.6973 16.0682 33.0305 15.3907C33.2355 15.0085 34.6963 16.3114 33.5174 22.235C32.7998 25.9351 35.3627 31.1291 31.9284 31.2507Z" fill="#E4BB47"/>
<path id="Vector_7" d="M19.9347 20.4986C22.2157 20.6549 23.1895 26.7696 15.0909 25.3278C6.71033 23.8512 7.70985 3.89155 8.68373 2.50185C9.65762 1.12951 10.8878 1.99808 11.1185 2.65819C11.9386 5.07281 12.2205 12.8031 14.6039 16.59C15.9366 18.6919 17.3462 20.3075 19.9347 20.4986Z" fill="#DECB8E"/>
<path id="Vector_8" d="M19.5502 20.4462C21.1392 20.672 21.5492 24.6327 15.6547 23.3298C8.78619 21.8359 10.4777 13.6714 10.6571 12.8028C11.0159 11.2567 12.0923 9.83229 12.2204 10.1797C12.7074 11.5347 12.8099 14.3141 15.5778 17.8926C16.4748 19.0217 17.2949 20.0988 19.5502 20.4462Z" fill="#CBBC84"/>
<path id="Vector_9" d="M36.0801 38.8079C37.8485 41.9695 36.3107 47.1288 31.7232 48.3969C27.2126 49.6303 27.4176 49.0223 29.8523 47.4936C31.877 46.2255 32.1845 43.6024 31.5694 41.431C30.6212 38.1825 25.7774 34.9862 23.317 33.9092L29.0835 34.0655C32.2614 34.8472 34.8755 36.6886 36.0801 38.8079Z" fill="#AFAFAD"/>
</g>
</g>
<defs>
<linearGradient id="paint0_linear_341_27742" x1="12.7702" y1="11.4404" x2="25.8106" y2="11.4404" gradientUnits="userSpaceOnUse">
<stop stop-color="#FEFBF3"/>
<stop offset="1" stop-color="#E9B631"/>
</linearGradient>
<linearGradient id="paint1_linear_341_27742" x1="13.4786" y1="11.547" x2="24.7424" y2="11.547" gradientUnits="userSpaceOnUse">
<stop stop-color="#E9E9E9"/>
<stop offset="1" stop-color="#A4A4A3"/>
</linearGradient>
<linearGradient id="paint2_linear_341_27742" x1="5.04128" y1="17.8856" x2="35.5353" y2="17.8856" gradientUnits="userSpaceOnUse">
<stop stop-color="#FEFBF3"/>
<stop offset="1" stop-color="#EFB626"/>
</linearGradient>
<linearGradient id="paint3_linear_341_27742" x1="0.813379" y1="40.263" x2="40.6044" y2="40.263" gradientUnits="userSpaceOnUse">
<stop stop-color="white"/>
<stop offset="0.180392" stop-color="white"/>
<stop offset="1" stop-color="#A4A4A3"/>
</linearGradient>
</defs>
</svg>
