<svg width="40" height="51" viewBox="0 0 40 51" fill="none" xmlns="http://www.w3.org/2000/svg">
<g id="Layer_x0020_1">
<g id="_647330928">
<path id="Vector" fill-rule="evenodd" clip-rule="evenodd" d="M14.8687 11.6146V11.6486C14.8687 11.8354 14.8687 12.0052 14.8687 12.158C15.1943 16.522 17.8498 21.701 20.6055 21.8539C20.6306 21.8539 20.6557 21.8539 20.6807 21.8539C20.7809 21.8539 20.9062 21.8539 21.0064 21.8539C21.0064 21.8539 21.0064 21.8539 21.0314 21.8539C24.5387 21.8539 27.6201 19.3917 27.595 17.2691C27.595 17.2352 27.595 17.2182 27.595 17.1842C27.4447 14.0768 26.6431 13.2617 25.165 8.82985C23.6869 4.44889 26.3675 1.1377 22.0335 1.1377C21.9834 1.1377 21.9333 1.1377 21.8832 1.1377C16.6473 1.23958 14.8687 8.30345 14.8687 11.6146Z" fill="url(#paint0_linear_341_27721)"/>
<path id="Vector_2" fill-rule="evenodd" clip-rule="evenodd" d="M22.0836 1.06982H22.0335C19.9542 1.06982 18.3007 2.03771 17.1233 3.58293C14.4678 7.06393 14.1672 13.4486 16.1212 17.8805C16.1463 17.9654 16.1964 18.0333 16.2214 18.1012C16.2465 18.1861 16.2966 18.271 16.3216 18.339C16.3216 18.3559 16.3216 18.3559 16.3216 18.3559C16.3467 18.3559 16.3467 18.3559 16.3467 18.3559C16.8227 19.3578 17.449 20.2408 18.2005 20.9539C18.2005 20.9539 18.2005 20.9539 18.2005 20.9709C18.2506 21.0049 18.2757 21.0389 18.3007 21.0728C18.3258 21.0898 18.3508 21.1068 18.3759 21.1238C18.426 21.1747 18.4761 21.2087 18.5262 21.2596C19.2527 21.8709 20.2047 22.1426 21.2318 22.1426H21.2569C21.2569 22.1426 21.2819 22.1426 21.307 22.1426C23.1608 22.1256 25.2151 21.2596 26.4677 20.1219C26.4927 20.1049 26.4927 20.1049 26.5178 20.0879C26.5178 20.071 26.5428 20.071 26.5428 20.054C27.57 19.0691 27.9708 17.9824 27.9708 16.8277C27.9708 13.6523 25.0397 9.96759 24.8894 6.72432C24.8644 6.46961 24.8393 6.21491 24.8393 5.94322C24.8393 5.264 24.9145 4.5678 24.9145 3.90556C24.9145 3.34521 24.8644 2.80183 24.714 2.25846C24.3132 1.22265 22.9855 1.10379 22.4844 1.0868C22.4343 1.0868 22.3842 1.0868 22.3341 1.0868C22.259 1.06982 22.1587 1.06982 22.0836 1.06982ZM22.2088 1.18869C23.3362 1.18869 24.213 1.63018 24.5136 2.32638C24.6138 2.78485 24.6639 3.24332 24.6639 3.71878C24.6639 4.398 24.5888 5.11118 24.5888 5.80737C24.5888 6.11302 24.5888 6.43565 24.6389 6.7413C24.7641 9.91665 27.1942 13.6014 27.2192 16.6069C27.2192 17.7616 26.8685 18.8144 25.8915 19.6974C24.9145 20.5804 23.712 21.1068 22.6347 21.3785C21.808 21.5822 21.0565 21.6501 20.5554 21.5822C20.33 21.5483 20.1295 21.4973 20.0043 21.4124C18.6264 20.9709 14.8937 16.8107 14.8937 11.326C14.8937 9.20347 15.4448 6.87714 16.9229 4.4829C16.9479 4.41498 16.998 4.34705 17.0481 4.27913C17.0732 4.26215 17.0732 4.24517 17.0983 4.21121C17.1484 4.12631 17.1985 4.05839 17.2486 3.99046C18.7016 2.00375 20.6306 1.20567 22.1587 1.18869H22.1838C22.1838 1.18869 22.1838 1.18869 22.2088 1.18869Z" fill="url(#paint1_linear_341_27721)"/>
<path id="Vector_3" fill-rule="evenodd" clip-rule="evenodd" d="M13.2401 0.373535C11.0105 0.458437 9.20674 2.59798 6.7767 7.47137C4.62223 11.8014 4.07109 15.8937 4.07109 19.6803C4.07109 23.5349 4.64729 27.0668 4.64729 30.1912C4.64729 32.161 4.42182 33.9609 3.69531 35.591C14.2923 32.4327 27.1439 36.6098 34.885 30.2252C34.7347 29.8007 34.5844 29.3422 34.4591 28.8498C34.1835 27.7291 34.0583 26.6423 34.0583 25.5895C34.0583 20.4105 36.814 15.9107 36.814 9.74675C36.814 8.76188 36.7388 7.74306 36.5635 6.67329C35.9622 2.68288 33.933 0.764086 31.9038 0.730125C31.8788 0.730125 31.8537 0.730125 31.8286 0.730125C31.7535 0.730125 31.7034 0.730125 31.6282 0.730125C27.3945 0.950871 29.3235 9.33922 26.6178 15.0277C26.5928 15.0447 26.5928 15.0616 26.5677 15.0786C26.5427 15.1465 26.5176 15.1975 26.4926 15.2484C26.4425 15.3333 26.4174 15.4182 26.3673 15.5031C26.3423 15.5201 26.3423 15.5541 26.3423 15.5711C24.6888 18.6955 22.4843 20.5803 20.9812 20.7161C20.906 20.7331 20.8559 20.7331 20.8058 20.7331H20.7807C20.7056 20.7331 20.6304 20.7331 20.5553 20.7161C16.5219 20.1558 15.0939 12.8881 15.0939 7.99776C15.0939 6.45254 15.2192 5.16203 15.4697 4.38093C15.6952 3.66775 15.8205 2.8357 15.6701 2.12252C15.6701 2.12252 15.6701 2.12252 15.6701 2.10554C15.6451 1.91876 15.5699 1.73197 15.5198 1.56217C15.1942 0.865969 14.5679 0.373535 13.3904 0.373535C13.3403 0.373535 13.2902 0.373535 13.2401 0.373535Z" fill="url(#paint2_linear_341_27721)"/>
<path id="Vector_4" fill-rule="evenodd" clip-rule="evenodd" d="M3.7453 35.4719C3.51984 35.9304 3.29437 36.3888 2.99374 36.8133C2.94364 36.9152 2.86849 37.0171 2.79333 37.102C2.79333 37.119 2.79333 37.119 2.79333 37.136C2.74323 37.1869 2.71817 37.2548 2.66807 37.3058C2.66807 37.3228 2.64302 37.3397 2.64302 37.3567C2.64302 37.3737 2.61797 37.3907 2.61797 37.4077C-2.7181 45.8809 2.49271 50.8392 8.27971 50.8562C8.30476 50.8562 8.30476 50.8562 8.30476 50.8562C8.35486 50.8562 8.40497 50.8562 8.45507 50.8562C8.48012 50.8562 8.50517 50.8562 8.53023 50.8562C17.2233 50.6694 19.1272 46.2715 24.2127 46.2715C24.6637 46.2715 25.0144 46.3054 25.315 46.3734C26.7931 46.7299 27.0937 47.7148 30.1501 47.7148C30.1751 47.7148 30.1751 47.7148 30.1751 47.7148C30.5258 47.7148 30.8766 47.7148 31.2774 47.6808C31.3275 47.6808 31.3776 47.6808 31.4277 47.6639C34.3588 47.4771 39.294 45.6602 39.294 40.566C39.294 39.6321 39.1187 38.5793 38.7429 37.3907C37.816 34.5889 35.9872 32.8569 34.935 30.123C27.1689 36.4907 14.3423 32.3305 3.7453 35.4719Z" fill="url(#paint3_linear_341_27721)"/>
<path id="Vector_5" d="M20.6053 20.5975C18.3757 20.7673 19.5531 33.8932 25.7159 30.1236C31.8536 26.3539 32.5551 3.90573 31.6031 2.51334C30.6511 1.12094 29.4236 2.00392 29.2232 2.66616C28.4215 5.09437 28.1459 12.8714 25.8161 16.675C24.5134 18.7976 23.1355 20.4107 20.6053 20.5975Z" fill="#E4BB47"/>
<path id="Vector_6" d="M21.8578 20.3934C19.6281 20.9708 21.2816 27.5252 24.864 25.6913C28.6468 23.7556 29.2731 8.09956 28.1458 9.96741C27.2189 11.4957 27.5696 14.1276 24.864 17.7275C23.9872 18.8822 22.96 20.1047 21.8578 20.3934Z" fill="#CBBC84"/>
<path id="Vector_7" fill-rule="evenodd" clip-rule="evenodd" d="M23.7618 42.3156C23.2608 42.4854 22.8349 42.7062 22.4591 42.9609C18.2254 45.8136 18.8517 48.0041 13.4404 50.1266C15.3444 49.787 18.8266 47.7833 20.8308 46.9513C20.8558 46.9343 20.9059 46.9173 20.931 46.9003C20.956 46.9003 20.956 46.8834 20.9811 46.8834C22.7347 46.1362 25.3151 44.9136 28.4716 44.9136H28.4967C28.4967 44.9136 28.4967 44.9136 28.5217 44.9136C30.125 44.9136 31.8787 45.2363 33.7576 46.0853V46.1023C33.8077 46.1192 33.8578 46.1362 33.8828 46.1532C33.9079 46.1532 33.9079 46.1702 33.9329 46.1702C33.958 46.1702 33.958 46.1872 33.983 46.2041C34.434 46.4079 34.8097 46.5098 35.1104 46.5098C35.1354 46.5098 35.1354 46.5098 35.1605 46.5098C35.1605 46.5098 35.1605 46.5098 35.1855 46.5098C36.363 46.4928 36.6135 45.2532 35.7617 44.4382C33.8327 42.6552 30.5008 41.7383 27.4946 41.7383C26.1418 41.7383 24.8391 41.9251 23.7618 42.3156Z" fill="url(#paint4_linear_341_27721)"/>
<path id="Vector_8" d="M35.1856 46.6963C35.411 46.5264 34.5843 46.8661 34.3088 46.9C32.0791 47.1377 30.9768 45.7114 27.0437 45.3548C24.3631 45.1171 21.382 46.5944 20.8308 47.0868C20.8308 47.0868 23.7619 45.168 26.7431 47.0189C29.599 48.7849 34.3338 47.2736 35.1856 46.6963Z" fill="#F4F4F5"/>
</g>
</g>
<defs>
<linearGradient id="paint0_linear_341_27721" x1="27.6023" y1="11.4999" x2="14.8564" y2="11.4999" gradientUnits="userSpaceOnUse">
<stop stop-color="#E9B631"/>
<stop offset="1" stop-color="#FEFBF3"/>
</linearGradient>
<linearGradient id="paint1_linear_341_27721" x1="27.6975" y1="11.6067" x2="15.1144" y2="11.6067" gradientUnits="userSpaceOnUse">
<stop stop-color="#A4A4A3"/>
<stop offset="1" stop-color="#E9E9E9"/>
</linearGradient>
<linearGradient id="paint2_linear_341_27721" x1="35.1581" y1="17.9818" x2="5.34924" y2="17.9818" gradientUnits="userSpaceOnUse">
<stop stop-color="#EFB626"/>
<stop offset="1" stop-color="#FEFBF3"/>
</linearGradient>
<linearGradient id="paint3_linear_341_27721" x1="36.5684" y1="40.4872" x2="3.11951" y2="40.4872" gradientUnits="userSpaceOnUse">
<stop stop-color="#A4A4A3"/>
<stop offset="0.819608" stop-color="white"/>
<stop offset="1" stop-color="white"/>
</linearGradient>
<linearGradient id="paint4_linear_341_27721" x1="13.8951" y1="45.9282" x2="35.8106" y2="45.9282" gradientUnits="userSpaceOnUse">
<stop stop-color="#C1C0BF"/>
<stop offset="0.321569" stop-color="#C1C0BF"/>
<stop offset="1" stop-color="#A4A4A3"/>
</linearGradient>
</defs>
</svg>
