<svg width="39" height="46" viewBox="0 0 39 46" fill="none" xmlns="http://www.w3.org/2000/svg">
<path fill-rule="evenodd" clip-rule="evenodd" d="M7.54153 44.9133H7.56658C8.09267 44.9133 8.61877 44.8114 9.1198 44.5906C9.14486 44.5737 9.16991 44.5567 9.19496 44.5567C9.24506 44.5227 9.29517 44.5057 9.34527 44.4888C9.39538 44.4718 9.44548 44.4548 9.47053 44.4378C10.4476 44.0642 11.3494 43.9284 12.2012 43.9284C12.2262 43.9284 12.2262 43.9284 12.2262 43.9284C13.1532 43.9284 14.03 44.0982 14.8818 44.285C14.8818 44.285 14.9068 44.285 14.9319 44.285C15.0321 44.319 15.1323 44.3359 15.2575 44.3699C15.2826 44.3699 15.3076 44.3869 15.3327 44.3869C15.3577 44.3869 15.3828 44.4039 15.4078 44.4039C15.4329 44.4039 15.4579 44.4208 15.483 44.4208C15.483 44.4208 15.508 44.4208 15.5331 44.4378C16.4099 44.6416 17.2867 44.8453 18.1385 44.8453C18.1636 44.8453 18.1886 44.8453 18.2387 44.8453C18.2638 44.8453 18.2888 44.8453 18.3139 44.8453C18.3389 44.8453 18.3389 44.8453 18.364 44.8453C19.1656 44.8284 20.0675 44.5397 21.0195 44.2171C22.3723 43.7586 23.8253 43.2152 25.3284 43.1982C25.3535 43.1982 25.3785 43.1982 25.4036 43.1982C26.0299 43.1982 26.6311 43.2831 27.2324 43.5039C27.2574 43.5039 27.2574 43.5039 27.2574 43.5039L27.2825 43.5209C27.3075 43.5209 27.3075 43.5209 27.3326 43.5379C27.3326 43.5379 27.3576 43.5379 27.3576 43.5548C27.4077 43.5548 27.4328 43.5718 27.4578 43.5888C27.558 43.6228 27.6582 43.6567 27.7585 43.7077C27.7835 43.7077 27.8086 43.7246 27.8336 43.7246C29.1614 44.251 30.4641 44.7774 31.7918 44.7944C31.7918 44.7944 31.8169 44.7944 31.8419 44.7944H31.867C33.5204 44.7774 35.1738 43.9284 36.8774 41.1945C36.8774 41.1776 36.8774 41.1606 36.9024 41.1606C36.9024 41.1436 36.9024 41.1436 36.9024 41.1436C36.9024 41.1266 36.9275 41.1096 36.9275 41.0927C36.9275 41.0757 36.9525 41.0757 36.9525 41.0587C36.9776 41.0247 36.9776 40.9908 37.0026 40.9568C37.0277 40.9398 37.0277 40.9229 37.0277 40.9229C37.0527 40.9059 37.0527 40.8889 37.0527 40.8719L37.0778 40.8549C37.0778 40.838 37.0778 40.821 37.1028 40.804C37.1028 40.77 37.1279 40.7531 37.1529 40.7191C38.3053 38.6984 38.7563 36.2363 38.7312 33.6722C38.7312 31.8044 38.5057 29.8856 38.13 28.0517C38.0799 28.0856 38.0298 28.1026 38.0047 28.1196C32.6937 30.8534 25.7292 32.2628 18.9652 32.2628C18.9652 32.2628 18.9652 32.2628 18.9402 32.2628H18.9151C12.3014 32.2628 5.93821 30.9044 1.55412 28.1196C1.52906 28.1196 1.50401 28.1026 1.50401 28.0856C1.45391 28.0687 1.4038 28.0347 1.3537 28.0007C1.27854 28.1875 1.20339 28.3743 1.12823 28.5611C-1.8279 36.5928 2.85682 44.8114 7.46638 44.9133H7.54153Z" fill="url(#paint0_linear_366_2189)"/>
<path fill-rule="evenodd" clip-rule="evenodd" d="M21.4453 33.5024H21.4202C19.5664 33.5364 18.9902 34.2666 18.9902 35.3194C18.9651 37.1532 20.7438 40.0399 20.7438 42.1455C20.7438 43.6058 19.8921 44.7096 17.0361 44.8454C18.3388 44.8624 19.6415 44.5058 20.9943 44.1322C23.1238 43.5379 25.4285 42.9606 28.2845 43.8945C33.3199 45.5586 35.1737 43.7247 35.1737 41.67C35.1737 41.5172 35.1487 41.3644 35.1487 41.2286C34.823 38.7494 32.0673 36.2872 29.0861 39.2928C25.5788 42.8077 23.9505 42.1285 23.9505 40.1758C23.9505 39.8871 24.0006 39.5814 24.0507 39.2588C24.6519 36.474 24.6269 33.5024 21.4453 33.5024Z" fill="url(#paint1_linear_366_2189)"/>
<path fill-rule="evenodd" clip-rule="evenodd" d="M18.9152 32.2629H18.9402H18.9653C25.7293 32.2629 32.6937 30.8535 38.0048 28.1196C38.0298 28.1027 38.0799 28.0857 38.13 28.0517C37.654 25.7594 36.9526 23.5859 36.2511 21.8369C32.9192 13.6183 35.5497 4.99224 32.6436 1.13767V1.12069C32.6186 1.12069 32.6186 1.10371 32.6186 1.10371C32.6186 1.10371 32.6186 1.10371 32.6186 1.08673C32.3681 0.832025 31.9422 0.713162 31.366 0.713162C31.3409 0.713162 31.3409 0.713162 31.3409 0.713162C31.2407 0.713162 31.1155 0.713162 30.9902 0.713162C30.9401 0.730143 30.89 0.730143 30.8399 0.730143C30.7647 0.747123 30.7146 0.747123 30.6645 0.764104C28.6103 1.03579 25.5539 2.42819 23.8254 4.51679C21.4454 7.35253 22.2972 9.72979 19.4663 12.158C19.4413 12.175 19.4413 12.175 19.4162 12.192C19.4162 12.192 19.3912 12.2089 19.3912 12.2259C19.3661 12.2259 19.3661 12.2259 19.3661 12.2259V12.2429C19.0154 12.5316 18.6897 12.6844 18.3891 12.6844C18.364 12.7014 18.364 12.7014 18.339 12.7014C18.339 12.7014 18.339 12.7014 18.3139 12.7014C17.4872 12.6674 16.911 11.4958 16.41 9.1185C16.3849 9.03359 16.3849 8.96567 16.3599 8.88077C16.3599 8.84681 16.3599 8.79587 16.3348 8.74493C16.2346 8.21853 16.1845 7.76006 16.1845 7.33555C16.1845 4.14322 18.6897 3.44702 18.8901 1.42634C18.8901 1.22258 18.8651 1.05277 18.7899 0.899947C18.5644 0.407514 17.8129 0.186768 16.8359 0.186768C14.8067 0.186768 11.7253 1.12069 9.87142 2.30933C2.5312 6.99594 7.6919 16.4201 2.13037 26.4046C1.82975 26.931 1.57923 27.4744 1.35376 28.0008C1.40386 28.0347 1.45397 28.0687 1.50407 28.0857C1.50407 28.1027 1.52912 28.1196 1.55418 28.1196C5.93827 30.9044 12.3265 32.2629 18.9152 32.2629Z" fill="url(#paint2_linear_366_2189)"/>
<path d="M35.2239 29.3763C31.416 22.3124 29.9881 15.4863 32.9692 6.07912C34.0966 2.49624 31.3659 0.526506 29.4119 4.19429C26.9818 8.74505 30.3638 11.4619 28.7355 20.3087C27.5831 26.7274 25.9046 29.5291 25.0779 31.8724C30.1634 31.414 35.2239 29.3763 35.2239 29.3763Z" fill="#E9B225"/>
<path d="M12.7021 7.26763C13.7794 3.2093 17.6875 1.34145 18.89 1.42635C18.439 3.70173 15.4829 4.31303 16.3347 8.74493C17.0361 12.3788 17.938 13.4655 19.4662 12.158C20.8691 10.9354 16.8357 14.8749 22.8482 16.8616C27.7584 18.4917 25.3534 30.2931 21.5956 30.429C16.7606 30.6158 20.368 23.1104 14.7063 16.8107C12.5017 14.3824 11.6249 11.4958 12.7021 7.26763Z" fill="#DECB8E"/>
<path d="M14.0551 7.94697C14.5812 3.82072 17.5875 1.80004 18.815 1.64722C18.5895 3.93958 15.4831 4.31315 16.3349 8.74505C17.0363 12.3789 17.9382 13.4656 19.4664 12.1581C20.8693 10.9355 17.2868 14.2128 22.0467 17.456C23.4246 18.373 23.4496 23.2464 21.7461 23.2294C20.3181 23.1954 20.5436 20.0201 16.5102 16.3353C14.1804 14.2128 13.6543 10.9865 14.0551 7.94697Z" fill="#CBBC84"/>
<path d="M10.573 44.0133C10.573 44.0133 13.8799 43.419 16.4853 44.4378C18.2639 45.134 20.4184 44.6586 19.0155 43.2661C17.2619 41.5171 11.4999 42.9265 10.573 44.0133Z" fill="white"/>
<path fill-rule="evenodd" clip-rule="evenodd" d="M16.9365 0L16.9114 0C16.0095 0 14.9323 0.169805 13.83 0.458472C13.1035 0.662238 12.352 0.899964 11.6505 1.18863C1.50447 5.39979 7.96787 15.7069 2.03056 26.2178C0.702809 28.5272 0.101562 31.244 0.101562 33.893C0.126614 39.3777 2.70696 44.5398 6.99085 45.1171C7.0159 45.1171 7.04095 45.1341 7.066 45.1341C7.09106 45.1341 7.09106 45.1341 7.09106 45.1341C7.11611 45.1341 7.11611 45.1341 7.11611 45.1341C7.31652 45.151 7.46683 45.168 7.61715 45.168C7.6422 45.168 7.6422 45.168 7.6422 45.168H7.66725C8.2685 45.168 8.69438 45.0152 9.29563 44.8114C9.29563 44.8114 9.32068 44.8114 9.32068 44.7945C9.34573 44.7945 9.39583 44.7775 9.42089 44.7775C9.44594 44.7605 9.49604 44.7435 9.52109 44.7265C9.54615 44.7265 9.5712 44.7096 9.59625 44.7096C9.6213 44.6926 9.67141 44.6756 9.72151 44.6586C10.5733 44.302 11.3749 44.1662 12.1014 44.1662H12.1265C12.1515 44.1662 12.1766 44.1662 12.1766 44.1662C13.1286 44.1832 14.0054 44.3869 14.9073 44.6077C14.9323 44.6077 14.9323 44.6077 14.9574 44.6247C14.9824 44.6247 15.0075 44.6247 15.0325 44.6416C15.9594 44.8454 16.9114 45.0661 17.9887 45.0661H18.0137C18.0388 45.0661 18.0388 45.0661 18.0638 45.0661C18.8404 45.0661 19.7172 44.9473 20.6943 44.6416C20.7193 44.6416 20.7694 44.6247 20.7945 44.6247C20.8446 44.5907 20.9197 44.5737 20.9698 44.5567C20.9949 44.5567 21.0199 44.5398 21.045 44.5398C21.1201 44.5058 21.2204 44.4888 21.2955 44.4548C23.4249 43.7586 24.5773 43.487 25.4541 43.487C25.4792 43.487 25.4792 43.487 25.4792 43.487C26.4061 43.487 27.0575 43.8096 28.3351 44.2681C28.4103 44.285 28.4854 44.319 28.5606 44.353H28.5856C28.5856 44.3699 28.6107 44.3699 28.6357 44.3699V44.3869C28.6858 44.3869 28.7109 44.4039 28.7359 44.4039C28.7359 44.4209 28.761 44.4209 28.761 44.4209C28.786 44.4379 28.8111 44.4379 28.8361 44.4379C28.8612 44.4548 28.8862 44.4718 28.9113 44.4718C29.8883 44.8114 30.8152 44.9643 31.667 44.9812H31.6921C38.6315 44.9473 41.1868 34.3005 36.8277 22.8217C36.8027 22.7538 36.7776 22.6859 36.7526 22.618C36.7275 22.601 36.7275 22.567 36.7275 22.5501C36.7025 22.4991 36.6774 22.4482 36.6524 22.3972C32.7192 13.1938 35.7004 5.7394 32.8445 1.3075C32.644 0.832043 32.0929 0.628277 31.3664 0.628277H31.3413C31.2662 0.628277 31.191 0.628277 31.0908 0.628277C29.8132 0.713179 28.0345 1.3075 26.5063 2.15652V2.1735C26.4813 2.1735 26.4562 2.19048 26.4562 2.19048C26.4312 2.20746 26.4061 2.22444 26.3811 2.22444C26.2808 2.29236 26.2057 2.3433 26.1055 2.39425C25.9802 2.46217 25.88 2.53009 25.7798 2.59801C21.5711 5.28092 22.1473 8.59211 20.1932 11.0033C20.1932 11.0033 20.1682 11.0203 20.1682 11.0373C19.4166 11.9882 18.8655 12.3957 18.4396 12.4297C18.4396 12.4297 18.4145 12.4297 18.3895 12.4297C17.688 12.4297 17.3373 11.3599 16.9615 9.95055C16.7361 8.8638 16.6358 7.9978 16.6358 7.26764C16.6358 3.92249 18.7402 3.87155 19.141 1.71503C19.2914 0.984867 19.0158 0.526394 18.4396 0.271687C18.0638 0.0849023 17.5377 0 16.9365 0ZM16.8613 0.37357C17.9636 0.390551 18.6901 0.696199 18.5648 1.52824C18.5648 1.57918 18.5398 1.61314 18.5398 1.6471C18.2642 3.20931 15.8091 4.347 15.8091 7.59027C15.8091 8.62607 16.0597 9.86565 16.711 11.4109C17.1369 12.3278 17.6129 12.9221 18.2893 12.9391C18.2893 12.9391 18.2893 12.9391 18.3143 12.9391C18.3143 12.9391 18.3394 12.9391 18.3644 12.9391C18.6901 12.9221 19.0909 12.7523 19.5419 12.4297C19.5669 12.4127 19.5669 12.4127 19.5669 12.4127C19.592 12.3957 19.592 12.3957 19.592 12.3788C19.617 12.3788 19.617 12.3788 19.617 12.3788C19.6421 12.3618 19.6421 12.3618 19.6671 12.3448C19.6671 12.3448 19.6671 12.3278 19.6922 12.3278C23.2245 9.15247 21.3957 5.85826 26.0303 2.7848C26.0804 2.73385 26.1305 2.69989 26.1806 2.66593C26.2057 2.64895 26.2307 2.63197 26.2558 2.63197C26.2558 2.61499 26.2558 2.61499 26.2808 2.61499C26.2808 2.59801 26.3059 2.58103 26.3309 2.58103C26.4312 2.51311 26.5314 2.46217 26.6316 2.39425C26.6316 2.37726 26.6566 2.37726 26.6817 2.36028C26.7067 2.3433 26.7318 2.32632 26.7568 2.32632C28.285 1.44334 30.0637 0.815062 31.2912 0.781101C31.3413 0.781101 31.3664 0.781101 31.3914 0.781101H31.4165C32.0428 0.781101 32.5188 0.950906 32.6941 1.35844C35.5501 5.70544 32.7693 13.6013 36.3016 22.4652C37.8047 26.5914 38.3809 30.1403 38.3809 33.1119C38.3809 39.8701 35.3246 43.5888 33.0198 44.302C32.619 44.4548 32.2182 44.5058 31.8173 44.5228C31.7923 44.5228 31.7923 44.5228 31.7923 44.5228C30.8152 44.5058 29.8883 44.1492 28.8862 43.7756C28.8612 43.7756 28.8361 43.7586 28.8111 43.7586C28.8111 43.7417 28.786 43.7417 28.786 43.7417C28.761 43.7247 28.7359 43.7247 28.7109 43.7077C28.6608 43.6907 28.6107 43.6737 28.5606 43.6568C28.5606 43.6568 28.5355 43.6398 28.5105 43.6398C28.5105 43.6398 28.4854 43.6228 28.4604 43.6228C28.4353 43.6058 28.4103 43.6058 28.3852 43.5888C27.4332 43.2323 26.4312 42.9096 25.3289 42.9096C25.3289 42.9096 25.3289 42.9096 25.3038 42.9096C25.1285 42.9096 24.9781 42.9096 24.8028 42.9266C22.7736 43.0964 19.6421 44.4888 18.3895 44.5567C18.3394 44.5567 18.2642 44.5567 18.2141 44.5567C18.1891 44.5567 18.164 44.5567 18.1139 44.5567C17.3874 44.5567 16.5857 44.3699 15.734 44.1832C15.7089 44.1832 15.7089 44.1832 15.6839 44.1662C15.5837 44.1492 15.5085 44.1322 15.4083 44.1152C15.3832 44.0983 15.3331 44.0983 15.3081 44.0813C15.283 44.0813 15.258 44.0813 15.2329 44.0643C14.281 43.8605 13.2789 43.6568 12.2017 43.6568C12.1766 43.6568 12.1766 43.6568 12.1766 43.6568C12.1515 43.6568 12.1515 43.6568 12.1265 43.6568C11.2747 43.6568 10.3729 43.7926 9.42089 44.1492V44.1662C9.39583 44.1662 9.37078 44.1832 9.34573 44.1832C9.32068 44.2001 9.29563 44.2001 9.27057 44.2171C9.22047 44.2341 9.17037 44.2511 9.12026 44.2681C8.59417 44.5058 8.04303 44.6077 7.49189 44.6077C7.29147 44.6077 7.09106 44.5907 6.86559 44.5567C1.88025 43.7756 -1.72723 33.7741 2.38129 26.3027C8.04303 16.0635 1.98046 5.55261 11.901 1.49428C11.9261 1.49428 11.9511 1.4773 11.9762 1.4773C11.9762 1.46032 11.9762 1.46032 12.0012 1.46032C12.0012 1.46032 12.0263 1.46032 12.0263 1.44334C12.1265 1.40938 12.2017 1.3924 12.2768 1.35844C12.3019 1.34146 12.3019 1.34146 12.3269 1.34146C13.7298 0.832043 15.5336 0.390551 16.8363 0.37357H16.8613Z" fill="url(#paint3_linear_366_2189)"/>
<defs>
<linearGradient id="paint0_linear_366_2189" x1="36.8165" y1="36.4595" x2="2.13457" y2="36.4595" gradientUnits="userSpaceOnUse">
<stop stop-color="#A4A4A3"/>
<stop offset="0.819608" stop-color="white"/>
<stop offset="1" stop-color="white"/>
</linearGradient>
<linearGradient id="paint1_linear_366_2189" x1="17.0374" y1="39.1794" x2="35.1682" y2="39.1794" gradientUnits="userSpaceOnUse">
<stop stop-color="#C1C0BF"/>
<stop offset="0.321569" stop-color="#C1C0BF"/>
<stop offset="1" stop-color="#A4A4A3"/>
</linearGradient>
<linearGradient id="paint2_linear_366_2189" x1="38.1245" y1="16.224" x2="1.35927" y2="16.224" gradientUnits="userSpaceOnUse">
<stop stop-color="#EAB93A"/>
<stop offset="1" stop-color="#FEFBF3"/>
</linearGradient>
<linearGradient id="paint3_linear_366_2189" x1="37.0291" y1="22.584" x2="2.05461" y2="22.584" gradientUnits="userSpaceOnUse">
<stop stop-color="#A4A4A3"/>
<stop offset="1" stop-color="#E9E9E9"/>
</linearGradient>
</defs>
</svg>
