<svg width="36" height="67" viewBox="0 0 36 67" fill="none" xmlns="http://www.w3.org/2000/svg">
<g id="Layer_x0020_1">
<g id="_453490808">
<path id="Vector" fill-rule="evenodd" clip-rule="evenodd" d="M28.1272 45.168C28.1021 45.202 28.027 45.219 27.8767 45.219C27.4007 45.219 26.2483 45.0831 24.5949 44.9303C24.5448 44.9303 24.5197 44.9303 24.4696 44.9303C22.8412 44.7775 20.7619 44.6416 18.382 44.6416C18.382 44.6416 18.382 44.6416 18.3569 44.6416C18.3319 44.6416 18.3068 44.6416 18.2818 44.6416C15.1252 44.6586 11.4426 44.8964 7.60965 45.6944C7.60965 45.6944 7.5846 45.6944 7.55955 45.6944C7.35913 45.7454 7.15872 45.7793 6.98335 45.8303C6.80799 45.8642 6.65768 45.8982 6.50737 45.9322C6.65768 45.7454 6.78294 45.5416 6.9082 45.3548C9.23803 41.738 8.28606 37.0684 9.33824 32.0252C9.81422 29.8347 9.93949 27.3386 9.93949 24.9613C9.93949 21.9218 9.71402 19.086 9.66391 17.371C9.66391 17.0993 9.63886 16.8276 9.63886 16.5899C9.63886 14.0429 10.0898 12.5995 10.19 9.57699C10.19 9.45813 10.19 9.32228 10.19 9.18644C10.19 7.6582 9.96454 5.67148 9.96454 3.93948C9.96454 1.85088 10.3153 0.152832 11.8935 0.152832C14.9749 0.152832 19.0083 3.29422 21.0625 7.98083C23.3924 13.2957 28.027 34.4703 28.1272 45.168Z" fill="url(#paint0_linear_341_27754)"/>
<path id="Vector_2" d="M12.4948 46.2037C11.2923 47.2735 3.72665 52.1299 8.68694 61.9277C9.03767 62.6408 12.5199 65.7822 10.641 61.2994C6.50742 51.3998 14.2485 44.6076 12.4948 46.2037Z" fill="#E9EAE9"/>
<path id="Vector_3" fill-rule="evenodd" clip-rule="evenodd" d="M13.4967 45.6265C13.0959 46.5774 6.03121 50.432 7.43412 57.4109C7.60948 58.277 7.68464 58.9732 7.68464 59.5165C7.68464 64.1352 2.22332 58.6335 2.22332 55.9676C2.22332 52.8432 4.60325 46.1869 12.7201 45.4227C12.7451 45.4227 12.7702 45.4227 12.7952 45.4227C12.9205 45.4058 13.0207 45.4058 13.0959 45.4058C13.4466 45.4058 13.5468 45.4907 13.4967 45.6265Z" fill="url(#paint1_linear_341_27754)"/>
<path id="Vector_4" d="M10.9415 16.7767C9.76405 23.3311 12.0688 31.7704 10.4906 37.1023C8.41125 44.1322 9.91437 44.6416 9.91437 44.6416C9.91437 44.6416 11.8434 43.9624 15.5511 44.2511C19.2838 44.5397 14.2233 39.4456 14.3235 26.048C14.3486 20.7841 14.6993 8.18455 12.4947 5.46768C9.6889 2.08857 11.7682 12.3108 10.9415 16.7767Z" fill="#E4BB47"/>
<path id="Vector_5" fill-rule="evenodd" clip-rule="evenodd" d="M12.044 0L12.0691 0C13.472 0 15.2256 0.899964 16.5784 1.85087C16.9542 2.12256 17.2799 2.41123 17.5805 2.66593C23.9938 8.49023 27.0501 29.2064 28.0271 39.6154C28.2777 42.3493 28.4781 44.4718 29.2046 45.8303C30.8079 48.7679 34.3903 53.862 34.6659 56.7147C34.691 56.9525 34.716 57.1732 34.716 57.394C34.7411 62.7937 25.2965 64.8144 20.1608 66.1729C20.1358 66.1729 20.1358 66.1729 20.1107 66.1898C19.3341 66.3936 18.5074 66.4955 17.6807 66.4955H17.6556C17.6306 66.4955 17.6055 66.4955 17.6055 66.4955C14.6494 66.4615 11.4678 65.3069 9.08787 64.1182C9.03777 64.1012 9.01272 64.0843 8.96261 64.0503C2.95015 61.0617 0.996094 58.1241 0.996094 55.3733C0.996094 51.0263 5.78102 47.1378 7.13382 44.2001C8.71209 40.7022 8.11085 36.6438 9.01272 32.3138C9.58891 29.6988 9.71417 27.3046 9.71417 24.8764C9.71417 22.6689 9.61396 20.4445 9.61396 17.9993C9.61396 16.2673 9.66407 14.4164 9.86448 12.3957C9.96469 11.3939 9.98974 10.426 9.98974 9.50906C9.98974 7.25066 9.78933 5.24696 9.78933 3.66778C9.78933 2.03766 10.0148 0.832043 10.9417 0.254707C11.2674 0.0849023 11.6432 0.0169805 12.044 0ZM12.044 0.322629C8.88745 0.339609 10.8916 5.65449 10.115 12.3957C9.93964 13.873 9.86448 15.2994 9.86448 16.7088C9.86448 19.7822 10.1651 22.7538 10.1651 25.8443C10.1651 27.9329 10.0398 30.0894 9.56386 32.3478C8.73714 36.6778 9.3885 40.9739 7.83528 44.353C6.38226 47.3415 1.44703 51.281 1.47208 55.628C1.47208 58.2939 3.35098 61.1297 9.06282 63.9824C10.0398 64.4748 10.9668 64.8823 11.8937 65.188C13.7976 65.8502 15.6264 66.1219 17.4051 66.1219C18.307 66.1219 19.2089 66.054 20.1107 65.9182C20.5116 65.8502 20.9124 65.7653 21.3132 65.6804C23.3675 65.2389 25.3466 64.5088 27.2756 63.6258C32.4112 61.5712 34.0647 59.0241 34.0647 56.46C34.0396 51.7055 28.2276 46.9 28.1274 45.168C25.3215 21.769 22.3153 3.46401 13.4469 0.560355C12.8958 0.390551 12.4448 0.322629 12.0691 0.322629C12.044 0.322629 12.044 0.322629 12.044 0.322629Z" fill="url(#paint2_linear_341_27754)"/>
<path id="Vector_6" fill-rule="evenodd" clip-rule="evenodd" d="M15.2283 44H15.177C13.9192 44 12.6872 44.0532 11.5321 44.1597C10.0434 44.3194 8.11609 44.6273 6.85837 45C1.89109 50.5772 0.956941 51.2901 0.956941 56C0.85427 56.3904 0.957009 56.9907 0.957009 57.3634C0.982676 63.7346 15.254 67 17.9234 67C25.0847 67 36.3652 61 34.8898 56.2986C34.8898 51.4005 31.8867 49.1466 29.5509 45.7215C25.2387 44.7631 20.0282 44 15.2283 44Z" fill="url(#paint3_linear_341_27754)"/>
</g>
</g>
<defs>
<linearGradient id="paint0_linear_341_27754" x1="6.51113" y1="23.0416" x2="28.1229" y2="23.0416" gradientUnits="userSpaceOnUse">
<stop stop-color="#EAB93A"/>
<stop offset="1" stop-color="#FEFBF3"/>
</linearGradient>
<linearGradient id="paint1_linear_341_27754" x1="13.5085" y1="53.3562" x2="2.21856" y2="53.3562" gradientUnits="userSpaceOnUse">
<stop stop-color="#C1C0BF"/>
<stop offset="0.321569" stop-color="#C1C0BF"/>
<stop offset="1" stop-color="#A4A4A3"/>
</linearGradient>
<linearGradient id="paint2_linear_341_27754" x1="0.9991" y1="33.2477" x2="34.713" y2="33.2477" gradientUnits="userSpaceOnUse">
<stop stop-color="#A4A4A3"/>
<stop offset="1" stop-color="#E9E9E9"/>
</linearGradient>
<linearGradient id="paint3_linear_341_27754" x1="34.901" y1="55.4961" x2="0.963614" y2="55.4961" gradientUnits="userSpaceOnUse">
<stop stop-color="#A4A4A3"/>
<stop offset="0.819608" stop-color="white"/>
<stop offset="1" stop-color="white"/>
</linearGradient>
</defs>
</svg>
