<svg width="39" height="55" viewBox="0 0 39 55" fill="none" xmlns="http://www.w3.org/2000/svg">
<path fill-rule="evenodd" clip-rule="evenodd" d="M22.2404 24.2821H22.2654H22.2905C22.3406 24.2821 22.3907 24.2821 22.4408 24.2651C24.971 24.1972 26.4491 22.0747 27.8269 18.1692C28.6286 15.9108 29.6307 11.4109 29.6557 7.48845C29.6557 3.63389 28.6787 0.322695 25.5973 0.237793C25.5723 0.237793 25.5222 0.237793 25.4971 0.237793C22.9168 0.237793 21.564 2.69996 20.7372 4.56781C19.7853 6.67339 14.1987 24.2651 22.2404 24.2821Z" fill="url(#paint0_linear_341_27710)"/>
<path fill-rule="evenodd" clip-rule="evenodd" d="M19.384 1.85059H19.359C16.979 1.85059 15.2755 4.41464 12.0438 8.32014C3.20045 18.9839 9.23797 31.872 5.07935 38.7831C5.1545 38.8171 5.25471 38.834 5.32987 38.868C8.46136 39.9887 11.9937 40.5151 15.5761 40.5151C15.6012 40.5151 15.6262 40.5151 15.6262 40.5151C22.9163 40.4981 30.457 38.3756 35.5425 34.9455C34.0895 32.5682 32.5864 30.3608 32.6114 27.2364C32.6114 25.4874 33.0874 23.4328 34.315 20.8857C35.9934 17.4047 36.4694 13.3803 36.4694 9.79744C36.4694 8.16732 36.3692 6.63908 36.244 5.28064C35.9934 2.85243 34.5655 1.91851 33.388 1.88455C33.363 1.88455 33.3379 1.88455 33.3129 1.88455H33.2878C32.7116 1.88455 32.2357 2.10529 31.9851 2.47886C31.9851 2.49584 31.9851 2.49584 31.9601 2.51282C31.1083 4.10899 31.2336 6.41833 30.0561 9.20313C29.981 9.40689 29.9058 9.59368 29.8307 9.78046C29.8056 9.81442 29.8056 9.84839 29.7806 9.86537C29.7806 9.91631 29.7555 9.96725 29.7305 10.0012C29.7305 10.0352 29.7054 10.0522 29.7054 10.0691C29.6804 10.1371 29.6553 10.205 29.6303 10.2729C29.6052 10.2899 29.6052 10.3069 29.6052 10.3238C29.5801 10.3578 29.5801 10.3748 29.5801 10.3918C29.5551 10.4087 29.5551 10.4257 29.5551 10.4427C29.53 10.4767 29.53 10.5106 29.505 10.5276C29.505 10.5446 29.505 10.5446 29.505 10.5446C29.4799 10.5955 29.4799 10.6295 29.4549 10.6804C29.4298 10.7314 29.4048 10.7823 29.3797 10.8333C29.3797 10.8333 29.3797 10.8333 29.3797 10.8502C25.5718 20.2234 25.0958 23.4837 22.3151 23.5007H22.29C21.9644 23.5007 21.6387 23.4667 21.2629 23.3988C19.7848 23.0931 19.4592 21.2762 19.4592 18.9669C19.4592 17.3028 19.6345 15.401 19.6596 13.618C19.7598 10.3918 21.7389 6.43531 21.7389 4.02409C21.7389 2.75055 21.1877 1.90153 19.4592 1.85059H19.384Z" fill="url(#paint1_linear_341_27710)"/>
<path d="M34.2405 10.375C33.1632 19.086 29.7562 24.9782 27.3512 26.9819C25.4222 27.9159 24.4201 27.5593 26.9002 22.4651C28.8543 18.4238 27.5766 15.4522 27.5766 15.4522C27.5766 15.4522 26.5746 19.2728 24.37 22.4142C23.0172 24.316 20.0109 23.5009 19.8857 21.9557C19.8105 20.852 19.3596 19.069 19.3596 19.069C18.4327 24.1462 19.2093 27.6442 20.6372 29.8346C22.1153 32.0931 21.8898 34.725 20.3617 36.9664C18.7583 39.2758 18.0819 41.4323 20.7876 42.4681C22.6915 43.2153 31.5098 42.57 31.0839 35.7608C30.6831 29.4441 31.4096 28.3573 35.1674 18.6445C36.8208 14.3145 35.3427 1.29049 34.2405 10.375Z" fill="#E9B225"/>
<path fill-rule="evenodd" clip-rule="evenodd" d="M35.5434 34.9458C30.4579 38.3759 22.9173 40.4984 15.6271 40.5154C15.6271 40.5154 15.6021 40.5154 15.577 40.5154C11.9946 40.5154 8.46229 39.989 5.3308 38.8683C5.25564 38.8343 5.15543 38.8173 5.08028 38.7834C4.98007 38.9702 4.85481 39.157 4.72955 39.3437C2.39972 42.57 0.370511 44.0473 0.345459 47.3585C0.345459 47.5283 0.370511 47.6981 0.370511 47.8679C0.370511 47.8849 0.370511 47.9019 0.370511 47.9019C0.370511 47.9868 0.395563 48.0547 0.395563 48.1226C0.796394 51.0433 5.23059 54.2865 11.0927 54.3035H11.1178C11.1178 54.3035 11.1178 54.3035 11.1428 54.3035C13.5228 54.3035 16.1282 53.7602 18.8087 52.4527C18.8338 52.4527 18.8588 52.4357 18.8839 52.4357C18.8839 52.4187 18.909 52.4187 18.909 52.4017C18.9591 52.3847 19.0092 52.3678 19.0342 52.3508C19.7607 51.9942 20.3119 51.8414 20.838 51.8414H20.863H20.8881C21.4643 51.8414 22.0154 52.0112 22.7419 52.2489C22.767 52.2489 22.767 52.2489 22.792 52.2489C22.8672 52.2829 22.9674 52.3168 23.0676 52.3508C23.0926 52.3508 23.0926 52.3508 23.0926 52.3508C23.1427 52.3678 23.1678 52.3678 23.1928 52.3847C23.8692 52.5885 24.6709 52.8262 25.7231 53.047C25.7481 53.064 25.7982 53.064 25.8233 53.0809H25.8483C25.8734 53.0809 25.9235 53.0979 25.9485 53.0979C25.9987 53.1149 26.0488 53.1149 26.0989 53.1319C26.149 53.1489 26.1991 53.1489 26.2492 53.1658C26.2993 53.1658 26.3494 53.1828 26.4245 53.1998C26.4496 53.1998 26.4997 53.1998 26.5247 53.2168C26.5498 53.2168 26.5498 53.2168 26.5498 53.2168C27.3765 53.3526 28.1281 53.4205 28.8045 53.4205C28.8295 53.4205 28.8295 53.4205 28.8295 53.4205C31.3347 53.4205 32.9631 52.5545 34.4662 51.4508C34.5414 51.3829 34.6416 51.315 34.7418 51.247C36.7459 49.7018 38.224 47.9359 38.3242 43.6738C38.3493 43.5549 38.3493 43.436 38.3493 43.3172C38.3493 39.7003 36.9714 37.2382 35.5434 34.9458Z" fill="url(#paint2_linear_341_27710)"/>
<path fill-rule="evenodd" clip-rule="evenodd" d="M35.5428 35.5571C35.5178 35.5571 35.4677 35.5911 35.4176 35.6251C34.8915 35.9137 32.9625 37.3571 27.8018 39.0211C26.5241 39.4287 25.0461 39.8362 23.3676 40.2607C22.3655 40.4984 19.5346 40.4305 19.5346 41.3135C19.5346 41.3305 19.5346 41.3305 19.5346 41.3475C19.6599 42.7229 20.6119 43.7757 20.6119 45.3379C20.6119 45.6435 20.5868 45.9662 20.4866 46.3058C19.8854 48.6321 17.9564 49.617 15.3259 50.432C14.1735 50.8056 13.6725 51.2471 13.6725 51.6037C13.6725 52.2319 15.2257 52.6225 17.6307 51.9603C22.1901 50.6867 20.687 43.0285 22.4156 42.3154C25.3968 41.0588 26.0231 42.0606 26.0231 43.8096C26.0231 44.7436 25.8477 45.8982 25.7475 47.0359C25.7225 47.4774 25.6974 47.9189 25.6974 48.3434C25.6974 50.6697 26.474 52.6395 30.307 52.2999C33.5888 52.0112 37.6221 49.1755 38.1983 45.3718C38.3236 44.6247 38.3737 43.9115 38.3737 43.2323C38.3737 40.5664 37.5219 38.257 35.5679 35.5741C35.5679 35.5571 35.5428 35.5571 35.5428 35.5571Z" fill="url(#paint3_linear_341_27710)"/>
<path d="M30.0821 53.3524C26.2241 53.7599 24.5456 52.3336 21.9903 51.977C19.8859 51.1959 22.341 50.0242 24.4955 51.5864C26.6249 53.1486 28.3034 53.1996 30.0821 53.3524Z" fill="#F4F4F5"/>
<path d="M24.3951 22.7031C24.3951 22.7031 21.6143 24.4182 20.6123 22.9239C19.7855 21.7522 20.8127 30.1066 23.7437 29.801C26.0235 29.5802 23.0924 27.5426 24.3951 22.7031Z" fill="#CBBC84"/>
<path fill-rule="evenodd" clip-rule="evenodd" d="M19.4093 1.59619H19.3843C18.3822 1.59619 17.5555 1.96976 16.8039 2.51314C16.378 2.83577 15.9772 3.20934 15.5764 3.59989C7.38438 12.0731 6.40735 18.5936 6.40735 24.4349C6.40735 26.2348 6.50756 27.9838 6.50756 29.6819C6.48251 33.6553 6.00652 37.4929 2.72472 41.6361C1.02118 43.5379 0.294678 45.3379 0.294678 46.968C0.294678 50.8565 4.4533 53.7262 9.41359 54.3036C9.43864 54.3036 9.46369 54.3036 9.51379 54.3036C9.51379 54.3036 9.53885 54.3036 9.5639 54.3036C10.1401 54.3205 10.6912 54.3375 11.1923 54.3375C11.1923 54.3375 11.1923 54.3375 11.2173 54.3375C16.6787 54.3375 17.2799 53.081 19.7851 52.1301C19.8853 52.0961 19.9855 52.0621 20.0857 52.0282C20.1108 52.0112 20.1358 52.0112 20.1609 52.0112C20.1859 51.9942 20.1859 51.9942 20.211 51.9942C20.4114 51.9433 20.6369 51.9263 20.8373 51.9263C20.8623 51.9263 20.8623 51.9263 20.8623 51.9263C20.9375 51.9263 21.0377 51.9263 21.1128 51.9263C22.0147 51.9942 23.0919 52.3678 24.2944 52.7414C24.3696 52.7583 24.4448 52.7923 24.545 52.8093C24.545 52.8263 24.57 52.8263 24.5951 52.8263C24.5951 52.8263 24.5951 52.8432 24.6201 52.8432C25.8226 53.2168 27.1754 53.5564 28.6535 53.5564C28.6785 53.5564 28.7036 53.5564 28.7036 53.5564C28.7286 53.5564 28.7286 53.5564 28.7286 53.5564C30.5324 53.5564 32.5365 53.047 34.7161 51.4678C34.7662 51.4339 34.8163 51.3999 34.8664 51.3659C34.8664 51.349 34.8914 51.332 34.8914 51.332C34.9165 51.315 34.9415 51.298 34.9415 51.298C34.9666 51.2641 35.0167 51.2471 35.0417 51.2301C37.096 49.6509 38.6242 47.6642 38.6242 43.0116C38.6242 42.9946 38.6242 42.9776 38.6242 42.9606C38.5239 36.6439 34.1649 33.5704 33.3632 30.1064C33.0877 28.9687 32.9624 27.9838 32.9875 27.0839C32.9875 22.1086 36.6451 19.9011 36.6701 10.1374C36.6701 9.3223 36.6451 8.43932 36.5699 7.52237C36.4196 5.96017 36.6451 2.68294 34.0146 1.90184C33.739 1.81694 33.4635 1.766 33.2129 1.766C33.2129 1.766 33.2129 1.766 33.1879 1.766C31.3841 1.78298 31.2839 4.22816 30.7578 6.46959C30.7578 6.53751 30.7328 6.60543 30.7077 6.67335C30.7077 6.69033 30.7077 6.70731 30.7077 6.72429C30.6827 6.77523 30.6827 6.82618 30.6576 6.8941C30.357 8.15065 30.3069 8.18461 25.9729 18.8823C25.3717 20.1898 25.1212 21.6501 23.9187 22.6859L23.8936 22.7029C23.8686 22.7199 23.8686 22.7369 23.8435 22.7369C23.4176 23.0935 22.7913 23.2972 22.165 23.2972C22.14 23.2972 22.14 23.2972 22.14 23.2972C22.14 23.2972 22.14 23.2972 22.1149 23.2972C21.9396 23.2972 21.7642 23.2802 21.5888 23.2463C21.5638 23.2463 21.5387 23.2463 21.5137 23.2293C20.6369 23.1274 20.2611 22.4312 20.0607 21.8029C19.8101 20.9539 19.76 20.0879 19.76 19.2049C19.76 18.7125 19.7851 18.2201 19.8101 17.7276C19.8853 16.3692 19.9605 14.9938 20.0356 13.6353C20.0857 12.2769 20.211 10.9354 20.687 9.64493C21.188 8.3714 22.0899 6.04507 22.0899 4.21118C22.1149 3.02255 21.7141 2.05466 20.5617 1.74902C20.1609 1.64713 19.76 1.59619 19.4093 1.59619ZM33.238 1.95278C33.4384 1.95278 33.6388 1.98674 33.8643 2.03768C33.8893 2.05466 33.9144 2.05466 33.9394 2.05466C35.6931 2.59804 36.3194 5.55264 36.3194 8.96571C36.3194 12.6844 35.5929 16.9465 34.7662 19.171C34.2902 20.4785 32.4363 23.6029 32.4113 27.5084C32.4113 28.3744 32.5115 29.2574 32.7369 30.1913C33.4635 33.7063 37.8225 36.8646 38.048 42.9606C38.048 43.1304 38.048 43.2832 38.048 43.4361C38.048 47.6982 36.6451 49.549 34.7411 51.0263C34.691 51.0603 34.666 51.0773 34.6409 51.0943C34.5657 51.1622 34.4906 51.2131 34.4154 51.281C34.3904 51.298 34.3904 51.298 34.3653 51.315C32.3361 52.8263 30.4322 53.3187 28.6785 53.3357C28.6535 53.3357 28.6284 53.3357 28.6034 53.3357C28.5783 53.3357 28.5783 53.3357 28.5533 53.3357C27.1253 53.3357 25.7976 52.9961 24.57 52.6395C24.57 52.6395 24.545 52.6395 24.5199 52.6225C24.5199 52.6225 24.4949 52.6225 24.4698 52.6055C24.4698 52.6055 24.4448 52.6055 24.4197 52.6055C24.3696 52.5885 24.3195 52.5716 24.2694 52.5546C24.2443 52.5376 24.1942 52.5206 24.1441 52.5206C24.1191 52.5036 24.094 52.4867 24.0439 52.4867C24.0189 52.4697 23.9688 52.4697 23.9437 52.4527C23.9187 52.4357 23.8686 52.4357 23.8435 52.4187C23.8185 52.4187 23.8185 52.4017 23.7934 52.4017C23.7684 52.4017 23.7182 52.3848 23.6681 52.3678C23.618 52.3508 23.5679 52.3338 23.4928 52.3168C22.5408 52.0282 21.689 51.7905 20.9124 51.7735C20.9124 51.7735 20.8874 51.7735 20.8623 51.7735C20.8373 51.7735 20.8373 51.7735 20.8373 51.7735C20.5617 51.7735 20.3112 51.8074 20.0607 51.8754C20.0356 51.8754 20.0106 51.8923 20.0106 51.8923C19.9354 51.9263 19.8602 51.9433 19.7851 51.9772C19.735 51.9942 19.6849 52.0112 19.6598 52.0282C17.3551 52.9281 16.1025 54.1677 10.9668 54.1677C10.9668 54.1677 10.9668 54.1677 10.9418 54.1677C10.3906 54.1677 9.81442 54.1677 9.18812 54.1338C9.13801 54.1338 9.11296 54.1338 9.08791 54.1168C5.22991 53.6413 0.545197 51.349 0.570249 47.3076C0.570249 45.7284 1.29676 43.8776 3.05039 41.772C6.73303 37.2212 7.15891 33.1289 7.15891 28.8668C7.15891 27.5933 7.13386 26.3028 7.13386 24.9783C7.13386 19.0521 7.88542 12.5146 16.2027 3.88855C16.2277 3.87157 16.2528 3.85459 16.2778 3.82063L16.3029 3.80365C17.4052 2.7169 18.5826 2.07164 19.5346 2.05466C19.5596 2.05466 19.5596 2.05466 19.5847 2.05466C19.5847 2.05466 19.5847 2.05466 19.6097 2.05466C20.8122 2.07164 21.5888 3.12443 21.188 5.62056C20.6369 10.1543 19.6097 5.97715 19.1588 17.7276C19.1337 19.986 18.8832 24.4689 22.7412 23.6368C22.8414 23.6199 22.9166 23.5859 23.0168 23.5689C25.3466 23.0086 25.8226 20.2407 26.3988 18.9672C30.6075 8.25253 30.6827 8.20159 30.9583 6.92806C31.5595 4.55079 31.5345 1.95278 33.238 1.95278Z" fill="url(#paint4_linear_341_27710)"/>
<defs>
<linearGradient id="paint0_linear_341_27710" x1="27.3086" y1="12.2564" x2="20.3006" y2="12.2564" gradientUnits="userSpaceOnUse">
<stop stop-color="#EAB93A"/>
<stop offset="1" stop-color="#FEFBF3"/>
</linearGradient>
<linearGradient id="paint1_linear_341_27710" x1="34.9009" y1="21.1815" x2="6.65211" y2="21.1815" gradientUnits="userSpaceOnUse">
<stop stop-color="#EAB93A"/>
<stop offset="0.0392157" stop-color="#EAB93A"/>
<stop offset="1" stop-color="#FEFBF3"/>
</linearGradient>
<linearGradient id="paint2_linear_341_27710" x1="38.3397" y1="44.624" x2="0.356982" y2="44.624" gradientUnits="userSpaceOnUse">
<stop stop-color="#A4A4A3"/>
<stop offset="0.819608" stop-color="white"/>
<stop offset="1" stop-color="white"/>
</linearGradient>
<linearGradient id="paint3_linear_341_27710" x1="13.6625" y1="43.9492" x2="38.3787" y2="43.9492" gradientUnits="userSpaceOnUse">
<stop stop-color="#C1C0BF"/>
<stop offset="0.321569" stop-color="#C1C0BF"/>
<stop offset="1" stop-color="#A4A4A3"/>
</linearGradient>
<linearGradient id="paint4_linear_341_27710" x1="38.6196" y1="27.9643" x2="0.299187" y2="27.9643" gradientUnits="userSpaceOnUse">
<stop stop-color="#A4A4A3"/>
<stop offset="1" stop-color="#E9E9E9"/>
</linearGradient>
</defs>
</svg>
