<svg width="36" height="83" viewBox="0 0 36 83" fill="none" xmlns="http://www.w3.org/2000/svg">
<g id="Layer_x0020_1">
<g id="_450352312">
<path id="Vector" fill-rule="evenodd" clip-rule="evenodd" d="M15.1866 0.138672H15.161C14.9559 0.138672 14.7509 0.156043 14.5715 0.208157C11.778 0.972497 13.3926 7.3999 13.2644 11.5169V11.5343C12.9825 19.004 10.0865 25.7267 8.70255 31.9977C7.42112 37.8345 6.601 47.1108 5.26831 52.0269C11.4192 47.8578 23.0033 48.0489 29.6411 52.1311C29.308 50.533 29.0773 48.57 28.9748 45.7211C28.6929 38.6336 24.9255 15.5123 23.1827 10.4225C21.3118 4.98528 19.1847 0.329757 15.3147 0.138672C15.2891 0.138672 15.2379 0.138672 15.1866 0.138672Z" fill="url(#paint0_linear_341_27770)"/>
<path id="Vector_2" fill-rule="evenodd" clip-rule="evenodd" d="M17.0574 48.9873H16.9805C16.3398 48.9873 15.6991 49.0047 15.0584 49.0568C11.3422 49.3 7.8311 50.2902 5.26824 52.0273C5.19135 52.3747 5.08884 52.7048 4.98632 53.0175C3.88429 56.3528 0.398798 61.651 0.373169 66.7582C0.373169 69.7287 1.57771 72.6471 5.11447 75.0617C10.4965 78.7097 15.4684 82.7572 17.9288 82.7225C23.0289 82.6182 30.8969 77.3895 33.921 72.0738C34.6899 70.7362 34.9975 69.3118 34.9975 67.87C34.9975 63.5271 32.3321 59.0801 31.3069 56.8392C30.5637 55.2584 30.0255 53.9208 29.6411 52.1315C28.129 51.1935 26.3862 50.4812 24.4897 49.9601C22.1319 49.3174 19.569 48.9873 17.0574 48.9873Z" fill="url(#paint1_linear_341_27770)"/>
<path id="Vector_3" d="M19.9019 49.1258C24.6432 49.4559 26.4372 52.1311 28.3337 55.6575C30.4096 59.5834 36.3811 72.2645 25.002 79.6647C20.8245 82.3746 16.7752 82.9478 17.9797 82.2183C19.6456 81.2281 27.1804 79.1609 27.0779 67.1399C27.0266 59.3923 16.0576 48.8653 19.9019 49.1258Z" fill="#AFAFAD"/>
<path id="Vector_4" d="M19.4664 7.40033C16.3141 4.34298 22.4137 14.4878 21.5167 27.7596C20.6453 41.0313 18.0056 48.9179 19.6202 48.8657C22.2343 48.7615 23.5157 49.4737 25.7198 50.2033C27.4625 50.7766 24.259 12.0385 19.4664 7.40033Z" fill="#E4BB47"/>
<path id="Vector_5" fill-rule="evenodd" clip-rule="evenodd" d="M15.2634 0L15.2377 0C14.392 0 13.8025 0.330056 13.4181 0.868567C12.4955 2.15405 12.7005 4.72501 12.8799 7.12225C12.9824 8.39036 13.008 9.57161 13.008 10.7008C13.008 18.9348 10.5477 23.3645 8.59992 31.39C6.83154 39.1376 6.29334 47.9623 4.47371 53.3822C2.88473 57.6555 0.0912113 62.3631 0.0912113 66.7928C0.0655827 69.7633 1.29576 72.5949 4.96065 75.079C10.9065 79.196 13.2131 80.881 15.2634 81.9059C15.2634 81.9059 15.289 81.9233 15.3146 81.9233C15.3403 81.9407 15.3659 81.958 15.3915 81.958C15.5453 82.0449 15.6734 82.1144 15.8272 82.1665C15.8272 82.1839 15.8272 82.1839 15.8528 82.1839C15.8785 82.2012 15.9041 82.2186 15.9553 82.236C16.6473 82.5313 17.1343 82.6529 17.4674 82.705C17.4931 82.7224 17.5187 82.7224 17.5443 82.7224C17.5699 82.7224 17.5956 82.7224 17.5956 82.7224C17.6212 82.7397 17.6468 82.7397 17.6725 82.7397C17.6981 82.7397 17.7237 82.7397 17.7493 82.7397C17.8006 82.7397 17.8519 82.7571 17.8775 82.7571C17.9287 82.7571 17.9544 82.7397 17.9544 82.7397C24.8228 82.2533 32.1014 76.0865 34.4592 71.3789C34.9718 70.2324 35.2024 68.999 35.2024 67.7135C35.2281 65.2642 34.3823 62.6237 33.1778 60.0006C31.1275 55.4841 29.8204 53.9207 29.4104 46.7984C29.2566 42.8377 25.9505 2.55359 16.3141 0.138971C16.1604 0.104228 15.981 0.0694854 15.8272 0.052114C15.6222 0.0173713 15.4428 0 15.2634 0ZM15.2121 0.295313C15.494 0.295313 15.8016 0.347427 16.1604 0.434284C26.3093 3.28319 28.3083 49.6473 29.6923 53.8512C31.2556 58.5936 34.7668 62.9017 34.7668 67.6614C34.7668 71.0314 32.9728 74.6273 27.3857 78.7617C24.8741 80.6031 21.6193 82.3923 17.9287 82.6876C17.9287 82.6876 17.9287 82.6876 17.8775 82.6876C17.7237 82.6876 17.2111 82.6529 16.3398 82.3055C16.0322 82.1839 15.6991 82.0275 15.3403 81.8364C13.29 80.7941 11.009 79.0918 5.16568 74.94C3.65359 73.8977 2.19276 72.5949 1.39827 70.9967C0.834442 69.9023 0.603784 68.6689 0.603784 67.3661C0.603784 62.2415 4.16616 56.0573 5.19131 53.4864C6.90843 48.7093 7.39537 39.294 9.06123 31.4421C10.2658 26.2655 12.2136 20.9672 13.008 15.4431C13.0337 15.3389 13.0337 15.2173 13.0593 15.0957C13.0593 15.0957 13.0593 15.0957 13.0593 15.0783C13.0849 15.0088 13.0849 14.9394 13.0849 14.8525C13.1106 14.783 13.1106 14.6962 13.1362 14.6267C13.1362 14.6093 13.1362 14.6093 13.1362 14.6093C14.0076 7.41757 11.5985 0.312684 15.2121 0.295313Z" fill="url(#paint2_linear_341_27770)"/>
</g>
</g>
<defs>
<linearGradient id="paint0_linear_341_27770" x1="5.27651" y1="26.1297" x2="29.6399" y2="26.1297" gradientUnits="userSpaceOnUse">
<stop stop-color="#FEFBF3"/>
<stop offset="1" stop-color="#EAB93A"/>
</linearGradient>
<linearGradient id="paint1_linear_341_27770" x1="0.382139" y1="65.8511" x2="34.9916" y2="65.8511" gradientUnits="userSpaceOnUse">
<stop stop-color="white"/>
<stop offset="0.180392" stop-color="white"/>
<stop offset="1" stop-color="#A4A4A3"/>
</linearGradient>
<linearGradient id="paint2_linear_341_27770" x1="0.0799347" y1="41.3786" x2="35.2137" y2="41.3786" gradientUnits="userSpaceOnUse">
<stop stop-color="#E9E9E9"/>
<stop offset="1" stop-color="#A4A4A3"/>
</linearGradient>
</defs>
</svg>
