<svg width="41" height="76" viewBox="0 0 41 76" fill="none" xmlns="http://www.w3.org/2000/svg">
<g id="Layer_x0020_1">
<g id="_-1955916824">
<path id="Vector" fill-rule="evenodd" clip-rule="evenodd" d="M17.9573 0.034668H17.8804C13.4723 0.121525 11.8064 11.7082 11.6783 17.3192C11.5502 22.5653 9.73053 29.7049 9.73053 35.507C9.73053 35.8891 9.73053 36.2713 9.75616 36.6535C9.75616 36.914 9.75616 37.192 9.75616 37.4699C9.78178 41.0658 8.75664 44.818 7.42395 48.4834C15.5226 41.5696 29.3621 43.2546 36.2049 49.6472C35.3335 47.0068 34.4878 44.1579 34.4109 41.6912C34.0008 28.7495 32.4888 26.7692 27.5168 16.659C27.4912 16.5896 27.4655 16.5201 27.4143 16.4506C27.3887 16.3985 27.363 16.3464 27.363 16.2942C27.363 16.2942 27.3374 16.2942 27.3374 16.2769C27.3374 16.2421 27.3118 16.2074 27.2861 16.1726C27.2861 16.1553 27.2861 16.1379 27.2605 16.1032C27.2349 16.0511 27.2093 15.9816 27.1836 15.9295C27.1836 15.8947 27.158 15.86 27.158 15.8252C27.1324 15.8079 27.1324 15.7905 27.1067 15.7557C24.8514 10.388 22.9805 0.034668 17.9573 0.034668Z" fill="url(#paint0_linear_341_27785)"/>
<path id="Vector_2" fill-rule="evenodd" clip-rule="evenodd" d="M19.1621 44.0538C14.9077 44.3144 10.7559 45.6693 7.50107 48.414C7.47544 48.4314 7.44981 48.4661 7.42418 48.4835C4.7588 55.7968 0.735107 62.728 0.735107 67.1577C0.735107 67.4183 0.760736 67.6962 0.786365 67.9394C1.73462 75.5828 16.2917 75.0095 31.105 74.8532C38.3836 74.7837 40.5364 72.9771 40.5364 69.0338C40.5108 65.8722 39.1268 61.3035 37.871 55.1541C37.5635 53.6601 36.8715 51.7146 36.2051 49.6474C35.0519 48.5703 33.7192 47.6323 32.2327 46.8506C28.8241 45.044 24.6979 44.019 20.5973 44.019C20.1104 44.019 19.6234 44.0364 19.1621 44.0538Z" fill="url(#paint1_linear_341_27785)"/>
<path id="Vector_3" d="M21.8271 4.84659C19.3667 1.51129 29.285 27.9852 24.9794 33.5788C19.8793 40.2147 28.0292 44.6096 29.49 45.0265C31.566 45.6345 31.7454 46.8505 32.7449 46.2946C34.2826 45.4261 26.3377 11.0134 21.8271 4.84659Z" fill="#E4BB47"/>
<path id="Vector_4" d="M27.1833 45.5825C26.5939 44.4012 31.207 46.9374 31.9759 48.2055C32.7448 49.491 33.5649 54.4766 35.3076 58.6631C37.0504 62.8496 40.4077 68.7385 38.5368 71.6048C37.0504 73.863 34.5388 73.7935 32.7448 73.2377C30.9764 72.6644 35.3076 72.2128 32.6422 65.2121C29.4899 57.0302 31.1558 53.3996 27.1833 45.5825Z" fill="#AFAFAD"/>
<path id="Vector_5" d="M29.4901 74.8707C28.2087 75.0792 26.7222 75.0618 25.2101 74.9229C23.6724 74.8013 25.287 70.3021 27.568 70.3889C29.8489 70.4758 30.7459 74.6797 29.4901 74.8707Z" fill="#AFAFAD"/>
<path id="Vector_6" d="M20.9303 74.9224C20.5715 75.0788 18.9313 74.8877 16.4709 74.7661C14.4719 74.6792 17.8293 72.9421 18.1624 66.8969C18.3675 62.9883 20.5972 66.48 20.6484 69.6589C20.7253 72.8379 22.058 74.4187 20.9303 74.9224Z" fill="#D2D3D2"/>
<path id="Vector_7" fill-rule="evenodd" clip-rule="evenodd" d="M14.5489 2.70993C13.37 4.79449 12.1911 8.51196 11.6016 15.0957C11.2172 19.3517 11.8066 17.0239 10.3458 26.2829C9.5257 31.3727 9.37193 34.1347 9.37193 35.9761C9.37193 37.1226 9.44881 37.9043 9.44881 38.6686C9.44881 41.3959 8.67995 43.9321 1.81148 61.5641C1.14513 63.3012 0.606934 65.1947 0.606934 66.9666C0.606934 69.3638 1.58082 71.5352 4.57937 72.8207C9.83324 75.1137 18.4188 75.0269 22.3144 75.079C23.2883 75.079 24.2109 75.079 25.0823 75.079C25.2617 75.079 25.4411 75.079 25.6205 75.079C41.6896 75.079 42.8173 74.8705 38.5886 56.7522C36.282 46.6768 35.1287 48.5008 34.6674 38.2865C33.7448 24.4241 30.003 22.7565 26.7738 14.4008C25.031 9.62373 23.3395 3.19633 20.3922 0.90331C20.3922 0.90331 20.3666 0.885939 20.341 0.868567C20.341 0.851196 20.3154 0.851196 20.3154 0.833825C20.2128 0.764339 20.136 0.712225 20.0334 0.64274C19.9822 0.607997 19.9053 0.573255 19.854 0.538512C19.854 0.52114 19.8284 0.52114 19.8284 0.52114C19.1108 0.104228 18.4188 0.0173713 18.0857 0C18.06 0 18.0088 0 17.9831 0C17.9063 0 17.8806 0 17.8806 0C17.8806 0 17.855 0 17.7781 0C17.4193 0 15.9841 0.173713 14.5489 2.70993ZM17.8037 0.052114C17.855 0.052114 17.8806 0.052114 17.8806 0.052114C17.8806 0.0868567 19.1108 -0.052114 20.3154 0.955424C23.1601 3.23107 24.6978 9.58898 26.415 14.4703C29.311 22.4438 32.8478 24.2678 33.8473 38.3038C34.3598 48.5703 35.5131 46.7637 37.8453 56.8217C39.178 62.5369 40.1263 66.4454 40.1263 69.1206C40.1263 72.508 38.5886 73.8977 34.3855 74.4536H34.3598C34.3086 74.4536 34.283 74.471 34.2317 74.471H34.2061H34.1804C33.9498 74.4883 33.6166 74.5231 33.2066 74.5405C33.104 74.5578 33.0015 74.5578 32.8734 74.5752C32.8478 74.5752 32.8478 74.5752 32.8221 74.5752C30.9256 74.6794 27.6195 74.8184 23.8777 74.8184C17.0861 74.8184 8.8081 74.3841 4.73314 72.647C1.88837 71.4484 0.888849 69.4333 0.888849 67.0882C0.888849 63.0233 3.93866 57.8987 5.45075 54.1118C9.60258 42.6988 10.1408 40.8574 10.1408 38.7729C10.1408 38.0433 10.0639 37.2789 10.0639 36.0629C10.0639 34.2737 10.2177 31.4769 10.9353 26.3176C12.2167 16.9371 11.6785 19.1953 11.986 15.0957C11.986 15.0088 11.986 14.9046 11.986 14.8178C12.0117 14.6962 12.0117 14.5919 12.0117 14.4703C12.0117 14.453 12.0117 14.4356 12.0373 14.4182C12.0629 14.1055 12.0886 13.7929 12.1142 13.4975C12.1142 13.4454 12.1142 13.3933 12.1142 13.3586C12.1142 13.2543 12.1398 13.1675 12.1398 13.0806C12.1398 13.0459 12.1398 13.0111 12.1654 12.9764C12.1654 12.8722 12.1654 12.7853 12.1911 12.6811C12.1911 12.629 12.1911 12.5595 12.2167 12.5074C12.2167 12.4379 12.2167 12.3684 12.2167 12.3163C13.4725 1.19862 16.8299 0.156342 17.6756 0.0694854C17.7012 0.0694854 17.7012 0.052114 17.7269 0.052114C17.7269 0.052114 17.7269 0.052114 17.7525 0.052114H17.7781H17.8037Z" fill="url(#paint2_linear_341_27785)"/>
</g>
</g>
<defs>
<linearGradient id="paint0_linear_341_27785" x1="7.42677" y1="24.837" x2="36.2023" y2="24.837" gradientUnits="userSpaceOnUse">
<stop stop-color="#FEFBF3"/>
<stop offset="1" stop-color="#EAB93A"/>
</linearGradient>
<linearGradient id="paint1_linear_341_27785" x1="0.738183" y1="59.4747" x2="40.5246" y2="59.4747" gradientUnits="userSpaceOnUse">
<stop stop-color="white"/>
<stop offset="0.180392" stop-color="white"/>
<stop offset="1" stop-color="#A4A4A3"/>
</linearGradient>
<linearGradient id="paint2_linear_341_27785" x1="2.60571" y1="37.5395" x2="38.6913" y2="37.5395" gradientUnits="userSpaceOnUse">
<stop stop-color="#E9E9E9"/>
<stop offset="1" stop-color="#A4A4A3"/>
</linearGradient>
</defs>
</svg>
