<svg width="32" height="72" viewBox="0 0 32 72" fill="none" xmlns="http://www.w3.org/2000/svg">
<g id="Layer_x0020_1">
<g id="_-1955905520">
<path id="Vector" fill-rule="evenodd" clip-rule="evenodd" d="M26.0326 0.152832C22.2498 0.152832 11.3522 13.4825 7.4942 39.8532C6.91801 43.7587 6.1915 47.1208 5.43994 50.0754C6.46707 48.5981 7.51925 47.1208 8.57143 45.6605C8.64659 45.5926 8.72175 45.5416 8.7969 45.4907C11.3271 43.7587 13.8574 43.0455 16.2874 43.0285C16.3125 43.0285 16.3125 43.0285 16.3125 43.0285H16.3375C20.3709 43.0455 24.1036 45.0322 27.1099 47.6981C27.1349 47.7321 27.185 47.7491 27.2101 47.783C27.2101 47.8 27.2351 47.817 27.2602 47.834C27.2852 47.851 27.2852 47.8679 27.3103 47.8849L27.2852 47.7491C26.6088 42.8078 26.6339 35.3024 25.8072 27.9838C25.256 23.1444 24.755 19.086 24.755 15.3164C24.755 12.6505 25.0055 10.1204 25.6819 7.57329C26.2331 5.43376 27.5859 3.03951 27.5859 1.56221C27.5608 0.81507 27.2101 0.288676 26.208 0.152832C26.1579 0.152832 26.1078 0.152832 26.0326 0.152832Z" fill="url(#paint0_linear_341_27677)"/>
<path id="Vector_2" fill-rule="evenodd" clip-rule="evenodd" d="M22.7007 71.9291H22.7257H22.7508H22.7758C24.2288 71.9291 25.5566 71.7932 26.6589 71.3517C26.6839 71.3517 26.6839 71.3348 26.709 71.3348C30.2663 69.8405 31.4438 67.0557 31.4438 63.8634C31.4438 58.2428 27.8614 51.3657 27.3102 47.8847C24.2789 45.1169 20.446 43.0283 16.3124 43.0283C16.0368 43.0283 15.7613 43.0453 15.4606 43.0623C13.206 43.2151 10.9012 44.0132 8.57136 45.6603C6.54215 46.7301 6.46699 48.5979 5.43986 50.0752C3.3355 58.2428 0.980618 63.0653 0.955566 66.4444C0.955566 67.4802 1.18103 68.3802 1.68207 69.2122C1.70712 69.2292 1.70712 69.2462 1.73218 69.2631C1.73218 69.2971 1.75723 69.3311 1.78228 69.348C1.78228 69.365 1.78228 69.365 1.78228 69.365C1.80733 69.399 1.83238 69.4329 1.88249 69.4839C3.2854 71.3857 6.39184 71.8442 10.0244 71.8442C10.0494 71.8442 10.0745 71.8442 10.0745 71.8442H10.0995C11.4022 71.8442 12.7801 71.7762 14.183 71.7253C14.2581 71.7083 14.3333 71.7083 14.3834 71.7083C14.4836 71.7083 14.5588 71.7083 14.659 71.6913C14.7842 71.6913 14.9095 71.6913 15.0348 71.6744C15.3604 71.6574 15.7112 71.6574 16.0368 71.6574C16.0619 71.6574 16.0619 71.6574 16.0619 71.6574C16.0869 71.6574 16.137 71.6574 16.1621 71.6574C17.2143 71.6574 18.2665 71.7253 19.3186 71.7932C19.3687 71.7932 19.3938 71.7932 19.4439 71.7932C19.5692 71.8102 19.6694 71.8102 19.7696 71.8102C19.8447 71.8272 19.9449 71.8272 20.0201 71.8272C20.922 71.8781 21.8238 71.9291 22.7007 71.9291Z" fill="url(#paint1_linear_341_27677)"/>
<path id="Vector_3" d="M25.4568 6.14685C25.7323 2.44511 20.8472 19.2048 20.8472 32.7213C20.8472 41.7039 17.0643 40.5662 18.7178 42.4681C19.5194 43.368 23.8534 44.7774 24.8054 44.2001C25.7574 43.6567 25.1561 32.127 24.4046 21.4972C23.7783 12.5315 25.2563 8.65996 25.4568 6.14685Z" fill="#E4BB47"/>
<path id="Vector_4" d="M24.2039 46.0852C26.684 48.5983 29.9157 60.5186 28.4126 66.4278C27.5859 69.7559 24.5045 66.8353 24.4544 60.977C24.3793 53.9471 22.4503 46.0852 19.6194 43.8438C19.6194 43.8438 22.2999 44.1664 24.2039 46.0852Z" fill="#AFAFAD"/>
<path id="Vector_5" d="M16.4383 71.6745C10.4008 72.099 14.359 70.7405 14.384 66.5294C14.384 64.3049 17.4905 71.6065 16.4383 71.6745Z" fill="#D2D3D2"/>
<path id="Vector_6" d="M20.6466 71.8105C19.6194 71.7765 18.8929 71.9293 18.7927 71.7595C18.1414 70.7237 21.0724 65.222 22.7008 59.7374C23.3522 57.5639 23.2269 71.8784 20.6466 71.8105Z" fill="#E9EAE9"/>
<path id="Vector_7" fill-rule="evenodd" clip-rule="evenodd" d="M25.9334 0L25.9083 0C25.6077 0 25.3071 0.0509414 25.0566 0.169805C20.8228 1.91879 13.5076 12.4637 9.42416 28.0347C7.11938 36.6778 7.21959 42.0436 4.01294 54.1167C4.01294 54.1507 3.98788 54.1847 3.98788 54.2186C3.98788 54.2356 3.96283 54.2696 3.96283 54.3035C3.96283 54.3375 3.93778 54.3714 3.93778 54.4224C3.93778 54.4394 3.91273 54.4563 3.91273 54.4733C3.91273 54.5073 3.88768 54.5582 3.88768 54.6092C1.03176 65.1031 -3.50265 71.8613 10.3761 71.8783C10.4012 71.8783 10.4012 71.8783 10.4012 71.8783C11.0275 71.8783 11.7039 71.8613 12.4053 71.8274C12.6559 71.8104 12.9064 71.8104 13.1569 71.7934C14.2592 71.7594 15.2112 71.7425 16.0629 71.7425C16.088 71.7425 16.113 71.7425 16.113 71.7425C16.1381 71.7425 16.1381 71.7425 16.1381 71.7425C17.4408 71.7425 18.518 71.7764 19.4199 71.8274C19.6203 71.8274 19.8207 71.8443 20.0211 71.8443C20.1213 71.8613 20.2215 71.8613 20.3468 71.8613C20.3969 71.8783 20.447 71.8783 20.4971 71.8783C20.6474 71.8783 20.7727 71.8953 20.923 71.8953C21.5493 71.9292 22.1255 71.9632 22.6766 71.9632H22.7017H22.7267C23.4282 71.9632 24.0795 71.9123 24.8311 71.7934C24.9063 71.7934 24.9814 71.7764 25.0566 71.7594C30.0169 70.9104 31.6452 67.2426 31.6452 63.1164C31.6452 60.3825 30.9187 57.4449 29.9918 55.0167C28.0127 49.8546 27.7371 50.2112 27.1609 42.8078C26.0837 27.3555 24.8812 20.003 24.8812 14.6202C24.8812 11.6656 25.257 9.30529 26.1839 6.5205C26.8353 4.60171 27.7622 2.8697 27.7622 1.59616C27.7622 1.3075 27.7121 1.05279 27.6119 0.815062C27.6119 0.798082 27.6119 0.798082 27.6119 0.798082C27.5618 0.679219 27.4866 0.577336 27.3864 0.492433C27.0607 0.169805 26.4845 0 25.9334 0ZM26.1589 0.305648C26.6348 0.305648 26.9856 0.509414 27.186 0.882984C27.211 0.882984 27.211 0.899965 27.211 0.916945C27.3112 1.12071 27.3614 1.35844 27.3614 1.61314C27.3614 2.83574 26.4595 4.61869 25.8332 6.46956C24.9564 9.22039 24.6307 11.6995 24.6307 14.807C24.6307 20.3766 25.6829 27.9668 26.5096 42.8417C27.0357 50.0414 27.0106 49.1924 29.3655 55.1356C30.3676 57.6317 31.2444 60.7391 31.2444 63.5918C31.2444 67.3955 29.7162 70.7406 25.0065 71.6576C24.9313 71.6745 24.8562 71.6915 24.781 71.6915C24.0294 71.8274 23.353 71.8613 22.6265 71.8613C22.6015 71.8613 22.6015 71.8613 22.6015 71.8613H22.5764C22.2758 71.8613 21.9501 71.8613 21.6245 71.8443C21.2988 71.8274 20.9731 71.8274 20.5973 71.8104C20.5472 71.7934 20.4721 71.7934 20.422 71.7934C20.2717 71.7934 20.1213 71.7764 19.946 71.7764C19.946 71.7764 19.9209 71.7764 19.8959 71.7764C18.8687 71.7255 17.6663 71.6745 16.113 71.6745C16.088 71.6745 16.088 71.6745 16.0629 71.6745C15.1861 71.6745 14.2341 71.6915 13.1318 71.7255C13.0567 71.7255 13.0066 71.7425 12.9314 71.7425C12.7561 71.7425 12.5807 71.7425 12.4053 71.7594C11.7039 71.7764 11.0525 71.7934 10.4513 71.7934C10.1507 71.7934 9.87509 71.7934 9.59952 71.7764C3.46179 71.6576 1.30733 70.1972 1.20712 67.0898C1.05681 63.0994 4.28851 56.3751 6.64339 46.2887C6.7937 45.6605 6.91896 45.0152 7.06927 44.353C7.24464 43.5549 7.39495 42.7398 7.54526 41.9078C7.57031 41.8059 7.59537 41.704 7.59537 41.6191C7.62042 41.5512 7.62042 41.5003 7.62042 41.4323C7.64547 41.3984 7.64547 41.3644 7.64547 41.3304C7.67052 41.1946 7.69557 41.0588 7.72063 40.9229C7.72063 40.872 7.72063 40.838 7.74568 40.8041C7.74568 40.6852 7.77073 40.5493 7.79578 40.4305C7.79578 40.3795 7.82083 40.3116 7.82083 40.2607C7.84589 40.1079 7.87094 39.972 7.89599 39.8192C7.97115 39.4626 8.02125 39.106 8.09641 38.7664C8.09641 38.6815 8.12146 38.6136 8.12146 38.5457C8.14651 38.4438 8.14651 38.3589 8.17156 38.274C8.24672 37.8664 8.32187 37.4929 8.39703 37.1023V37.0853C8.39703 37.0174 8.42208 36.9495 8.44713 36.8816C8.52229 36.4061 8.6225 35.9476 8.69765 35.4892C8.7227 35.4722 8.7227 35.4722 8.7227 35.4722C8.7227 35.4552 8.7227 35.4382 8.7227 35.4212C8.7227 35.3703 8.74776 35.3363 8.74776 35.3024C8.84796 34.776 8.97322 34.2496 9.07343 33.7402V33.7232C12.2049 19.1709 16.589 10.0355 20.2967 5.06018V5.0432C20.3218 5.00924 20.3468 4.97528 20.3719 4.94131C20.3969 4.94131 20.3969 4.92433 20.3969 4.90735L20.422 4.89037C20.447 4.83943 20.4971 4.78849 20.5222 4.75453C20.5222 4.73755 20.5472 4.73755 20.5472 4.73755V4.72057C22.7768 1.83389 24.7058 0.441492 25.9584 0.322629H25.9835C26.0336 0.305648 26.1088 0.305648 26.1589 0.305648Z" fill="url(#paint2_linear_341_27677)"/>
</g>
</g>
<defs>
<linearGradient id="paint0_linear_341_27677" x1="27.5741" y1="25.1066" x2="5.42917" y2="25.1066" gradientUnits="userSpaceOnUse">
<stop stop-color="#EAB93A"/>
<stop offset="1" stop-color="#FEFBF3"/>
</linearGradient>
<linearGradient id="paint1_linear_341_27677" x1="31.4358" y1="57.4865" x2="0.96208" y2="57.4865" gradientUnits="userSpaceOnUse">
<stop stop-color="#A4A4A3"/>
<stop offset="0.819608" stop-color="white"/>
<stop offset="1" stop-color="white"/>
</linearGradient>
<linearGradient id="paint2_linear_341_27677" x1="28.2547" y1="35.9816" x2="4.22187" y2="35.9816" gradientUnits="userSpaceOnUse">
<stop stop-color="#A4A4A3"/>
<stop offset="1" stop-color="#E9E9E9"/>
</linearGradient>
</defs>
</svg>
