<svg width="35" height="70" viewBox="0 0 35 70" fill="none" xmlns="http://www.w3.org/2000/svg">
<g id="Layer_x0020_1">
<g id="_-1958919896">
<path id="Vector" fill-rule="evenodd" clip-rule="evenodd" d="M9.55787 4.0648C9.55787 5.85405 9.78853 7.93862 9.78853 9.53678C9.78853 9.67575 9.78853 9.81472 9.78853 9.93632C9.68601 13.0805 9.2247 14.5918 9.2247 17.2149C9.2247 17.4755 9.25033 17.7361 9.25033 18.0314C9.30158 19.8032 9.53224 22.7564 9.53224 25.918C9.53224 28.3673 9.4041 30.973 8.91715 33.2487C7.84075 38.4775 8.81464 43.3241 6.43118 47.0763C6.30303 47.2847 6.14926 47.4758 6.02112 47.6843C12.864 46.1556 21.1676 45.2002 27.2673 46.9547C27.1391 46.503 27.0366 46.0514 27.0366 45.5997C26.9341 34.4994 23.2948 13.8101 20.9114 8.28604C18.8098 3.40469 14.6836 0.15625 11.5313 0.15625C9.91667 0.15625 9.55787 1.91076 9.55787 4.0648Z" fill="url(#paint0_linear_341_27762)"/>
<path id="Vector_2" fill-rule="evenodd" clip-rule="evenodd" d="M6.12394 47.6495C6.09831 47.6669 6.04705 47.6669 6.02142 47.6843C3.68922 51.0717 0.665039 53.3126 0.665039 58.1765C0.665039 62.8321 10.7627 68.912 17.5031 69.0684C21.3986 69.1379 34.4179 63.11 34.4179 58.1071C34.4179 54.598 28.4977 50.9674 27.2676 46.9547C24.9354 46.2945 22.2956 46.0166 19.5533 46.0166C15.094 46.0166 10.327 46.7288 6.12394 47.6495Z" fill="url(#paint1_linear_341_27762)"/>
<path id="Vector_3" fill-rule="evenodd" clip-rule="evenodd" d="M22.3721 46.3291H22.3208H22.2696C21.5007 46.3291 20.7062 46.3812 20.1424 46.5376C19.5529 46.6939 19.2966 46.9892 19.2966 47.3888C19.2966 49.0564 23.551 52.5133 23.551 55.8486C23.5254 56.4392 23.3972 57.0125 23.0897 57.5857C21.5263 60.3999 20.9112 62.5713 20.9112 64.1174C20.8856 66.9142 22.859 67.748 24.7299 66.862C29.4456 64.6732 34.4175 61.199 34.4175 58.1069C34.4175 54.8584 27.2415 51.0541 25.1912 47.3193C24.8837 46.7634 24.1404 46.3812 23.2691 46.3465C22.9872 46.3465 22.6796 46.3291 22.3721 46.3291Z" fill="url(#paint2_linear_341_27762)"/>
<path id="Vector_4" d="M22.5262 13.5324C25.4991 22.5308 22.0648 31.3554 23.6538 36.8969C25.781 44.1929 24.8071 46.399 24.8071 46.399C24.8071 46.399 23.4232 45.8605 19.6301 46.1732C15.8115 46.4685 21.1935 40.9444 21.091 27.03C21.0653 21.5754 18.9382 11.8648 17.5542 9.53702C15.3245 5.81955 21.0141 8.98114 22.5262 13.5324Z" fill="#E4BB47"/>
<path id="Vector_5" fill-rule="evenodd" clip-rule="evenodd" d="M10.9162 0.121599C10.788 0.156342 10.6599 0.208456 10.5574 0.277942C9.60912 0.868567 9.37846 2.1193 9.37846 3.80433C9.37846 5.4546 9.58349 7.52179 9.58349 9.86693C9.58349 10.8223 9.55786 11.8299 9.45535 12.8548C9.25032 14.9567 9.17343 16.8849 9.17343 18.6916C9.19906 21.2278 9.30158 23.5382 9.30158 25.8312C9.30158 28.35 9.17343 30.8341 8.58397 33.5441C7.66134 38.0433 8.27643 42.2645 6.66183 45.8951C5.27788 48.9351 0.382812 52.9652 0.382812 57.4818C0.382812 60.3307 2.38185 63.388 8.53272 66.4975C8.55835 66.5149 8.6096 66.5149 8.63523 66.5323C8.66086 66.5496 8.68649 66.567 8.71212 66.5844C8.73775 66.6017 8.76337 66.6017 8.789 66.6191C11.1981 67.8351 14.4017 68.999 17.3746 69.0164C17.3746 69.0164 17.4002 69.0164 17.4259 69.0164C17.4515 69.0164 17.4515 69.0164 17.4515 69.0164C18.2972 69.0164 19.1173 68.9121 19.9118 68.7037C19.9375 68.7037 19.9631 68.6863 19.9887 68.6863C24.8325 67.3835 34.4689 62.7453 34.4689 57.7424C34.4689 57.0996 34.3151 56.4569 33.9563 55.8141C32.0854 52.531 27.8054 49.4562 27.4723 46.0167C27.1904 39.1203 25.1657 9.95378 17.349 2.76204L17.3233 2.74467C17.2721 2.70993 17.2465 2.67519 17.1952 2.64044C17.1696 2.6057 17.1439 2.57096 17.0927 2.55359C17.0927 2.53622 17.0927 2.53622 17.0671 2.53622C15.6575 1.33759 13.4278 0 11.7107 0C11.4288 0 11.1468 0.052114 10.9162 0.121599ZM11.7107 0.330056C12.0951 0.330056 12.5564 0.416912 13.1202 0.590626C22.1928 3.59587 24.935 21.6621 26.6778 46.0514C27.2929 50.8286 34.0588 53.9901 34.0588 58.1419C34.0588 60.3654 32.0854 62.8843 26.1652 66.098C19.7324 69.468 15.6831 70.1281 8.63523 66.4107C2.7919 63.4575 0.869756 60.5218 0.869756 57.7424C0.844128 53.2258 5.89297 49.1435 7.3538 46.0341C8.9684 42.5424 8.30206 38.078 9.1478 33.5788C9.63475 31.2337 9.76289 28.9928 9.76289 26.8214C9.76289 23.6077 9.45535 20.5329 9.45535 17.3366C9.45535 15.8774 9.50661 14.4008 9.71163 12.8722C9.71163 12.8027 9.71163 12.7506 9.73726 12.6811C9.73726 12.5595 9.76289 12.4379 9.76289 12.3337C10.4036 5.5762 8.53272 0.347427 11.685 0.330056C11.685 0.330056 11.685 0.330056 11.7107 0.330056Z" fill="url(#paint3_linear_341_27762)"/>
</g>
</g>
<defs>
<linearGradient id="paint0_linear_341_27762" x1="6.02419" y1="23.9183" x2="27.2721" y2="23.9183" gradientUnits="userSpaceOnUse">
<stop stop-color="#FEFBF3"/>
<stop offset="1" stop-color="#EAB93A"/>
</linearGradient>
<linearGradient id="paint1_linear_341_27762" x1="0.677597" y1="57.5371" x2="34.4167" y2="57.5371" gradientUnits="userSpaceOnUse">
<stop stop-color="white"/>
<stop offset="0.180392" stop-color="white"/>
<stop offset="1" stop-color="#A4A4A3"/>
</linearGradient>
<linearGradient id="paint2_linear_341_27762" x1="19.3018" y1="56.7691" x2="34.4162" y2="56.7691" gradientUnits="userSpaceOnUse">
<stop stop-color="#C1C0BF"/>
<stop offset="0.321569" stop-color="#C1C0BF"/>
<stop offset="1" stop-color="#A4A4A3"/>
</linearGradient>
<linearGradient id="paint3_linear_341_27762" x1="0.384094" y1="34.5115" x2="34.4674" y2="34.5115" gradientUnits="userSpaceOnUse">
<stop stop-color="#E9E9E9"/>
<stop offset="1" stop-color="#A4A4A3"/>
</linearGradient>
</defs>
</svg>
