<svg width="40" height="74" viewBox="0 0 40 74" fill="none" xmlns="http://www.w3.org/2000/svg">
<g id="Layer_x0020_1">
<g id="_-1677845032">
<path id="Vector" fill-rule="evenodd" clip-rule="evenodd" d="M22.6984 0.0341797H22.6483C17.5627 0.0341797 15.784 10.9696 13.4291 16.0128C13.4041 16.0807 13.354 16.1486 13.3289 16.2166C13.3289 16.2335 13.3039 16.2675 13.3039 16.2845C8.44381 26.1671 6.96575 28.1029 6.56492 40.7533C6.48976 43.1646 5.66305 45.9494 4.81128 48.5304C4.83633 48.4964 4.86138 48.4794 4.88644 48.4455H4.91149C4.96159 48.3776 5.03675 48.3266 5.1119 48.2587C5.1119 48.2587 5.1119 48.2417 5.13695 48.2417C8.81959 44.9815 14.4312 43.0457 20.0178 43.0287C20.0429 43.0287 20.0679 43.0287 20.0679 43.0287C20.093 43.0287 20.093 43.0287 20.093 43.0287C24.6775 43.0287 29.2369 44.3192 32.7442 47.2229C32.7442 47.2229 32.7693 47.2399 32.7943 47.2569C32.7943 47.2738 32.8194 47.2908 32.8444 47.3078C32.8695 47.3418 32.9196 47.3587 32.9446 47.3927C31.6419 43.8098 30.6398 40.142 30.6649 36.6271C30.6649 36.3554 30.6649 36.0837 30.6649 35.829C30.6899 35.4554 30.6899 35.0819 30.6899 34.7083C30.6899 29.0368 28.9113 22.0578 28.786 16.9297C28.6607 11.4451 27.0324 0.119082 22.7234 0.0341797H22.6984Z" fill="url(#paint0_linear_341_27669)"/>
<path id="Vector_2" fill-rule="evenodd" clip-rule="evenodd" d="M17.7633 73.2366H17.9386H17.9637C29.212 73.2366 38.6817 72.4555 39.4332 66.4104C39.4583 66.1727 39.4833 65.935 39.4833 65.6803V65.6463C39.4833 61.3163 35.5502 54.5411 32.9448 47.3923C30.4646 45.2697 27.4083 43.9792 24.2016 43.3849C24.2016 43.3849 24.2016 43.3849 24.1766 43.3849H24.1515C22.8238 43.1472 21.4459 43.0283 20.0931 43.0283C20.0681 43.0283 20.0681 43.0283 20.0681 43.0283C15.1829 43.0283 10.2727 44.5056 6.64021 47.0527C5.98886 47.5112 5.38761 48.0036 4.81142 48.53C4.16007 50.5507 3.48366 52.4525 3.18304 53.9128C1.95549 59.9239 0.602689 64.3897 0.577637 67.4802C0.577637 71.3348 2.682 73.1007 9.79675 73.1686C9.92201 73.1686 10.0473 73.1686 10.1976 73.1686C10.3228 73.1856 10.4732 73.1856 10.6235 73.1856C11.1496 73.1856 11.6757 73.1856 12.2017 73.2026C14.0806 73.2196 15.9345 73.2366 17.7633 73.2366Z" fill="url(#paint1_linear_341_27669)"/>
<path id="Vector_3" d="M24.7282 3.93941C22.3232 0.679159 29.1623 27.3385 24.9536 32.8232C19.9683 39.3097 20.4693 42.6888 22.0225 42.8756C33.1206 44.251 29.1373 9.96747 24.7282 3.93941Z" fill="#E4BB47"/>
<path id="Vector_4" d="M34.5485 55.8488C31.9681 48.9886 25.5548 43.4021 26.131 44.5567C30.0141 52.198 28.4108 55.7469 31.4671 63.7447C32.7698 67.1747 32.369 68.9916 31.8429 70.0274C31.3669 68.9916 30.3648 67.1577 29.4128 67.5483C27.7845 68.1936 29.1874 69.7558 27.6091 72.5745C27.083 73.5424 35.4002 72.116 37.6048 69.1445C39.634 66.4106 36.1017 59.975 34.5485 55.8488Z" fill="#AFAFAD"/>
<path id="Vector_5" d="M11.225 73.1859C11.5506 73.3387 12.2771 73.3557 14.6821 73.2369C16.6362 73.152 13.4295 71.7426 13.1289 65.8334C12.9285 62.0128 11.5506 64.9334 11.5005 68.0408C11.4254 71.1483 10.1227 72.6935 11.225 73.1859Z" fill="white"/>
<path id="Vector_6" fill-rule="evenodd" clip-rule="evenodd" d="M22.7236 0C22.7236 0 22.6985 0 22.6234 0C22.5983 0 22.5733 0 22.5482 0C22.5232 0 22.4981 0 22.448 0L22.423 0C22.0221 0.0339609 21.2455 0.169805 20.4439 0.74714C20.3937 0.781101 20.3687 0.815062 20.3186 0.849023C20.3186 0.849023 20.2935 0.849023 20.2935 0.866004L20.2685 0.882984C17.3875 3.12441 15.7341 9.40718 14.0306 14.0768C10.874 22.2444 7.21642 23.8745 6.31455 37.4249C5.86362 47.4095 4.73628 45.6265 2.45656 55.4752C-1.65196 73.2198 -0.549677 73.3896 15.208 73.3896H15.233C15.3834 73.3896 15.5337 73.3896 15.684 73.3896C16.5357 73.3896 17.4376 73.3896 18.3896 73.3896C22.1975 73.3386 30.5899 73.4235 35.7255 71.1821C38.6566 69.9256 39.6086 67.803 39.6086 65.4597C39.6086 63.7277 39.0825 61.8768 38.4311 60.1788C31.7172 42.9436 30.9657 40.4644 30.9907 37.7985C30.9907 37.0514 31.0408 36.2873 31.0408 35.1665C31.0408 33.3666 30.8905 30.6667 30.0889 25.6914C28.6609 16.6409 29.2371 18.9162 28.8613 14.756C28.0596 5.62053 26.0555 2.12256 24.5524 0.798082C23.7257 0.0679219 23.0493 0 22.8238 0C22.7486 0 22.7236 0 22.7236 0ZM22.8238 0.0509414H22.8488C22.8739 0.0509414 22.8739 0.0509414 22.8739 0.0509414H22.8989L22.924 0.0679219C23.6756 0.135844 26.3812 0.967886 27.8091 8.93172C27.8592 9.15247 27.8843 9.37322 27.9344 9.61094C27.9344 9.62792 27.9344 9.66188 27.9344 9.69584C28.0596 10.5109 28.1849 11.3939 28.2851 12.3448C28.2851 12.4297 28.3102 12.5146 28.3102 12.5995C28.3102 12.6335 28.3102 12.6844 28.3352 12.7184C28.3352 12.8033 28.3352 12.8882 28.3603 12.9731C28.3603 13.1768 28.3853 13.3806 28.4104 13.5844C28.4104 13.6863 28.4354 13.8051 28.4354 13.907C28.4605 14.1957 28.4855 14.4674 28.4855 14.756C28.7861 18.7634 28.2601 16.556 29.5127 25.7254C30.2141 30.7686 30.3644 33.5025 30.3644 35.2514C30.3644 36.4401 30.2893 37.1872 30.2893 37.8834C30.2893 39.938 30.8154 41.704 34.8738 52.8941C36.3518 56.6129 39.3581 61.6391 39.333 65.6125C39.333 67.9049 38.356 69.8406 35.5752 71.0123C35.5251 71.0293 35.5001 71.0463 35.475 71.0463C35.0241 71.233 34.5481 71.4028 34.022 71.5557C25.9052 73.916 8.14335 72.982 6.59013 72.7783C2.48161 72.2349 0.978491 70.8765 0.978491 67.5653C0.978491 64.9503 1.90541 61.1297 3.20811 55.5431C5.48784 45.7114 6.61518 47.4774 7.11622 37.4419C8.09324 23.7217 11.5504 21.9388 14.3813 14.1447C16.0598 9.37322 17.5629 3.15837 20.3436 0.933926C21.5211 -0.0509414 22.7236 0.0849023 22.7236 0.0509414C22.7236 0.0509414 22.7486 0.0509414 22.7987 0.0509414H22.8238Z" fill="url(#paint2_linear_341_27669)"/>
</g>
</g>
<defs>
<linearGradient id="paint0_linear_341_27669" x1="32.9416" y1="24.2786" x2="4.81378" y2="24.2786" gradientUnits="userSpaceOnUse">
<stop stop-color="#EAB93A"/>
<stop offset="1" stop-color="#FEFBF3"/>
</linearGradient>
<linearGradient id="paint1_linear_341_27669" x1="39.4808" y1="58.136" x2="0.589162" y2="58.136" gradientUnits="userSpaceOnUse">
<stop stop-color="#A4A4A3"/>
<stop offset="0.819608" stop-color="white"/>
<stop offset="1" stop-color="white"/>
</linearGradient>
<linearGradient id="paint2_linear_341_27669" x1="37.655" y1="36.6948" x2="2.3809" y2="36.6948" gradientUnits="userSpaceOnUse">
<stop stop-color="#A4A4A3"/>
<stop offset="1" stop-color="#E9E9E9"/>
</linearGradient>
</defs>
</svg>
