<svg width="33" height="71" viewBox="0 0 33 71" fill="none" xmlns="http://www.w3.org/2000/svg">
<g id="Layer_x0020_1">
<g id="_-1943617176">
<path id="Vector" fill-rule="evenodd" clip-rule="evenodd" d="M6.61144 0.138672C6.56018 0.138672 6.53455 0.138672 6.50892 0.138672C6.48329 0.138672 6.45766 0.156043 6.43204 0.156043C5.40689 0.277643 5.02246 0.798783 5.02246 1.54575C5.02246 2.98757 6.40641 5.33271 6.99587 7.43464C7.66221 9.95348 7.9185 12.4376 7.9185 15.0607C7.9185 18.7608 7.40592 22.7562 6.84209 27.5159C5.99635 34.725 6.02198 42.0905 5.33 46.9545L5.30438 47.0934C10.302 42.7158 17.4011 40.0928 24.4746 44.9046C25.551 46.3465 26.6274 47.7883 27.6782 49.2301C26.9093 46.3465 26.1661 43.0285 25.6023 39.2068C25.5766 39.1374 25.5766 39.0852 25.5766 39.0331C21.5786 13.1846 10.4557 0.138672 6.61144 0.138672Z" fill="url(#paint0_linear_341_27777)"/>
<path id="Vector_2" fill-rule="evenodd" clip-rule="evenodd" d="M16.5554 42.3164H16.5297C15.7865 42.3338 15.0433 42.3859 14.3257 42.5075C10.9683 43.0807 7.86726 44.8526 5.3044 47.0935C4.74057 50.4983 1.02441 57.1168 1.02441 62.6061C1.02441 65.7851 2.30585 68.5819 6.15014 70.1279C8.12355 70.9096 10.7377 70.7533 13.4543 70.597C14.9151 70.5101 16.4272 70.4232 17.8624 70.4927C23.7826 70.7533 29.5747 71.0486 31.5225 68.0607C32.0351 67.2617 32.2657 66.3757 32.2657 65.3508C32.2401 62.0155 29.831 57.2905 27.6782 49.2302C26.6274 47.7884 26.5505 45.947 24.4746 44.9047C24.2952 44.7658 24.0902 44.6442 23.9108 44.5226C21.4248 42.9765 18.9388 42.3164 16.5554 42.3164Z" fill="url(#paint1_linear_341_27777)"/>
<path id="Vector_3" d="M13.0187 8.92906C9.2513 6.21913 18.5289 14.7658 17.6575 28.0375C16.7605 41.3092 18.2726 41.3787 19.5284 42.0388C20.7586 42.699 22.2963 43.6544 23.2958 43.0811C24.8079 42.2299 19.4515 13.5498 13.0187 8.92906Z" fill="#E4BB47"/>
<path id="Vector_4" d="M23.5517 44.7486C26.089 47.2154 28.7544 58.8194 28.4468 64.7257C28.2162 68.7558 23.8849 65.1426 23.808 59.3927C23.7311 52.4789 21.7577 44.7486 18.8873 42.5425C18.8873 42.5425 21.604 42.8552 23.5517 44.7486Z" fill="#AFAFAD"/>
<path id="Vector_5" fill-rule="evenodd" clip-rule="evenodd" d="M18.5033 59.4622C18.3495 60.4871 18.2983 62.5543 18.3495 64.6041C18.4521 67.5398 18.7852 70.4582 19.4772 70.4235C22.117 70.2671 23.0396 70.3714 23.5265 70.4582C24.0135 70.5624 24.1672 70.6493 25.0899 70.5277C25.1668 70.5103 25.218 70.4756 25.218 70.4061C25.1924 69.7286 21.4506 66.2196 18.8877 59.0105C18.8621 58.941 18.8365 58.8889 18.8109 58.8542C18.7852 58.802 18.7596 58.7847 18.734 58.7847C18.6315 58.7847 18.5546 59.0279 18.5033 59.4622Z" fill="url(#paint2_linear_341_27777)"/>
<path id="Vector_6" fill-rule="evenodd" clip-rule="evenodd" d="M6.73956 0L6.71393 0L6.68831 0C6.48328 0 6.25262 0.0173713 6.04759 0.0694854C6.02196 0.0868567 6.02196 0.0868567 5.99633 0.0868567C5.53502 0.208456 5.12496 0.451655 4.99682 0.799082C4.8943 1.02491 4.84304 1.28548 4.84304 1.58079C4.84304 2.81416 5.7913 4.51655 6.45765 6.41003C7.40591 9.17207 7.79034 11.4998 7.79034 14.4182C7.76471 19.7165 6.56016 26.943 5.45813 42.1082C4.86867 49.3694 4.58676 49.0219 2.5621 54.1118C1.61384 56.509 0.870605 59.3753 0.870605 62.0678C0.870605 66.1154 2.53647 69.7286 7.61094 70.5798C7.71345 70.5972 7.79034 70.6145 7.89285 70.6145C7.91848 70.6319 7.94411 70.6319 7.94411 70.6319C7.99537 70.6319 8.04662 70.6493 8.09788 70.6493C8.76422 70.7361 9.35368 70.7709 9.9944 70.7709H10.02H10.0457C10.8145 70.7709 11.609 70.7188 12.5573 70.6666C12.6341 70.6666 12.711 70.6666 12.7623 70.6666C12.9417 70.6493 13.1211 70.6493 13.3005 70.6319C14.2488 70.5972 15.3508 70.5451 16.7347 70.5451C16.7347 70.5451 16.7347 70.5451 16.7604 70.5451C16.7604 70.5451 16.786 70.5451 16.8116 70.5451C17.6574 70.5451 18.6056 70.5624 19.6564 70.5972C19.7845 70.6145 19.9127 70.6145 20.0665 70.6145C20.1177 70.6145 20.169 70.6319 20.2202 70.6319C20.3227 70.6319 20.4509 70.6319 20.5534 70.6319C21.271 70.6666 21.963 70.684 22.6037 70.684H22.6293C36.7763 70.684 32.2144 64.0829 29.2928 53.8164C29.2671 53.6775 29.2415 53.5559 29.1902 53.4169C29.1902 53.4169 29.1902 53.4169 29.1902 53.3995C29.1646 53.3474 29.1646 53.2779 29.139 53.2258C25.8585 41.3438 25.961 36.0629 23.6032 27.5683C19.4257 12.2642 11.9422 1.89348 7.61094 0.156342C7.35465 0.052114 7.04711 0 6.73956 0ZM12.1728 4.58604L12.1985 4.60341C12.1985 4.60341 12.1985 4.60341 12.1985 4.62078C16.6578 10.197 22.1936 21.5405 25.4228 40.6663C25.4228 40.6837 25.4228 40.7011 25.4228 40.7184C25.4485 40.7879 25.4485 40.8574 25.4741 40.9269C25.4741 41.0138 25.4997 41.118 25.5254 41.2048C29.549 62.3458 39.2879 70.5972 22.5781 70.5972H22.5524C22.0142 70.5972 21.4248 70.5972 20.8097 70.5798C20.7841 70.5798 20.7584 70.5798 20.7072 70.5798C20.7072 70.5798 20.6815 70.5798 20.6559 70.5798C20.6303 70.5798 20.579 70.5624 20.5534 70.5624C20.4765 70.5624 20.3996 70.5624 20.3227 70.5624C20.169 70.5624 20.0408 70.5451 19.9127 70.5451C19.7589 70.5451 19.6051 70.5277 19.4257 70.5277C18.4775 70.5103 17.6061 70.4929 16.8116 70.4929C16.786 70.4929 16.786 70.4929 16.7604 70.4929C16.7604 70.4929 16.7604 70.4929 16.7347 70.4929C15.3508 70.4929 14.2231 70.5277 13.2492 70.5624C13.1211 70.5798 12.9673 70.5798 12.8392 70.5798C12.3779 70.5972 11.9422 70.6319 11.5577 70.6493C10.6607 70.684 9.89188 70.7014 9.12303 70.6493C8.66171 70.6145 8.17477 70.5624 7.66219 70.4756C2.84401 69.5723 1.28066 66.2717 1.28066 62.5369C1.28066 59.7227 2.17767 56.6653 3.20281 54.216C5.6119 48.3792 5.58627 49.213 6.12448 42.1255C6.97022 27.4988 8.04662 20.0292 8.04662 14.5746C8.04662 11.4998 7.71345 9.06784 6.81645 6.35791C6.17573 4.53392 5.2531 2.77942 5.2531 1.58079C5.2531 1.32022 5.30436 1.0944 5.40687 0.885939C5.6119 0.503769 5.9707 0.295313 6.48328 0.295313C7.73908 0.295313 9.815 1.63291 12.1728 4.58604Z" fill="url(#paint3_linear_341_27777)"/>
</g>
</g>
<defs>
<linearGradient id="paint0_linear_341_27777" x1="5.03348" y1="24.6896" x2="27.6882" y2="24.6896" gradientUnits="userSpaceOnUse">
<stop stop-color="#FEFBF3"/>
<stop offset="1" stop-color="#EAB93A"/>
</linearGradient>
<linearGradient id="paint1_linear_341_27777" x1="1.03287" y1="56.5241" x2="32.2588" y2="56.5241" gradientUnits="userSpaceOnUse">
<stop stop-color="white"/>
<stop offset="0.180392" stop-color="white"/>
<stop offset="1" stop-color="#A4A4A3"/>
</linearGradient>
<linearGradient id="paint2_linear_341_27777" x1="18.3988" y1="64.6842" x2="25.1442" y2="64.6842" gradientUnits="userSpaceOnUse">
<stop stop-color="#C1C0BF"/>
<stop offset="0.321569" stop-color="#C1C0BF"/>
<stop offset="1" stop-color="#A4A4A3"/>
</linearGradient>
<linearGradient id="paint3_linear_341_27777" x1="5.60063" y1="35.3854" x2="27.6638" y2="35.3854" gradientUnits="userSpaceOnUse">
<stop stop-color="#E9E9E9"/>
<stop offset="1" stop-color="#A4A4A3"/>
</linearGradient>
</defs>
</svg>
