<svg width="35" height="67" viewBox="0 0 35 67" fill="none" xmlns="http://www.w3.org/2000/svg">
<g id="Layer_x0020_1">
<g id="_453490808">
<path id="Vector" fill-rule="evenodd" clip-rule="evenodd" d="M6.9375 45.168C6.96255 45.202 7.03771 45.219 7.18802 45.219C7.66401 45.219 8.8164 45.0831 10.4698 44.9303C10.5199 44.9303 10.545 44.9303 10.5951 44.9303C12.2235 44.7775 14.3028 44.6416 16.6827 44.6416C16.6827 44.6416 16.6827 44.6416 16.7078 44.6416C16.7328 44.6416 16.7579 44.6416 16.7829 44.6416C19.9395 44.6586 23.6221 44.8964 27.455 45.6944C27.455 45.6944 27.4801 45.6944 27.5051 45.6944C27.7056 45.7454 27.906 45.7793 28.0813 45.8303C28.2567 45.8642 28.407 45.8982 28.5573 45.9322C28.407 45.7454 28.2818 45.5416 28.1565 45.3548C25.8267 41.738 26.7786 37.0684 25.7265 32.0252C25.2505 29.8347 25.1252 27.3386 25.1252 24.9613C25.1252 21.9218 25.3507 19.086 25.4008 17.371C25.4008 17.0993 25.4258 16.8276 25.4258 16.5899C25.4258 14.0429 24.9749 12.5995 24.8747 9.57699C24.8747 9.45813 24.8747 9.32228 24.8747 9.18644C24.8747 7.6582 25.1002 5.67148 25.1002 3.93948C25.1002 1.85088 24.7494 0.152832 23.1712 0.152832C20.0898 0.152832 16.0564 3.29422 14.0021 7.98083C11.6723 13.2957 7.03771 34.4703 6.9375 45.168Z" fill="url(#paint0_linear_341_27702)"/>
<path id="Vector_2" fill-rule="evenodd" clip-rule="evenodd" d="M14.5785 44.2852H14.5284C13.3009 44.2852 12.0984 44.3361 10.9711 44.438C9.51805 44.5908 8.16524 44.8116 6.9377 45.1681C2.85423 50.534 1.67679 52.6395 0.79997 55.9677C0.699762 56.3413 0.649658 56.7149 0.649658 57.0714C0.67471 63.1674 14.6036 66.2918 17.209 66.2918C24.1985 66.2918 33.7683 60.5185 33.7683 56.0526C33.7683 51.366 30.8373 49.2095 28.5575 45.9323C24.3488 45.0153 19.2633 44.2852 14.5785 44.2852Z" fill="url(#paint1_linear_341_27702)"/>
<path id="Vector_3" d="M22.5697 46.2037C23.7722 47.2735 31.3379 52.1299 26.3776 61.9277C26.0269 62.6408 22.5447 65.7822 24.4236 61.2994C28.5572 51.3998 20.8161 44.6076 22.5697 46.2037Z" fill="#E9EAE9"/>
<path id="Vector_4" fill-rule="evenodd" clip-rule="evenodd" d="M21.5681 45.6265C21.969 46.5774 29.0336 50.432 27.6307 57.4109C27.4553 58.277 27.3802 58.9732 27.3802 59.5165C27.3802 64.1352 32.8415 58.6335 32.8415 55.9676C32.8415 52.8432 30.4616 46.1869 22.3447 45.4227C22.3197 45.4227 22.2946 45.4227 22.2696 45.4227C22.1443 45.4058 22.0441 45.4058 21.969 45.4058C21.6182 45.4058 21.518 45.4907 21.5681 45.6265Z" fill="url(#paint2_linear_341_27702)"/>
<path id="Vector_5" d="M24.1234 16.7767C25.3009 23.3311 22.9961 31.7704 24.5744 37.1023C26.6537 44.1322 25.1506 44.6416 25.1506 44.6416C25.1506 44.6416 23.2216 43.9624 19.5139 44.2511C15.7811 44.5397 20.8416 39.4456 20.7414 26.048C20.7164 20.7841 20.3657 8.18455 22.5702 5.46768C25.376 2.08857 23.2967 12.3108 24.1234 16.7767Z" fill="#E4BB47"/>
<path id="Vector_6" fill-rule="evenodd" clip-rule="evenodd" d="M23.0209 0L22.9959 0C21.593 0 19.8393 0.899964 18.4865 1.85087C18.1108 2.12256 17.7851 2.41123 17.4845 2.66593C11.0712 8.49023 8.01482 29.2064 7.0378 39.6154C6.78728 42.3493 6.58686 44.4718 5.86035 45.8303C4.25703 48.7679 0.674602 53.862 0.399031 56.7147C0.373979 56.9525 0.348927 57.1732 0.348927 57.394C0.323875 62.7937 9.76846 64.8144 14.9041 66.1729C14.9292 66.1729 14.9292 66.1729 14.9542 66.1898C15.7308 66.3936 16.5575 66.4955 17.3843 66.4955H17.4093C17.4344 66.4955 17.4594 66.4955 17.4594 66.4955C20.4155 66.4615 23.5971 65.3069 25.9771 64.1182C26.0272 64.1012 26.0522 64.0843 26.1023 64.0503C32.1148 61.0617 34.0688 58.1241 34.0688 55.3733C34.0688 51.0263 29.2839 47.1378 27.9311 44.2001C26.3528 40.7022 26.9541 36.6438 26.0522 32.3138C25.476 29.6988 25.3508 27.3046 25.3508 24.8764C25.3508 22.6689 25.451 20.4445 25.451 17.9993C25.451 16.2673 25.4009 14.4164 25.2005 12.3957C25.1003 11.3939 25.0752 10.426 25.0752 9.50906C25.0752 7.25066 25.2756 5.24696 25.2756 3.66778C25.2756 2.03766 25.0501 0.832043 24.1232 0.254707C23.7976 0.0849023 23.4218 0.0169805 23.0209 0ZM23.0209 0.322629C26.1775 0.339609 24.1733 5.65449 24.9499 12.3957C25.1253 13.873 25.2005 15.2994 25.2005 16.7088C25.2005 19.7822 24.8998 22.7538 24.8998 25.8443C24.8998 27.9329 25.0251 30.0894 25.5011 32.3478C26.3278 36.6778 25.6764 40.9739 27.2297 44.353C28.6827 47.3415 33.6179 51.281 33.5929 55.628C33.5929 58.2939 31.714 61.1297 26.0021 63.9824C25.0251 64.4748 24.0982 64.8823 23.1713 65.188C21.2673 65.8502 19.4385 66.1219 17.6598 66.1219C16.758 66.1219 15.8561 66.054 14.9542 65.9182C14.5534 65.8502 14.1526 65.7653 13.7517 65.6804C11.6975 65.2389 9.71836 64.5088 7.78936 63.6258C2.65371 61.5712 1.00028 59.0241 1.00028 56.46C1.02533 51.7055 6.83738 46.9 6.93759 45.168C9.74341 21.769 12.7496 3.46401 21.618 0.560355C22.1692 0.390551 22.6201 0.322629 22.9959 0.322629C23.0209 0.322629 23.0209 0.322629 23.0209 0.322629Z" fill="url(#paint3_linear_341_27702)"/>
</g>
</g>
<defs>
<linearGradient id="paint0_linear_341_27702" x1="28.5536" y1="23.0416" x2="6.94176" y2="23.0416" gradientUnits="userSpaceOnUse">
<stop stop-color="#EAB93A"/>
<stop offset="1" stop-color="#FEFBF3"/>
</linearGradient>
<linearGradient id="paint1_linear_341_27702" x1="33.7794" y1="55.2848" x2="0.656173" y2="55.2848" gradientUnits="userSpaceOnUse">
<stop stop-color="#A4A4A3"/>
<stop offset="0.819608" stop-color="white"/>
<stop offset="1" stop-color="white"/>
</linearGradient>
<linearGradient id="paint2_linear_341_27702" x1="21.5564" y1="53.3562" x2="32.8463" y2="53.3562" gradientUnits="userSpaceOnUse">
<stop stop-color="#C1C0BF"/>
<stop offset="0.321569" stop-color="#C1C0BF"/>
<stop offset="1" stop-color="#A4A4A3"/>
</linearGradient>
<linearGradient id="paint3_linear_341_27702" x1="34.0658" y1="33.2477" x2="0.351931" y2="33.2477" gradientUnits="userSpaceOnUse">
<stop stop-color="#A4A4A3"/>
<stop offset="1" stop-color="#E9E9E9"/>
</linearGradient>
</defs>
</svg>
