<svg width="40" height="45" viewBox="0 0 40 45" fill="none" xmlns="http://www.w3.org/2000/svg">
<g id="Layer_x0020_1">
<g id="_804523640">
<path id="Vector" fill-rule="evenodd" clip-rule="evenodd" d="M0.893316 27.9328C0.508887 29.7394 0.278229 31.6502 0.278229 33.509C0.252601 36.0626 0.713916 38.5119 1.89283 40.527C5.27581 46.2769 8.53065 44.5919 11.9136 43.3412C15.271 42.0904 18.6283 44.5745 21.1143 44.6266C22.1395 44.6614 23.139 44.4182 24.2154 44.175C26.0863 43.7407 28.1109 43.3064 30.5713 44.3661C34.6975 46.1379 39.6951 40.527 39.6951 33.5958C39.6951 31.7371 39.3363 29.7915 38.5162 27.8633C29.4436 33.6306 11.7086 33.3874 0.893316 27.9328Z" fill="url(#paint0_linear_341_27732)"/>
<path id="Vector_2" fill-rule="evenodd" clip-rule="evenodd" d="M31.2117 39.1025C29.1102 39.7453 28.982 37.6607 28.4182 35.5762C27.9312 33.6653 27.0599 31.7545 23.9844 31.9629C23.0618 32.4841 22.7543 33.3526 22.7543 34.3949C22.7799 36.4795 24.0101 39.2936 24.0101 41.465C23.9844 43.0285 23.3437 44.2445 21.1396 44.6266C22.1648 44.644 23.1643 44.4182 24.2151 44.175C26.086 43.7407 28.1106 43.3064 30.571 44.3661C34.6972 46.1379 39.6948 40.527 39.6948 33.5958C39.6948 31.7371 39.336 29.7915 38.5159 27.8633C30.4172 31.5113 35.0816 37.9213 31.2117 39.1025Z" fill="url(#paint1_linear_341_27732)"/>
<path id="Vector_3" fill-rule="evenodd" clip-rule="evenodd" d="M20.704 0.851517C20.6015 1.00786 20.5502 1.19894 20.5759 1.42477C20.7809 3.43985 23.3437 4.1347 23.3437 7.29629C23.3437 7.73057 23.2925 8.18223 23.19 8.70337C22.4724 12.334 21.5497 13.411 19.9864 12.1082C17.0904 9.69353 17.9617 7.33103 15.527 4.4995C12.9129 1.45951 7.47962 -0.103907 6.50574 1.14683C3.53282 4.9859 6.22382 13.5673 2.81521 21.7319C2.09761 23.469 1.38001 25.6231 0.893066 27.9335C11.7083 33.3881 29.4434 33.6313 38.5159 27.864C38.2852 27.3428 38.0289 26.8043 37.7214 26.2832C32.0319 16.3468 37.337 6.96623 29.8022 2.31071C28.9052 1.75483 27.7519 1.25106 26.5473 0.88626C25.189 0.451976 23.7794 0.191406 22.6774 0.191406C21.7035 0.191406 20.9859 0.399862 20.704 0.851517Z" fill="url(#paint2_linear_341_27732)"/>
<path id="Vector_4" d="M33.2878 30.2609C25.1378 21.2973 35.0305 12.8027 28.4952 4.67288C26.0092 1.56341 18.4231 0.138962 20.9347 1.65027C22.8056 2.77941 23.6258 3.10946 24.7278 4.34283C27.0856 6.98327 28.3158 11.413 26.6756 20.2029C25.471 26.5955 23.6258 29.7745 22.78 32.1022C28.6746 32.1022 33.2878 30.2609 33.2878 30.2609Z" fill="#E9B225"/>
<path id="Vector_5" d="M26.9057 7.24415C25.8037 3.19662 21.8056 1.35526 20.5754 1.42474C21.0367 3.68302 24.0609 4.29102 23.1895 8.70334C22.4719 12.334 21.5493 13.411 19.986 12.1081C18.5508 10.8921 22.8564 15.0786 16.5261 16.781C11.3235 18.2055 17.9613 24.7371 24.8554 16.7289C26.9826 14.2795 28.0077 11.448 26.9057 7.24415Z" fill="#DECB8E"/>
<path id="Vector_6" d="M25.5221 7.90408C24.9839 3.80444 21.9085 1.80673 20.6527 1.65039C20.8834 3.92604 24.0613 4.29084 23.1899 8.70316C22.4723 12.3338 21.5497 13.4108 19.9864 12.1079C18.5512 10.8919 23.4462 15.3216 17.3466 17.3715C14.2199 18.4137 18.9612 20.7762 23.0105 16.2597C25.0608 14.0014 25.9322 10.9441 25.5221 7.90408Z" fill="#CBBC84"/>
<path id="Vector_7" d="M14.0663 42.9074C14.0663 42.9074 17.2186 43.6891 19.7046 44.4013C21.6011 44.9398 23.7283 44.6098 22.2931 43.2374C20.4991 41.5003 15.0402 41.8303 14.0663 42.9074Z" fill="white"/>
<path id="Vector_8" fill-rule="evenodd" clip-rule="evenodd" d="M32.0577 44.957H32.0834H32.109C32.2628 44.9397 32.3909 44.9397 32.5703 44.9223C32.5959 44.9223 32.6472 44.9223 32.6728 44.9049C32.6984 44.9049 32.7241 44.9049 32.7497 44.9049C37.1322 44.3317 39.7976 39.1898 39.7976 33.7352C39.7976 31.0947 39.1825 28.3848 37.8242 26.0918C31.7502 15.6342 38.3624 5.38512 27.9828 1.19862C27.2908 0.920681 26.5732 0.694854 25.8556 0.503769C24.7023 0.191085 23.549 0 22.6008 0C21.5244 0 20.7042 0.243199 20.3967 0.816453C20.2686 1.04228 20.2429 1.35497 20.3198 1.70239C20.7299 3.85644 22.8827 3.90855 22.8827 7.24385C22.8827 7.95608 22.7802 8.82464 22.5495 9.91904C22.5495 9.93641 22.5495 9.93641 22.5239 9.95378C22.5239 9.98852 22.5239 10.0059 22.5239 10.0233C22.1651 11.3609 21.7806 12.3684 21.0887 12.3684C21.063 12.3684 21.063 12.3684 21.0374 12.3684C20.6017 12.351 20.0379 11.9515 19.2947 10.9961C19.269 10.9961 19.269 10.9961 19.269 10.9961C19.269 10.9787 19.2434 10.9613 19.2434 10.9439C17.2444 8.56407 17.8338 5.26352 13.5282 2.58833C13.5026 2.57096 13.477 2.55359 13.4257 2.53622C13.4257 2.51885 13.4001 2.51885 13.3745 2.50147C13.3488 2.4841 13.3232 2.46673 13.2719 2.44936V2.43199C13.2207 2.41462 13.1694 2.37987 13.1182 2.34513L13.0925 2.32776C11.5292 1.42445 9.68393 0.781711 8.29998 0.660111C8.14621 0.64274 7.96681 0.625368 7.83867 0.625368H7.81304C7.06981 0.625368 6.50598 0.833825 6.30095 1.30285C3.37928 5.71517 6.45472 13.1327 2.4054 22.2874C2.35414 22.3917 2.30288 22.5133 2.27725 22.6175C-2.23339 34.0826 0.355105 44.7312 7.47986 44.7486H7.50549C8.4025 44.7486 9.37638 44.5922 10.4015 44.2275C10.4528 44.2101 10.4784 44.2101 10.5297 44.1927C10.5809 44.1753 10.6578 44.1406 10.7091 44.1232C10.8116 44.0885 10.8885 44.0537 10.991 44.0364C12.2468 43.5847 12.8875 43.272 13.8358 43.272C13.8358 43.272 13.8358 43.272 13.8614 43.272C13.887 43.272 13.9383 43.272 13.9895 43.272C14.7584 43.3068 15.7323 43.5152 17.3725 44.019C17.3981 44.019 17.4238 44.019 17.4494 44.0364C17.475 44.0364 17.5007 44.0364 17.5007 44.0537C17.5263 44.0537 17.5519 44.0711 17.5775 44.0711C17.5775 44.0711 17.5775 44.0711 17.6032 44.0711C17.6288 44.0885 17.6288 44.0885 17.6544 44.1059C17.6801 44.1059 17.7057 44.1059 17.7057 44.1059C17.8338 44.158 17.962 44.1927 18.1157 44.2275C18.1414 44.2448 18.1926 44.2622 18.2183 44.2796C18.3464 44.3143 18.4489 44.349 18.5771 44.3838C18.6027 44.3838 18.6027 44.4012 18.6283 44.4012C18.7052 44.4185 18.7565 44.4359 18.8333 44.4706C19.8072 44.7486 20.653 44.8528 21.4218 44.8528C21.4475 44.8528 21.4475 44.8528 21.4731 44.8528C21.4731 44.8528 21.4731 44.8528 21.4987 44.8528C22.6008 44.8528 23.6003 44.627 24.5229 44.4185C24.5485 44.4185 24.5742 44.4012 24.5998 44.4012C24.6767 44.3838 24.7792 44.3664 24.8561 44.3317C24.933 44.3317 24.9842 44.3143 25.0355 44.2969C25.0611 44.2969 25.0611 44.2969 25.0867 44.2796C25.8812 44.1059 26.6501 43.9669 27.4702 43.9495C27.4702 43.9495 27.4702 43.9495 27.4958 43.9495H27.5215C28.3416 43.9669 29.1873 44.1059 30.1612 44.5228C30.2125 44.5401 30.2637 44.5575 30.3406 44.5749C30.9813 44.7833 31.417 44.9397 32.0577 44.957ZM24.1128 0.52114C25.1636 0.694854 26.3169 1.00754 27.3164 1.35497C27.3421 1.35497 27.3677 1.37234 27.3933 1.37234C27.3933 1.37234 27.3933 1.37234 27.4189 1.38971C27.4702 1.40708 27.5471 1.42445 27.5983 1.45919C27.6496 1.45919 27.6752 1.47656 27.7265 1.49394C37.8754 5.52409 31.6733 15.9816 37.4654 26.1786C37.4654 26.2134 37.491 26.2481 37.5166 26.2828C41.7966 33.9784 37.6448 44.3317 32.2884 44.4012C32.2628 44.4012 32.2371 44.4012 32.2371 44.4012C32.2371 44.4012 32.2371 44.4012 32.2115 44.4012C31.6989 44.4012 31.1607 44.2969 30.6225 44.0885C30.5969 44.0711 30.5713 44.0711 30.5713 44.0537C29.4949 43.6021 28.4697 43.4457 27.4958 43.4457C27.4702 43.4457 27.4702 43.4457 27.4446 43.4457C27.4446 43.4457 27.4446 43.4457 27.4189 43.4457C26.2913 43.4457 25.2405 43.6542 24.241 43.88C24.2154 43.88 24.1641 43.88 24.1385 43.8974C24.1128 43.8974 24.0872 43.8974 24.0616 43.9148C23.9334 43.9321 23.7797 43.9669 23.6515 44.0016C23.6259 44.0016 23.6259 44.0016 23.6003 44.019C22.7802 44.1927 22.0113 44.349 21.2937 44.349C21.2937 44.349 21.2937 44.349 21.2681 44.349C21.1912 44.349 21.1399 44.349 21.0887 44.349C19.8072 44.2796 16.6037 42.8899 14.5277 42.7161C14.3483 42.6988 14.1946 42.6988 14.0152 42.6988H13.9895C12.7594 42.6988 11.6317 43.0983 10.5553 43.4805C10.5553 43.4979 10.5553 43.4979 10.5297 43.4979C10.504 43.5152 10.4528 43.5326 10.4272 43.5326C10.4015 43.55 10.4015 43.55 10.4015 43.55C10.3246 43.5673 10.2734 43.6021 10.2221 43.6195C10.1709 43.6368 10.1196 43.6542 10.0684 43.6716C10.0684 43.6716 10.0684 43.6716 10.0427 43.6716C9.14573 44.0016 8.29998 44.2969 7.40298 44.2969C7.40298 44.2969 7.37735 44.2969 7.35172 44.2969C6.96729 44.2969 6.58286 44.2448 6.1728 44.1059C6.14718 44.1059 6.14718 44.1059 6.12155 44.0885C3.76371 43.3763 0.63702 39.6762 0.63702 32.9534C0.63702 30.0003 1.22648 26.4739 2.7642 22.3569C6.37783 13.5497 3.53306 5.68043 6.45472 1.35497V1.33759C6.63412 0.955424 7.12106 0.781711 7.76178 0.781711C7.76178 0.781711 7.76178 0.781711 7.78741 0.781711C7.88992 0.781711 7.99244 0.781711 8.12058 0.799082C9.35075 0.885939 11.0166 1.47656 12.4774 2.29302C12.5031 2.29302 12.5287 2.31039 12.5287 2.32776C12.58 2.34513 12.6312 2.3625 12.6825 2.39725C12.7081 2.41462 12.7594 2.44936 12.785 2.46673C12.8106 2.4841 12.8362 2.4841 12.8362 2.50147C12.9131 2.53622 12.9644 2.57096 13.0156 2.6057C13.0413 2.6057 13.0413 2.62307 13.0413 2.62307C13.1182 2.67519 13.1951 2.7273 13.2719 2.77942C18.0132 5.83677 16.1423 9.11996 19.756 12.2642C20.2173 12.6116 20.6017 12.7853 20.9349 12.8548C20.9349 12.8548 20.9349 12.8548 20.9605 12.8548C21.0374 12.8722 21.1143 12.8722 21.1656 12.8722C21.8832 12.8722 22.3445 12.2815 22.8058 11.3609C23.2671 10.2838 23.549 9.36316 23.6515 8.56407C24.241 4.55129 21.2681 3.35267 20.9349 1.65028C20.7042 0.729597 21.4731 0.38217 22.652 0.38217C23.0877 0.38217 23.6003 0.434284 24.1128 0.52114Z" fill="url(#paint3_linear_341_27732)"/>
</g>
</g>
<defs>
<linearGradient id="paint0_linear_341_27732" x1="0.266696" y1="36.284" x2="39.6892" y2="36.284" gradientUnits="userSpaceOnUse">
<stop stop-color="white"/>
<stop offset="0.180392" stop-color="white"/>
<stop offset="1" stop-color="#A4A4A3"/>
</linearGradient>
<linearGradient id="paint1_linear_341_27732" x1="21.1445" y1="36.2839" x2="39.6884" y2="36.2839" gradientUnits="userSpaceOnUse">
<stop stop-color="#C1C0BF"/>
<stop offset="0.321569" stop-color="#C1C0BF"/>
<stop offset="1" stop-color="#A4A4A3"/>
</linearGradient>
<linearGradient id="paint2_linear_341_27732" x1="0.900499" y1="16.1508" x2="38.511" y2="16.1508" gradientUnits="userSpaceOnUse">
<stop stop-color="#FEFBF3"/>
<stop offset="1" stop-color="#EAB93A"/>
</linearGradient>
<linearGradient id="paint3_linear_341_27732" x1="2.0202" y1="22.4785" x2="37.7993" y2="22.4785" gradientUnits="userSpaceOnUse">
<stop stop-color="#E9E9E9"/>
<stop offset="1" stop-color="#A4A4A3"/>
</linearGradient>
</defs>
</svg>
