<svg width="36" height="71" viewBox="0 0 36 71" fill="none" xmlns="http://www.w3.org/2000/svg">
<g id="Layer_x0020_1">
<g id="_804530240">
<path id="Vector" fill-rule="evenodd" clip-rule="evenodd" d="M14.5278 8.40249C12.1236 14.0552 7.08973 34.9175 6.98956 46.3247C6.98956 46.783 6.88938 47.2413 6.76416 47.6996C6.86434 47.6657 6.96451 47.6487 7.06469 47.6148C9.0682 47.0716 11.3973 46.8509 13.9017 46.8509C13.9017 46.8509 13.9017 46.8509 13.9267 46.8509C13.9267 46.8509 13.9518 46.8509 13.9768 46.8509C18.8604 46.8679 24.2698 47.6996 28.6776 48.6672C28.8028 48.6842 28.928 48.7181 29.0532 48.7521C29.0783 48.7521 29.0783 48.7521 29.0783 48.7521C29.2285 48.786 29.3538 48.82 29.504 48.837C29.3538 48.6333 29.2285 48.4296 29.1033 48.2259C26.6991 44.3725 27.6758 39.3819 26.5739 34.0348C26.0981 31.6922 25.9728 29.0271 25.9478 26.4978C25.9478 23.2556 26.1982 20.2341 26.2483 18.4008C26.2734 18.1122 26.2734 17.8236 26.2734 17.569C26.2734 14.87 25.7975 13.3252 25.6974 10.1C25.6974 9.96419 25.6974 9.82839 25.6974 9.69259C25.6974 8.04601 25.9478 5.92414 25.9478 4.09083C25.9478 1.86711 25.5972 0.0507812 23.9693 0.0507812C20.7887 0.0507812 16.6315 3.39486 14.5278 8.40249Z" fill="url(#paint0_linear_341_27694)"/>
<path id="Vector_2" fill-rule="evenodd" clip-rule="evenodd" d="M0.929077 59.5484V59.5823C0.954121 61.8061 3.23312 64.2335 6.23838 66.2535C6.26343 66.2705 6.31352 66.2875 6.33856 66.3044C6.33856 66.3214 6.3636 66.3384 6.38865 66.3384C10.2454 68.9016 15.2041 70.8028 17.9589 70.8028C24.7208 70.8028 34.8886 64.4032 34.8886 59.6163C34.8886 54.6256 31.8583 52.334 29.5042 48.8372C24.9462 47.8017 19.1109 46.8511 13.9269 46.8511C12.7748 46.8511 11.6479 46.902 10.596 47.0038C9.21861 47.1396 7.91633 47.3603 6.76431 47.6998C5.53716 51.8248 0.929077 55.9497 0.929077 59.5484Z" fill="url(#paint1_linear_341_27694)"/>
<path id="Vector_3" d="M28.9534 50.5008C27 49.007 21.7407 46.7663 22.6423 48.8373C23.9947 51.9946 30.0553 55.848 30.7065 62.9435C30.8567 64.7089 34.1876 64.1657 33.7117 58.8186C33.311 53.8619 30.6814 51.8249 28.9534 50.5008Z" fill="#AFAFAD"/>
<path id="Vector_4" d="M24.3951 22.0166C26.1231 34.2725 25.3718 32.2186 25.5471 38.007C25.7976 44.9498 27.9263 48.4976 27.9263 48.4976C27.9263 48.4976 27.4505 47.4282 23.0427 47.1396C19.211 46.885 22.8173 41.9962 21.2646 27.7541C20.5133 20.7774 21.7154 8.77607 23.6939 6.60327C26.4487 3.54776 23.0427 12.5106 24.3951 22.0166Z" fill="#E4BB47"/>
<path id="Vector_5" d="M23.4433 50.1954C24.6204 51.2649 29.2786 56.8836 29.5039 65.5409C29.529 66.2878 26.8994 68.172 26.8242 63.5208C26.699 55.3049 21.6902 48.5998 23.4433 50.1954Z" fill="#E9EAE9"/>
<path id="Vector_6" fill-rule="evenodd" clip-rule="evenodd" d="M17.8836 70.8537H17.9087H17.9337C20.7887 70.8367 23.8441 69.7673 26.2233 68.579C26.2483 68.579 26.2733 68.5621 26.2733 68.5451C26.2984 68.5451 26.3234 68.5281 26.3485 68.5281C26.3735 68.5111 26.3986 68.4942 26.4236 68.4772C26.4987 68.4432 26.5488 68.4093 26.624 68.3753C26.6741 68.3584 26.7241 68.3244 26.7742 68.2905C26.7993 68.2905 26.8243 68.2735 26.8494 68.2565C33.0352 65.0822 35.0387 61.9418 35.0638 59.0051C35.0638 54.3879 30.1301 50.2291 28.7277 47.1057C27.1248 43.3712 27.7259 39.0425 26.7993 34.4253C26.2233 31.6414 26.073 29.0952 26.073 26.515C26.073 24.1554 26.1982 21.7789 26.1982 19.1818C26.1982 17.3145 26.1481 15.3454 25.9227 13.2066C25.8226 12.1371 25.7975 11.1017 25.7975 10.1171C25.7975 7.72363 26.0229 5.58478 26.0229 3.90425C25.9979 2.15583 25.7725 0.882701 24.8208 0.2716C24.4702 0.0848751 24.0695 0 23.6437 0C22.6921 0 21.5901 0.4074 20.5383 1.00153C19.5616 1.52775 18.66 2.20675 17.9838 2.83483C10.12 10.219 6.71406 39.7555 6.41354 46.851C6.41354 46.851 6.41354 46.868 6.41354 46.885C6.41354 46.902 6.41354 46.902 6.41354 46.902C6.41354 46.9189 6.41354 46.9189 6.41354 46.9359V46.9529C6.41354 46.9699 6.41354 46.9699 6.41354 46.9868V47.0038V47.0208C6.1631 49.1257 5.01108 51.2306 3.73384 53.3015C5.11125 51.5361 6.58884 49.7028 7.08972 47.6319C7.08972 47.6319 7.08972 47.6319 7.08972 47.6149C7.08972 47.6149 7.08972 47.5979 7.08972 47.581C7.08972 47.564 7.11476 47.547 7.11476 47.53C7.11476 47.4961 7.11476 47.4621 7.13981 47.4112C7.13981 47.4112 7.13981 47.4112 7.13981 47.3942V47.3773C7.13981 47.3603 7.13981 47.3603 7.13981 47.3603C7.13981 47.3263 7.16485 47.2924 7.16485 47.2415C7.16485 47.2415 7.16485 47.2415 7.16485 47.2245V47.2075C7.16485 47.1905 7.16485 47.1905 7.16485 47.1736C7.1899 47.1736 7.1899 47.1566 7.1899 47.1566C7.1899 47.1396 7.1899 47.1396 7.1899 47.1226C7.1899 47.1226 7.1899 47.1057 7.1899 47.0887C7.1899 47.0887 7.1899 47.0717 7.1899 47.0547V47.0378C7.1899 47.0208 7.1899 47.0208 7.21494 47.0038V46.9868C7.21494 46.9699 7.21494 46.9699 7.21494 46.9529V46.9359C7.21494 46.9189 7.21494 46.902 7.21494 46.885C8.96801 21.8299 13.1003 3.68358 22.2413 0.594125C22.2413 0.594125 22.2663 0.57715 22.2914 0.57715C22.2914 0.57715 22.3164 0.560175 22.3415 0.560175C22.3415 0.560175 22.3665 0.560175 22.3665 0.5432C22.8674 0.4074 23.2931 0.3395 23.6688 0.3395C23.6938 0.3395 23.6938 0.3395 23.6938 0.3395C26.8494 0.3395 24.946 5.75453 25.6222 12.7313C25.6222 12.8161 25.6473 12.918 25.6473 13.0029C25.6473 13.0708 25.6723 13.1387 25.6723 13.2066C25.8476 14.7852 25.9227 16.296 25.9227 17.7898C25.9227 21.066 25.6222 24.2403 25.6222 27.5335C25.6222 29.7572 25.7474 32.0488 26.2233 34.4762C27.0998 39.0935 26.3986 43.6597 28.0264 47.2584C29.504 50.4497 34.5879 54.6426 34.5629 59.2767C34.5629 62.1285 32.6345 65.1331 26.7492 68.1716C26.5739 68.2735 26.3986 68.3584 26.2233 68.4432C26.2233 68.4602 26.2233 68.4602 26.1982 68.4602C23.1679 70.0389 20.6886 70.7518 18.2843 70.7518H18.2593C18.2343 70.7518 18.2092 70.7518 18.1842 70.7518C15.3793 70.7349 12.6996 69.7333 9.39376 68.0019C9.36872 67.9849 9.34367 67.9679 9.31863 67.9679C9.2435 67.934 9.19341 67.9 9.11828 67.8491C9.09323 67.8321 9.04315 67.8152 9.0181 67.7982C9.0181 67.7982 9.0181 67.7982 8.99306 67.7982C8.96801 67.7812 8.94297 67.7642 8.94297 67.7473C8.91793 67.7473 8.91793 67.7473 8.91793 67.7473C8.89288 67.7303 8.84279 67.7133 8.81775 67.6964C8.79271 67.6794 8.76766 67.6624 8.71757 67.6454C8.71757 67.6284 8.71757 67.6284 8.71757 67.6284C8.69253 67.6115 8.66749 67.5945 8.64244 67.5945C8.6174 67.5775 8.6174 67.5775 8.6174 67.5775C8.59236 67.5605 8.56731 67.5436 8.54227 67.5266H8.51722C8.49218 67.5096 8.46714 67.4926 8.44209 67.4757H8.41705C8.392 67.4587 8.36696 67.4417 8.34192 67.4247C8.34192 67.4247 8.34192 67.4247 8.34192 67.4078C8.31687 67.3908 8.26678 67.3908 8.24174 67.3738V67.3568C8.2167 67.3399 8.19165 67.3229 8.14156 67.3059C8.11652 67.2889 8.09148 67.272 8.06643 67.255H8.04139C8.01635 67.238 7.9913 67.221 7.9913 67.2041C7.96626 67.2041 7.96626 67.2041 7.96626 67.2041C7.94121 67.1871 7.89113 67.1701 7.86608 67.1531C7.86608 67.1531 7.86608 67.1531 7.86608 67.1362C7.84104 67.1362 7.81599 67.1192 7.79095 67.1022C7.79095 67.1022 7.79095 67.0852 7.76591 67.0852C7.74086 67.0683 7.71582 67.0683 7.71582 67.0513C7.69077 67.0513 7.69077 67.0343 7.69077 67.0343C7.64069 67.0004 7.56556 66.9664 7.51547 66.9325C7.49042 66.9155 7.46538 66.8985 7.44034 66.8815H7.41529C7.3652 66.8476 7.31512 66.8136 7.26503 66.7797C7.26503 66.7797 7.23998 66.7797 7.23998 66.7627C7.21494 66.7627 7.1899 66.7457 7.1899 66.7288C7.16485 66.7288 7.16485 66.7288 7.16485 66.7118C7.11476 66.6778 7.06468 66.6609 7.01459 66.6269C6.98954 66.6099 6.98954 66.6099 6.98954 66.6099C6.9645 66.593 6.93946 66.576 6.91441 66.576C6.91441 66.559 6.91441 66.559 6.91441 66.559C6.88937 66.542 6.86433 66.542 6.83928 66.5251V66.5081C6.81424 66.4911 6.78919 66.4741 6.76415 66.4572C6.73911 66.4572 6.73911 66.4572 6.73911 66.4572C6.71406 66.4402 6.68902 66.4232 6.68902 66.4232C6.66397 66.4062 6.66397 66.4062 6.66397 66.4062C6.63893 66.3893 6.61389 66.3723 6.58884 66.3553C6.5638 66.3383 6.53875 66.3214 6.51371 66.3044H6.48867C6.46362 66.2874 6.46362 66.2704 6.43858 66.2535C6.43858 66.2535 6.41354 66.2535 6.41354 66.2365C6.38849 66.2365 6.38849 66.2195 6.36345 66.2025H6.3384C6.28832 66.1686 6.23823 66.1346 6.18814 66.1007C6.18814 66.1007 6.18814 66.1007 6.18814 66.0837C6.1631 66.0837 6.13805 66.0667 6.13805 66.0498C6.11301 66.0498 6.11301 66.0498 6.11301 66.0498C6.08796 66.0328 6.06292 66.0158 6.03788 65.9988C6.03788 65.9988 6.03788 65.9988 6.03788 65.9819C6.01283 65.9819 5.98779 65.9649 5.96275 65.9479C5.96275 65.9479 5.96275 65.9309 5.9377 65.9309L5.91266 65.914C5.88761 65.897 5.88761 65.897 5.86257 65.88L5.83753 65.863C5.81248 65.8461 5.81248 65.8461 5.78744 65.8291C5.78744 65.8291 5.76239 65.8121 5.73735 65.7951C5.73735 65.7951 5.73735 65.7782 5.71231 65.7782C5.71231 65.7782 5.68726 65.7612 5.68726 65.7442C5.66222 65.7442 5.66222 65.7442 5.66222 65.7272C5.63717 65.7272 5.61213 65.7103 5.61213 65.7103C5.61213 65.6933 5.58709 65.6933 5.58709 65.6933C5.56204 65.6763 5.537 65.6593 5.537 65.6424C5.51195 65.6424 5.51195 65.6254 5.48691 65.6254C5.48691 65.6084 5.48691 65.6084 5.46187 65.6084C5.46187 65.5914 5.43682 65.5914 5.43682 65.5745C5.41178 65.5745 5.41178 65.5575 5.41178 65.5575C5.38674 65.5575 5.38674 65.5405 5.36169 65.5405C5.36169 65.5235 5.33665 65.5066 5.3116 65.5066C5.3116 65.4896 5.28656 65.4726 5.28656 65.4726C5.26152 65.4556 5.26152 65.4556 5.26152 65.4556C5.23647 65.4387 5.23647 65.4387 5.21143 65.4217C5.21143 65.4217 5.21143 65.4217 5.18638 65.4047L5.16134 65.3877C5.16134 65.3877 5.16134 65.3877 5.16134 65.3708C5.11125 65.3538 5.08621 65.3368 5.06116 65.3198C5.06116 65.3029 5.06116 65.3029 5.06116 65.3029C5.03612 65.2859 5.01108 65.2859 5.01108 65.2689H4.98603C4.98603 65.2519 4.96099 65.235 4.96099 65.235C4.96099 65.235 4.93595 65.235 4.93595 65.218C4.9109 65.201 4.88586 65.184 4.86081 65.1671C4.86081 65.1671 4.86081 65.1501 4.83577 65.1501C4.83577 65.1501 4.81073 65.1331 4.81073 65.1161C4.81073 65.1161 4.81073 65.1161 4.78568 65.1161C4.78568 65.0992 4.76064 65.0992 4.76064 65.0822C4.71055 65.0482 4.66046 65.0143 4.61037 64.9803C4.61037 64.9634 4.61037 64.9634 4.58533 64.9634C4.58533 64.9464 4.56029 64.9464 4.56029 64.9294C4.5102 64.8955 4.46011 64.8615 4.41002 64.8276C4.41002 64.8276 4.41002 64.8276 4.41002 64.8106C4.35994 64.7766 4.2848 64.7257 4.23472 64.6748C1.58006 62.5359 0.703526 60.6857 0.753614 58.9712C0.628394 60.8384 1.80546 62.6717 3.60862 64.3183C3.65871 64.3862 3.73384 64.4371 3.78393 64.4881L3.80897 64.505C3.80897 64.505 3.80897 64.505 3.80897 64.522C3.83401 64.522 3.83401 64.522 3.83401 64.539C3.83401 64.539 3.83401 64.539 3.85906 64.539C3.85906 64.556 3.8841 64.5729 3.90915 64.5899C3.90915 64.5899 3.90915 64.5899 3.90915 64.6069C3.90915 64.6069 3.93419 64.6069 3.93419 64.6239C3.95923 64.6408 3.95923 64.6408 3.95923 64.6408C3.95923 64.6408 3.95923 64.6408 3.95923 64.6578C4.00932 64.6748 4.03436 64.6918 4.05941 64.7257L4.08445 64.7427C4.08445 64.7427 4.08445 64.7427 4.08445 64.7597C4.1095 64.7597 4.1095 64.7597 4.1095 64.7766H4.13454C4.13454 64.7936 4.13454 64.7936 4.13454 64.7936C4.15958 64.8106 4.15958 64.8106 4.15958 64.8106L4.18463 64.8276C4.18463 64.8276 4.18463 64.8276 4.18463 64.8445C4.20967 64.8445 4.20967 64.8445 4.20967 64.8445C4.20967 64.8615 4.20967 64.8615 4.23472 64.8615C4.23472 64.8785 4.23472 64.8785 4.23472 64.8785C4.25976 64.8785 4.25976 64.8955 4.25976 64.8955C4.25976 64.8955 4.25976 64.8955 4.2848 64.9124C4.30985 64.9294 4.30985 64.9294 4.30985 64.9294C4.30985 64.9464 4.33489 64.9464 4.33489 64.9464C4.35994 64.9634 4.38498 64.9803 4.38498 64.9973C4.41002 65.0143 4.41002 65.0143 4.41002 65.0143C4.41002 65.0143 4.41002 65.0313 4.43507 65.0313C4.43507 65.0313 4.43507 65.0313 4.46011 65.0482C4.46011 65.0652 4.48515 65.0652 4.48515 65.0822C4.5102 65.0822 4.5102 65.0992 4.5102 65.0992L4.53524 65.1161C4.53524 65.1161 4.53524 65.1161 4.56029 65.1331C4.56029 65.1501 4.58533 65.1501 4.58533 65.1671C4.58533 65.1671 4.58533 65.1671 4.61037 65.1671C4.61037 65.1671 4.61037 65.184 4.63542 65.184C4.63542 65.184 4.63542 65.184 4.63542 65.201C4.68551 65.235 4.76064 65.2859 4.81073 65.3368C4.83577 65.3368 4.83577 65.3538 4.86081 65.3538V65.3708L4.88586 65.3877C4.9109 65.4047 4.9109 65.4047 4.93595 65.4217C5.01108 65.4896 5.11125 65.5575 5.18638 65.6084C5.21143 65.6424 5.23647 65.6593 5.26152 65.6763C6.93946 66.8815 8.89288 67.951 10.7461 68.7997C10.7461 68.8167 10.7461 68.8167 10.7461 68.8167C10.7712 68.8167 10.7962 68.8337 10.8213 68.8506C10.8463 68.8506 10.8463 68.8506 10.8463 68.8506C10.8463 68.8506 10.8463 68.8506 10.8714 68.8676C10.8714 68.8676 10.8714 68.8676 10.8964 68.8676C10.8964 68.8676 10.8964 68.8676 10.8964 68.8846H10.9214C10.9715 68.9185 11.0216 68.9355 11.0967 68.9525C11.0967 68.9695 11.0967 68.9695 11.0967 68.9695C11.0967 68.9695 11.1218 68.9695 11.1218 68.9865C11.1218 68.9865 11.1218 68.9865 11.1468 68.9865C11.1468 68.9865 11.1468 68.9865 11.1719 68.9865C11.1719 69.0034 11.1719 69.0034 11.1719 69.0034C11.1969 69.0034 11.1969 69.0034 11.222 69.0204C11.222 69.0204 11.247 69.0204 11.247 69.0374C11.247 69.0374 11.247 69.0374 11.2721 69.0374C11.2721 69.0374 11.2721 69.0374 11.2971 69.0543C11.3221 69.0543 11.3221 69.0713 11.3472 69.0713C11.3722 69.0883 11.4223 69.1053 11.4724 69.1222C11.4724 69.1392 11.4974 69.1392 11.4974 69.1392H11.5225C11.5225 69.1562 11.5475 69.1562 11.5475 69.1562C11.5726 69.1732 11.5726 69.1732 11.5976 69.1732C11.5976 69.1901 11.6227 69.1901 11.6227 69.1901C11.6227 69.1901 11.6227 69.1901 11.6477 69.1901C11.6978 69.2241 11.7479 69.2411 11.798 69.258C11.798 69.275 11.798 69.275 11.798 69.275C11.823 69.275 11.823 69.275 11.8481 69.275C11.8481 69.292 11.8481 69.292 11.8481 69.292C11.8481 69.292 11.8731 69.292 11.8731 69.309C11.8981 69.309 11.8981 69.309 11.9232 69.309C11.9232 69.326 11.9232 69.326 11.9232 69.326C11.9482 69.326 11.9482 69.326 11.9482 69.326L11.9733 69.3429H11.9983V69.3599C12.0234 69.3599 12.0484 69.3769 12.0735 69.3769C12.0735 69.3938 12.0985 69.3938 12.1235 69.3938C12.1235 69.4108 12.1486 69.4108 12.1736 69.4278C12.1987 69.4278 12.2237 69.4448 12.2488 69.4448V69.4617C12.2738 69.4617 12.2738 69.4617 12.2989 69.4617C12.2989 69.4787 12.3239 69.4787 12.3239 69.4787C12.3489 69.4957 12.374 69.5127 12.399 69.5127C12.399 69.5127 12.399 69.5127 12.4241 69.5127C12.4241 69.5296 12.4491 69.5296 12.4491 69.5296C12.4992 69.5636 12.5493 69.5806 12.5994 69.5975C12.6244 69.5975 12.6244 69.5975 12.6244 69.5975L12.6495 69.6145C12.6745 69.6145 12.6745 69.6315 12.6996 69.6315C12.6996 69.6315 12.7246 69.6315 12.7246 69.6485C12.7246 69.6485 12.7246 69.6485 12.7496 69.6485C12.7496 69.6485 12.7496 69.6485 12.7747 69.6655H12.7997L12.8248 69.6824C12.8498 69.6824 12.8498 69.6994 12.8749 69.6994H12.8999C12.9249 69.7164 12.95 69.7164 12.975 69.7333C13.0001 69.7503 13.0251 69.7503 13.0502 69.7673C13.0752 69.7673 13.0752 69.7673 13.0752 69.7843H13.1003C13.1003 69.7843 13.1003 69.7843 13.1253 69.7843V69.8012C13.1503 69.8012 13.1503 69.8012 13.1503 69.8012C13.1503 69.8012 13.1754 69.8012 13.1754 69.8182C13.1754 69.8182 13.1754 69.8182 13.2004 69.8182C13.2004 69.8182 13.2255 69.8182 13.2255 69.8352C13.2505 69.8352 13.2756 69.8522 13.3006 69.8522L13.3257 69.8691C13.3257 69.8691 13.3507 69.8691 13.3507 69.8861H13.3757C13.3757 69.8861 13.3757 69.8861 13.4008 69.8861V69.9031C13.4258 69.9031 13.4258 69.9031 13.4258 69.9031C13.4258 69.9031 13.4509 69.9031 13.4509 69.9201C13.4509 69.9201 13.4509 69.9201 13.4759 69.9201C13.4759 69.9201 13.501 69.9201 13.501 69.937C13.526 69.937 13.526 69.937 13.551 69.954H13.5761C13.5761 69.954 13.5761 69.954 13.6011 69.971C13.6011 69.971 13.6262 69.971 13.6512 69.988C13.6763 69.988 13.6763 69.988 13.6763 70.005C13.7013 70.005 13.7013 70.005 13.7013 70.005H13.7264C13.7514 70.0219 13.7514 70.0219 13.7514 70.0219H13.7764C13.7764 70.0219 13.7764 70.0389 13.8015 70.0389H13.8265V70.0559C13.8516 70.0559 13.8516 70.0559 13.8766 70.0559C13.8766 70.0559 13.8766 70.0728 13.9017 70.0728C13.9267 70.0728 13.9267 70.0728 13.9267 70.0898C13.9267 70.0898 13.9267 70.0898 13.9517 70.0898C13.9517 70.0898 13.9517 70.0898 13.9768 70.0898C13.9768 70.0898 13.9768 70.1068 14.0018 70.1068C14.0269 70.1068 14.0519 70.1238 14.077 70.1407C14.102 70.1407 14.102 70.1407 14.102 70.1407H14.1271V70.1577C14.1521 70.1577 14.1521 70.1577 14.1521 70.1577H14.1771C14.1771 70.1577 14.1771 70.1747 14.2022 70.1747H14.2272C14.2272 70.1747 14.2272 70.1747 14.2272 70.1917C14.3024 70.2086 14.3525 70.2256 14.4276 70.2426L14.4526 70.2596C14.4777 70.2596 14.4777 70.2596 14.4777 70.2596H14.5027C14.5027 70.2766 14.5027 70.2766 14.5027 70.2766C14.5278 70.2766 14.5278 70.2766 14.5278 70.2766H14.5528C14.5528 70.2935 14.5528 70.2935 14.5528 70.2935C14.5778 70.2935 14.6029 70.2935 14.6029 70.3105C14.6279 70.3105 14.6279 70.3105 14.6279 70.3105H14.653C14.653 70.3105 14.653 70.3105 14.678 70.3275C14.678 70.3275 14.7031 70.3275 14.7281 70.3445C14.7281 70.3445 14.7281 70.3445 14.7532 70.3445C14.7782 70.3445 14.7782 70.3614 14.7782 70.3614C14.7782 70.3614 14.7782 70.3614 14.8032 70.3614C14.8283 70.3614 14.8283 70.3614 14.8283 70.3784C14.8533 70.3784 14.8533 70.3784 14.8533 70.3784H14.8784C14.8784 70.3784 14.8784 70.3954 14.9034 70.3954H14.9285C14.9535 70.4123 14.9785 70.4123 14.9785 70.4123C15.0036 70.4123 15.0036 70.4293 15.0036 70.4293C15.0286 70.4293 15.0286 70.4293 15.0286 70.4293H15.0537C15.0537 70.4293 15.0537 70.4463 15.0787 70.4463H15.1038C15.1038 70.4463 15.1038 70.4463 15.1288 70.4633C15.1288 70.4633 15.1288 70.4633 15.1539 70.4633C15.1789 70.4633 15.1789 70.4633 15.1789 70.4802C15.2039 70.4802 15.2039 70.4802 15.2039 70.4802H15.229C15.229 70.4802 15.229 70.4972 15.254 70.4972H15.2791C15.3041 70.4972 15.3041 70.5142 15.3041 70.5142C15.3793 70.5312 15.4544 70.5481 15.5045 70.5651C16.2558 70.7688 17.0572 70.8537 17.8836 70.8537ZM3.53349 53.5392C3.00756 54.2012 2.53173 54.8463 2.08094 55.4913V55.5083V55.5253C2.0559 55.5422 2.0559 55.5422 2.0559 55.5422C2.0559 55.5592 2.0559 55.5592 2.0559 55.5592C2.03085 55.5762 2.03085 55.5762 2.03085 55.5932C2.03085 55.5932 2.03085 55.5932 2.03085 55.6101C2.00581 55.6101 2.00581 55.6271 2.00581 55.6441H1.98076C1.98076 55.6611 1.98076 55.678 1.98076 55.678C1.95572 55.695 1.95572 55.695 1.95572 55.695C1.95572 55.712 1.95572 55.712 1.93068 55.729C1.93068 55.7459 1.93068 55.7629 1.90563 55.7799C1.27954 56.7984 0.828745 57.8508 0.778658 58.9542C0.778658 58.7505 0.828745 58.5468 0.853789 58.3431C0.853789 58.3431 0.853789 58.3261 0.878833 58.3261C0.878833 58.3092 0.878833 58.2752 0.903877 58.2413C0.903877 58.2243 0.903877 58.2243 0.903877 58.2243C0.903877 58.2073 0.903877 58.1903 0.903877 58.1734C0.903877 58.1564 0.903877 58.1394 0.928921 58.1224C0.928921 58.1055 0.928921 58.0885 0.928921 58.0715C0.953965 58.0545 0.953965 58.0376 0.953965 58.0206C1.0291 57.7999 1.12927 57.5792 1.22945 57.3416C1.25449 57.3246 1.25449 57.3076 1.25449 57.2907C1.27954 57.2737 1.27954 57.2567 1.27954 57.2397C1.30458 57.2397 1.30458 57.2228 1.30458 57.2228C1.30458 57.2058 1.32962 57.1888 1.32962 57.1718C1.32962 57.1718 1.32962 57.1549 1.35467 57.1549C1.35467 57.1379 1.35467 57.1379 1.35467 57.1209L1.37971 57.1039C1.37971 57.087 1.37971 57.07 1.40476 57.053C1.40476 57.053 1.40476 57.036 1.40476 57.0191C1.40476 57.0191 1.4298 57.0191 1.4298 57.0021C1.4298 56.9851 1.45484 56.9681 1.45484 56.9512C1.45484 56.9342 1.45484 56.9342 1.45484 56.9342C1.47989 56.9172 1.47989 56.9172 1.47989 56.9002C1.47989 56.9002 1.47989 56.9002 1.47989 56.8833C1.50493 56.8493 1.52997 56.8154 1.55502 56.7814C1.55502 56.7814 1.55502 56.7814 1.55502 56.7644C1.60511 56.7135 1.63015 56.6456 1.68024 56.5947C1.68024 56.5777 1.68024 56.5777 1.68024 56.5777C1.68024 56.5607 1.68024 56.5438 1.70528 56.5438C1.70528 56.5268 1.70528 56.5268 1.70528 56.5098C1.73033 56.4928 1.73033 56.4928 1.73033 56.4759C1.75537 56.4589 1.75537 56.4589 1.75537 56.4419C1.75537 56.4419 1.75537 56.4249 1.78041 56.408C1.78041 56.408 1.78041 56.391 1.80546 56.374V56.357C1.8305 56.3401 1.8305 56.3231 1.8305 56.3231C1.8305 56.3061 1.8305 56.3061 1.8305 56.3061C1.85555 56.2891 1.85555 56.2722 1.88059 56.2552C1.88059 56.2382 1.88059 56.2382 1.88059 56.2382C2.4566 55.2706 3.10774 54.2861 3.73384 53.3015C3.65871 53.3864 3.60862 53.4543 3.53349 53.5392Z" fill="url(#paint2_linear_341_27694)"/>
</g>
</g>
<defs>
<linearGradient id="paint0_linear_341_27694" x1="29.4988" y1="24.4485" x2="6.75339" y2="24.4485" gradientUnits="userSpaceOnUse">
<stop stop-color="#EAB93A"/>
<stop offset="1" stop-color="#FEFBF3"/>
</linearGradient>
<linearGradient id="paint1_linear_341_27694" x1="34.8786" y1="58.8256" x2="0.927074" y2="58.8256" gradientUnits="userSpaceOnUse">
<stop stop-color="#A4A4A3"/>
<stop offset="0.819608" stop-color="white"/>
<stop offset="1" stop-color="white"/>
</linearGradient>
<linearGradient id="paint2_linear_341_27694" x1="35.0527" y1="35.4265" x2="0.753613" y2="35.4265" gradientUnits="userSpaceOnUse">
<stop stop-color="#A4A4A3"/>
<stop offset="1" stop-color="#E9E9E9"/>
</linearGradient>
</defs>
</svg>
