<svg width="35" height="81" viewBox="0 0 35 81" fill="none" xmlns="http://www.w3.org/2000/svg">
<g id="Layer_x0020_1">
<g id="_-1681173016">
<path id="Vector" fill-rule="evenodd" clip-rule="evenodd" d="M19.8552 0.135742H19.8301H19.8051C19.78 0.135742 19.7299 0.135742 19.7048 0.135742C15.922 0.322527 13.8427 4.87329 12.0139 10.1882C10.3104 15.1635 6.62773 37.7645 6.35216 44.6925C6.25195 47.4773 6.02648 49.3961 5.70081 50.9583C5.75091 50.9243 5.77596 50.9073 5.82607 50.8734C5.82607 50.8734 5.85112 50.8564 5.87617 50.8564C9.15797 48.8867 13.6172 47.8848 17.9763 47.8848C18.0013 47.8848 18.0013 47.8848 18.0013 47.8848C18.0264 47.8848 18.0264 47.8848 18.0264 47.8848C22.2351 47.8848 26.3436 48.8187 29.2997 50.7036C29.3248 50.7206 29.3498 50.7375 29.3749 50.7545C29.425 50.7885 29.4751 50.8224 29.5252 50.8564C28.2225 46.0509 27.4208 36.9834 26.1682 31.2779C24.8154 25.148 21.9846 18.5765 21.709 11.2749C21.5837 7.62413 22.8864 2.07152 21.0576 0.543273V0.526293C21.0576 0.526293 21.0576 0.526293 21.0326 0.526293C20.9073 0.42441 20.757 0.322527 20.6067 0.271586C20.6067 0.271586 20.6067 0.271586 20.6067 0.254605C20.5817 0.254605 20.5817 0.254605 20.5817 0.254605C20.3812 0.169703 20.1307 0.135742 19.8552 0.135742Z" fill="url(#paint0_linear_341_27686)"/>
<path id="Vector_2" fill-rule="evenodd" clip-rule="evenodd" d="M17.149 80.8608H17.174H17.1991H17.2742C17.3744 80.8438 17.4997 80.8438 17.6249 80.8269C20.1552 80.4193 24.6896 76.7516 29.5747 73.4234C29.6248 73.4064 29.6499 73.3894 29.6749 73.3724C33.1321 71.0122 34.3095 68.1594 34.3095 65.2558C34.2845 60.2635 30.8774 55.0845 29.8002 51.8242C29.7 51.5186 29.5998 51.196 29.5246 50.8563C27.4704 49.4639 24.7898 48.564 21.8838 48.1565C20.6312 47.9697 19.3285 47.8848 18.0007 47.8848C13.5415 47.8848 9.00707 48.9206 5.70021 50.9582C5.32443 52.7072 4.79834 54.0147 4.07184 55.5599C3.06976 57.7504 0.464355 62.0974 0.464355 66.3425C0.464355 67.7519 0.764979 69.1443 1.51654 70.4518C4.47267 75.6478 12.1636 80.7589 17.149 80.8608Z" fill="url(#paint1_linear_341_27686)"/>
<path id="Vector_3" d="M20.0553 48.1057C24.6899 48.3944 27.9216 52.4357 29.7754 55.5092C31.8047 58.9053 36.9403 67.3106 29.7754 72.3198C25.5918 75.2405 24.9655 74.1367 25.5918 73.1179C26.8193 71.0803 28.6732 67.9898 28.3224 64.6786C27.5959 57.9713 16.2975 47.868 20.0553 48.1057Z" fill="#AFAFAD"/>
<path id="Vector_4" d="M21.3577 7.04664C21.3326 3.48074 19.1281 16.4368 20.1552 30.3778C21.1072 42.9433 17.5999 47.3073 19.2784 47.5281C21.8086 47.8507 23.1113 47.8507 25.2658 48.5469C26.9693 49.0903 21.4329 12.1238 21.3577 7.04664Z" fill="#E4BB47"/>
<path id="Vector_5" d="M12.3143 79.6553C12.3143 79.6553 14.3435 80.3855 15.07 79.6044C16.1723 78.4327 14.0178 77.4818 12.5397 77.329C10.0846 77.0743 8.23079 76.7856 6.00117 75.2234C3.74649 73.6442 5.45003 75.1215 5.45003 75.1215C5.45003 75.1215 9.38318 78.6025 12.3143 79.6553Z" fill="white"/>
<path id="Vector_6" fill-rule="evenodd" clip-rule="evenodd" d="M19.7794 0L19.7543 0C19.579 0 19.4287 0.0169805 19.2533 0.0509414C19.0779 0.0679219 18.9026 0.101883 18.7272 0.135844C9.30767 2.49613 6.07597 41.8738 5.92566 45.7454C5.54988 52.7074 4.24718 54.2356 2.24302 58.6505C1.06558 61.2146 0.263916 63.7956 0.263916 66.1899C0.263916 67.4464 0.489384 68.652 0.990422 69.7727C3.2952 74.3744 10.41 80.4025 17.1239 80.878C17.1489 80.878 17.1489 80.8949 17.199 80.8949C17.2241 80.8949 17.2742 80.8949 17.3243 80.878C17.3493 80.878 17.3744 80.878 17.3994 80.878C17.4245 80.878 17.4496 80.878 17.4746 80.861H17.4997C17.7502 80.827 18.151 80.7421 18.652 80.5553L18.6771 80.5383C18.7523 80.5214 18.8274 80.4874 18.9276 80.4534C18.9527 80.4365 18.9777 80.4195 19.0028 80.4195C19.0278 80.4025 19.0278 80.4025 19.0529 80.4025C19.128 80.3685 19.2032 80.3346 19.2783 80.3006C19.3786 80.2497 19.5038 80.1987 19.604 80.1308C19.6291 80.1308 19.6541 80.1138 19.6792 80.0969C19.7042 80.0799 19.7293 80.0799 19.7543 80.0629C21.7585 79.0611 24.0132 77.4139 29.8252 73.3896C33.3826 70.9614 34.5851 68.2105 34.5851 65.3408C34.6101 60.9938 31.8795 56.3582 30.3012 52.181C28.5225 46.8831 27.9964 38.257 26.2678 30.6837C24.3639 22.8387 21.9589 18.5087 21.9589 10.46C21.9589 9.35624 21.984 8.20156 22.0842 6.96199C22.2846 4.33002 22.51 1.51126 21.1823 0.441492C21.1823 0.441492 21.1823 0.424512 21.1572 0.424512C21.1572 0.424512 21.1572 0.424512 21.1322 0.407531C21.1322 0.407531 21.1322 0.407531 21.1322 0.390551C21.1322 0.390551 21.1322 0.390551 21.1071 0.390551C21.032 0.339609 20.9819 0.288668 20.9067 0.254707C20.8817 0.254707 20.8817 0.254707 20.8817 0.237727C20.8817 0.237727 20.8817 0.237727 20.8566 0.237727C20.8566 0.237727 20.8566 0.237727 20.8316 0.220746H20.8065V0.203766C20.5309 0.0849023 20.1802 0.0169805 19.7794 0ZM19.8295 0.288668C23.4119 0.305648 20.8817 7.57329 21.9088 14.739C21.9088 14.8409 21.9339 14.9428 21.9589 15.0447C21.9589 15.0617 21.9589 15.0787 21.9589 15.0956C22.7355 20.4954 24.6395 25.6745 25.8169 30.7346C27.4453 38.4098 27.9213 47.6132 29.5997 52.2829C30.6018 54.796 34.084 60.841 34.084 65.8502C34.084 67.1238 33.8586 68.3294 33.3074 69.3992C32.5308 70.9614 31.1029 72.2349 29.6248 73.2537C23.913 77.3121 21.6833 78.9761 19.7042 79.995C18.2011 80.7761 17.3744 80.827 17.199 80.827C17.1489 80.827 17.1489 80.827 17.1489 80.827C13.5414 80.5383 10.3599 78.7894 7.90476 76.9894C2.44344 72.9481 0.689799 69.4331 0.689799 66.1389C0.689799 61.4863 4.12192 57.2751 5.65008 52.6394C7.02794 48.5302 8.95694 3.20931 18.8775 0.424512C18.9026 0.407531 18.9276 0.407531 18.9777 0.390551C19.2783 0.322629 19.5539 0.288668 19.8044 0.288668C19.8044 0.288668 19.8044 0.288668 19.8295 0.288668Z" fill="url(#paint2_linear_341_27686)"/>
</g>
</g>
<defs>
<linearGradient id="paint0_linear_341_27686" x1="29.5187" y1="25.5421" x2="5.70181" y2="25.5421" gradientUnits="userSpaceOnUse">
<stop stop-color="#EAB93A"/>
<stop offset="1" stop-color="#FEFBF3"/>
</linearGradient>
<linearGradient id="paint1_linear_341_27686" x1="34.3013" y1="64.3692" x2="0.470619" y2="64.3692" gradientUnits="userSpaceOnUse">
<stop stop-color="#A4A4A3"/>
<stop offset="0.819608" stop-color="white"/>
<stop offset="1" stop-color="white"/>
</linearGradient>
<linearGradient id="paint2_linear_341_27686" x1="34.5956" y1="40.4475" x2="0.253395" y2="40.4475" gradientUnits="userSpaceOnUse">
<stop stop-color="#A4A4A3"/>
<stop offset="1" stop-color="#E9E9E9"/>
</linearGradient>
</defs>
</svg>
