<svg width="39" height="58" viewBox="0 0 39 58" fill="none" xmlns="http://www.w3.org/2000/svg">
<g id="Group 316">
<g id="_639945032">
<path id="Vector" fill-rule="evenodd" clip-rule="evenodd" d="M7.33719 57.9133H7.36224C7.88833 57.9133 8.41442 57.8114 8.91546 57.5906C8.94051 57.5737 8.96556 57.5567 8.99061 57.5567C9.04072 57.5227 9.09082 57.5057 9.14093 57.4888C9.19103 57.4718 9.24113 57.4548 9.26619 57.4378C10.2432 57.0642 11.1451 56.9284 11.9968 56.9284C12.0219 56.9284 12.0219 56.9284 12.0219 56.9284C12.9488 56.9284 13.8256 57.0982 14.6774 57.285C14.6774 57.285 14.7025 57.285 14.7275 57.285C14.8277 57.319 14.9279 57.3359 15.0532 57.3699C15.0782 57.3699 15.1033 57.3869 15.1283 57.3869C15.1534 57.3869 15.1784 57.4039 15.2035 57.4039C15.2285 57.4039 15.2536 57.4208 15.2787 57.4208C15.2787 57.4208 15.3037 57.4208 15.3288 57.4378C16.2056 57.6416 17.0824 57.8453 17.9342 57.8453C17.9592 57.8453 17.9843 57.8453 18.0344 57.8453C18.0594 57.8453 18.0845 57.8453 18.1095 57.8453C18.1346 57.8453 18.1346 57.8453 18.1596 57.8453C18.9613 57.8284 19.8632 57.5397 20.8151 57.2171C22.1679 56.7586 23.621 56.2152 25.1241 56.1982C25.1491 56.1982 25.1742 56.1982 25.1992 56.1982C25.8255 56.1982 26.4268 56.2831 27.028 56.5039C27.0531 56.5039 27.0531 56.5039 27.0531 56.5039L27.0781 56.5209C27.1032 56.5209 27.1032 56.5209 27.1282 56.5379C27.1282 56.5379 27.1533 56.5379 27.1533 56.5548C27.2034 56.5548 27.2284 56.5718 27.2535 56.5888C27.3537 56.6228 27.4539 56.6567 27.5541 56.7077C27.5792 56.7077 27.6042 56.7246 27.6293 56.7246C28.957 57.251 30.2597 57.7774 31.5875 57.7944C31.5875 57.7944 31.6125 57.7944 31.6376 57.7944H31.6626C33.3161 57.7774 34.9695 56.9284 36.673 54.1945C36.673 54.1776 36.673 54.1606 36.6981 54.1606C36.6981 54.1436 36.6981 54.1436 36.6981 54.1436C36.6981 54.1266 36.7231 54.1096 36.7231 54.0927C36.7231 54.0757 36.7482 54.0757 36.7482 54.0587C36.7732 54.0247 36.7732 53.9908 36.7983 53.9568C36.8233 53.9398 36.8233 53.9229 36.8233 53.9229C36.8484 53.9059 36.8484 53.8889 36.8484 53.8719L36.8734 53.8549C36.8734 53.838 36.8734 53.821 36.8985 53.804C36.8985 53.77 36.9235 53.7531 36.9486 53.7191C38.101 51.6984 38.5519 49.2363 38.5269 46.6722C38.5269 44.8044 38.3014 42.8856 37.9256 41.0517C37.8755 41.0856 37.8254 41.1026 37.8004 41.1196C32.4893 43.8534 25.5249 45.2628 18.7609 45.2628C18.7609 45.2628 18.7609 45.2628 18.7358 45.2628H18.7108C12.0971 45.2628 5.73386 43.9044 1.34977 41.1196C1.32472 41.1196 1.29967 41.1026 1.29967 41.0856C1.24956 41.0687 1.19946 41.0347 1.14935 41.0007C1.0742 41.1875 0.999043 41.3743 0.923887 41.5611C-2.03224 49.5928 2.65247 57.8114 7.26203 57.9133H7.33719Z" fill="url(#paint0_linear_912_1961)"/>
<path id="Vector_2" fill-rule="evenodd" clip-rule="evenodd" d="M21.2409 46.5024H21.2159C19.362 46.5364 18.7858 47.2666 18.7858 48.3194C18.7608 50.1532 20.5395 53.0399 20.5395 55.1455C20.5395 56.6058 19.6877 57.7096 16.8318 57.8454C18.1345 57.8624 19.4372 57.5058 20.79 57.1322C22.9194 56.5379 25.2242 55.9606 28.0801 56.8945C33.1156 58.5586 34.9694 56.7247 34.9694 54.67C34.9694 54.5172 34.9443 54.3644 34.9443 54.2286C34.6187 51.7494 31.863 49.2872 28.8818 52.2928C25.3745 55.8077 23.7461 55.1285 23.7461 53.1758C23.7461 52.8871 23.7962 52.5814 23.8463 52.2588C24.4476 49.474 24.4225 46.5024 21.2409 46.5024Z" fill="url(#paint1_linear_912_1961)"/>
<path id="Vector_3" d="M10.3684 57.0133C10.3684 57.0133 13.6753 56.419 16.2807 57.4378C18.0594 58.134 20.2138 57.6586 18.8109 56.2661C17.0573 54.5171 11.2953 55.9265 10.3684 57.0133Z" fill="white"/>
</g>
<g id="Group">
<path id="Vector_4" d="M0.896845 44.0253C0.896845 44.9531 3.84753 45.6475 6.32283 46.0666C9.97573 46.6853 14.5841 47.026 19.2992 47.026C24.0142 47.026 28.6226 46.6853 32.2755 46.0667C34.7508 45.6476 37.7017 44.9531 37.7017 44.0254C37.7017 43.972 37.7017 41.8222 37.7017 41.8222C37.7017 41.0627 36.7687 40.4448 35.6221 40.4448C35.6221 40.4448 34.2347 40.4448 33.7723 40.4448C33.0791 40.4448 32.7393 40.0623 32.7393 40.0623L27.281 33.5811C26.968 33.2093 26.6934 32.51 26.6934 32.0845L26.6934 28.5587C26.6934 27.933 26.0651 27.4787 25.1995 27.4787L25.1993 27.4787C24.9536 27.4787 24.7022 27.5153 24.4522 27.5878L13.5907 30.7358C12.6297 31.0142 11.9052 31.6711 11.9052 32.2636C11.9052 32.5936 11.6307 33.2092 11.3176 33.581L5.78407 40.1515C5.78407 40.1515 5.50692 40.4447 5.02168 40.4447C4.51038 40.4447 2.9766 40.4447 2.9766 40.4447C1.8299 40.4447 0.896985 41.0626 0.896985 41.8221C0.896985 41.8221 0.896845 43.9719 0.896845 44.0253Z" fill="#333232"/>
<path id="Vector_5" d="M13.399 15.9379C13.6448 15.9379 13.8962 15.9012 14.1461 15.8288L25.0077 12.6808C25.9528 12.4069 26.6931 11.6571 26.6931 10.9738L26.6931 9.22044C26.6931 8.59473 26.0648 8.14047 25.1991 8.14047C24.9535 8.14047 24.7018 8.1771 24.4519 8.24965L13.5903 11.3977C12.6452 11.6715 11.9049 12.4213 11.9049 13.1046L11.9049 14.858C11.905 15.4837 12.5333 15.9379 13.399 15.9379Z" fill="#333232"/>
<path id="Vector_6" d="M13.399 22.384C13.6448 22.384 13.8962 22.3474 14.1461 22.2749L25.0077 19.1269C25.9528 18.8531 26.6931 18.1032 26.6931 17.42L26.6931 15.6666C26.6931 15.0408 26.0648 14.5866 25.1991 14.5866C24.9535 14.5866 24.7018 14.6234 24.4519 14.6958L13.5903 17.8438C12.6452 18.1177 11.9049 18.8675 11.9049 19.5508L11.9049 21.3041C11.905 21.9299 12.5333 22.384 13.399 22.384Z" fill="#333232"/>
<path id="Vector_7" d="M13.399 9.49182C13.6448 9.49182 13.8962 9.45518 14.1461 9.38264L25.0077 6.23462C25.8466 5.99147 26.6931 5.52113 26.6931 5.01856C26.6931 4.59588 26.0864 3.99432 25.5227 3.61443L20.7653 0.40737C20.3754 0.144653 19.8547 -6.46321e-05 19.2991 -6.46643e-05C18.7436 -6.46965e-05 18.2229 0.144654 17.833 0.407463L13.0755 3.61434C12.4083 4.06411 11.9051 4.87889 11.9051 5.50946L11.9051 8.41193C11.905 9.03764 12.5333 9.49182 13.399 9.49182Z" fill="#333232"/>
<path id="Vector_8" d="M13.399 28.8301C13.6448 28.8301 13.8962 28.7934 14.1461 28.721L25.0077 25.573C25.9528 25.2991 26.6931 24.5493 26.6931 23.866L26.6931 22.1127C26.6931 21.4869 26.0648 21.0327 25.1991 21.0327C24.9535 21.0327 24.7018 21.0693 24.4519 21.1419L13.5903 24.2899C12.6452 24.5637 11.9049 25.3136 11.9049 25.9968L11.9049 27.7502C11.905 28.3759 12.5333 28.8301 13.399 28.8301Z" fill="#333232"/>
</g>
</g>
<defs>
<linearGradient id="paint0_linear_912_1961" x1="36.6121" y1="49.4595" x2="1.93022" y2="49.4595" gradientUnits="userSpaceOnUse">
<stop stop-color="#A4A4A3"/>
<stop offset="0.819608" stop-color="white"/>
<stop offset="1" stop-color="white"/>
</linearGradient>
<linearGradient id="paint1_linear_912_1961" x1="16.833" y1="52.1794" x2="34.9639" y2="52.1794" gradientUnits="userSpaceOnUse">
<stop stop-color="#C1C0BF"/>
<stop offset="0.321569" stop-color="#C1C0BF"/>
<stop offset="1" stop-color="#A4A4A3"/>
</linearGradient>
</defs>
</svg>
