<svg width="33" height="67" viewBox="0 0 33 67" fill="none" xmlns="http://www.w3.org/2000/svg">
<g id="Group 292">
<g id="Group">
<path id="Vector" d="M4.89701 44.0149C4.89701 44.9425 6.66078 45.6367 8.14037 46.0557C10.3239 46.6743 13.0786 47.0149 15.8969 47.0149C18.7153 47.0149 21.47 46.6743 23.6535 46.0558C25.1331 45.6368 26.897 44.9425 26.897 44.015C26.897 43.9616 26.897 41.8123 26.897 41.8123C26.897 41.053 26.3393 40.4352 25.6539 40.4352C25.6539 40.4352 24.8246 40.4352 24.5482 40.4352C24.1339 40.4352 23.9307 40.0528 23.9307 40.0528L20.6681 33.5731C20.4809 33.2015 20.3168 32.5023 20.3168 32.0769L20.3169 28.5519C20.3169 27.9263 19.9413 27.4722 19.4238 27.4722L19.4237 27.4722C19.2769 27.4722 19.1266 27.5088 18.9771 27.5813L12.4847 30.7285C11.9103 31.0069 11.4772 31.6637 11.4772 32.256C11.4772 32.5859 11.3131 33.2014 11.126 33.573L7.81833 40.142C7.81833 40.142 7.65267 40.4351 7.36262 40.4351C7.05699 40.4351 6.14017 40.4351 6.14017 40.4351C5.45474 40.4351 4.89709 41.0529 4.89709 41.8122C4.89709 41.8122 4.89701 43.9615 4.89701 44.0149Z" fill="#333232"/>
<path id="Vector_2" d="M12.3704 15.9342C12.5173 15.9342 12.6676 15.8976 12.817 15.8251L19.3094 12.6779C19.8744 12.4041 20.3169 11.6544 20.3169 10.9713L20.3169 9.21836C20.3169 8.5928 19.9413 8.13864 19.4239 8.13864C19.277 8.13864 19.1266 8.17527 18.9772 8.2478L12.4847 11.3951C11.9198 11.6688 11.4773 12.4185 11.4773 13.1016L11.4773 14.8546C11.4773 15.4801 11.8529 15.9342 12.3704 15.9342Z" fill="#333232"/>
<path id="Vector_3" d="M12.3704 22.3788C12.5173 22.3788 12.6676 22.3422 12.817 22.2697L19.3094 19.1224C19.8744 18.8487 20.3169 18.099 20.3169 17.4159L20.3169 15.6629C20.3169 15.0373 19.9413 14.5832 19.4239 14.5832C19.277 14.5832 19.1266 14.6199 18.9772 14.6924L12.4847 17.8397C11.9198 18.1135 11.4773 18.8631 11.4773 19.5462L11.4773 21.2992C11.4773 21.9247 11.8529 22.3788 12.3704 22.3788Z" fill="#333232"/>
<path id="Vector_4" d="M12.3704 9.48962C12.5173 9.48962 12.6676 9.45299 12.817 9.38046L19.3094 6.23319C19.8109 5.99009 20.3169 5.51986 20.3169 5.01741C20.3169 4.59483 19.9542 3.99342 19.6173 3.61362L16.7735 0.407314C16.5405 0.144658 16.2292 -2.52697e-05 15.8972 -2.52914e-05C15.5651 -2.53131e-05 15.2538 0.144659 15.0208 0.407406L12.177 3.61353C11.7782 4.06319 11.4774 4.87778 11.4774 5.50821L11.4774 8.40999C11.4773 9.03555 11.8529 9.48962 12.3704 9.48962Z" fill="#333232"/>
<path id="Vector_5" d="M12.3704 28.8234C12.5173 28.8234 12.6676 28.7867 12.817 28.7143L19.3094 25.567C19.8744 25.2933 20.3169 24.5436 20.3169 23.8605L20.3169 22.1075C20.3169 21.482 19.9413 21.0278 19.4239 21.0278C19.277 21.0278 19.1266 21.0644 18.9772 21.137L12.4847 24.2842C11.9198 24.558 11.4773 25.3077 11.4773 25.9908L11.4773 27.7437C11.4773 28.3693 11.8529 28.8234 12.3704 28.8234Z" fill="#333232"/>
</g>
<g id="Layer_x0020_1">
<g id="_-1943617176">
<path id="Vector_6" fill-rule="evenodd" clip-rule="evenodd" d="M16.3508 38.3159H16.3251C15.5819 38.3333 14.8387 38.3854 14.1211 38.507C10.7637 39.0803 7.66267 40.8521 5.09981 43.093C4.53598 46.4978 0.819824 53.1163 0.819824 58.6057C0.819824 61.7846 2.10126 64.5814 5.94555 66.1274C7.91896 66.9092 10.5331 66.7528 13.2497 66.5965C14.7105 66.5096 16.2226 66.4228 17.6578 66.4922C23.5781 66.7528 29.3701 67.0481 31.3179 64.0603C31.8305 63.2612 32.0611 62.3752 32.0611 61.3503C32.0355 58.015 29.6264 53.29 27.4736 45.2297C26.4228 43.7879 26.3459 41.9465 24.27 40.9042C24.0906 40.7653 23.8856 40.6437 23.7062 40.5221C21.2202 38.976 18.7342 38.3159 16.3508 38.3159Z" fill="url(#paint0_linear_898_1906)"/>
<path id="Vector_7" d="M23.347 40.7482C25.8843 43.2149 28.5496 54.8189 28.2421 60.7252C28.0114 64.7554 23.6802 61.1421 23.6033 55.3922C23.5264 48.4784 21.553 40.7482 18.6826 38.542C18.6826 38.542 21.3993 38.8547 23.347 40.7482Z" fill="#AFAFAD"/>
<path id="Vector_8" fill-rule="evenodd" clip-rule="evenodd" d="M18.2987 55.4617C18.145 56.4866 18.0937 58.5538 18.145 60.6036C18.2475 63.5393 18.5806 66.4577 19.2726 66.423C21.9124 66.2666 22.835 66.3709 23.3219 66.4577C23.8089 66.562 23.9627 66.6488 24.8853 66.5272C24.9622 66.5098 25.0134 66.4751 25.0134 66.4056C24.9878 65.7281 21.246 62.2191 18.6832 55.01C18.6575 54.9405 18.6319 54.8884 18.6063 54.8537C18.5806 54.8016 18.555 54.7842 18.5294 54.7842C18.4269 54.7842 18.35 55.0274 18.2987 55.4617Z" fill="url(#paint1_linear_898_1906)"/>
</g>
</g>
</g>
<defs>
<linearGradient id="paint0_linear_898_1906" x1="0.828282" y1="52.5236" x2="32.0542" y2="52.5236" gradientUnits="userSpaceOnUse">
<stop stop-color="white"/>
<stop offset="0.180392" stop-color="white"/>
<stop offset="1" stop-color="#A4A4A3"/>
</linearGradient>
<linearGradient id="paint1_linear_898_1906" x1="18.1942" y1="60.6837" x2="24.9396" y2="60.6837" gradientUnits="userSpaceOnUse">
<stop stop-color="#C1C0BF"/>
<stop offset="0.321569" stop-color="#C1C0BF"/>
<stop offset="1" stop-color="#A4A4A3"/>
</linearGradient>
</defs>
</svg>
