<svg width="35" height="74" viewBox="0 0 35 74" fill="none" xmlns="http://www.w3.org/2000/svg">
<g id="Group 293">
<g id="Group">
<path id="Vector" d="M4.89701 43.8088C4.89701 44.7217 6.82112 45.4049 8.43523 45.8173C10.8172 46.426 13.8223 46.7612 16.8969 46.7612C19.9716 46.7612 22.9767 46.426 25.3587 45.8174C26.9728 45.405 28.897 44.7217 28.897 43.8089C28.897 43.7564 28.897 41.6412 28.897 41.6412C28.897 40.8939 28.2886 40.286 27.5409 40.286C27.5409 40.286 26.6362 40.286 26.3347 40.286C25.8827 40.286 25.6611 39.9097 25.6611 39.9097L22.1018 33.5328C21.8977 33.1671 21.7187 32.479 21.7187 32.0603L21.7187 28.5913C21.7187 27.9757 21.3089 27.5287 20.7444 27.5287L20.7444 27.5287C20.5842 27.5287 20.4202 27.5648 20.2572 27.6361L13.1745 30.7334C12.5479 31.0073 12.0754 31.6537 12.0754 32.2366C12.0754 32.5613 11.8964 33.167 11.6923 33.5327L8.08391 39.9974C8.08391 39.9974 7.90319 40.2859 7.58677 40.2859C7.25335 40.2859 6.25319 40.2859 6.25319 40.2859C5.50545 40.2859 4.89711 40.8938 4.89711 41.6411C4.89711 41.6411 4.89701 43.7563 4.89701 43.8088Z" fill="#333232"/>
<path id="Vector_2" d="M13.0498 16.1738C13.2101 16.1738 13.374 16.1378 13.537 16.0665L20.6197 12.9692C21.236 12.6998 21.7188 11.962 21.7188 11.2897L21.7188 9.56459C21.7188 8.94895 21.309 8.502 20.7445 8.502C20.5843 8.502 20.4203 8.53805 20.2572 8.60943L13.1746 11.7067C12.5583 11.9762 12.0755 12.7139 12.0755 13.3862L12.0755 15.1113C12.0756 15.727 12.4853 16.1738 13.0498 16.1738Z" fill="#333232"/>
<path id="Vector_3" d="M13.0498 22.5161C13.2101 22.5161 13.374 22.4801 13.537 22.4088L20.6197 19.3115C21.236 19.042 21.7188 18.3043 21.7188 17.632L21.7188 15.9069C21.7188 15.2911 21.309 14.8443 20.7445 14.8443C20.5843 14.8443 20.4203 14.8804 20.2572 14.9517L13.1746 18.049C12.5583 18.3185 12.0755 19.0562 12.0755 19.7285L12.0755 21.4536C12.0756 22.0692 12.4853 22.5161 13.0498 22.5161Z" fill="#333232"/>
<path id="Vector_4" d="M13.0498 9.83154C13.2101 9.83154 13.374 9.79549 13.537 9.72412L20.6197 6.6268C21.1667 6.38756 21.7188 5.9248 21.7188 5.43032C21.7188 5.01445 21.3231 4.42258 20.9555 4.04881L17.8533 0.893397C17.599 0.634911 17.2595 0.492524 16.8972 0.492524C16.535 0.492524 16.1954 0.634911 15.9412 0.893488L12.8389 4.04872C12.4038 4.49124 12.0757 5.2929 12.0757 5.91332L12.0757 8.76905C12.0756 9.38468 12.4853 9.83154 13.0498 9.83154Z" fill="#333232"/>
<path id="Vector_5" d="M13.0498 28.8584C13.2101 28.8584 13.374 28.8224 13.537 28.7511L20.6197 25.6538C21.236 25.3843 21.7188 24.6465 21.7188 23.9743L21.7188 22.2492C21.7188 21.6335 21.309 21.1866 20.7445 21.1866C20.5843 21.1866 20.4203 21.2226 20.2572 21.294L13.1746 24.3913C12.5583 24.6607 12.0755 25.3985 12.0755 26.0708L12.0755 27.7959C12.0756 28.4115 12.4853 28.8584 13.0498 28.8584Z" fill="#333232"/>
</g>
<g id="Layer_x0020_1">
<g id="_450352312">
<path id="Vector_6" fill-rule="evenodd" clip-rule="evenodd" d="M16.8529 39.9874H16.7761C16.1353 39.9874 15.4946 40.0048 14.8539 40.0569C11.1378 40.3001 7.62663 41.2903 5.06377 43.0274C4.98688 43.3748 4.88437 43.7049 4.78186 44.0176C3.67982 47.3529 0.19433 52.6511 0.168701 57.7583C0.168701 60.7288 1.37325 63.6472 4.91 66.0618C10.292 69.7098 15.264 73.7573 17.7243 73.7226C22.8244 73.6184 30.6924 68.3896 33.7166 63.0739C34.4854 61.7364 34.793 60.3119 34.793 58.8701C34.793 54.5272 32.1276 50.0802 31.1025 47.8393C30.3592 46.2585 29.821 44.9209 29.4366 43.1316C27.9245 42.1936 26.1818 41.4814 24.2852 40.9602C21.9274 40.3175 19.3645 39.9874 16.8529 39.9874Z" fill="url(#paint0_linear_898_1907)"/>
<path id="Vector_7" d="M19.6975 40.126C24.4388 40.456 26.2328 43.1312 28.1294 46.6576C30.2053 50.5835 36.1768 63.2646 24.7976 70.6648C20.6202 73.3747 16.5708 73.948 17.7754 73.2184C19.4413 72.2282 26.9761 70.161 26.8736 58.14C26.8223 50.3924 15.8532 39.8654 19.6975 40.126Z" fill="#AFAFAD"/>
</g>
</g>
</g>
<defs>
<linearGradient id="paint0_linear_898_1907" x1="0.177671" y1="56.8512" x2="34.7871" y2="56.8512" gradientUnits="userSpaceOnUse">
<stop stop-color="white"/>
<stop offset="0.180392" stop-color="white"/>
<stop offset="1" stop-color="#A4A4A3"/>
</linearGradient>
</defs>
</svg>
