<svg width="35" height="66" viewBox="0 0 35 66" fill="none" xmlns="http://www.w3.org/2000/svg">
<g id="Group 294">
<g id="Group">
<path id="Vector" d="M4.89702 44.7136C4.89702 45.6559 6.66079 46.3612 8.14038 46.7868C10.3239 47.4152 13.0786 47.7612 15.897 47.7612C18.7153 47.7612 21.47 47.4152 23.6535 46.7869C25.1331 46.3613 26.897 45.6559 26.897 44.7137C26.897 44.6595 26.897 42.476 26.897 42.476C26.897 41.7047 26.3393 41.0771 25.6539 41.0771C25.6539 41.0771 24.8246 41.0771 24.5482 41.0771C24.1339 41.0771 23.9307 40.6887 23.9307 40.6887L20.6681 34.1061C20.4809 33.7286 20.3169 33.0183 20.3169 32.5861L20.3169 29.0052C20.3169 28.3697 19.9413 27.9083 19.4238 27.9083L19.4237 27.9083C19.2769 27.9083 19.1266 27.9455 18.9771 28.0191L12.4847 31.2163C11.9103 31.4991 11.4772 32.1663 11.4772 32.7681C11.4772 33.1032 11.3131 33.7285 11.126 34.106L7.81834 40.7792C7.81834 40.7792 7.65268 41.077 7.36263 41.077C7.057 41.077 6.14019 41.077 6.14019 41.077C5.45475 41.077 4.89711 41.7046 4.89711 42.4759C4.89711 42.4759 4.89702 44.6594 4.89702 44.7136Z" fill="#333232"/>
<path id="Vector_2" d="M12.3704 16.1873C12.5173 16.1873 12.6676 16.15 12.817 16.0765L19.3094 12.8792C19.8744 12.6011 20.3169 11.8395 20.3169 11.1456L20.3169 9.36481C20.3169 8.72932 19.9413 8.26795 19.4239 8.26795C19.277 8.26795 19.1266 8.30516 18.9772 8.37884L12.4847 11.5761C11.9198 11.8542 11.4773 12.6158 11.4773 13.3097L11.4773 15.0905C11.4774 15.726 11.8529 16.1873 12.3704 16.1873Z" fill="#333232"/>
<path id="Vector_3" d="M12.3704 22.7341C12.5173 22.7341 12.6676 22.6969 12.817 22.6233L19.3094 19.4261C19.8744 19.148 20.3169 18.3864 20.3169 17.6924L20.3169 15.9117C20.3169 15.2761 19.9413 14.8148 19.4239 14.8148C19.277 14.8148 19.1266 14.8521 18.9772 14.9257L12.4847 18.1229C11.9198 18.4011 11.4773 19.1626 11.4773 19.8566L11.4773 21.6374C11.4774 22.2729 11.8529 22.7341 12.3704 22.7341Z" fill="#333232"/>
<path id="Vector_4" d="M12.3704 9.64026C12.5173 9.64026 12.6676 9.60304 12.817 9.52937L19.3094 6.33214C19.8109 6.08518 20.3169 5.60749 20.3169 5.09706C20.3169 4.66777 19.9542 4.05681 19.6173 3.67098L16.7735 0.413785C16.5405 0.146961 16.2292 -1.91569e-05 15.8972 -1.91786e-05C15.5651 -1.92003e-05 15.2538 0.146962 15.0208 0.413879L12.177 3.67089C11.7782 4.12769 11.4774 4.95521 11.4774 5.59564L11.4774 8.54349C11.4774 9.17898 11.8529 9.64026 12.3704 9.64026Z" fill="#333232"/>
<path id="Vector_5" d="M12.3704 29.2809C12.5173 29.2809 12.6676 29.2437 12.817 29.1701L19.3094 25.9729C19.8744 25.6948 20.3169 24.9332 20.3169 24.2392L20.3169 22.4584C20.3169 21.823 19.9413 21.3616 19.4239 21.3616C19.277 21.3616 19.1266 21.3988 18.9772 21.4725L12.4847 24.6697C11.9198 24.9478 11.4773 25.7094 11.4773 26.4034L11.4773 28.1841C11.4774 28.8196 11.8529 29.2809 12.3704 29.2809Z" fill="#333232"/>
</g>
<g id="Layer_x0020_1">
<g id="_-1958919896">
<path id="Vector_6" fill-rule="evenodd" clip-rule="evenodd" d="M5.91935 43.6495C5.89372 43.6669 5.84246 43.6669 5.81683 43.6843C3.48463 47.0717 0.460449 49.3126 0.460449 54.1765C0.460449 58.8321 10.5581 64.912 17.2985 65.0684C21.194 65.1379 34.2134 59.11 34.2134 54.1071C34.2134 50.598 28.2931 46.9674 27.063 42.9547C24.7308 42.2945 22.091 42.0166 19.3488 42.0166C14.8894 42.0166 10.1224 42.7288 5.91935 43.6495Z" fill="url(#paint0_linear_898_1908)"/>
<path id="Vector_7" fill-rule="evenodd" clip-rule="evenodd" d="M22.1675 42.3291H22.1162H22.065C21.2961 42.3291 20.5016 42.3812 19.9378 42.5376C19.3483 42.6939 19.092 42.9892 19.092 43.3888C19.092 45.0564 23.3464 48.5133 23.3464 51.8486C23.3208 52.4392 23.1926 53.0125 22.8851 53.5857C21.3217 56.3999 20.7066 58.5713 20.7066 60.1174C20.681 62.9142 22.6544 63.748 24.5253 62.862C29.241 60.6732 34.2129 57.199 34.2129 54.1069C34.2129 50.8584 27.0369 47.0541 24.9866 43.3193C24.6791 42.7634 23.9359 42.3812 23.0645 42.3465C22.7826 42.3465 22.475 42.3291 22.1675 42.3291Z" fill="url(#paint1_linear_898_1908)"/>
</g>
</g>
</g>
<defs>
<linearGradient id="paint0_linear_898_1908" x1="0.473007" y1="53.5371" x2="34.2121" y2="53.5371" gradientUnits="userSpaceOnUse">
<stop stop-color="white"/>
<stop offset="0.180392" stop-color="white"/>
<stop offset="1" stop-color="#A4A4A3"/>
</linearGradient>
<linearGradient id="paint1_linear_898_1908" x1="19.0972" y1="52.7691" x2="34.2117" y2="52.7691" gradientUnits="userSpaceOnUse">
<stop stop-color="#C1C0BF"/>
<stop offset="0.321569" stop-color="#C1C0BF"/>
<stop offset="1" stop-color="#A4A4A3"/>
</linearGradient>
</defs>
</svg>
