<svg width="35" height="66" viewBox="0 0 35 66" fill="none" xmlns="http://www.w3.org/2000/svg">
<g id="Group 295">
<g id="Group">
<path id="Vector" d="M5.89703 45.4122C5.89703 46.3692 7.82114 47.0855 9.43525 47.5178C11.8173 48.156 14.8223 48.5074 17.897 48.5074C20.9716 48.5074 23.9767 48.156 26.3587 47.5179C27.9728 47.0856 29.897 46.3692 29.897 45.4123C29.897 45.3573 29.897 43.1397 29.897 43.1397C29.897 42.3562 29.2886 41.7189 28.5409 41.7189C28.5409 41.7189 27.6362 41.7189 27.3347 41.7189C26.8827 41.7189 26.6611 41.3244 26.6611 41.3244L23.1018 34.6389C22.8977 34.2555 22.7187 33.5341 22.7187 33.0952L22.7187 29.4583C22.7187 28.8129 22.3089 28.3443 21.7445 28.3443L21.7444 28.3443C21.5842 28.3443 21.4202 28.3821 21.2572 28.4569L14.1745 31.704C13.5479 31.9912 13.0754 32.6689 13.0754 33.28C13.0754 33.6204 12.8964 34.2554 12.6923 34.6388L9.08393 41.4163C9.08393 41.4163 8.90321 41.7188 8.58679 41.7188C8.25337 41.7188 7.25321 41.7188 7.25321 41.7188C6.50547 41.7188 5.89713 42.3561 5.89713 43.1396C5.89713 43.1396 5.89703 45.3572 5.89703 45.4122Z" fill="#333232"/>
<path id="Vector_2" d="M14.0498 16.4401C14.2101 16.4401 14.374 16.4023 14.537 16.3275L21.6197 13.0804C22.236 12.7979 22.7188 12.0244 22.7188 11.3196L22.7188 9.51102C22.7188 8.8656 22.309 8.39702 21.7445 8.39702C21.5843 8.39702 21.4203 8.43481 21.2573 8.50964L14.1746 11.7568C13.5583 12.0393 13.0755 12.8128 13.0755 13.5176L13.0755 15.3262C13.0756 15.9716 13.4853 16.4401 14.0498 16.4401Z" fill="#333232"/>
<path id="Vector_3" d="M14.0498 23.0892C14.2101 23.0892 14.374 23.0514 14.537 22.9767L21.6197 19.7295C22.236 19.4471 22.7188 18.6736 22.7188 17.9688L22.7188 16.1602C22.7188 15.5147 22.309 15.0462 21.7445 15.0462C21.5843 15.0462 21.4203 15.0841 21.2573 15.1588L14.1746 18.406C13.5583 18.6885 13.0755 19.4619 13.0755 20.1667L13.0755 21.9753C13.0756 22.6207 13.4853 23.0892 14.0498 23.0892Z" fill="#333232"/>
<path id="Vector_4" d="M14.0498 9.79089C14.2101 9.79089 14.374 9.7531 14.537 9.67827L21.6197 6.43108C22.1667 6.18027 22.7188 5.69511 22.7188 5.17671C22.7188 4.74071 22.3231 4.12021 21.9555 3.72835L18.8533 0.420256C18.599 0.149263 18.2595 -1.38385e-05 17.8972 -1.38622e-05C17.535 -1.38858e-05 17.1954 0.149263 16.9412 0.420352L13.8389 3.72825C13.4038 4.19219 13.0757 5.03264 13.0757 5.68308L13.0757 8.67699C13.0756 9.32241 13.4853 9.79089 14.0498 9.79089Z" fill="#333232"/>
<path id="Vector_5" d="M14.0498 29.7383C14.2101 29.7383 14.374 29.7005 14.537 29.6258L21.6197 26.3786C22.236 26.0961 22.7188 25.3226 22.7188 24.6178L22.7188 22.8092C22.7188 22.1638 22.309 21.6952 21.7445 21.6952C21.5843 21.6952 21.4203 21.733 21.2573 21.8079L14.1746 25.055C13.5583 25.3375 13.0755 26.111 13.0755 26.8158L13.0755 28.6244C13.0756 29.2698 13.4853 29.7383 14.0498 29.7383Z" fill="#333232"/>
</g>
<g id="Layer_x0020_1">
<g id="_453490808">
<path id="Vector_6" d="M12.2904 45.2034C11.0879 46.2732 3.52219 51.1296 8.48247 60.9273C8.8332 61.6405 12.3154 64.7819 10.4365 60.299C6.30295 50.3994 14.044 43.6072 12.2904 45.2034Z" fill="#E9EAE9"/>
<path id="Vector_7" fill-rule="evenodd" clip-rule="evenodd" d="M13.2921 44.6261C12.8913 45.577 5.82662 49.4316 7.22953 56.4106C7.40489 57.2766 7.48005 57.9728 7.48005 58.5162C7.48005 63.1348 2.01873 57.6332 2.01873 54.9672C2.01873 51.8428 4.39866 45.1865 12.5155 44.4224C12.5405 44.4224 12.5656 44.4224 12.5906 44.4224C12.7159 44.4054 12.8161 44.4054 12.8913 44.4054C13.242 44.4054 13.3422 44.4903 13.2921 44.6261Z" fill="url(#paint0_linear_898_1909)"/>
<path id="Vector_8" fill-rule="evenodd" clip-rule="evenodd" d="M15.0237 42.9996H14.9724C13.7146 42.9996 12.4826 43.0529 11.3275 43.1594C9.83881 43.3191 7.9115 43.6269 6.65378 43.9996C1.6865 49.5768 0.752351 50.2898 0.752351 54.9996C0.64968 55.3901 0.752419 55.9904 0.752419 56.3631C0.778087 62.7342 15.0494 65.9996 17.7188 65.9996C24.8801 65.9996 36.1606 59.9996 34.6852 55.2982C34.6852 50.4001 31.6821 48.1462 29.3463 44.7211C25.0341 43.7628 19.8236 42.9996 15.0237 42.9996Z" fill="url(#paint1_linear_898_1909)"/>
</g>
</g>
</g>
<defs>
<linearGradient id="paint0_linear_898_1909" x1="13.3039" y1="52.3558" x2="2.01397" y2="52.3558" gradientUnits="userSpaceOnUse">
<stop stop-color="#C1C0BF"/>
<stop offset="0.321569" stop-color="#C1C0BF"/>
<stop offset="1" stop-color="#A4A4A3"/>
</linearGradient>
<linearGradient id="paint1_linear_898_1909" x1="34.6965" y1="54.4957" x2="0.759025" y2="54.4957" gradientUnits="userSpaceOnUse">
<stop stop-color="#A4A4A3"/>
<stop offset="0.819608" stop-color="white"/>
<stop offset="1" stop-color="white"/>
</linearGradient>
</defs>
</svg>
