<svg width="41" height="64" viewBox="0 0 41 64" fill="none" xmlns="http://www.w3.org/2000/svg">
<g id="Group 297">
<g id="Group">
<path id="Vector" d="M5.00009 46.8095C5.00009 47.796 7.48539 48.5343 9.57028 48.9799C12.647 49.6378 16.5286 50 20.5 50C24.4714 50 28.3529 49.6378 31.4297 48.98C33.5146 48.5344 36 47.796 36 46.8096C36 46.7529 36 44.4671 36 44.4671C36 43.6595 35.2142 43.0025 34.2484 43.0025C34.2484 43.0025 33.0798 43.0025 32.6904 43.0025C32.1065 43.0025 31.8203 42.5959 31.8203 42.5959L27.2229 35.7048C26.9592 35.3095 26.728 34.5659 26.728 34.1135L26.728 30.3647C26.728 29.6995 26.1988 29.2165 25.4697 29.2165L25.4695 29.2165C25.2626 29.2165 25.0508 29.2554 24.8403 29.3324L15.6918 32.6795C14.8825 32.9756 14.2722 33.6741 14.2722 34.304C14.2722 34.6549 14.041 35.3094 13.7773 35.7047L9.1165 42.6907C9.1165 42.6907 8.88306 43.0024 8.47435 43.0024C8.04369 43.0024 6.75182 43.0024 6.75182 43.0024C5.78598 43.0024 5.00021 43.6594 5.00021 44.467C5.00021 44.467 5.00009 46.7528 5.00009 46.8095Z" fill="#333232"/>
<path id="Vector_2" d="M15.5309 16.9459C15.738 16.9459 15.9497 16.907 16.1602 16.8299L25.3086 13.4828C26.1047 13.1917 26.7283 12.3944 26.7283 11.6679L26.7283 9.80367C26.7283 9.13839 26.1991 8.65539 25.4699 8.65539C25.263 8.65539 25.051 8.69435 24.8405 8.77148L15.6921 12.1186C14.896 12.4097 14.2724 13.207 14.2724 13.9335L14.2724 15.7977C14.2726 16.463 14.8018 16.9459 15.5309 16.9459Z" fill="#333232"/>
<path id="Vector_3" d="M15.5309 23.7996C15.738 23.7996 15.9497 23.7606 16.1602 23.6836L25.3086 20.3365C26.1047 20.0453 26.7283 19.248 26.7283 18.5215L26.7283 16.6573C26.7283 15.9919 26.1991 15.509 25.4699 15.509C25.263 15.509 25.051 15.5481 24.8405 15.6251L15.6921 18.9722C14.896 19.2635 14.2724 20.0606 14.2724 20.7871L14.2724 22.6514C14.2726 23.3167 14.8018 23.7996 15.5309 23.7996Z" fill="#333232"/>
<path id="Vector_4" d="M15.5309 10.0922C15.738 10.0922 15.9497 10.0532 16.1602 9.97607L25.3086 6.62897C26.0152 6.37043 26.7283 5.87035 26.7283 5.336C26.7283 4.88659 26.2173 4.24698 25.7425 3.84307L21.7354 0.433184C21.407 0.153852 20.9684 -1.78353e-05 20.5005 -1.78629e-05C20.0326 -1.78906e-05 19.594 0.153853 19.2656 0.433283L15.2585 3.84297C14.6965 4.32118 14.2727 5.18749 14.2727 5.85795L14.2727 8.94398C14.2726 9.60926 14.8018 10.0922 15.5309 10.0922Z" fill="#333232"/>
<path id="Vector_5" d="M15.5309 30.6534C15.738 30.6534 15.9497 30.6145 16.1602 30.5375L25.3086 27.1903C26.1047 26.8992 26.7283 26.1019 26.7283 25.3754L26.7283 23.5112C26.7283 22.8459 26.1991 22.3629 25.4699 22.3629C25.263 22.3629 25.051 22.4019 24.8405 22.479L15.6921 25.8261C14.896 26.1172 14.2724 26.9145 14.2724 27.641L14.2724 29.5053C14.2726 30.1705 14.8018 30.6534 15.5309 30.6534Z" fill="#333232"/>
</g>
<g id="Layer_x0020_1">
<g id="_732009192">
<path id="Vector_6" fill-rule="evenodd" clip-rule="evenodd" d="M1.17467 50.1925C0.79024 51.3563 0.61084 52.3986 0.61084 53.3367C0.61084 58.4091 5.63405 60.1984 8.65823 60.4068C13.8608 60.7542 13.1176 59.0171 16.0393 59.0171C21.2419 59.0171 23.1897 63.3947 32.0828 63.5684C36.3628 63.6553 40.4121 61.1885 40.4121 56.672C40.4121 54.6916 39.6176 52.3291 37.7467 49.6018C37.4392 49.1849 37.1829 48.7333 36.9779 48.2816C26.137 45.1548 12.9895 49.2892 5.07022 42.9486C3.99382 45.6759 2.12293 47.3957 1.17467 50.1925Z" fill="url(#paint0_linear_898_1911)"/>
<path id="Vector_7" d="M4.81378 59.4337C4.58313 59.2599 5.40324 59.6074 5.71079 59.6421C7.9661 59.8679 9.11939 58.4609 13.1175 58.1134C15.8854 57.8702 18.9352 59.3294 19.499 59.8158C19.499 59.8158 16.5004 57.9223 13.4506 59.7463C10.529 61.5182 5.68516 60.0069 4.81378 59.4337Z" fill="#C2C0BE"/>
<path id="Vector_8" d="M35.8754 51.8083C37.6437 54.9699 36.106 60.1291 31.5185 61.3973C27.0079 62.6306 27.2129 62.0226 29.6476 60.4939C31.6723 59.2258 31.9798 56.6028 31.3647 54.4313C30.4165 51.1829 25.5727 47.9866 23.1123 46.9095L28.8787 47.0659C32.0567 47.8476 34.6708 49.689 35.8754 51.8083Z" fill="#AFAFAD"/>
</g>
</g>
</g>
<defs>
<linearGradient id="paint0_linear_898_1911" x1="0.60879" y1="53.2634" x2="40.3998" y2="53.2634" gradientUnits="userSpaceOnUse">
<stop stop-color="white"/>
<stop offset="0.180392" stop-color="white"/>
<stop offset="1" stop-color="#A4A4A3"/>
</linearGradient>
</defs>
</svg>
