<svg width="40" height="58" viewBox="0 0 40 58" fill="none" xmlns="http://www.w3.org/2000/svg">
<g id="Group 298">
<g id="Group">
<path id="Vector" d="M0.897088 44.9119C0.897088 45.8584 3.94359 46.5668 6.49925 46.9943C10.2708 47.6255 15.0288 47.973 19.897 47.973C24.7651 47.973 29.5231 47.6255 33.2947 46.9944C35.8503 46.5668 38.897 45.8584 38.897 44.912C38.897 44.8575 38.897 42.6644 38.897 42.6644C38.897 41.8896 37.9338 41.2593 36.7498 41.2593C36.7498 41.2593 35.3174 41.2593 34.84 41.2593C34.1243 41.2593 33.7735 40.8691 33.7735 40.8691L28.138 34.2573C27.8147 33.8781 27.5313 33.1647 27.5313 32.7306L27.5313 29.1338C27.5313 28.4955 26.8826 28.0321 25.9888 28.0321L25.9887 28.0321C25.735 28.0321 25.4754 28.0695 25.2173 28.1434L14.0031 31.3548C13.0109 31.6388 12.2629 32.309 12.2629 32.9134C12.2629 33.25 11.9795 33.878 11.6562 34.2572L5.943 40.96C5.943 40.96 5.65686 41.2592 5.15586 41.2592C4.62795 41.2592 3.04437 41.2592 3.04437 41.2592C1.86044 41.2592 0.897232 41.8895 0.897232 42.6643C0.897232 42.6643 0.897088 44.8574 0.897088 44.9119Z" fill="#333232"/>
<path id="Vector_2" d="M13.806 16.259C14.0597 16.259 14.3193 16.2217 14.5773 16.1477L25.7916 12.9363C26.7674 12.657 27.5317 11.892 27.5317 11.195L27.5317 9.40634C27.5317 8.76803 26.883 8.30462 25.9892 8.30462C25.7356 8.30462 25.4758 8.34199 25.2177 8.416L14.0035 11.6274C13.0277 11.9067 12.2633 12.6717 12.2633 13.3687L12.2633 15.1574C12.2635 15.7957 12.9122 16.259 13.806 16.259Z" fill="#333232"/>
<path id="Vector_3" d="M13.806 22.8348C14.0597 22.8348 14.3193 22.7975 14.5773 22.7236L25.7916 19.5121C26.7674 19.2328 27.5317 18.4678 27.5317 17.7708L27.5317 15.9821C27.5317 15.3437 26.883 14.8804 25.9892 14.8804C25.7356 14.8804 25.4758 14.9179 25.2177 14.9918L14.0035 18.2032C13.0277 18.4826 12.2633 19.2475 12.2633 19.9446L12.2633 21.7332C12.2635 22.3715 12.9122 22.8348 13.806 22.8348Z" fill="#333232"/>
<path id="Vector_4" d="M13.8059 9.6831C14.0597 9.6831 14.3193 9.64573 14.5773 9.57172L25.7916 6.36032C26.6577 6.11226 27.5317 5.63245 27.5317 5.11976C27.5317 4.68857 26.9053 4.0749 26.3233 3.68736L21.4114 0.415721C21.0089 0.147713 20.4712 8.12888e-05 19.8977 8.1255e-05C19.3241 8.12211e-05 18.7865 0.147714 18.3839 0.415815L13.472 3.68727C12.7831 4.14609 12.2636 4.97728 12.2636 5.62056L12.2636 8.58147C12.2634 9.21978 12.9122 9.6831 13.8059 9.6831Z" fill="#333232"/>
<path id="Vector_5" d="M13.806 29.4108C14.0597 29.4108 14.3193 29.3734 14.5773 29.2995L25.7916 26.0881C26.7674 25.8087 27.5317 25.0438 27.5317 24.3467L27.5317 22.5581C27.5317 21.9198 26.883 21.4564 25.9892 21.4563C25.7356 21.4563 25.4758 21.4937 25.2177 21.5677L14.0035 24.7791C13.0277 25.0585 12.2633 25.8234 12.2633 26.5205L12.2633 28.3091C12.2635 28.9474 12.9122 29.4108 13.806 29.4108Z" fill="#333232"/>
</g>
<g id="Layer_x0020_1">
<g id="_804523640">
<path id="Vector_6" fill-rule="evenodd" clip-rule="evenodd" d="M0.688849 40.9331C0.304419 42.7398 0.0737614 44.6506 0.0737614 46.5093C0.0481328 49.0629 0.509448 51.5123 1.68837 53.5274C5.07135 59.2773 8.32618 57.5923 11.7092 56.3415C15.0665 55.0908 18.4239 57.5749 20.9098 57.627C21.935 57.6617 22.9345 57.4185 24.0109 57.1753C25.8818 56.7411 27.9065 56.3068 30.3668 57.3664C34.493 59.1383 39.4906 53.5274 39.4906 46.5962C39.4906 44.7375 39.1318 42.7919 38.3117 40.8636C29.2392 46.6309 11.5041 46.3877 0.688849 40.9331Z" fill="url(#paint0_linear_898_1912)"/>
<path id="Vector_7" fill-rule="evenodd" clip-rule="evenodd" d="M31.0071 52.1029C28.9056 52.7456 28.7774 50.6611 28.2136 48.5765C27.7266 46.6657 26.8553 44.7548 23.7798 44.9633C22.8572 45.4844 22.5497 46.353 22.5497 47.3953C22.5753 49.4798 23.8055 52.294 23.8055 54.4654C23.7798 56.0288 23.1391 57.2448 20.9351 57.627C21.9602 57.6444 22.9597 57.4185 24.0105 57.1753C25.8814 56.7411 27.906 56.3068 30.3664 57.3664C34.4926 59.1383 39.4902 53.5274 39.4902 46.5962C39.4902 44.7375 39.1314 42.7919 38.3113 40.8636C30.2126 44.5116 34.877 50.9217 31.0071 52.1029Z" fill="url(#paint1_linear_898_1912)"/>
<path id="Vector_8" d="M13.8618 55.9077C13.8618 55.9077 17.0141 56.6894 19.5001 57.4017C21.3966 57.9402 23.5238 57.6101 22.0886 56.2378C20.2946 54.5007 14.8357 54.8307 13.8618 55.9077Z" fill="white"/>
</g>
</g>
</g>
<defs>
<linearGradient id="paint0_linear_898_1912" x1="0.0622285" y1="49.2844" x2="39.4847" y2="49.2844" gradientUnits="userSpaceOnUse">
<stop stop-color="white"/>
<stop offset="0.180392" stop-color="white"/>
<stop offset="1" stop-color="#A4A4A3"/>
</linearGradient>
<linearGradient id="paint1_linear_898_1912" x1="20.9399" y1="49.2842" x2="39.4838" y2="49.2842" gradientUnits="userSpaceOnUse">
<stop stop-color="#C1C0BF"/>
<stop offset="0.321569" stop-color="#C1C0BF"/>
<stop offset="1" stop-color="#A4A4A3"/>
</linearGradient>
</defs>
</svg>
