<svg width="40" height="60" viewBox="0 0 40 60" fill="none" xmlns="http://www.w3.org/2000/svg">
<g id="Group 317">
<g id="Group 284">
<g id="Group">
<path id="Vector" d="M3.89697 44.9994C3.89697 45.9272 6.36662 46.6216 8.43838 47.0407C11.4958 47.6594 15.3529 48.0001 19.2993 48.0001C23.2456 48.0001 27.1027 47.6594 30.1601 47.0408C32.2319 46.6217 34.7017 45.9272 34.7017 44.9995C34.7017 44.9461 34.7017 42.7963 34.7017 42.7963C34.7017 42.0368 33.9208 41.4189 32.9611 41.4189C32.9611 41.4189 31.7999 41.4189 31.4129 41.4189C30.8327 41.4189 30.5483 41.0364 30.5483 41.0364L25.9798 34.5552C25.7178 34.1835 25.4881 33.4841 25.4881 33.0586L25.4881 29.5328C25.4881 28.9071 24.9622 28.4528 24.2376 28.4528L24.2375 28.4528C24.0319 28.4528 23.8214 28.4894 23.6122 28.5619L14.5214 31.7099C13.7171 31.9883 13.1107 32.6453 13.1107 33.2377C13.1107 33.5678 12.8809 34.1834 12.6189 34.5551L7.98746 41.1256C7.98746 41.1256 7.75549 41.4188 7.34936 41.4188C6.92141 41.4188 5.63767 41.4188 5.63767 41.4188C4.67792 41.4188 3.89709 42.0367 3.89709 42.7962C3.89709 42.7962 3.89697 44.946 3.89697 44.9994Z" fill="#333232"/>
<path id="Vector_2" d="M14.3607 16.912C14.5664 16.912 14.7768 16.8753 14.986 16.8029L24.0769 13.6549C24.8679 13.3811 25.4875 12.6312 25.4875 11.9479L25.4875 10.1946C25.4875 9.56885 24.9617 9.11459 24.2371 9.11459C24.0315 9.11459 23.8209 9.15123 23.6117 9.22377L14.5208 12.3718C13.7298 12.6456 13.1102 13.3955 13.1102 14.0788L13.1102 15.8321C13.1103 16.4578 13.6362 16.912 14.3607 16.912Z" fill="#333232"/>
<path id="Vector_3" d="M14.3607 23.3582C14.5664 23.3582 14.7768 23.3215 14.986 23.2491L24.0769 20.101C24.8679 19.8272 25.4875 19.0774 25.4875 18.3941L25.4875 16.6407C25.4875 16.0149 24.9617 15.5608 24.2371 15.5608C24.0315 15.5608 23.8209 15.5975 23.6117 15.6699L14.5208 18.818C13.7298 19.0919 13.1102 19.8416 13.1102 20.5249L13.1102 22.2783C13.1103 22.904 13.6362 23.3582 14.3607 23.3582Z" fill="#333232"/>
<path id="Vector_4" d="M14.3607 10.4659C14.5664 10.4659 14.7768 10.4293 14.986 10.3568L24.0769 7.20874C24.779 6.96559 25.4875 6.49525 25.4875 5.99268C25.4875 5.57 24.9798 4.96844 24.508 4.58855L20.5261 1.38149C20.1998 1.11877 19.7639 0.974057 19.299 0.974056C18.834 0.974056 18.3982 1.11877 18.0719 1.38158L14.09 4.58846C13.5315 5.03823 13.1104 5.85301 13.1104 6.48359L13.1104 9.38605C13.1103 10.0118 13.6362 10.4659 14.3607 10.4659Z" fill="#333232"/>
<path id="Vector_5" d="M14.3607 29.8042C14.5664 29.8042 14.7768 29.7676 14.986 29.6951L24.0769 26.5471C24.8679 26.2733 25.4875 25.5234 25.4875 24.8401L25.4875 23.0868C25.4875 22.4611 24.9617 22.0068 24.2371 22.0068C24.0315 22.0068 23.8209 22.0434 23.6117 22.116L14.5208 25.264C13.7298 25.5378 13.1102 26.2877 13.1102 26.971L13.1102 28.7243C13.1103 29.35 13.6362 29.8042 14.3607 29.8042Z" fill="#333232"/>
</g>
<g id="Layer_x0020_1">
<g id="_647330928">
<path id="Vector_6" fill-rule="evenodd" clip-rule="evenodd" d="M3.54023 44.472C3.31476 44.9305 3.08929 45.389 2.78867 45.8135C2.73856 45.9154 2.66341 46.0172 2.58825 46.1021C2.58825 46.1191 2.58825 46.1191 2.58825 46.1361C2.53815 46.187 2.5131 46.255 2.46299 46.3059C2.46299 46.3229 2.43794 46.3399 2.43794 46.3568C2.43794 46.3738 2.41289 46.3908 2.41289 46.4078C-2.92318 54.881 2.28763 59.8393 8.07463 59.8563C8.09968 59.8563 8.09968 59.8563 8.09968 59.8563C8.14978 59.8563 8.19989 59.8563 8.24999 59.8563C8.27504 59.8563 8.3001 59.8563 8.32515 59.8563C17.0182 59.6695 18.9221 55.2716 24.0077 55.2716C24.4586 55.2716 24.8093 55.3056 25.11 55.3735C26.588 55.7301 26.8886 56.7149 29.945 56.7149C29.97 56.7149 29.97 56.7149 29.97 56.7149C30.3208 56.7149 30.6715 56.7149 31.0723 56.681C31.1224 56.681 31.1725 56.681 31.2226 56.664C34.1537 56.4772 39.0889 54.6603 39.0889 49.5662C39.0889 48.6322 38.9136 47.5794 38.5378 46.3908C37.6109 43.589 35.7821 41.857 34.7299 39.1232C26.9638 45.4908 14.1372 41.3306 3.54023 44.472Z" fill="url(#paint0_linear_912_1962)"/>
<path id="Vector_7" fill-rule="evenodd" clip-rule="evenodd" d="M23.557 51.3157C23.056 51.4855 22.6301 51.7063 22.2543 51.961C18.0205 54.8137 18.6468 57.0042 13.2356 59.1268C15.1395 58.7871 18.6218 56.7834 20.6259 55.9514C20.651 55.9344 20.7011 55.9174 20.7261 55.9005C20.7512 55.9005 20.7512 55.8835 20.7762 55.8835C22.5299 55.1363 25.1102 53.9138 28.2668 53.9138H28.2918C28.2918 53.9138 28.2918 53.9138 28.3169 53.9138C29.9202 53.9138 31.6738 54.2364 33.5527 55.0854V55.1024C33.6028 55.1194 33.6529 55.1363 33.678 55.1533C33.703 55.1533 33.703 55.1703 33.7281 55.1703C33.7531 55.1703 33.7531 55.1873 33.7782 55.2043C34.2291 55.408 34.6049 55.5099 34.9055 55.5099C34.9306 55.5099 34.9306 55.5099 34.9556 55.5099C34.9556 55.5099 34.9556 55.5099 34.9807 55.5099C36.1581 55.4929 36.4086 54.2534 35.5569 53.4383C33.6279 51.6553 30.296 50.7384 27.2897 50.7384C25.9369 50.7384 24.6342 50.9252 23.557 51.3157Z" fill="url(#paint1_linear_912_1962)"/>
<path id="Vector_8" d="M34.9805 55.6964C35.206 55.5266 34.3793 55.8662 34.1037 55.9001C31.8741 56.1379 30.7718 54.7115 26.8386 54.3549C24.1581 54.1172 21.1769 55.5945 20.6257 56.0869C20.6257 56.0869 23.5568 54.1681 26.538 56.019C29.3939 57.785 34.1287 56.2737 34.9805 55.6964Z" fill="#F4F4F5"/>
</g>
</g>
</g>
</g>
<defs>
<linearGradient id="paint0_linear_912_1962" x1="36.3633" y1="49.4874" x2="2.91443" y2="49.4874" gradientUnits="userSpaceOnUse">
<stop stop-color="#A4A4A3"/>
<stop offset="0.819608" stop-color="white"/>
<stop offset="1" stop-color="white"/>
</linearGradient>
<linearGradient id="paint1_linear_912_1962" x1="13.6903" y1="54.9283" x2="35.6057" y2="54.9283" gradientUnits="userSpaceOnUse">
<stop stop-color="#C1C0BF"/>
<stop offset="0.321569" stop-color="#C1C0BF"/>
<stop offset="1" stop-color="#A4A4A3"/>
</linearGradient>
</defs>
</svg>
