<svg width="39" height="59" viewBox="0 0 39 59" fill="none" xmlns="http://www.w3.org/2000/svg">
<g id="Group 285">
<g id="Group">
<path id="Vector" d="M4.89697 45.0123C4.89697 45.9402 7.30211 46.6346 9.31975 47.0537C12.2973 47.6724 16.0536 48.0131 19.8969 48.0131C23.7402 48.0131 27.4966 47.6724 30.4741 47.0537C32.4917 46.6346 34.897 45.9402 34.897 45.0124C34.897 44.9591 34.897 42.8092 34.897 42.8092C34.897 42.0497 34.1365 41.4318 33.2019 41.4318C33.2019 41.4318 32.071 41.4318 31.6941 41.4318C31.1291 41.4318 30.8521 41.0494 30.8521 41.0494L26.403 34.5681C26.1478 34.1964 25.9241 33.497 25.9241 33.0715L25.9241 29.5457C25.9241 28.92 25.4119 28.4657 24.7063 28.4657L24.7062 28.4657C24.5059 28.4657 24.3009 28.5024 24.0972 28.5748L15.2438 31.7229C14.4606 32.0013 13.87 32.6582 13.87 33.2507C13.87 33.5807 13.6462 34.1963 13.3911 34.568L8.8806 41.1385C8.8806 41.1385 8.6547 41.4317 8.25917 41.4317C7.8424 41.4317 6.5922 41.4317 6.5922 41.4317C5.65752 41.4317 4.89709 42.0496 4.89709 42.8091C4.89709 42.8091 4.89697 44.959 4.89697 45.0123Z" fill="#333232"/>
<path id="Vector_2" d="M15.0874 16.925C15.2878 16.925 15.4926 16.8884 15.6964 16.816L24.5498 13.6679C25.3201 13.3941 25.9236 12.6443 25.9236 11.961L25.9236 10.2076C25.9236 9.58192 25.4114 9.12765 24.7058 9.12765C24.5056 9.12765 24.3005 9.16429 24.0967 9.23683L15.2434 12.3848C14.473 12.6587 13.8695 13.4085 13.8695 14.0918L13.8695 15.8452C13.8696 16.4709 14.3818 16.925 15.0874 16.925Z" fill="#333232"/>
<path id="Vector_3" d="M15.0874 23.3711C15.2878 23.3711 15.4926 23.3345 15.6964 23.262L24.5498 20.114C25.3201 19.8402 25.9236 19.0903 25.9236 18.407L25.9236 16.6537C25.9236 16.0279 25.4114 15.5737 24.7058 15.5737C24.5056 15.5737 24.3005 15.6104 24.0967 15.6829L15.2434 18.8309C14.473 19.1048 13.8695 19.8546 13.8695 20.5379L13.8695 22.2912C13.8696 22.9169 14.3818 23.3711 15.0874 23.3711Z" fill="#333232"/>
<path id="Vector_4" d="M15.0874 10.479C15.2878 10.479 15.4927 10.4424 15.6964 10.3698L24.5498 7.22181C25.2336 6.97865 25.9236 6.50831 25.9236 6.00574C25.9236 5.58306 25.4291 4.9815 24.9696 4.60161L21.0917 1.39455C20.7739 1.13184 20.3495 0.987118 19.8967 0.987118C19.4438 0.987118 19.0194 1.13184 18.7016 1.39465L14.8238 4.60152C14.2799 5.05129 13.8697 5.86607 13.8697 6.49665L13.8697 9.39912C13.8696 10.0248 14.3818 10.479 15.0874 10.479Z" fill="#333232"/>
<path id="Vector_5" d="M15.0874 29.8171C15.2878 29.8171 15.4926 29.7805 15.6964 29.708L24.5498 26.56C25.3201 26.2862 25.9236 25.5363 25.9236 24.8531L25.9236 23.0997C25.9236 22.474 25.4114 22.0197 24.7058 22.0197C24.5056 22.0197 24.3005 22.0564 24.0967 22.1289L15.2434 25.2769C14.473 25.5508 13.8695 26.3006 13.8695 26.9839L13.8695 28.7373C13.8696 29.363 14.3818 29.8171 15.0874 29.8171Z" fill="#333232"/>
</g>
<g id="Layer_x0020_1">
<g id="_461184568">
<path id="Vector_6" fill-rule="evenodd" clip-rule="evenodd" d="M35.3391 38.9458C30.2536 42.3759 22.7129 44.4984 15.4228 44.5154C15.4228 44.5154 15.3977 44.5154 15.3727 44.5154C11.7903 44.5154 8.25794 43.989 5.12645 42.8683C5.05129 42.8343 4.95109 42.8173 4.87593 42.7834C4.77572 42.9702 4.65046 43.157 4.5252 43.3437C2.19537 46.57 0.166165 48.0473 0.141113 51.3585C0.141113 51.5283 0.166165 51.6981 0.166165 51.8679C0.166165 51.8849 0.166165 51.9019 0.166165 51.9019C0.166165 51.9868 0.191217 52.0547 0.191217 52.1226C0.592048 55.0433 5.02624 58.2865 10.8884 58.3035H10.9135C10.9135 58.3035 10.9135 58.3035 10.9385 58.3035C13.3184 58.3035 15.9238 57.7602 18.6044 56.4527C18.6294 56.4527 18.6545 56.4357 18.6796 56.4357C18.6796 56.4187 18.7046 56.4187 18.7046 56.4017C18.7547 56.3847 18.8048 56.3678 18.8299 56.3508C19.5564 55.9942 20.1075 55.8414 20.6336 55.8414H20.6587H20.6837C21.2599 55.8414 21.811 56.0112 22.5376 56.2489C22.5626 56.2489 22.5626 56.2489 22.5877 56.2489C22.6628 56.2829 22.763 56.3168 22.8632 56.3508C22.8883 56.3508 22.8883 56.3508 22.8883 56.3508C22.9384 56.3678 22.9634 56.3678 22.9885 56.3847C23.6649 56.5885 24.4666 56.8262 25.5187 57.047C25.5438 57.064 25.5939 57.064 25.6189 57.0809H25.644C25.669 57.0809 25.7192 57.0979 25.7442 57.0979C25.7943 57.1149 25.8444 57.1149 25.8945 57.1319C25.9446 57.1489 25.9947 57.1489 26.0448 57.1658C26.0949 57.1658 26.145 57.1828 26.2202 57.1998C26.2452 57.1998 26.2953 57.1998 26.3204 57.2168C26.3455 57.2168 26.3455 57.2168 26.3455 57.2168C27.1722 57.3526 27.9237 57.4205 28.6001 57.4205C28.6252 57.4205 28.6252 57.4205 28.6252 57.4205C31.1304 57.4205 32.7588 56.5545 34.2619 55.4508C34.337 55.3829 34.4372 55.315 34.5374 55.247C36.5416 53.7018 38.0197 51.9359 38.1199 47.6738C38.1449 47.5549 38.1449 47.436 38.1449 47.3172C38.1449 43.7003 36.7671 41.2382 35.3391 38.9458Z" fill="url(#paint0_linear_898_1899)"/>
<path id="Vector_7" fill-rule="evenodd" clip-rule="evenodd" d="M35.3384 39.5571C35.3133 39.5571 35.2632 39.5911 35.2131 39.6251C34.687 39.9137 32.758 41.3571 27.5973 43.0211C26.3197 43.4287 24.8416 43.8362 23.1631 44.2607C22.161 44.4984 19.3302 44.4305 19.3302 45.3135C19.3302 45.3305 19.3302 45.3305 19.3302 45.3475C19.4554 46.7229 20.4074 47.7757 20.4074 49.3379C20.4074 49.6435 20.3824 49.9662 20.2821 50.3058C19.6809 52.6321 17.7519 53.617 15.1214 54.432C13.9691 54.8056 13.468 55.2471 13.468 55.6037C13.468 56.2319 15.0212 56.6225 17.4262 55.9603C21.9857 54.6867 20.4826 47.0285 22.2111 46.3154C25.1923 45.0588 25.8186 46.0606 25.8186 47.8096C25.8186 48.7436 25.6433 49.8982 25.5431 51.0359C25.518 51.4774 25.493 51.9189 25.493 52.3434C25.493 54.6697 26.2696 56.6395 30.1025 56.2999C33.3843 56.0112 37.4177 53.1755 37.9939 49.3718C38.1191 48.6247 38.1692 47.9115 38.1692 47.2323C38.1692 44.5664 37.3175 42.257 35.3634 39.5741C35.3634 39.5571 35.3384 39.5571 35.3384 39.5571Z" fill="url(#paint1_linear_898_1899)"/>
<path id="Vector_8" d="M29.8777 57.3524C26.0197 57.7599 24.3413 56.3336 21.786 55.977C19.6816 55.1959 22.1367 54.0242 24.2912 55.5864C26.4206 57.1486 28.099 57.1996 29.8777 57.3524Z" fill="#F4F4F5"/>
</g>
</g>
</g>
<defs>
<linearGradient id="paint0_linear_898_1899" x1="38.1354" y1="48.624" x2="0.152637" y2="48.624" gradientUnits="userSpaceOnUse">
<stop stop-color="#A4A4A3"/>
<stop offset="0.819608" stop-color="white"/>
<stop offset="1" stop-color="white"/>
</linearGradient>
<linearGradient id="paint1_linear_898_1899" x1="13.458" y1="47.9492" x2="38.1742" y2="47.9492" gradientUnits="userSpaceOnUse">
<stop stop-color="#C1C0BF"/>
<stop offset="0.321569" stop-color="#C1C0BF"/>
<stop offset="1" stop-color="#A4A4A3"/>
</linearGradient>
</defs>
</svg>
