<svg width="34" height="64" viewBox="0 0 34 64" fill="none" xmlns="http://www.w3.org/2000/svg">
<g id="Group 286">
<g id="Group">
<path id="Vector" d="M5.89698 44.3369C5.89698 45.2647 7.74092 45.9591 9.28778 46.3782C11.5705 46.997 14.4504 47.3376 17.3969 47.3376C20.3434 47.3376 23.2233 46.997 25.5061 46.3783C27.0529 45.9592 28.897 45.2647 28.897 44.337C28.897 44.2837 28.897 42.1338 28.897 42.1338C28.897 41.3743 28.314 40.7564 27.5974 40.7564C27.5974 40.7564 26.7304 40.7564 26.4414 40.7564C26.0083 40.7564 25.7959 40.3739 25.7959 40.3739L22.3849 33.8927C22.1893 33.521 22.0177 32.8216 22.0177 32.3961L22.0177 28.8703C22.0177 28.2446 21.6251 27.7903 21.0841 27.7903L21.084 27.7903C20.9305 27.7903 20.7733 27.827 20.6171 27.8994L13.8296 31.0474C13.2291 31.3259 12.7763 31.9828 12.7763 32.5753C12.7763 32.9053 12.6048 33.5209 12.4091 33.8926L8.9511 40.4631C8.9511 40.4631 8.7779 40.7563 8.47467 40.7563C8.15514 40.7563 7.19666 40.7563 7.19666 40.7563C6.48006 40.7563 5.89707 41.3742 5.89707 42.1337C5.89707 42.1337 5.89698 44.2836 5.89698 44.3369Z" fill="#333232"/>
<path id="Vector_2" d="M13.7101 16.2496C13.8637 16.2496 14.0208 16.213 14.177 16.1405L20.9646 12.9925C21.5552 12.7187 22.0178 11.9688 22.0178 11.2856L22.0178 9.53221C22.0178 8.9065 21.6252 8.45223 21.0842 8.45223C20.9307 8.45223 20.7734 8.48887 20.6172 8.56142L13.8297 11.7094C13.239 11.9833 12.7764 12.7331 12.7764 13.4164L12.7764 15.1697C12.7765 15.7955 13.1691 16.2496 13.7101 16.2496Z" fill="#333232"/>
<path id="Vector_3" d="M13.7101 22.6957C13.8637 22.6957 14.0208 22.659 14.177 22.5866L20.9646 19.4386C21.5552 19.1647 22.0178 18.4149 22.0178 17.7316L22.0178 15.9783C22.0178 15.3525 21.6252 14.8983 21.0842 14.8983C20.9307 14.8983 20.7734 14.935 20.6172 15.0075L13.8297 18.1555C13.239 18.4294 12.7764 19.1792 12.7764 19.8624L12.7764 21.6158C12.7765 22.2415 13.1691 22.6957 13.7101 22.6957Z" fill="#333232"/>
<path id="Vector_4" d="M13.7101 9.80359C13.8637 9.80359 14.0208 9.76695 14.177 9.6944L20.9646 6.54639C21.4888 6.30323 22.0178 5.83289 22.0178 5.33032C22.0178 4.90765 21.6387 4.30609 21.2864 3.9262L18.3134 0.719138C18.0698 0.456421 17.7444 0.311703 17.3972 0.311703C17.05 0.311703 16.7246 0.456421 16.481 0.71923L13.508 3.92611C13.091 4.37587 12.7766 5.19066 12.7766 5.82123L12.7766 8.7237C12.7765 9.34941 13.1691 9.80359 13.7101 9.80359Z" fill="#333232"/>
<path id="Vector_5" d="M13.7101 29.1417C13.8637 29.1417 14.0208 29.1051 14.177 29.0326L20.9646 25.8846C21.5552 25.6108 22.0178 24.8609 22.0178 24.1776L22.0178 22.4243C22.0178 21.7986 21.6252 21.3443 21.0842 21.3443C20.9307 21.3443 20.7734 21.381 20.6172 21.4535L13.8297 24.6015C13.239 24.8753 12.7764 25.6252 12.7764 26.3085L12.7764 28.0618C12.7765 28.6875 13.1691 29.1417 13.7101 29.1417Z" fill="#333232"/>
</g>
<g id="Layer_x0020_1">
<g id="_453490808">
<path id="Vector_6" fill-rule="evenodd" clip-rule="evenodd" d="M14.3737 41.2854H14.3236C13.0961 41.2854 11.8936 41.3363 10.7662 41.4382C9.31321 41.591 7.96041 41.8118 6.73286 42.1684C2.6494 47.5342 1.47195 49.6398 0.595136 52.968C0.494928 53.3415 0.444824 53.7151 0.444824 54.0717C0.469876 60.1677 14.3988 63.2921 17.0042 63.2921C23.9937 63.2921 33.5635 57.5187 33.5635 53.0529C33.5635 48.3663 30.6324 46.2097 28.3527 42.9325C24.144 42.0156 19.0584 41.2854 14.3737 41.2854Z" fill="url(#paint0_linear_898_1900)"/>
<path id="Vector_7" d="M22.3649 43.204C23.5674 44.2738 31.1331 49.1302 26.1728 58.9279C25.8221 59.6411 22.3399 62.7825 24.2187 58.2996C28.3523 48.4 20.6113 41.6078 22.3649 43.204Z" fill="#E9EAE9"/>
<path id="Vector_8" fill-rule="evenodd" clip-rule="evenodd" d="M21.3634 42.6268C21.7642 43.5777 28.8289 47.4322 27.426 54.4112C27.2506 55.2772 27.1755 55.9734 27.1755 56.5168C27.1755 61.1355 32.6368 55.6338 32.6368 52.9679C32.6368 49.8434 30.2569 43.1871 22.14 42.423C22.115 42.423 22.0899 42.423 22.0649 42.423C21.9396 42.406 21.8394 42.406 21.7642 42.406C21.4135 42.406 21.3133 42.4909 21.3634 42.6268Z" fill="url(#paint1_linear_898_1900)"/>
</g>
</g>
</g>
<defs>
<linearGradient id="paint0_linear_898_1900" x1="33.5745" y1="52.285" x2="0.451339" y2="52.285" gradientUnits="userSpaceOnUse">
<stop stop-color="#A4A4A3"/>
<stop offset="0.819608" stop-color="white"/>
<stop offset="1" stop-color="white"/>
</linearGradient>
<linearGradient id="paint1_linear_898_1900" x1="21.3516" y1="50.3564" x2="32.6416" y2="50.3564" gradientUnits="userSpaceOnUse">
<stop stop-color="#C1C0BF"/>
<stop offset="0.321569" stop-color="#C1C0BF"/>
<stop offset="1" stop-color="#A4A4A3"/>
</linearGradient>
</defs>
</svg>
