<svg width="35" height="67" viewBox="0 0 35 67" fill="none" xmlns="http://www.w3.org/2000/svg">
<g id="Group 287">
<g id="Group">
<path id="Vector" d="M5.89698 44.6747C5.89698 45.6025 7.82109 46.2969 9.4352 46.716C11.8172 47.3347 14.8223 47.6754 17.8969 47.6754C20.9715 47.6754 23.9766 47.3347 26.3587 46.7161C27.9728 46.297 29.897 45.6025 29.897 44.6748C29.897 44.6214 29.897 42.4716 29.897 42.4716C29.897 41.7121 29.2886 41.0942 28.5409 41.0942C28.5409 41.0942 27.6362 41.0942 27.3347 41.0942C26.8827 41.0942 26.6611 40.7117 26.6611 40.7117L23.1018 34.2305C22.8977 33.8588 22.7186 33.1594 22.7186 32.7339L22.7186 29.2081C22.7186 28.5824 22.3089 28.1281 21.7444 28.1281L21.7443 28.1281C21.5841 28.1281 21.4201 28.1647 21.2571 28.2372L14.1745 31.3852C13.5479 31.6636 13.0754 32.3206 13.0754 32.913C13.0754 33.2431 12.8964 33.8587 12.6923 34.2304L9.08389 40.8009C9.08389 40.8009 8.90316 41.0941 8.58674 41.0941C8.25333 41.0941 7.25317 41.0941 7.25317 41.0941C6.50542 41.0941 5.89708 41.712 5.89708 42.4715C5.89708 42.4715 5.89698 44.6213 5.89698 44.6747Z" fill="#333232"/>
<path id="Vector_2" d="M14.0496 16.5874C14.2099 16.5874 14.3738 16.5508 14.5368 16.4783L21.6194 13.3303C22.2357 13.0565 22.7185 12.3066 22.7185 11.6233L22.7185 9.86998C22.7185 9.24427 22.3088 8.79 21.7443 8.79C21.5841 8.79 21.42 8.82664 21.257 8.89918L14.1743 12.0472C13.558 12.321 13.0753 13.0709 13.0753 13.7542L13.0753 15.5075C13.0754 16.1332 13.4851 16.5874 14.0496 16.5874Z" fill="#333232"/>
<path id="Vector_3" d="M14.0496 23.0334C14.2099 23.0334 14.3738 22.9968 14.5368 22.9244L21.6194 19.7763C22.2357 19.5025 22.7185 18.7527 22.7185 18.0694L22.7185 16.316C22.7185 15.6902 22.3088 15.236 21.7443 15.236C21.5841 15.236 21.42 15.2728 21.257 15.3452L14.1743 18.4932C13.558 18.7672 13.0753 19.5169 13.0753 20.2002L13.0753 21.9536C13.0754 22.5793 13.4851 23.0334 14.0496 23.0334Z" fill="#333232"/>
<path id="Vector_4" d="M14.0496 10.1414C14.2099 10.1414 14.3738 10.1047 14.5368 10.0322L21.6194 6.88416C22.1665 6.641 22.7185 6.17066 22.7185 5.66809C22.7185 5.24541 22.3229 4.64386 21.9553 4.26397L18.853 1.05691C18.5988 0.794189 18.2592 0.649472 17.897 0.649472C17.5347 0.649472 17.1952 0.79419 16.9409 1.057L13.8387 4.26387C13.4035 4.71364 13.0754 5.52842 13.0754 6.159L13.0754 9.06147C13.0754 9.68718 13.4851 10.1414 14.0496 10.1414Z" fill="#333232"/>
<path id="Vector_5" d="M14.0496 29.4795C14.2099 29.4795 14.3738 29.4429 14.5368 29.3704L21.6194 26.2224C22.2357 25.9486 22.7185 25.1987 22.7185 24.5154L22.7185 22.7621C22.7185 22.1364 22.3088 21.6821 21.7443 21.6821C21.5841 21.6821 21.42 21.7187 21.257 21.7913L14.1743 24.9393C13.558 25.2131 13.0753 25.963 13.0753 26.6463L13.0753 28.3996C13.0754 29.0253 13.4851 29.4795 14.0496 29.4795Z" fill="#333232"/>
</g>
<g id="Layer_x0020_1">
<g id="_804530240">
<path id="Vector_6" fill-rule="evenodd" clip-rule="evenodd" d="M0.724121 55.5483V55.5822C0.749165 57.8059 3.02816 60.2334 6.03343 62.2534C6.05847 62.2704 6.10856 62.2873 6.1336 62.3043C6.1336 62.3213 6.15865 62.3383 6.18369 62.3383C10.0405 64.9015 14.9991 66.8027 17.754 66.8027C24.5158 66.8027 34.6837 60.4031 34.6837 55.6162C34.6837 50.6255 31.6533 48.3339 29.2992 44.837C24.7412 43.8016 18.906 42.851 13.7219 42.851C12.5699 42.851 11.4429 42.9019 10.3911 43.0037C9.01365 43.1395 7.71137 43.3602 6.55935 43.6997C5.3322 47.8246 0.724121 51.9496 0.724121 55.5483Z" fill="url(#paint0_linear_898_1901)"/>
<path id="Vector_7" d="M28.7486 46.5007C26.7951 45.0069 21.5359 42.7662 22.4375 44.8372C23.7899 47.9945 29.8505 51.8478 30.5016 58.9434C30.6519 60.7088 33.9827 60.1656 33.5069 54.8185C33.1062 49.8618 30.4766 47.8248 28.7486 46.5007Z" fill="#AFAFAD"/>
<path id="Vector_8" d="M23.2385 46.1953C24.4156 47.2648 29.0737 52.8835 29.2991 61.5407C29.3242 62.2876 26.6945 64.1719 26.6194 59.5207C26.4942 51.3048 21.4854 44.5997 23.2385 46.1953Z" fill="#E9EAE9"/>
</g>
</g>
</g>
<defs>
<linearGradient id="paint0_linear_898_1901" x1="34.6736" y1="54.8255" x2="0.722118" y2="54.8255" gradientUnits="userSpaceOnUse">
<stop stop-color="#A4A4A3"/>
<stop offset="0.819608" stop-color="white"/>
<stop offset="1" stop-color="white"/>
</linearGradient>
</defs>
</svg>
