<svg width="35" height="75" viewBox="0 0 35 75" fill="none" xmlns="http://www.w3.org/2000/svg">
<g id="Group 288">
<g id="Group">
<path id="Vector" d="M4.897 45.0123C4.897 45.9402 6.82111 46.6346 8.43521 47.0537C10.8172 47.6724 13.8223 48.0131 16.8969 48.0131C19.9716 48.0131 22.9766 47.6724 25.3587 47.0537C26.9728 46.6346 28.897 45.9402 28.897 45.0124C28.897 44.9591 28.897 42.8092 28.897 42.8092C28.897 42.0497 28.2886 41.4318 27.5409 41.4318C27.5409 41.4318 26.6362 41.4318 26.3347 41.4318C25.8827 41.4318 25.6611 41.0494 25.6611 41.0494L22.1018 34.5681C21.8977 34.1964 21.7187 33.497 21.7187 33.0715L21.7187 29.5457C21.7187 28.92 21.3089 28.4657 20.7444 28.4657L20.7443 28.4657C20.5841 28.4657 20.4202 28.5024 20.2571 28.5748L13.1745 31.7229C12.5479 32.0013 12.0754 32.6582 12.0754 33.2507C12.0754 33.5807 11.8964 34.1963 11.6923 34.568L8.0839 41.1385C8.0839 41.1385 7.90317 41.4317 7.58675 41.4317C7.25334 41.4317 6.25318 41.4317 6.25318 41.4317C5.50543 41.4317 4.89709 42.0496 4.89709 42.8091C4.89709 42.8091 4.897 44.959 4.897 45.0123Z" fill="#333232"/>
<path id="Vector_2" d="M13.0496 16.925C13.2099 16.925 13.3738 16.8884 13.5368 16.816L20.6194 13.6679C21.2357 13.3941 21.7185 12.6443 21.7185 11.961L21.7185 10.2076C21.7185 9.58192 21.3088 9.12765 20.7443 9.12765C20.5841 9.12765 20.42 9.16429 20.257 9.23683L13.1743 12.3848C12.558 12.6587 12.0753 13.4085 12.0753 14.0918L12.0753 15.8452C12.0754 16.4709 12.4851 16.925 13.0496 16.925Z" fill="#333232"/>
<path id="Vector_3" d="M13.0496 23.3711C13.2099 23.3711 13.3738 23.3345 13.5368 23.262L20.6194 20.114C21.2357 19.8402 21.7185 19.0903 21.7185 18.407L21.7185 16.6537C21.7185 16.0279 21.3088 15.5737 20.7443 15.5737C20.5841 15.5737 20.42 15.6104 20.257 15.6829L13.1743 18.8309C12.558 19.1048 12.0753 19.8546 12.0753 20.5379L12.0753 22.2912C12.0754 22.9169 12.4851 23.3711 13.0496 23.3711Z" fill="#333232"/>
<path id="Vector_4" d="M13.0496 10.479C13.2099 10.479 13.3738 10.4424 13.5368 10.3698L20.6194 7.22181C21.1665 6.97865 21.7185 6.50831 21.7185 6.00574C21.7185 5.58306 21.3229 4.9815 20.9553 4.60161L17.853 1.39455C17.5988 1.13184 17.2592 0.987118 16.897 0.987118C16.5347 0.987118 16.1952 1.13184 15.9409 1.39465L12.8387 4.60152C12.4035 5.05129 12.0754 5.86607 12.0754 6.49665L12.0754 9.39912C12.0754 10.0248 12.4851 10.479 13.0496 10.479Z" fill="#333232"/>
<path id="Vector_5" d="M13.0496 29.8171C13.2099 29.8171 13.3738 29.7805 13.5368 29.708L20.6194 26.56C21.2357 26.2862 21.7185 25.5363 21.7185 24.8531L21.7185 23.0997C21.7185 22.474 21.3088 22.0197 20.7443 22.0197C20.5841 22.0197 20.42 22.0564 20.257 22.1289L13.1743 25.2769C12.558 25.5508 12.0753 26.3006 12.0753 26.9839L12.0753 28.7373C12.0754 29.363 12.4851 29.8171 13.0496 29.8171Z" fill="#333232"/>
</g>
<g id="Layer_x0020_1">
<g id="_-1681173016">
<path id="Vector_6" fill-rule="evenodd" clip-rule="evenodd" d="M16.9439 74.8608H16.9689H16.994H17.0691C17.1693 74.8438 17.2946 74.8438 17.4199 74.8269C19.9501 74.4193 24.4845 70.7516 29.3696 67.4234C29.4197 67.4064 29.4448 67.3894 29.4698 67.3724C32.927 65.0122 34.1045 62.1594 34.1045 59.2558C34.0794 54.2635 30.6723 49.0845 29.5951 45.8242C29.4949 45.5186 29.3947 45.196 29.3195 44.8563C27.2653 43.4639 24.5847 42.564 21.6787 42.1565C20.4261 41.9697 19.1234 41.8848 17.7956 41.8848C13.3364 41.8848 8.80199 42.9206 5.49513 44.9582C5.11936 46.7072 4.59326 48.0147 3.86676 49.5599C2.86468 51.7504 0.259277 56.0974 0.259277 60.3425C0.259277 61.7519 0.559901 63.1443 1.31146 64.4518C4.26759 69.6478 11.9585 74.7589 16.9439 74.8608Z" fill="url(#paint0_linear_898_1902)"/>
<path id="Vector_7" d="M19.8501 42.1057C24.4847 42.3944 27.7164 46.4357 29.5702 49.5092C31.5995 52.9053 36.7351 61.3106 29.5702 66.3198C25.3866 69.2405 24.7603 68.1367 25.3866 67.1179C26.6141 65.0803 28.468 61.9898 28.1172 58.6786C27.3907 51.9713 16.0923 41.868 19.8501 42.1057Z" fill="#AFAFAD"/>
<path id="Vector_8" d="M12.1091 73.6553C12.1091 73.6553 14.1383 74.3855 14.8648 73.6044C15.9671 72.4327 13.8126 71.4818 12.3345 71.329C9.87944 71.0743 8.02559 70.7856 5.79597 69.2234C3.54129 67.6442 5.24482 69.1215 5.24482 69.1215C5.24482 69.1215 9.17798 72.6025 12.1091 73.6553Z" fill="white"/>
</g>
</g>
</g>
<defs>
<linearGradient id="paint0_linear_898_1902" x1="34.0962" y1="58.3692" x2="0.26554" y2="58.3692" gradientUnits="userSpaceOnUse">
<stop stop-color="#A4A4A3"/>
<stop offset="0.819608" stop-color="white"/>
<stop offset="1" stop-color="white"/>
</linearGradient>
</defs>
</svg>
