<svg width="32" height="69" viewBox="0 0 32 69" fill="none" xmlns="http://www.w3.org/2000/svg">
<g id="Group 289">
<g id="Group">
<path id="Vector" d="M6.89699 44.3369C6.89699 45.2647 8.34007 45.9591 9.55065 46.3782C11.3372 46.997 13.591 47.3376 15.8969 47.3376C18.2029 47.3376 20.4567 46.997 22.2432 46.3783C23.4538 45.9592 24.897 45.2647 24.897 44.337C24.897 44.2837 24.897 42.1338 24.897 42.1338C24.897 41.3743 24.4407 40.7564 23.8799 40.7564C23.8799 40.7564 23.2014 40.7564 22.9753 40.7564C22.6362 40.7564 22.47 40.3739 22.47 40.3739L19.8006 33.8927C19.6475 33.521 19.5132 32.8216 19.5132 32.3961L19.5132 28.8703C19.5132 28.2446 19.2059 27.7903 18.7826 27.7903L18.7825 27.7903C18.6624 27.7903 18.5394 27.827 18.4171 27.8994L13.1051 31.0474C12.6351 31.3259 12.2808 31.9828 12.2808 32.5753C12.2808 32.9053 12.1465 33.5209 11.9934 33.8926L9.28717 40.4631C9.28717 40.4631 9.15162 40.7563 8.91431 40.7563C8.66425 40.7563 7.91413 40.7563 7.91413 40.7563C7.35332 40.7563 6.89706 41.3742 6.89706 42.1337C6.89706 42.1337 6.89699 44.2836 6.89699 44.3369Z" fill="#333232"/>
<path id="Vector_2" d="M13.0115 16.2496C13.1317 16.2496 13.2546 16.213 13.3769 16.1405L18.6889 12.9925C19.1511 12.7187 19.5132 11.9688 19.5132 11.2856L19.5132 9.53221C19.5132 8.9065 19.2059 8.45223 18.7825 8.45223C18.6624 8.45223 18.5393 8.48887 18.4171 8.56142L13.1051 11.7094C12.6428 11.9833 12.2808 12.7331 12.2808 13.4164L12.2808 15.1697C12.2808 15.7955 12.5881 16.2496 13.0115 16.2496Z" fill="#333232"/>
<path id="Vector_3" d="M13.0115 22.6957C13.1317 22.6957 13.2546 22.659 13.3769 22.5866L18.6889 19.4386C19.1511 19.1647 19.5132 18.4149 19.5132 17.7316L19.5132 15.9783C19.5132 15.3525 19.2059 14.8983 18.7825 14.8983C18.6624 14.8983 18.5393 14.935 18.4171 15.0075L13.1051 18.1555C12.6428 18.4294 12.2808 19.1792 12.2808 19.8624L12.2808 21.6158C12.2808 22.2415 12.5881 22.6957 13.0115 22.6957Z" fill="#333232"/>
<path id="Vector_4" d="M13.0115 9.80359C13.1317 9.80359 13.2546 9.76695 13.3769 9.6944L18.6889 6.54639C19.0992 6.30323 19.5132 5.83289 19.5132 5.33032C19.5132 4.90765 19.2165 4.30609 18.9408 3.9262L16.6141 0.719138C16.4234 0.456421 16.1687 0.311703 15.897 0.311703C15.6253 0.311703 15.3707 0.456421 15.18 0.71923L12.8533 3.92611C12.527 4.37587 12.2809 5.19066 12.2809 5.82123L12.2809 8.7237C12.2808 9.34941 12.5881 9.80359 13.0115 9.80359Z" fill="#333232"/>
<path id="Vector_5" d="M13.0115 29.1417C13.1317 29.1417 13.2546 29.1051 13.3769 29.0326L18.6889 25.8846C19.1511 25.6108 19.5132 24.8609 19.5132 24.1776L19.5132 22.4243C19.5132 21.7986 19.2059 21.3443 18.7825 21.3443C18.6624 21.3443 18.5393 21.381 18.4171 21.4535L13.1051 24.6015C12.6428 24.8753 12.2808 25.6252 12.2808 26.3085L12.2808 28.0618C12.2808 28.6875 12.5881 29.1417 13.0115 29.1417Z" fill="#333232"/>
</g>
<g id="Layer_x0020_1">
<g id="_-1955905520">
<path id="Vector_6" fill-rule="evenodd" clip-rule="evenodd" d="M22.4961 68.9293H22.5211H22.5462H22.5712C24.0242 68.9293 25.352 68.7935 26.4543 68.352C26.4793 68.352 26.4793 68.335 26.5044 68.335C30.0618 66.8407 31.2392 64.0559 31.2392 60.8636C31.2392 55.2431 27.6568 48.366 27.1056 44.885C24.0743 42.1172 20.2414 40.0286 16.1078 40.0286C15.8322 40.0286 15.5567 40.0455 15.2561 40.0625C13.0014 40.2153 10.6966 41.0134 8.36677 42.6605C6.33756 43.7303 6.2624 45.5982 5.23527 47.0755C3.13091 55.2431 0.776029 60.0655 0.750977 63.4446C0.750977 64.4804 0.976444 65.3804 1.47748 66.2124C1.50253 66.2294 1.50253 66.2464 1.52759 66.2634C1.52759 66.2973 1.55264 66.3313 1.57769 66.3483C1.57769 66.3653 1.57769 66.3653 1.57769 66.3653C1.60274 66.3992 1.62779 66.4332 1.6779 66.4841C3.08081 68.3859 6.18725 68.8444 9.81978 68.8444C9.84483 68.8444 9.86988 68.8444 9.86988 68.8444H9.89494C11.1976 68.8444 12.5755 68.7765 13.9784 68.7256C14.0536 68.7086 14.1287 68.7086 14.1788 68.7086C14.279 68.7086 14.3542 68.7086 14.4544 68.6916C14.5796 68.6916 14.7049 68.6916 14.8302 68.6746C15.1558 68.6576 15.5066 68.6576 15.8322 68.6576C15.8573 68.6576 15.8573 68.6576 15.8573 68.6576C15.8824 68.6576 15.9325 68.6576 15.9575 68.6576C17.0097 68.6576 18.0619 68.7256 19.1141 68.7935C19.1642 68.7935 19.1892 68.7935 19.2393 68.7935C19.3646 68.8105 19.4648 68.8105 19.565 68.8105C19.6401 68.8274 19.7404 68.8274 19.8155 68.8274C20.7174 68.8784 21.6192 68.9293 22.4961 68.9293Z" fill="url(#paint0_linear_898_1903)"/>
<path id="Vector_7" d="M23.9993 43.0854C26.4794 45.5985 29.7111 57.5188 28.208 63.428C27.3813 66.7562 24.2999 63.8355 24.2498 57.9773C24.1747 50.9474 22.2457 43.0854 19.4148 40.844C19.4148 40.844 22.0954 41.1666 23.9993 43.0854Z" fill="#AFAFAD"/>
<path id="Vector_8" d="M16.2336 68.6747C10.1961 69.0992 14.1543 67.7408 14.1793 63.5296C14.1793 61.3052 17.2858 68.6068 16.2336 68.6747Z" fill="#D2D3D2"/>
<path id="Vector_9" d="M20.4418 68.8107C19.4147 68.7768 18.6882 68.9296 18.588 68.7598C17.9366 67.724 20.8677 62.2223 22.4961 56.7376C23.1475 54.5641 23.0222 68.8786 20.4418 68.8107Z" fill="#E9EAE9"/>
</g>
</g>
</g>
<defs>
<linearGradient id="paint0_linear_898_1903" x1="31.2312" y1="54.4868" x2="0.75749" y2="54.4868" gradientUnits="userSpaceOnUse">
<stop stop-color="#A4A4A3"/>
<stop offset="0.819608" stop-color="white"/>
<stop offset="1" stop-color="white"/>
</linearGradient>
</defs>
</svg>
