<svg width="40" height="70" viewBox="0 0 40 70" fill="none" xmlns="http://www.w3.org/2000/svg">
<g id="Group 290">
<g id="Group">
<path id="Vector" d="M4.89701 44.9993C4.89701 45.9271 7.14181 46.6215 9.02493 47.0406C11.8039 47.6593 15.3099 48 18.8969 48C22.484 48 25.9899 47.6593 28.7689 47.0407C30.6521 46.6216 32.897 45.9271 32.897 44.9994C32.897 44.946 32.897 42.7962 32.897 42.7962C32.897 42.0367 32.1872 41.4188 31.3149 41.4188C31.3149 41.4188 30.2594 41.4188 29.9076 41.4188C29.3803 41.4188 29.1218 41.0363 29.1218 41.0363L24.9693 34.5551C24.7311 34.1833 24.5223 33.484 24.5223 33.0585L24.5223 29.5327C24.5223 28.907 24.0443 28.4527 23.3857 28.4527L23.3856 28.4527C23.1987 28.4527 23.0074 28.4893 22.8172 28.5618L14.5541 31.7098C13.823 31.9882 13.2718 32.6451 13.2718 33.2376C13.2718 33.5676 13.063 34.1832 12.8248 34.555L8.61506 41.1255C8.61506 41.1255 8.40422 41.4187 8.03506 41.4187C7.64607 41.4187 6.47922 41.4187 6.47922 41.4187C5.60685 41.4187 4.89712 42.0366 4.89712 42.7961C4.89712 42.7961 4.89701 44.9459 4.89701 44.9993Z" fill="#333232"/>
<path id="Vector_2" d="M14.4085 16.912C14.5955 16.912 14.7867 16.8753 14.9769 16.8029L23.24 13.6549C23.959 13.3811 24.5222 12.6312 24.5222 11.9479L24.5222 10.1946C24.5222 9.56885 24.0442 9.11459 23.3856 9.11459C23.1987 9.11459 23.0073 9.15123 22.8171 9.22377L14.554 12.3718C13.835 12.6456 13.2718 13.3955 13.2718 14.0788L13.2718 15.8321C13.2719 16.4578 13.7499 16.912 14.4085 16.912Z" fill="#333232"/>
<path id="Vector_3" d="M14.4085 23.358C14.5955 23.358 14.7867 23.3214 14.9769 23.2489L23.24 20.1009C23.959 19.8271 24.5222 19.0772 24.5222 18.394L24.5222 16.6406C24.5222 16.0148 24.0442 15.5606 23.3856 15.5606C23.1987 15.5606 23.0073 15.5974 22.8171 15.6698L14.554 18.8178C13.835 19.0917 13.2718 19.8415 13.2718 20.5248L13.2718 22.2781C13.2719 22.9039 13.7499 23.358 14.4085 23.358Z" fill="#333232"/>
<path id="Vector_4" d="M14.4085 10.4659C14.5955 10.4659 14.7867 10.4293 14.9769 10.3568L23.24 7.20874C23.8782 6.96559 24.5222 6.49525 24.5222 5.99268C24.5222 5.57 24.0607 4.96844 23.6318 4.58855L20.0125 1.38149C19.7159 1.11877 19.3197 0.974057 18.8971 0.974057C18.4745 0.974057 18.0783 1.11877 17.7817 1.38158L14.1624 4.58846C13.6547 5.03823 13.272 5.85301 13.272 6.48359L13.272 9.38605C13.2719 10.0118 13.7499 10.4659 14.4085 10.4659Z" fill="#333232"/>
<path id="Vector_5" d="M14.4085 29.8041C14.5955 29.8041 14.7867 29.7674 14.9769 29.695L23.24 26.547C23.959 26.2731 24.5222 25.5233 24.5222 24.84L24.5222 23.0867C24.5222 22.4609 24.0442 22.0067 23.3856 22.0067C23.1987 22.0067 23.0073 22.0433 22.8171 22.1159L14.554 25.2639C13.835 25.5377 13.2718 26.2876 13.2718 26.9708L13.2718 28.7242C13.2719 29.3499 13.7499 29.8041 14.4085 29.8041Z" fill="#333232"/>
</g>
<g id="Layer_x0020_1">
<g id="_-1677845032">
<path id="Vector_6" fill-rule="evenodd" clip-rule="evenodd" d="M17.5587 69.2367H17.734H17.7591C29.0074 69.2367 38.4771 68.4556 39.2286 62.4105C39.2537 62.1728 39.2787 61.9351 39.2787 61.6804V61.6464C39.2787 57.3164 35.3456 50.5412 32.7402 43.3924C30.26 41.2699 27.2037 39.9793 23.997 39.385C23.997 39.385 23.997 39.385 23.972 39.385H23.9469C22.6192 39.1473 21.2413 39.0284 19.8885 39.0284C19.8635 39.0284 19.8635 39.0284 19.8635 39.0284C14.9783 39.0284 10.0682 40.5057 6.43562 43.0528C5.78427 43.5113 5.18302 44.0037 4.60683 44.5301C3.95548 46.5508 3.27907 48.4526 2.97845 49.9129C1.7509 55.924 0.398099 60.3899 0.373047 63.4803C0.373047 67.3349 2.47741 69.1008 9.59216 69.1688C9.71742 69.1688 9.84268 69.1688 9.993 69.1688C10.1183 69.1857 10.2686 69.1857 10.4189 69.1857C10.945 69.1857 11.4711 69.1857 11.9972 69.2027C13.876 69.2197 15.7299 69.2367 17.5587 69.2367Z" fill="url(#paint0_linear_898_1904)"/>
<path id="Vector_7" d="M34.344 51.8489C31.7637 44.9888 25.3504 39.4022 25.9266 40.5569C29.8096 48.1981 28.2063 51.747 31.2626 59.7448C32.5653 63.1748 32.1645 64.9918 31.6384 66.0276C31.1624 64.9918 30.1603 63.1579 29.2084 63.5484C27.58 64.1937 28.9829 65.7559 27.4046 68.5746C26.8785 69.5425 35.1958 68.1162 37.4003 65.1446C39.4296 62.4107 35.8972 55.9751 34.344 51.8489Z" fill="#AFAFAD"/>
<path id="Vector_8" d="M11.0205 69.186C11.3462 69.3389 12.0727 69.3558 14.4777 69.237C16.4317 69.1521 13.2251 67.7427 12.9244 61.8335C12.724 58.0129 11.3462 60.9335 11.2961 64.041C11.2209 67.1484 9.9182 68.6936 11.0205 69.186Z" fill="white"/>
</g>
</g>
</g>
<defs>
<linearGradient id="paint0_linear_898_1904" x1="39.2762" y1="54.1361" x2="0.384573" y2="54.1361" gradientUnits="userSpaceOnUse">
<stop stop-color="#A4A4A3"/>
<stop offset="0.819608" stop-color="white"/>
<stop offset="1" stop-color="white"/>
</linearGradient>
</defs>
</svg>
