<svg width="41" height="69" viewBox="0 0 41 69" fill="none" xmlns="http://www.w3.org/2000/svg">
<g id="Group 291">
<g id="Group">
<path id="Vector" d="M6.89702 43.349C6.89702 44.2472 9.22198 44.9194 11.1724 45.3251C14.0506 45.924 17.6818 46.2538 21.3969 46.2538C25.1121 46.2538 28.7433 45.924 31.6215 45.3251C33.5719 44.9194 35.897 44.2472 35.897 43.3491C35.897 43.2974 35.897 41.2163 35.897 41.2163C35.897 40.4811 35.1619 39.883 34.2584 39.883C34.2584 39.883 33.1652 39.883 32.8009 39.883C32.2547 39.883 31.9869 39.5127 31.9869 39.5127L27.6861 33.2387C27.4395 32.8789 27.2232 32.2019 27.2232 31.79L27.2232 28.3769C27.2232 27.7712 26.7281 27.3315 26.046 27.3315L26.0459 27.3315C25.8523 27.3315 25.6542 27.3669 25.4572 27.4371L16.899 30.4844C16.1418 30.754 15.5709 31.3899 15.5709 31.9634C15.5709 32.2829 15.3546 32.8788 15.108 33.2386L10.7479 39.5991C10.7479 39.5991 10.5295 39.8829 10.1471 39.8829C9.74426 39.8829 8.53573 39.8829 8.53573 39.8829C7.63221 39.8829 6.89713 40.481 6.89713 41.2162C6.89713 41.2162 6.89702 43.2974 6.89702 43.349Z" fill="#333232"/>
<path id="Vector_2" d="M16.7482 16.1598C16.9419 16.1598 17.1399 16.1243 17.3369 16.0542L25.8951 13.0068C26.6398 12.7418 27.2231 12.0159 27.2231 11.3544L27.2231 9.65715C27.2231 9.05145 26.7281 8.6117 26.046 8.6117C25.8524 8.6117 25.6541 8.64717 25.4572 8.7174L16.8989 11.7648C16.1542 12.0298 15.5709 12.7557 15.5709 13.4171L15.5709 15.1144C15.571 15.7201 16.0661 16.1598 16.7482 16.1598Z" fill="#333232"/>
<path id="Vector_3" d="M16.7482 22.3998C16.9419 22.3998 17.1399 22.3643 17.3369 22.2942L25.8951 19.2468C26.6398 18.9817 27.2231 18.2559 27.2231 17.5944L27.2231 15.8971C27.2231 15.2913 26.7281 14.8517 26.046 14.8517C25.8524 14.8517 25.6541 14.8873 25.4572 14.9574L16.8989 18.0047C16.1542 18.2699 15.5709 18.9957 15.5709 19.6571L15.5709 21.3544C15.571 21.9601 16.0661 22.3998 16.7482 22.3998Z" fill="#333232"/>
<path id="Vector_4" d="M16.7482 9.9198C16.9419 9.9198 17.1399 9.88433 17.3369 9.81411L25.8951 6.76675C26.5561 6.53137 27.2231 6.07607 27.2231 5.58957C27.2231 5.1804 26.7451 4.59808 26.3009 4.23034L22.5524 1.12582C22.2452 0.871501 21.8349 0.73141 21.3971 0.73141C20.9594 0.73141 20.5491 0.871501 20.2419 1.12591L16.4933 4.23025C15.9676 4.66563 15.5711 5.45436 15.5711 6.06478L15.5711 8.87444C15.571 9.48014 16.0661 9.9198 16.7482 9.9198Z" fill="#333232"/>
<path id="Vector_5" d="M16.7482 28.6396C16.9419 28.6396 17.1399 28.6042 17.3369 28.534L25.8951 25.4867C26.6398 25.2216 27.2231 24.4957 27.2231 23.8343L27.2231 22.137C27.2231 21.5313 26.7281 21.0916 26.046 21.0916C25.8524 21.0916 25.6541 21.127 25.4572 21.1973L16.8989 24.2446C16.1542 24.5097 15.5709 25.2356 15.5709 25.897L15.5709 27.5943C15.571 28.2 16.0661 28.6396 16.7482 28.6396Z" fill="#333232"/>
</g>
<g id="Layer_x0020_1">
<g id="_-1955916824">
<path id="Vector_6" fill-rule="evenodd" clip-rule="evenodd" d="M18.9575 37.0539C14.7032 37.3145 10.5513 38.6694 7.29648 41.4141C7.27085 41.4315 7.24522 41.4662 7.21959 41.4836C4.55421 48.7969 0.530518 55.7281 0.530518 60.1578C0.530518 60.4184 0.556146 60.6963 0.581775 60.9395C1.53003 68.5829 16.0871 68.0097 30.9005 67.8533C38.179 67.7838 40.3318 65.9772 40.3318 62.0339C40.3062 58.8723 38.9222 54.3037 37.6664 48.1542C37.3589 46.6603 36.6669 44.7147 36.0006 42.6475C34.8473 41.5705 33.5146 40.6324 32.0281 39.8507C28.6195 38.0441 24.4933 37.0192 20.3927 37.0192C19.9058 37.0192 19.4188 37.0365 18.9575 37.0539Z" fill="url(#paint0_linear_898_1905)"/>
<path id="Vector_7" d="M26.9786 38.5826C26.3892 37.4013 31.0023 39.9376 31.7712 41.2057C32.54 42.4912 33.3602 47.4767 35.1029 51.6632C36.8457 55.8497 40.203 61.7386 38.3321 64.6049C36.8457 66.8632 34.334 66.7937 32.54 66.2378C30.7717 65.6645 35.1029 65.2129 32.4375 58.2122C29.2852 50.0303 30.9511 46.3997 26.9786 38.5826Z" fill="#AFAFAD"/>
<path id="Vector_8" d="M29.2855 67.8709C28.0041 68.0793 26.5176 68.062 25.0055 67.923C23.4678 67.8014 25.0824 63.3022 27.3634 63.3891C29.6443 63.4759 30.5413 67.6798 29.2855 67.8709Z" fill="#AFAFAD"/>
<path id="Vector_9" d="M20.7257 67.9225C20.3669 68.0789 18.7267 67.8878 16.2664 67.7662C14.2673 67.6793 17.6247 65.9422 17.9578 59.897C18.1629 55.9884 20.3926 59.4801 20.4438 62.659C20.5207 65.838 21.8534 67.4188 20.7257 67.9225Z" fill="#D2D3D2"/>
</g>
</g>
</g>
<defs>
<linearGradient id="paint0_linear_898_1905" x1="0.533593" y1="52.4748" x2="40.32" y2="52.4748" gradientUnits="userSpaceOnUse">
<stop stop-color="white"/>
<stop offset="0.180392" stop-color="white"/>
<stop offset="1" stop-color="#A4A4A3"/>
</linearGradient>
</defs>
</svg>
