<svg width="32" height="73" viewBox="0 0 32 73" fill="none" xmlns="http://www.w3.org/2000/svg">
<path d="M6.00001 48.0912C6.00001 49.0689 7.60343 49.8007 8.94852 50.2424C10.9335 50.8944 13.4378 51.2534 16 51.2534C18.5621 51.2534 21.0664 50.8944 23.0514 50.2425C24.3965 49.8008 26 49.0689 26 48.0913C26 48.035 26 45.7695 26 45.7695C26 44.9691 25.493 44.3179 24.8699 44.3179C24.8699 44.3179 24.116 44.3179 23.8648 44.3179C23.4881 44.3179 23.3034 43.9149 23.3034 43.9149L20.3373 37.0848C20.1672 36.693 20.0181 35.956 20.0181 35.5076L20.0181 31.792C20.0181 31.1327 19.6766 30.6539 19.2062 30.6539L19.2061 30.6539C19.0726 30.6539 18.936 30.6925 18.8001 30.7689L12.8979 34.0864C12.3757 34.3798 11.982 35.0721 11.982 35.6964C11.982 36.0442 11.8329 36.6929 11.6627 37.0847L8.65576 44.0088C8.65576 44.0088 8.50516 44.3178 8.24147 44.3178C7.96362 44.3178 7.13016 44.3178 7.13016 44.3178C6.50703 44.3178 6.00008 44.969 6.00008 45.7694C6.00008 45.7694 6.00001 48.0349 6.00001 48.0912Z" fill="#333232"/>
<path d="M12.7935 17.2198C12.927 17.2198 13.0636 17.1812 13.1995 17.1049L19.1017 13.7874C19.6153 13.4989 20.0176 12.7086 20.0176 11.9886L20.0176 10.1408C20.0176 9.48146 19.6761 9.00274 19.2057 9.00274C19.0722 9.00274 18.9355 9.04135 18.7997 9.1178L12.8974 12.4353C12.3838 12.7238 11.9815 13.514 11.9815 14.2341L11.9815 16.0818C11.9816 16.7412 12.323 17.2198 12.7935 17.2198Z" fill="#333232"/>
<path d="M12.7935 24.437C12.927 24.437 13.0636 24.3983 13.1995 24.322L19.1017 21.0045C19.6153 20.716 20.0176 19.9257 20.0176 19.2057L20.0176 17.3579C20.0176 16.6985 19.6761 16.2198 19.2057 16.2198C19.0722 16.2198 18.9355 16.2585 18.7997 16.3349L12.8974 19.6524C12.3838 19.941 11.9815 20.7312 11.9815 21.4512L11.9815 23.2989C11.9816 23.9583 12.323 24.437 12.7935 24.437Z" fill="#333232"/>
<path d="M12.7935 10.0028C12.927 10.0028 13.0636 9.96419 13.1995 9.88775L19.1017 6.57029C19.5576 6.31404 20.0176 5.81838 20.0176 5.28876C20.0176 4.84333 19.6879 4.20939 19.3816 3.80906L16.7963 0.429369C16.5845 0.15251 16.3015 2.53615e-06 15.9996 2.50976e-06C15.6978 2.48337e-06 15.4148 0.15251 15.2029 0.429466L12.6177 3.80896C12.2551 4.28294 11.9817 5.14157 11.9817 5.80609L11.9817 8.86479C11.9816 9.52418 12.323 10.0028 12.7935 10.0028Z" fill="#333232"/>
<path d="M12.7935 31.6541C12.927 31.6541 13.0636 31.6155 13.1995 31.5392L19.1017 28.2217C19.6153 27.9331 20.0176 27.1429 20.0176 26.4228L20.0176 24.5751C20.0176 23.9157 19.6761 23.437 19.2057 23.437C19.0722 23.437 18.9355 23.4756 18.7997 23.5521L12.8974 26.8695C12.3838 27.1581 11.9815 27.9483 11.9815 28.6684L11.9815 30.5161C11.9816 31.1755 12.323 31.6541 12.7935 31.6541Z" fill="#333232"/>
<path fill-rule="evenodd" clip-rule="evenodd" d="M15.1017 42.7814C14.1635 42.8674 13.2 43.108 12.1603 43.5377C11.8814 43.6408 11.6025 43.7783 11.3236 43.933C8.68653 45.7032 6.07482 48.2125 4.27452 50.8592C3.71668 55.0872 0.597844 59.298 0.623201 63.0447C0.623201 65.8289 2.32208 68.3726 8.05262 70.5038C10.7657 71.5178 11.5772 72.5318 15.9384 72.5318C18.1444 72.5318 22.0747 69.9538 24.5343 67.9257C26.9938 65.8805 30.8226 64.8665 31.0762 61.1713C31.1016 61.0166 31.1016 60.862 31.1016 60.7073C31.1016 57.3902 28.8448 51.6326 26.4613 47.525C23.1904 45.222 19.8433 42.7471 15.9384 42.7471C15.6595 42.7471 15.3806 42.7643 15.1017 42.7814Z" fill="url(#paint0_linear_936_2166)"/>
<path d="M25.1937 53.1964C23.6216 50.8761 22.6834 48.3153 22.2777 45.2217C20.9085 43.967 19.0575 43.2968 16.8515 42.7983C16.8008 43.2108 16.8008 43.1421 16.7247 43.5546C15.4062 52.0105 20.9846 54.6744 23.2666 59.6414C24.3062 61.8929 24.6866 63.2334 23.6723 64.8146C21.9988 67.4614 23.647 67.238 25.7262 66.1896C34.2967 61.9272 27.6786 56.8743 25.1937 53.1964Z" fill="#AFAFAD"/>
<path d="M16.4207 60.7925C18.145 58.5583 20.6553 61.9784 21.0102 64.0065C21.0863 64.4877 20.5538 65.2611 21.6442 66.8079C22.7345 68.3547 21.5174 69.2828 20.8327 69.6437C20.0213 70.1078 17.5618 72.2389 14.9754 71.8952C13.2512 71.6546 12.7948 70.4515 14.8233 67.9079C16.8772 65.3814 15.4065 62.1159 16.4207 60.7925Z" fill="#C2C0BE"/>
<path d="M7.57116 63.1132C6.02442 62.4773 5.99907 65.399 5.36516 66.8084C5.01017 67.6333 4.90874 68.9223 6.81047 69.7473C9.01647 70.7098 9.72645 70.7269 9.67574 68.6817C9.59967 66.6193 8.96576 63.6975 7.57116 63.1132Z" fill="#E9EAE9"/>
<defs>
<linearGradient id="paint0_linear_936_2166" x1="31.1023" y1="57.6434" x2="0.61179" y2="57.6434" gradientUnits="userSpaceOnUse">
<stop stop-color="#A4A4A3"/>
<stop offset="0.819608" stop-color="white"/>
<stop offset="1" stop-color="white"/>
</linearGradient>
</defs>
</svg>
