<svg width="32" height="74" viewBox="0 0 32 74" fill="none" xmlns="http://www.w3.org/2000/svg">
<path d="M4.99999 48.0912C4.99999 49.0689 6.76376 49.8007 8.24336 50.2424C10.4269 50.8944 13.1816 51.2534 16 51.2534C18.8184 51.2534 21.573 50.8944 23.7565 50.2425C25.2361 49.8008 27 49.0689 27 48.0913C27 48.035 27 45.7695 27 45.7695C27 44.9691 26.4424 44.3179 25.7569 44.3179C25.7569 44.3179 24.9276 44.3179 24.6512 44.3179C24.2369 44.3179 24.0338 43.9149 24.0338 43.9149L20.7711 37.0848C20.584 36.693 20.4199 35.956 20.4199 35.5076L20.4199 31.792C20.4199 31.1327 20.0443 30.6539 19.5268 30.6539L19.5267 30.6539C19.3799 30.6539 19.2296 30.6925 19.0802 30.7689L12.5877 34.0864C12.0133 34.3798 11.5802 35.0721 11.5802 35.6964C11.5802 36.0442 11.4161 36.6929 11.229 37.0847L7.92132 44.0088C7.92132 44.0088 7.75566 44.3178 7.46561 44.3178C7.15997 44.3178 6.24316 44.3178 6.24316 44.3178C5.55772 44.3178 5.00008 44.969 5.00008 45.7694C5.00008 45.7694 4.99999 48.0349 4.99999 48.0912Z" fill="#333232"/>
<path d="M12.4729 17.2198C12.6198 17.2198 12.7701 17.1812 12.9195 17.1049L19.412 13.7874C19.9769 13.4989 20.4194 12.7086 20.4194 11.9886L20.4194 10.1408C20.4194 9.48146 20.0439 9.00274 19.5264 9.00274C19.3796 9.00274 19.2291 9.04135 19.0797 9.1178L12.5873 12.4353C12.0223 12.7238 11.5798 13.514 11.5798 14.2341L11.5798 16.0818C11.5799 16.7412 11.9554 17.2198 12.4729 17.2198Z" fill="#333232"/>
<path d="M12.4729 24.4369C12.6198 24.437 12.7701 24.3983 12.9195 24.322L19.412 21.0045C19.9769 20.716 20.4194 19.9257 20.4194 19.2057L20.4194 17.3579C20.4194 16.6985 20.0439 16.2198 19.5264 16.2198C19.3796 16.2198 19.2291 16.2585 19.0797 16.3349L12.5873 19.6524C12.0223 19.941 11.5798 20.7312 11.5798 21.4512L11.5798 23.2989C11.5799 23.9583 11.9554 24.4369 12.4729 24.4369Z" fill="#333232"/>
<path d="M12.4729 10.0028C12.6198 10.0028 12.7701 9.96419 12.9195 9.88775L19.412 6.57029C19.9134 6.31404 20.4194 5.81838 20.4194 5.28876C20.4194 4.84333 20.0568 4.20939 19.7198 3.80906L16.8761 0.429369C16.643 0.15251 16.3318 2.68309e-06 15.9997 2.65406e-06C15.6676 2.62503e-06 15.3564 0.152511 15.1233 0.429466L12.2796 3.80896C11.8807 4.28294 11.58 5.14157 11.58 5.80609L11.58 8.86479C11.5799 9.52418 11.9554 10.0028 12.4729 10.0028Z" fill="#333232"/>
<path d="M12.4729 31.6541C12.6198 31.6541 12.7701 31.6155 12.9195 31.5392L19.412 28.2217C19.9769 27.9331 20.4194 27.1429 20.4194 26.4228L20.4194 24.5751C20.4194 23.9157 20.0439 23.437 19.5264 23.437C19.3796 23.437 19.2291 23.4756 19.0797 23.5521L12.5873 26.8695C12.0223 27.1581 11.5798 27.9483 11.5798 28.6684L11.5798 30.5161C11.5799 31.1755 11.9554 31.6541 12.4729 31.6541Z" fill="#333232"/>
<path fill-rule="evenodd" clip-rule="evenodd" d="M5.60592 48.1762C5.34124 48.701 5.07656 49.2259 4.75305 49.6946C2.87087 52.4877 0.0181797 57.2304 0.0475889 62.7417C0.0475889 63.3978 0.076998 64.0539 0.165226 64.7287C0.576954 67.9155 1.78273 69.9026 6.4882 71.3273C9.0762 72.1146 12.6935 72.9581 17.8401 73.2768C21.8986 73.5205 25.6042 73.2206 28.0745 72.2833C29.6626 71.6834 30.6625 70.7274 31.1625 69.7526C31.486 69.134 31.633 68.0092 31.633 66.6221C31.633 62.5917 30.4273 56.3118 28.9568 53.2375C28.3392 51.9628 27.8392 50.6319 27.4275 49.2634C25.4571 48.3636 23.4573 47.67 21.428 47.1639C19.2224 46.6015 16.9579 46.3203 14.7522 46.3203C11.6348 46.3203 8.54684 46.9014 5.60592 48.1762Z" fill="url(#paint0_linear_936_2162)"/>
<path d="M29.6337 62.0294C29.1632 55.1685 27.8692 52.9002 25.2812 49.6009C24.9283 49.151 24.6342 48.7949 24.4871 48.5324C24.3107 48.1575 23.8695 47.8763 23.2814 47.7076C21.6344 47.2765 19.9287 46.7891 18.2524 46.8828C17.9289 46.9015 17.6348 47.0515 17.576 47.2577C16.5467 51.6067 21.4874 52.4878 25.0459 55.9183C30.1925 60.9047 27.428 67.6907 25.5753 70.0526C23.7225 72.3959 24.9283 72.6583 27.281 71.0462C28.6926 70.0714 29.8984 66.041 29.6337 62.0294Z" fill="#AFAFAD"/>
<path d="M8.16474 56.1434C9.16465 55.4498 10.8998 56.5558 10.4587 57.4744C10.0469 58.3554 5.60614 63.6417 6.63546 68.0658C7.04719 69.9216 3.69455 68.8343 5.10619 64.3353C6.51783 59.8176 5.60614 57.8868 8.16474 56.1434Z" fill="#E9EAE9"/>
<path d="M23.2814 57.6239C23.6049 55.768 25.4283 56.7803 25.9576 57.9426C26.4576 59.0861 28.928 64.4474 25.5165 69.4338C24.2813 71.2709 23.1638 70.5773 24.3695 68.6652C25.9576 66.2095 25.5753 64.2599 25.3695 62.9102C25.0165 60.4358 23.0461 58.9548 23.2814 57.6239Z" fill="#D2D3D2"/>
<defs>
<linearGradient id="paint0_linear_936_2162" x1="0.035237" y1="59.8327" x2="31.6316" y2="59.8327" gradientUnits="userSpaceOnUse">
<stop stop-color="white"/>
<stop offset="0.180392" stop-color="white"/>
<stop offset="1" stop-color="#A4A4A3"/>
</linearGradient>
</defs>
</svg>
