<svg width="36" height="68" viewBox="0 0 36 68" fill="none" xmlns="http://www.w3.org/2000/svg">
<path d="M6 48.0912C6 49.0689 7.84394 49.8007 9.39079 50.2424C11.6736 50.8944 14.5534 51.2534 17.5 51.2534C20.4465 51.2534 23.3264 50.8944 25.6091 50.2425C27.156 49.8008 29 49.0689 29 48.0913C29 48.035 29 45.7695 29 45.7695C29 44.9691 28.417 44.3179 27.7004 44.3179C27.7004 44.3179 26.8334 44.3179 26.5445 44.3179C26.1113 44.3179 25.8989 43.9149 25.8989 43.9149L22.4879 37.0848C22.2923 36.693 22.1208 35.956 22.1208 35.5076L22.1208 31.792C22.1208 31.1327 21.7281 30.6539 21.1871 30.6539L21.1871 30.6539C21.0335 30.6539 20.8764 30.6925 20.7202 30.7689L13.9326 34.0864C13.3321 34.3798 12.8793 35.0721 12.8793 35.6964C12.8793 36.0442 12.7078 36.6929 12.5121 37.0847L9.05412 44.0088C9.05412 44.0088 8.88092 44.3178 8.57769 44.3178C8.25816 44.3178 7.29967 44.3178 7.29967 44.3178C6.58308 44.3178 6.00009 44.969 6.00009 45.7694C6.00009 45.7694 6 48.0349 6 48.0912Z" fill="#333232"/>
<path d="M13.8126 17.2198C13.9662 17.2198 14.1233 17.1812 14.2795 17.1049L21.0671 13.7874C21.6577 13.4989 22.1204 12.7086 22.1204 11.9886L22.1204 10.1408C22.1204 9.48146 21.7277 9.00274 21.1867 9.00274C21.0332 9.00274 20.876 9.04135 20.7198 9.1178L13.9322 12.4353C13.3416 12.7238 12.8789 13.514 12.8789 14.2341L12.8789 16.0818C12.879 16.7412 13.2716 17.2198 13.8126 17.2198Z" fill="#333232"/>
<path d="M13.8126 24.4369C13.9662 24.4369 14.1233 24.3983 14.2795 24.322L21.0671 21.0045C21.6577 20.716 22.1204 19.9257 22.1204 19.2057L22.1204 17.3579C22.1204 16.6985 21.7277 16.2198 21.1867 16.2198C21.0332 16.2198 20.876 16.2585 20.7198 16.3349L13.9322 19.6524C13.3416 19.941 12.8789 20.7312 12.8789 21.4512L12.8789 23.2989C12.879 23.9583 13.2716 24.4369 13.8126 24.4369Z" fill="#333232"/>
<path d="M13.8126 10.0028C13.9662 10.0028 14.1233 9.96419 14.2795 9.88775L21.0671 6.57029C21.5913 6.31404 22.1204 5.81838 22.1204 5.28876C22.1204 4.84333 21.7412 4.20939 21.389 3.80906L18.4159 0.429369C18.1723 0.15251 17.8469 2.66685e-06 17.4997 2.6365e-06C17.1526 2.60615e-06 16.8271 0.152511 16.5835 0.429466L13.6105 3.80896C13.1935 4.28294 12.8791 5.14157 12.8791 5.80609L12.8791 8.86479C12.879 9.52418 13.2716 10.0028 13.8126 10.0028Z" fill="#333232"/>
<path d="M13.8126 31.6541C13.9662 31.6541 14.1233 31.6155 14.2795 31.5392L21.0671 28.2217C21.6577 27.9331 22.1204 27.1429 22.1204 26.4228L22.1204 24.5751C22.1204 23.9157 21.7277 23.437 21.1867 23.437C21.0332 23.437 20.876 23.4756 20.7198 23.5521L13.9322 26.8695C13.3416 27.1581 12.8789 27.9483 12.8789 28.6684L12.8789 30.5161C12.879 31.1755 13.2716 31.6541 13.8126 31.6541Z" fill="#333232"/>
<path fill-rule="evenodd" clip-rule="evenodd" d="M5.74546 47.6845C3.80445 51.4899 0.304759 55.0891 0.334169 59.7569C0.334169 59.8506 0.334169 59.9443 0.334169 60.038C0.422396 63.6372 3.86327 64.1246 7.86292 65.3431C22.9204 69.9171 21.6558 66.6741 30.1257 65.6243C35.0958 65.0057 35.684 63.9372 35.684 62.2126C35.684 61.9689 35.684 61.7252 35.6546 61.4627C35.2429 53.2146 30.3315 50.159 29.4787 46.7847C22.9498 49.1842 13.4212 48.8655 6.24541 46.6348C6.06896 47.0097 5.92191 47.3659 5.74546 47.6845Z" fill="url(#paint0_linear_936_1989)"/>
<path d="M26.185 56.3075C25.0675 54.6953 24.7146 51.4898 24.5381 48.1343C22.3618 48.3592 20.1856 48.6404 18.0093 48.303C18.9504 52.3521 21.8325 53.5331 21.6266 58.8382C21.3913 64.4994 18.8327 65.6991 21.3913 66.6364C23.9499 67.5925 28.8024 65.6804 31.6845 64.4619C34.596 63.2247 28.5083 59.663 26.185 56.3075Z" fill="#AFAFAD"/>
<path d="M3.36353 63.7493C5.59862 62.2309 10.3629 61.4249 13.3921 62.7183C17.3035 64.3117 19.4503 67.461 26.4203 66.205C22.0089 68.4171 18.0093 66.505 14.4802 64.2367C12.6274 63.037 8.7454 61.4249 3.36353 63.7493Z" fill="#C2C0BE"/>
<defs>
<linearGradient id="paint0_linear_936_1989" x1="0.322405" y1="57.1812" x2="35.6952" y2="57.1812" gradientUnits="userSpaceOnUse">
<stop stop-color="white"/>
<stop offset="0.180392" stop-color="white"/>
<stop offset="1" stop-color="#A4A4A3"/>
</linearGradient>
</defs>
</svg>
