<svg width="34" height="72" viewBox="0 0 34 72" fill="none" xmlns="http://www.w3.org/2000/svg">
<path d="M7.00001 48.0912C7.00001 49.0689 8.60343 49.8007 9.94852 50.2424C11.9335 50.8944 14.4378 51.2534 17 51.2534C19.5621 51.2534 22.0664 50.8944 24.0514 50.2425C25.3965 49.8008 27 49.0689 27 48.0913C27 48.035 27 45.7695 27 45.7695C27 44.9691 26.493 44.3179 25.8699 44.3179C25.8699 44.3179 25.116 44.3179 24.8648 44.3179C24.4881 44.3179 24.3034 43.9149 24.3034 43.9149L21.3373 37.0848C21.1672 36.693 21.0181 35.956 21.0181 35.5076L21.0181 31.792C21.0181 31.1327 20.6766 30.6539 20.2062 30.6539L20.2061 30.6539C20.0726 30.6539 19.936 30.6925 19.8001 30.7689L13.8979 34.0864C13.3757 34.3798 12.982 35.0721 12.982 35.6964C12.982 36.0442 12.8329 36.6929 12.6627 37.0847L9.65576 44.0088C9.65576 44.0088 9.50516 44.3178 9.24147 44.3178C8.96362 44.3178 8.13016 44.3178 8.13016 44.3178C7.50703 44.3178 7.00008 44.969 7.00008 45.7694C7.00008 45.7694 7.00001 48.0349 7.00001 48.0912Z" fill="#333232"/>
<path d="M13.7935 17.2198C13.927 17.2198 14.0636 17.1812 14.1995 17.1049L20.1017 13.7874C20.6153 13.4989 21.0176 12.7086 21.0176 11.9886L21.0176 10.1408C21.0176 9.48146 20.6761 9.00274 20.2057 9.00274C20.0722 9.00274 19.9355 9.04135 19.7997 9.1178L13.8974 12.4353C13.3838 12.7238 12.9815 13.514 12.9815 14.2341L12.9815 16.0818C12.9816 16.7412 13.323 17.2198 13.7935 17.2198Z" fill="#333232"/>
<path d="M13.7935 24.437C13.927 24.437 14.0636 24.3983 14.1995 24.322L20.1017 21.0045C20.6153 20.716 21.0176 19.9257 21.0176 19.2057L21.0176 17.3579C21.0176 16.6985 20.6761 16.2198 20.2057 16.2198C20.0722 16.2198 19.9355 16.2585 19.7997 16.3349L13.8974 19.6524C13.3838 19.941 12.9815 20.7312 12.9815 21.4512L12.9815 23.2989C12.9816 23.9583 13.323 24.437 13.7935 24.437Z" fill="#333232"/>
<path d="M13.7935 10.0028C13.927 10.0028 14.0636 9.96419 14.1995 9.88775L20.1017 6.57029C20.5576 6.31404 21.0176 5.81838 21.0176 5.28876C21.0176 4.84333 20.6879 4.20939 20.3816 3.80906L17.7963 0.429369C17.5845 0.15251 17.3015 2.53615e-06 16.9996 2.50976e-06C16.6978 2.48337e-06 16.4148 0.15251 16.2029 0.429466L13.6177 3.80896C13.2551 4.28294 12.9817 5.14157 12.9817 5.80609L12.9817 8.86479C12.9816 9.52418 13.323 10.0028 13.7935 10.0028Z" fill="#333232"/>
<path d="M13.7935 31.6541C13.927 31.6541 14.0636 31.6155 14.1995 31.5392L20.1017 28.2217C20.6153 27.9331 21.0176 27.1429 21.0176 26.4228L21.0176 24.5751C21.0176 23.9157 20.6761 23.437 20.2057 23.437C20.0722 23.437 19.9355 23.4756 19.7997 23.5521L13.8974 26.8695C13.3838 27.1581 12.9815 27.9483 12.9815 28.6684L12.9815 30.5161C12.9816 31.1755 13.323 31.6541 13.7935 31.6541Z" fill="#333232"/>
<path fill-rule="evenodd" clip-rule="evenodd" d="M15.0513 71.0393H15.1021H15.1528C15.2288 71.0393 15.3303 71.0393 15.4063 71.0393C17.8913 70.9706 23.064 69.4581 25.4982 68.0832C27.9577 66.6911 33.9672 65.2989 33.9672 60.5038C33.9672 55.4509 29.6566 50.3292 27.4253 46.9434C26.4617 45.9982 25.6503 45.0185 23.7993 44.3826C22.2526 44.1248 20.7058 43.9873 19.2098 43.9873C17.1559 43.9873 15.1528 44.2279 13.2257 44.7607C11.045 45.3794 8.99118 46.3591 7.11481 47.7512C5.72021 51.7729 0.293945 56.6368 0.293945 61.2085C0.293945 63.7521 1.99282 66.1927 6.96267 68.3582C7.08945 68.4098 7.24159 68.4785 7.36837 68.5301C7.4698 68.5816 7.54587 68.616 7.64729 68.6504C7.67265 68.6676 7.698 68.6847 7.74872 68.7019C7.77407 68.7191 7.79943 68.7191 7.82479 68.7363C10.5633 69.9909 12.2875 71.0393 15.0513 71.0393Z" fill="url(#paint0_linear_936_2167)"/>
<path d="M22.1513 45.8088C21.9484 45.087 22.6838 45.3276 22.6584 44.4167C21.6949 44.0214 20.4524 44.1073 19.286 44.1761C18.3985 44.2104 17.6886 44.726 17.7646 45.3448C18.0943 47.8884 22.3034 49.4352 20.9595 54.6944C19.7678 59.4208 21.9231 61.1051 23.343 60.1082C30.0117 55.3819 31.4571 60.3145 30.8739 55.3647C30.3414 50.7586 23.2162 49.779 22.1513 45.8088Z" fill="#AFAFAD"/>
<path d="M14.595 69.1835C13.8596 70.4725 6.68378 67.4992 4.42706 65.5743C2.1957 63.6494 2.62676 61.4495 4.42706 61.226C6.22736 61.0026 9.27012 62.5151 10.3097 64.4056C12.3129 68.1351 15.1021 68.2898 14.595 69.1835Z" fill="#E9EAE9"/>
<path d="M32.167 62.9442C35.9705 58.3897 26.259 59.249 22.3541 61.7239C20.1734 62.9786 18.2464 64.4738 17.7646 66.1238C17.2575 67.2581 18.6013 69.8533 21.3398 69.1143C20.3002 69.2002 19.7677 69.2002 19.1592 68.5815C17.511 66.519 20.9848 64.0613 23.5712 62.5145C25.7772 61.0365 34.0941 58.4756 32.167 62.9442Z" fill="#C2C0BE"/>
<defs>
<linearGradient id="paint0_linear_936_2167" x1="33.9624" y1="57.5135" x2="0.301806" y2="57.5135" gradientUnits="userSpaceOnUse">
<stop stop-color="#A4A4A3"/>
<stop offset="0.819608" stop-color="white"/>
<stop offset="1" stop-color="white"/>
</linearGradient>
</defs>
</svg>
