<svg width="38" height="63" viewBox="0 0 38 63" fill="none" xmlns="http://www.w3.org/2000/svg">
<path d="M2.00001 48.0914C2.00001 49.0691 4.72583 49.8009 7.01248 50.2425C10.387 50.8946 14.6442 51.2536 18.9999 51.2536C23.3556 51.2536 27.6129 50.8946 30.9874 50.2426C33.274 49.801 36 49.0691 36 48.0915C36 48.0352 36 45.7697 36 45.7697C36 44.9693 35.1382 44.3181 34.0789 44.3181C34.0789 44.3181 32.7972 44.3181 32.3701 44.3181C31.7297 44.3181 31.4158 43.9151 31.4158 43.9151L26.3735 37.085C26.0843 36.6932 25.8307 35.9562 25.8307 35.5078L25.8307 31.7922C25.8307 31.1328 25.2503 30.6541 24.4506 30.6541L24.4504 30.6541C24.2235 30.6541 23.9912 30.6927 23.7602 30.7691L13.7264 34.0865C12.8388 34.3799 12.1694 35.0722 12.1694 35.6966C12.1694 36.0444 11.9158 36.6931 11.6267 37.0849L6.51479 44.009C6.51479 44.009 6.25876 44.318 5.8105 44.318C5.33816 44.318 3.92127 44.318 3.92127 44.318C2.86195 44.318 2.00013 44.9692 2.00013 45.7696C2.00013 45.7696 2.00001 48.0351 2.00001 48.0914Z" fill="#333232"/>
<path d="M13.5493 17.2198C13.7764 17.2198 14.0086 17.1812 14.2395 17.1049L24.2733 13.7874C25.1464 13.4989 25.8303 12.7086 25.8303 11.9886L25.8303 10.1408C25.8303 9.48146 25.2499 9.00274 24.4502 9.00274C24.2232 9.00274 23.9908 9.04135 23.7599 9.1178L13.7261 12.4353C12.853 12.7238 12.1691 13.514 12.1691 14.2341L12.1691 16.0818C12.1692 16.7412 12.7496 17.2198 13.5493 17.2198Z" fill="#333232"/>
<path d="M13.5493 24.4369C13.7764 24.4369 14.0086 24.3983 14.2395 24.322L24.2733 21.0045C25.1464 20.716 25.8303 19.9257 25.8303 19.2057L25.8303 17.3579C25.8303 16.6985 25.2499 16.2198 24.4502 16.2198C24.2232 16.2198 23.9908 16.2585 23.7599 16.3349L13.7261 19.6524C12.853 19.941 12.1691 20.7311 12.1691 21.4512L12.1691 23.2989C12.1692 23.9583 12.7496 24.4369 13.5493 24.4369Z" fill="#333232"/>
<path d="M13.5493 10.0028C13.7764 10.0028 14.0086 9.96419 14.2395 9.88774L24.2733 6.57028C25.0483 6.31404 25.8303 5.81838 25.8303 5.28876C25.8303 4.84333 25.2699 4.20939 24.7491 3.80906L20.3542 0.429368C19.9941 0.15251 19.513 2.30875e-06 18.9998 2.26388e-06C18.4866 2.21902e-06 18.0056 0.15251 17.6454 0.429466L13.2505 3.80896C12.6341 4.28294 12.1693 5.14157 12.1693 5.80609L12.1693 8.86479C12.1692 9.52418 12.7496 10.0028 13.5493 10.0028Z" fill="#333232"/>
<path d="M13.5493 31.6541C13.7764 31.6541 14.0086 31.6155 14.2395 31.5392L24.2733 28.2217C25.1464 27.9331 25.8303 27.1429 25.8303 26.4228L25.8303 24.5751C25.8303 23.9157 25.2499 23.437 24.4502 23.437C24.2232 23.437 23.9908 23.4756 23.7599 23.5521L13.7261 26.8695C12.853 27.1581 12.1691 27.9483 12.1691 28.6684L12.1691 30.5161C12.1692 31.1755 12.7496 31.6541 13.5493 31.6541Z" fill="#333232"/>
<path fill-rule="evenodd" clip-rule="evenodd" d="M30.8542 62.1764H30.9049C33.7702 62.1764 37.8019 59.2891 37.8019 53.4627C37.7765 51.5378 37.3455 49.2691 36.2551 46.6739L36.2044 46.5536C32.2488 48.152 27.3804 48.891 22.3345 48.891H22.3091C15.2601 48.891 7.856 47.4302 2.12546 44.749C2.04939 44.7146 1.99868 44.6803 1.92261 44.6631C1.92261 44.7318 1.92261 44.8178 1.92261 44.8865C1.92261 45.0584 1.92261 45.2131 1.94797 45.3677C1.94797 45.3677 0.299805 48.7364 0.299805 52.4831C0.299805 53.5143 0.426587 54.5627 0.730863 55.5767C2.42974 60.9562 6.89246 59.0141 10.5691 60.5953C10.5945 60.5953 10.6198 60.6124 10.6452 60.6124C10.6706 60.6296 10.6959 60.6468 10.7213 60.6468C10.7466 60.664 10.7466 60.664 10.772 60.664C10.772 60.6812 10.7973 60.6812 10.7973 60.6812C12.1919 61.2312 13.764 61.4202 15.3868 61.4202H15.4122C15.4376 61.4202 15.4629 61.4202 15.4629 61.4202C17.4407 61.403 19.4946 61.1452 21.4977 60.9218C22.0302 60.8531 22.588 60.8015 23.1205 60.7499C23.298 60.7327 23.5009 60.7156 23.6784 60.6984C24.2616 60.6468 24.7687 60.6296 25.1998 60.6296C25.2251 60.6296 25.2251 60.6296 25.2251 60.6296C28.1665 60.6296 27.9382 61.6265 29.4343 62.0218C29.7893 62.1077 30.2457 62.1764 30.8542 62.1764Z" fill="url(#paint0_linear_936_2171)"/>
<path d="M36.9142 52.7405C35.8746 51.1249 30.499 52.6373 32.0711 50.2656C33.3897 48.2547 28.648 48.6672 27.507 48.8906C28.2677 51.0905 27.7606 56.3497 23.9571 58.9105C21.0411 60.8698 21.8018 60.9042 26.8477 60.612C29.5101 60.4745 31.4119 59.8902 34.125 58.9105C36.9649 57.8965 38.2834 54.8373 36.9142 52.7405Z" fill="#AFAFAD"/>
<path d="M6.71472 59.8221C10.7717 59.9768 10.0364 60.6299 11.8113 61.1283C13.5609 61.5923 15.0063 60.0799 12.2171 59.0143C9.07286 57.8112 4.83835 59.7533 6.71472 59.8221Z" fill="white"/>
<defs>
<linearGradient id="paint0_linear_936_2171" x1="37.7894" y1="53.4155" x2="0.293466" y2="53.4155" gradientUnits="userSpaceOnUse">
<stop stop-color="#A4A4A3"/>
<stop offset="0.819608" stop-color="white"/>
<stop offset="1" stop-color="white"/>
</linearGradient>
</defs>
</svg>
