<svg width="39" height="65" viewBox="0 0 39 65" fill="none" xmlns="http://www.w3.org/2000/svg">
<path fill-rule="evenodd" clip-rule="evenodd" d="M0.170166 53.4462C0.170166 53.8369 0.194686 54.1964 0.243725 54.5559C0.709596 57.8536 4.976 62.6518 11.1304 63.2144C15.3968 63.6051 17.0887 62.9644 18.2166 62.3236C19.1483 61.7922 19.7122 61.2608 21.1099 61.3233C24.1748 61.4796 24.3464 64.8555 31.2855 64.9024C36.2384 64.9336 38.5433 60.4012 38.5678 57.8536C38.5678 57.8067 38.5678 57.7442 38.5678 57.6817C38.5923 54.1183 36.8759 51.4457 35.6009 48.3199C24.3464 51.1644 12.1847 51.5395 1.17547 48.1636C0.636037 49.9922 0.170166 51.8052 0.170166 53.4462Z" fill="url(#paint0_linear_936_1975)"/>
<path d="M21.1095 61.3233C24.4687 62.0735 24.3706 63.777 27.9995 64.5585C29.7649 64.9492 27.9259 62.3235 25.6701 61.6515C22.6297 60.7606 19.0008 60.8544 21.1095 61.3233Z" fill="white"/>
<path d="M37.2686 55.4312C35.258 53.1806 37.857 57.8537 33.3699 56.5408C28.8829 55.2124 28.7112 52.1334 28.0492 49.8672V49.8516C25.2295 50.4298 21.6986 50.4767 19.0505 50.4767L19.0996 50.5705C20.4972 52.8055 22.753 53.3369 24.592 55.0561C27.8531 58.1037 27.7305 61.0733 28.2208 62.0579C29.2997 64.246 31.0651 65.09 34.2772 64.2147C37.4892 63.3395 39.2792 57.6974 37.2686 55.4312Z" fill="#AFAFAD"/>
<path d="M1 48.0912C1 49.0689 3.806 49.8007 6.15991 50.2424C9.63368 50.8944 14.0161 51.2534 18.4999 51.2534C22.9838 51.2534 27.3662 50.8944 30.84 50.2425C33.1939 49.8008 36 49.0689 36 48.0913C36 48.035 36 45.7695 36 45.7695C36 44.9691 35.1128 44.3179 34.0224 44.3179C34.0224 44.3179 32.703 44.3179 32.2633 44.3179C31.6041 44.3179 31.281 43.9149 31.281 43.9149L26.0904 37.0848C25.7927 36.693 25.5316 35.956 25.5316 35.5076L25.5316 31.792C25.5316 31.1327 24.9341 30.6539 24.1109 30.6539L24.1107 30.6539C23.8771 30.6539 23.638 30.6925 23.4002 30.7689L13.0713 34.0864C12.1575 34.3798 11.4685 35.0721 11.4685 35.6964C11.4685 36.0442 11.2075 36.6929 10.9098 37.0847L5.64757 44.0088C5.64757 44.0088 5.38401 44.3178 4.92257 44.3178C4.43633 44.3178 2.97776 44.3178 2.97776 44.3178C1.8873 44.3178 1.00013 44.969 1.00013 45.7694C1.00013 45.7694 1 48.0349 1 48.0912Z" fill="#333232"/>
<path d="M12.8888 17.2198C13.1226 17.2198 13.3616 17.1812 13.5993 17.1049L23.9282 13.7874C24.827 13.4989 25.531 12.7086 25.531 11.9886L25.531 10.1408C25.531 9.48146 24.9335 9.00274 24.1103 9.00274C23.8767 9.00274 23.6374 9.04135 23.3996 9.1178L13.0707 12.4353C12.172 12.7238 11.4679 13.514 11.4679 14.2341L11.4679 16.0818C11.4681 16.7412 12.0656 17.2198 12.8888 17.2198Z" fill="#333232"/>
<path d="M12.8888 24.4369C13.1226 24.4369 13.3616 24.3983 13.5993 24.322L23.9282 21.0045C24.827 20.716 25.531 19.9257 25.531 19.2057L25.531 17.3579C25.531 16.6985 24.9335 16.2198 24.1103 16.2198C23.8767 16.2198 23.6374 16.2585 23.3996 16.3349L13.0707 19.6524C12.172 19.941 11.4679 20.7311 11.4679 21.4512L11.4679 23.2989C11.4681 23.9583 12.0656 24.4369 12.8888 24.4369Z" fill="#333232"/>
<path d="M12.8888 10.0028C13.1226 10.0028 13.3616 9.96419 13.5993 9.88774L23.9282 6.57028C24.726 6.31404 25.531 5.81838 25.531 5.28876C25.531 4.84333 24.9541 4.20939 24.418 3.80906L19.8938 0.429368C19.5231 0.15251 19.0279 2.2925e-06 18.4996 2.24632e-06C17.9713 2.20013e-06 17.4761 0.15251 17.1054 0.429466L12.5812 3.80896C11.9467 4.28294 11.4682 5.14157 11.4682 5.80609L11.4682 8.86479C11.4681 9.52418 12.0656 10.0028 12.8888 10.0028Z" fill="#333232"/>
<path d="M12.8888 31.6541C13.1226 31.6541 13.3616 31.6155 13.5993 31.5392L23.9282 28.2217C24.827 27.9331 25.531 27.1429 25.531 26.4228L25.531 24.5751C25.531 23.9157 24.9335 23.437 24.1103 23.437C23.8767 23.437 23.6374 23.4756 23.3996 23.5521L13.0707 26.8695C12.172 27.1581 11.4679 27.9483 11.4679 28.6684L11.4679 30.5161C11.4681 31.1755 12.0656 31.6541 12.8888 31.6541Z" fill="#333232"/>
<defs>
<linearGradient id="paint0_linear_936_1975" x1="0.172861" y1="56.5328" x2="38.5798" y2="56.5328" gradientUnits="userSpaceOnUse">
<stop stop-color="white"/>
<stop offset="0.180392" stop-color="white"/>
<stop offset="1" stop-color="#A4A4A3"/>
</linearGradient>
</defs>
</svg>
