<svg width="40" height="64" viewBox="0 0 40 64" fill="none" xmlns="http://www.w3.org/2000/svg">
<path d="M4.00001 48.0914C4.00001 49.0691 6.72583 49.8009 9.01248 50.2425C12.387 50.8946 16.6442 51.2536 20.9999 51.2536C25.3556 51.2536 29.6129 50.8946 32.9874 50.2426C35.274 49.801 38 49.0691 38 48.0915C38 48.0352 38 45.7697 38 45.7697C38 44.9693 37.1382 44.3181 36.0789 44.3181C36.0789 44.3181 34.7972 44.3181 34.3701 44.3181C33.7297 44.3181 33.4158 43.9151 33.4158 43.9151L28.3735 37.085C28.0843 36.6932 27.8307 35.9562 27.8307 35.5078L27.8307 31.7922C27.8307 31.1328 27.2503 30.6541 26.4506 30.6541L26.4504 30.6541C26.2235 30.6541 25.9912 30.6927 25.7602 30.7691L15.7264 34.0865C14.8388 34.3799 14.1694 35.0722 14.1694 35.6966C14.1694 36.0444 13.9158 36.6931 13.6267 37.0849L8.51479 44.009C8.51479 44.009 8.25876 44.318 7.8105 44.318C7.33816 44.318 5.92127 44.318 5.92127 44.318C4.86195 44.318 4.00013 44.9692 4.00013 45.7696C4.00013 45.7696 4.00001 48.0351 4.00001 48.0914Z" fill="#333232"/>
<path d="M15.5493 17.2198C15.7764 17.2198 16.0086 17.1812 16.2395 17.1049L26.2733 13.7874C27.1464 13.4989 27.8303 12.7086 27.8303 11.9886L27.8303 10.1408C27.8303 9.48146 27.2499 9.00274 26.4502 9.00274C26.2232 9.00274 25.9908 9.04135 25.7599 9.1178L15.7261 12.4353C14.853 12.7238 14.1691 13.514 14.1691 14.2341L14.1691 16.0818C14.1692 16.7412 14.7496 17.2198 15.5493 17.2198Z" fill="#333232"/>
<path d="M15.5493 24.4369C15.7764 24.4369 16.0086 24.3983 16.2395 24.322L26.2733 21.0045C27.1464 20.716 27.8303 19.9257 27.8303 19.2057L27.8303 17.3579C27.8303 16.6985 27.2499 16.2198 26.4502 16.2198C26.2232 16.2198 25.9908 16.2585 25.7599 16.3349L15.7261 19.6524C14.853 19.941 14.1691 20.7311 14.1691 21.4512L14.1691 23.2989C14.1692 23.9583 14.7496 24.4369 15.5493 24.4369Z" fill="#333232"/>
<path d="M15.5493 10.0028C15.7764 10.0028 16.0086 9.96419 16.2395 9.88774L26.2733 6.57028C27.0483 6.31404 27.8303 5.81838 27.8303 5.28876C27.8303 4.84333 27.2699 4.20939 26.7491 3.80906L22.3542 0.429368C21.9941 0.15251 21.513 2.30875e-06 20.9998 2.26388e-06C20.4866 2.21902e-06 20.0056 0.15251 19.6454 0.429466L15.2505 3.80896C14.6341 4.28294 14.1693 5.14157 14.1693 5.80609L14.1693 8.86479C14.1692 9.52418 14.7496 10.0028 15.5493 10.0028Z" fill="#333232"/>
<path d="M15.5493 31.6541C15.7764 31.6541 16.0086 31.6155 16.2395 31.5392L26.2733 28.2217C27.1464 27.9331 27.8303 27.1429 27.8303 26.4228L27.8303 24.5751C27.8303 23.9157 27.2499 23.437 26.4502 23.437C26.2232 23.437 25.9908 23.4756 25.7599 23.5521L15.7261 26.8695C14.853 27.1581 14.1691 27.9483 14.1691 28.6684L14.1691 30.5161C14.1692 31.1755 14.7496 31.6541 15.5493 31.6541Z" fill="#333232"/>
<path fill-rule="evenodd" clip-rule="evenodd" d="M38.6592 44.7979C38.5324 44.8322 38.4056 44.8666 38.2788 44.9182C38.1774 44.9525 38.1013 44.9697 38.0253 45.0041C37.9239 45.0213 37.8478 45.0557 37.7717 45.0728H37.7464C32.4469 46.7056 26.8938 47.4446 21.3154 47.4446C21.3154 47.4446 21.3154 47.4446 21.2901 47.4446C21.2901 47.4446 21.2901 47.4446 21.2647 47.4446C15.4074 47.4446 9.49936 46.6197 3.79418 45.1588C3.76882 45.1416 3.74347 45.1416 3.71811 45.1244C3.61668 45.1072 3.51526 45.0728 3.43919 45.0557C3.36312 45.0385 3.28705 45.0213 3.23634 45.0041C3.16027 44.9869 3.10956 44.9697 3.05884 44.9525C1.74031 48.4071 -0.00927734 51.346 -0.00927734 55.2646C-0.00927734 55.3334 -0.00927734 55.3849 -0.00927734 55.4537C0.016079 58.2207 2.39958 63.1705 7.4455 63.2049H7.47085C7.49621 63.2049 7.49621 63.2049 7.52156 63.2049C14.6974 63.1534 14.8749 59.441 18.0445 59.2691C18.1205 59.2691 18.1966 59.2691 18.298 59.2691C19.4644 59.2691 20.0223 59.7332 20.8337 60.2316C20.8337 60.2488 20.859 60.2488 20.8844 60.266C20.9097 60.2832 20.9351 60.3003 20.9604 60.3175C20.9858 60.3347 21.0112 60.3519 21.0365 60.3691C21.9747 60.9191 23.2172 61.4691 25.8542 61.4691H25.8796C25.8796 61.4691 25.8796 61.4691 25.9049 61.4691C26.4628 61.4691 27.0967 61.4519 27.8067 61.4003C27.8574 61.3831 27.9334 61.3831 28.0095 61.3831C28.0602 61.3659 28.1109 61.3659 28.187 61.3659C28.2377 61.3487 28.2884 61.3487 28.3645 61.3487C34.7289 60.7128 39.141 55.4537 39.6227 51.8273C39.6734 51.432 39.6988 51.0195 39.6988 50.607C39.6988 48.8024 39.2424 46.8087 38.6592 44.7979Z" fill="url(#paint0_linear_936_2170)"/>
<path d="M19.7941 59.3378C22.9383 60.455 24.1047 59.441 27.5024 60.6784C29.1506 61.2799 25.8036 61.9159 23.5722 61.2628C20.5548 60.3519 17.7909 58.616 19.7941 59.3378Z" fill="white"/>
<path d="M37.7463 51.5525C35.6671 49.0776 37.2646 55.4539 32.6244 53.993C27.9841 52.5494 33.9936 48.6995 33.3343 46.2246L23.1157 47.4105C24.561 49.8682 24.5357 50.1776 23.5721 52.3775C22.5072 54.7665 24.6371 57.4476 25.9049 58.1523C27.7306 59.1663 31.1283 59.8537 34.45 58.8741C37.7717 57.9116 39.8256 54.0446 37.7463 51.5525Z" fill="#AFAFAD"/>
<defs>
<linearGradient id="paint0_linear_936_2170" x1="39.7008" y1="53.9945" x2="-0.0158703" y2="53.9945" gradientUnits="userSpaceOnUse">
<stop stop-color="#A4A4A3"/>
<stop offset="0.819608" stop-color="white"/>
<stop offset="1" stop-color="white"/>
</linearGradient>
</defs>
</svg>
