<svg width="37" height="77" viewBox="0 0 37 77" fill="none" xmlns="http://www.w3.org/2000/svg">
<path d="M7.00001 48.0912C7.00001 49.0689 8.76377 49.8007 10.2434 50.2424C12.4269 50.8944 15.1816 51.2534 18 51.2534C20.8184 51.2534 23.573 50.8944 25.7565 50.2425C27.2361 49.8008 29 49.0689 29 48.0913C29 48.035 29 45.7695 29 45.7695C29 44.9691 28.4424 44.3179 27.7569 44.3179C27.7569 44.3179 26.9276 44.3179 26.6512 44.3179C26.2369 44.3179 26.0338 43.9149 26.0338 43.9149L22.7711 37.0848C22.584 36.693 22.4199 35.956 22.4199 35.5076L22.4199 31.792C22.4199 31.1327 22.0443 30.6539 21.5268 30.6539L21.5268 30.6539C21.3799 30.6539 21.2296 30.6925 21.0802 30.7689L14.5877 34.0864C14.0133 34.3798 13.5802 35.0721 13.5802 35.6964C13.5802 36.0442 13.4161 36.6929 13.229 37.0847L9.92133 44.0088C9.92133 44.0088 9.75567 44.3178 9.46562 44.3178C9.15998 44.3178 8.24317 44.3178 8.24317 44.3178C7.55774 44.3178 7.00009 44.969 7.00009 45.7694C7.00009 45.7694 7.00001 48.0349 7.00001 48.0912Z" fill="#333232"/>
<path d="M14.4729 17.2198C14.6198 17.2198 14.7701 17.1812 14.9195 17.1049L21.412 13.7874C21.9769 13.4989 22.4194 12.7086 22.4194 11.9886L22.4194 10.1408C22.4194 9.48146 22.0439 9.00274 21.5264 9.00274C21.3796 9.00274 21.2291 9.04135 21.0797 9.1178L14.5873 12.4353C14.0223 12.7238 13.5798 13.514 13.5798 14.2341L13.5798 16.0818C13.5799 16.7412 13.9555 17.2198 14.4729 17.2198Z" fill="#333232"/>
<path d="M14.4729 24.4369C14.6198 24.437 14.7701 24.3983 14.9195 24.322L21.412 21.0045C21.9769 20.716 22.4194 19.9257 22.4194 19.2057L22.4194 17.3579C22.4194 16.6985 22.0439 16.2198 21.5264 16.2198C21.3796 16.2198 21.2291 16.2585 21.0797 16.3349L14.5873 19.6524C14.0223 19.941 13.5798 20.7312 13.5798 21.4512L13.5798 23.2989C13.5799 23.9583 13.9555 24.4369 14.4729 24.4369Z" fill="#333232"/>
<path d="M14.4729 10.0028C14.6198 10.0028 14.7701 9.96419 14.9195 9.88775L21.412 6.57029C21.9134 6.31404 22.4194 5.81838 22.4194 5.28876C22.4194 4.84333 22.0568 4.20939 21.7198 3.80906L18.8761 0.429369C18.643 0.15251 18.3318 2.68309e-06 17.9997 2.65406e-06C17.6676 2.62503e-06 17.3564 0.152511 17.1233 0.429466L14.2796 3.80896C13.8807 4.28294 13.58 5.14157 13.58 5.80609L13.58 8.86479C13.5799 9.52418 13.9554 10.0028 14.4729 10.0028Z" fill="#333232"/>
<path d="M14.4729 31.6541C14.6198 31.6541 14.7701 31.6155 14.9195 31.5392L21.412 28.2217C21.9769 27.9331 22.4194 27.1429 22.4194 26.4228L22.4194 24.5751C22.4194 23.9157 22.0439 23.437 21.5264 23.437C21.3796 23.437 21.2291 23.4756 21.0797 23.5521L14.5873 26.8695C14.0223 27.1581 13.5798 27.9483 13.5798 28.6684L13.5798 30.5161C13.5799 31.1755 13.9555 31.6541 14.4729 31.6541Z" fill="#333232"/>
<path fill-rule="evenodd" clip-rule="evenodd" d="M0.847168 63.1043V63.1606C0.847168 63.3106 0.847168 63.4793 0.876577 63.6292C1.17067 67.6596 5.61145 68.7656 8.46414 70.9776C11.3168 73.2084 15.8753 76.0202 18.4338 76.0202C23.4922 76.0202 24.4333 74.9142 27.5801 73.8082C34.2266 71.4837 36.197 68.7094 36.197 65.6725C36.2264 61.5672 32.6091 56.9932 31.9621 52.3817C29.874 49.4949 26.8449 46.758 23.7863 44.8084C23.7569 44.8084 23.7569 44.7897 23.7275 44.7709C23.6981 44.7709 23.6981 44.7709 23.6687 44.7522C23.6687 44.7522 23.6393 44.7334 23.6099 44.7334C23.5805 44.7147 23.5805 44.7147 23.551 44.6959C23.4628 44.6584 23.3746 44.621 23.2864 44.5835C22.0218 44.0211 20.7866 43.7211 19.6102 43.5899C19.1985 43.5524 18.8162 43.5337 18.4338 43.5337C13.9048 43.5337 10.0228 46.2331 6.22904 48.745C3.46458 53.2253 0.847168 59.4864 0.847168 63.1043Z" fill="url(#paint0_linear_936_2161)"/>
<path d="M30.4332 55.8868C28.6392 53.3374 27.5217 50.5067 27.0805 47.1137C25.4924 45.7265 23.4044 44.4518 20.8164 43.9082C20.7576 44.3581 20.6987 44.8267 20.6399 45.2766C19.0812 54.5933 26.0512 57.6114 28.698 63.0852C29.9038 65.5784 29.5803 69.1963 28.6686 69.9087C25.5512 72.3644 28.6392 72.5706 31.0802 71.4271C40.9911 66.7219 33.3153 59.9546 30.4332 55.8868Z" fill="#AFAFAD"/>
<path d="M20.4049 63.0853C22.4341 60.6109 27.0808 64.0414 27.0808 67.097C27.0808 69.5714 25.0515 70.3962 26.3161 72.1021C27.5807 73.808 26.0514 74.3516 25.1986 74.689C24.3457 75.0452 20.3461 76.5074 18.4345 76.0575C16.4935 75.5888 16.0523 74.8952 18.4345 72.1021C20.7872 69.309 19.2285 64.5288 20.4049 63.0853Z" fill="#C2C0BE"/>
<path d="M9.08179 59.7861C7.28783 59.0738 7.02315 63.0854 6.2291 64.6225C5.43506 66.1784 4.31751 67.7718 6.81729 69.2902C9.02297 70.6399 11.6992 69.6464 11.6404 67.3969C11.5816 65.1287 10.7287 60.4047 9.08179 59.7861Z" fill="#E9EAE9"/>
<defs>
<linearGradient id="paint0_linear_936_2161" x1="0.846286" y1="59.7762" x2="36.2093" y2="59.7762" gradientUnits="userSpaceOnUse">
<stop stop-color="white"/>
<stop offset="0.180392" stop-color="white"/>
<stop offset="1" stop-color="#A4A4A3"/>
</linearGradient>
</defs>
</svg>
