<svg width="31" height="74" viewBox="0 0 31 74" fill="none" xmlns="http://www.w3.org/2000/svg">
<path d="M5.00001 48.0912C5.00001 49.0689 6.60343 49.8007 7.94852 50.2424C9.93354 50.8944 12.4378 51.2534 15 51.2534C17.5621 51.2534 20.0664 50.8944 22.0514 50.2425C23.3965 49.8008 25 49.0689 25 48.0913C25 48.035 25 45.7695 25 45.7695C25 44.9691 24.493 44.3179 23.8699 44.3179C23.8699 44.3179 23.116 44.3179 22.8648 44.3179C22.4881 44.3179 22.3034 43.9149 22.3034 43.9149L19.3373 37.0848C19.1672 36.693 19.0181 35.956 19.0181 35.5076L19.0181 31.792C19.0181 31.1327 18.6766 30.6539 18.2062 30.6539L18.2061 30.6539C18.0726 30.6539 17.936 30.6925 17.8001 30.7689L11.8979 34.0864C11.3757 34.3798 10.982 35.0721 10.982 35.6964C10.982 36.0442 10.8329 36.6929 10.6627 37.0847L7.65576 44.0088C7.65576 44.0088 7.50516 44.3178 7.24147 44.3178C6.96362 44.3178 6.13016 44.3178 6.13016 44.3178C5.50703 44.3178 5.00008 44.969 5.00008 45.7694C5.00008 45.7694 5.00001 48.0349 5.00001 48.0912Z" fill="#333232"/>
<path d="M11.7935 17.2198C11.927 17.2198 12.0636 17.1812 12.1995 17.1049L18.1017 13.7874C18.6153 13.4989 19.0176 12.7086 19.0176 11.9886L19.0176 10.1408C19.0176 9.48146 18.6761 9.00274 18.2057 9.00274C18.0722 9.00274 17.9355 9.04135 17.7997 9.1178L11.8974 12.4353C11.3838 12.7238 10.9815 13.514 10.9815 14.2341L10.9815 16.0818C10.9816 16.7412 11.323 17.2198 11.7935 17.2198Z" fill="#333232"/>
<path d="M11.7935 24.437C11.927 24.437 12.0636 24.3983 12.1995 24.322L18.1017 21.0045C18.6153 20.716 19.0176 19.9257 19.0176 19.2057L19.0176 17.3579C19.0176 16.6985 18.6761 16.2198 18.2057 16.2198C18.0722 16.2198 17.9355 16.2585 17.7997 16.3349L11.8974 19.6524C11.3838 19.941 10.9815 20.7312 10.9815 21.4512L10.9815 23.2989C10.9816 23.9583 11.323 24.437 11.7935 24.437Z" fill="#333232"/>
<path d="M11.7935 10.0028C11.927 10.0028 12.0636 9.96419 12.1995 9.88775L18.1017 6.57029C18.5576 6.31404 19.0176 5.81838 19.0176 5.28876C19.0176 4.84333 18.6879 4.20939 18.3816 3.80906L15.7963 0.429369C15.5845 0.15251 15.3015 2.71558e-06 14.9996 2.68919e-06C14.6978 2.6628e-06 14.4148 0.152511 14.2029 0.429466L11.6177 3.80896C11.2551 4.28294 10.9817 5.14157 10.9817 5.80609L10.9817 8.86479C10.9816 9.52418 11.323 10.0028 11.7935 10.0028Z" fill="#333232"/>
<path d="M11.7935 31.6541C11.927 31.6541 12.0636 31.6155 12.1995 31.5392L18.1017 28.2217C18.6153 27.9331 19.0176 27.1429 19.0176 26.4228L19.0176 24.5751C19.0176 23.9157 18.6761 23.437 18.2057 23.437C18.0722 23.437 17.9355 23.4756 17.7997 23.5521L11.8974 26.8695C11.3838 27.1581 10.9815 27.9483 10.9815 28.6684L10.9815 30.5161C10.9816 31.1755 11.323 31.6541 11.7935 31.6541Z" fill="#333232"/>
<path fill-rule="evenodd" clip-rule="evenodd" d="M13.687 45.5957H13.6576C13.2165 45.5957 12.746 45.6332 12.3048 45.6707C10.1874 45.8769 7.98167 46.533 5.65835 47.7702C5.59953 47.9577 5.54071 48.1451 5.45248 48.3138C3.5703 52.3442 1.51165 60.3112 1.3352 63.7417C1.30579 64.754 0.952881 66.1037 0.952881 67.4721C0.952881 70.8089 2.98211 74.3331 16.0398 73.6207C18.6866 73.4708 21.0099 73.5457 22.9509 73.602C26.1565 73.7145 28.421 73.8269 29.5092 73.0209C30.2738 72.4397 30.5973 70.4714 30.5973 68.0907C30.5973 65.0726 30.068 61.4172 29.1857 59.1115C28.2152 56.5433 26.8624 53.8439 25.686 50.7883C25.6272 50.7508 25.5978 50.7133 25.5389 50.6758C22.2745 47.7327 18.2455 45.5957 13.687 45.5957Z" fill="url(#paint0_linear_936_2163)"/>
<path d="M21.7454 48.2581C21.069 47.2083 17.2752 46.1585 17.3046 46.5147C17.7163 53.6569 23.5394 56.6749 25.6862 62.2799C27.3037 66.4978 28.2742 71.2217 21.8042 71.6341C20.8043 71.7091 18.6868 72.0653 20.7749 72.2902C26.3626 72.9088 28.5095 69.5721 28.6271 67.51C28.8036 64.7544 28.3625 58.3996 21.7454 48.2581Z" fill="#AFAFAD"/>
<defs>
<linearGradient id="paint0_linear_936_2163" x1="0.953763" y1="59.6575" x2="30.6011" y2="59.6575" gradientUnits="userSpaceOnUse">
<stop stop-color="white"/>
<stop offset="0.180392" stop-color="white"/>
<stop offset="1" stop-color="#A4A4A3"/>
</linearGradient>
</defs>
</svg>
