<svg width="40" height="41" viewBox="0 0 40 41" fill="none" xmlns="http://www.w3.org/2000/svg">
<path fill-rule="evenodd" clip-rule="evenodd" d="M15.4549 2.39359C14.5744 2.85578 13.6163 3.4005 12.5545 3.99475C7.84133 6.68536 8.8254 9.85468 5.35526 14.9058C1.93692 19.8908 3.30944 23.1757 2.42896 25.3876C12.1661 29.0851 27.3414 28.0617 37.4152 23.5719C37.208 17.7119 26.3056 0.297218 22.4988 0.0331084C22.447 0.0331084 22.4211 0.0331084 22.3693 0.0166016C22.3175 0.0166016 22.2398 0.0166016 22.1621 0.0166016C20.4788 0.0166016 18.3553 0.85845 15.4549 2.39359Z" fill="url(#paint0_linear_937_1813)"/>
<path fill-rule="evenodd" clip-rule="evenodd" d="M2.42909 25.3875L2.3773 25.5196C1.26375 28.0121 0.797607 30.1745 0.797607 32.0398C0.797607 37.6191 4.91516 40.4088 7.84147 40.4088C11.5706 40.4088 9.52474 38.5435 15.1961 38.9727C19.6762 39.3193 24.7778 40.4088 28.5846 38.8736C32.3655 37.3715 36.9233 39.2368 38.6325 34.0701C38.9691 33.0962 39.0986 32.0728 39.0986 31.0989C39.0986 27.5004 37.3894 24.2486 37.3894 24.2486C37.4153 24.1165 37.4153 23.9679 37.4153 23.8029C37.4153 23.7203 37.4153 23.6543 37.4153 23.5718C27.3416 28.0616 12.1662 29.0851 2.42909 25.3875Z" fill="url(#paint1_linear_937_1813)"/>
<path d="M38.6325 31.33C37.2341 29.8939 36.4054 31.33 34.6962 30.8678C34.256 30.7522 31.1225 29.9434 32.7281 27.649C34.0747 25.7177 32.4691 25.437 31.3038 25.7672C30.3197 26.0478 29.3357 26.2624 28.1703 26.477C27.9372 28.7219 27.5229 30.3396 27.1086 31.33C25.9173 34.1031 20.9711 41.5972 27.7819 38.2298C29.9313 37.1734 34.9034 37.9822 36.1982 36.8763C37.5708 35.6713 39.4353 32.1553 38.6325 31.33Z" fill="#AFAFAD"/>
<path d="M14.6522 38.5931C10.5347 39.0058 11.3893 39.5835 9.62829 40.1612C7.94501 40.706 6.23584 39.3689 8.90318 38.1639C11.9331 36.8103 16.5427 38.395 14.6522 38.5931Z" fill="#E9EAE9"/>
<path d="M29.4647 10.845C27.4966 7.54363 25.3989 4.17623 21.6957 1.60116C18.1479 -0.874861 24.2077 7.21349 26.1499 11.8024C28.3253 16.8865 28.5842 22.3172 28.1699 26.2789C30.1639 26.0478 31.64 25.404 33.6858 24.6777C33.1938 20.7326 32.2097 15.5164 29.4647 10.845Z" fill="#E4BB47"/>
<path d="M18.2781 2.70743C19.1068 -0.659967 6.13259 21.063 10.5091 25.6519C12.5031 27.7648 13.1764 27.022 13.9274 19.4454C14.6525 12.2484 16.3617 10.6307 18.2781 2.70743Z" fill="#DECB8E"/>
<path d="M17.32 4.02747C18.2782 2.07966 7.53111 19.4449 11.312 25.6514C12.5032 27.6157 11.8817 22.7132 12.814 18.3554C13.7463 14.0141 15.0929 8.51733 17.32 4.02747Z" fill="#CBBC84"/>
<path fill-rule="evenodd" clip-rule="evenodd" d="M22.2921 0L22.2662 0C18.7443 0 11.4156 4.29178 10.0431 5.76089C7.79008 8.13787 7.79008 10.9275 4.81198 15.1533C1.98925 19.28 2.81794 22.6474 2.27412 25.0079C2.24822 25.0739 2.22232 25.1399 2.19643 25.2059C2.19643 25.239 2.17053 25.2555 2.17053 25.2885C2.14463 25.3215 2.14463 25.338 2.14463 25.371C2.11874 25.3875 2.11874 25.404 2.11874 25.4205C2.11874 25.437 2.09284 25.4535 2.09284 25.4866C2.04105 25.6186 1.98925 25.7672 1.93746 25.8992C1.93746 25.9322 1.91156 25.9488 1.91156 25.9818C-1.66216 36.15 3.75022 40.2932 7.73829 40.5243C7.86777 40.5243 7.97135 40.5243 8.07494 40.5243C8.10084 40.5243 8.10084 40.5243 8.10084 40.5243C8.74825 40.5243 9.36977 40.4253 9.8877 40.2107C9.8877 40.1942 9.91359 40.1942 9.93949 40.1942C9.93949 40.1776 9.93949 40.1776 9.96539 40.1776C11.4156 39.5504 11.2343 39.0717 13.2542 39.0552C13.3837 39.0552 13.5132 39.0717 13.6686 39.0717C14.7303 39.1047 16.2841 39.2203 18.6925 39.4844C18.7702 39.5009 18.8738 39.5009 18.9515 39.5174C19.0033 39.5174 19.0551 39.5339 19.1069 39.5339C19.1328 39.5339 19.1587 39.5339 19.2105 39.5504C19.2363 39.5504 19.2622 39.5504 19.2881 39.5504C19.3658 39.5669 19.4435 39.5669 19.5212 39.5834C21.334 39.765 22.7583 39.831 23.8977 39.831H23.9236C23.9236 39.831 23.9236 39.831 23.9495 39.831C27.7045 39.831 28.3778 39.0387 29.9834 38.692C30.0352 38.692 30.0611 38.6755 30.1129 38.6755C30.2165 38.6425 30.3201 38.626 30.4237 38.6095C33.7643 37.9987 37.0532 38.659 38.8141 34.6974C38.8918 34.5323 38.9436 34.3672 39.0213 34.1857C39.7982 31.8252 39.591 29.1841 38.84 26.7411C38.8141 26.7081 38.8141 26.6916 38.8141 26.6585C38.7882 26.642 38.7882 26.609 38.7882 26.5925C38.7882 26.576 38.7882 26.576 38.7882 26.576C38.7623 26.5595 38.7623 26.5265 38.7623 26.51V26.4935C38.7364 26.477 38.7364 26.4605 38.7364 26.444C38.7364 26.4275 38.7364 26.4275 38.7364 26.4109C38.7105 26.3944 38.7105 26.3779 38.7105 26.3614C38.7105 26.3614 38.7105 26.3449 38.7105 26.3284C38.6846 26.3119 38.6846 26.3119 38.6846 26.2954C38.6846 26.2789 38.6846 26.2624 38.6846 26.2459C38.6587 26.2459 38.6587 26.2294 38.6587 26.2129C38.6587 26.1964 38.6587 26.1964 38.6329 26.1798C38.6329 26.1633 38.6329 26.1468 38.6329 26.1468C38.6329 26.1303 38.6329 26.1138 38.607 26.0973C38.607 26.0808 38.607 26.0808 38.607 26.0643C38.607 26.0478 38.607 26.0313 38.5811 26.0148V25.9983C38.5811 25.9818 38.5552 25.9488 38.5552 25.9322C38.5552 25.9322 38.5552 25.9322 38.5552 25.9157C38.5552 25.8992 38.5293 25.8827 38.5293 25.8497C38.3221 25.2885 38.089 24.7438 37.8301 24.2155C38.1926 19.4286 30.1647 6.20657 25.0631 1.60116C25.0372 1.56815 25.0372 1.55164 25.0113 1.53514C24.9854 1.51863 24.9854 1.50212 24.9595 1.50212C24.9595 1.48562 24.9336 1.48562 24.9336 1.46911C24.9077 1.4526 24.9077 1.4526 24.9077 1.4361C24.8818 1.41959 24.8818 1.41959 24.8559 1.40308C24.8559 1.40308 24.83 1.38657 24.83 1.37007C24.8041 1.37007 24.8041 1.35356 24.8041 1.35356C24.7782 1.33705 24.7782 1.33705 24.7782 1.33705C24.7782 1.33705 24.7782 1.32055 24.7523 1.32055C24.7523 1.30404 24.7264 1.30404 24.7264 1.28753C24.7005 1.27103 24.7005 1.27103 24.6746 1.25452C24.6746 1.23801 24.6746 1.23801 24.6487 1.23801C24.6487 1.22151 24.6487 1.22151 24.6487 1.22151C24.6228 1.22151 24.6228 1.205 24.6228 1.205C24.6228 1.205 24.6228 1.18849 24.5969 1.18849V1.17199C24.571 1.17199 24.571 1.17199 24.571 1.15548C24.571 1.15548 24.5451 1.15548 24.5451 1.13897C24.5451 1.12247 24.5192 1.12247 24.5192 1.12247C24.5192 1.10596 24.5192 1.10596 24.4933 1.10596V1.08945C24.4674 1.08945 24.4674 1.08945 24.4674 1.07294C24.4674 1.07294 24.4674 1.07294 24.4416 1.05644C24.4157 1.03993 24.4157 1.03993 24.4157 1.03993C24.4157 1.03993 24.4157 1.02342 24.3898 1.02342V1.00692C24.3898 1.00692 24.3639 1.00692 24.3639 0.99041C24.3639 0.99041 24.3639 0.99041 24.338 0.99041C24.338 0.973904 24.338 0.973904 24.338 0.973904L24.3121 0.957397V0.94089C24.2862 0.94089 24.2862 0.94089 24.2862 0.924383H24.2603C24.2603 0.907876 24.2603 0.907876 24.2603 0.907876C24.2344 0.907876 24.2344 0.891369 24.2344 0.891369C24.2344 0.891369 24.2344 0.891369 24.2085 0.874862C24.1826 0.858356 24.1826 0.858356 24.1826 0.858356C24.1826 0.858356 24.1826 0.841849 24.1567 0.841849C24.1567 0.841849 24.1567 0.841849 24.1567 0.825342H24.1308C24.1308 0.808835 24.1308 0.808835 24.1308 0.808835C24.1049 0.808835 24.1049 0.792328 24.1049 0.792328H24.079C24.079 0.775821 24.079 0.775821 24.0531 0.775821C24.0531 0.759315 24.0531 0.759315 24.0531 0.759315L24.0272 0.742808C24.0013 0.726301 24.0013 0.726301 24.0013 0.726301V0.709794C23.9754 0.709794 23.9754 0.709794 23.9754 0.693287C23.9495 0.693287 23.9495 0.693287 23.9495 0.693287C23.9495 0.693287 23.9495 0.67678 23.9236 0.67678C23.9236 0.660274 23.8977 0.660274 23.8977 0.660274V0.643767C23.8977 0.643767 23.8718 0.643767 23.8718 0.62726C23.8459 0.62726 23.8459 0.610753 23.8459 0.610753H23.82C23.82 0.594246 23.82 0.594246 23.7941 0.594246C23.7941 0.594246 23.7941 0.594246 23.7941 0.577739C23.7941 0.577739 23.7941 0.577739 23.7682 0.561233C23.7682 0.561233 23.7423 0.561233 23.7423 0.544726C23.7164 0.544726 23.7164 0.528219 23.7164 0.528219C23.6906 0.511712 23.6906 0.511712 23.6906 0.511712C23.6647 0.511712 23.6647 0.511712 23.6647 0.511712C23.6647 0.495205 23.6647 0.495205 23.6388 0.495205C23.6388 0.495205 23.6388 0.495205 23.6388 0.478698C23.6388 0.478698 23.6129 0.478698 23.6129 0.462192C23.6129 0.462192 23.587 0.462192 23.587 0.445685C23.5611 0.445685 23.5611 0.445685 23.5611 0.429178C23.5352 0.429178 23.5352 0.412671 23.5093 0.412671C23.5093 0.412671 23.5093 0.396164 23.4834 0.396164C23.4834 0.379657 23.4575 0.379657 23.4316 0.36315C23.0949 0.165068 22.7842 0.0495205 22.4993 0C22.4475 0 22.3698 0 22.2921 0ZM22.2921 0.0495205C22.3698 0.0495205 22.4216 0.0495205 22.4734 0.0660274C26.7463 0.792328 37.0014 18.2401 36.9755 23.9019C36.9755 24.034 36.9755 24.166 36.9755 24.2816C37.9595 26.3614 38.6587 28.8044 38.6587 31.1319C38.6329 32.1388 38.5034 33.1292 38.2185 34.0536C36.6906 38.2463 33.842 37.4705 30.2165 38.1803C30.1129 38.1968 29.9834 38.2298 29.8539 38.2463C29.8539 38.2463 29.8539 38.2463 29.828 38.2463C29.8021 38.2629 29.7503 38.2794 29.7244 38.2794C27.9894 38.6755 27.4197 39.4679 23.6647 39.4679C23.6388 39.4679 23.6129 39.4679 23.587 39.4679C22.4993 39.4679 21.1527 39.4018 19.4176 39.2368C19.2881 39.2203 19.1587 39.2037 19.0292 39.2037C18.9774 39.1872 18.9256 39.1872 18.8738 39.1872C18.8479 39.1872 18.822 39.1872 18.7961 39.1707C18.7443 39.1707 18.6666 39.1707 18.6148 39.1542C18.2005 39.1212 17.7861 39.0882 17.4236 39.0552L17.3977 39.0387C15.7662 38.9066 14.575 38.8241 13.7204 38.8076C13.5909 38.8076 13.4873 38.8076 13.3578 38.8076C10.9754 38.8076 11.2084 39.3193 9.8359 39.93C9.81001 39.9466 9.75822 39.9796 9.73232 39.9961C6.41756 41.4652 -2.56854 38.0153 2.81794 25.0739C3.51715 22.3503 2.55898 19.9403 5.48529 15.3349C8.54108 10.812 8.23032 8.26993 10.3797 5.87643C10.4315 5.7939 10.5092 5.72787 10.6128 5.62883C10.6128 5.62883 10.6387 5.61233 10.6387 5.59582C10.82 5.43075 11.0271 5.24917 11.2861 5.0676C11.2861 5.05109 11.312 5.03459 11.312 5.03459C11.4156 4.93555 11.5451 4.85301 11.6746 4.75397C14.1865 2.93822 19.1069 0.264109 21.9555 0.0660274C21.9814 0.0660274 22.0073 0.0660274 22.0073 0.0660274C22.1109 0.0495205 22.2144 0.0495205 22.2921 0.0495205Z" fill="url(#paint2_linear_937_1813)"/>
<defs>
<linearGradient id="paint0_linear_937_1813" x1="2.77259" y1="13.8329" x2="37.0708" y2="13.8329" gradientUnits="userSpaceOnUse">
<stop stop-color="#FEFBF3"/>
<stop offset="1" stop-color="#EAB93A"/>
</linearGradient>
<linearGradient id="paint1_linear_937_1813" x1="0.799161" y1="31.9889" x2="39.0937" y2="31.9889" gradientUnits="userSpaceOnUse">
<stop stop-color="white"/>
<stop offset="0.180392" stop-color="white"/>
<stop offset="1" stop-color="#A4A4A3"/>
</linearGradient>
<linearGradient id="paint2_linear_937_1813" x1="3.46015" y1="20.265" x2="36.8022" y2="20.265" gradientUnits="userSpaceOnUse">
<stop stop-color="#E9E9E9"/>
<stop offset="1" stop-color="#A4A4A3"/>
</linearGradient>
</defs>
</svg>
