<svg width="28" height="67" viewBox="0 0 28 67" fill="none" xmlns="http://www.w3.org/2000/svg">
<path fill-rule="evenodd" clip-rule="evenodd" d="M9.83136 66.6183H9.88207H9.90743H9.93278C10.592 66.6183 11.2767 66.6011 11.9613 66.5496C11.9866 66.5496 12.012 66.5496 12.012 66.5496C12.0374 66.5496 12.0374 66.5496 12.0627 66.5496C12.1134 66.5496 12.1641 66.5496 12.1895 66.5496C16.6269 66.2574 19.7457 65.484 21.9771 64.7622C26.0341 63.456 27.0737 61.6342 27.4287 58.7124C27.5047 58.0937 27.5301 57.4921 27.5301 56.8906C27.5555 51.8377 25.0959 47.4894 23.4731 44.9286C23.1942 44.4989 22.966 44.0177 22.7377 43.5365C22.6363 43.4849 22.5095 43.4333 22.3828 43.3818C22.3828 43.3818 22.3574 43.3646 22.332 43.3646C22.2813 43.3474 22.2306 43.313 22.1799 43.2958C22.1546 43.2787 22.1292 43.2615 22.0785 43.2615V43.2443C21.9517 43.1927 21.8503 43.1583 21.7235 43.1068C21.6728 43.0896 21.6221 43.0552 21.546 43.038C21.546 43.038 21.5206 43.0209 21.4953 43.0209C21.4953 43.0209 21.4953 43.0209 21.4699 43.0209C19.34 42.1959 17.1086 41.835 14.8519 41.835C11.2006 41.835 7.47321 42.8318 3.92332 44.5333C3.56833 45.7879 3.13728 47.0082 2.60479 48.1769C1.33697 50.9955 0.297363 56.7531 0.297363 60.4483C0.297363 61.7201 0.424145 62.7513 0.703065 63.3185C1.13412 64.2122 1.99624 65.0887 3.36548 65.6387C4.98829 66.309 7.27036 66.6183 9.83136 66.6183Z" fill="url(#paint0_linear_937_1732)"/>
<path fill-rule="evenodd" clip-rule="evenodd" d="M16.3728 0.190918H16.3475H16.2207C16.1953 0.190918 16.1446 0.190918 16.1193 0.208105C12.1637 0.379973 10.9212 8.88744 8.74056 13.9747C4.81032 23.1353 6.55991 35.0458 3.92285 44.5329C3.94821 44.5157 3.97356 44.4985 4.02428 44.4813C4.15106 44.4126 4.27784 44.361 4.40462 44.2923C4.45534 44.2751 4.50605 44.2579 4.55676 44.2407C4.58212 44.2235 4.60747 44.2063 4.60747 44.2063C4.63283 44.1891 4.65819 44.1719 4.68354 44.1719C7.97987 42.6939 11.4283 41.8345 14.8261 41.8345H14.8514C14.8768 41.8345 14.8768 41.8345 14.8768 41.8345C17.4632 41.8345 20.0495 42.333 22.5091 43.4329C22.5851 43.4673 22.6612 43.5017 22.7373 43.536C20.6073 38.8269 21.0638 32.1927 20.2016 27.7414C19.2635 22.8775 17.4885 10.4514 17.4885 7.22032C17.4885 7.15157 17.4885 7.08283 17.4885 7.03127C17.4885 6.97971 17.4885 6.94533 17.4885 6.89377C17.4885 6.87658 17.4885 6.8594 17.4885 6.84221C17.4885 6.80784 17.4885 6.77346 17.4885 6.73909C17.4885 6.7219 17.4885 6.70472 17.4885 6.68753C17.7421 3.62828 19.7452 0.190918 16.3728 0.190918Z" fill="url(#paint1_linear_937_1732)"/>
<path d="M18.8327 41.6972C19.7455 42.1441 20.5062 41.5082 20.4555 40.752C20.3541 39.2739 18.6552 37.2802 19.0609 33.9804C19.8723 27.7244 17.4635 16.1233 16.6774 12.9437C15.1814 6.87678 17.5902 0.775469 15.8407 2.63164C11.2258 7.65019 15.2575 20.9356 15.8914 26.1088C16.4999 31.0758 16.0181 36.6443 14.2178 40.8379C13.9896 41.2332 14.2939 41.3535 15.0546 41.216C15.8407 41.0785 18.1988 41.3879 18.8327 41.6972Z" fill="#E4BB47"/>
<path d="M25.5772 54.5182C24.6136 48.795 23.3205 46.956 20.8102 44.292C20.4805 43.9311 20.2016 43.6389 20.0748 43.4327C19.872 43.1233 19.4663 42.8999 18.9592 42.7968C17.4885 42.4874 15.9925 42.1437 14.5471 42.2812C14.2682 42.3155 14.04 42.453 14.0147 42.6249C13.4822 46.3029 17.8181 46.8529 21.1398 49.5856C25.9829 53.5557 24.1319 59.3477 22.7626 61.3929C21.368 63.4209 22.4076 63.61 24.3093 62.1491C25.4504 61.2898 26.135 57.8696 25.5772 54.5182Z" fill="#AFAFAD"/>
<path d="M6.15465 50.5482C7.01676 49.9123 8.51279 50.9263 8.1578 51.7684C7.80281 52.5762 3.974 57.4229 4.83612 61.479C5.21646 63.1805 2.32584 62.2008 3.51759 58.0588C4.73469 53.934 3.974 52.1637 6.15465 50.5482Z" fill="#E9EAE9"/>
<path d="M19.8971 51.2877C20.1761 49.5862 21.7228 50.5143 22.1792 51.5799C22.6356 52.6455 24.7402 57.5437 21.7989 62.1154C20.7339 63.7997 19.7704 63.1638 20.81 61.4108C22.1792 59.1765 21.8496 57.3719 21.6721 56.1344C21.3932 53.8657 19.6943 52.508 19.8971 51.2877Z" fill="#D2D3D2"/>
<path fill-rule="evenodd" clip-rule="evenodd" d="M0.14502 60.087V60.1558V60.1901C0.14502 61.0667 0.195732 61.9088 0.373227 62.6994C0.373227 62.7166 0.373227 62.7338 0.398583 62.7338C0.398583 62.7682 0.398583 62.7853 0.398583 62.8025C1.10856 65.5868 5.21629 66.618 9.93258 66.618C9.95793 66.618 9.95793 66.618 9.95793 66.618C9.98329 66.618 9.98329 66.618 9.98329 66.618C15.9167 66.6008 22.8136 65.0024 25.2225 63.2838C25.2478 63.2666 25.2478 63.2666 25.2732 63.2494C25.2985 63.215 25.3492 63.1806 25.4 63.1635C25.4 63.1463 25.4 63.1463 25.4253 63.1291C26.9213 61.9776 27.7835 59.7605 27.7835 56.8731C27.7835 53.5045 26.5917 49.2593 23.7772 44.7908C20.6837 39.6003 21.5965 32.9147 20.2526 26.7102C19.5173 22.7229 17.6663 11.964 17.6663 7.2376C17.6663 6.96261 17.6916 6.70481 17.6916 6.48138C17.8945 4.77988 18.503 3.16433 18.503 1.8925C18.503 1.66907 18.4777 1.46283 18.4523 1.27378C18.3255 0.586304 17.5141 0.00195312 16.4238 0.00195312C15.3335 0.00195312 13.9642 0.620678 12.8486 2.39092C12.1893 3.47369 11.7329 4.59083 11.3018 5.72516C6.86446 17.4981 6.68696 19.0793 5.74878 25.7134C4.88666 32.1241 4.98809 35.6474 4.75988 38.2598C4.0499 47.386 0.90571 47.4203 0.170376 58.7121C0.14502 59.1761 0.14502 59.6402 0.14502 60.087ZM16.4745 0.311316C17.2606 0.328502 17.8691 0.740986 17.9959 1.2394C18.0213 1.25659 18.0213 1.29096 18.0213 1.30815C18.0213 1.30815 18.0213 1.30815 18.0213 1.32534C18.072 1.51439 18.0973 1.72063 18.0973 1.94406C18.0973 3.16433 17.5141 4.79707 17.3366 6.46419C17.3366 6.5845 17.3366 6.70481 17.3366 6.85949C17.3366 10.7265 19.213 23.2901 19.7962 26.7446C21.0133 32.8459 20.0498 40.03 23.1179 44.9798C26.0085 49.4656 27.3524 53.917 27.3524 57.3887C27.3524 59.9152 26.6171 61.926 25.2478 63.026C21.8247 65.9477 6.17983 68.4054 1.74247 64.5556C1.15927 64.04 0.778929 63.4384 0.62679 62.6994C0.62679 62.6822 0.62679 62.6822 0.62679 62.665C0.449296 61.7885 0.373227 60.912 0.373227 60.0355C0.398583 53.1264 4.88666 45.7532 5.59664 38.2942C6.58554 27.8274 5.24165 24.39 11.8597 5.81109C12.2654 4.69395 12.6964 3.57681 13.3303 2.51123C13.381 2.42529 13.4318 2.33936 13.5078 2.25342C14.446 0.82692 15.5617 0.328502 16.4238 0.311316H16.4492H16.4745Z" fill="url(#paint2_linear_937_1732)"/>
<defs>
<linearGradient id="paint0_linear_937_1732" x1="27.5397" y1="54.2236" x2="0.298883" y2="54.2236" gradientUnits="userSpaceOnUse">
<stop stop-color="#A4A4A3"/>
<stop offset="0.819608" stop-color="white"/>
<stop offset="1" stop-color="white"/>
</linearGradient>
<linearGradient id="paint1_linear_937_1732" x1="22.7401" y1="22.36" x2="3.91702" y2="22.36" gradientUnits="userSpaceOnUse">
<stop stop-color="#EAB93A"/>
<stop offset="1" stop-color="#FEFBF3"/>
</linearGradient>
<linearGradient id="paint2_linear_937_1732" x1="27.7873" y1="33.3064" x2="0.141216" y2="33.3064" gradientUnits="userSpaceOnUse">
<stop stop-color="#A4A4A3"/>
<stop offset="1" stop-color="#E9E9E9"/>
</linearGradient>
</defs>
</svg>
