<svg width="32" height="72" viewBox="0 0 32 72" fill="none" xmlns="http://www.w3.org/2000/svg">
<path fill-rule="evenodd" clip-rule="evenodd" d="M13.0895 11.4635C12.2781 16.8258 8.85502 21.724 7.08007 27.7222C4.87407 35.1813 4.89942 44.2731 4.6205 49.0854C4.6205 49.3432 4.59515 49.601 4.54443 49.8588C6.34474 47.2121 8.95644 44.7028 11.5935 42.9325C13.2163 42.0904 14.7377 41.7467 16.183 41.7467C16.2084 41.7467 16.2084 41.7467 16.2084 41.7467H16.2337C19.9357 41.7638 23.156 44.0153 26.3002 46.2152L26.3256 46.2324C26.3509 46.2496 26.3509 46.2496 26.3763 46.2668L26.4016 46.284C26.427 46.3012 26.427 46.3183 26.4523 46.3183C26.5284 46.3699 26.5791 46.4215 26.6552 46.473C26.6805 46.4902 26.7059 46.5074 26.7313 46.5246C26.3763 45.8887 25.9959 45.2871 25.6409 44.7372C23.5871 41.6951 25.2099 34.8547 23.4349 21.6381C22.8517 17.2211 22.7757 13.3541 22.7757 10.1745C22.7757 8.78237 22.7757 7.52773 22.7757 6.3934C22.7757 2.40606 22.5728 0.188965 20.595 0.188965C15.397 0.188965 13.9009 6.10123 13.0895 11.4635Z" fill="url(#paint0_linear_937_1723)"/>
<path fill-rule="evenodd" clip-rule="evenodd" d="M15.3715 41.7814C14.4333 41.8674 13.4697 42.108 12.4301 42.5377C12.1512 42.6408 11.8723 42.7783 11.5934 42.933C8.9563 44.7032 6.34459 47.2125 4.54429 49.8592C3.98645 54.0872 0.86762 58.298 0.892976 62.0447C0.892976 64.8289 2.59185 67.3726 8.32239 69.5038C11.0355 70.5178 11.8469 71.5318 16.2082 71.5318C18.4142 71.5318 22.3445 68.9538 24.804 66.9257C27.2636 64.8805 31.0924 63.8665 31.346 60.1713C31.3713 60.0166 31.3713 59.862 31.3713 59.7073C31.3713 56.3902 29.1146 50.6326 26.7311 46.525C23.4601 44.222 20.1131 41.7471 16.2082 41.7471C15.9293 41.7471 15.6504 41.7643 15.3715 41.7814Z" fill="url(#paint1_linear_937_1723)"/>
<path d="M22.6486 43.7917C22.4204 42.0214 22.2936 40.4918 22.4458 38.3091C22.8515 32.3281 22.0654 26.1065 20.4173 22.1707C18.7438 18.2349 19.6566 12.3742 20.6201 9.72744C22.0654 5.75729 22.4711 2.97302 21.2287 1.52933C19.8594 -0.0690397 18.1352 10.2774 17.1717 12.4086C14.0021 19.4036 18.5155 30.5235 17.1717 41.2996C19.403 41.8152 21.254 42.537 22.6486 43.7917Z" fill="#E4BB47"/>
<path d="M25.4635 52.1964C23.8914 49.8761 22.9532 47.3153 22.5475 44.2217C21.1783 42.967 19.3273 42.2968 17.1213 41.7983C17.0705 42.2108 17.0705 42.1421 16.9945 42.5546C15.6759 51.0105 21.2543 53.6744 23.5364 58.6414C24.576 60.8929 24.9564 62.2334 23.9421 63.8146C22.2686 66.4614 23.9168 66.238 25.996 65.1896C34.5664 60.9273 27.9484 55.8743 25.4635 52.1964Z" fill="#AFAFAD"/>
<path d="M16.6905 59.7925C18.4148 57.5583 20.925 60.9784 21.28 63.0065C21.3561 63.4877 20.8236 64.2611 21.9139 65.8079C23.0043 67.3547 21.7871 68.2828 21.1025 68.6437C20.2911 69.1078 17.8316 71.2389 15.2452 70.8952C13.521 70.6546 13.0646 69.4515 15.0931 66.9079C17.1469 64.3814 15.6763 61.1159 16.6905 59.7925Z" fill="#C2C0BE"/>
<path d="M7.84094 62.1132C6.2942 61.4773 6.26884 64.399 5.63493 65.8084C5.27994 66.6333 5.17852 67.9223 7.08024 68.7473C9.28625 69.7098 9.99623 69.7269 9.94551 67.6817C9.86945 65.6193 9.23554 62.6975 7.84094 62.1132Z" fill="#E9EAE9"/>
<path fill-rule="evenodd" clip-rule="evenodd" d="M20.4682 0C20.1132 0 19.7329 0.0515604 19.2764 0.171868C18.9975 0.240615 18.7186 0.326549 18.389 0.446857C14.5348 1.94211 13.4445 7.54501 12.8866 10.6558C11.137 21.5523 5.88827 21.2944 4.5951 41.214C4.13869 48.6215 4.54439 50.1167 3.40335 53.0213C2.28767 56.1665 0.715576 59.2429 0.715576 62.01C0.715576 64.7255 2.2116 67.1488 7.10538 69.1081C11.6949 70.7924 11.5935 71.5143 16.2083 71.5659C16.2337 71.5659 16.2337 71.5659 16.2844 71.5659C16.3097 71.5659 16.3097 71.5659 16.3351 71.5659C16.3605 71.5659 16.3605 71.5659 16.3605 71.5659C16.3858 71.5659 16.4112 71.5659 16.4365 71.5659H16.4619H16.4872C16.5126 71.5487 16.5379 71.5487 16.5633 71.5487C16.5887 71.5487 16.5887 71.5487 16.5887 71.5487C17.2986 71.4627 18.9975 71.0331 21.8628 69.1597C21.8881 69.1425 21.8881 69.1425 21.9135 69.1253C21.9389 69.1081 21.9642 69.091 21.9896 69.0738C22.0149 69.0566 22.0656 69.0394 22.091 69.0222C22.091 69.005 22.091 69.005 22.1163 69.005C22.1417 68.9706 22.1924 68.9363 22.2431 68.9019C22.3446 68.8503 22.4206 68.7816 22.5221 68.7128C22.6235 68.6441 22.7249 68.5753 22.8263 68.5238C22.877 68.4722 22.9278 68.4379 22.9785 68.4035C23.0545 68.3519 23.1052 68.3004 23.1813 68.2488H23.2067C23.2574 68.1972 23.3081 68.1629 23.3588 68.1285C23.4095 68.0941 23.4602 68.0426 23.5363 67.991C23.587 67.9566 23.6377 67.9051 23.7138 67.8707C23.8406 67.7676 23.9674 67.6816 24.0941 67.5785C28.7344 64.0724 31.5489 63.5912 31.5489 59.5866C31.5489 58.7961 31.4475 57.868 31.2193 56.768C29.064 47.2809 25.3366 46.2153 24.8802 40.2343C24.4238 31.7784 25.0323 32.5862 23.4095 19.9367C22.9278 15.6916 22.9278 11.962 22.9531 8.90276C23.0038 3.31705 23.1306 0 20.4682 0ZM20.3921 0.292176C22.4713 0.309362 22.5221 2.76708 22.5981 5.44822C22.9278 28.8051 22.9785 8.54184 24.2209 40.2515C24.5759 45.8544 25.4127 43.4998 28.9372 51.6979C30.4839 55.4274 31.1432 57.9195 31.1432 59.7413C31.1179 63.9349 27.644 64.3474 23.9674 67.5098C23.0038 68.266 22.1163 68.8847 21.3303 69.4003C21.3049 69.4175 21.2542 69.4347 21.2289 69.4519C17.7804 71.6346 16.2337 71.5143 16.2337 71.5143C11.6188 71.4284 11.771 70.7237 7.18145 69.005C2.54123 67.1488 1.09592 64.8974 1.12128 62.3365C1.12128 58.1601 4.97545 53.1072 5.10223 47.384C6.62361 18.2008 11.7202 23.5975 13.5459 10.7074C14.0023 7.71687 14.9912 2.13116 18.6172 0.704659C19.3271 0.42967 19.9103 0.309362 20.3668 0.292176H20.3921Z" fill="url(#paint2_linear_937_1723)"/>
<defs>
<linearGradient id="paint0_linear_937_1723" x1="26.7333" y1="25.0223" x2="4.55306" y2="25.0223" gradientUnits="userSpaceOnUse">
<stop stop-color="#EAB93A"/>
<stop offset="1" stop-color="#FEFBF3"/>
</linearGradient>
<linearGradient id="paint1_linear_937_1723" x1="31.3721" y1="56.6434" x2="0.881565" y2="56.6434" gradientUnits="userSpaceOnUse">
<stop stop-color="#A4A4A3"/>
<stop offset="0.819608" stop-color="white"/>
<stop offset="1" stop-color="white"/>
</linearGradient>
<linearGradient id="paint2_linear_937_1723" x1="31.5517" y1="35.7829" x2="0.712788" y2="35.7829" gradientUnits="userSpaceOnUse">
<stop stop-color="#A4A4A3"/>
<stop offset="1" stop-color="#E9E9E9"/>
</linearGradient>
</defs>
</svg>
