<svg width="35" height="70" viewBox="0 0 35 70" fill="none" xmlns="http://www.w3.org/2000/svg">
<path fill-rule="evenodd" clip-rule="evenodd" d="M15.3211 69.0393H15.3718H15.4226C15.4986 69.0393 15.6 69.0393 15.6761 69.0393C18.161 68.9706 23.3337 67.4581 25.7679 66.0832C28.2275 64.6911 34.237 63.2989 34.237 58.5038C34.237 53.4509 29.9264 48.3292 27.695 44.9434C26.7315 43.9982 25.9201 43.0185 24.0691 42.3826C22.5223 42.1248 20.9756 41.9873 19.4796 41.9873C17.4257 41.9873 15.4226 42.2279 13.4955 42.7607C11.3148 43.3794 9.26095 44.3591 7.38458 45.7512C5.98998 49.7729 0.563721 54.6368 0.563721 59.2085C0.563721 61.7521 2.2626 64.1927 7.23244 66.3582C7.35923 66.4098 7.51136 66.4785 7.63815 66.5301C7.73957 66.5816 7.81564 66.616 7.91707 66.6504C7.94242 66.6676 7.96778 66.6847 8.01849 66.7019C8.04385 66.7191 8.0692 66.7191 8.09456 66.7363C10.833 67.9909 12.5573 69.0393 15.3211 69.0393Z" fill="url(#paint0_linear_937_1714)"/>
<path fill-rule="evenodd" clip-rule="evenodd" d="M17.3245 0.274902C14.0535 0.360836 14.4592 6.84026 13.3689 10.9995C12.2785 15.1587 11.0614 15.7946 9.54006 21.81C8.14546 27.4988 8.44973 40.3889 7.63833 44.8231C7.58762 45.1325 7.48619 45.4418 7.38477 45.7512C7.43548 45.7168 7.48619 45.6824 7.51155 45.6481C7.56226 45.6137 7.63833 45.5793 7.68904 45.5278C7.68904 45.5278 7.7144 45.5106 7.73975 45.4934C11.1629 43.0529 15.2199 41.9873 19.429 41.9873C19.4544 41.9873 19.4544 41.9873 19.4798 41.9873C21.0011 41.9873 22.5225 42.1248 24.0693 42.3826C25.9203 43.0185 26.7317 43.9981 27.6952 44.9434C27.2134 44.2387 26.8331 43.6028 26.6049 43.07C25.2356 39.9249 25.0835 33.2392 24.2721 29.3893C23.4607 25.5051 22.0915 18.8538 22.0915 15.1587C22.0915 12.9244 21.5083 7.9574 20.3419 4.36536C19.5812 2.02796 18.5923 0.274902 17.3498 0.274902H17.3245Z" fill="url(#paint1_linear_937_1714)"/>
<path d="M22.5477 25.0069C21.6856 20.0399 20.6207 15.6745 20.2657 11.1372C19.9867 7.73418 20.7474 3.91871 18.8711 2.92188C17.1975 2.02816 17.8822 7.11546 18.0343 9.71066C18.2118 12.873 19.0739 18.7165 19.5557 24.2507C20.0375 29.7849 18.2372 35.5596 17.8822 38.7048C17.8568 38.9454 17.9075 39.7188 17.9582 40.4063C18.0089 41.111 18.8964 41.6609 19.936 41.6437C21.1024 41.6266 22.3702 41.6094 23.2577 41.9875C23.0549 36.9689 23.207 28.6849 22.5477 25.0069Z" fill="#E4BB47"/>
<path d="M22.4211 43.8088C22.2182 43.087 22.9535 43.3276 22.9282 42.4167C21.9646 42.0214 20.7222 42.1073 19.5558 42.1761C18.6683 42.2104 17.9583 42.726 18.0344 43.3448C18.364 45.8884 22.5732 47.4352 21.2293 52.6944C20.0376 57.4208 22.1928 59.1051 23.6128 58.1082C30.2815 53.3819 31.7268 58.3145 31.1436 53.3647C30.6112 48.7586 23.486 47.779 22.4211 43.8088Z" fill="#AFAFAD"/>
<path d="M14.8647 67.1835C14.1294 68.4725 6.95355 65.4992 4.69683 63.5743C2.46547 61.6494 2.89653 59.4495 4.69683 59.226C6.49714 59.0026 9.5399 60.5151 10.5795 62.4056C12.5827 66.1351 15.3719 66.2898 14.8647 67.1835Z" fill="#E9EAE9"/>
<path d="M32.4368 60.9442C36.2402 56.3897 26.5287 57.249 22.6239 59.7239C20.4432 60.9786 18.5161 62.4738 18.0344 64.1238C17.5272 65.2581 18.8711 67.8533 21.6096 67.1143C20.57 67.2002 20.0375 67.2002 19.429 66.5815C17.7808 64.519 21.2546 62.0613 23.841 60.5145C26.047 59.0365 34.3639 56.4756 32.4368 60.9442Z" fill="#C2C0BE"/>
<path fill-rule="evenodd" clip-rule="evenodd" d="M17.451 0C16.9439 0 16.4114 0.223428 15.8029 0.721846C14.535 1.87336 14.2054 4.19358 13.9265 6.01538C12.2783 17.1696 9.38771 15.9837 8.39881 26.7083C7.96775 31.2112 7.91704 35.5767 7.68883 39.7187C7.56205 41.7639 7.51134 43.8092 7.02956 45.6653C5.81246 49.3089 0.386196 54.6884 0.36084 59.4148C0.36084 61.1163 1.07082 62.7318 2.92183 64.1583C4.49393 65.3786 11.6698 68.541 13.1658 68.8331C13.8504 68.9878 14.5604 69.0566 15.3211 69.0566C15.3465 69.0566 15.3972 69.0566 15.4225 69.0566C19.9106 69.005 24.9819 66.5129 28.1007 65.0864C28.1514 65.0692 28.2021 65.052 28.2275 65.0349C28.2528 65.0177 28.2782 65.0177 28.2782 65.0005C28.3036 65.0005 28.3289 64.9833 28.3543 64.9661C28.4303 64.9317 28.5064 64.9146 28.5571 64.8802C28.5825 64.8802 28.5825 64.8802 28.5825 64.863C28.6839 64.8286 28.7853 64.7942 28.8614 64.7427H28.8868C28.9121 64.7255 28.9375 64.7083 28.9882 64.6911C33.0452 62.8178 34.4905 60.4288 34.4905 57.8508C34.4905 52.0073 27.1118 45.2185 26.3765 41.2999C25.3369 37.261 25.3369 32.8612 24.2973 28.3926C23.5366 24.8693 23.0041 20.5898 22.4969 16.4478C21.8123 11.1027 21.1531 5.94663 20.012 2.88738C19.4035 1.23745 18.6681 0.189055 17.73 0.0171868C17.6285 0.0171868 17.5525 0 17.451 0ZM17.375 0.42967C17.6285 0.42967 17.8821 0.515604 18.0342 0.670285C18.0596 0.670285 18.0596 0.687472 18.0596 0.687472C20.7474 2.88738 21.8123 11.7042 21.9645 14.5744C22.0152 19.318 23.0041 23.9584 23.8408 28.427C25.8947 37.9141 23.6126 39.7359 28.76 47.0747C32.462 52.2651 34.0341 55.7712 34.0341 58.3492C34.0341 62.3365 30.2306 64.124 24.6522 66.5817C23.9169 66.9082 23.2069 67.2004 22.5477 67.441C14.2561 70.6034 11.5937 68.2144 7.08028 66.2207C3.47967 64.6396 1.47652 63.4193 0.994749 60.3257C0.944036 59.9476 0.91868 59.5695 0.91868 59.2085C0.893324 54.0869 6.09138 50.4776 7.79026 45.7856C9.43842 40.2343 7.5874 26.2442 11.6444 16.5681C15.3718 7.49345 13.8758 6.35912 15.2197 2.50927C15.7522 1.01402 16.6396 0.446857 17.3242 0.42967H17.3496C17.3496 0.42967 17.3496 0.42967 17.375 0.42967Z" fill="url(#paint2_linear_937_1714)"/>
<defs>
<linearGradient id="paint0_linear_937_1714" x1="34.2322" y1="55.5135" x2="0.571581" y2="55.5135" gradientUnits="userSpaceOnUse">
<stop stop-color="#A4A4A3"/>
<stop offset="0.819608" stop-color="white"/>
<stop offset="1" stop-color="white"/>
</linearGradient>
<linearGradient id="paint1_linear_937_1714" x1="27.6836" y1="23.0115" x2="7.38375" y2="23.0115" gradientUnits="userSpaceOnUse">
<stop stop-color="#EAB93A"/>
<stop offset="1" stop-color="#FEFBF3"/>
</linearGradient>
<linearGradient id="paint2_linear_937_1714" x1="34.4864" y1="34.5283" x2="0.364895" y2="34.5283" gradientUnits="userSpaceOnUse">
<stop stop-color="#A4A4A3"/>
<stop offset="1" stop-color="#E9E9E9"/>
</linearGradient>
</defs>
</svg>
