<svg width="32" height="59" viewBox="0 0 32 59" fill="none" xmlns="http://www.w3.org/2000/svg">
<path fill-rule="evenodd" clip-rule="evenodd" d="M21.6995 0.796875H21.6742C21.0402 0.796875 20.3556 1.0203 19.5949 1.4156C19.5949 1.4156 19.5696 1.4156 19.5696 1.43279C19.5442 1.43279 19.5442 1.44997 19.5189 1.44997C17.4143 2.5843 14.9294 5.0592 12.8248 7.94658C12.8248 7.96377 12.7994 7.98096 12.7994 7.99814C12.7741 8.03252 12.7487 8.04971 12.7487 8.06689C12.698 8.13564 12.6473 8.20439 12.5966 8.25595C10.9231 10.6449 9.47774 13.2917 8.7424 15.6635C8.71705 15.6806 8.71705 15.6806 8.71705 15.6806C8.69169 15.7494 8.69169 15.8181 8.66633 15.8869C8.64098 15.9384 8.64098 15.9728 8.61562 16.0244C6.71389 22.5554 6.43497 30.5816 5.75035 38.35C5.75035 38.5563 5.69964 38.7453 5.64893 38.9516C5.75035 38.9859 5.82642 39.0031 5.92785 39.0375C5.9532 39.0547 6.00391 39.0719 6.02927 39.0891C8.64098 40.0343 11.7345 40.4812 14.9294 40.4812C14.9547 40.4812 14.9547 40.4812 14.9547 40.4812C18.5553 40.4812 22.2573 39.914 25.4269 38.9C25.4523 38.8828 25.4776 38.8828 25.503 38.8828C25.5537 38.8485 25.6297 38.8313 25.6805 38.8141C24.1844 35.0845 23.0434 28.8285 23.0434 22.2976C23.0434 15.4057 20.9388 14.0307 20.9388 8.94342C20.9388 8.78874 20.9388 8.61687 20.9388 8.445C21.0149 5.74667 23.297 3.09991 23.297 1.74215C23.297 1.1578 22.8659 0.814062 21.6995 0.796875Z" fill="url(#paint0_linear_937_1706)"/>
<path fill-rule="evenodd" clip-rule="evenodd" d="M14.1692 58.1491H14.1946H14.2453C16.2738 58.1491 19.0377 57.6335 23.7032 56.1554C23.7032 56.1554 23.7032 56.1554 23.7286 56.1383C23.9061 56.0867 24.1089 56.018 24.2864 55.9664C27.7349 54.8493 30.7016 54.4024 30.7777 51.1025C30.7777 51.0166 30.7777 50.9307 30.7777 50.8447C30.803 46.5652 27.7856 43.2653 26.1121 39.7764C25.96 39.4843 25.8332 39.1577 25.681 38.814C25.6303 38.8312 25.5543 38.8483 25.5035 38.8827C25.4782 38.8827 25.4528 38.8827 25.4275 38.8999C22.2579 39.9139 18.5559 40.4811 14.9553 40.4811C14.9553 40.4811 14.9553 40.4811 14.9299 40.4811C11.735 40.4811 8.64156 40.0342 6.02985 39.089C6.0045 39.0718 5.95379 39.0546 5.92843 39.0374C5.827 39.003 5.75093 38.9858 5.64951 38.9515C4.91417 42.0451 0.679662 44.8465 0.324673 52.4087C0.299316 52.6493 0.299316 52.8728 0.299316 53.0962C0.299316 54.6774 0.806444 55.657 5.09167 56.2242C5.11703 56.2242 5.14238 56.2242 5.16774 56.2414C5.31988 56.2586 5.44666 56.2758 5.57344 56.2929C5.72558 56.3101 5.85236 56.3273 5.97914 56.3617C6.0045 56.3617 6.02985 56.3617 6.05521 56.3617C6.08057 56.3789 6.10592 56.3789 6.13128 56.3789C6.61305 56.4648 7.04411 56.5507 7.44981 56.6539C7.44981 56.6539 7.47517 56.6711 7.50052 56.6711C7.55124 56.6711 7.60195 56.6882 7.65266 56.7054C7.65266 56.7054 7.67802 56.7054 7.70338 56.7226C10.239 57.3585 11.6336 58.1491 14.1692 58.1491Z" fill="url(#paint1_linear_937_1706)"/>
<path d="M21.9535 39.7939C20.5843 36.8893 21.776 34.6035 21.2182 32.6957C20.1532 29.0006 22.2324 20.8712 20.5843 15.5949C19.2404 11.3497 20.5843 5.60934 21.5732 2.20635C21.8521 1.26108 19.7222 3.39224 18.7333 6.55462C18.074 8.61703 16.8315 12.4841 17.4908 18.5166C18.2515 25.5804 13.6366 35.1878 14.2198 39.5533C14.2452 39.8283 14.2959 40.1033 14.3466 40.3439C16.223 40.6532 20.0771 40.0001 21.9535 39.7939Z" fill="#E4BB47"/>
<path d="M21.9538 45.5859C20.4071 42.9219 22.106 42.8532 21.9538 39.7939C20.0775 40.0002 16.2233 40.6533 14.3469 40.3439C15.133 44.0563 18.8604 42.6985 17.2883 47.4421C15.6655 52.2716 17.9222 53.8012 19.3928 52.6669C21.0664 51.3435 29.2565 54.4543 30.0679 52.5122C32.3246 47.0812 23.7541 48.7311 21.9538 45.5859Z" fill="#AFAFAD"/>
<path d="M28.1658 54.5054C26.2387 53.1132 22.131 52.3742 19.5192 53.5601C16.1469 55.021 14.2958 57.9084 8.28638 56.7568C12.0898 58.7849 15.5383 57.0318 18.5811 54.9522C20.1785 53.8523 23.5256 52.3742 28.1658 54.5054Z" fill="#C2C0BE"/>
<path fill-rule="evenodd" clip-rule="evenodd" d="M14.1436 58.1835H14.1943H14.2197H14.245C14.4225 58.1835 14.6 58.1835 14.7775 58.1663C14.8282 58.1663 14.879 58.1663 14.9297 58.1663C19.2402 57.9085 28.3432 54.9524 29.6364 53.9212C30.6253 53.1306 31.031 51.9791 31.031 50.6729C31.031 48.3355 29.7631 45.5512 28.7235 43.781C27.4304 41.4779 23.5762 36.5625 23.2719 22.899C23.2212 15.9383 21.573 14.4775 21.1927 10.8854C21.142 10.3183 21.0913 9.78547 21.0913 9.30424C21.1166 5.0591 23.2212 4.11382 23.4748 1.75923C23.4494 1.14051 22.8662 0.64209 21.852 0.64209C20.6095 0.64209 18.7078 1.39831 16.375 3.54666C6.35921 12.8275 6.53671 23.2771 5.39567 37.7312C5.24353 41.8732 0.0961914 44.2622 0.0961914 53.1134C0.0961914 53.1478 0.0961914 53.1821 0.0961914 53.2165C0.222973 56.3961 4.3307 55.8977 7.39883 56.7054C7.42418 56.7226 7.47489 56.7226 7.50025 56.7398C7.55096 56.7398 7.57632 56.757 7.62703 56.757L7.65239 56.7742C7.67775 56.7742 7.7031 56.7742 7.7031 56.7742C7.77917 56.8086 7.8806 56.8258 7.95667 56.8429C7.98202 56.8601 8.03273 56.8601 8.08345 56.8773C10.2641 57.4617 11.8108 58.1663 14.1436 58.1835ZM21.8773 0.934266C22.638 0.934266 23.0691 1.29519 23.0691 1.74205V1.75923C22.9169 3.54666 20.8377 5.12785 20.8377 9.26987C20.8377 9.76828 20.8631 10.3183 20.9391 10.9026C21.3448 14.5806 22.8155 16.0758 22.8155 22.435C22.8155 22.5725 22.8155 22.7271 22.8155 22.899C22.8662 36.8375 26.5936 41.3233 28.1403 43.9356C29.9406 46.8746 30.6506 49.0229 30.6506 50.6385C30.6506 54.6087 26.2893 55.2274 23.4494 56.1727C21.6745 56.7398 20.1784 57.1695 18.9106 57.4617C16.9075 57.9429 15.4621 58.1148 14.245 58.1148C13.7379 58.1148 13.2815 58.0804 12.8251 58.0288C11.0501 57.7882 9.70625 57.1523 7.44954 56.6023C4.3307 55.7602 0.476537 56.1898 0.476537 53.1993C0.679388 46.3246 3.84893 43.3857 5.52245 40.3608C6.68885 38.3328 6.13101 34.672 7.50025 23.8443C8.18487 18.3617 9.32591 10.8682 16.7807 3.7529C16.806 3.73571 16.8314 3.71853 16.8568 3.70134C16.9582 3.59822 17.0342 3.51229 17.1357 3.42635L17.161 3.40917C17.2117 3.37479 17.2371 3.34042 17.2878 3.30604C17.3892 3.20292 17.516 3.0998 17.6428 2.99668C17.6428 2.99668 17.6428 2.9795 17.6682 2.96231C19.4177 1.50143 20.8377 0.968639 21.7759 0.934266C21.8266 0.934266 21.852 0.934266 21.8773 0.934266Z" fill="url(#paint2_linear_937_1706)"/>
<defs>
<linearGradient id="paint0_linear_937_1706" x1="25.6838" y1="20.6394" x2="5.65932" y2="20.6394" gradientUnits="userSpaceOnUse">
<stop stop-color="#EAB93A"/>
<stop offset="1" stop-color="#FEFBF3"/>
</linearGradient>
<linearGradient id="paint1_linear_937_1706" x1="30.7888" y1="48.4834" x2="0.291709" y2="48.4834" gradientUnits="userSpaceOnUse">
<stop stop-color="#A4A4A3"/>
<stop offset="0.819608" stop-color="white"/>
<stop offset="1" stop-color="white"/>
</linearGradient>
<linearGradient id="paint2_linear_937_1706" x1="31.019" y1="29.4128" x2="0.108108" y2="29.4128" gradientUnits="userSpaceOnUse">
<stop stop-color="#A4A4A3"/>
<stop offset="1" stop-color="#E9E9E9"/>
</linearGradient>
</defs>
</svg>
