<svg width="42" height="52" viewBox="0 0 42 52" fill="none" xmlns="http://www.w3.org/2000/svg">
<path fill-rule="evenodd" clip-rule="evenodd" d="M33.5132 0.0771484H33.4879C33.285 0.0943352 33.0822 0.0943352 32.854 0.128709C30.5719 0.455258 29.1773 10.0971 27.5038 14.3078C27.4784 14.3766 27.4531 14.4625 27.4277 14.5312C27.3516 14.6859 27.3009 14.8406 27.2248 14.9953C27.2248 15.0125 27.2248 15.0125 27.2248 15.0125C27.1488 15.15 27.0981 15.2875 27.022 15.425C26.9713 15.5453 26.8952 15.6656 26.8445 15.7859C26.8445 15.7859 26.8445 15.8031 26.8191 15.8031C26.8191 15.8374 26.7938 15.8546 26.7938 15.889C26.7684 15.9234 26.7431 15.9578 26.7177 15.9921C26.7177 16.0265 26.6924 16.0437 26.6924 16.0781C24.6639 19.8076 21.4436 22.4544 20.5308 22.4544C20.4547 22.4544 20.404 22.4372 20.3533 22.4028C20.1251 22.2309 20.049 21.8872 20.049 21.3716C20.049 20.6154 20.2011 19.481 20.2011 17.917C20.2011 17.5218 20.1758 17.0921 20.1504 16.6452C20.1504 16.5937 20.1504 16.5249 20.1504 16.4734C20.1504 14.325 21.9 8.53305 21.9254 4.5629C21.9254 2.25987 21.3422 0.558379 19.4912 0.524005H19.4658H19.4404C19.4151 0.524005 19.3897 0.524005 19.3897 0.524005C17.0823 0.592752 14.3438 4.39104 11.7828 7.98308C11.7828 8.00026 11.7575 8.01745 11.7575 8.01745C11.6814 8.15495 11.58 8.27525 11.5039 8.39556C11.4785 8.41275 11.4785 8.41275 11.4785 8.42993C11.4532 8.46431 11.4278 8.48149 11.4278 8.49868L11.4025 8.51587C11.3771 8.56743 11.3264 8.61899 11.301 8.65336C11.301 8.67055 11.301 8.67055 11.301 8.67055C11.2757 8.70492 11.2503 8.7393 11.225 8.75648C11.225 8.77367 11.225 8.77367 11.225 8.77367C11.1489 8.89398 11.0728 9.01429 10.9714 9.11741C10.9714 9.15178 10.9461 9.16897 10.9207 9.20334V9.22053C10.8446 9.28927 10.7939 9.37521 10.7432 9.44396C10.7179 9.49552 10.6671 9.54708 10.6418 9.59864L10.6164 9.61582C10.5911 9.66738 10.5657 9.70176 10.5404 9.73613C10.515 9.78769 10.4643 9.82207 10.4389 9.85644C10.4136 9.89081 10.3882 9.92519 10.3629 9.95956C10.3629 9.99393 10.3375 10.0111 10.3122 10.0455C7.37081 14.1188 5.72265 23.1246 5.06338 30.24C4.96196 31.2712 4.80982 32.1305 4.63232 32.9039C4.70839 32.8696 4.78446 32.818 4.86053 32.7664C4.9366 32.7321 4.98731 32.6977 5.06338 32.6461C8.84148 30.4978 14.0142 29.7416 19.5672 29.7416C19.5926 29.7416 19.5926 29.7416 19.5926 29.7416C19.6179 29.7416 19.6179 29.7416 19.6179 29.7416C25.8556 29.7416 32.5497 30.6868 38.2802 31.7524C37.8492 30.515 37.4688 29.1744 37.266 27.6448C37.1392 26.8542 37.1138 25.9605 37.1138 25.0152C37.1138 19.7904 38.4577 12.6063 38.4577 8.79086C38.4577 8.344 38.4577 7.93152 38.407 7.57059C38.1281 5.38787 37.5956 3.08484 36.4799 1.62396C36.4546 1.60677 36.4292 1.58959 36.4292 1.55521C36.4039 1.55521 36.4039 1.53803 36.4039 1.52084C36.3785 1.52084 36.3785 1.52084 36.3785 1.50365C36.3531 1.48647 36.3278 1.45209 36.3024 1.43491C36.2771 1.40053 36.2517 1.36616 36.2264 1.33178C36.2264 1.33178 36.2264 1.33178 36.2264 1.3146C36.2264 1.3146 36.201 1.3146 36.201 1.29741C36.201 1.28022 36.1756 1.28022 36.1756 1.26304C36.1756 1.26304 36.1756 1.26304 36.1503 1.24585C36.1503 1.24585 36.1503 1.22866 36.1249 1.22866C35.4657 0.524005 34.6036 0.0943352 33.5132 0.0771484Z" fill="url(#paint0_linear_937_1696)"/>
<path fill-rule="evenodd" clip-rule="evenodd" d="M8.86713 51.3106H8.89249C13.1777 51.3106 14.978 49.2826 17.184 48.492C17.6658 48.303 18.1729 48.1998 18.7308 48.1655C18.8068 48.1655 18.8829 48.1655 18.9843 48.1655C18.9843 48.1655 18.9843 48.1655 19.0097 48.1655C21.1143 48.1826 22.2299 49.2826 23.7767 49.9701C24.3599 50.2279 25.0191 50.4169 25.7798 50.4857C25.8559 50.4857 25.932 50.5029 26.0334 50.5029C26.0841 50.5029 26.1348 50.5029 26.1855 50.5029C26.2109 50.5029 26.2362 50.5029 26.2616 50.5029C26.287 50.5029 26.3123 50.5029 26.3377 50.5029C26.363 50.5029 26.363 50.5029 26.3884 50.5029C29.0254 50.4857 29.8876 49.1795 32.195 48.0967C32.2964 48.0452 32.3978 47.9936 32.4993 47.9592C32.55 47.9248 32.6007 47.9077 32.6768 47.8733C32.7021 47.8733 32.7275 47.8561 32.7528 47.8389C32.7782 47.8389 32.8035 47.8217 32.8289 47.8045C32.8543 47.8045 32.8543 47.8045 32.8543 47.8045C32.905 47.7874 32.9557 47.753 33.0064 47.7358C33.0825 47.7186 33.1585 47.6842 33.2346 47.667C33.2853 47.6499 33.3107 47.6327 33.336 47.6155C33.3614 47.6155 33.4121 47.5983 33.4375 47.5983C36.8859 46.4296 40.6894 46.7561 40.8922 41.497C40.8922 41.3595 40.8922 41.2048 40.8922 41.0673C40.9176 37.4753 39.3962 34.9316 38.2805 31.7521C32.55 30.6865 25.8305 29.7412 19.5929 29.7412C16.3219 29.7412 13.2031 29.999 10.4139 30.6521C8.23322 31.1505 6.28078 31.8896 4.63262 32.9036C3.5423 37.4581 1.18415 38.2487 1.05737 44.2297V44.3328V44.4016C1.05737 49.1279 5.21582 51.1044 7.92895 51.2763C8.25858 51.2935 8.56286 51.3106 8.86713 51.3106Z" fill="url(#paint1_linear_937_1696)"/>
<path d="M22.4578 49.1624C20.0743 48.0453 18.1219 48.0281 16.5498 48.8359C15.003 49.6436 14.4959 49.7983 13.7606 50.1077C13.0506 50.3999 15.2312 48.664 16.3469 47.4781C17.7162 46.0516 17.133 42.3564 18.6797 42.3564C20.0743 42.3564 19.7193 43.8861 19.9982 45.1751C20.2518 46.4813 20.7082 47.0828 21.545 47.8218C22.1028 48.3203 23.5228 49.6608 22.4578 49.1624Z" fill="#C2C0BE"/>
<path d="M35.0603 25.0491C34.9842 21.5258 37.0888 12.2965 36.9366 8.06857C36.7845 4.14998 34.6799 0.506374 34.0207 1.91569C33.5896 2.84378 35.3392 5.74835 34.7053 12.2621C34.2235 17.3494 27.7069 25.6163 27.8844 30.2052C30.1158 30.463 33.6657 30.8067 35.4913 31.2536C35.1617 29.6552 35.1363 27.6272 35.0603 25.0491Z" fill="#E4BB47"/>
<path d="M38.4578 39.108C37.266 37.8362 34.3247 35.4301 34.274 34.0551C34.2486 33.2645 35.6179 31.8552 35.4911 31.2537C34.4261 30.824 28.9238 30.1022 27.8842 30.2053C26.236 30.36 27.7574 32.8005 28.9999 34.7426C29.9634 36.2207 30.5466 39.7268 29.152 41.3939C25.9317 45.2609 31.1044 48.3717 33.2851 47.2374C35.1868 46.2406 37.4942 46.0687 38.7367 44.9859C40.9173 43.0954 39.6242 40.3455 38.4578 39.108Z" fill="#A4A4A3"/>
<path d="M23.9793 49.5747C23.9793 49.5747 26.4389 50.1419 27.1742 49.2997C28.0364 48.2857 30.7495 48.6638 29.8113 49.4372C27.0475 51.7574 22.458 49.8497 23.9793 49.5747Z" fill="#E9EAE9"/>
<path d="M21.3163 2.51751C20.4795 0.541028 21.2909 7.81105 17.8424 12.5546C14.3686 17.3669 14.825 20.3918 15.9661 22.4714C16.8535 24.1385 18.806 24.9978 20.3527 24.7572C21.6459 24.5682 21.798 23.3651 20.3527 22.4026C19.8202 22.0589 20.0992 16.9201 20.3527 13.5686C20.5809 10.4922 22.3052 4.75179 21.3163 2.51751Z" fill="#DECB8E"/>
<path fill-rule="evenodd" clip-rule="evenodd" d="M33.6654 0.00830078H33.64C29.8112 0.00830078 29.8619 8.51577 26.9713 15.0124C26.3881 16.3014 25.5767 17.556 24.6385 18.7419C24.106 19.3778 21.545 22.1793 20.5308 22.248C20.5308 22.2308 20.5054 22.2136 20.5054 22.1793C20.5054 22.1793 20.5054 22.1793 20.4801 22.1793V22.1621C20.4294 22.0418 20.3533 21.7668 20.3533 21.1824C20.5054 18.9482 20.5308 17.1264 20.5308 16.078C20.5308 15.4764 20.5308 15.1327 20.5308 15.1155C20.6576 12.7781 21.6211 11.575 22.1282 7.19238C22.2297 6.36742 22.3057 5.54245 22.3057 4.71748C22.3057 4.21907 22.2804 3.72065 22.2043 3.22223C22.2043 3.20505 22.2043 3.18786 22.179 3.15349C22.179 3.11911 22.179 3.08474 22.179 3.05036C21.8493 1.177 20.8858 0.28329 19.6433 0.266103C19.618 0.266103 19.618 0.266103 19.618 0.266103C19.5926 0.266103 19.5926 0.266103 19.5926 0.266103C18.7558 0.266103 17.7923 0.661399 16.778 1.43481C16.6766 1.50355 16.5752 1.60667 16.4484 1.69261C4.80984 12.3484 5.79874 25.2385 4.50556 32.3195C3.8463 36.135 0.854248 39.4005 0.854248 43.7831C0.854248 44.4877 0.930317 45.2096 1.10781 45.9658C1.84315 49.2657 5.19019 51.1906 7.92867 51.3109C7.95403 51.3109 8.00474 51.3109 8.0301 51.3109C8.23295 51.3109 8.41045 51.3281 8.58794 51.3281C8.6133 51.3281 8.6133 51.3281 8.6133 51.3281C13.6592 51.3109 14.7749 49.3172 17.5134 48.4751C17.6148 48.4407 17.7162 48.4063 17.8177 48.3891C17.843 48.372 17.8684 48.372 17.8937 48.372C17.9191 48.3548 17.9444 48.3548 17.9444 48.3548C17.9698 48.3548 17.9952 48.3376 18.0205 48.3376C18.3755 48.2688 18.7051 48.2345 19.0094 48.2345C19.0094 48.2345 19.0094 48.2345 19.0348 48.2345C19.0348 48.2345 19.0348 48.2345 19.0601 48.2345C20.4294 48.2517 21.4943 48.8532 22.6861 49.5235C22.7368 49.5579 22.7875 49.575 22.8382 49.6094C22.8636 49.6266 22.8889 49.6266 22.8889 49.6438C24.1821 50.3656 25.3231 50.6406 26.3628 50.6406H26.3881C28.5941 50.6406 30.2169 49.3688 31.6369 48.561C31.6622 48.5438 31.6876 48.5266 31.7129 48.5095C31.8144 48.4579 31.9158 48.4063 32.0172 48.3376C32.0426 48.3376 32.0426 48.3376 32.0426 48.3376C32.0933 48.3204 32.1186 48.3032 32.144 48.286C32.1947 48.2688 32.2201 48.2517 32.2708 48.2345C32.2708 48.2345 32.2708 48.2345 32.2708 48.2173C34.7811 47.0314 37.7224 47.1001 39.5481 45.5533C40.7652 44.4534 41.2216 42.9237 41.2216 41.2051C41.2216 37.0115 38.4831 31.7695 37.976 29.604C37.621 28.315 37.4942 26.7338 37.4942 24.9807C37.4942 20.1684 38.4324 14.0671 38.4324 9.08293C38.407 4.18469 37.5196 0.403597 33.9697 0.0426744C33.8682 0.0254876 33.7668 0.0254876 33.6654 0.00830078ZM33.6654 0.197356C33.7415 0.197356 33.8429 0.197356 33.9443 0.214542C37.0378 0.489531 37.8745 5.00966 38.1535 7.10645C38.2295 7.60487 38.2549 8.15484 38.2549 8.75638C38.2549 13.1046 36.8349 19.4809 36.8096 24.9464C36.8096 26.6478 36.9617 28.2462 37.3167 29.6727C37.9253 32.2851 40.5877 37.424 40.613 41.4113C40.613 42.9581 40.2073 44.3502 39.117 45.3299C37.4688 46.7908 34.5529 46.7564 32.0426 47.9939C32.0172 47.9939 32.0172 48.011 31.9919 48.011C31.9665 48.0282 31.9412 48.0454 31.9158 48.0454C31.8904 48.0626 31.8397 48.097 31.8144 48.1142C31.789 48.1142 31.789 48.1142 31.789 48.1142C30.2676 48.9219 28.6448 50.4 26.3628 50.4172H26.3374H26.312C25.4246 50.4172 24.4357 50.1938 23.2946 49.6094C23.2693 49.5922 23.2186 49.575 23.1932 49.5579C23.1425 49.5235 23.1171 49.5063 23.0664 49.4891L23.0411 49.4719C22.9904 49.4375 22.9143 49.4032 22.8636 49.3688C21.6718 48.7329 20.5561 48.097 19.1108 48.0798C19.0855 48.0798 19.0855 48.0798 19.0601 48.0798C18.6544 48.0798 18.198 48.1313 17.7416 48.2517H17.7162C17.6655 48.2688 17.6148 48.286 17.5641 48.3032C17.4373 48.3548 17.3105 48.4063 17.1584 48.4579C17.1584 48.4579 17.1584 48.4579 17.133 48.4751C15.3327 49.2485 12.3153 51.2937 8.81615 51.3109C8.79079 51.3109 8.79079 51.3109 8.76543 51.3109C7.64975 51.3109 6.50872 51.1047 5.34233 50.5891C5.31697 50.5891 5.29161 50.5719 5.26626 50.5719C2.24885 49.3172 1.15852 46.7564 1.18388 44.0409C1.18388 41.7379 1.94457 39.3317 2.95883 37.5099C7.85261 28.5384 3.54202 14.4452 17.057 2.01916C18.3501 0.902014 18.8066 0.902014 19.4912 0.781707C19.7194 0.81608 19.9729 0.833267 20.0744 0.902014C21.1647 1.26294 21.545 2.70663 21.545 4.52843C21.545 8.41265 19.8462 14.0843 19.7955 15.0811C19.7955 15.1327 19.8462 15.9405 19.8462 17.2295C19.8462 18.2607 19.8208 19.6356 19.7447 21.1824C19.7447 21.6637 19.694 22.248 20.2012 22.5746C20.1758 22.5918 20.2265 22.6089 20.2772 22.6261C20.3533 22.6433 20.4294 22.6433 20.5054 22.6433C20.5561 22.6433 20.6069 22.6433 20.6576 22.6433C20.7336 22.6433 20.7844 22.6261 20.8351 22.6089C22.4579 22.1277 25.7796 18.7075 27.4024 15.0983C30.1662 8.65326 30.1155 0.214542 33.64 0.197356H33.6654Z" fill="url(#paint2_linear_937_1696)"/>
<defs>
<linearGradient id="paint0_linear_937_1696" x1="38.4684" y1="16.4972" x2="4.6303" y2="16.4972" gradientUnits="userSpaceOnUse">
<stop stop-color="#EAB93A"/>
<stop offset="1" stop-color="#FEFBF3"/>
</linearGradient>
<linearGradient id="paint1_linear_937_1696" x1="40.8973" y1="40.5228" x2="1.05433" y2="40.5228" gradientUnits="userSpaceOnUse">
<stop stop-color="#A4A4A3"/>
<stop offset="0.819608" stop-color="white"/>
<stop offset="1" stop-color="white"/>
</linearGradient>
<linearGradient id="paint2_linear_937_1696" x1="41.2163" y1="25.6682" x2="0.859574" y2="25.6682" gradientUnits="userSpaceOnUse">
<stop stop-color="#A4A4A3"/>
<stop offset="1" stop-color="#E9E9E9"/>
</linearGradient>
</defs>
</svg>
