<svg width="41" height="51" viewBox="0 0 41 51" fill="none" xmlns="http://www.w3.org/2000/svg">
<path fill-rule="evenodd" clip-rule="evenodd" d="M21.5345 34.4446H21.5598H21.5852C27.1636 34.4446 32.7166 33.7056 38.0161 32.0729H38.0415C38.1175 32.0557 38.1936 32.0213 38.295 32.0041C38.3711 31.9697 38.4472 31.9526 38.5486 31.9182C38.6754 31.8666 38.8022 31.8322 38.929 31.7979C38.4472 29.9933 37.864 28.1886 37.4583 26.47C37.2808 25.7309 37.2301 24.9575 37.2301 24.1497C37.2301 20.3343 38.7515 15.6938 38.7515 11.7581C38.7515 7.20356 35.5566 2.09908 32.7674 2.03033C32.7674 2.03033 32.742 2.03033 32.7166 2.03033C32.5899 2.03033 32.4884 2.04752 32.3617 2.06471C30.1556 2.44282 28.8878 9.35191 27.6707 13.3221C27.6707 13.3564 27.6454 13.3908 27.6454 13.4424C27.62 13.4939 27.5947 13.5455 27.5947 13.5799C27.5947 13.597 27.5693 13.6142 27.5693 13.6314C27.5693 13.6486 27.5693 13.6658 27.5439 13.683C27.4932 13.8377 27.4172 14.0095 27.3411 14.1814C26.5043 16.1063 24.7801 18.1 23.0559 19.4749C23.0559 19.4749 23.0559 19.4749 23.0559 19.4921C21.6866 20.5749 20.292 21.2796 19.3031 21.2796C19.1003 21.2796 18.9228 21.2624 18.7706 21.1936H18.7453C17.3507 20.678 16.8943 18.9078 16.8943 16.2438C16.8943 14.6626 17.0464 12.7721 17.2746 10.6409C17.7057 6.53327 19.3285 3.5084 19.3285 2.08189C19.3285 1.63504 19.151 1.34286 18.7453 1.23974C18.441 1.17099 18.1367 1.10224 17.8325 1.08506C17.7564 1.06787 17.655 1.06787 17.5535 1.06787C17.3507 1.06787 17.1225 1.08506 16.8943 1.13662C16.2857 1.25693 15.5504 1.56629 14.6376 2.2022C12.9894 3.33653 10.7327 5.50207 7.30956 9.4894C4.52036 12.7377 3.78503 15.2985 3.78503 17.6531C3.78503 20.3343 4.74857 22.7404 4.74857 25.5763C4.74857 26.0403 4.72321 26.5043 4.64714 26.9684C4.44429 28.8246 3.93717 30.4401 3.32861 31.9526C3.37933 31.9697 3.43004 31.9869 3.50611 32.0041C3.55682 32.0213 3.63289 32.0385 3.70896 32.0557C3.78503 32.0729 3.88645 32.1072 3.98788 32.1244C4.01324 32.1416 4.03859 32.1416 4.06395 32.1588C9.76913 33.6197 15.6772 34.4446 21.5345 34.4446Z" fill="url(#paint0_linear_937_1686)"/>
<path fill-rule="evenodd" clip-rule="evenodd" d="M38.929 31.7979C38.8022 31.8322 38.6754 31.8666 38.5486 31.9182C38.4472 31.9525 38.3711 31.9697 38.2951 32.0041C38.1936 32.0213 38.1176 32.0557 38.0415 32.0728H38.0161C32.7167 33.7056 27.1636 34.4446 21.5852 34.4446C21.5852 34.4446 21.5852 34.4446 21.5598 34.4446C21.5598 34.4446 21.5598 34.4446 21.5345 34.4446C15.6772 34.4446 9.76914 33.6197 4.06395 32.1588C4.0386 32.1416 4.01324 32.1416 3.98788 32.1244C3.88646 32.1072 3.78503 32.0728 3.70896 32.0557C3.6329 32.0385 3.55683 32.0213 3.50611 32.0041C3.43004 31.9869 3.37933 31.9697 3.32862 31.9525C2.01009 35.4071 0.260498 38.346 0.260498 42.2646C0.260498 42.3334 0.260498 42.3849 0.260498 42.4537C0.285854 45.2207 2.66935 50.1705 7.71527 50.2049H7.74063C7.76598 50.2049 7.76598 50.2049 7.79134 50.2049C14.9672 50.1534 15.1447 46.441 18.3142 46.2691C18.3903 46.2691 18.4664 46.2691 18.5678 46.2691C19.7342 46.2691 20.292 46.7332 21.1034 47.2316C21.1034 47.2488 21.1288 47.2488 21.1541 47.266C21.1795 47.2832 21.2049 47.3003 21.2302 47.3175C21.2556 47.3347 21.2809 47.3519 21.3063 47.3691C22.2445 47.9191 23.4869 48.4691 26.124 48.4691H26.1494C26.1494 48.4691 26.1494 48.4691 26.1747 48.4691C26.7325 48.4691 27.3665 48.4519 28.0764 48.4003C28.1271 48.3831 28.2032 48.3831 28.2793 48.3831C28.33 48.3659 28.3807 48.3659 28.4568 48.3659C28.5075 48.3487 28.5582 48.3487 28.6343 48.3487C34.9987 47.7128 39.4107 42.4537 39.8925 38.8273C39.9432 38.432 39.9686 38.0195 39.9686 37.607C39.9686 35.8024 39.5122 33.8087 38.929 31.7979Z" fill="url(#paint1_linear_937_1686)"/>
<path d="M20.0639 46.3378C23.2081 47.455 24.3744 46.441 27.7722 47.6784C29.4204 48.2799 26.0733 48.9159 23.842 48.2628C20.8246 47.3519 18.0607 45.616 20.0639 46.3378Z" fill="white"/>
<path d="M38.0161 38.5525C35.9369 36.0776 37.5343 42.4539 32.8941 40.993C28.2539 39.5494 34.2634 35.6995 33.6041 33.2246L23.3855 34.4105C24.8308 36.8682 24.8055 37.1776 23.8419 39.3775C22.7769 41.7665 24.9069 44.4476 26.1747 45.1523C28.0004 46.1663 31.3981 46.8537 34.7198 45.8741C38.0415 44.9116 40.0953 41.0446 38.0161 38.5525Z" fill="#AFAFAD"/>
<path d="M32.3113 25.0946C29.801 20.2823 42.6313 9.12809 34.5934 3.74862C32.1338 2.11587 35.8865 7.83908 34.2384 12.3936C32.5902 16.8965 27.3668 23.2556 23.893 26.7274C21.1799 29.4601 21.8645 31.5912 23.3859 34.4099C26.1243 34.4099 30.6631 33.8599 33.6045 33.224C32.8184 30.2679 34.6694 29.6319 32.3113 25.0946Z" fill="#E4BB47"/>
<path d="M18.1366 6.12039C18.0859 7.95938 16.8434 12.4623 16.742 14.5763C16.6152 16.7075 16.9448 19.9042 18.5169 21.1073C20.0637 22.3276 21.1286 22.6885 20.5708 23.7369C19.7847 25.2321 17.2745 24.9228 15.7024 23.8572C14.0289 22.74 12.8371 18.6839 13.4203 14.4044C14.0289 9.78118 18.1366 5.10637 18.1366 6.12039Z" fill="#DECB8E"/>
<path d="M17.7566 6.41252C17.7312 8.2515 16.9959 12.7716 16.9452 14.8856C16.8691 17.498 16.8184 20.1104 18.3905 21.2963C18.8976 21.6744 20.0386 22.5337 19.2019 23.29C18.644 23.7712 17.1987 23.1009 16.8437 22.8775C15.1956 21.7431 14.2067 18.048 14.5363 14.8856C14.8406 11.8779 17.7566 5.38131 17.7566 6.41252Z" fill="#CBBC84"/>
<path fill-rule="evenodd" clip-rule="evenodd" d="M7.6136 50.222H7.63896H7.66432C7.74039 50.222 7.7911 50.222 7.7911 50.222C14.9162 49.9814 14.9162 47.1456 17.7308 46.4237C17.7562 46.4237 17.7815 46.4237 17.7815 46.4237H17.8069C18.0858 46.3722 18.3393 46.355 18.5929 46.3378C18.5929 46.3378 18.5929 46.3378 18.6183 46.3378C18.6183 46.3378 18.6183 46.3378 18.6436 46.3378C19.5818 46.355 20.0889 46.7331 20.9003 47.2487C20.9003 47.2487 20.9003 47.2487 20.9257 47.2487C20.9764 47.2831 21.0018 47.3174 21.0525 47.3346C21.0525 47.3518 21.0778 47.3518 21.0778 47.3518C21.1285 47.3862 21.1793 47.4034 21.23 47.4378C21.2553 47.4549 21.2807 47.4721 21.306 47.4893C21.3314 47.5065 21.3568 47.5237 21.3568 47.5237C21.3821 47.5409 21.3821 47.5409 21.4075 47.5409C21.4075 47.5581 21.4075 47.5581 21.4328 47.5581C21.4328 47.5752 21.4328 47.5752 21.4328 47.5752C22.5231 48.2112 24.3235 48.6065 26.4027 48.6236C26.428 48.6236 26.428 48.6236 26.428 48.6236C26.4534 48.6236 26.4534 48.6236 26.4787 48.6236C28.9383 48.6065 31.7782 48.0393 34.2378 46.63C34.2885 46.5956 34.3646 46.5612 34.4153 46.5097C38.9287 43.7598 40.2472 40.563 40.2472 37.3319C40.2472 34.582 39.3091 31.815 38.5737 29.3229C37.813 26.6761 37.4834 25.284 37.5088 23.8403C37.5088 22.0185 37.9905 20.0936 38.6752 15.4016C38.7005 15.2125 38.7259 15.0063 38.7259 14.8172C39.6133 7.11752 35.6577 2.09897 32.7925 1.97866C32.7418 1.96148 32.7164 1.96148 32.6657 1.96148C32.5389 1.96148 32.3868 1.97866 32.2346 2.01304C31.2711 2.35677 30.9922 3.04425 30.6118 3.61141C27.5437 9.05963 29.2933 14.8344 22.2189 19.8358C22.1935 19.8529 22.1682 19.8701 22.1428 19.8873C22.1428 19.9045 22.1174 19.9045 22.1174 19.9045C22.0921 19.9217 22.0667 19.9389 22.016 19.9561C22.016 19.9732 22.016 19.9732 21.9907 19.9904C21.9653 20.0076 21.9653 20.0076 21.94 20.0248C20.8243 20.7467 19.9622 21.056 19.3029 21.056C19.3029 21.056 19.3029 21.056 19.2775 21.056C16.9447 21.056 17.0462 17.1546 17.4265 12.8407C18.0858 6.37849 19.7086 3.47392 19.7086 2.0646C19.7086 1.37713 19.3029 1.05058 18.1872 0.861522C18.0604 0.844335 17.9336 0.827148 17.8069 0.827148C17.7562 0.827148 17.7054 0.827148 17.6547 0.827148C15.1698 0.827148 12.6595 3.28486 11.0874 4.86605C11.0621 4.88323 11.0367 4.90042 11.0114 4.93479V4.95198C4.77369 11.1736 3.32838 14.7313 3.32838 17.7218C3.32838 20.2998 4.4187 22.4653 4.4187 25.5418C4.4187 25.9714 4.39335 26.4183 4.34263 26.8995C3.86086 32.1071 0.0827637 37.2288 0.0827637 42.0067C0.0827637 43.1582 0.310971 44.3098 0.843455 45.4097C0.868811 45.4613 0.894167 45.4956 0.894167 45.53C0.919524 45.5644 0.919524 45.5816 0.94488 45.616C0.970237 45.7019 1.02095 45.7878 1.07166 45.8738C1.09702 45.9597 1.14773 46.0456 1.17309 46.1144C1.19844 46.1144 1.19844 46.1316 1.19844 46.1316C1.2238 46.1831 1.24916 46.2519 1.29987 46.3034C3.2016 49.6892 6.24436 50.1705 7.36004 50.222C7.3854 50.222 7.41075 50.222 7.43611 50.222H7.46147C7.51218 50.222 7.56289 50.222 7.6136 50.222ZM17.8069 1.4115C18.0351 1.4115 18.2633 1.42869 18.4915 1.46306C18.5168 1.46306 18.5422 1.46306 18.5676 1.48025C18.8211 1.61774 18.9225 1.89273 18.9225 2.25365C18.9479 3.06143 18.4154 4.2817 18.1111 5.22697C17.2744 7.6675 16.8687 10.2455 16.7165 12.8063C16.7165 12.8751 16.6912 12.961 16.6912 13.0298C16.3869 17.2921 16.6151 21.4513 19.2522 21.4513C19.2522 21.4513 19.2522 21.4513 19.2775 21.4513C20.0889 21.4513 21.1032 21.0732 22.4217 20.1967C22.4217 20.1967 22.4471 20.1795 22.4471 20.1623C22.4724 20.1623 22.4978 20.1451 22.5231 20.1279C22.5485 20.1107 22.5739 20.0936 22.5992 20.0764C29.6736 14.9719 28.0001 8.92213 30.8907 3.68016C30.8907 3.66297 30.8907 3.64578 30.9161 3.64578C30.9161 3.6286 30.9161 3.6286 30.9161 3.6286V3.61141C31.5247 2.61458 32.2093 2.20209 32.9193 2.20209C32.9446 2.20209 32.9446 2.20209 32.9446 2.20209C32.97 2.20209 32.9953 2.20209 33.0207 2.20209C34.8717 2.27084 36.8495 5.02073 37.813 7.68468C37.8638 7.77062 37.8891 7.87374 37.9145 7.97686C37.9145 7.97686 37.9398 7.99404 37.9398 8.01123C38.3962 9.3518 38.5737 10.6064 38.5737 11.8439C38.5737 15.4187 37.1031 18.8217 37.1031 23.445C37.1031 25.2324 37.3059 27.1917 37.9145 29.4088C38.6752 32.0384 39.5626 34.7883 39.5626 37.4522C39.5626 40.5974 38.3202 43.6395 34.111 46.2862C34.0603 46.3206 34.0096 46.3378 33.9589 46.3722C33.9335 46.3894 33.9335 46.3894 33.9082 46.3894C31.5247 47.8159 28.7608 48.3658 26.3773 48.383C26.352 48.383 26.3266 48.383 26.3266 48.383H26.3012C24.2727 48.383 22.5231 47.9705 21.5343 47.369L21.5089 47.3518C20.7482 46.9222 20.0889 46.3378 19.0747 46.2175C18.8718 46.1831 18.669 46.1831 18.4915 46.1831C18.4661 46.1831 18.4661 46.1831 18.4661 46.1831C16.7419 46.1831 15.753 47.4034 14.1048 48.4862C12.9131 49.2767 11.3917 49.9814 8.98285 50.1189C8.88142 50.1189 8.78 50.1361 8.65322 50.1361C8.6025 50.1361 8.55179 50.1361 8.50108 50.1361C8.04466 50.1533 7.7911 50.1705 7.7911 50.1705C7.7911 50.1705 7.74039 50.1705 7.66432 50.1705C6.92898 50.1705 2.97339 49.947 1.07166 45.3753C0.564535 44.3269 0.361684 43.2614 0.361684 42.1786C0.361684 37.3835 4.34263 32.2446 4.97654 26.9167C5.05261 26.3152 5.10332 25.748 5.07797 25.2152C5.07797 22.345 4.16514 20.1623 4.16514 17.6874C4.16514 15.1781 5.10332 12.3595 8.85607 8.25185C9.0082 8.07998 9.13499 7.9253 9.28712 7.77062V7.75343C9.33784 7.71906 9.36319 7.68468 9.38855 7.6675C9.38855 7.65031 9.38855 7.65031 9.41391 7.63312C9.46462 7.58156 9.51533 7.53 9.56605 7.47844C9.56605 7.44407 9.5914 7.42688 9.61676 7.40969C9.64211 7.39251 9.66747 7.35813 9.69283 7.32376C9.74354 7.2722 9.79425 7.22064 9.84497 7.15189C9.84497 7.15189 9.84497 7.1347 9.87032 7.1347C13.4456 3.25049 15.4994 1.42869 17.7815 1.4115H17.8069Z" fill="url(#paint2_linear_937_1686)"/>
<defs>
<linearGradient id="paint0_linear_937_1686" x1="38.9409" y1="17.7545" x2="3.3385" y2="17.7545" gradientUnits="userSpaceOnUse">
<stop stop-color="#EAB93A"/>
<stop offset="1" stop-color="#FEFBF3"/>
</linearGradient>
<linearGradient id="paint1_linear_937_1686" x1="39.9706" y1="40.9945" x2="0.253905" y2="40.9945" gradientUnits="userSpaceOnUse">
<stop stop-color="#A4A4A3"/>
<stop offset="0.819608" stop-color="white"/>
<stop offset="1" stop-color="white"/>
</linearGradient>
<linearGradient id="paint2_linear_937_1686" x1="40.2526" y1="25.5246" x2="0.077438" y2="25.5246" gradientUnits="userSpaceOnUse">
<stop stop-color="#A4A4A3"/>
<stop offset="1" stop-color="#E9E9E9"/>
</linearGradient>
</defs>
</svg>
