<svg width="39" height="43" viewBox="0 0 39 43" fill="none" xmlns="http://www.w3.org/2000/svg">
<path fill-rule="evenodd" clip-rule="evenodd" d="M17.1522 0.137695H17.1268C17.0507 0.137695 17 0.137695 16.9239 0.137695C16.8986 0.137695 16.8479 0.137695 16.8225 0.137695C13.0698 0.429871 2.39475 18.5448 2.19189 24.6633C2.26796 24.6804 2.31868 24.7148 2.39475 24.7492C8.12528 27.4303 15.5293 28.8912 22.5784 28.8912H22.6038C27.6497 28.8912 32.5181 28.1522 36.4737 26.5538C35.5862 24.2336 36.9301 20.8134 33.5831 15.6402C30.1853 10.3638 31.1742 7.06398 26.534 4.26253C25.5451 3.66099 24.6323 3.1282 23.7955 2.64697C20.9049 1.01422 18.8257 0.137695 17.1522 0.137695Z" fill="url(#paint0_linear_937_1676)"/>
<path fill-rule="evenodd" clip-rule="evenodd" d="M31.124 42.1764H31.1747C34.04 42.1764 38.0716 39.2891 38.0716 33.4627C38.0463 31.5378 37.6152 29.2691 36.5249 26.6739L36.4742 26.5536C32.5186 28.152 27.6502 28.891 22.6043 28.891H22.5789C15.5298 28.891 8.12578 27.4302 2.39524 24.749C2.31917 24.7146 2.26846 24.6803 2.19239 24.6631C2.19239 24.7318 2.19239 24.8178 2.19239 24.8865C2.19239 25.0584 2.19239 25.2131 2.21774 25.3677C2.21774 25.3677 0.56958 28.7364 0.56958 32.4831C0.56958 33.5143 0.696362 34.5627 1.00064 35.5767C2.69951 40.9562 7.16224 39.0141 10.8389 40.5953C10.8643 40.5953 10.8896 40.6124 10.915 40.6124C10.9403 40.6296 10.9657 40.6468 10.991 40.6468C11.0164 40.664 11.0164 40.664 11.0418 40.664C11.0418 40.6812 11.0671 40.6812 11.0671 40.6812C12.4617 41.2312 14.0338 41.4202 15.6566 41.4202H15.682C15.7073 41.4202 15.7327 41.4202 15.7327 41.4202C17.7105 41.403 19.7643 41.1452 21.7675 40.9218C22.3 40.8531 22.8578 40.8015 23.3903 40.7499C23.5678 40.7327 23.7707 40.7156 23.9481 40.6984C24.5313 40.6468 25.0385 40.6296 25.4695 40.6296C25.4949 40.6296 25.4949 40.6296 25.4949 40.6296C28.4362 40.6296 28.208 41.6265 29.704 42.0218C30.059 42.1077 30.5154 42.1764 31.124 42.1764Z" fill="url(#paint1_linear_937_1676)"/>
<path d="M37.184 32.7405C36.1444 31.1249 30.7688 32.6373 32.3409 30.2656C33.6594 28.2547 28.9178 28.6672 27.7768 28.8906C28.5375 31.0905 28.0303 36.3497 24.2269 38.9105C21.3109 40.8698 22.0716 40.9042 27.1175 40.612C29.7799 40.4745 31.6816 39.8902 34.3948 38.9105C37.2347 37.8965 38.5532 34.8373 37.184 32.7405Z" fill="#AFAFAD"/>
<path d="M6.98449 39.8221C11.0415 39.9768 10.3062 40.6299 12.0811 41.1283C13.8307 41.5923 15.276 40.0799 12.4868 39.0143C9.34264 37.8112 5.10812 39.7533 6.98449 39.8221Z" fill="white"/>
<path d="M30.0337 12.7351C28.132 9.28051 26.0781 5.77441 22.4268 3.09326C18.953 0.515244 24.8864 8.93678 26.8135 13.7319C28.9181 19.0254 28.1574 24.4736 27.777 28.6157C29.7041 28.375 32.1637 27.8766 34.1668 27.1204C33.7104 23.0128 32.7215 17.5817 30.0337 12.7351Z" fill="#E4BB47"/>
<path d="M19.3331 3.19658C19.0288 -0.343906 28.5121 22.9958 23.593 27.4643C21.3109 29.5268 20.7784 28.719 21.1334 20.8302C21.4884 13.3196 20.0685 11.5322 19.3331 3.19658Z" fill="#DECB8E"/>
<path d="M20.0935 4.62308C19.4343 2.54348 27.3962 21.2255 22.8067 27.43C21.3613 29.3721 22.6545 24.3363 22.401 19.7647C22.122 15.193 21.5896 9.4182 20.0935 4.62308Z" fill="#CBBC84"/>
<path fill-rule="evenodd" clip-rule="evenodd" d="M16.7977 0.120214C16.5441 0.154588 16.2399 0.292082 15.9102 0.481137C15.8849 0.498324 15.8595 0.515511 15.8342 0.515511C15.8342 0.532697 15.8088 0.532697 15.8088 0.532697C15.8088 0.549884 15.7835 0.549884 15.7835 0.549884C15.7835 0.567071 15.7581 0.567071 15.7581 0.584258C15.7327 0.584258 15.7327 0.584258 15.7327 0.601445C15.7074 0.601445 15.7074 0.601445 15.682 0.618631C15.682 0.618631 15.682 0.635818 15.6567 0.635818L15.6313 0.653005C15.6313 0.670192 15.606 0.670192 15.606 0.670192C15.5806 0.687379 15.5806 0.687379 15.5806 0.704565C15.5552 0.704565 15.5552 0.704565 15.5299 0.721752C15.5299 0.721752 15.5299 0.738939 15.5045 0.738939C15.5045 0.756126 15.4792 0.756126 15.4792 0.756126V0.773313C15.4538 0.773313 15.4538 0.773313 15.4538 0.790499C15.4538 0.790499 15.4538 0.790499 15.4285 0.790499V0.807686C15.4031 0.807686 15.4031 0.807686 15.4031 0.807686C15.4031 0.824873 15.4031 0.824873 15.3777 0.824873V0.84206C15.3777 0.84206 15.3524 0.84206 15.3524 0.859247C15.327 0.876433 15.327 0.876433 15.327 0.876433C15.327 0.876433 15.3017 0.876433 15.3017 0.89362C15.2763 0.910807 15.2763 0.910807 15.2763 0.910807C15.2763 0.910807 15.2763 0.927994 15.251 0.927994C15.251 0.945181 15.2256 0.945181 15.2256 0.945181C15.2256 0.962367 15.2256 0.962367 15.2256 0.962367C15.2003 0.962367 15.2003 0.979554 15.2003 0.979554H15.1749C15.1749 0.996741 15.1749 0.996741 15.1749 0.996741C15.1495 1.01393 15.1495 1.01393 15.1495 1.01393C15.1495 1.01393 15.1242 1.01393 15.1242 1.03111C15.1242 1.03111 15.1242 1.03111 15.0988 1.0483C15.0988 1.06549 15.0735 1.06549 15.0735 1.06549V1.08268C15.0481 1.08268 15.0481 1.08268 15.0481 1.09986C15.0481 1.09986 15.0481 1.09986 15.0228 1.09986C15.0228 1.11705 15.0228 1.11705 15.0228 1.11705L14.9974 1.13424C14.9974 1.13424 14.9974 1.13424 14.972 1.15142C14.972 1.16861 14.9467 1.16861 14.9467 1.16861C14.9467 1.1858 14.9467 1.1858 14.9467 1.1858C14.9213 1.1858 14.9213 1.20298 14.9213 1.20298C14.9213 1.20298 14.896 1.20298 14.896 1.22017C14.896 1.22017 14.896 1.22017 14.8706 1.23736C14.8706 1.25454 14.8453 1.25454 14.8453 1.25454C14.8453 1.27173 14.8453 1.27173 14.8453 1.27173C14.8199 1.27173 14.8199 1.28892 14.8199 1.28892L14.7946 1.3061C14.7946 1.3061 14.7946 1.3061 14.7946 1.32329C14.7692 1.32329 14.7692 1.32329 14.7692 1.32329C14.7692 1.34048 14.7438 1.34048 14.7438 1.34048C14.7438 1.35766 14.7438 1.35766 14.7438 1.35766C14.7185 1.37485 14.7185 1.37485 14.7185 1.37485C14.7185 1.37485 14.7185 1.39204 14.6931 1.39204C14.6931 1.39204 14.6931 1.40922 14.6678 1.40922C14.6678 1.40922 14.6678 1.40922 14.6678 1.42641L14.6424 1.4436C14.6171 1.46078 14.6171 1.46078 14.6171 1.47797H14.5917C14.5917 1.49516 14.5917 1.49516 14.5663 1.51235C14.5663 1.51235 14.541 1.52953 14.541 1.54672C14.5156 1.54672 14.5156 1.56391 14.4903 1.56391V1.58109C14.4903 1.58109 14.4903 1.59828 14.4649 1.59828C14.4649 1.61547 14.4396 1.63265 14.4396 1.63265C14.4142 1.64984 14.4142 1.66703 14.3889 1.66703C14.3889 1.68421 14.3635 1.68421 14.3635 1.7014C9.39365 6.44496 1.43175 20.3147 1.81209 25.3333C1.55853 25.8832 1.33032 26.4504 1.12747 27.0176C1.12747 27.0347 1.12747 27.0347 1.12747 27.0347C1.10212 27.0519 1.10212 27.0691 1.10212 27.1035C1.10212 27.1035 1.07676 27.1035 1.07676 27.1207C1.07676 27.1379 1.07676 27.1551 1.07676 27.1722C1.0514 27.1894 1.0514 27.1894 1.0514 27.1894C1.0514 27.2066 1.0514 27.241 1.0514 27.2582C1.02605 27.2582 1.02605 27.2754 1.02605 27.2754C1.02605 27.2925 1.02605 27.3097 1.02605 27.3269C1.00069 27.3441 1.00069 27.3441 1.00069 27.3613C1.00069 27.3785 1.00069 27.3957 1.00069 27.4129C0.975335 27.4129 0.975335 27.43 0.975335 27.4472C0.975335 27.4644 0.975335 27.4644 0.975335 27.4816C0.949979 27.4988 0.949978 27.516 0.949978 27.5332C0.949978 27.5332 0.949978 27.5503 0.949978 27.5675C0.924622 27.5847 0.924622 27.6019 0.924622 27.6191C0.924622 27.6191 0.924622 27.6191 0.924622 27.6363C0.899266 27.6535 0.899266 27.6707 0.899266 27.6878C0.899266 27.705 0.899266 27.705 0.899266 27.7222C0.873909 27.7394 0.873909 27.7566 0.873909 27.7738C0.873909 27.791 0.873909 27.791 0.873909 27.791C0.848553 27.8082 0.848553 27.8425 0.848553 27.8597V27.8769C0.848553 27.8941 0.823197 27.9285 0.823197 27.9456C0.0625057 30.5065 -0.140345 33.2564 0.645702 35.6969C2.29387 40.4233 5.66626 39.6499 9.03866 40.3201C9.08937 40.3201 9.14008 40.3373 9.1908 40.3373C9.21615 40.3373 9.21615 40.3373 9.24151 40.3545C9.26687 40.3545 9.31758 40.3717 9.36829 40.3717C11.0165 40.7154 11.625 41.5748 15.4031 41.5748C15.4031 41.5748 15.4031 41.5748 15.4285 41.5748C15.4285 41.5748 15.4285 41.5748 15.4538 41.5748C16.5695 41.5748 17.9641 41.506 19.7644 41.317C19.8151 41.2998 19.8912 41.2998 19.9419 41.2998C19.9926 41.2826 20.018 41.2826 20.0687 41.2826C20.094 41.2826 20.1194 41.2826 20.1194 41.2654C20.1701 41.2654 20.2462 41.2654 20.2969 41.2482C20.373 41.2482 20.449 41.231 20.5251 41.231C22.9086 40.9561 24.43 40.8186 25.4442 40.7842C25.5964 40.7842 25.7231 40.7842 25.8499 40.7842C25.8753 40.7842 25.8753 40.7842 25.8753 40.7842C27.8024 40.7842 27.6756 41.2654 29.0195 41.9013C29.0448 41.9185 29.0955 41.9357 29.1209 41.9529C29.1463 41.9529 29.1716 41.9701 29.1716 41.9701C29.6787 42.1935 30.2873 42.3138 30.9212 42.3138C31.0226 42.3138 31.0987 42.3138 31.2001 42.2966C35.0543 42.1076 40.3031 37.9312 37.1335 27.6707V27.6535C37.1082 27.6019 37.0828 27.5503 37.0828 27.4988C37.0828 27.4816 37.0574 27.4644 37.0574 27.4472C37.0574 27.3957 37.0321 27.3441 37.0067 27.2925C37.0067 27.2754 37.0067 27.2582 37.0067 27.241C36.9814 27.1894 36.956 27.1379 36.956 27.0863C36.9307 27.0176 36.9053 26.966 36.8799 26.9144C36.8799 26.8973 36.8799 26.8801 36.8799 26.8629C36.8546 26.8285 36.8546 26.7941 36.8292 26.7598C36.7785 26.6223 36.7278 26.4848 36.6771 26.3473C36.6517 26.2785 36.6264 26.2098 36.601 26.141C36.0939 23.6833 36.9053 20.1772 34.1415 15.8977C31.2255 11.4807 31.2255 8.57612 28.9941 6.10122C28.8673 5.94654 28.6645 5.75749 28.4109 5.53406C26.2303 3.69507 20.1194 0.103027 17.0259 0.103027C16.9498 0.103027 16.8738 0.103027 16.7977 0.120214ZM27.2445 4.93252C27.2952 4.96689 27.346 5.01845 27.3967 5.05283C27.4474 5.0872 27.4981 5.13876 27.5488 5.17313C27.8784 5.43094 28.1574 5.67155 28.3856 5.89498C28.4363 5.94654 28.5123 6.01529 28.5631 6.06685C28.5884 6.11841 28.6391 6.16997 28.6645 6.20434L28.6898 6.22153C30.7691 8.7308 30.4901 11.3604 33.4822 16.0696C36.3475 20.8647 35.4093 23.3911 36.0685 26.227C36.0939 26.2613 36.1193 26.3129 36.1446 26.3645C36.1446 26.3988 36.1446 26.416 36.17 26.4504C36.17 26.4676 36.17 26.4848 36.1953 26.502C36.2207 26.5707 36.246 26.6223 36.246 26.691H36.2714C36.2714 26.7254 36.2968 26.7598 36.2968 26.7941C36.3221 26.8629 36.3475 26.9144 36.3728 26.966C40.3284 37.9312 34.75 42.0216 31.0226 42.0732C30.9973 42.0732 30.9719 42.0732 30.9719 42.0732C30.9466 42.0732 30.9466 42.0732 30.9466 42.0732C30.3634 42.0732 29.8309 41.9701 29.3745 41.781C29.3491 41.7638 29.3491 41.7638 29.3238 41.7466H29.2984C29.273 41.7295 29.273 41.7295 29.2477 41.7123C29.2223 41.7123 29.197 41.6951 29.1716 41.6779C29.1463 41.6779 29.1463 41.6607 29.1209 41.6435C27.8784 41.0248 28.0559 40.5264 25.7739 40.5092C25.7485 40.5092 25.7485 40.5092 25.7485 40.5092C25.571 40.5092 25.3935 40.5264 25.1907 40.5264C24.3539 40.5436 23.2129 40.6295 21.6915 40.767C21.6154 40.7842 21.5647 40.7842 21.4886 40.8014C21.4633 40.8014 21.4379 40.8014 21.3872 40.8014H21.3619C21.2351 40.8186 21.1336 40.8357 21.0322 40.8357C21.0069 40.8357 21.0069 40.8357 21.0069 40.8357C20.9562 40.8529 20.9054 40.8529 20.8547 40.8529C20.8294 40.8529 20.8294 40.8529 20.8294 40.8529C20.6265 40.8873 20.4237 40.9045 20.2208 40.9217C20.1447 40.9389 20.0687 40.9389 19.9926 40.9389C19.9673 40.9389 19.9673 40.9561 19.9419 40.9561C19.8912 40.9561 19.8405 40.9561 19.8151 40.9561C19.7644 40.9732 19.739 40.9732 19.7137 40.9732C19.6883 40.9732 19.6883 40.9732 19.6883 40.9732C18.0402 41.1279 16.747 41.1967 15.7074 41.1967H15.682C15.682 41.1967 15.682 41.1967 15.6567 41.1967C11.8279 41.1967 11.3968 40.3201 9.52043 39.9077C9.49507 39.9077 9.46972 39.9077 9.44436 39.8905C9.36829 39.8905 9.31758 39.8733 9.24151 39.8561C5.71698 39.1171 2.90242 39.9248 1.43175 35.5594C1.12747 34.5969 1.00069 33.5829 1.00069 32.5173C1.00069 30.1112 1.65996 27.5503 2.64885 25.402C2.64885 25.2645 2.6235 25.127 2.6235 24.9895C2.6235 19.0944 12.6393 0.927994 16.8231 0.171775C16.8738 0.171775 16.9498 0.171775 17.0259 0.171775C19.6883 0.171775 24.6582 2.95604 27.2445 4.93252Z" fill="url(#paint2_linear_937_1676)"/>
<defs>
<linearGradient id="paint0_linear_937_1676" x1="36.1253" y1="14.5121" x2="2.54333" y2="14.5121" gradientUnits="userSpaceOnUse">
<stop stop-color="#EAB93A"/>
<stop offset="1" stop-color="#FEFBF3"/>
</linearGradient>
<linearGradient id="paint1_linear_937_1676" x1="38.0592" y1="33.4155" x2="0.563242" y2="33.4155" gradientUnits="userSpaceOnUse">
<stop stop-color="#A4A4A3"/>
<stop offset="0.819608" stop-color="white"/>
<stop offset="1" stop-color="white"/>
</linearGradient>
<linearGradient id="paint2_linear_937_1676" x1="36.2131" y1="21.2084" x2="2.04791" y2="21.2084" gradientUnits="userSpaceOnUse">
<stop stop-color="#A4A4A3"/>
<stop offset="1" stop-color="#E9E9E9"/>
</linearGradient>
</defs>
</svg>
