<svg width="39" height="45" viewBox="0 0 39 45" fill="none" xmlns="http://www.w3.org/2000/svg">
<path fill-rule="evenodd" clip-rule="evenodd" d="M22.1396 0.21875H22.115H22.0905C21.9434 0.21875 21.7963 0.234379 21.6492 0.250008C21.4285 0.281266 21.2078 0.328154 20.9871 0.39067C20.5703 0.484445 20.3987 0.734511 20.3987 1.1565C20.4232 2.43809 21.9679 5.18881 22.3848 8.92417C22.6054 10.8778 22.7525 12.597 22.7525 14.0193C22.7525 16.4574 22.3112 18.0516 20.9871 18.5205C18.8539 19.2706 13.5087 14.957 12.3317 11.3623C11.1548 7.76762 9.92883 1.46908 7.79563 1.14087C5.02492 0.687624 1.61671 5.59517 1.61671 9.95569C1.61671 13.5348 3.1124 17.739 3.1124 21.2087C3.1124 21.9589 3.03884 22.6622 2.8672 23.3186C2.47489 24.8815 1.91094 26.5382 1.44507 28.1636C12.4543 31.5395 24.616 31.1644 35.8705 28.3199C35.3066 26.9289 34.8162 25.4754 34.5955 23.7875C34.5464 23.3499 34.5219 22.9279 34.5219 22.5215C34.4974 19.9427 35.4292 17.7546 35.4292 15.3165C35.4537 13.1597 34.7181 10.8309 32.0209 7.87702C27.6565 3.11014 25.229 1.20338 23.5862 0.531332C23.0958 0.343783 22.679 0.250008 22.2867 0.234379C22.2376 0.234379 22.1886 0.21875 22.1396 0.21875Z" fill="url(#paint0_linear_937_1803)"/>
<path fill-rule="evenodd" clip-rule="evenodd" d="M0.439941 33.4462C0.439941 33.8369 0.464461 34.1964 0.5135 34.5559C0.979371 37.8536 5.24577 42.6518 11.4002 43.2144C15.6666 43.6051 17.3584 42.9644 18.4863 42.3236C19.4181 41.7922 19.982 41.2608 21.3796 41.3233C24.4446 41.4796 24.6162 44.8555 31.5552 44.9024C36.5082 44.9336 38.813 40.4012 38.8375 37.8536C38.8375 37.8067 38.8375 37.7442 38.8375 37.6817C38.8621 34.1183 37.1457 31.4457 35.8707 28.3199C24.6162 31.1644 12.4545 31.5395 1.44524 28.1636C0.905813 29.9922 0.439941 31.8052 0.439941 33.4462Z" fill="url(#paint1_linear_937_1803)"/>
<path d="M21.3793 41.3233C24.7385 42.0735 24.6404 43.777 28.2693 44.5585C30.0347 44.9492 28.1957 42.3235 25.9399 41.6515C22.8995 40.7606 19.2706 40.8544 21.3793 41.3233Z" fill="white"/>
<path d="M37.5383 35.4312C35.5277 33.1806 38.1268 37.8537 33.6397 36.5408C29.1526 35.2124 28.981 32.1334 28.319 29.8672V29.8516C25.4992 30.4298 21.9684 30.4767 19.3203 30.4767L19.3694 30.5705C20.767 32.8055 23.0228 33.3369 24.8617 35.0561C28.1228 38.1037 28.0002 41.0733 28.4906 42.0579C29.5695 44.246 31.3349 45.09 34.5469 44.2147C37.759 43.3395 39.5489 37.6974 37.5383 35.4312Z" fill="#AFAFAD"/>
<path d="M31.2857 20.4116C32.291 15.801 33.2963 8.65845 25.4991 3.76654C23.1452 2.28177 29.0299 8.81475 28.9809 13.019C28.9073 17.2388 28.2208 20.4116 24.8616 23.553C22.238 26.038 17.849 27.9135 19.3202 30.4767C21.9683 30.4767 25.4991 30.4298 28.3189 29.8515C27.5833 27.1633 30.6727 23.2404 31.2857 20.4116Z" fill="#E4BB47"/>
<path d="M10.3953 4.89197C11.0328 6.5174 11.9155 10.8623 13.0189 12.6596C14.2448 14.6445 16.28 17.0827 18.168 17.911C20.0805 18.7394 21.0858 18.6456 21.1103 19.7084C21.1348 21.1619 18.6584 21.1306 16.7949 20.443C14.8333 19.724 11.7929 16.7857 10.8366 12.9253C9.90488 9.08058 10.0275 4.00111 10.3953 4.89197Z" fill="#DECB8E"/>
<path d="M10.3943 4.89224C11.0318 6.51767 11.9145 10.8626 13.0179 12.6599C14.2439 14.6448 16.279 17.0986 18.167 17.9113C18.78 18.1614 20.1531 18.7553 19.6382 19.5367C19.3194 20.0369 17.7011 19.6774 17.3088 19.5367C15.3473 18.8022 12.7972 15.6451 11.6939 12.8475C10.6886 10.2999 10.0265 4.00138 10.3943 4.89224Z" fill="#CBBC84"/>
<path fill-rule="evenodd" clip-rule="evenodd" d="M31.678 44.9337H31.7025H31.7271C31.7761 44.9337 31.8251 44.9337 31.8742 44.9337H31.8987C31.9232 44.9337 31.9477 44.9181 31.9723 44.9181C33.0511 44.8712 35.9689 44.4492 37.8079 41.4172L37.8324 41.4015C37.8324 41.3859 37.8324 41.3703 37.8569 41.3547C37.8569 41.339 37.8815 41.3078 37.906 41.2765C37.906 41.2609 37.9305 41.2296 37.9305 41.1984C37.955 41.1671 37.9795 41.1202 38.0041 41.089C38.0286 41.0264 38.0776 40.9796 38.1021 40.917C38.1267 40.8702 38.1512 40.8233 38.1757 40.7764C38.2002 40.6982 38.2493 40.6357 38.2738 40.5576C38.8132 39.5417 39.0094 38.5102 39.0094 37.4474C39.0094 33.1025 35.356 28.4606 34.8901 23.7094C34.841 23.2874 34.8165 22.881 34.8165 22.4903C34.8165 19.6771 35.8709 17.7078 35.8709 15.3634C35.8709 12.644 34.4733 9.40873 28.466 3.75099C27.1909 2.57881 25.3029 0.781456 23.2923 0.187549C23.2678 0.187549 23.2678 0.187549 23.2433 0.17192C23.1943 0.17192 23.1697 0.156291 23.1452 0.156291C22.7774 0.0468874 22.4096 0 22.0418 0C21.9928 0 21.9438 0 21.8947 0C21.7721 0 21.625 0.0156291 21.5024 0.0468874C20.4236 0.218808 20.0312 0.500132 20.0312 1.14093C20.0312 2.40688 21.6005 5.06384 22.238 10.9248C22.2625 11.1123 22.287 11.2999 22.287 11.4874C22.6303 15.1759 22.6058 18.3955 20.4481 18.4111H20.4236C19.786 18.3955 18.9279 18.1142 17.8735 17.4577C17.8735 17.4577 17.849 17.4577 17.849 17.4421C17.8 17.4108 17.7264 17.364 17.6774 17.3327C17.6528 17.3171 17.6283 17.3014 17.6038 17.3014C10.7629 12.7534 12.4547 7.48635 9.48784 2.54755C9.12004 2.01616 8.85033 1.39099 7.91859 1.07841C7.77147 1.06278 7.64887 1.04715 7.50175 1.04715C7.45271 1.04715 7.4282 1.04715 7.40368 1.04715C4.55941 1.15656 0.636281 5.89218 1.69062 13.1441C1.69062 13.1753 1.69062 13.2222 1.71514 13.2535C2.35265 17.5359 2.84304 19.302 2.84304 20.9587C2.84304 22.2715 2.52429 23.5218 1.7887 25.9131C1.10215 28.1949 0.17041 30.6956 0.17041 33.2119C0.17041 36.1345 1.44543 39.0572 5.80991 41.5578C5.85894 41.5735 5.90798 41.6047 5.95702 41.636C5.98154 41.6516 6.03058 41.6672 6.0551 41.6985C6.10414 41.7141 6.12866 41.7298 6.15318 41.7454C8.48254 42.9645 11.1797 43.4646 13.509 43.4646C13.509 43.4646 13.509 43.4646 13.5336 43.4646C13.5336 43.4646 13.5336 43.4646 13.5581 43.4646C15.5687 43.4646 17.3341 43.0895 18.3639 42.5112C18.3884 42.5112 18.3884 42.4956 18.3884 42.4956C18.413 42.48 18.462 42.4643 18.4865 42.4487C18.4865 42.4331 18.511 42.4331 18.5355 42.4174C18.5601 42.4018 18.5846 42.3862 18.6091 42.3705C18.6336 42.3549 18.6581 42.3549 18.6581 42.3393C18.6827 42.3237 18.7072 42.3237 18.7317 42.308L18.7562 42.2924C19.6144 41.7923 20.1048 41.4015 21.0856 41.4015C21.0856 41.4015 21.0856 41.4015 21.1101 41.4015C21.3308 41.4015 21.5515 41.4172 21.8212 41.4641C21.8457 41.4641 21.8702 41.4641 21.8702 41.4641C21.8947 41.4641 21.9192 41.4797 21.9438 41.4797C24.6654 42.1205 24.69 44.6993 31.5554 44.9337C31.5554 44.9337 31.6045 44.9337 31.678 44.9337ZM21.9192 0.53139C24.2976 0.562648 26.4308 2.50066 30.452 6.67364C30.4766 6.70489 30.5011 6.72052 30.5256 6.75178C34.1545 10.5028 35.0617 13.0503 35.0617 15.3322C35.0617 17.5984 34.179 19.5989 34.179 22.209C34.179 22.6935 34.2035 23.1936 34.2771 23.725C34.8901 28.5857 38.7397 33.2431 38.7397 37.6193C38.7397 38.6039 38.5435 39.5729 38.0776 40.5107C38.0531 40.5419 38.0531 40.5732 38.0286 40.6045C38.0286 40.6045 38.0286 40.6201 38.0286 40.6357C38.0041 40.6513 38.0041 40.667 38.0041 40.6826C37.9305 40.8389 37.8569 40.9952 37.7589 41.1358C37.7344 41.1984 37.7098 41.2453 37.6608 41.3078C37.6608 41.339 37.6363 41.3859 37.6118 41.4172C35.8709 44.3398 33.0511 44.8087 31.9968 44.8712C31.9968 44.8712 31.9968 44.8712 31.9723 44.8712C31.9477 44.8712 31.9477 44.8712 31.9232 44.8712H31.8987C31.8987 44.8712 31.8987 44.8712 31.8742 44.8712C31.8006 44.8868 31.7271 44.8868 31.678 44.8868C31.6045 44.8868 31.5554 44.8712 31.5554 44.8712C31.5554 44.8712 31.3348 44.8712 30.8689 44.8556C30.8198 44.8556 30.7708 44.84 30.7218 44.84C30.6237 44.84 30.5011 44.84 30.403 44.8243C28.0491 44.6993 26.578 44.0429 25.4255 43.3396C23.8318 42.3549 22.9 41.2453 21.2327 41.2453C21.0365 41.2453 20.8404 41.2609 20.6442 41.2921C19.6634 41.3859 19.0259 41.9329 18.3149 42.308C18.2904 42.3237 18.2658 42.3237 18.2658 42.3393C17.3096 42.8863 15.6177 43.2458 13.6562 43.2458C13.6316 43.2458 13.6316 43.2458 13.6071 43.2458C11.2532 43.2458 8.48254 42.7144 6.12866 41.339C2.0339 38.9478 0.832438 36.1814 0.832438 33.3213C0.832438 30.8831 1.69062 28.3981 2.42621 25.9912C3.01468 23.9751 3.23535 22.1934 3.23535 20.5679C3.23535 16.3793 1.7887 13.2691 1.7887 10.0183C1.7887 8.89297 1.96034 7.75204 2.42621 6.5486C2.42621 6.53297 2.42621 6.51734 2.42621 6.50171C2.42621 6.48609 2.45073 6.47046 2.45073 6.4392V6.42357C2.47525 6.39231 2.47525 6.36105 2.49977 6.34542C3.40699 3.87602 5.39307 1.26596 7.20752 1.25033H7.23204C7.94311 1.25033 8.62965 1.64106 9.1936 2.56318C9.21812 2.57881 9.21812 2.59443 9.24264 2.61006C12.0133 7.37695 10.4196 12.8628 17.2605 17.5202C17.5057 17.6765 17.7264 17.8172 17.9716 17.9422C22.9736 20.7555 23.3169 15.8479 22.9245 10.8935C22.8019 8.58039 22.3851 6.23602 21.576 4.00106C21.2817 3.15708 20.7913 2.03179 20.7913 1.29722C20.7913 0.969006 20.8894 0.71894 21.1346 0.593907C21.1591 0.593907 21.1837 0.593907 21.2082 0.578278C21.4289 0.547019 21.6495 0.53139 21.8702 0.53139C21.8947 0.53139 21.8947 0.53139 21.9192 0.53139Z" fill="url(#paint2_linear_937_1803)"/>
<defs>
<linearGradient id="paint0_linear_937_1803" x1="1.43844" y1="15.3994" x2="35.8666" y2="15.3994" gradientUnits="userSpaceOnUse">
<stop stop-color="#FEFBF3"/>
<stop offset="1" stop-color="#EAB93A"/>
</linearGradient>
<linearGradient id="paint1_linear_937_1803" x1="0.442636" y1="36.5328" x2="38.8496" y2="36.5328" gradientUnits="userSpaceOnUse">
<stop stop-color="white"/>
<stop offset="0.180392" stop-color="white"/>
<stop offset="1" stop-color="#A4A4A3"/>
</linearGradient>
<linearGradient id="paint2_linear_937_1803" x1="0.17041" y1="22.4653" x2="39.0202" y2="22.4653" gradientUnits="userSpaceOnUse">
<stop stop-color="#E9E9E9"/>
<stop offset="1" stop-color="#A4A4A3"/>
</linearGradient>
</defs>
</svg>
