<svg width="40" height="47" viewBox="0 0 40 47" fill="none" xmlns="http://www.w3.org/2000/svg">
<path fill-rule="evenodd" clip-rule="evenodd" d="M7.73949 0.0625H7.71509C7.10505 0.0625 6.56822 0.202485 6.10459 0.435794C4.15246 1.43124 3.34721 4.23095 3.00559 6.844C2.95679 7.17064 2.95679 7.54393 2.95679 7.94833C2.95679 11.4013 4.25007 17.9028 4.25007 22.6312C4.25007 23.4867 4.22567 24.2955 4.10366 25.011C3.90845 26.3953 3.54242 27.6085 3.1276 28.7283C13.7911 26.8774 27.9196 25.3687 35.5084 29.7705C35.3376 29.0705 35.1912 28.2928 35.0936 27.3596C34.4348 20.9203 32.8731 12.77 30.0425 9.08377C27.1875 5.38194 23.8689 0.404686 21.2091 0.466902C19.4278 0.498009 18.8666 2.03785 18.8666 4.12207C18.891 7.71502 20.5747 12.9567 20.5747 14.9009C20.5747 14.9476 20.5747 15.0098 20.5747 15.0565C20.5503 15.4764 20.5259 15.8808 20.5259 16.2541C20.5259 17.6384 20.6723 18.6494 20.6723 19.3338C20.6723 19.8004 20.5991 20.1115 20.3795 20.267C19.745 20.7336 15.3772 17.4207 13.4983 12.9411C11.8878 9.13043 10.5457 0.404686 8.34953 0.109162C8.12991 0.0780539 7.9347 0.0780539 7.73949 0.0625Z" fill="url(#paint0_linear_937_1793)"/>
<path fill-rule="evenodd" clip-rule="evenodd" d="M3.12737 28.728C2.0537 31.6055 0.614014 33.9075 0.614014 37.1582C0.614014 37.2827 0.614014 37.4226 0.614014 37.5471C0.809226 42.3066 4.46946 42.011 7.78807 43.0687C11.0579 44.0953 11.6435 45.7595 14.7669 45.6973C17.8903 45.6351 18.8176 43.4731 21.941 43.582C25.0644 43.7064 26.5285 46.755 32.336 46.3973C34.947 46.2417 38.9488 44.453 38.9488 40.1757C38.9488 40.1135 38.9488 40.0668 38.9488 40.0201C38.8268 34.6074 36.5819 33.8919 35.5082 29.7701C33.8977 28.8369 31.97 28.1681 29.8471 27.7015C27.1873 27.126 24.2103 26.9082 21.1113 26.9082C15.1085 26.9082 8.64212 27.7637 3.12737 28.728Z" fill="url(#paint1_linear_937_1793)"/>
<path d="M18.3537 44.4845C20.6475 43.4735 22.5264 43.458 24.0393 44.189C25.5278 44.9201 26.0158 45.06 26.7234 45.34C27.4067 45.6044 25.3081 44.0335 24.2345 42.9603C22.9168 41.6693 23.478 38.3252 21.9895 38.3252C20.6475 38.3252 20.9891 39.7095 20.7207 40.876C20.4766 42.0581 20.0374 42.6025 19.2322 43.2713C18.6953 43.7224 17.3288 44.9356 18.3537 44.4845Z" fill="#C2C0BE"/>
<path d="M30.8469 22.973C30.7737 19.7689 29.6756 13.6406 28.5044 10.1721C27.3331 6.70357 24.1121 2.39514 23.4776 3.67056C23.0628 4.52602 25.2346 8.08787 26.8939 13.905C28.3336 18.9912 25.3566 22.7396 25.503 26.9081C27.5039 26.9703 29.3096 27.3436 30.8957 27.9502C30.5785 26.5037 30.8957 25.2905 30.8469 22.973Z" fill="#E4BB47"/>
<path d="M36.7769 36.8782C34.9224 33.6741 32.9703 32.6787 31.4574 30.2678C31.067 29.6146 30.9694 28.8835 30.8473 28.3391C29.8225 27.9503 27.1627 27.297 26.1622 27.3904C24.6005 27.5303 27.2603 28.9769 28.456 30.7189C29.3833 32.0721 31.8966 34.3274 27.6019 40.3623C24.991 44.0175 28.9196 45.9773 30.8473 46.1173C32.3602 46.2261 35.142 45.8217 36.5573 44.5308C38.5094 42.7576 38.4118 39.6779 36.7769 36.8782Z" fill="#A4A4A3"/>
<path d="M6.59251 42.7264C6.59251 42.7264 9.32548 43.3485 10.2527 44.2195C11.2044 45.0906 12.2537 43.8618 10.9116 43.2241C7.54417 41.5909 4.27436 42.2597 6.59251 42.7264Z" fill="#E9EAE9"/>
<path d="M9.25203 0.871125C7.47071 -0.606496 7.71473 2.34875 8.61759 4.52629C10.3501 8.60142 9.88647 12.0388 11.8874 16.1606C13.5223 19.5358 16.0113 22.4444 18.3782 23.3621C19.4275 23.7665 22.3801 23.9687 22.9169 22.8644C23.4293 21.8067 22.258 20.609 20.3791 20.2668C16.9629 19.6447 13.4979 13.532 12.6438 10.6079C11.8142 7.68374 11.6434 6.9527 11.1797 5.31954C10.6917 3.67083 10.1793 1.61771 9.25203 0.871125Z" fill="#DECB8E"/>
<path fill-rule="evenodd" clip-rule="evenodd" d="M7.61709 0L7.59269 0L7.56829 0C7.47069 0.0155539 7.37308 0.0155539 7.27547 0.0311078C3.85926 0.35774 3.0052 3.7796 3.0052 8.21246C2.9808 12.7231 3.88366 18.2447 3.88366 22.5998C3.88366 24.1863 3.76165 25.6173 3.42003 26.7838C2.932 28.7436 0.296631 33.4876 0.296631 37.2827C0.296631 38.8381 0.735859 40.2224 1.90713 41.2179C3.66404 42.6177 6.49462 42.5555 8.91038 43.6287C8.91038 43.6443 8.93478 43.6443 8.95918 43.6598C10.4233 44.3131 12.1558 45.8063 14.5715 45.8218H14.5959H14.6203C15.5964 45.8218 16.6945 45.573 17.9389 44.9197C17.9389 44.9041 17.9633 44.9041 17.9878 44.8886C19.2078 44.2509 20.2571 43.6598 21.6236 43.6443C21.648 43.6443 21.648 43.6443 21.648 43.6443C21.6724 43.6443 21.6724 43.6443 21.6724 43.6443C21.9652 43.6443 22.2824 43.6754 22.624 43.7376C22.6484 43.7376 22.6484 43.7376 22.6728 43.7531C22.6972 43.7531 22.7217 43.7531 22.7461 43.7687C22.7705 43.7687 22.7949 43.7687 22.8193 43.7843C22.9169 43.7998 23.0145 43.8309 23.1121 43.862C25.7474 44.6242 26.8211 46.4284 31.677 46.444C31.7014 46.444 31.7014 46.444 31.7014 46.444C31.8722 46.444 32.043 46.4284 32.2383 46.4284C32.2627 46.4284 32.3115 46.4284 32.3359 46.4284C34.9712 46.3195 38.1922 44.5775 38.8999 41.5912C39.0707 40.9068 39.1439 40.2535 39.1439 39.6158C39.1439 35.6496 36.2645 32.6943 35.6301 29.2413C34.3856 22.8331 35.3373 11.1677 24.1369 1.52428C24.0881 1.47762 24.0149 1.44651 23.9661 1.39985C22.9413 0.63771 21.9652 0.233309 21.1111 0.233309C21.1111 0.233309 21.1111 0.233309 21.0867 0.233309C21.0867 0.233309 21.0867 0.233309 21.0623 0.233309C19.8179 0.248863 18.8906 1.10433 18.5978 2.90858C18.5246 3.35964 18.5002 3.81071 18.5002 4.26177C18.5002 5.00836 18.5734 5.75495 18.671 6.50153C19.159 10.4678 20.0863 11.5566 20.2083 13.6719C20.2083 13.703 20.2083 13.9985 20.2083 14.5274C20.2083 15.4761 20.2327 17.1404 20.3791 19.1624C20.3791 19.5668 20.3303 19.8157 20.3059 19.9557H20.2815C20.2815 19.9712 20.2815 19.9712 20.2815 19.9712C20.2815 19.9712 20.2815 19.9712 20.2815 19.9868C20.2327 20.0956 20.2083 20.1268 20.1839 20.1268C19.2322 20.0645 16.8165 17.5604 16.2796 16.9693C16.2796 16.9693 16.2796 16.9538 16.2552 16.9538C15.3524 15.8805 14.5715 14.7451 14.0103 13.5786C11.9362 9.20791 11.4481 3.82626 9.78883 1.36874C9.78883 1.35319 9.78883 1.35319 9.78883 1.33764C9.3008 0.63771 8.73957 0.171093 8.03192 0.0466617C8.00752 0.0466617 8.00752 0.0466617 8.00752 0.0466617C7.88551 0.0155539 7.7391 0.0155539 7.61709 0ZM7.59269 0.171093C10.9357 0.217755 10.9357 7.65252 13.4979 13.4386V13.4541C13.5223 13.4852 13.5223 13.5163 13.5467 13.563C13.5467 13.5941 13.5711 13.6252 13.5955 13.6563C15.1572 16.9227 18.3538 20.0179 19.9155 20.4534C19.9643 20.4689 19.9887 20.4689 20.0375 20.4845C20.0863 20.4845 20.1351 20.4845 20.1595 20.4845C20.1839 20.4845 20.2083 20.4845 20.2327 20.4845C20.4035 20.4845 20.5499 20.4534 20.5255 20.4223C21.0135 20.1268 20.9647 19.5979 20.9647 19.1624C20.8915 17.7626 20.8671 16.5183 20.8671 15.585C20.8671 14.4029 20.9159 13.6719 20.9159 13.6408C20.8671 12.7387 19.2322 7.60586 19.2322 4.09068C19.2322 2.44196 19.5983 1.13544 20.6475 0.808803C20.7451 0.746588 20.9891 0.731034 21.2088 0.699926C21.8676 0.808803 22.3068 0.808803 23.5513 1.81981C36.5573 13.0653 32.4091 25.8195 37.1186 33.9386C38.0946 35.5873 38.8267 37.7649 38.8267 39.8491C38.8511 42.3066 37.8018 44.6242 34.898 45.7596C34.8492 45.7752 34.8004 45.7907 34.776 45.8063C34.7516 45.8218 34.7272 45.8218 34.7028 45.8374C33.6291 46.2573 32.5555 46.4284 31.5306 46.4284H31.5062C28.1388 46.4129 25.2106 44.5619 23.4781 43.862C23.4049 43.8309 23.3561 43.8154 23.3073 43.7843C23.2829 43.7843 23.2585 43.7687 23.2585 43.7687C23.2341 43.7687 23.2341 43.7687 23.2341 43.7531C23.1609 43.7376 23.1121 43.722 23.0633 43.7065C23.0633 43.7065 23.0389 43.6909 23.0145 43.6909C23.0145 43.6909 22.9901 43.6754 22.9657 43.6754C22.9657 43.6754 22.9413 43.6754 22.9169 43.6598H22.8925C22.4532 43.5509 22.014 43.5043 21.6236 43.5043C21.5992 43.5043 21.5992 43.5043 21.5748 43.5043C20.1839 43.5198 19.0858 44.1109 17.9145 44.7019C17.9145 44.7019 17.8901 44.7019 17.8901 44.7175C17.8657 44.7175 17.8413 44.733 17.8413 44.733C17.8169 44.7486 17.8169 44.7486 17.7925 44.7641L17.7681 44.7797C16.5725 45.3863 15.5476 45.6196 14.6203 45.6196C14.1323 45.6196 13.6687 45.5574 13.2294 45.433C11.6189 45.013 10.3501 43.9709 9.12999 43.4265C6.71424 42.3066 3.90806 42.3377 2.32196 41.0157C1.27269 40.1291 0.882268 38.8692 0.882268 37.4694C0.906669 33.8609 3.46883 29.2102 4.05447 26.846C4.39609 25.5551 4.5425 24.1086 4.5425 22.5687C4.5181 17.6226 3.15161 11.8521 3.15161 7.91694C3.15161 7.37255 3.17601 6.87483 3.24922 6.42376C3.51763 4.52619 4.32289 0.435509 7.29987 0.186647C7.39748 0.171093 7.49509 0.171093 7.56829 0.171093C7.59269 0.171093 7.59269 0.171093 7.59269 0.171093Z" fill="url(#paint2_linear_937_1793)"/>
<defs>
<linearGradient id="paint0_linear_937_1793" x1="2.94727" y1="14.9225" x2="35.5109" y2="14.9225" gradientUnits="userSpaceOnUse">
<stop stop-color="#FEFBF3"/>
<stop offset="1" stop-color="#EAB93A"/>
</linearGradient>
<linearGradient id="paint1_linear_937_1793" x1="0.608889" y1="36.6653" x2="38.9515" y2="36.6653" gradientUnits="userSpaceOnUse">
<stop stop-color="white"/>
<stop offset="0.180392" stop-color="white"/>
<stop offset="1" stop-color="#A4A4A3"/>
</linearGradient>
<linearGradient id="paint2_linear_937_1793" x1="0.302243" y1="23.222" x2="39.1383" y2="23.222" gradientUnits="userSpaceOnUse">
<stop stop-color="#E9E9E9"/>
<stop offset="1" stop-color="#A4A4A3"/>
</linearGradient>
</defs>
</svg>
