<svg width="37" height="63" viewBox="0 0 37 63" fill="none" xmlns="http://www.w3.org/2000/svg">
<path fill-rule="evenodd" clip-rule="evenodd" d="M11.1615 0.168945H11.1321C9.77931 0.187691 9.27935 0.562608 9.27935 1.19997C9.27935 2.68089 11.9262 5.56775 12.0144 8.51084C12.0144 8.6983 12.0144 8.88576 12.0144 9.05447C12.0144 14.6032 9.57345 16.1029 9.57345 23.62C9.57345 30.7434 8.27944 37.5669 6.51489 41.6347C13.6907 43.8655 23.2193 44.1842 29.7481 41.7847C29.6893 41.5598 29.6305 41.3536 29.6305 41.1286C28.8364 32.6555 28.5129 23.9012 26.3073 16.7778C25.3368 13.666 23.1899 10.0855 20.6901 7.06741C18.5138 4.42425 16.0729 2.17475 13.926 1.01251C12.9261 0.468879 11.985 0.168945 11.1615 0.168945Z" fill="url(#paint0_linear_937_1785)"/>
<path fill-rule="evenodd" clip-rule="evenodd" d="M6.01523 42.6845C4.07423 46.4899 0.574535 50.0891 0.603944 54.7569C0.603944 54.8506 0.603944 54.9443 0.603944 55.038C0.692171 58.6372 4.13304 59.1246 8.13269 60.3431C23.1902 64.9171 21.9256 61.6741 30.3954 60.6243C35.3656 60.0057 35.9538 58.9372 35.9538 57.2126C35.9538 56.9689 35.9538 56.7252 35.9244 56.4627C35.5126 48.2146 30.6013 45.159 29.7484 41.7847C23.2196 44.1842 13.691 43.8655 6.51519 41.6348C6.33873 42.0097 6.19169 42.3659 6.01523 42.6845Z" fill="url(#paint1_linear_937_1785)"/>
<path d="M24.8078 43.1345C24.6019 39.5541 24.5725 35.8049 23.9255 33.7241C22.6903 29.7125 23.9549 21.7455 23.8667 15.8593C23.7784 11.2478 19.3671 5.92403 15.6909 4.61182C14.2793 4.08694 15.1321 5.71783 16.5144 7.36746C17.926 8.99835 22.3962 11.7352 20.6023 18.9899C18.7495 26.6194 17.4555 37.6795 18.1319 42.4409C18.1613 42.7409 18.2201 43.0408 18.2789 43.3032C20.4552 43.6407 22.6315 43.3595 24.8078 43.1345Z" fill="#E4BB47"/>
<path d="M26.4548 51.3075C25.3373 49.6953 24.9843 46.4898 24.8079 43.1343C22.6316 43.3592 20.4553 43.6404 18.2791 43.303C19.2201 47.3521 22.1022 48.5331 21.8964 53.8381C21.6611 59.4994 19.1025 60.6991 21.6611 61.6364C24.2197 62.5925 29.0722 60.6804 31.9543 59.4619C34.8658 58.2247 28.7781 54.663 26.4548 51.3075Z" fill="#AFAFAD"/>
<path d="M3.6333 58.7493C5.8684 57.2309 10.6327 56.4249 13.6618 57.7183C17.5732 59.3117 19.7201 62.461 26.6901 61.205C22.2787 63.4171 18.2791 61.505 14.75 59.2367C12.8972 58.037 9.01518 56.4249 3.6333 58.7493Z" fill="#C2C0BE"/>
<path fill-rule="evenodd" clip-rule="evenodd" d="M19.8086 62.7611H19.838C19.838 62.7611 19.838 62.7611 19.8674 62.7611C22.3378 62.7611 24.0141 62.1237 26.1904 61.5238C26.2786 61.5051 26.3668 61.4863 26.4551 61.4676C26.4845 61.4489 26.5433 61.4301 26.5727 61.4301C26.955 61.3364 27.3373 61.2427 27.7196 61.1489C31.2782 60.2679 36.0424 60.8115 36.1895 57.3435C36.1895 57.306 36.1895 57.2685 36.1895 57.231C36.1895 47.5769 30.2194 44.9713 30.043 40.4535C28.7196 24.6883 28.9548 13.2908 17.3088 3.16805C14.6032 0.824817 12.3975 0 10.9564 0C10.28 0 9.75064 0.187458 9.45655 0.468646C9.22128 0.67485 9.07423 0.937292 9.07423 1.21848C9.36833 3.78666 11.8093 4.81768 11.8387 9.4479C11.8387 9.97279 11.8093 10.5539 11.7211 11.1725C11.2799 15.0904 9.36833 16.6838 9.30951 24.2759C8.9566 39.1788 4.4864 44.5401 2.98654 47.0521C1.78076 48.9829 0.310303 52.0197 0.310303 54.5691C0.339712 55.9938 0.780849 57.2498 1.92781 58.1121C3.42767 59.2368 13.9856 62.4611 18.9851 62.7423C19.0145 62.7423 19.0439 62.7423 19.0733 62.7423C19.338 62.7611 19.5733 62.7611 19.8086 62.7611ZM11.0446 0.318679C12.3092 0.356171 14.3385 1.1435 16.8383 3.393C25.4845 11.1538 26.808 19.327 27.602 25.3069C29.1901 37.1168 28.5431 41.1096 29.8959 43.3216C31.8369 46.6209 35.5131 49.8264 35.7483 57.3248C35.7483 60.5865 31.3076 60.1179 27.6608 61.0364C24.3964 61.7675 22.7789 62.6861 19.7792 62.6861C19.191 62.6861 18.5146 62.6486 17.7793 62.5736C16.6324 62.4424 15.2796 62.1987 13.6327 61.805C12.3387 61.4863 10.8388 61.0927 9.10364 60.5678C5.80982 59.5368 0.75144 58.8619 0.75144 54.5316C0.75144 52.7695 1.5749 50.4263 3.66295 47.2208C5.45691 44.3714 9.78005 39.4787 9.83887 24.2759C9.83887 24.0884 9.83887 23.9197 9.83887 23.7697C9.83887 23.601 9.83887 23.4323 9.83887 23.2636C9.89769 16.7588 11.5446 15.1091 12.0152 11.1913C12.7504 5.30507 9.75064 3.41174 9.54478 1.21848V1.19973C9.54478 0.712342 10.0447 0.318679 10.927 0.318679C10.9564 0.318679 10.9858 0.318679 11.0446 0.318679Z" fill="url(#paint2_linear_937_1785)"/>
<defs>
<linearGradient id="paint0_linear_937_1785" x1="6.51107" y1="21.8108" x2="29.7381" y2="21.8108" gradientUnits="userSpaceOnUse">
<stop stop-color="#FEFBF3"/>
<stop offset="1" stop-color="#EAB93A"/>
</linearGradient>
<linearGradient id="paint1_linear_937_1785" x1="0.59218" y1="52.1812" x2="35.9649" y2="52.1812" gradientUnits="userSpaceOnUse">
<stop stop-color="white"/>
<stop offset="0.180392" stop-color="white"/>
<stop offset="1" stop-color="#A4A4A3"/>
</linearGradient>
<linearGradient id="paint2_linear_937_1785" x1="0.323831" y1="31.3805" x2="36.176" y2="31.3805" gradientUnits="userSpaceOnUse">
<stop stop-color="#E9E9E9"/>
<stop offset="1" stop-color="#A4A4A3"/>
</linearGradient>
</defs>
</svg>
