<svg width="38" height="70" viewBox="0 0 38 70" fill="none" xmlns="http://www.w3.org/2000/svg">
<path fill-rule="evenodd" clip-rule="evenodd" d="M11.5525 42.9617C9.55731 43.6063 8.6827 44.5994 7.6441 45.5576C5.23891 48.9896 0.592529 54.1812 0.592529 59.3032C0.592529 64.1638 7.07013 65.575 9.7213 66.9861C12.3451 68.3799 17.9208 69.913 20.5993 69.9826C24.1251 70.0697 26.0383 68.7631 29.7007 67.2649C35.0577 65.0697 36.889 62.5959 36.889 60.0175C36.889 55.3833 31.04 50.453 29.5368 46.3764C28.7168 45.8015 27.8695 45.2962 26.9949 44.8607C23.7971 43.2753 20.2167 42.561 16.4996 42.561C14.887 42.561 13.2198 42.7004 11.5525 42.9617Z" fill="url(#paint0_linear_937_1776)"/>
<path fill-rule="evenodd" clip-rule="evenodd" d="M13.7944 13.3276C13.7944 13.3624 13.7944 13.4147 13.7671 13.4495C13.7671 13.5889 13.7671 13.7283 13.7397 13.8502C13.7124 14.2858 13.6851 14.6691 13.6851 15.0001C13.6851 15.1394 13.6851 15.244 13.6851 15.3659C13.6851 19.1116 12.2092 25.8537 11.3345 29.791C10.4599 33.6934 10.2959 40.4705 8.82004 43.6586C8.57405 44.1987 8.16408 44.8433 7.64478 45.5576C8.68338 44.5994 9.55799 43.6063 11.5532 42.9617C18.0035 41.9339 24.4264 42.7875 29.5374 46.3764C29.4281 46.0628 29.3188 45.7492 29.2641 45.4356C28.3895 40.9408 28.7448 27.8746 27.2142 22.1081C25.5743 16.0105 24.2624 15.3659 23.0872 11.1499C21.9119 6.93386 22.3492 0.365917 18.8234 0.278809H18.7961C15.9263 0.278809 14.2317 8.58891 13.7944 13.3276Z" fill="url(#paint1_linear_937_1776)"/>
<path d="M25.9837 27.8572C25.8197 23.345 23.7152 18.223 21.228 13.7457C19.4241 10.4704 21.5833 6.23697 19.5608 5.22652C17.7569 4.3206 18.5768 9.47739 18.7408 12.1081C18.9321 15.3136 21.0913 21.1324 21.6106 26.7422C22.1299 32.3345 20.1894 38.1882 19.8068 41.3938C19.7521 41.8293 19.7248 42.2648 19.7248 42.7004C21.2553 42.8746 22.8132 43.4495 24.3438 44.0593C24.0978 38.9722 26.093 31.6202 25.9837 27.8572Z" fill="#E4BB47"/>
<path d="M24.6993 46.5504C24.4807 45.8187 24.3987 44.965 24.344 44.0591C22.8134 43.4493 21.2555 42.8744 19.725 42.7002C19.5883 45.5922 21.9935 50.8012 20.3263 56.9685C19.0417 61.7594 19.5883 65.8883 21.0915 64.8779C28.3071 60.0695 30.6849 62.4911 30.8763 58.1183C31.0949 53.4493 25.8746 50.5748 24.6993 46.5504Z" fill="#AFAFAD"/>
<path d="M22.7864 68.8677C23.5517 70.1744 31.3139 67.1604 33.7191 65.2092C36.1516 63.258 35.6596 61.028 33.7191 60.8015C31.7785 60.5925 28.4987 62.1082 27.4055 64.0245C25.2463 67.805 22.2398 67.9618 22.7864 68.8677Z" fill="#A4A4A3"/>
<path d="M4.69261 64.3033C-0.500399 60.3311 9.42099 59.8085 14.0947 61.7249C16.6639 62.6482 18.5224 63.589 19.0144 65.0176C19.479 66.3242 18.5224 68.798 15.5979 68.4496C16.6365 68.3973 17.1558 68.3277 17.5658 67.6308C19.2057 64.9827 16.1992 63.8329 13.1108 62.6656C10.4869 61.5158 1.38549 60.1569 4.69261 64.3033Z" fill="#D2D3D2"/>
<path fill-rule="evenodd" clip-rule="evenodd" d="M18.714 0L18.6867 0C17.7847 0 17.0741 0.644599 16.4455 1.75958C13.9857 6.27178 13.3844 18.5017 11.6351 27.23C11.5805 27.4739 11.5258 27.7352 11.4711 27.9791V27.9965C11.4165 28.2578 11.3618 28.5192 11.3071 28.7805C10.1866 33.3101 10.1866 37.77 9.06595 41.8641C8.27333 45.8362 0.319824 52.7178 0.319824 58.6411C0.319824 61.2544 1.87773 63.676 6.25079 65.5749C6.27812 65.5923 6.30546 65.5923 6.33279 65.6098C6.33279 65.6098 6.36012 65.6098 6.36012 65.6272H6.38745C6.46945 65.662 6.57877 65.7143 6.6881 65.7491C6.6881 65.7666 6.6881 65.7666 6.71543 65.7666C6.77009 65.8014 6.85209 65.8188 6.93408 65.8537C6.98875 65.8885 7.07074 65.9233 7.15274 65.9582C10.5692 67.4216 16.0902 69.9826 20.9552 70H20.9826C21.7752 70 22.5678 69.9303 23.3057 69.7735C24.9183 69.4774 32.6532 66.2718 34.3477 65.0348C36.3429 63.5889 37.1082 61.9512 37.1082 60.2265C37.0809 55.4355 31.2319 49.9826 29.92 46.2892C29.4007 44.4077 29.346 42.3345 29.2094 40.2613C28.9634 36.0627 28.9087 31.6376 28.4441 27.0732C27.3782 16.2021 24.2624 17.4042 22.4858 6.09756C22.1851 4.25087 21.8298 1.89895 20.4633 0.731707C20.1353 0.470383 19.8346 0.296167 19.534 0.174216C19.2333 0.0522648 18.96 0 18.714 0ZM18.8234 0.43554C19.4793 0.452962 20.3266 0.905923 20.8732 2.07317C20.9006 2.12544 20.9279 2.1777 20.9552 2.21254C20.9552 2.22997 20.9552 2.24739 20.9552 2.24739C20.9826 2.26481 20.9826 2.28223 20.9826 2.28223C21.0099 2.33449 21.0099 2.38676 21.0372 2.43902C21.0645 2.47387 21.0645 2.50871 21.0919 2.54355C22.5405 6.44599 20.9279 7.59582 24.9456 16.7944C29.3187 26.6028 27.3235 40.784 29.1001 46.4112C30.9313 51.1672 36.5343 54.8258 36.5069 60.0174C36.5069 60.3833 36.4796 60.7666 36.4249 61.1498C35.9056 64.2857 33.7464 65.5226 29.8653 67.1254C28.4168 67.7352 27.1322 68.3798 25.8203 68.885C22.4038 70.2265 18.714 70.7143 10.9245 67.4913C4.91154 65 0.811794 63.1882 0.811794 59.1463C0.811794 56.5331 2.50636 52.9791 6.49678 47.7178C12.0451 40.2787 9.58525 38.4321 11.7991 28.8153C12.7011 24.2857 13.767 19.5819 13.8217 14.7735C13.9857 11.8641 15.1609 2.92683 18.0034 0.696864C18.0307 0.696864 18.0307 0.696864 18.0307 0.696864C18.0307 0.679443 18.0581 0.679443 18.0581 0.662021L18.0854 0.644599C18.2494 0.505226 18.4954 0.43554 18.796 0.43554H18.8234Z" fill="url(#paint2_linear_937_1776)"/>
<defs>
<linearGradient id="paint0_linear_937_1776" x1="0.597449" y1="56.2722" x2="36.8805" y2="56.2722" gradientUnits="userSpaceOnUse">
<stop stop-color="white"/>
<stop offset="0.180392" stop-color="white"/>
<stop offset="1" stop-color="#A4A4A3"/>
</linearGradient>
<linearGradient id="paint1_linear_937_1776" x1="7.65598" y1="23.326" x2="29.5385" y2="23.326" gradientUnits="userSpaceOnUse">
<stop stop-color="#FEFBF3"/>
<stop offset="1" stop-color="#EAB93A"/>
</linearGradient>
<linearGradient id="paint2_linear_937_1776" x1="0.323924" y1="35" x2="37.1039" y2="35" gradientUnits="userSpaceOnUse">
<stop stop-color="#E9E9E9"/>
<stop offset="1" stop-color="#A4A4A3"/>
</linearGradient>
</defs>
</svg>
