<svg width="37" height="79" viewBox="0 0 37 79" fill="none" xmlns="http://www.w3.org/2000/svg">
<path fill-rule="evenodd" clip-rule="evenodd" d="M11.0869 6.91707C11.0869 8.17304 11.0869 9.59772 11.0869 11.1536C11.0869 14.6216 10.9986 18.8019 10.3222 23.5821C8.26357 37.9977 10.1458 45.4585 7.76362 48.7953C7.35189 49.3764 6.91075 50.0325 6.49902 50.7448C11.7339 47.2769 17.0863 43.4902 24.0563 46.8082C27.1148 48.7578 30.144 51.4947 32.232 54.3815C32.1732 54.1003 32.1438 53.8192 32.1438 53.5192C31.8203 48.2891 31.8497 38.3726 29.2911 30.2369C27.2325 23.6946 23.2622 18.352 22.3212 12.5033C21.3801 6.65462 19.6449 0.206055 13.616 0.206055C11.3221 0.206055 11.0869 2.60552 11.0869 6.91707Z" fill="url(#paint0_linear_937_1767)"/>
<path fill-rule="evenodd" clip-rule="evenodd" d="M1.11694 65.1043V65.1606C1.11694 65.3106 1.11694 65.4793 1.14635 65.6292C1.44044 69.6596 5.88123 70.7656 8.73392 72.9776C11.5866 75.2084 16.145 78.0202 18.7036 78.0202C23.762 78.0202 24.7031 76.9142 27.8499 75.8082C34.4963 73.4837 36.4668 70.7094 36.4668 67.6725C36.4962 63.5672 32.8788 58.9932 32.2318 54.3817C30.1438 51.4949 27.1146 48.758 24.0561 46.8084C24.0267 46.8084 24.0267 46.7897 23.9973 46.7709C23.9679 46.7709 23.9679 46.7709 23.9385 46.7522C23.9385 46.7522 23.909 46.7334 23.8796 46.7334C23.8502 46.7147 23.8502 46.7147 23.8208 46.6959C23.7326 46.6584 23.6444 46.621 23.5561 46.5835C22.2915 46.0211 21.0564 45.7211 19.88 45.5899C19.4683 45.5524 19.0859 45.5337 18.7036 45.5337C14.1746 45.5337 10.2926 48.2331 6.49882 50.745C3.73436 55.2253 1.11694 61.4864 1.11694 65.1043Z" fill="url(#paint1_linear_937_1767)"/>
<path d="M27.3504 49.1139C27.0858 47.1456 27.0269 45.0085 27.2034 42.6091C27.6739 36.0105 26.7917 29.1683 24.8507 24.838C22.9391 20.5077 22.7038 15.2027 22.3215 12.5033C21.7039 8.02301 17.469 1.59319 17.1161 3.97391C16.7926 5.99846 18.2924 4.77998 18.7924 13.1406C19.2923 21.2013 22.645 34.0235 21.0863 45.9083C23.6743 46.452 25.7623 47.7267 27.3504 49.1139Z" fill="#E4BB47"/>
<path d="M30.7029 57.8868C28.909 55.3374 27.7914 52.5067 27.3503 49.1137C25.7622 47.7265 23.6742 46.4518 21.0861 45.9082C21.0273 46.3581 20.9685 46.8267 20.9097 47.2766C19.351 56.5933 26.321 59.6114 28.9678 65.0852C30.1736 67.5784 29.8501 71.1963 28.9384 71.9087C25.821 74.3644 28.909 74.5706 31.3499 73.4271C41.2608 68.7219 33.585 61.9546 30.7029 57.8868Z" fill="#AFAFAD"/>
<path d="M20.6746 65.0853C22.7039 62.6109 27.3505 66.0414 27.3505 69.097C27.3505 71.5714 25.3213 72.3962 26.5859 74.1021C27.8505 75.808 26.3212 76.3516 25.4683 76.689C24.6155 77.0452 20.6158 78.5074 18.7042 78.0575C16.7632 77.5888 16.3221 76.8952 18.7042 74.1021C21.057 71.309 19.4983 66.5288 20.6746 65.0853Z" fill="#C2C0BE"/>
<path d="M9.35181 61.7861C7.55785 61.0738 7.29317 65.0854 6.49912 66.6225C5.70508 68.1784 4.58753 69.7718 7.08731 71.2902C9.29299 72.6399 11.9692 71.6464 11.9104 69.3969C11.8516 67.1287 10.9987 62.4047 9.35181 61.7861Z" fill="#E9EAE9"/>
<path fill-rule="evenodd" clip-rule="evenodd" d="M13.7926 0L13.7632 0C12.8221 0 12.1751 0.337425 11.7634 0.974784C9.99881 3.58046 11.6457 11.2475 10.3517 21.7452C8.46953 35.5421 9.17535 34.6611 8.64599 43.8653C8.11662 50.4076 3.79347 51.5511 1.2937 61.9175C1.02901 63.1172 0.911377 64.1295 0.911377 64.9731C0.911377 69.3409 4.17579 69.8657 9.55767 73.6899C9.70471 73.8024 9.85176 73.9148 9.99881 74.0273C10.087 74.0836 10.1753 74.1398 10.2635 74.196C10.2929 74.2148 10.3223 74.2335 10.3517 74.271C10.3811 74.2898 10.4399 74.3085 10.4694 74.3273C10.5282 74.3647 10.5576 74.4022 10.6164 74.4397C10.7046 74.496 10.8223 74.5709 10.9105 74.6459C10.9399 74.6459 10.9693 74.6647 10.9693 74.6834C11.1164 74.7772 11.2634 74.8709 11.381 74.9459C11.4104 74.9834 11.4693 75.0021 11.4987 75.0209C11.5281 75.0583 11.5869 75.0771 11.6457 75.1146C15.263 77.4391 17.4099 77.9265 18.2628 78.0389C18.2628 78.0389 18.2628 78.0389 18.2922 78.0389C18.3216 78.0389 18.351 78.0389 18.3804 78.0389H18.4098L18.4392 78.0577C18.4686 78.0577 18.4981 78.0577 18.5275 78.0577C18.5275 78.0577 18.5275 78.0577 18.5569 78.0577C18.5863 78.0577 18.5863 78.0577 18.6157 78.0577C18.6745 78.0577 18.7039 78.0577 18.7039 78.0577C24.0564 78.0014 23.9387 77.1954 29.2618 75.377C34.9378 73.24 36.6729 70.5781 36.6729 67.635C36.6729 64.5982 34.8495 61.2614 33.5555 57.8309C32.2321 54.6629 32.7027 53.032 32.1733 44.9525C30.6734 23.2261 24.5857 23.5073 22.5565 11.6224C21.9095 8.21068 20.6449 2.11828 16.1747 0.487392C15.3807 0.206204 14.7337 0.0562375 14.1455 0C14.0279 0 13.9102 0 13.7926 0ZM13.8808 0.318679C14.4102 0.318679 15.0866 0.468646 15.91 0.768579C20.1156 2.32448 21.2625 8.41688 21.7919 11.6787C23.9093 25.738 29.8206 19.8518 31.5851 51.6823C31.7322 57.9434 36.2318 63.4547 36.2024 68.0287C36.2024 70.803 34.526 73.24 29.1736 75.2645C23.8505 77.1204 24.027 77.9077 18.7039 78.0014C18.7039 78.0014 16.8511 78.1327 12.7044 75.6395C11.8516 75.1146 10.8517 74.4772 9.76353 73.6711C9.73412 73.6524 9.70471 73.6337 9.70471 73.6149C5.44039 70.1844 1.41133 69.7345 1.38192 65.1418C1.38192 63.1735 2.14656 60.4366 3.94052 56.3875C8.02839 47.4457 8.9989 50.0139 9.41062 43.884C10.8517 9.31668 10.9105 31.418 11.2928 5.94243C11.381 3.01808 11.4104 0.318679 13.8514 0.318679H13.8808Z" fill="url(#paint2_linear_937_1767)"/>
<defs>
<linearGradient id="paint0_linear_937_1767" x1="6.49667" y1="27.287" x2="32.2212" y2="27.287" gradientUnits="userSpaceOnUse">
<stop stop-color="#FEFBF3"/>
<stop offset="1" stop-color="#EAB93A"/>
</linearGradient>
<linearGradient id="paint1_linear_937_1767" x1="1.11606" y1="61.7762" x2="36.4791" y2="61.7762" gradientUnits="userSpaceOnUse">
<stop stop-color="white"/>
<stop offset="0.180392" stop-color="white"/>
<stop offset="1" stop-color="#A4A4A3"/>
</linearGradient>
<linearGradient id="paint2_linear_937_1767" x1="0.908436" y1="39.0238" x2="36.6756" y2="39.0238" gradientUnits="userSpaceOnUse">
<stop stop-color="#E9E9E9"/>
<stop offset="1" stop-color="#A4A4A3"/>
</linearGradient>
</defs>
</svg>
