<svg width="33" height="74" viewBox="0 0 33 74" fill="none" xmlns="http://www.w3.org/2000/svg">
<path fill-rule="evenodd" clip-rule="evenodd" d="M5.8757 48.1762C5.61101 48.701 5.34633 49.2259 5.02283 49.6946C3.14064 52.4877 0.287955 57.2304 0.317364 62.7417C0.317364 63.3978 0.346773 64.0539 0.435001 64.7287C0.846729 67.9155 2.0525 69.9026 6.75797 71.3273C9.34598 72.1146 12.9633 72.9581 18.1099 73.2768C22.1684 73.5205 25.8739 73.2206 28.3443 72.2833C29.9324 71.6834 30.9323 70.7274 31.4323 69.7526C31.7558 69.134 31.9028 68.0092 31.9028 66.6221C31.9028 62.5917 30.697 56.3118 29.2266 53.2375C28.609 51.9628 28.109 50.6319 27.6973 49.2634C25.7269 48.3636 23.7271 47.67 21.6978 47.1639C19.4921 46.6015 17.2276 46.3203 15.0219 46.3203C11.9046 46.3203 8.81661 46.9014 5.8757 48.1762Z" fill="url(#paint0_linear_937_1758)"/>
<path fill-rule="evenodd" clip-rule="evenodd" d="M13.2876 0.899414H13.2582H13.2288C12.6994 0.899414 12.2877 0.974397 11.9642 1.10562C9.81729 2.00542 11.9936 5.58587 11.9936 8.56646C11.9936 12.0907 9.90552 25.6439 8.81738 30.949C7.81747 35.8042 8.34683 43.0401 5.87646 48.1764C12.8464 45.1208 20.581 46.0394 27.6981 49.2637C24.6395 38.916 26.6687 25.9251 22.1103 15.9336C19.5811 10.3848 18.1401 1.10562 13.5523 0.91816C13.5228 0.899414 13.464 0.899414 13.4346 0.899414H13.2876Z" fill="url(#paint1_linear_937_1758)"/>
<path d="M22.5805 47.0326C23.0217 47.145 23.4922 46.9763 23.551 46.6764C23.7863 45.0268 22.7864 42.5898 23.404 38.0533C24.3157 31.2486 20.9924 18.6701 19.7278 15.2584C18.4338 11.8466 16.2281 3.29853 14.9341 5.37932C14.1695 6.56031 18.9632 23.844 19.7278 29.4865C20.4336 34.8853 19.8749 40.9777 17.7574 45.5517C17.5221 45.9828 17.8751 46.114 18.7573 45.9641C20.2278 45.7204 21.1395 46.5827 22.5805 47.0326Z" fill="#E4BB47"/>
<path d="M29.9035 62.0294C29.433 55.1685 28.139 52.9002 25.551 49.6009C25.198 49.151 24.904 48.7949 24.7569 48.5324C24.5805 48.1575 24.1393 47.8763 23.5511 47.7076C21.9042 47.2765 20.1985 46.7891 18.5222 46.8828C18.1987 46.9015 17.9046 47.0515 17.8458 47.2577C16.8164 51.6067 21.7572 52.4878 25.3157 55.9183C30.4623 60.9047 27.6978 67.6907 25.845 70.0526C23.9923 72.3959 25.198 72.6583 27.5508 71.0462C28.9624 70.0714 30.1682 66.041 29.9035 62.0294Z" fill="#AFAFAD"/>
<path d="M8.43476 56.1434C9.43467 55.4498 11.1698 56.5558 10.7287 57.4744C10.3169 58.3554 5.87616 63.6417 6.90548 68.0658C7.31721 69.9216 3.96457 68.8343 5.37621 64.3353C6.78785 59.8176 5.87616 57.8868 8.43476 56.1434Z" fill="#E9EAE9"/>
<path d="M23.5512 57.6239C23.8747 55.768 25.6981 56.7803 26.2274 57.9426C26.7274 59.0861 29.1977 64.4474 25.7863 69.4338C24.5511 71.2709 23.4335 70.5773 24.6393 68.6652C26.2274 66.2095 25.8451 64.2599 25.6392 62.9102C25.2863 60.4358 23.3159 58.9548 23.5512 57.6239Z" fill="#D2D3D2"/>
<path fill-rule="evenodd" clip-rule="evenodd" d="M13.1987 0.692871C12.4341 0.692871 11.8165 0.917821 11.3754 1.25525C11.1107 1.4802 10.9342 1.74264 10.8754 2.02383C10.8754 2.04257 10.8754 2.06132 10.846 2.08006C10.8166 2.28627 10.7872 2.51122 10.7872 2.75491C10.7872 4.14211 11.493 5.90421 11.7283 7.76005C11.7283 8.00375 11.7577 8.28494 11.7577 8.58487C11.7577 13.74 9.61082 25.4749 8.75796 29.8239C7.19927 36.5912 8.258 43.8833 4.67009 49.5445C1.40567 54.4184 0.0234375 59.0487 0.0234375 62.7228C0.0234375 65.8721 1.02335 68.2904 2.75849 69.5463C2.7879 69.5651 2.81731 69.5838 2.84672 69.6026C2.84672 69.6213 2.84672 69.6213 2.87613 69.6213C5.52295 71.5334 13.6399 73.333 20.6099 73.3517C20.6393 73.3517 20.6687 73.3517 20.6981 73.3517C20.6981 73.3517 20.6981 73.3517 20.7275 73.3517C26.1976 73.3517 30.9619 72.227 31.7853 69.1902C31.7853 69.1527 31.7853 69.1152 31.8147 69.0777C32.0206 68.1966 32.0794 67.2593 32.0794 66.3033C32.0794 65.7784 32.0794 65.2723 32.05 64.7287C31.1971 52.4126 27.5504 52.3751 26.727 42.4211C26.4623 39.5717 26.5799 35.7288 25.58 28.7366C24.4919 21.5008 24.286 19.7761 19.1688 6.93524C18.6394 5.69801 18.1101 4.47953 17.3454 3.29854C17.2572 3.16732 17.169 3.0361 17.0808 2.92363C17.0219 2.86739 16.9925 2.8299 16.9631 2.77366C16.9631 2.75491 16.9337 2.75491 16.9337 2.73617C15.9338 1.4802 14.7868 0.899075 13.7869 0.730363C13.5811 0.711617 13.3752 0.692871 13.1987 0.692871ZM13.287 1.0303C14.3163 1.08653 15.5515 1.66765 16.6396 3.22356C16.6396 3.24231 16.669 3.24231 16.669 3.24231C16.669 3.26105 16.669 3.26105 16.669 3.2798C16.6984 3.29854 16.6984 3.31729 16.7278 3.33603C16.7278 3.35478 16.7278 3.37353 16.7573 3.39227C16.7573 3.41102 16.7867 3.42976 16.7867 3.42976C17.5219 4.59201 18.0218 5.81048 18.4924 7.02896C26.1682 27.2932 24.6095 31.0424 25.7565 42.4586C26.5799 50.5943 31.7853 58.6363 31.8147 66.1721C31.8147 67.1281 31.7265 68.0842 31.5207 69.0402C30.5501 74.1578 18.0218 73.9141 9.66964 72.002C9.64023 72.002 9.64023 72.002 9.61082 72.002C9.61082 71.9833 9.61082 71.9833 9.58142 71.9833C6.61109 71.2897 4.14072 70.3899 2.96435 69.4339C1.37626 68.2341 0.523393 66.0034 0.523393 63.2102C0.523393 59.4423 2.11149 54.6059 5.43472 49.7507C8.99323 44.3519 7.87568 36.5162 9.28732 29.8614C9.96373 26.0935 12.14 12.3903 12.14 8.17246C12.14 8.00375 12.14 7.87253 12.14 7.74131C11.9341 5.92296 11.2577 4.14211 11.2577 2.81115C11.2577 2.56745 11.2871 2.3425 11.346 2.1363C11.4342 1.55518 12.1694 1.04904 13.1399 1.0303H13.1693C13.1987 1.0303 13.2576 1.0303 13.287 1.0303Z" fill="url(#paint2_linear_937_1758)"/>
<defs>
<linearGradient id="paint0_linear_937_1758" x1="0.305012" y1="59.8327" x2="31.9013" y2="59.8327" gradientUnits="userSpaceOnUse">
<stop stop-color="white"/>
<stop offset="0.180392" stop-color="white"/>
<stop offset="1" stop-color="#A4A4A3"/>
</linearGradient>
<linearGradient id="paint1_linear_937_1758" x1="5.87441" y1="25.0795" x2="27.7042" y2="25.0795" gradientUnits="userSpaceOnUse">
<stop stop-color="#FEFBF3"/>
<stop offset="1" stop-color="#EAB93A"/>
</linearGradient>
<linearGradient id="paint2_linear_937_1758" x1="0.018732" y1="37.0184" x2="32.0838" y2="37.0184" gradientUnits="userSpaceOnUse">
<stop stop-color="#E9E9E9"/>
<stop offset="1" stop-color="#A4A4A3"/>
</linearGradient>
</defs>
</svg>
