<svg width="31" height="72" viewBox="0 0 31 72" fill="none" xmlns="http://www.w3.org/2000/svg">
<path fill-rule="evenodd" clip-rule="evenodd" d="M12.9571 43.5957H12.9277C12.4865 43.5957 12.016 43.6332 11.5748 43.6707C9.45738 43.8769 7.25169 44.533 4.92837 45.7702C4.86955 45.9577 4.81073 46.1451 4.7225 46.3138C2.84032 50.3442 0.781674 58.3112 0.60522 61.7417C0.57581 62.754 0.2229 64.1037 0.2229 65.4721C0.2229 68.8089 2.25213 72.3331 15.3098 71.6207C17.9566 71.4708 20.2799 71.5457 22.221 71.602C25.4266 71.7145 27.6911 71.8269 28.7792 71.0209C29.5438 70.4397 29.8673 68.4714 29.8673 66.0907C29.8673 63.0726 29.338 59.4172 28.4557 57.1115C27.4852 54.5433 26.1324 51.8439 24.956 48.7883C24.8972 48.7508 24.8678 48.7133 24.809 48.6758C21.5445 45.7327 17.5155 43.5957 12.9571 43.5957Z" fill="url(#paint0_linear_937_1750)"/>
<path fill-rule="evenodd" clip-rule="evenodd" d="M10.251 9.81626C4.83975 24.5317 7.66303 38.9098 4.92798 45.7708C12.9567 41.4592 19.8678 44.1586 24.9556 48.7889C24.2204 46.8955 23.544 44.8897 23.0734 42.6965C21.8088 36.9415 22.2794 24.5505 20.0737 16.5835C17.9856 9.08517 16.2799 0.349609 13.8978 0.349609C11.5156 0.349609 11.5156 6.40452 10.251 9.81626Z" fill="url(#paint1_linear_937_1750)"/>
<path d="M18.9854 33.0795C19.9853 24.4564 19.0737 17.6141 17.6032 13.3963C16.368 9.9096 14.6623 4.97944 14.0741 7.30393C13.3389 10.1158 17.9267 18.7389 16.3386 24.2314C14.427 30.8487 14.9564 35.9663 15.9857 42.7336C16.0151 43.1085 16.4268 43.4272 16.9562 43.5584C18.3973 43.9708 20.4559 44.9268 21.3382 45.5267C20.2206 42.5836 18.5443 36.8474 18.9854 33.0795Z" fill="#E4BB47"/>
<path d="M21.0154 46.2581C20.339 45.2083 16.5452 44.1585 16.5746 44.5147C16.9864 51.6569 22.8094 54.6749 24.9562 60.2799C26.5737 64.4978 27.5443 69.2217 21.0742 69.6341C20.0743 69.7091 17.9569 70.0653 20.0449 70.2902C25.6327 70.9088 27.7795 67.5721 27.8972 65.51C28.0736 62.7544 27.6325 56.3996 21.0154 46.2581Z" fill="#AFAFAD"/>
<path fill-rule="evenodd" clip-rule="evenodd" d="M13.8981 0.180664C13.7216 0.180664 13.5452 0.218156 13.3687 0.274393C11.6041 0.986735 11.2806 4.62343 10.8689 6.70422C10.2513 10.7346 7.33982 14.7837 6.48695 28.4306C4.81063 52.4816 5.57527 39.247 1.75208 53.7938C1.72267 53.925 1.69326 54.0562 1.66385 54.1874C-2.57107 70.2901 1.5168 71.6211 12.31 71.6211C12.3394 71.6211 12.3394 71.6211 12.3394 71.6211H12.3688C13.0452 71.6211 13.7804 71.6211 14.5157 71.6023C14.6921 71.6023 14.898 71.6023 15.0744 71.6023C15.2509 71.6023 15.4567 71.6023 15.6332 71.6023C16.4272 71.5836 17.2801 71.5836 18.133 71.5836C18.2212 71.5836 18.3388 71.5836 18.4271 71.5836C18.4859 71.5836 18.5741 71.5836 18.6329 71.5836C18.6623 71.5836 18.6623 71.5836 18.6623 71.5836H18.6918C19.5446 71.5836 20.3093 71.5836 21.0445 71.6023C21.6033 71.6211 22.1032 71.6398 22.5738 71.6586C22.6032 71.6586 22.6326 71.6586 22.662 71.6586C22.6914 71.6586 22.7502 71.6586 22.7796 71.6586C22.8384 71.6773 22.8679 71.6773 22.9267 71.6773C23.1619 71.6773 23.3972 71.696 23.6325 71.696C23.6619 71.696 23.6913 71.696 23.7207 71.696C24.3677 71.7335 24.9559 71.7523 25.4853 71.7523C25.5147 71.7523 25.5147 71.7523 25.5147 71.7523C25.5147 71.7523 25.5147 71.7523 25.5441 71.7523C29.1614 71.7335 30.1025 70.9275 30.0731 65.7161C30.0731 65.5099 30.0731 65.285 30.0731 65.06C29.7202 54.8248 26.0146 53.2501 23.6619 43.1086C21.6915 34.0169 23.956 23.313 16.8978 4.19227C16.8978 4.17353 16.8978 4.17353 16.8978 4.15478C16.8684 4.11729 16.8684 4.0798 16.839 4.04231C16.839 4.00482 16.8096 3.98607 16.8096 3.94858C16.339 2.74884 15.545 0.555581 14.2216 0.236902C14.1039 0.19941 14.0157 0.180664 13.8981 0.180664ZM13.9569 0.499343V0.518089L14.0451 0.536835C15.1332 0.818023 16.0449 3.55492 16.3096 4.26726C22.4855 22.0196 20.8974 34.8417 22.6914 43.2024C24.9265 52.9689 28.9261 54.5061 29.632 65.0788C30.0143 72.4834 28.485 71.6773 21.5444 71.5461C6.39872 71.1337 0.487483 72.4271 0.487483 64.9663C0.487483 63.4479 0.752165 61.5545 1.22271 59.1926C5.10472 38.6471 5.60468 56.4932 7.01632 28.4306C7.72214 13.7714 10.516 11.2782 11.2806 6.72296C11.7218 4.66092 12.1041 0.799277 13.9569 0.499343Z" fill="url(#paint2_linear_937_1750)"/>
<defs>
<linearGradient id="paint0_linear_937_1750" x1="0.223783" y1="57.6575" x2="29.8712" y2="57.6575" gradientUnits="userSpaceOnUse">
<stop stop-color="white"/>
<stop offset="0.180392" stop-color="white"/>
<stop offset="1" stop-color="#A4A4A3"/>
</linearGradient>
<linearGradient id="paint1_linear_937_1750" x1="5.13708" y1="24.5679" x2="24.753" y2="24.5679" gradientUnits="userSpaceOnUse">
<stop stop-color="#FEFBF3"/>
<stop offset="1" stop-color="#EAB93A"/>
</linearGradient>
<linearGradient id="paint2_linear_937_1750" x1="2.12146" y1="35.9665" x2="27.9686" y2="35.9665" gradientUnits="userSpaceOnUse">
<stop stop-color="#E9E9E9"/>
<stop offset="1" stop-color="#A4A4A3"/>
</linearGradient>
</defs>
</svg>
