<svg width="26" height="67" viewBox="0 0 26 67" fill="none" xmlns="http://www.w3.org/2000/svg">
<path fill-rule="evenodd" clip-rule="evenodd" d="M14.8179 40.7163H14.7926C12.9415 40.7163 11.192 41.146 9.56915 41.885C7.69277 42.7444 5.96854 43.999 4.44716 45.4771C3.43291 48.2785 2.26651 50.7534 1.42975 53.108C0.669061 55.222 0.212646 58.5734 0.212646 61.3405C0.212646 63.5232 0.491567 65.3278 1.15083 65.8606C1.75938 66.3418 2.799 66.4621 4.21895 66.4621C4.24431 66.4621 4.24431 66.4621 4.24431 66.4621C4.26967 66.4621 4.26967 66.4621 4.26967 66.4621C4.77679 66.4621 5.28392 66.4621 5.86712 66.4278C6.17139 66.4278 6.47567 66.4106 6.8053 66.3934C6.83066 66.3934 6.88137 66.3934 6.90673 66.3934C7.81956 66.359 8.83381 66.3246 9.92414 66.3246H9.94949H9.97485C10.837 66.3246 11.7751 66.359 12.764 66.4106C13.7529 66.4621 14.6658 66.4965 15.5279 66.4965C28.1047 66.4965 25.6451 60.5155 25.4422 57.5078C25.4422 57.4563 25.4422 57.4047 25.4422 57.3531C25.2901 54.2079 23.5151 46.9036 21.8923 43.2084C21.8163 43.0537 21.7656 42.8818 21.7148 42.71C20.0667 41.7819 18.4946 41.1975 16.9732 40.9226C16.9478 40.9226 16.9478 40.9226 16.9225 40.9226C16.9225 40.9226 16.9225 40.9226 16.9225 40.9054C16.8971 40.9054 16.8971 40.9054 16.8718 40.9054C16.8464 40.9054 16.8464 40.9054 16.8211 40.8882C16.7957 40.8882 16.7957 40.8882 16.7704 40.8882C16.745 40.8882 16.7196 40.8882 16.7196 40.871C16.6943 40.871 16.6943 40.871 16.6689 40.871C16.6689 40.871 16.6689 40.871 16.6436 40.871C16.6436 40.871 16.6436 40.871 16.6182 40.871C16.6182 40.871 16.6182 40.8538 16.5929 40.8538H16.5675C16.5675 40.8538 16.5675 40.8538 16.5421 40.8538H16.5168C16.4914 40.8538 16.4914 40.8538 16.4914 40.8538C16.4914 40.8366 16.4661 40.8366 16.4661 40.8366C16.4407 40.8366 16.4407 40.8366 16.4407 40.8366C16.4407 40.8366 16.4154 40.8366 16.39 40.8366C15.8575 40.7679 15.325 40.7163 14.8179 40.7163Z" fill="url(#paint0_linear_937_1741)"/>
<path fill-rule="evenodd" clip-rule="evenodd" d="M8.65618 15.9502C6.75445 23.2546 7.16015 34.615 6.06983 39.8914C5.66413 41.9023 5.08093 43.7412 4.44702 45.4771C4.47238 45.4599 4.49773 45.4427 4.49773 45.4255C4.52309 45.4084 4.52309 45.4084 4.52309 45.4084C4.54845 45.3912 4.54845 45.374 4.5738 45.3568C4.62452 45.3052 4.70059 45.2537 4.7513 45.1849C7.5405 42.6069 10.9129 40.7335 14.7417 40.7164C14.7671 40.7164 14.7671 40.7164 14.7924 40.7164C14.7924 40.7164 14.8178 40.7164 14.8431 40.7164C16.9224 40.7335 19.1537 41.2835 21.4865 42.5897C21.5626 42.6241 21.6386 42.6585 21.7147 42.71C19.3566 36.4197 21.7908 23.2374 17.1252 9.74574C16.0349 6.61774 16.0349 1.06641 13.981 1.06641C11.9271 1.06641 10.4565 9.07546 8.65618 15.9502Z" fill="url(#paint1_linear_937_1741)"/>
<path d="M18.2917 31.0743C19.1285 23.1684 18.3424 16.8952 17.0746 13.0281C16.035 9.8314 14.5643 5.31127 14.0319 7.44244C13.398 10.0205 17.3789 17.9264 15.9843 22.9621C14.3361 29.0291 14.8179 32.6039 15.68 38.8255C15.7307 39.1521 16.0604 39.4443 16.5168 39.5818C17.7592 39.9427 19.5342 40.8364 20.2949 41.3692C19.3313 38.6709 17.9114 34.5288 18.2917 31.0743Z" fill="#E4BB47"/>
<path d="M20.016 43.1567C19.4328 42.1942 16.6943 41.5927 16.1872 41.5583C8.68173 41.1114 22.146 46.5425 22.577 55.9265C22.7545 59.9138 21.6895 66.4964 23.4898 63.3855C24.3266 61.9247 25.7466 52.4547 20.016 43.1567Z" fill="#AFAFAD"/>
<path d="M14.3359 48.9147C13.0934 48.76 17.6576 50.3584 18.114 52.0427C18.3168 52.8676 20.6496 57.6112 19.7622 61.6673C19.4072 63.3688 21.3089 61.2892 20.7511 57.0956C19.8129 50.1006 15.8319 49.0865 14.3359 48.9147Z" fill="#E9EAE9"/>
<path fill-rule="evenodd" clip-rule="evenodd" d="M12.764 48.7939C8.75769 48.7939 3.96533 50.9423 3.96533 56.3218C3.96533 56.339 3.96533 56.3561 3.96533 56.3733C3.96533 58.1436 4.42175 59.2779 4.42175 59.2779C4.42175 59.1748 4.42175 59.0545 4.42175 58.9513C4.42175 52.0251 8.98589 49.7736 12.8401 49.7564C12.8654 49.7564 12.8654 49.7564 12.8908 49.7564C12.8908 49.7564 12.8908 49.7564 12.9161 49.7564C15.4518 49.7564 17.6831 50.7361 18.0888 51.9735C18.0888 51.9907 18.0888 52.0251 18.1142 52.0423C18.241 51.1314 17.7846 50.3751 16.9478 49.8252C16.9478 49.8252 16.9478 49.8252 16.9224 49.808C16.9224 49.808 16.9224 49.808 16.9224 49.7908C16.8971 49.7908 16.8971 49.7908 16.8971 49.7908C16.2885 49.3955 15.4771 49.1033 14.5389 48.9314C13.9811 48.8455 13.3979 48.7939 12.764 48.7939Z" fill="url(#paint2_linear_937_1741)"/>
<path fill-rule="evenodd" clip-rule="evenodd" d="M11.3949 4.5896C5.30941 22.1201 7.26185 31.9338 5.56298 40.2694C3.53447 49.5675 0.339565 51.0112 0.0352888 60.3951C0.0352888 60.4811 0.0352888 60.567 0.0352888 60.653C-0.0154239 65.7231 0.745267 66.5137 3.94017 66.5308C3.96553 66.5308 3.96553 66.5308 3.96553 66.5308C3.96553 66.5308 3.96553 66.5308 3.99088 66.5308C4.42194 66.5308 4.92907 66.5137 5.48691 66.4793C5.51226 66.4793 5.56298 66.4793 5.58833 66.4793C5.79118 66.4793 5.99403 66.4621 6.19689 66.4621C6.2476 66.4621 6.27295 66.4621 6.32367 66.4449C6.34902 66.4449 6.39974 66.4449 6.42509 66.4449C6.45045 66.4449 6.47581 66.4449 6.50116 66.4449C6.85615 66.4277 7.26185 66.4105 7.66755 66.4105C8.32682 66.3762 9.0368 66.3762 9.82285 66.3762C9.8482 66.3762 9.8482 66.3762 9.87356 66.3762C9.92427 66.3762 9.94963 66.3762 9.97498 66.3762C10.1018 66.3762 10.2032 66.3762 10.33 66.3762C11.0653 66.3762 11.7753 66.3762 12.4599 66.3933C12.6374 66.3933 12.7895 66.3933 12.967 66.3933C13.1192 66.3933 13.2713 66.3933 13.4234 66.3933C14.0827 66.4105 14.7166 66.4105 15.2998 66.4105H15.3252C15.3252 66.4105 15.3252 66.4105 15.3505 66.4105C24.631 66.4105 28.1555 65.1903 24.5802 50.5987C24.5295 50.4268 24.4788 50.2549 24.4281 50.0659C21.1571 36.7289 21.8164 48.8628 20.3711 26.8121C19.6358 14.3001 17.1255 10.5878 16.593 6.89263C16.238 4.98489 15.9591 1.65065 14.4377 0.997555C14.2856 0.945995 14.1334 0.911621 13.9813 0.911621C12.612 0.911621 11.826 3.45527 11.3949 4.5896ZM13.9306 1.2038C15.528 1.47879 15.8577 5.01927 16.238 6.90982C16.8973 11.0862 19.3061 13.3721 19.9147 26.8121C21.1318 52.5408 21.5628 36.1789 24.9099 55.0157C25.3156 57.1812 25.5438 58.9171 25.5438 60.3092C25.5438 67.1496 20.4472 65.9637 7.38863 66.3418C4.47265 66.3933 2.64699 66.5996 1.60738 66.0152C0.51706 65.3965 0.23814 63.9013 0.415634 60.4639C0.415634 60.4467 0.415634 60.4295 0.415634 60.4123C1.02419 50.719 4.47265 49.3097 6.39974 40.3553C7.94647 32.69 6.57723 20.9342 11.9021 4.65834C12.1303 4.00525 12.9163 1.49597 13.8545 1.23817L13.9306 1.22098V1.2038Z" fill="url(#paint3_linear_937_1741)"/>
<defs>
<linearGradient id="paint0_linear_937_1741" x1="23.7256" y1="53.6086" x2="2.25485" y2="53.6086" gradientUnits="userSpaceOnUse">
<stop stop-color="#A4A4A3"/>
<stop offset="0.819608" stop-color="white"/>
<stop offset="1" stop-color="white"/>
</linearGradient>
<linearGradient id="paint1_linear_937_1741" x1="21.5344" y1="23.2706" x2="4.62021" y2="23.2706" gradientUnits="userSpaceOnUse">
<stop stop-color="#EAB93A"/>
<stop offset="1" stop-color="#FEFBF3"/>
</linearGradient>
<linearGradient id="paint2_linear_937_1741" x1="3.9633" y1="54.0347" x2="18.1261" y2="54.0347" gradientUnits="userSpaceOnUse">
<stop stop-color="#E9E9E9"/>
<stop offset="1" stop-color="#A4A4A3"/>
</linearGradient>
<linearGradient id="paint3_linear_937_1741" x1="24.3941" y1="33.7212" x2="1.59065" y2="33.7212" gradientUnits="userSpaceOnUse">
<stop stop-color="#A4A4A3"/>
<stop offset="1" stop-color="#E9E9E9"/>
</linearGradient>
</defs>
</svg>
