<svg width="31" height="66" viewBox="0 0 31 66" fill="none" xmlns="http://www.w3.org/2000/svg">
<path d="M5.00001 48.0914C5.00001 49.0691 6.60343 49.8009 7.94852 50.2425C9.93354 50.8946 12.4378 51.2536 15 51.2536C17.5621 51.2536 20.0664 50.8946 22.0514 50.2426C23.3965 49.801 25 49.0691 25 48.0915C25 48.0352 25 45.7697 25 45.7697C25 44.9693 24.493 44.3181 23.8699 44.3181C23.8699 44.3181 23.116 44.3181 22.8648 44.3181C22.4881 44.3181 22.3034 43.9151 22.3034 43.9151L19.3373 37.085C19.1672 36.6932 19.0181 35.9562 19.0181 35.5078L19.0181 31.7922C19.0181 31.1328 18.6766 30.6541 18.2062 30.6541L18.2061 30.6541C18.0726 30.6541 17.936 30.6927 17.8001 30.7691L11.8979 34.0865C11.3757 34.3799 10.982 35.0722 10.982 35.6966C10.982 36.0444 10.8329 36.6931 10.6627 37.0849L7.65576 44.009C7.65576 44.009 7.50516 44.318 7.24147 44.318C6.96362 44.318 6.13016 44.318 6.13016 44.318C5.50703 44.318 5.00008 44.9692 5.00008 45.7696C5.00008 45.7696 5.00001 48.0351 5.00001 48.0914Z" fill="#333232"/>
<path d="M11.7937 17.2198C11.9273 17.2198 12.0639 17.1812 12.1997 17.1049L18.1019 13.7874C18.6155 13.4989 19.0178 12.7086 19.0178 11.9886L19.0178 10.1408C19.0178 9.48146 18.6764 9.00274 18.206 9.00274C18.0725 9.00274 17.9357 9.04135 17.7999 9.1178L11.8977 12.4353C11.3841 12.7238 10.9818 13.514 10.9818 14.2341L10.9818 16.0818C10.9819 16.7412 11.3233 17.2198 11.7937 17.2198Z" fill="#333232"/>
<path d="M11.7937 24.437C11.9273 24.437 12.0639 24.3983 12.1997 24.322L18.1019 21.0045C18.6155 20.716 19.0178 19.9257 19.0178 19.2057L19.0178 17.3579C19.0178 16.6985 18.6764 16.2198 18.206 16.2198C18.0725 16.2198 17.9357 16.2585 17.7999 16.3349L11.8977 19.6524C11.3841 19.941 10.9818 20.7312 10.9818 21.4512L10.9818 23.2989C10.9819 23.9583 11.3233 24.437 11.7937 24.437Z" fill="#333232"/>
<path d="M11.7937 10.0028C11.9273 10.0028 12.0639 9.96419 12.1997 9.88775L18.1019 6.57029C18.5578 6.31404 19.0178 5.81838 19.0178 5.28876C19.0178 4.84333 18.6881 4.20939 18.3818 3.80906L15.7966 0.429369C15.5847 0.15251 15.3018 2.53615e-06 14.9999 2.50976e-06C14.698 2.48337e-06 14.415 0.15251 14.2032 0.429466L11.6179 3.80896C11.2553 4.28294 10.9819 5.14157 10.9819 5.80609L10.9819 8.86479C10.9819 9.52418 11.3233 10.0028 11.7937 10.0028Z" fill="#333232"/>
<path d="M11.7937 31.6541C11.9273 31.6541 12.0639 31.6155 12.1997 31.5392L18.1019 28.2217C18.6155 27.9331 19.0178 27.1429 19.0178 26.4228L19.0178 24.5751C19.0178 23.9157 18.6764 23.437 18.206 23.437C18.0725 23.437 17.9357 23.4756 17.7999 23.5521L11.8977 26.8695C11.3841 27.1581 10.9818 27.9483 10.9818 28.6684L10.9818 30.5161C10.9819 31.1755 11.3233 31.6541 11.7937 31.6541Z" fill="#333232"/>
<path fill-rule="evenodd" clip-rule="evenodd" d="M13.8995 65.1491H13.9248H13.9755C16.0041 65.1491 18.7679 64.6335 23.4335 63.1554C23.4335 63.1554 23.4335 63.1554 23.4588 63.1383C23.6363 63.0867 23.8392 63.018 24.0167 62.9664C27.4651 61.8493 30.4318 61.4024 30.5079 58.1025C30.5079 58.0166 30.5079 57.9307 30.5079 57.8447C30.5332 53.5652 27.5158 50.2653 25.8423 46.7764C25.6902 46.4843 25.5634 46.1577 25.4113 45.814C25.3605 45.8312 25.2845 45.8483 25.2338 45.8827C25.2084 45.8827 25.1831 45.8827 25.1577 45.8999C21.9882 46.9139 18.2861 47.4811 14.6855 47.4811C14.6855 47.4811 14.6855 47.4811 14.6602 47.4811C11.4653 47.4811 8.37179 47.0342 5.76008 46.089C5.73472 46.0718 5.68401 46.0546 5.65865 46.0374C5.55723 46.003 5.48116 45.9858 5.37973 45.9515C4.6444 49.0451 0.409887 51.8465 0.0548974 59.4087C0.029541 59.6493 0.029541 59.8728 0.029541 60.0962C0.029541 61.6774 0.536668 62.657 4.82189 63.2242C4.84725 63.2242 4.87261 63.2242 4.89796 63.2414C5.0501 63.2586 5.17688 63.2758 5.30367 63.2929C5.4558 63.3101 5.58258 63.3273 5.70937 63.3617C5.73472 63.3617 5.76008 63.3617 5.78544 63.3617C5.81079 63.3789 5.83615 63.3789 5.86151 63.3789C6.34328 63.4648 6.77433 63.5507 7.18004 63.6539C7.18004 63.6539 7.20539 63.6711 7.23075 63.6711C7.28146 63.6711 7.33217 63.6882 7.38289 63.7054C7.38289 63.7054 7.40824 63.7054 7.4336 63.7226C9.96924 64.3585 11.3638 65.1491 13.8995 65.1491Z" fill="url(#paint0_linear_936_2168)"/>
<path d="M21.6841 52.5859C20.1373 49.9219 21.8362 49.8532 21.6841 46.7939C19.8077 47.0002 15.9535 47.6533 14.0771 47.3439C14.8632 51.0563 18.5906 49.6985 17.0185 54.4421C15.3957 59.2716 17.6524 60.8012 19.1231 59.6669C20.7966 58.3435 28.9867 61.4543 29.7981 59.5122C32.0548 54.0812 23.4844 55.7311 21.6841 52.5859Z" fill="#AFAFAD"/>
<path d="M27.896 61.5054C25.9689 60.1132 21.8612 59.3742 19.2495 60.5601C15.8771 62.021 14.0261 64.9084 8.0166 63.7568C11.8201 65.7849 15.2685 64.0318 18.3113 61.9522C19.9087 60.8523 23.2558 59.3742 27.896 61.5054Z" fill="#C2C0BE"/>
<defs>
<linearGradient id="paint0_linear_936_2168" x1="30.519" y1="55.4834" x2="0.0219336" y2="55.4834" gradientUnits="userSpaceOnUse">
<stop stop-color="#A4A4A3"/>
<stop offset="0.819608" stop-color="white"/>
<stop offset="1" stop-color="white"/>
</linearGradient>
</defs>
</svg>
