<svg width="39" height="63" viewBox="0 0 39 63" fill="none" xmlns="http://www.w3.org/2000/svg">
<path d="M2 48.0912C2 49.0689 4.806 49.8007 7.15991 50.2424C10.6337 50.8944 15.0161 51.2534 19.4999 51.2534C23.9838 51.2534 28.3662 50.8944 31.84 50.2425C34.1939 49.8008 37 49.0689 37 48.0913C37 48.035 37 45.7695 37 45.7695C37 44.9691 36.1128 44.3179 35.0224 44.3179C35.0224 44.3179 33.703 44.3179 33.2633 44.3179C32.6041 44.3179 32.281 43.9149 32.281 43.9149L27.0904 37.0848C26.7927 36.693 26.5316 35.956 26.5316 35.5076L26.5316 31.792C26.5316 31.1327 25.9341 30.6539 25.1109 30.6539L25.1107 30.6539C24.8771 30.6539 24.638 30.6925 24.4002 30.7689L14.0713 34.0864C13.1575 34.3798 12.4685 35.0721 12.4685 35.6964C12.4685 36.0442 12.2075 36.6929 11.9098 37.0847L6.64757 44.0088C6.64757 44.0088 6.38401 44.3178 5.92257 44.3178C5.43633 44.3178 3.97777 44.3178 3.97777 44.3178C2.8873 44.3178 2.00013 44.969 2.00013 45.7694C2.00013 45.7694 2 48.0349 2 48.0912Z" fill="#333232"/>
<path d="M13.8888 17.2198C14.1226 17.2198 14.3616 17.1812 14.5993 17.1049L24.9282 13.7874C25.827 13.4989 26.531 12.7086 26.531 11.9886L26.531 10.1408C26.531 9.48146 25.9335 9.00274 25.1103 9.00274C24.8767 9.00274 24.6374 9.04135 24.3996 9.1178L14.0707 12.4353C13.172 12.7238 12.4679 13.514 12.4679 14.2341L12.4679 16.0818C12.4681 16.7412 13.0656 17.2198 13.8888 17.2198Z" fill="#333232"/>
<path d="M13.8888 24.4369C14.1226 24.4369 14.3616 24.3983 14.5993 24.322L24.9282 21.0045C25.827 20.716 26.531 19.9257 26.531 19.2057L26.531 17.3579C26.531 16.6985 25.9335 16.2198 25.1103 16.2198C24.8767 16.2198 24.6374 16.2585 24.3996 16.3349L14.0707 19.6524C13.172 19.941 12.4679 20.7311 12.4679 21.4512L12.4679 23.2989C12.4681 23.9583 13.0656 24.4369 13.8888 24.4369Z" fill="#333232"/>
<path d="M13.8888 10.0028C14.1226 10.0028 14.3616 9.96419 14.5993 9.88774L24.9282 6.57029C25.726 6.31404 26.531 5.81838 26.531 5.28876C26.531 4.84333 25.9541 4.20939 25.418 3.80906L20.8938 0.429368C20.5231 0.15251 20.0279 2.47193e-06 19.4996 2.42574e-06C18.9713 2.37956e-06 18.4761 0.15251 18.1054 0.429466L13.5812 3.80896C12.9467 4.28294 12.4682 5.14157 12.4682 5.80609L12.4682 8.86479C12.4681 9.52418 13.0656 10.0028 13.8888 10.0028Z" fill="#333232"/>
<path d="M13.8888 31.6541C14.1226 31.6541 14.3616 31.6155 14.5993 31.5392L24.9282 28.2217C25.827 27.9331 26.531 27.1429 26.531 26.4228L26.531 24.5751C26.531 23.9157 25.9335 23.437 25.1103 23.437C24.8767 23.437 24.6374 23.4756 24.3996 23.5521L14.0707 26.8695C13.172 27.1581 12.4679 27.9483 12.4679 28.6684L12.4679 30.5161C12.4681 31.1755 13.0656 31.6541 13.8888 31.6541Z" fill="#333232"/>
<path fill-rule="evenodd" clip-rule="evenodd" d="M2.15956 47.3875L2.10777 47.5196C0.994214 50.0121 0.528076 52.1745 0.528076 54.0398C0.528076 59.6191 4.64563 62.4088 7.57194 62.4088C11.301 62.4088 9.25521 60.5435 14.9266 60.9727C19.4067 61.3193 24.5083 62.4088 28.3151 60.8736C32.096 59.3715 36.6537 61.2368 38.3629 56.0701C38.6996 55.0962 38.8291 54.0728 38.8291 53.0989C38.8291 49.5004 37.1199 46.2486 37.1199 46.2486C37.1458 46.1165 37.1458 45.9679 37.1458 45.8029C37.1458 45.7203 37.1458 45.6543 37.1458 45.5718C27.072 50.0616 11.8967 51.0851 2.15956 47.3875Z" fill="url(#paint0_linear_936_2159)"/>
<path d="M38.3627 53.33C36.9643 51.8939 36.1356 53.33 34.4265 52.8678C33.9862 52.7522 30.8527 51.9434 32.4583 49.649C33.8049 47.7177 32.1994 47.437 31.034 47.7672C30.0499 48.0478 29.0659 48.2624 27.9005 48.477C27.6675 50.7219 27.2531 52.3396 26.8388 53.33C25.6475 56.1031 20.7013 63.5972 27.5121 60.2298C29.6615 59.1734 34.6336 59.9822 35.9285 58.8763C37.301 57.6713 39.1655 54.1553 38.3627 53.33Z" fill="#AFAFAD"/>
<path d="M14.3827 60.5931C10.2651 61.0058 11.1197 61.5835 9.35876 62.1612C7.67548 62.706 5.96631 61.3689 8.63365 60.1639C11.6635 58.8103 16.2731 60.395 14.3827 60.5931Z" fill="#E9EAE9"/>
<defs>
<linearGradient id="paint0_linear_936_2159" x1="0.52963" y1="53.9889" x2="38.8241" y2="53.9889" gradientUnits="userSpaceOnUse">
<stop stop-color="white"/>
<stop offset="0.180392" stop-color="white"/>
<stop offset="1" stop-color="#A4A4A3"/>
</linearGradient>
</defs>
</svg>
