<svg width="41" height="67" viewBox="0 0 41 67" fill="none" xmlns="http://www.w3.org/2000/svg">
<path d="M4.00001 48.0914C4.00001 49.0691 6.72583 49.8009 9.01248 50.2425C12.387 50.8946 16.6442 51.2536 20.9999 51.2536C25.3556 51.2536 29.6129 50.8946 32.9874 50.2426C35.274 49.801 38 49.0691 38 48.0915C38 48.0352 38 45.7697 38 45.7697C38 44.9693 37.1382 44.3181 36.0789 44.3181C36.0789 44.3181 34.7972 44.3181 34.3701 44.3181C33.7297 44.3181 33.4158 43.9151 33.4158 43.9151L28.3735 37.085C28.0843 36.6932 27.8307 35.9562 27.8307 35.5078L27.8307 31.7922C27.8307 31.1328 27.2503 30.6541 26.4506 30.6541L26.4504 30.6541C26.2235 30.6541 25.9912 30.6927 25.7602 30.7691L15.7264 34.0865C14.8388 34.3799 14.1694 35.0722 14.1694 35.6966C14.1694 36.0444 13.9158 36.6931 13.6267 37.0849L8.51479 44.009C8.51479 44.009 8.25876 44.318 7.8105 44.318C7.33816 44.318 5.92127 44.318 5.92127 44.318C4.86195 44.318 4.00013 44.9692 4.00013 45.7696C4.00013 45.7696 4.00001 48.0351 4.00001 48.0914Z" fill="#333232"/>
<path d="M15.5493 17.2198C15.7764 17.2198 16.0086 17.1812 16.2395 17.1049L26.2733 13.7874C27.1464 13.4989 27.8303 12.7086 27.8303 11.9886L27.8303 10.1408C27.8303 9.48146 27.2499 9.00274 26.4502 9.00274C26.2232 9.00274 25.9908 9.04135 25.7599 9.1178L15.7261 12.4353C14.853 12.7238 14.1691 13.514 14.1691 14.2341L14.1691 16.0818C14.1692 16.7412 14.7496 17.2198 15.5493 17.2198Z" fill="#333232"/>
<path d="M15.5493 24.4369C15.7764 24.4369 16.0086 24.3983 16.2395 24.322L26.2733 21.0045C27.1464 20.716 27.8303 19.9257 27.8303 19.2057L27.8303 17.3579C27.8303 16.6985 27.2499 16.2198 26.4502 16.2198C26.2232 16.2198 25.9908 16.2585 25.7599 16.3349L15.7261 19.6524C14.853 19.941 14.1691 20.7311 14.1691 21.4512L14.1691 23.2989C14.1692 23.9583 14.7496 24.4369 15.5493 24.4369Z" fill="#333232"/>
<path d="M15.5493 10.0028C15.7764 10.0028 16.0086 9.96419 16.2395 9.88774L26.2733 6.57028C27.0483 6.31404 27.8303 5.81838 27.8303 5.28876C27.8303 4.84333 27.2699 4.20939 26.7491 3.80906L22.3542 0.429368C21.9941 0.15251 21.513 2.30875e-06 20.9998 2.26388e-06C20.4866 2.21902e-06 20.0056 0.15251 19.6454 0.429466L15.2505 3.80896C14.6341 4.28294 14.1693 5.14157 14.1693 5.80609L14.1693 8.86479C14.1692 9.52418 14.7496 10.0028 15.5493 10.0028Z" fill="#333232"/>
<path d="M15.5493 31.6541C15.7764 31.6541 16.0086 31.6155 16.2395 31.5392L26.2733 28.2217C27.1464 27.9331 27.8303 27.1429 27.8303 26.4228L27.8303 24.5751C27.8303 23.9157 27.2499 23.437 26.4502 23.437C26.2232 23.437 25.9908 23.4756 25.7599 23.5521L15.7261 26.8695C14.853 27.1581 14.1691 27.9483 14.1691 28.6684L14.1691 30.5161C14.1692 31.1755 14.7496 31.6541 15.5493 31.6541Z" fill="#333232"/>
<path fill-rule="evenodd" clip-rule="evenodd" d="M8.59736 66.3106H8.62271C12.9079 66.3106 14.7082 64.2826 16.9142 63.492C17.396 63.303 17.9031 63.1998 18.461 63.1655C18.5371 63.1655 18.6131 63.1655 18.7145 63.1655C18.7145 63.1655 18.7145 63.1655 18.7399 63.1655C20.8445 63.1826 21.9602 64.2826 23.5069 64.9701C24.0901 65.2279 24.7494 65.4169 25.5101 65.4857C25.5861 65.4857 25.6622 65.5029 25.7636 65.5029C25.8143 65.5029 25.865 65.5029 25.9158 65.5029C25.9411 65.5029 25.9665 65.5029 25.9918 65.5029C26.0172 65.5029 26.0425 65.5029 26.0679 65.5029C26.0933 65.5029 26.0933 65.5029 26.1186 65.5029C28.7557 65.4857 29.6178 64.1795 31.9252 63.0967C32.0266 63.0452 32.1281 62.9936 32.2295 62.9592C32.2802 62.9248 32.3309 62.9077 32.407 62.8733C32.4323 62.8733 32.4577 62.8561 32.4831 62.8389C32.5084 62.8389 32.5338 62.8217 32.5591 62.8045C32.5845 62.8045 32.5845 62.8045 32.5845 62.8045C32.6352 62.7874 32.6859 62.753 32.7366 62.7358C32.8127 62.7186 32.8888 62.6842 32.9648 62.667C33.0155 62.6499 33.0409 62.6327 33.0662 62.6155C33.0916 62.6155 33.1423 62.5983 33.1677 62.5983C36.6161 61.4296 40.4196 61.7561 40.6224 56.497C40.6224 56.3595 40.6224 56.2048 40.6224 56.0673C40.6478 52.4753 39.1264 49.9316 38.0107 46.7521C32.2802 45.6865 25.5608 44.7412 19.3231 44.7412C16.0521 44.7412 12.9333 44.999 10.1441 45.6521C7.96345 46.1505 6.01101 46.8896 4.36285 47.9036C3.27252 52.4581 0.914379 53.2487 0.787598 59.2297V59.3328V59.4016C0.787598 64.1279 4.94604 66.1044 7.65917 66.2763C7.98881 66.2935 8.29308 66.3106 8.59736 66.3106Z" fill="url(#paint0_linear_936_2169)"/>
<path d="M22.188 64.1624C19.8045 63.0453 17.8521 63.0281 16.28 63.8359C14.7333 64.6436 14.2261 64.7983 13.4908 65.1077C12.7808 65.3999 14.9615 63.664 16.0771 62.4781C17.4464 61.0516 16.8632 57.3564 18.4099 57.3564C19.8045 57.3564 19.4495 58.8861 19.7285 60.1751C19.982 61.4813 20.4384 62.0828 21.2752 62.8218C21.833 63.3203 23.253 64.6608 22.188 64.1624Z" fill="#C2C0BE"/>
<path d="M38.1882 54.108C36.9965 52.8362 34.0552 50.4301 34.0044 49.0551C33.9791 48.2645 35.3483 46.8552 35.2216 46.2537C34.1566 45.824 28.6543 45.1022 27.6146 45.2053C25.9665 45.36 27.4879 47.8005 28.7303 49.7426C29.6939 51.2207 30.2771 54.7268 28.8825 56.3939C25.6622 60.2609 30.8349 63.3717 33.0155 62.2374C34.9173 61.2406 37.2247 61.0687 38.4672 59.9859C40.6478 58.0954 39.3546 55.3455 38.1882 54.108Z" fill="#A4A4A3"/>
<path d="M23.7096 64.5747C23.7096 64.5747 26.1691 65.1419 26.9045 64.2997C27.7666 63.2857 30.4797 63.6638 29.5415 64.4372C26.7777 66.7574 22.1882 64.8497 23.7096 64.5747Z" fill="#E9EAE9"/>
<defs>
<linearGradient id="paint0_linear_936_2169" x1="40.6275" y1="55.5228" x2="0.784556" y2="55.5228" gradientUnits="userSpaceOnUse">
<stop stop-color="#A4A4A3"/>
<stop offset="0.819608" stop-color="white"/>
<stop offset="1" stop-color="white"/>
</linearGradient>
</defs>
</svg>
