<svg width="28" height="71" viewBox="0 0 28 71" fill="none" xmlns="http://www.w3.org/2000/svg">
<path d="M3.00001 48.0912C3.00001 49.0689 4.60343 49.8007 5.94852 50.2424C7.93354 50.8944 10.4378 51.2534 13 51.2534C15.5621 51.2534 18.0664 50.8944 20.0514 50.2425C21.3965 49.8008 23 49.0689 23 48.0913C23 48.035 23 45.7695 23 45.7695C23 44.9691 22.493 44.3179 21.8699 44.3179C21.8699 44.3179 21.116 44.3179 20.8648 44.3179C20.4881 44.3179 20.3034 43.9149 20.3034 43.9149L17.3373 37.0848C17.1672 36.693 17.0181 35.956 17.0181 35.5076L17.0181 31.792C17.0181 31.1327 16.6766 30.6539 16.2062 30.6539L16.2061 30.6539C16.0726 30.6539 15.936 30.6925 15.8001 30.7689L9.89791 34.0864C9.37574 34.3798 8.98202 35.0721 8.98202 35.6964C8.98202 36.0442 8.83285 36.6929 8.66274 37.0847L5.65576 44.0088C5.65576 44.0088 5.50516 44.3178 5.24147 44.3178C4.96362 44.3178 4.13016 44.3178 4.13016 44.3178C3.50703 44.3178 3.00008 44.969 3.00008 45.7694C3.00008 45.7694 3.00001 48.0349 3.00001 48.0912Z" fill="#333232"/>
<path d="M9.79346 17.2198C9.92703 17.2198 10.0636 17.1812 10.1995 17.1049L16.1017 13.7874C16.6153 13.4989 17.0176 12.7086 17.0176 11.9886L17.0176 10.1408C17.0176 9.48146 16.6761 9.00274 16.2057 9.00274C16.0722 9.00274 15.9355 9.04135 15.7997 9.1178L9.89743 12.4353C9.38385 12.7238 8.98154 13.514 8.98154 14.2341L8.98154 16.0818C8.98162 16.7412 9.32305 17.2198 9.79346 17.2198Z" fill="#333232"/>
<path d="M9.79346 24.437C9.92703 24.437 10.0636 24.3983 10.1995 24.322L16.1017 21.0045C16.6153 20.716 17.0176 19.9257 17.0176 19.2057L17.0176 17.3579C17.0176 16.6985 16.6761 16.2198 16.2057 16.2198C16.0722 16.2198 15.9355 16.2585 15.7997 16.3349L9.89743 19.6524C9.38385 19.941 8.98154 20.7312 8.98154 21.4512L8.98154 23.2989C8.98162 23.9583 9.32305 24.437 9.79346 24.437Z" fill="#333232"/>
<path d="M9.79346 10.0028C9.92703 10.0028 10.0636 9.96419 10.1995 9.88775L16.1017 6.57029C16.5576 6.31404 17.0176 5.81838 17.0176 5.28876C17.0176 4.84333 16.6879 4.20939 16.3816 3.80906L13.7963 0.429369C13.5845 0.15251 13.3015 2.53615e-06 12.9996 2.50976e-06C12.6978 2.48337e-06 12.4148 0.15251 12.2029 0.429466L9.6177 3.80896C9.25509 4.28294 8.98169 5.14157 8.98169 5.80609L8.98169 8.86479C8.98161 9.52418 9.32305 10.0028 9.79346 10.0028Z" fill="#333232"/>
<path d="M9.79346 31.6541C9.92703 31.6541 10.0636 31.6155 10.1995 31.5392L16.1017 28.2217C16.6153 27.9331 17.0176 27.1429 17.0176 26.4228L17.0176 24.5751C17.0176 23.9157 16.6761 23.437 16.2057 23.437C16.0722 23.437 15.9355 23.4756 15.7997 23.5521L9.89743 26.8695C9.38385 27.1581 8.98154 27.9483 8.98154 28.6684L8.98154 30.5161C8.98162 31.1755 9.32305 31.6541 9.79346 31.6541Z" fill="#333232"/>
<path fill-rule="evenodd" clip-rule="evenodd" d="M9.56158 70.6183H9.61229H9.63765H9.66301C10.3223 70.6183 11.0069 70.6011 11.6915 70.5496C11.7169 70.5496 11.7422 70.5496 11.7422 70.5496C11.7676 70.5496 11.7676 70.5496 11.7929 70.5496C11.8437 70.5496 11.8944 70.5496 11.9197 70.5496C16.3571 70.2574 19.4759 69.484 21.7073 68.7622C25.7643 67.456 26.8039 65.6342 27.1589 62.7124C27.235 62.0937 27.2603 61.4921 27.2603 60.8906C27.2857 55.8377 24.8261 51.4894 23.2033 48.9286C22.9244 48.4989 22.6962 48.0177 22.468 47.5365C22.3665 47.4849 22.2398 47.4333 22.113 47.3818C22.113 47.3818 22.0876 47.3646 22.0623 47.3646C22.0116 47.3474 21.9608 47.313 21.9101 47.2958C21.8848 47.2787 21.8594 47.2615 21.8087 47.2615V47.2443C21.6819 47.1927 21.5805 47.1583 21.4537 47.1068C21.403 47.0896 21.3523 47.0552 21.2762 47.038C21.2762 47.038 21.2509 47.0209 21.2255 47.0209C21.2255 47.0209 21.2255 47.0209 21.2002 47.0209C19.0702 46.1959 16.8389 45.835 14.5821 45.835C10.9308 45.835 7.20344 46.8318 3.65355 48.5333C3.29856 49.7879 2.8675 51.0082 2.33502 52.1769C1.0672 54.9955 0.0275879 60.7531 0.0275879 64.4483C0.0275879 65.7201 0.15437 66.7513 0.43329 67.3185C0.864348 68.2122 1.72646 69.0887 3.09571 69.6387C4.71852 70.309 7.00059 70.6183 9.56158 70.6183Z" fill="url(#paint0_linear_936_2165)"/>
<path d="M25.3076 58.5182C24.3441 52.795 23.0509 50.956 20.5406 48.292C20.211 47.9311 19.9321 47.6389 19.8053 47.4327C19.6025 47.1233 19.1968 46.8999 18.6896 46.7968C17.219 46.4874 15.7229 46.1437 14.2776 46.2812C13.9987 46.3155 13.7705 46.453 13.7451 46.6249C13.2126 50.3029 17.5486 50.8529 20.8703 53.5856C25.7133 57.5557 23.8623 63.3477 22.4931 65.3929C21.0985 67.4209 22.1381 67.61 24.0398 66.1491C25.1809 65.2898 25.8655 61.8696 25.3076 58.5182Z" fill="#AFAFAD"/>
<path d="M5.88487 54.5482C6.74699 53.9123 8.24302 54.9263 7.88803 55.7684C7.53304 56.5762 3.70423 61.4229 4.56634 65.479C4.94669 67.1805 2.05606 66.2008 3.24781 62.0588C4.46492 57.934 3.70423 56.1637 5.88487 54.5482Z" fill="#E9EAE9"/>
<path d="M19.6274 55.2877C19.9063 53.5862 21.453 54.5143 21.9094 55.5799C22.3659 56.6455 24.4704 61.5437 21.5291 66.1154C20.4641 67.7997 19.5006 67.1638 20.5402 65.4108C21.9094 63.1765 21.5798 61.3719 21.4023 60.1344C21.1234 57.8657 19.4245 56.508 19.6274 55.2877Z" fill="#D2D3D2"/>
<defs>
<linearGradient id="paint0_linear_936_2165" x1="27.27" y1="58.2236" x2="0.0291077" y2="58.2236" gradientUnits="userSpaceOnUse">
<stop stop-color="#A4A4A3"/>
<stop offset="0.819608" stop-color="white"/>
<stop offset="1" stop-color="white"/>
</linearGradient>
</defs>
</svg>
