<svg width="39" height="67" viewBox="0 0 39 67" fill="none" xmlns="http://www.w3.org/2000/svg">
<path d="M2 48.0912C2 49.0689 4.64565 49.8007 6.86505 50.2424C10.1403 50.8944 14.2723 51.2534 18.4999 51.2534C22.7275 51.2534 26.8595 50.8944 30.1348 50.2425C32.3542 49.8008 35 49.0689 35 48.0913C35 48.035 35 45.7695 35 45.7695C35 44.9691 34.1635 44.3179 33.1354 44.3179C33.1354 44.3179 31.8914 44.3179 31.4769 44.3179C30.8553 44.3179 30.5506 43.9149 30.5506 43.9149L25.6566 37.0848C25.3759 36.693 25.1298 35.956 25.1298 35.5076L25.1298 31.792C25.1298 31.1327 24.5664 30.6539 23.7903 30.6539L23.7901 30.6539C23.5699 30.6539 23.3444 30.6925 23.1202 30.7689L13.3815 34.0864C12.52 34.3798 11.8703 35.0721 11.8703 35.6964C11.8703 36.0442 11.6242 36.6929 11.3435 37.0847L6.38199 44.0088C6.38199 44.0088 6.1335 44.3178 5.69842 44.3178C5.23997 44.3178 3.86475 44.3178 3.86475 44.3178C2.8366 44.3178 2.00013 44.969 2.00013 45.7694C2.00013 45.7694 2 48.0349 2 48.0912Z" fill="#333232"/>
<path d="M13.2094 17.2198C13.4298 17.2198 13.6551 17.1812 13.8793 17.1049L23.6179 13.7874C24.4653 13.4989 25.1292 12.7086 25.1292 11.9886L25.1292 10.1408C25.1292 9.48146 24.5658 9.00274 23.7896 9.00274C23.5693 9.00274 23.3437 9.04135 23.1196 9.1178L13.3809 12.4353C12.5335 12.7238 11.8697 13.514 11.8697 14.2341L11.8697 16.0818C11.8698 16.7412 12.4332 17.2198 13.2094 17.2198Z" fill="#333232"/>
<path d="M13.2094 24.4369C13.4298 24.4369 13.6551 24.3983 13.8793 24.322L23.6179 21.0045C24.4653 20.716 25.1292 19.9257 25.1292 19.2057L25.1292 17.3579C25.1292 16.6985 24.5658 16.2198 23.7896 16.2198C23.5693 16.2198 23.3437 16.2585 23.1196 16.3349L13.3809 19.6524C12.5335 19.941 11.8697 20.7311 11.8697 21.4512L11.8697 23.2989C11.8698 23.9583 12.4332 24.4369 13.2094 24.4369Z" fill="#333232"/>
<path d="M13.2094 10.0028C13.4297 10.0028 13.6551 9.96419 13.8792 9.88774L23.6179 6.57028C24.3701 6.31404 25.1292 5.81838 25.1292 5.28876C25.1292 4.84333 24.5852 4.20939 24.0797 3.80906L19.8141 0.429369C19.4645 0.15251 18.9976 2.32499e-06 18.4995 2.28144e-06C18.0014 2.2379e-06 17.5345 0.15251 17.185 0.429466L12.9193 3.80896C12.321 4.28294 11.8699 5.14157 11.8699 5.80609L11.8699 8.86479C11.8698 9.52418 12.4332 10.0028 13.2094 10.0028Z" fill="#333232"/>
<path d="M13.2094 31.6541C13.4298 31.6541 13.6551 31.6155 13.8793 31.5392L23.6179 28.2217C24.4653 27.9331 25.1292 27.1429 25.1292 26.4228L25.1292 24.5751C25.1292 23.9157 24.5658 23.437 23.7896 23.437C23.5693 23.437 23.3437 23.4756 23.1196 23.5521L13.3809 26.8695C12.5335 27.1581 11.8697 27.9483 11.8697 28.6684L11.8697 30.5161C11.8698 31.1755 12.4332 31.6541 13.2094 31.6541Z" fill="#333232"/>
<path fill-rule="evenodd" clip-rule="evenodd" d="M2.8576 48.728C1.78393 51.6055 0.344238 53.9075 0.344238 57.1582C0.344238 57.2827 0.344238 57.4226 0.344238 57.5471C0.539451 62.3066 4.19968 62.011 7.51829 63.0687C10.7881 64.0953 11.3737 65.7595 14.4971 65.6973C17.6205 65.6351 18.5478 63.4731 21.6712 63.582C24.7946 63.7064 26.2587 66.755 32.0662 66.3973C34.6772 66.2417 38.6791 64.453 38.6791 60.1757C38.6791 60.1135 38.6791 60.0668 38.6791 60.0201C38.5571 54.6074 36.3121 53.8919 35.2384 49.7701C33.6279 48.8369 31.7002 48.1681 29.5773 47.7015C26.9175 47.126 23.9405 46.9082 20.8415 46.9082C14.8388 46.9082 8.37235 47.7637 2.8576 48.728Z" fill="url(#paint0_linear_936_1982)"/>
<path d="M18.0839 64.4845C20.3777 63.4735 22.2566 63.458 23.7695 64.189C25.258 64.9201 25.746 65.06 26.4537 65.34C27.1369 65.6044 25.0384 64.0335 23.9647 62.9603C22.647 61.6693 23.2083 58.3252 21.7198 58.3252C20.3777 58.3252 20.7193 59.7095 20.4509 60.876C20.2069 62.0581 19.7676 62.6025 18.9624 63.2713C18.4256 63.7224 17.0591 64.9356 18.0839 64.4845Z" fill="#C2C0BE"/>
<path d="M36.5071 56.8782C34.6526 53.6741 32.7005 52.6787 31.1876 50.2678C30.7972 49.6146 30.6996 48.8835 30.5776 48.3391C29.5527 47.9503 26.8929 47.297 25.8925 47.3904C24.3308 47.5303 26.9905 48.9769 28.1862 50.7189C29.1135 52.0721 31.6268 54.3274 27.3322 60.3623C24.7212 64.0175 28.6498 65.9773 30.5776 66.1173C32.0905 66.2261 34.8722 65.8217 36.2875 64.5308C38.2397 62.7576 38.142 59.6779 36.5071 56.8782Z" fill="#A4A4A3"/>
<path d="M6.32274 62.7264C6.32274 62.7264 9.05571 63.3485 9.98297 64.2195C10.9346 65.0906 11.9839 63.8618 10.6418 63.2241C7.2744 61.5909 4.00459 62.2597 6.32274 62.7264Z" fill="#E9EAE9"/>
<defs>
<linearGradient id="paint0_linear_936_1982" x1="0.339114" y1="56.6653" x2="38.6818" y2="56.6653" gradientUnits="userSpaceOnUse">
<stop stop-color="white"/>
<stop offset="0.180392" stop-color="white"/>
<stop offset="1" stop-color="#A4A4A3"/>
</linearGradient>
</defs>
</svg>
