<svg width="37" height="73" viewBox="0 0 37 73" fill="none" xmlns="http://www.w3.org/2000/svg">
<path d="M8 48.0912C8 49.0689 9.68359 49.8007 11.0959 50.2424C13.1802 50.8944 15.8097 51.2534 18.5 51.2534C21.1902 51.2534 23.8197 50.8944 25.904 50.2425C27.3163 49.8008 29 49.0689 29 48.0913C29 48.035 29 45.7695 29 45.7695C29 44.9691 28.4677 44.3179 27.8134 44.3179C27.8134 44.3179 27.0218 44.3179 26.758 44.3179C26.3625 44.3179 26.1686 43.9149 26.1686 43.9149L23.0542 37.0848C22.8756 36.693 22.719 35.956 22.719 35.5076L22.719 31.792C22.719 31.1327 22.3605 30.6539 21.8665 30.6539L21.8664 30.6539C21.7263 30.6539 21.5828 30.6925 21.4401 30.7689L15.2428 34.0864C14.6945 34.3798 14.2811 35.0721 14.2811 35.6964C14.2811 36.0442 14.1245 36.6929 13.9459 37.0847L10.7885 44.0088C10.7885 44.0088 10.6304 44.3178 10.3535 44.3178C10.0618 44.3178 9.18666 44.3178 9.18666 44.3178C8.53238 44.3178 8.00008 44.969 8.00008 45.7694C8.00008 45.7694 8 48.0349 8 48.0912Z" fill="#333232"/>
<path d="M15.1334 17.2198C15.2737 17.2198 15.4171 17.1812 15.5597 17.1049L21.7571 13.7874C22.2963 13.4989 22.7188 12.7086 22.7188 11.9886L22.7188 10.1408C22.7188 9.48146 22.3602 9.00274 21.8663 9.00274C21.7261 9.00274 21.5826 9.04135 21.4399 9.1178L15.2426 12.4353C14.7033 12.7238 14.2809 13.514 14.2809 14.2341L14.2809 16.0818C14.281 16.7412 14.6395 17.2198 15.1334 17.2198Z" fill="#333232"/>
<path d="M15.1334 24.437C15.2737 24.437 15.4171 24.3983 15.5597 24.322L21.7571 21.0045C22.2963 20.716 22.7188 19.9257 22.7188 19.2057L22.7188 17.3579C22.7188 16.6985 22.3602 16.2198 21.8663 16.2198C21.7261 16.2198 21.5826 16.2585 21.4399 16.3349L15.2426 19.6524C14.7033 19.941 14.2809 20.7312 14.2809 21.4512L14.2809 23.2989C14.281 23.9583 14.6395 24.4369 15.1334 24.437Z" fill="#333232"/>
<path d="M15.1334 10.0028C15.2737 10.0028 15.4171 9.96419 15.5597 9.88775L21.7571 6.57028C22.2357 6.31404 22.7188 5.81838 22.7188 5.28876C22.7188 4.84333 22.3726 4.20939 22.0509 3.80906L19.3364 0.429369C19.114 0.15251 18.8169 2.51991e-06 18.4999 2.4922e-06C18.1829 2.46449e-06 17.8858 0.15251 17.6634 0.429466L14.9489 3.80896C14.5681 4.28294 14.2811 5.14157 14.2811 5.80609L14.2811 8.86479C14.281 9.52418 14.6395 10.0028 15.1334 10.0028Z" fill="#333232"/>
<path d="M15.1334 31.6541C15.2737 31.6541 15.4171 31.6155 15.5597 31.5392L21.7571 28.2217C22.2963 27.9331 22.7188 27.1429 22.7188 26.4228L22.7188 24.5751C22.7188 23.9157 22.3602 23.437 21.8663 23.437C21.7261 23.437 21.5826 23.4756 21.4399 23.5521L15.2426 26.8695C14.7033 27.1581 14.2809 27.9483 14.2809 28.6684L14.2809 30.5161C14.281 31.1755 14.6395 31.6541 15.1334 31.6541Z" fill="#333232"/>
<path fill-rule="evenodd" clip-rule="evenodd" d="M11.2827 45.9617C9.28754 46.6063 8.41292 47.5994 7.37432 48.5576C4.96914 51.9896 0.322754 57.1812 0.322754 62.3032C0.322754 67.1638 6.80036 68.575 9.45153 69.9861C12.0754 71.3799 17.651 72.913 20.3295 72.9826C23.8553 73.0697 25.7685 71.7631 29.431 70.2649C34.788 68.0697 36.6192 65.5959 36.6192 63.0175C36.6192 58.3833 30.7702 53.453 29.267 49.3764C28.447 48.8015 27.5997 48.2962 26.7251 47.8607C23.5273 46.2753 19.9469 45.561 16.2298 45.561C14.6172 45.561 12.95 45.7004 11.2827 45.9617Z" fill="url(#paint0_linear_936_2160)"/>
<path d="M24.4293 49.5504C24.2106 48.8187 24.1287 47.965 24.074 47.0591C22.5434 46.4493 20.9855 45.8744 19.4549 45.7002C19.3183 48.5922 21.7235 53.8012 20.0562 59.9685C18.7716 64.7594 19.3183 68.8883 20.8215 67.8779C28.0371 63.0695 30.4149 65.4911 30.6063 61.1183C30.8249 56.4493 25.6046 53.5748 24.4293 49.5504Z" fill="#AFAFAD"/>
<path d="M22.5164 71.8677C23.2817 73.1744 31.0439 70.1604 33.4491 68.2092C35.8816 66.258 35.3896 64.028 33.4491 63.8015C31.5085 63.5925 28.2287 65.1082 27.1355 67.0245C24.9763 70.805 21.9698 70.9618 22.5164 71.8677Z" fill="#A4A4A3"/>
<path d="M4.4226 67.3033C-0.770418 63.3311 9.15097 62.8085 13.8247 64.7249C16.3939 65.6482 18.2524 66.589 18.7444 68.0176C19.209 69.3242 18.2524 71.798 15.3279 71.4496C16.3665 71.3973 16.8858 71.3277 17.2958 70.6308C18.9357 67.9827 15.9292 66.8329 12.8407 65.6656C10.2169 64.5158 1.11547 63.1569 4.4226 67.3033Z" fill="#D2D3D2"/>
<defs>
<linearGradient id="paint0_linear_936_2160" x1="0.327674" y1="59.2722" x2="36.6107" y2="59.2722" gradientUnits="userSpaceOnUse">
<stop stop-color="white"/>
<stop offset="0.180392" stop-color="white"/>
<stop offset="1" stop-color="#A4A4A3"/>
</linearGradient>
</defs>
</svg>
