<svg width="27" height="71" viewBox="0 0 27 71" fill="none" xmlns="http://www.w3.org/2000/svg">
<path d="M5 48.0912C5 49.0689 6.36291 49.8007 7.50624 50.2424C9.1935 50.8944 11.3221 51.2534 13.5 51.2534C15.6778 51.2534 17.8064 50.8944 19.4937 50.2425C20.637 49.8008 22 49.0689 22 48.0913C22 48.035 22 45.7695 22 45.7695C22 44.9691 21.5691 44.3179 21.0394 44.3179C21.0394 44.3179 20.3986 44.3179 20.185 44.3179C19.8649 44.3179 19.7079 43.9149 19.7079 43.9149L17.1867 37.0848C17.0421 36.693 16.9154 35.956 16.9154 35.5076L16.9154 31.792C16.9154 31.1327 16.6251 30.6539 16.2253 30.6539L16.2252 30.6539C16.1117 30.6539 15.9956 30.6925 15.8801 30.7689L10.8632 34.0864C10.4194 34.3798 10.0847 35.0721 10.0847 35.6964C10.0847 36.0442 9.95792 36.6929 9.81332 37.0847L7.25739 44.0088C7.25739 44.0088 7.12938 44.3178 6.90525 44.3178C6.66907 44.3178 5.96063 44.3178 5.96063 44.3178C5.43097 44.3178 5.00006 44.969 5.00006 45.7694C5.00006 45.7694 5 48.0349 5 48.0912Z" fill="#333232"/>
<path d="M10.7745 17.2198C10.8881 17.2198 11.0042 17.1812 11.1196 17.1049L16.1365 13.7874C16.5731 13.4989 16.915 12.7086 16.915 11.9886L16.915 10.1408C16.915 9.48146 16.6248 9.00274 16.225 9.00274C16.1115 9.00274 15.9953 9.04135 15.8798 9.1178L10.8629 12.4353C10.4264 12.7238 10.0844 13.514 10.0844 14.2341L10.0844 16.0818C10.0845 16.7412 10.3747 17.2198 10.7745 17.2198Z" fill="#333232"/>
<path d="M10.7745 24.437C10.8881 24.437 11.0042 24.3983 11.1196 24.322L16.1365 21.0045C16.5731 20.716 16.915 19.9257 16.915 19.2057L16.915 17.3579C16.915 16.6985 16.6248 16.2198 16.225 16.2198C16.1115 16.2198 15.9953 16.2585 15.8798 16.3349L10.8629 19.6524C10.4264 19.941 10.0844 20.7312 10.0844 21.4512L10.0844 23.2989C10.0845 23.9583 10.3747 24.437 10.7745 24.437Z" fill="#333232"/>
<path d="M10.7745 10.0028C10.8881 10.0028 11.0042 9.96419 11.1196 9.88775L16.1365 6.57029C16.524 6.31404 16.915 5.81838 16.915 5.28876C16.915 4.84333 16.6348 4.20939 16.3744 3.80906L14.177 0.429369C13.9969 0.15251 13.7564 2.58488e-06 13.4998 2.56245e-06C13.2432 2.54002e-06 13.0027 0.15251 12.8226 0.429466L10.6251 3.80896C10.3169 4.28294 10.0845 5.14157 10.0845 5.80609L10.0845 8.86479C10.0845 9.52418 10.3747 10.0028 10.7745 10.0028Z" fill="#333232"/>
<path d="M10.7745 31.6541C10.8881 31.6541 11.0042 31.6155 11.1196 31.5392L16.1365 28.2217C16.5731 27.9331 16.915 27.1429 16.915 26.4228L16.915 24.5751C16.915 23.9157 16.6248 23.437 16.225 23.437C16.1115 23.437 15.9953 23.4756 15.8798 23.5521L10.8629 26.8695C10.4264 27.1581 10.0844 27.9483 10.0844 28.6684L10.0844 30.5161C10.0845 31.1755 10.3747 31.6541 10.7745 31.6541Z" fill="#333232"/>
<path fill-rule="evenodd" clip-rule="evenodd" d="M15.5481 44.7163H15.5228C13.6718 44.7163 11.9222 45.146 10.2994 45.885C8.423 46.7444 6.69877 47.999 5.17738 49.4771C4.16313 52.2785 2.99674 54.7534 2.15998 57.108C1.39929 59.222 0.942871 62.5734 0.942871 65.3405C0.942871 67.5232 1.22179 69.3278 1.88106 69.8606C2.48961 70.3418 3.52922 70.4621 4.94918 70.4621C4.97453 70.4621 4.97453 70.4621 4.97453 70.4621C4.99989 70.4621 4.99989 70.4621 4.99989 70.4621C5.50702 70.4621 6.01414 70.4621 6.59734 70.4278C6.90162 70.4278 7.20589 70.4106 7.53553 70.3934C7.56088 70.3934 7.6116 70.3934 7.63695 70.3934C8.54978 70.359 9.56404 70.3246 10.6544 70.3246H10.6797H10.7051C11.5672 70.3246 12.5054 70.359 13.4943 70.4106C14.4832 70.4621 15.396 70.4965 16.2581 70.4965C28.8349 70.4965 26.3753 64.5155 26.1725 61.5078C26.1725 61.4563 26.1725 61.4047 26.1725 61.3531C26.0203 58.2079 24.2454 50.9036 22.6226 47.2084C22.5465 47.0537 22.4958 46.8818 22.4451 46.71C20.7969 45.7819 19.2248 45.1975 17.7034 44.9226C17.6781 44.9226 17.6781 44.9226 17.6527 44.9226C17.6527 44.9226 17.6527 44.9226 17.6527 44.9054C17.6274 44.9054 17.6274 44.9054 17.602 44.9054C17.5766 44.9054 17.5766 44.9054 17.5513 44.8882C17.5259 44.8882 17.5259 44.8882 17.5006 44.8882C17.4752 44.8882 17.4499 44.8882 17.4499 44.871C17.4245 44.871 17.4245 44.871 17.3992 44.871C17.3992 44.871 17.3992 44.871 17.3738 44.871C17.3738 44.871 17.3738 44.871 17.3484 44.871C17.3484 44.871 17.3484 44.8538 17.3231 44.8538H17.2977C17.2977 44.8538 17.2977 44.8538 17.2724 44.8538H17.247C17.2217 44.8538 17.2217 44.8538 17.2217 44.8538C17.2217 44.8366 17.1963 44.8366 17.1963 44.8366C17.1709 44.8366 17.1709 44.8366 17.1709 44.8366C17.1709 44.8366 17.1456 44.8366 17.1202 44.8366C16.5877 44.7679 16.0553 44.7163 15.5481 44.7163Z" fill="url(#paint0_linear_936_2164)"/>
<path d="M20.7462 47.1567C20.1631 46.1942 17.4246 45.5927 16.9174 45.5583C9.41195 45.1114 22.8762 50.5425 23.3072 59.9265C23.4847 63.9138 22.4198 70.4964 24.2201 67.3855C25.0568 65.9247 26.4768 56.4547 20.7462 47.1567Z" fill="#AFAFAD"/>
<path d="M15.0664 52.9147C13.8239 52.76 18.3881 54.3584 18.8445 56.0427C19.0473 56.8676 21.3801 61.6112 20.4926 65.6673C20.1376 67.3688 22.0394 65.2892 21.4815 61.0956C20.5433 54.1006 16.5624 53.0865 15.0664 52.9147Z" fill="#E9EAE9"/>
<path fill-rule="evenodd" clip-rule="evenodd" d="M13.4942 52.7939C9.48791 52.7939 4.69556 54.9423 4.69556 60.3218C4.69556 60.339 4.69556 60.3561 4.69556 60.3733C4.69556 62.1436 5.15197 63.2779 5.15197 63.2779C5.15197 63.1748 5.15197 63.0545 5.15197 62.9513C5.15197 56.0251 9.71612 53.7736 13.5703 53.7564C13.5956 53.7564 13.5956 53.7564 13.621 53.7564C13.621 53.7564 13.621 53.7564 13.6464 53.7564C16.182 53.7564 18.4134 54.7361 18.8191 55.9735C18.8191 55.9907 18.8191 56.0251 18.8444 56.0423C18.9712 55.1314 18.5148 54.3751 17.678 53.8252C17.678 53.8252 17.678 53.8252 17.6527 53.808C17.6527 53.808 17.6527 53.808 17.6527 53.7908C17.6273 53.7908 17.6273 53.7908 17.6273 53.7908C17.0188 53.3955 16.2073 53.1033 15.2692 52.9314C14.7113 52.8455 14.1281 52.7939 13.4942 52.7939Z" fill="url(#paint1_linear_936_2164)"/>
<defs>
<linearGradient id="paint0_linear_936_2164" x1="24.4558" y1="57.6086" x2="2.98507" y2="57.6086" gradientUnits="userSpaceOnUse">
<stop stop-color="#A4A4A3"/>
<stop offset="0.819608" stop-color="white"/>
<stop offset="1" stop-color="white"/>
</linearGradient>
<linearGradient id="paint1_linear_936_2164" x1="4.69353" y1="58.0347" x2="18.8563" y2="58.0347" gradientUnits="userSpaceOnUse">
<stop stop-color="#E9E9E9"/>
<stop offset="1" stop-color="#A4A4A3"/>
</linearGradient>
</defs>
</svg>
