<svg width="12" height="12" viewBox="0 0 12 12" fill="none" xmlns="http://www.w3.org/2000/svg">
<circle cx="6" cy="6" r="5.75" stroke="#333333" stroke-width="0.5"/>
<path d="M6 12C5.21207 12 4.43185 11.8448 3.7039 11.5433C2.97595 11.2417 2.31451 10.7998 1.75736 10.2426C1.20021 9.68549 0.758251 9.02405 0.456722 8.2961C0.155194 7.56815 -3.31151e-07 6.78793 -2.62268e-07 6C-1.93385e-07 5.21207 0.155194 4.43185 0.456723 3.7039C0.758251 2.97595 1.20021 2.31451 1.75736 1.75736C2.31451 1.20021 2.97595 0.75825 3.7039 0.456722C4.43185 0.155194 5.21207 -3.65593e-07 6 -2.62268e-07L6 6L6 12Z" fill="#333333"/>
</svg>
